<svg width="46" height="46" viewBox="0 0 46 46" fill="none" xmlns="http://www.w3.org/2000/svg">
<g clip-path="url(#clip0_96_52)">
<path d="M18.555 0.117986C18.2302 0.294266 18.1442 0.470547 17.4945 2.14057L16.8925 3.68999L15.2492 3.75493C13.4338 3.81988 13.0898 3.8941 12.8032 4.23739C12.5643 4.53428 12.5548 5.16518 12.7841 5.43424C12.8701 5.54557 13.5102 6.05586 14.1886 6.5847C14.8765 7.11354 15.4594 7.56816 15.4976 7.596C15.5358 7.63311 15.3543 8.42173 15.0867 9.34952C14.6568 10.8711 14.6186 11.0845 14.7141 11.3721C14.867 11.7989 15.316 12.0865 15.7651 12.0308C15.9849 12.003 16.6155 11.6597 17.5709 11.0567L19.0423 10.1289L19.4054 10.3423C19.5965 10.4629 20.2844 10.8989 20.9246 11.3164C22.1475 12.0958 22.4151 12.1793 22.9215 11.9288C23.2177 11.7711 23.4087 11.4278 23.4087 11.0381C23.4087 10.8897 23.2081 10.0639 22.9692 9.21963C22.6062 7.93928 22.5584 7.65166 22.6635 7.55888C22.7304 7.49394 23.3323 7.02076 24.0011 6.51048C24.6699 5.99091 25.2814 5.47135 25.3579 5.36001C25.6541 4.96106 25.5012 4.29305 25.0617 4.01472C24.8515 3.87555 24.4597 3.82916 22.9979 3.75493L21.1921 3.66215L20.5806 2.08491C20.122 0.90661 19.8927 0.442713 19.6825 0.247876C19.3672 -0.0304613 18.9277 -0.0768509 18.555 0.117986ZM19.6347 3.81988C20.1506 5.09096 20.1889 5.10951 21.8036 5.20229C22.5011 5.2394 23.0934 5.27651 23.1126 5.27651C23.1317 5.28579 22.6826 5.64763 22.1284 6.08369C21.5647 6.51976 21.0583 6.99293 21.001 7.12282C20.915 7.32694 20.9628 7.61455 21.2399 8.65368L21.5743 9.92476L21.2303 9.72064C21.0297 9.60931 20.5615 9.31241 20.1698 9.06191C19.0996 8.36606 18.9945 8.37534 17.676 9.21036C17.0741 9.60003 16.5677 9.9062 16.5486 9.88764C16.539 9.86909 16.6728 9.33097 16.8543 8.69079C17.2938 7.11354 17.2938 7.09499 16.004 6.10225C15.4594 5.68474 15.0294 5.3229 15.0581 5.29507C15.0772 5.27651 15.6505 5.23012 16.3288 5.19301C17.2652 5.14662 17.6187 5.09096 17.8193 4.97034C18.0869 4.80334 18.0964 4.77551 18.6888 3.29104C19.0328 2.40963 19.0614 2.37252 19.1474 2.62303C19.2047 2.77147 19.4149 3.30959 19.6347 3.81988Z" fill="#00045F"/>
<path d="M5.79006 4.9333C5.61807 5.08175 5.35055 5.63843 4.9397 6.67756C4.61485 7.52185 4.3091 8.26408 4.27088 8.31975C4.22311 8.40325 3.92692 8.44036 3.41097 8.44964C2.98102 8.44964 2.15933 8.48675 1.58606 8.52386C0.573273 8.58881 0.535055 8.59809 0.277082 8.8857C0.0573273 9.11765 0 9.27538 0 9.59083C0 10.064 0.1051 10.1753 1.8918 11.5392C2.48418 12.0031 2.95236 12.4206 2.92369 12.4855C2.90458 12.5412 2.67527 13.3298 2.42686 14.2205L1.97779 15.8441L2.15933 16.1967C2.35997 16.5957 2.87592 16.8554 3.26766 16.7627C3.39186 16.7256 4.14667 16.2802 4.95881 15.7699L6.42066 14.8329L7.92072 15.7885C9.22014 16.6142 9.46856 16.7348 9.82208 16.7348C10.1756 16.7441 10.2807 16.6977 10.5196 16.4379C10.8922 16.0297 10.8826 15.7885 10.3667 13.9793C10.1278 13.1443 9.93673 12.4299 9.93673 12.402C9.93673 12.3742 10.5387 11.8825 11.2744 11.3165C12.0101 10.7413 12.6789 10.1846 12.7553 10.0826C12.9942 9.74855 12.9369 9.22899 12.6311 8.89498C12.3636 8.60737 12.3158 8.58881 11.3604 8.52386C10.8157 8.48675 9.97495 8.44964 9.48767 8.44964L8.60865 8.44036L8.23602 7.48474C8.03537 6.96517 7.74874 6.24149 7.60542 5.88893C7.4621 5.52709 7.29967 5.17453 7.23279 5.09103C6.90794 4.6828 6.17224 4.60858 5.79006 4.9333ZM6.99393 8.47747C7.53854 9.82277 7.53854 9.82277 9.21058 9.90628L10.5291 9.97122L9.49722 10.8062C8.17869 11.8639 8.17869 11.8639 8.63731 13.4504C8.81885 14.0906 8.96217 14.6195 8.94306 14.6287C8.9335 14.638 8.43667 14.3318 7.84428 13.9515C7.06081 13.4504 6.67863 13.2649 6.44932 13.2649C6.22957 13.2649 5.82827 13.4597 5.02569 13.9515C4.4142 14.3318 3.91736 14.6195 3.91736 14.5824C3.91736 14.5452 4.05113 14.0535 4.21356 13.4968C4.53841 12.3556 4.57663 11.966 4.36643 11.6598C4.28999 11.5485 3.81226 11.1402 3.31543 10.7598C2.80904 10.3794 2.39819 10.0362 2.38864 10.0083C2.38864 9.9805 2.9428 9.93411 3.61162 9.90628C4.45242 9.86916 4.93015 9.8135 5.12124 9.71144C5.45565 9.54444 5.48431 9.48877 6.34422 7.28062L6.42066 7.09506L6.50665 7.28062C6.55442 7.38268 6.77417 7.9208 6.99393 8.47747Z" fill="#00045F"/>
<path d="M31.0906 4.90546C30.8421 5.0539 30.7179 5.29513 30.1924 6.64043C29.858 7.50328 29.5427 8.26407 29.495 8.31973C29.4376 8.40323 29.1319 8.44035 28.6255 8.44962C28.2051 8.44962 27.3834 8.48674 26.8101 8.52385C25.7973 8.58879 25.7591 8.59807 25.5012 8.88569C25.1572 9.2568 25.1285 9.77637 25.4152 10.1382C25.5203 10.2681 26.1891 10.8248 26.8961 11.3722C27.7847 12.0587 28.1764 12.4206 28.1382 12.5134C27.6796 14.0257 27.2401 15.807 27.2879 15.9926C27.3738 16.3266 27.7751 16.6884 28.1478 16.7534C28.5204 16.8183 28.7497 16.707 30.5077 15.5658L31.6447 14.8236L32.9919 15.6864C33.7372 16.1596 34.4729 16.6049 34.6162 16.6791C35.2277 16.976 36.0207 16.4843 36.0207 15.7977C36.0207 15.6122 35.8296 14.7772 35.5908 13.9422C35.3519 13.1071 35.1608 12.4113 35.1608 12.3927C35.1608 12.3742 35.7627 11.8825 36.4984 11.3165C37.2341 10.7413 37.903 10.1846 37.9794 10.0825C38.2183 9.74853 38.1609 9.22897 37.8552 8.89496C37.5877 8.60735 37.5399 8.58879 36.5844 8.52385C36.0398 8.48674 35.199 8.44962 34.7213 8.44962C33.976 8.44035 33.8327 8.41251 33.7754 8.27334C33.7372 8.18984 33.4792 7.53111 33.2021 6.81671C32.5142 5.07246 32.4855 5.01679 32.1893 4.85907C31.8263 4.68279 31.4441 4.69206 31.0906 4.90546ZM32.1416 8.30118C32.3804 8.90424 32.6575 9.48875 32.7626 9.59081C32.9919 9.8042 33.6225 9.90626 34.8742 9.92482L35.7818 9.93409L35.3137 10.3238C35.0461 10.5372 34.578 10.9268 34.2627 11.1773C33.4696 11.8268 33.441 11.9381 33.8518 13.404C34.0429 14.072 34.1862 14.6194 34.1671 14.6287C34.1576 14.638 33.6607 14.3318 33.0684 13.9514C32.2849 13.4597 31.9027 13.2649 31.6829 13.2649C31.4536 13.2649 31.0523 13.4597 30.2593 13.9607C29.6383 14.3411 29.1414 14.6287 29.1414 14.6102C29.1414 14.5916 29.2943 14.0349 29.4758 13.3855C29.9154 11.8361 29.9154 11.8453 28.5873 10.7877L27.5649 9.9712L28.8166 9.91554C30.1542 9.85059 30.546 9.73926 30.7466 9.34958C30.8326 9.18258 31.3103 7.99501 31.5778 7.24349C31.6543 7.05794 31.6734 7.09505 32.1416 8.30118Z" fill="#00045F"/>
<path d="M17.848 12.8937C11.9242 13.803 8.92406 20.1769 12.0962 25.1128C12.6217 25.9385 13.7969 27.1075 14.5039 27.5065C14.781 27.6549 15.0007 27.8034 15.0007 27.8312C15.0007 27.859 14.6281 27.9889 14.1599 28.1374C8.82851 29.7796 4.67228 34.4464 3.71683 39.8925C3.51618 41.0337 3.56396 41.377 3.92703 41.5625C4.03213 41.6182 8.79985 41.6553 16.6441 41.6553L29.1893 41.6646L29.5428 42.1934C29.925 42.7687 31.0524 43.8913 31.6734 44.3366C33.5939 45.6912 36.1832 46.2757 38.5336 45.8768C41.9446 45.3015 44.7058 42.9171 45.7282 39.6606C45.9766 38.8905 45.9957 38.7049 45.9957 37.2019C46.0052 35.4391 45.9384 35.068 45.3555 33.7227C44.7823 32.396 43.5211 30.8651 42.279 30.0022C41.5719 29.5105 40.435 28.9817 39.4891 28.6941C38.7247 28.4714 38.5049 28.4436 37.0718 28.4436C35.8106 28.4343 35.3615 28.4714 34.8264 28.6106C33.1831 29.0373 31.7881 29.8167 30.5842 30.9579L29.8772 31.6352L29.4377 31.2362C28.0332 29.9559 25.9407 28.7776 23.9629 28.1467C23.4947 27.9982 23.1221 27.859 23.1221 27.8312C23.1221 27.8034 23.3228 27.6642 23.5712 27.5065C24.2113 27.1168 25.2623 26.1241 25.7592 25.4561C26.3038 24.7138 26.8006 23.6933 27.049 22.7747C27.3357 21.7356 27.3357 19.9357 27.049 18.878C26.0936 15.4081 23.017 12.9865 19.3481 12.8474C18.8226 12.8288 18.1442 12.8474 17.848 12.8937ZM20.7812 14.5267C23.2941 15.1761 25.205 17.2358 25.6636 19.7687C26.2465 23.0531 24.1062 26.2632 20.7335 27.1539C19.7494 27.4137 18.0391 27.3673 17.055 27.0611C15.9849 26.7179 15.1727 26.2261 14.3224 25.419C13.5102 24.6396 13.0038 23.851 12.6312 22.7469C12.421 22.1253 12.3828 21.8748 12.3828 20.8264C12.3828 19.7687 12.421 19.5275 12.6408 18.878C13.4338 16.5678 15.3256 14.9256 17.7716 14.4153C18.5264 14.2576 19.9691 14.3133 20.7812 14.5267ZM21.8514 29.1208C24.3451 29.6497 26.6669 30.8001 28.5013 32.4052L29.0555 32.8877L28.7211 33.6021C27.8612 35.402 27.6796 37.7679 28.272 39.6235L28.4536 40.1709H16.8543C5.54175 40.1709 5.25511 40.1709 5.25511 39.9946C5.25511 39.7441 5.69462 38.1668 5.92393 37.5916C6.57364 35.9587 7.60553 34.3814 8.88584 33.0918C11.112 30.8373 13.73 29.5012 16.9785 28.991C18.1537 28.8054 20.6666 28.8703 21.8514 29.1208ZM38.7438 30.0486C41.5242 30.7074 43.6262 32.7207 44.3428 35.4298C44.5721 36.302 44.5816 37.8699 44.3714 38.807C43.7695 41.4234 41.6197 43.5759 38.8776 44.3088C37.9317 44.5686 36.0112 44.5408 35.0271 44.2717C32.8964 43.6779 31.1957 42.3048 30.2403 40.4028C29.6574 39.2523 29.4854 38.5101 29.4854 37.1555C29.4854 35.8659 29.6956 35.003 30.2498 33.9175C31.2721 31.9413 33.2117 30.4754 35.3902 30.0115C36.2787 29.826 37.8457 29.8445 38.7438 30.0486Z" fill="#E83A15"/>
<path d="M39.9763 33.0269C39.747 33.1382 38.8393 33.9547 37.7406 35.0217L35.8965 36.8308L35.0175 36.0144C34.2723 35.3 34.0812 35.1701 33.6512 35.0773C33.0779 34.9381 32.6862 35.0031 32.132 35.3093C31.2817 35.7824 30.9473 36.9515 31.4059 37.805C31.5205 38.0091 32.3518 38.8905 33.269 39.7627C34.8073 41.2379 34.9602 41.3585 35.4188 41.4605C35.9634 41.5904 36.3551 41.544 36.8902 41.275C37.3584 41.043 42.4223 36.0051 42.6325 35.5505C42.8618 35.0773 42.8522 34.3815 42.6038 33.899C42.1548 32.9898 40.9127 32.5816 39.9763 33.0269ZM41.2089 34.5206C41.2566 34.6041 41.2757 34.7711 41.2471 34.8918C41.1802 35.1608 36.1258 40.0781 35.9156 40.0781C35.7532 40.0781 32.6766 37.0999 32.6766 36.9422C32.6766 36.7845 33.0302 36.4597 33.2117 36.4597C33.2977 36.4597 33.871 36.9422 34.4825 37.5267C35.4761 38.4638 35.6481 38.5937 35.9347 38.5937C36.2309 38.5937 36.4507 38.4174 38.4571 36.4597C40.2438 34.7155 40.6929 34.3258 40.884 34.3444C41.0082 34.3629 41.1515 34.4371 41.2089 34.5206Z" fill="#00045F"/>
</g>
<defs>
<clipPath id="clip0_96_52">
<rect width="46" height="46" fill="white"/>
</clipPath>
</defs>
</svg>
