<svg width="48" height="40" viewBox="0 0 48 40" fill="none" xmlns="http://www.w3.org/2000/svg">
<g clip-path="url(#clip0_91_56)">
<path d="M1.33157 0.244167C1.05965 0.375601 0.722082 0.638468 0.562676 0.826231C-0.0186847 1.53034 6.88837e-05 1.26747 6.88837e-05 9.54778V17.0958L0.234489 17.3211C0.384517 17.4807 0.562676 17.5558 0.797096 17.5558C1.03152 17.5558 1.20967 17.4807 1.3597 17.3211L1.59412 17.0958V9.66983C1.59412 1.79321 1.59412 1.82137 2.01608 1.65238C2.10047 1.62422 2.58806 1.59606 3.09441 1.59606H4.02271L4.05084 5.22925C4.07897 8.78735 4.07897 8.88123 4.29464 9.30369C4.61345 9.96086 5.08229 10.449 5.73866 10.8058L6.3294 11.125H24.0046H41.6799L42.1487 10.8903C42.7488 10.5992 43.4052 9.94208 43.6959 9.34124L43.9303 8.87184L43.9585 5.22925L43.9866 1.59606H44.9149C45.9932 1.59606 46.0964 1.62422 46.2745 1.98097C46.4902 2.38466 46.4808 19.3208 46.2745 20.1376C45.9557 21.3486 45.2149 22.2499 44.071 22.8038L43.3677 23.1418L41.7174 23.1699L40.0671 23.2075L40.0202 22.0434C39.9827 21.0482 39.9358 20.8041 39.7389 20.3535C39.4107 19.6494 38.82 19.0298 38.173 18.7106L37.6479 18.4477L32.6219 18.4195L27.596 18.3914L27.3522 18.6449C27.2115 18.7857 27.099 18.9922 27.099 19.1143C27.099 19.4053 27.2771 19.7808 27.4647 19.8747C27.5491 19.9123 29.8089 19.9686 32.5 19.9967L37.3853 20.0437L37.7229 20.3066C38.2667 20.7196 38.3886 21.0294 38.4261 22.1748L38.4636 23.1793L33.7659 23.2075L29.0775 23.2356L28.8618 23.4422C28.5524 23.752 28.5805 24.2777 28.9181 24.5688L29.1806 24.7941L36.3633 24.7659L43.5552 24.7377L44.1647 24.5218C45.8807 23.9022 47.0528 22.7099 47.756 20.8698L47.9623 20.3253L47.9905 11.1813C48.0186 1.11726 48.0373 1.54911 47.4466 0.826231C47.2872 0.638468 46.9496 0.375601 46.6777 0.244167L46.1901 7.62939e-05H24.0046H1.81917L1.33157 0.244167ZM42.3831 4.99455C42.3831 8.3461 42.3738 8.41182 42.1675 8.77796C42.0362 9.02205 41.8205 9.22859 41.5392 9.36002L41.1267 9.57595H24.0046C7.52025 9.57595 6.87325 9.56656 6.50756 9.39757C6.29189 9.30369 6.01997 9.07838 5.89807 8.90939L5.67303 8.59019L5.64489 5.08843L5.61676 1.59606H24.0046H42.3831V4.99455Z" fill="#E83A15"/>
<path d="M7.45454 3.42673C7.06071 3.81164 7.16386 4.41248 7.66083 4.67535C7.95151 4.83494 40.0576 4.83494 40.3483 4.67535C40.8453 4.41248 40.9484 3.81164 40.5546 3.42673L40.3296 3.19202H24.0046H7.67958L7.45454 3.42673Z" fill="#00045F"/>
<path d="M7.45458 6.61866C7.07013 6.99419 7.14514 7.60441 7.6046 7.83911C7.99843 8.04565 40.0108 8.04565 40.4046 7.83911C40.8641 7.60441 40.9391 6.99419 40.5546 6.61866L40.3296 6.38396H24.0046H7.67962L7.45458 6.61866Z" fill="#00045F"/>
<path d="M12.4244 12.8336C11.5711 12.9087 10.3615 13.1622 9.49882 13.4344C7.37029 14.1104 5.66372 15.1618 4.02278 16.7954C2.0349 18.7857 0.872179 20.9261 0.262688 23.7332C-0.0279924 25.0663 -0.0279924 27.7137 0.262688 29.075C1.06909 32.8303 3.15074 35.8344 6.37635 37.9186C9.52695 39.9558 13.6902 40.5473 17.3941 39.477C21.6136 38.2566 25.0924 34.9238 26.4896 30.7649C27.0147 29.1971 27.1366 28.3615 27.1366 26.4276C27.1366 24.9349 27.099 24.4842 26.9303 23.6862C26.3677 21.0951 25.2237 18.9171 23.4421 17.0488C22.42 15.9786 21.4824 15.2463 20.3103 14.5704C17.9942 13.2373 15.0593 12.5895 12.4244 12.8336ZM15.8188 14.5986C20.6009 15.5092 24.3235 19.1893 25.3737 24.0336C25.6175 25.1414 25.6175 27.6105 25.3831 28.7277C24.3235 33.7127 20.4509 37.4586 15.5375 38.2566C9.07687 39.308 2.9257 34.9238 1.77235 28.446C1.56606 27.2819 1.60357 25.1038 1.86612 23.9397C2.98196 18.8326 7.07961 15.1055 12.2837 14.4577C13.1745 14.3545 14.8623 14.4202 15.8188 14.5986Z" fill="#00045F"/>
<path d="M13.0806 16.9455C12.8555 17.1615 12.8462 17.2084 12.8462 18.5885C12.8462 19.3583 12.818 19.9967 12.7805 19.9967C12.743 19.9967 12.2273 19.5085 11.6272 18.917C10.652 17.9595 10.4926 17.8374 10.2019 17.8374C9.7612 17.8374 9.47052 18.1566 9.47052 18.6354C9.47052 18.9828 9.55491 19.086 11.1583 20.7008L12.8462 22.4V23.874C12.8462 24.6813 12.818 25.3479 12.7805 25.3479C12.7336 25.3479 12.0773 25.1414 11.3084 24.8879L9.91123 24.4373L8.85166 22.3813C8.2703 21.2547 7.71706 20.2783 7.63267 20.2126C7.18259 19.884 6.37618 20.2595 6.37618 20.7947C6.37618 20.9261 6.67624 21.6208 7.03256 22.3437C7.39825 23.0666 7.64205 23.658 7.59517 23.658C7.53891 23.658 6.9763 23.4891 6.33868 23.2825C4.94154 22.8225 4.78213 22.8225 4.46332 23.198C3.88196 23.8927 4.26641 24.3152 5.9261 24.8316C6.59185 25.0381 7.12633 25.2352 7.12633 25.2728C7.12633 25.3103 6.53559 25.6389 5.81358 26.0051C5.09156 26.3712 4.46332 26.7467 4.40706 26.85C4.25703 27.141 4.29454 27.479 4.52896 27.7325C4.94154 28.2019 5.06343 28.1737 7.27636 27.0471C8.40157 26.4745 9.36738 26.0051 9.42364 26.0051C9.52678 26.0051 12.2179 26.85 12.2648 26.8969C12.3023 26.9345 10.6145 29.2721 10.502 29.3378C10.4551 29.366 9.38613 29.5538 8.13902 29.7603C6.01987 30.0983 5.85108 30.1358 5.65417 30.3705C5.41038 30.6428 5.38225 30.8869 5.55103 31.1967C5.81358 31.7036 5.99174 31.7224 7.70769 31.4408C8.37344 31.3375 8.9548 31.2624 9.01106 31.2812C9.06732 31.3 8.75789 31.7975 8.33593 32.3796C7.71706 33.2339 7.55766 33.5249 7.55766 33.7784C7.55766 34.4262 8.39219 34.7923 8.84228 34.3417C8.9548 34.2197 9.36738 33.6939 9.74245 33.1682C10.1269 32.6331 10.4551 32.2106 10.4645 32.2294C10.4832 32.2482 10.5957 32.9053 10.727 33.6939C10.9896 35.3368 11.1208 35.5809 11.721 35.5809C12.171 35.5809 12.4711 35.2711 12.4711 34.8111C12.4711 34.6233 12.3211 33.5437 12.1429 32.3984L11.8053 30.3142L12.6774 29.1031C13.1556 28.4366 13.5682 27.8921 13.5963 27.8921C13.6244 27.8827 14.037 28.4366 14.5152 29.1031L15.3967 30.333L15.0591 32.4641C14.8716 33.6376 14.7215 34.7078 14.7215 34.8393C14.7215 35.2336 15.0591 35.5809 15.4342 35.5809C16.1374 35.5809 16.2218 35.4213 16.5125 33.5625C16.6156 32.8396 16.7188 32.2388 16.7375 32.22C16.7469 32.2012 17.1032 32.68 17.5346 33.2621C18.5097 34.6233 18.8754 34.8205 19.4193 34.276C19.8788 33.816 19.8319 33.6845 18.791 32.2669C18.4066 31.7412 18.1159 31.3 18.1441 31.2812C18.1628 31.2624 18.8098 31.3375 19.5693 31.4596C20.3382 31.5722 21.079 31.6379 21.2196 31.6098C21.4822 31.5347 21.7541 31.131 21.7541 30.8118C21.7541 30.5677 21.4259 30.164 21.1728 30.1077C20.9946 30.0607 16.8219 29.3848 16.7282 29.3848C16.7188 29.3848 16.2968 28.8215 15.7999 28.1456L14.8903 26.8969L16.2874 26.4557C17.047 26.2116 17.7315 26.0051 17.7877 26.0051C17.8534 26.0051 18.8098 26.4651 19.9069 27.0378C21.0133 27.601 22.0167 28.0704 22.1573 28.0704C22.5511 28.0704 22.8981 27.7043 22.8981 27.2912C22.8981 27.0941 22.8512 26.8782 22.7856 26.8031C22.7199 26.7279 22.0823 26.3618 21.3697 25.9863C20.657 25.6108 20.1038 25.2822 20.1413 25.2446C20.1788 25.2071 20.7414 25.0099 21.3978 24.7846C22.8887 24.2964 23.17 24.0148 22.87 23.3482C22.7574 23.1041 22.4292 22.907 22.1479 22.907C22.0542 22.907 21.4259 23.0948 20.7414 23.3201C20.0569 23.5548 19.5037 23.7238 19.5037 23.6956C19.5037 23.6768 19.8037 23.0666 20.1601 22.3437C20.5258 21.6208 20.8164 20.9261 20.8164 20.7947C20.8164 20.2502 20.01 19.884 19.5599 20.2126C19.4662 20.2783 18.9223 21.2641 18.341 22.3906L17.3001 24.456L15.9405 24.8973C15.1904 25.132 14.5527 25.3385 14.5152 25.3385C14.4684 25.3479 14.4402 24.6626 14.4402 23.827V22.3062L16.0812 20.6538C17.5346 19.1893 17.7221 18.964 17.7221 18.6917C17.7221 18.4758 17.6377 18.3068 17.4502 18.1097C16.9626 17.6309 16.7938 17.706 15.5561 18.9264L14.4496 20.0155L14.4215 18.5885L14.3933 17.1615L14.1308 16.9362C13.7838 16.6451 13.3713 16.6451 13.0806 16.9455Z" fill="#E83A15"/>
<path d="M39.4951 15.3965C39.0637 15.8002 39.1481 16.4011 39.6732 16.7015C40.1514 16.9737 40.7891 16.5701 40.7891 15.988C40.7891 15.3308 39.9733 14.9553 39.4951 15.3965Z" fill="#00045F"/>
<path d="M42.6176 15.5092C42.3175 15.866 42.3456 16.2697 42.7207 16.5889C42.9926 16.8423 43.2271 16.8611 43.5928 16.664C44.296 16.3072 43.996 15.2088 43.1896 15.2088C42.9458 15.2088 42.8145 15.2745 42.6176 15.5092Z" fill="#00045F"/>
<path d="M30.8966 26.4745C30.5966 26.5872 30.484 26.7843 30.3809 27.3195C30.334 27.5917 30.2871 27.8358 30.2871 27.8546C30.2871 27.8734 30.0808 28.1175 29.8183 28.3897C29.1432 29.1032 28.8431 29.8167 28.8431 30.6992C28.8431 31.5723 29.115 32.2201 29.762 32.8866C30.259 33.403 30.3809 33.6471 30.3809 34.1822C30.3809 34.6422 30.2215 34.9708 29.7714 35.3932C29.1807 35.9565 28.6837 37.2145 28.8243 37.7872C28.9744 38.388 29.7245 38.5946 30.1465 38.1627C30.2778 38.0407 30.3809 37.8248 30.3809 37.6933C30.3809 37.299 30.6341 36.8108 31.1217 36.2757C31.7687 35.5716 32.0031 34.9051 31.9562 33.9756C31.9093 33.1119 31.6843 32.6144 31.0373 31.9196C30.1934 31.009 30.2027 30.3706 31.0842 29.3755C31.6655 28.7277 31.9749 28.0048 31.9749 27.3382C31.9656 26.8688 31.8624 26.6623 31.5342 26.4933C31.2998 26.3619 31.1592 26.3619 30.8966 26.4745Z" fill="#E83A15"/>
<path d="M36.5133 26.4745C36.232 26.5872 36.0069 26.9345 36.0069 27.2537C36.0069 27.6199 35.7725 28.033 35.2849 28.5681C34.6567 29.2534 34.4597 29.7416 34.4597 30.6992C34.4691 31.6568 34.6567 32.1356 35.3599 32.896C36.2507 33.8724 36.232 34.492 35.2849 35.5153C34.7692 36.0692 34.4972 36.6606 34.441 37.3741C34.3941 37.8623 34.4129 37.9374 34.6285 38.1533C35.0786 38.5946 35.8381 38.4162 35.9506 37.8341C35.9788 37.6745 36.035 37.4211 36.0632 37.2615C36.0913 37.1019 36.3257 36.7451 36.5789 36.4635C36.8321 36.1912 37.1509 35.7406 37.2915 35.4683C37.5166 35.0365 37.5541 34.8581 37.5541 34.1728C37.5541 33.2152 37.3572 32.7176 36.7289 32.0417C35.7912 31.0278 35.7631 30.38 36.6164 29.4693C37.1509 28.8967 37.4978 28.1926 37.5635 27.526C37.6197 27.0378 37.601 26.9533 37.404 26.728C37.1509 26.4464 36.8039 26.3525 36.5133 26.4745Z" fill="#E83A15"/>
<path d="M41.3048 26.4745C41.0048 26.5872 40.8922 26.7843 40.7891 27.3194C40.7422 27.5917 40.6953 27.8264 40.6953 27.8452C40.6953 27.864 40.4422 28.155 40.1327 28.5023C39.6733 29.0093 39.5326 29.244 39.3732 29.7791C39.0356 30.8775 39.2982 31.9853 40.0858 32.8115C40.5922 33.3466 40.7891 33.7034 40.7891 34.0977C40.7891 34.614 40.6484 34.8956 40.0858 35.5059C39.692 35.9283 39.5326 36.1912 39.3826 36.67C39.1106 37.5619 39.1575 37.9656 39.5607 38.2754C39.9921 38.6039 40.7891 38.2284 40.7891 37.6933C40.7891 37.299 41.0423 36.8108 41.5299 36.2757C42.1769 35.5716 42.4113 34.905 42.3644 33.985C42.3081 33.1495 42.055 32.5768 41.408 31.8821C40.5922 31.0184 40.6109 30.3612 41.4924 29.3754C42.0737 28.7277 42.3831 28.0048 42.3831 27.3288C42.3831 26.9251 42.3456 26.8313 42.0925 26.6247C41.7924 26.3712 41.6236 26.3431 41.3048 26.4745Z" fill="#E83A15"/>
</g>
<defs>
<clipPath id="clip0_91_56">
<rect width="48" height="40" fill="white"/>
</clipPath>
</defs>
</svg>
