<svg width="60" height="60" viewBox="0 0 60 60" fill="none" xmlns="http://www.w3.org/2000/svg">
<path d="M25.3625 0.237499C25.0625 0.474998 25.0625 0.512501 25 3.5125L24.9375 6.55L24.25 6.7125C22.175 7.225 19.4375 8.35 17.6875 9.4125L16.9375 9.875L14.85 7.7875C12.925 5.8625 12.725 5.7 12.3125 5.7C11.8875 5.7 11.6625 5.9 8.7875 8.7875C5.9 11.6625 5.7 11.8875 5.7 12.3125C5.7 12.725 5.8625 12.925 7.7875 14.85L9.875 16.9375L9.4125 17.6875C8.35 19.4375 7.225 22.175 6.7125 24.25L6.55 24.9375L3.5125 25C0.5125 25.0625 0.475 25.0625 0.2375 25.3625C0.0125 25.6375 0 25.9125 0 30C0 34.0875 0.0125 34.3625 0.2375 34.6375C0.475 34.9375 0.5125 34.9375 3.5125 35L6.55 35.0625L6.7125 35.75C7.225 37.825 8.35 40.5625 9.4125 42.3125L9.875 43.0625L7.7875 45.15C5.8625 47.075 5.7 47.275 5.7 47.6875C5.7 48.1 5.9 48.3375 8.6375 51.075C10.2375 52.6875 11.725 54.1 11.9125 54.2C12.1125 54.3125 12.375 54.35 12.5375 54.3125C12.6875 54.2625 13.7375 53.3 14.875 52.175L16.9375 50.125L17.675 50.575C19.4875 51.6625 21.7625 52.6125 23.85 53.175L24.9375 53.4625L25 56.4875C25.0625 59.4875 25.0625 59.525 25.3625 59.7625C25.6375 59.9875 25.9125 60 30 60C34.0875 60 34.3625 59.9875 34.6375 59.7625C34.9375 59.525 34.9375 59.4875 35 56.4875L35.0625 53.4625L36.15 53.175C38.2375 52.6125 40.5125 51.6625 42.325 50.575L43.0625 50.125L47.4375 54.4875C52.1625 59.2 52.3625 59.35 53.925 59.6375C57.2125 60.25 60.25 57.2125 59.6375 53.925C59.35 52.3625 59.2 52.1625 54.4875 47.4375L50.125 43.0625L50.575 42.325C51.6625 40.5125 52.6125 38.2375 53.175 36.15L53.4625 35.0625L56.4875 35C59.4875 34.9375 59.525 34.9375 59.7625 34.6375C59.9875 34.3625 60 34.0875 60 30C60 25.9125 59.9875 25.6375 59.7625 25.3625C59.525 25.0625 59.4875 25.0625 56.4875 25L53.45 24.9375L53.2875 24.25C52.775 22.175 51.65 19.4375 50.5875 17.6875L50.125 16.9375L52.2125 14.85C54.1375 12.925 54.3 12.725 54.3 12.3125C54.3 11.8875 54.1 11.6625 51.2125 8.7875C48.3375 5.9 48.1125 5.7 47.6875 5.7C47.275 5.7 47.075 5.8625 45.15 7.7875L43.0625 9.8625L42.5625 9.55C40.8625 8.4875 38.4875 7.475 36.3125 6.875L35.0625 6.5375L35 3.5125C34.9375 0.512501 34.9375 0.474998 34.6375 0.237499C34.3625 0.0125008 34.0875 0 30 0C25.9125 0 25.6375 0.0125008 25.3625 0.237499ZM33 4.85C33 7.5125 33.0125 7.725 33.25 7.9625C33.525 8.2625 33.4875 8.25 35.25 8.675C37.5375 9.2125 39.8125 10.1875 41.8875 11.5125C43.3625 12.4625 43.2875 12.4875 45.675 10.125L47.7 8.1375L49.7875 10.225L51.8625 12.3125L49.875 14.325C47.5125 16.7125 47.5375 16.6375 48.4875 18.1125C49.7875 20.1375 50.8 22.5125 51.325 24.725C51.75 26.5125 51.7375 26.475 52.0375 26.75C52.275 26.9875 52.4875 27 55.15 27H58V30V33H55.15C52.4875 33 52.275 33.0125 52.0375 33.25C51.7375 33.525 51.75 33.4875 51.325 35.275C50.925 36.9375 50.325 38.5125 49.4125 40.275L48.7 41.6375L47.2375 40.175L45.7625 38.7125L46.075 38.1125C46.6 37.075 47.1125 35.675 47.425 34.4125C48.6875 29.45 47.7875 24.2375 44.925 19.925C44 18.55 42.15 16.6 40.7625 15.5625C39.475 14.5875 37.2125 13.4125 35.6875 12.9C33.5375 12.1875 32.675 12.0625 29.9375 12.0625C27.6875 12.075 27.3 12.1 26.05 12.4C22.6625 13.2 19.7125 14.825 17.325 17.1875C14.55 19.9375 12.8125 23.3125 12.175 27.25C11.8875 29 12 32.2375 12.4125 34C13.1875 37.2875 14.65 39.9625 17 42.4125C19.5875 45.125 22.6875 46.85 26.4125 47.65C28.1125 48.0125 31.625 48.05 33.2875 47.7125C34.7 47.425 36.3875 46.875 37.6875 46.2625L38.725 45.775L40.175 47.2375L41.625 48.7L40.725 49.1875C38.7625 50.25 36.85 51 34.9125 51.4375C34.45 51.5375 33.9375 51.65 33.7875 51.6875C33.6375 51.725 33.3875 51.875 33.25 52.025C33.0125 52.2875 33 52.4625 33 55.15V58H30H27V55.15C27 52.4875 26.9875 52.275 26.75 52.0375C26.475 51.7375 26.5125 51.75 24.725 51.325C22.5125 50.8 20.1375 49.7875 18.1125 48.4875C16.6375 47.5375 16.7125 47.5125 14.325 49.875L12.3 51.8625L10.2125 49.775L8.1375 47.6875L10.125 45.675C12.4875 43.2875 12.4625 43.3625 11.5125 41.8875C10.225 39.8625 9.2375 37.5875 8.6875 35.3125C8.275 33.6125 8.15 33.275 7.8625 33.125C7.7375 33.05 6.3875 33 4.825 33H2V30V27H4.85C7.5125 27 7.725 26.9875 7.9625 26.75C8.2625 26.475 8.25 26.5125 8.675 24.725C9.2 22.5125 10.2125 20.1375 11.5125 18.1125C12.4625 16.6375 12.4875 16.7125 10.125 14.325L8.1375 12.3L10.225 10.2125L12.3125 8.1375L14.325 10.125C16.725 12.5 16.625 12.4625 18.1625 11.4875C20.1625 10.2 22.625 9.1625 25 8.6125C26.35 8.3 26.725 8.15 26.875 7.8625C26.95 7.7375 27 6.3875 27 4.825V2H30H33V4.85ZM32.4375 14.1875C34.2125 14.475 35.325 14.825 36.9375 15.6125C44.6625 19.3875 48.0125 28.2625 44.725 36.225C44.525 36.7125 44.3125 37.125 44.2625 37.125C44.0875 37.125 38.7625 31.6625 38.55 31.25C38.35 30.875 38.3125 30.575 38.3375 29.2625C38.375 27.4375 38.2375 26.4375 37.7625 25.0375C36.7125 21.975 34.1 19.5625 30.8625 18.675C29.75 18.3625 27 18.3625 25.9 18.6625C24.7625 18.9875 23.7875 19.4375 23.6375 19.725C23.275 20.4125 23.3625 20.5375 26.25 23.4375L29 26.2V27.6V29H27.6H26.2L23.4375 26.25C20.5375 23.3625 20.4125 23.275 19.725 23.6375C19.4375 23.7875 18.9875 24.7625 18.6625 25.9C18.3625 27 18.3625 29.75 18.675 30.8625C19.5625 34.1 21.975 36.7125 25.0375 37.7625C26.4375 38.2375 27.4375 38.375 29.2625 38.3375C30.575 38.3125 30.875 38.35 31.25 38.55C31.6625 38.7625 37.125 44.0875 37.125 44.2625C37.125 44.375 35.5375 45.0375 34.475 45.3625C32.3 46.025 29.1 46.1625 26.8875 45.6875C20.0625 44.2375 15.0875 38.925 14.1125 32.0125C14.025 31.35 13.9875 30.3125 14.0375 29.2625C14.375 21.575 20.0875 15.2625 27.7375 14.1375C28.9 13.9625 31.2375 13.9875 32.4375 14.1875ZM30.0625 20.5625C31.2 20.8 32.7875 21.6 33.6625 22.3875C34.625 23.2375 35.5375 24.6625 35.95 25.9125C36.25 26.8375 36.2875 27.1375 36.3125 29C36.3375 31.1625 36.425 31.625 37.025 32.6125C37.175 32.8625 41.825 37.6125 47.375 43.1875C58.125 53.9875 57.75 53.5625 57.75 54.75C57.75 56.3 56.3 57.75 54.75 57.75C53.5625 57.75 53.9875 58.125 43.1875 47.375C37.075 41.2875 32.8375 37.15 32.5 36.9625C31.5375 36.4 30.6125 36.225 29.125 36.3125C28.1375 36.375 27.5625 36.35 26.8125 36.1875C22.9 35.3875 20.2 31.9125 20.4125 27.9375C20.45 27.3125 20.5125 26.7125 20.5625 26.5875C20.6375 26.4 21.05 26.75 22.9875 28.675L25.325 31H27.8625C31.25 31 31 31.25 31 27.8625V25.325L28.6625 22.9875C26.1625 20.4625 26.275 20.65 27.1875 20.4625C27.75 20.3375 29.25 20.3875 30.0625 20.5625Z" fill="#E83A15"/>
<path d="M34.9872 34.9875C34.6622 35.325 34.6122 35.45 34.6747 35.7875C34.7747 36.3125 35.6872 37.225 36.2122 37.325C36.5497 37.3875 36.6747 37.3375 37.0122 37.0125C37.3372 36.675 37.3872 36.55 37.3247 36.2125C37.2247 35.6875 36.3122 34.775 35.7872 34.675C35.4497 34.6125 35.3247 34.6625 34.9872 34.9875Z" fill="#00045F"/>
<path d="M38.5 38.5C38.3375 38.6625 38.25 38.9125 38.25 39.2125C38.25 39.6625 38.4875 39.9125 44.35 45.7875C47.925 49.375 50.6125 51.975 50.85 52.075C51.675 52.4375 52.4375 51.675 52.075 50.85C51.975 50.6125 49.375 47.925 45.7875 44.3375C39.9125 38.4875 39.6625 38.25 39.2125 38.25C38.9125 38.25 38.6625 38.3375 38.5 38.5Z" fill="#00045F"/>
<path d="M53.6247 53.1625C53.1622 53.4 52.9372 53.925 53.1247 54.3625C53.2997 54.8 54.0872 55.575 54.4747 55.6875C55.1497 55.8875 55.8872 55.15 55.6872 54.475C55.5747 54.1125 54.9247 53.4125 54.4747 53.175C54.0622 52.9625 54.0247 52.9625 53.6247 53.1625Z" fill="#00045F"/>
</svg>
