<svg width="46" height="60" viewBox="0 0 46 60" fill="none" xmlns="http://www.w3.org/2000/svg">
<path d="M21.5157 0.188141C20.5911 0.481281 20.1473 0.762691 18.0391 2.41599C16.0418 3.99894 15.7213 4.22172 15.1665 4.3976C14.9569 4.46796 13.5638 4.63211 12.0844 4.77282C10.6173 4.91352 9.13783 5.10114 8.79262 5.20667C7.21456 5.68741 5.96938 6.85996 5.48856 8.3491C5.3776 8.66569 5.18035 10.0845 5.0324 11.4798C4.88446 12.8869 4.71186 14.2119 4.63789 14.4112C4.45296 14.9388 4.21872 15.2437 2.54203 17.1667C1.74067 18.093 0.926984 19.0779 0.729726 19.3711C-0.120947 20.6492 -0.244232 22.4197 0.446169 23.8033C0.655755 24.2489 1.4941 25.3394 2.56669 26.5823C3.54064 27.7079 4.4283 28.8453 4.55159 29.1033C4.69953 29.4199 4.84748 30.4048 5.0324 32.1519C5.31596 35.0129 5.4639 35.6344 6.03102 36.4786C7.05429 38.0147 8.21318 38.5775 10.8515 38.8354C11.8008 38.9292 12.5898 39.0113 12.6022 39.0348C12.6268 39.0582 11.1104 42.529 9.24878 46.7502C7.12826 51.5459 5.85842 54.5828 5.84609 54.829C5.84609 55.3098 6.46252 55.8961 6.98032 55.8961C7.16525 55.8961 8.6077 55.5443 10.1858 55.1222C11.7761 54.7001 13.1446 54.3835 13.2186 54.4069C13.3049 54.4421 14.0076 55.5678 14.772 56.9162C15.5487 58.2529 16.3377 59.5075 16.535 59.6951C16.8309 59.9883 16.9418 60.0235 17.3857 59.9648C17.6569 59.9296 17.9898 59.8007 18.113 59.6834C18.2363 59.5662 19.95 55.8023 21.9226 51.3231C24.8075 44.7686 25.5718 43.127 25.8431 42.9394C26.0157 42.8104 27.0389 42.0248 28.0869 41.204C29.9362 39.7383 30.8361 39.1872 31.2553 39.2693C31.3909 39.2927 32.4512 41.5675 34.6334 46.5157C36.3717 50.4789 37.7895 53.7386 37.7648 53.762C37.7525 53.7738 36.7415 53.5158 35.5333 53.1875C31.8348 52.1791 31.7854 52.1908 30.0594 55.2394C29.4184 56.3651 28.8512 57.3031 28.8143 57.3031C28.7773 57.3031 28.0499 55.7436 27.2115 53.8324C26.2746 51.6866 25.5965 50.303 25.4485 50.1975C24.8444 49.7988 24.0184 50.174 24.0184 50.8424C24.0184 51.03 24.8198 53.0233 25.8061 55.2629C27.6924 59.5544 27.9636 60 28.654 60C29.3814 60 29.591 59.7538 31.169 57.0217C32.0074 55.5678 32.7594 54.3718 32.858 54.3718C32.9443 54.3718 34.2881 54.7118 35.8415 55.1339C37.4073 55.556 38.8497 55.8961 39.0593 55.8961C39.5894 55.8961 40.1689 55.345 40.1689 54.8525C40.1689 54.6414 38.7388 51.241 36.7785 46.7853C34.9169 42.5524 33.4128 39.07 33.4375 39.0465C33.4621 39.0231 34.2265 38.9292 35.1265 38.8354C37.4443 38.6009 38.4059 38.2374 39.3922 37.2173C40.4278 36.1503 40.6127 35.5523 40.9579 32.2574C41.1798 30.2289 41.3154 29.4199 41.5004 29.0329C41.636 28.7515 42.5113 27.6493 43.436 26.5823C45.7537 23.9323 46.1852 22.9825 45.9387 21.1416C45.7784 20.0277 45.3839 19.3828 43.436 17.1432C42.4373 15.9824 41.525 14.845 41.4264 14.6223C41.3278 14.3995 41.1182 12.969 40.9579 11.4329C40.662 8.64224 40.5264 8.07941 39.984 7.23518C39.3552 6.27369 38.258 5.47635 37.1484 5.18321C36.8155 5.08941 35.3114 4.9018 33.8197 4.77282C32.0074 4.59694 30.9471 4.45623 30.6142 4.31553C30.343 4.19827 29.2951 3.45956 28.2965 2.67395C25.2636 0.305397 24.8568 0.0826111 23.2171 0.0122604C22.465 -0.0229149 22.0582 0.0122604 21.5157 0.188141ZM24.3636 2.06422C24.6349 2.19321 25.6828 2.95536 26.6937 3.74097C28.9375 5.4998 29.5293 5.88674 30.343 6.12125C30.6882 6.21506 32.1676 6.40267 33.6224 6.53165C36.532 6.78961 37.1237 6.94204 37.8388 7.55177C38.6648 8.26702 38.7881 8.65396 39.1086 11.773C39.5155 15.5017 39.4415 15.3492 42.0305 18.3158C42.9182 19.3476 43.7565 20.4029 43.8798 20.6609C44.1387 21.2003 44.1757 22.1852 43.9661 22.8418C43.8921 23.0881 43.4113 23.7916 42.8935 24.4013C42.3757 24.9993 41.5004 26.0195 40.9579 26.6761C39.5771 28.2942 39.4662 28.5873 39.121 31.9526C38.8621 34.3563 38.7881 34.7667 38.5045 35.3295C37.8388 36.6076 37.2224 36.8538 33.5731 37.1939C30.0718 37.5222 29.7512 37.6277 28.0622 38.941C27.3718 39.4569 26.2992 40.2894 25.6705 40.7819C24.4253 41.7434 23.9321 41.9427 22.8842 41.9427C21.9349 41.9427 21.4541 41.673 19.087 39.8204C17.9651 38.9527 16.8925 38.1436 16.7076 38.0264C16.0048 37.6043 15.2651 37.4636 12.3802 37.1821C9.11317 36.8656 8.70632 36.76 7.95428 35.9744C7.31319 35.2943 7.15292 34.7315 6.88169 31.9643C6.74608 30.5807 6.54882 29.1736 6.45019 28.8453C6.20362 28.0714 5.79678 27.5086 3.94749 25.3745C2.32011 23.4867 1.98724 22.9825 1.87628 22.2087C1.71601 21.1534 2.03656 20.5554 3.89817 18.4096C4.83515 17.3191 5.72281 16.2638 5.88308 16.0528C6.41321 15.3375 6.61046 14.5285 6.88169 11.8668C7.01731 10.448 7.22689 9.04091 7.32552 8.72432C7.58442 7.99734 8.42277 7.2 9.18714 6.95377C9.52001 6.85996 10.9994 6.66063 12.4912 6.53165C15.2775 6.27369 16.1281 6.08608 16.8925 5.58188C17.1144 5.42945 18.2117 4.59694 19.3212 3.72925C21.565 1.97042 22.1445 1.67728 23.2294 1.77109C23.5746 1.79454 24.0924 1.93525 24.3636 2.06422ZM15.4254 39.41C15.6473 39.4921 16.8185 40.348 18.0391 41.2978C20.4062 43.1504 21.0719 43.5257 22.2678 43.6781C22.6869 43.7367 23.0568 43.8071 23.0938 43.8422C23.1678 43.9009 17.4103 57.0569 17.25 57.2211C17.1884 57.2797 16.6336 56.4354 16.0172 55.345C15.3884 54.2662 14.698 53.2109 14.4761 53.0116C13.7857 52.3901 13.4282 52.4019 10.7036 53.1288C9.3844 53.4923 8.28715 53.762 8.2625 53.7268C8.23784 53.7034 9.6433 50.4437 11.394 46.4688C14.8213 38.6713 14.5994 39.07 15.4254 39.41Z" fill="#E83A15"/>
<path d="M21.3786 8.04422C20.3923 8.18493 20.0348 8.85328 20.5896 9.52164L20.8608 9.84995L22.032 9.7796C28.258 9.38093 33.7812 13.18 35.3716 18.9372C35.7291 20.227 35.8154 22.4666 35.5565 23.8619C34.5949 29.1033 30.2922 33.0899 24.769 33.8638C23.4375 34.0397 21.1814 33.9342 19.9362 33.6293C12.9335 31.9057 8.77879 25.0814 10.7637 18.5737C11.787 15.2202 14.1417 12.5234 17.4458 10.9404C18.3951 10.4831 18.6047 9.94376 18.0376 9.40438C17.6554 9.02917 17.2609 9.04089 16.4595 9.41611C12.5267 11.2922 9.6418 14.8919 8.65551 19.1483C8.35962 20.4498 8.35962 23.2405 8.65551 24.5889C9.75275 29.455 13.4513 33.4769 18.2841 35.0129C21.243 35.951 24.695 35.9744 27.5306 35.0715C32.0428 33.641 35.4825 30.3227 36.9373 25.996C37.9606 22.9591 37.7633 19.3124 36.4195 16.3693C34.5825 12.3123 30.6744 9.25195 26.1128 8.27873C24.9539 8.0325 22.3279 7.90352 21.3786 8.04422Z" fill="#E83A15"/>
<path d="M27.5929 15.6893C27.186 15.8651 26.0641 16.8501 23.4381 19.3359L19.8382 22.7597L18.5684 21.5755C17.5328 20.6257 17.1752 20.3677 16.6328 20.1919C15.2273 19.7463 13.6739 20.4029 13.1191 21.681C12.8725 22.2438 12.8725 23.2991 13.1068 23.8619C13.341 24.3779 17.6807 28.5756 18.4081 28.986C19.1231 29.3847 19.8012 29.455 20.6519 29.2205C21.3546 29.0329 21.4779 28.9274 26.2121 24.4365C29.4792 21.3292 31.1312 19.6759 31.3038 19.3476C31.6367 18.691 31.6367 17.624 31.3038 16.9908C30.5887 15.6658 28.9737 15.0913 27.5929 15.6893ZM29.3805 17.495C29.5901 17.6826 29.6887 17.9054 29.6887 18.1633C29.6887 18.5151 29.2696 18.949 24.9546 23.0529C20.7259 27.0747 20.1711 27.5555 19.8259 27.5555C19.4807 27.5555 19.1478 27.2858 17.1013 25.3394C14.7218 23.0763 14.5985 22.9239 14.8451 22.3024C14.9561 22.0328 15.5972 21.7513 15.9177 21.8452C16.0657 21.8803 16.9163 22.5956 17.804 23.4281C19.2218 24.7531 19.4683 24.9407 19.8259 24.9407C20.2081 24.9407 20.5902 24.6006 24.3258 21.0713C28.7518 16.8853 28.7518 16.8853 29.3805 17.495Z" fill="#00045F"/>
</svg>
