<svg width="60" height="60" viewBox="0 0 60 60" fill="none" xmlns="http://www.w3.org/2000/svg">
<path d="M21.658 0.256126C20.9039 0.593025 20.3906 1.09036 20.0537 1.82833C19.813 2.35775 19.6205 2.50214 18.6579 2.88717C16.829 3.62514 15.2568 4.65189 13.7809 6.09575C11.1659 8.66262 9.54554 11.8872 9.20864 15.2402L9.09634 16.3793L8.32628 16.7001C7.39579 17.1012 6.38509 18.16 6.08027 19.0264C5.82358 19.8285 5.82358 21.0798 6.08027 21.882C6.52947 23.1975 7.97334 24.3205 9.46533 24.497C10.3156 24.5933 10.4279 24.7537 10.4279 25.8446C10.4279 26.743 11.0215 28.8286 11.6151 30.112C12.722 32.4382 14.5028 34.5559 16.428 35.8393L17.3264 36.4329V38.0212C17.3264 39.3848 17.2943 39.6094 17.0536 39.6896C16.8932 39.7378 15.4975 39.9945 13.9573 40.2672C8.88778 41.1656 7.92521 41.4865 5.77545 42.9143C4.47598 43.7806 2.51874 45.802 1.78077 47.0534C0.320859 49.524 0 51.1283 0 55.8128C0 59.246 0 59.3102 0.368987 59.6471L0.737975 60H24.4334H48.1288L48.4657 59.6631C48.7865 59.3422 48.8026 59.2139 48.7384 55.139L48.6903 50.9357L48.1769 49.524C46.9737 46.1068 44.6956 43.6041 41.3105 41.9517C39.8346 41.2298 38.4228 40.8768 34.0912 40.1228C33.0324 39.9303 32.0056 39.7378 31.8131 39.7057C31.4602 39.6255 31.4441 39.5453 31.4441 38.0372V36.465L32.2944 35.8875C34.5083 34.4276 36.5618 31.8767 37.5244 29.3901C37.9736 28.2029 38.503 25.8125 38.503 24.9302C38.503 24.6093 38.5832 24.5451 38.9522 24.5451C39.9309 24.5451 41.0378 24.0638 41.7758 23.3259C43.733 21.3686 43.2357 18.1279 40.7972 16.9087C40.2838 16.652 39.8186 16.3793 39.7704 16.3151C39.7062 16.2349 39.626 15.6894 39.5619 15.1119C39.3693 12.9461 38.2463 10.1065 36.8346 8.11716C35.9682 6.91394 34.0912 5.10109 32.8078 4.25082C32.2784 3.89787 31.2356 3.35241 30.4816 3.03155C29.3586 2.55026 29.0698 2.35775 28.8452 1.90855C28.4922 1.18661 27.642 0.400513 26.9682 0.175911C26.1339 -0.0968208 22.3478 -0.0486908 21.658 0.256126ZM26.551 2.47005C26.8879 2.71069 26.904 3.46471 26.6313 8.61449C26.4708 11.8231 26.3425 12.2242 25.2516 12.6894C24.1607 13.1867 23.0858 12.7696 22.4922 11.6306C22.412 11.4541 22.2355 9.41664 22.1392 7.09041C21.8826 1.86042 21.7061 2.24545 24.3853 2.24545C25.7008 2.24545 26.3425 2.30962 26.551 2.47005ZM19.8932 6.97811C19.8932 7.76422 19.9734 9.22412 20.0376 10.2027C20.1499 11.7268 20.2301 12.1119 20.6312 12.8338C22.3478 15.9782 26.9361 15.7536 28.396 12.4648C28.6848 11.8231 28.765 11.1814 28.8933 8.30968C28.9896 6.43265 29.0858 4.87649 29.1019 4.8444C29.2142 4.7321 31.4923 6.03158 32.4709 6.76955C35.0538 8.71075 37.0271 12.2723 37.4282 15.6734L37.5084 16.3632H24.4494H11.3905V15.898C11.3905 15.1279 11.8397 13.2349 12.2568 12.1921C12.8504 10.7322 13.7327 9.36851 14.8878 8.14925C16.1231 6.84977 17.0055 6.17597 18.5296 5.40591C19.6526 4.82836 19.6526 4.82836 19.7649 5.1813C19.813 5.37382 19.8772 6.17597 19.8932 6.97811ZM39.7062 18.8338C40.6367 19.2349 41.0057 20.374 40.5084 21.3365C39.979 22.3472 40.7811 22.2991 24.3853 22.2991C10.7167 22.2991 9.40116 22.2831 8.98404 22.0264C7.78082 21.3205 7.82895 19.4595 9.04821 18.8659C9.48137 18.6413 11.3744 18.6092 24.3532 18.6092C36.7864 18.6092 39.241 18.6413 39.7062 18.8338ZM36.1768 25.4596C35.6634 29.8232 32.8399 33.6254 28.8933 35.2137C21.6098 38.1816 13.5723 33.3206 12.6097 25.3794L12.4974 24.5451H24.4013H36.2891L36.1768 25.4596ZM21.1767 37.9731C23.1339 38.5185 27.0805 38.326 28.9575 37.6041C29.166 37.5239 29.1981 37.7485 29.1981 39.1763C29.1981 40.7966 29.1821 40.8608 28.765 41.2779C27.2409 42.7218 23.3745 43.0587 21.0644 41.9357C19.7328 41.2939 19.5724 40.9891 19.5724 39.1121C19.5724 37.6682 19.6045 37.5239 19.8611 37.6041C20.0055 37.6522 20.5991 37.8126 21.1767 37.9731ZM18.0804 42.4169C19.2194 44.1977 23.0376 45.2726 26.2302 44.7111C28.0751 44.3742 29.7436 43.572 30.626 42.5774C31.2195 41.9036 31.2837 41.8715 31.7971 41.9998L32.3265 42.1282L32.3746 45.1603C32.4228 48.7058 32.2784 49.6684 31.5725 50.4705C30.5939 51.5775 30.642 51.5775 24.8665 51.6256C19.2836 51.6898 18.6098 51.6095 17.6793 50.9197C16.6205 50.1015 16.5242 49.6844 16.5242 45.6576V42.048L16.8932 41.9838C17.6151 41.8394 17.7274 41.8875 18.0804 42.4169ZM14.3103 46.2352C14.3584 49.8288 14.3745 50.0053 14.7435 50.7753C15.2087 51.7218 16.2515 52.7967 17.1178 53.2299C18.305 53.8395 19.3799 53.9358 25.027 53.8716L30.4014 53.8235L31.2998 53.4064C33.0966 52.5561 34.1714 51.1603 34.4763 49.2512C34.5725 48.6737 34.6527 46.925 34.6527 45.3528V42.4972L35.2624 42.6095C35.5832 42.6736 36.4335 42.8341 37.1394 42.9785L38.4228 43.2351L38.4709 50.4865L38.503 57.754H24.4655H10.4279V50.4865V43.2191L12.0803 42.8822C12.9787 42.7057 13.845 42.5453 13.9894 42.5292C14.2301 42.5132 14.2622 42.8501 14.3103 46.2352ZM8.18189 50.9357V57.754H5.19791H2.21392L2.2781 54.6577C2.34227 51.8021 2.37435 51.4812 2.79147 50.294C3.38506 48.5774 4.1872 47.294 5.40647 46.0908C6.17653 45.3207 7.82895 44.1335 8.14981 44.1175C8.16585 44.1175 8.18189 47.1817 8.18189 50.9357ZM43.3961 46.1229C44.4389 47.1496 44.84 47.6951 45.3694 48.7699C46.3801 50.8234 46.5245 51.6095 46.5245 54.8983V57.754H43.6368H40.749V50.9357V44.1015L41.4228 44.4704C41.7918 44.679 42.6902 45.417 43.3961 46.1229Z" fill="#E83A15"/>
<path d="M47.7277 1.66793C46.8614 2.06901 46.1234 2.80698 45.7705 3.64122C45.6421 3.97812 45.5619 4.81235 45.5619 5.98348C45.5619 8.50222 45.4336 8.40597 49.0272 8.47014L51.8187 8.51827V9.32041V10.1065H49.0432C46.7972 10.1065 46.2036 10.1546 45.9149 10.3632L45.5619 10.6038V25.8446C45.5619 42.3368 45.5138 41.5507 46.4443 42.6416C47.1502 43.4758 48.0325 43.8608 49.2518 43.8608C50.7759 43.8608 51.931 43.171 52.6689 41.7913C53.0219 41.1656 53.0219 41.0052 53.07 33.0158L53.1181 24.8821L54.2732 24.5452C57.562 23.5826 58.0273 23.4061 58.6209 22.9248C58.9578 22.636 59.407 22.0425 59.6155 21.5933C59.9845 20.7911 60.0006 20.6949 60.0006 15.7857C60.0006 11.0049 59.9845 10.7964 59.6797 10.4595C59.4872 10.2509 59.1503 10.1065 58.8776 10.1065H58.3963V7.17066C58.3963 4.42732 58.3642 4.20272 58.0112 3.43266C57.5941 2.53426 56.8241 1.86045 55.8775 1.50751C55.4444 1.36312 54.2893 1.29895 51.8989 1.29895C48.6903 1.28291 48.4978 1.29895 47.7277 1.66793ZM55.685 3.99416L56.1503 4.4594V7.28296V10.1065H55.1075H54.0647V8.64661C54.0647 7.26692 53.9203 6.64124 53.5192 6.38456C53.423 6.32038 52.0914 6.25621 50.5834 6.25621H47.8079V5.35781C47.8079 4.58775 47.8721 4.41128 48.2732 3.99416L48.7384 3.52892H51.9791H55.2198L55.685 3.99416ZM57.7546 12.914V13.4755H55.0754C52.685 13.4755 52.316 13.5076 51.8668 13.7964C51.0647 14.2777 50.808 14.8071 50.7277 16.1707C50.6315 17.775 50.8721 18.6093 51.578 19.2349L52.1556 19.7323H54.947H57.7546V20.1333C57.7546 20.3579 57.562 20.743 57.3214 20.9997C56.9524 21.4007 56.423 21.5933 54.193 22.235C52.701 22.6521 51.3695 23.0852 51.2251 23.1975C50.9524 23.374 50.9363 24.0478 50.8561 32.0853L50.7759 40.7806L50.2465 41.2458C49.5887 41.8394 48.963 41.8555 48.3053 41.294L47.8079 40.8769V26.6147V12.3525H52.7812H57.7546V12.914ZM57.7546 16.5879V17.4542L56.7599 17.5665C56.1984 17.6146 55.1396 17.6467 54.3855 17.6146L53.0219 17.5665L52.9738 16.636L52.9256 15.7215H55.3481H57.7546V16.5879Z" fill="#00045F"/>
</svg>
