<svg width="60" height="60" viewBox="0 0 60 60" fill="none" xmlns="http://www.w3.org/2000/svg">
<path d="M37.4421 0.0404788C30.0943 0.849397 23.8598 5.23397 20.7191 11.8108C19.5472 14.2727 18.7503 17.6843 18.7503 20.2517C18.7503 20.8496 18.7972 21.0137 19.0433 21.2482C19.4066 21.6233 19.9574 21.6351 20.3207 21.2716C20.5551 21.0372 20.5902 20.8496 20.6605 19.6655C21.0004 13.3466 24.3637 7.77796 29.7896 4.50711C31.9342 3.21753 34.4303 2.36172 37.0085 2.02174C44.8836 0.978355 52.6767 5.17535 56.1924 12.3384C56.8604 13.71 57.5635 15.8437 57.8448 17.3795C58.1495 19.009 58.1495 22.1978 57.8448 23.8274C56.4854 31.2131 51.1415 36.9576 43.9461 38.7748C42.8914 39.0444 42.5398 39.1851 42.3406 39.4195C42.0242 39.783 42.0125 39.9588 42.2468 40.416C42.4929 40.8967 42.8914 40.967 44.0633 40.7209C48.8212 39.7478 53.4267 36.688 56.4385 32.5027C57.294 31.3069 58.6651 28.634 59.1221 27.2272C59.8839 24.9645 60.0011 24.1087 60.0011 20.6855C60.0011 17.2036 59.8839 16.3126 59.169 14.1321C58.6768 12.608 57.3409 9.97024 56.4033 8.65721C53.2978 4.31954 48.5399 1.28316 43.3016 0.310118C42.0476 0.0756492 38.5905 -0.0767557 37.4421 0.0404788Z" fill="#E83A15"/>
<path d="M36.903 3.94433C36.6335 4.15536 36.6217 4.24914 36.5631 5.94904L36.5046 7.73101L35.8717 7.95375C33.7975 8.68061 32.0396 10.5212 31.3248 12.6783C30.9029 13.9913 30.8795 15.8085 31.2779 17.0863C31.9342 19.22 33.4576 20.9551 35.4381 21.8343C36.4577 22.2915 37.0553 22.3853 39.1062 22.4674C40.7703 22.526 41.0398 22.5729 41.321 22.7839C41.9421 23.2411 42.1297 23.6163 42.1297 24.3549C42.1297 25.0934 41.9421 25.4686 41.321 25.9258C41.0164 26.1603 40.8054 26.172 36.9968 26.2306C32.4615 26.301 32.485 26.2892 31.6529 27.2388C30.6334 28.3995 30.692 29.8649 31.817 30.9786C32.5787 31.7524 32.9771 31.8579 34.9694 31.8579H36.5631V33.4405C36.5631 34.9763 36.5749 35.0466 36.8561 35.3163C37.1374 35.6094 37.1608 35.6094 39.3757 35.6094C41.5906 35.6094 41.614 35.6094 41.8953 35.3163C42.1765 35.0466 42.1882 34.988 42.1882 33.3233C42.1882 31.7993 42.2117 31.6117 42.3992 31.5531C46.1961 30.3573 48.4345 26.6058 47.6376 22.7722C47.1102 20.2048 45.0125 17.9421 42.4226 17.1449C41.9773 17.0043 41.1453 16.9222 39.7624 16.8636C37.9811 16.805 37.7116 16.7698 37.4304 16.547C36.8092 16.0898 36.6217 15.7147 36.6217 14.9761C36.6217 14.2375 36.8092 13.8624 37.4304 13.4052C37.735 13.1707 37.946 13.159 41.7546 13.1003C46.2899 13.03 46.2664 13.0417 47.0633 12.1273C48.118 10.9315 48.0712 9.4778 46.9344 8.35235C46.1727 7.5786 45.7742 7.47309 43.782 7.47309H42.1882V5.89043C42.1882 4.35465 42.1765 4.28431 41.8953 4.01467C41.614 3.72159 41.5906 3.72159 39.3991 3.72159C37.3835 3.72159 37.1491 3.74503 36.903 3.94433ZM40.3132 7.18001C40.3132 8.71578 40.3249 8.78612 40.6062 9.05576C40.8874 9.34884 40.9109 9.34884 43.1258 9.34884C45.3406 9.34884 45.3641 9.34884 45.6453 9.64193C45.9969 9.98191 46.0203 10.5095 45.7157 10.8846L45.493 11.166L41.4617 11.2246C37.4772 11.2832 37.4421 11.2832 36.8561 11.5763C36.1061 11.9397 35.403 12.6549 35.0397 13.3934C34.653 14.2024 34.6412 15.7264 35.0162 16.5001C35.4264 17.3325 35.8952 17.8366 36.7038 18.2587C37.4304 18.6455 37.4655 18.6573 39.4343 18.7393C41.6843 18.8331 42.2586 18.9621 43.3133 19.642C44.2039 20.2282 44.8133 20.9199 45.3055 21.9516C46.8758 25.2224 44.9891 29.0325 41.3914 29.8649C40.407 30.0876 40.3132 30.2869 40.3132 32.1627V33.7336H39.3757H38.4382V32.151C38.4382 30.6152 38.4265 30.5448 38.1452 30.2752C37.864 29.9821 37.8405 29.9821 35.6256 29.9821C33.4107 29.9821 33.3873 29.9821 33.1061 29.689C32.7545 29.3491 32.7311 28.8215 33.0357 28.4463L33.2584 28.165L37.2897 28.1064L41.3093 28.0477L42.0476 27.6492C42.8679 27.2037 43.2312 26.8285 43.6883 25.9493C43.9461 25.4451 43.993 25.199 43.993 24.3549C44.0047 23.4404 43.9695 23.2998 43.6062 22.6198C43.1609 21.8109 42.6687 21.3302 41.8367 20.9316C41.3914 20.7206 41.0046 20.6737 39.3171 20.5916C37.0671 20.4978 36.4928 20.3689 35.4381 19.6889C34.5475 19.1028 33.9381 18.4111 33.4459 17.3794C31.8756 14.1086 33.7623 10.2984 37.36 9.46608C38.3444 9.24333 38.4382 9.04403 38.4382 7.16828V5.59734H39.3757H40.3132V7.18001Z" fill="#00045F"/>
<path d="M13.4182 10.5799C13.1721 10.8144 13.1252 10.9785 13.1252 11.5178V12.1626H12.4807C11.6955 12.1626 11.2502 12.5025 11.2502 13.1004C11.2502 13.6983 11.6955 14.0383 12.4807 14.0383H13.1252V14.6831C13.1252 15.4686 13.4651 15.9141 14.0627 15.9141C14.6604 15.9141 15.0003 15.4686 15.0003 14.6831V14.0383H15.6448C16.43 14.0383 16.8753 13.6983 16.8753 13.1004C16.8753 12.5025 16.43 12.1626 15.6448 12.1626H15.0003V11.5178C15.0003 10.7323 14.6604 10.2868 14.0627 10.2868C13.8401 10.2868 13.594 10.3923 13.4182 10.5799Z" fill="#00045F"/>
<path d="M18.1995 22.6549C17.8948 22.866 17.8363 23.0418 15.6448 30.6855C14.2854 35.4101 13.9807 36.3479 13.6291 36.8989C13.1604 37.6141 12.176 38.5988 11.6135 38.9271L11.2502 39.1381V38.5988C11.2502 38.1885 11.1799 37.9892 10.9572 37.7782L10.676 37.4851H5.6251H0.574229L0.292974 37.7782L0 38.0596V48.7396V59.4197L0.292974 59.701L0.574229 59.9941H5.6251H10.676L10.9572 59.701C11.1682 59.49 11.2502 59.2907 11.2502 58.939C11.2502 58.6811 11.2854 58.4701 11.3205 58.4701C11.3674 58.4701 12.5744 58.8101 14.0159 59.2321L16.6409 60.0059L25.1723 59.9707L33.692 59.9355L34.36 59.6073C35.2037 59.1969 36.0124 58.306 36.2702 57.5205C36.6335 56.4302 36.446 54.8944 35.8717 54.1324L35.6491 53.851L36.1764 53.3821C36.9733 52.6787 37.3835 51.7408 37.3835 50.6037C37.3835 49.8182 37.3366 49.6072 36.9967 48.9506L36.6217 48.1886L37.1374 47.7431C37.9108 47.0632 38.321 46.1018 38.321 44.9764C38.321 44.2026 38.2741 43.9799 37.9343 43.3234L37.5593 42.5614L38.11 42.069C38.4147 41.7993 38.8015 41.2835 38.989 40.9084C39.2702 40.3456 39.3171 40.0994 39.3171 39.3022C39.3054 38.4582 39.2702 38.2823 38.9069 37.6258C38.4851 36.8286 37.9929 36.3479 37.1491 35.9376C36.6217 35.668 36.5983 35.668 30.0826 35.6328L23.5317 35.5976L23.602 35.1639C24.0121 32.5964 24.3871 28.9973 24.3286 28.2119C24.0942 25.3631 22.4887 23.3115 19.9808 22.6549C19.1019 22.4322 18.516 22.4322 18.1995 22.6549ZM20.1918 24.7065C21.0004 25.0934 21.5277 25.5975 21.9144 26.3947C22.5824 27.7546 22.5941 28.2353 22.0434 32.5847C21.7855 34.6832 21.5629 36.5121 21.5629 36.641C21.5629 36.77 21.6683 36.9927 21.7855 37.1451L22.0082 37.4265L29.1568 37.4851C36.153 37.5437 36.317 37.5437 36.6335 37.7899C37.2546 38.2471 37.4421 38.6223 37.4421 39.3609C37.4421 40.0994 37.2546 40.4746 36.6335 40.9318C36.3405 41.1663 36.1061 41.178 33.3756 41.2366C30.4693 41.2952 30.4458 41.2952 30.2232 41.5766C29.9419 41.9283 29.9419 42.4207 30.2232 42.7724C30.4458 43.0537 30.4927 43.0537 32.9068 43.1124C35.6022 43.171 35.6725 43.1944 36.2584 43.9799C36.5983 44.4371 36.5983 45.5391 36.2584 45.9963C35.6608 46.7935 35.6608 46.8053 32.4381 46.8639C29.5318 46.9225 29.5083 46.9225 29.2857 47.2039C29.0044 47.5556 29.0044 48.0479 29.2857 48.3996C29.5083 48.681 29.5552 48.681 31.9693 48.7396C34.6647 48.7982 34.735 48.8217 35.3209 49.6072C35.6608 50.0644 35.6608 51.1664 35.3209 51.6236C34.7233 52.4208 34.7233 52.4325 31.5006 52.4911C28.5943 52.5497 28.5708 52.5497 28.3482 52.8311C28.0669 53.1828 28.0669 53.6752 28.3482 54.0269C28.5708 54.3083 28.6177 54.3083 31.0318 54.3669C33.2936 54.4255 33.5279 54.4489 33.8209 54.6717C34.442 55.1289 34.6295 55.5041 34.6295 56.2426C34.6295 56.9812 34.442 57.3564 33.8209 57.8136C33.5045 58.0598 33.3756 58.0598 25.2426 58.0949L16.9925 58.1184L14.9182 57.5322C13.7698 57.204 12.4807 56.8288 12.0471 56.6998L11.2502 56.4654V48.8217L11.2619 41.178L12.1877 40.7442C13.3362 40.1932 14.2971 39.3257 15.1643 38.0361L15.8206 37.0748L17.5784 30.92C18.5394 27.5319 19.3597 24.6948 19.3949 24.6128C19.4652 24.4135 19.6058 24.4369 20.1918 24.7065ZM9.37516 48.7396V58.1184H5.6251H1.87503V48.7396V39.3609H5.6251H9.37516V48.7396Z" fill="#E83A15"/>
<path d="M48.1063 45.2813C47.8602 45.5158 47.8133 45.6799 47.8133 46.2192V46.864H47.1688C46.3836 46.864 45.9383 47.204 45.9383 47.8019C45.9383 48.3997 46.3836 48.7397 47.1688 48.7397H47.8133V49.3845C47.8133 50.17 48.1532 50.6155 48.7509 50.6155C49.3485 50.6155 49.6884 50.17 49.6884 49.3845V48.7397H50.3329C51.1181 48.7397 51.5634 48.3997 51.5634 47.8019C51.5634 47.204 51.1181 46.864 50.3329 46.864H49.6884V46.2192C49.6884 45.4337 49.3485 44.9882 48.7509 44.9882C48.5282 44.9882 48.2821 45.0937 48.1063 45.2813Z" fill="#00045F"/>
</svg>
