<svg width="60" height="60" viewBox="0 0 60 60" fill="none" xmlns="http://www.w3.org/2000/svg">
<path d="M37.998 0.000305176C37.4461 0.000305176 36.998 0.448313 36.998 1.00027C36.998 1.55222 37.4461 2.00023 37.998 2.00023C49.026 2.00023 57.998 10.9722 57.998 22.0002C57.998 22.5522 58.446 23.0002 58.998 23.0002C59.551 23.0002 59.998 22.5522 59.998 22.0002C59.998 9.86936 50.129 0.000305176 37.998 0.000305176Z" fill="#E83A15"/>
<path d="M37.998 6.00031C37.4461 6.00031 36.998 6.44831 36.998 7.00027C36.998 7.55222 37.4461 8.00023 37.998 8.00023C45.718 8.00023 51.998 14.2802 51.998 22.0003C51.998 22.5522 52.446 23.0002 52.998 23.0002C53.551 23.0002 53.998 22.5522 53.998 22.0003C53.998 13.1784 46.8209 6.00031 37.998 6.00031Z" fill="#E83A15"/>
<path d="M37.998 12.0003C37.4461 12.0003 36.998 12.4483 36.998 13.0002C36.998 13.5522 37.4461 14.0002 37.998 14.0002C42.4091 14.0002 45.998 17.5892 45.998 22.0002C45.998 22.5522 46.446 23.0002 46.998 23.0002C47.551 23.0002 47.998 22.5522 47.998 22.0002C47.998 16.4863 43.5119 12.0003 37.998 12.0003Z" fill="#E83A15"/>
<path d="M54.1129 37.5253C51.3919 37.1673 48.7089 36.4994 46.1388 35.5423C43.6499 34.6092 40.8218 35.2112 38.9278 37.0803L35.7668 40.2342C29.1388 36.3263 23.6018 30.8003 19.6848 24.1853L22.8478 21.0293C24.7178 19.1424 25.3218 16.3174 24.3869 13.8344C23.4279 11.2684 22.7589 8.59142 22.3989 5.86634C21.9198 2.4883 18.9948 -0.0127132 15.5759 0.000294647H6.82692C6.6229 0.000294647 6.41888 0.0102556 6.21696 0.0283024C4.39986 0.192365 2.7549 1.05334 1.58583 2.45139C0.416889 3.85037 -0.137173 5.62037 0.0288818 7.4513C0.997904 16.5593 4.1479 25.4363 9.13294 33.1163C13.6589 40.2243 19.816 46.3692 26.9309 50.8813C34.5969 55.8433 43.4499 58.9863 52.5529 59.9733C52.7589 59.9913 52.9658 60.0002 53.1738 60.0002C53.1798 60.0002 53.1858 60.0002 53.1928 60.0002C56.9609 59.9842 60.0128 56.9122 59.9978 53.1552V44.4362C60.0769 40.9793 57.5528 38.0093 54.1129 37.5253ZM57.9979 44.4003C57.9979 44.4082 57.9979 44.4172 57.9979 44.4252V53.1602C58.0078 55.8183 55.8489 57.9902 53.1859 58.0013C53.0299 57.9953 52.8799 57.9953 52.7479 57.9832C43.9739 57.0312 35.4218 53.9952 28.0089 49.1972C21.1329 44.8362 15.1889 38.9042 10.8149 32.0342C5.99583 24.6104 2.95388 16.0363 2.01884 7.25537C1.90283 5.97334 2.29388 4.72342 3.12087 3.73435C3.94786 2.74529 5.11083 2.13639 6.39685 2.02037C6.53981 2.00736 6.6829 2.00033 6.82681 2.00033H15.5848C15.6009 2.00033 15.6168 2.00033 15.6329 2.00033C18.0289 2.00033 20.0819 3.77537 20.4168 6.13728C20.7958 9.00228 21.5008 11.8283 22.5137 14.5373C23.1748 16.2932 22.7478 18.2893 21.4307 19.6183L17.7268 23.3143C17.4067 23.6332 17.3407 24.1253 17.5638 24.5173C21.8017 31.9573 27.9828 38.1253 35.4358 42.3543C35.8278 42.5773 36.3177 42.5093 36.6358 42.1923L40.3357 38.5003C41.6727 37.1814 43.6757 36.7564 45.4377 37.4164C48.1497 38.4264 50.9807 39.1314 53.8417 39.5073C56.2718 39.8493 58.0588 41.9523 57.9979 44.4003Z" fill="#E83A15"/>
<path d="M15.0024 4.00027H6.82944C6.74542 4.00027 6.66245 4.00426 6.57948 4.01223C5.56054 4.10422 4.93745 4.68219 4.65749 5.01723C4.43249 5.28617 3.91851 6.02023 4.00851 7.02828C4.38656 10.5753 5.07046 14.0262 6.04347 17.2863C6.17343 17.7193 6.57046 18.0003 7.00148 18.0003C7.09651 18.0003 7.19249 17.9873 7.28847 17.9583C7.81745 17.8004 8.1185 17.2434 7.96042 16.7144C7.02245 13.5724 6.36245 10.2424 5.99941 6.8334C5.97644 6.57945 6.14144 6.36043 6.19241 6.29844C6.27444 6.20047 6.45737 6.03148 6.82944 6.00043H15.0005C15.0015 6.00043 15.0015 6.00043 15.0015 6.00043C15.5535 6.00043 16.0015 5.55348 16.0015 5.00141C16.0024 4.44922 15.5544 4.00027 15.0024 4.00027Z" fill="#E83A15"/>
<path d="M54.9975 44.0003C54.4455 44.0003 53.9975 44.4483 53.9975 45.0002L53.9965 53.1592C53.9975 53.3842 53.9115 53.5962 53.7545 53.7541C53.5975 53.9121 53.3895 53.9992 53.1915 54.0001L53.0995 53.9981C49.6826 53.6271 46.3806 52.9691 43.2856 52.0421C42.7586 51.8831 42.1996 52.1842 42.0406 52.7132C41.8815 53.2421 42.1826 53.7991 42.7116 53.9582C45.9226 54.9201 49.3455 55.6022 52.9016 55.9882C52.9836 55.9962 53.1506 56.0001 53.1746 56.0001C53.9317 55.9971 54.6416 55.7001 55.1747 55.1632C55.7077 54.6252 55.9997 53.9112 55.9966 53.1552L55.9976 45.0002C55.9976 44.4483 55.5496 44.0003 54.9975 44.0003Z" fill="#E83A15"/>
</svg>
