<svg width="60" height="60" viewBox="0 0 60 60" fill="none" xmlns="http://www.w3.org/2000/svg">
<path d="M18.5439 0.164139C16.4822 0.790241 14.9124 2.42579 14.2682 4.55965C14.0573 5.30076 14.0222 5.79908 13.9636 8.68683L13.9167 11.9579L9.44185 12.009C5.24811 12.0601 4.93183 12.0857 4.20554 12.3412C2.71782 12.8779 1.34724 14.1429 0.679523 15.5868C-0.0233372 17.0945 9.15183e-05 16.6729 9.15183e-05 29.9872C9.15183e-05 43.4548 -0.0233372 43.0332 0.738095 44.6176C1.20667 45.5759 2.30782 46.777 3.16296 47.2498C4.42811 47.9398 4.93183 48.0165 8.59842 48.0165H11.9487V53.4725C11.9487 58.4303 11.9721 58.9797 12.1596 59.3886C12.4056 59.938 12.839 60.1297 13.3193 59.9125C13.5302 59.823 15.6036 57.4336 18.5556 53.8942L23.4405 48.0292L32.2497 47.9781C40.6606 47.9398 41.0823 47.927 41.7031 47.6842C43.7766 46.8665 45.1823 45.3332 45.7329 43.2632C45.8383 42.8671 45.9203 42.3432 45.9203 42.1004C45.9203 41.8449 45.9672 41.6149 46.014 41.5765C46.0726 41.5382 47.1854 42.816 48.5092 44.4004C49.8212 45.9848 51.0746 47.4415 51.2855 47.6459C51.7657 48.1187 52.2695 48.1315 52.656 47.697L52.9489 47.3904V41.6915V36.0055H53.9212C56.7678 36.0055 59.1575 33.961 59.8018 30.9966C60.0712 29.7572 60.0595 6.18242 59.7901 5.0452C59.2629 2.80911 57.8221 1.12246 55.8189 0.381359L54.9989 0.087471L37.076 0.0235825C21.4725 -0.0275269 19.071 -0.0019722 18.5439 0.164139ZM55.3035 2.46412C56.5218 2.92411 57.5995 4.26577 57.8689 5.64575C57.9509 6.09297 57.9861 10.1946 57.9626 18.4362L57.9275 30.575L57.6229 31.2905C57.2246 32.2105 56.4983 33.0027 55.6549 33.4244C55.0692 33.731 54.8232 33.7694 53.2769 33.8333C50.7935 33.9227 51.0277 33.3605 50.9575 39.251L50.8989 44.0298L48.4974 41.1421L46.096 38.2543L46.0374 27.7767C45.9672 17.529 45.9672 17.2734 45.7211 16.5834C45.5923 16.1873 45.358 15.6123 45.2174 15.3057C44.8426 14.5134 43.5306 13.1335 42.7574 12.7246C41.3283 11.9579 41.8437 11.9835 28.3839 11.9835H16.0487V8.78905C16.0487 5.9013 16.0722 5.54353 16.283 4.90465C16.7165 3.65244 17.7942 2.63023 19.0593 2.27245C19.3405 2.19579 25.9591 2.17023 37.1463 2.20856C52.5037 2.25967 54.8466 2.29801 55.3035 2.46412ZM41.0588 14.3346C42.2537 14.6796 43.2611 15.6507 43.6829 16.8901C43.9289 17.6184 43.9289 17.6312 43.9054 30.1661L43.8703 42.7137L43.5774 43.3398C43.1909 44.1704 42.5466 44.8604 41.7968 45.282C41.2463 45.6015 41.0003 45.6398 39.4774 45.7293C38.5403 45.7804 34.4051 45.8315 30.2699 45.8315L22.761 45.8443L22.3979 46.1254C22.1988 46.2915 20.2308 48.6042 18.0167 51.262L13.9987 56.1175L13.9402 51.1981C13.905 48.502 13.8582 46.2787 13.8464 46.2659C13.5536 45.9465 13.0499 45.9082 9.13727 45.8443L4.97868 45.7804L4.31097 45.4354C3.49096 45.0265 2.75296 44.2087 2.35467 43.2887L2.0501 42.586V30.0639V17.5418L2.35467 16.8262C2.77639 15.8551 3.40896 15.1268 4.19382 14.7051C4.83811 14.3601 4.93183 14.3473 7.26298 14.2834C8.5867 14.2323 16.5993 14.194 25.0688 14.1812C37.6383 14.1684 40.5786 14.194 41.0588 14.3346Z" fill="#E83A15"/>
<path d="M9.65251 22.9723C9.00822 23.2534 8.83251 24.1861 9.31279 24.6973L9.59394 25.0167H16.482C21.9526 25.0039 23.4169 24.9784 23.5691 24.8378C23.9089 24.5695 24.0494 24.0073 23.8854 23.5856C23.6043 22.8317 23.698 22.8445 16.4937 22.8573C12.8622 22.8573 9.78137 22.9084 9.65251 22.9723Z" fill="#E83A15"/>
<path d="M9.75949 29.4505C9.40806 29.5272 9.02148 30.0766 9.02148 30.5239C9.02148 30.7155 9.15034 31.0477 9.30263 31.2394L9.58377 31.5972L22.6687 31.6355C31.759 31.6611 35.8942 31.6227 36.2105 31.5333C36.5853 31.4183 36.7259 31.3033 36.8547 30.9455C36.9953 30.575 36.9953 30.4472 36.8547 30.0766C36.7259 29.7316 36.5853 29.6039 36.2339 29.5016C35.8005 29.3611 10.3686 29.3228 9.75949 29.4505Z" fill="#E83A15"/>
<path d="M9.31192 36.3249C8.93706 36.721 8.93706 37.2832 9.30021 37.756L9.58135 38.1138L22.6897 38.1521C32.0377 38.1777 35.9152 38.1521 36.2315 38.0499C36.5712 37.9349 36.7235 37.8071 36.8523 37.4749C37.028 36.9893 36.9812 36.721 36.6298 36.2866L36.3955 36.0055H22.9943H9.59307L9.31192 36.3249Z" fill="#E83A15"/>
</svg>
