<svg width="57" height="57" viewBox="0 0 57 57" fill="none" xmlns="http://www.w3.org/2000/svg">
<path d="M36.0989 0.000244141C35.5745 0.000244141 35.1489 0.425851 35.1489 0.950206C35.1489 1.47456 35.5745 1.90017 36.0989 1.90017C46.5755 1.90017 55.0989 10.4236 55.0989 20.9002C55.0989 21.4245 55.5245 21.8502 56.0489 21.8502C56.5742 21.8502 56.9988 21.4245 56.9988 20.9002C56.9988 9.37585 47.6233 0.000244141 36.0989 0.000244141Z" fill="white"/>
<path d="M36.0989 5.7002C35.5745 5.7002 35.1489 6.1258 35.1489 6.65016C35.1489 7.17451 35.5745 7.60012 36.0989 7.60012C43.4328 7.60012 49.3989 13.5661 49.3989 20.9001C49.3989 21.4245 49.8245 21.8501 50.3489 21.8501C50.8742 21.8501 51.2988 21.4245 51.2988 20.9001C51.2988 12.5194 44.4807 5.7002 36.0989 5.7002Z" fill="white"/>
<path d="M36.0989 11.4004C35.5745 11.4004 35.1489 11.826 35.1489 12.3504C35.1489 12.8747 35.5745 13.3003 36.0989 13.3003C40.2894 13.3003 43.6989 16.7098 43.6989 20.9003C43.6989 21.4247 44.1245 21.8503 44.6489 21.8503C45.1742 21.8503 45.5988 21.4247 45.5988 20.9003C45.5988 15.6621 41.3371 11.4004 36.0989 11.4004Z" fill="white"/>
<path d="M51.4072 35.6491C48.8223 35.309 46.2734 34.6744 43.8319 33.7652C41.4674 32.8788 38.7807 33.4507 36.9814 35.2263L33.9785 38.2225C27.6819 34.51 22.4217 29.2603 18.7006 22.9761L21.7055 19.9779C23.4819 18.1853 24.0557 15.5015 23.1675 13.1427C22.2565 10.705 21.621 8.16186 21.279 5.57304C20.8238 2.3639 18.0451 -0.0120653 14.7971 0.000292121H6.48558C6.29175 0.000292121 6.09793 0.009755 5.90612 0.0268995C4.17986 0.182759 2.61715 1.00069 1.50654 2.32883C0.396045 3.65786 -0.130314 5.33936 0.0274377 7.07875C0.948009 15.7314 3.94051 24.1645 8.67629 31.4605C12.976 38.2131 18.8252 44.0508 25.5843 48.3373C32.8671 53.0511 41.2774 56.037 49.9252 56.9746C50.1209 56.9918 50.3175 57.0002 50.5151 57.0002C50.5208 57.0002 50.5265 57.0002 50.5332 57.0002C54.1128 56.985 57.0121 54.0666 56.9979 50.4975V42.2144C57.073 38.9304 54.6751 36.1089 51.4072 35.6491ZM55.098 42.1803C55.098 42.1878 55.098 42.1964 55.098 42.204V50.5023C55.1074 53.0274 53.0564 55.0907 50.5266 55.1012C50.3784 55.0955 50.2359 55.0955 50.1105 55.0841C41.7752 54.1796 33.6507 51.2955 26.6085 46.7374C20.0763 42.5944 14.4295 36.959 10.2742 30.4325C5.69604 23.3798 2.80619 15.2345 1.9179 6.89261C1.80768 5.67468 2.17919 4.48726 2.96483 3.54765C3.75047 2.60804 4.85529 2.02958 6.077 1.91936C6.21282 1.90701 6.34875 1.90033 6.48547 1.90033H14.8056C14.8208 1.90033 14.836 1.90033 14.8512 1.90033C17.1274 1.90033 19.0778 3.58661 19.396 5.83043C19.756 8.55218 20.4257 11.2369 21.3881 13.8104C22.0161 15.4786 21.6104 17.3748 20.3592 18.6374L16.8404 22.1486C16.5364 22.4516 16.4737 22.9191 16.6856 23.2915C20.7116 30.3594 26.5836 36.2191 33.664 40.2366C34.0364 40.4484 34.5018 40.3839 34.804 40.0827L38.3189 36.5753C39.5891 35.3223 41.4919 34.9186 43.1658 35.5456C45.7422 36.5051 48.4316 37.1748 51.1496 37.532C53.4582 37.8568 55.1559 39.8547 55.098 42.1803Z" fill="white"/>
<path d="M14.2501 3.80029H6.48573C6.4059 3.80029 6.32708 3.80408 6.24826 3.81165C5.28027 3.89904 4.68833 4.44811 4.42237 4.7664C4.20862 5.0219 3.72034 5.71925 3.80584 6.6769C4.16498 10.0466 4.81469 13.325 5.73905 16.422C5.86251 16.8334 6.23969 17.1003 6.64916 17.1003C6.73944 17.1003 6.83062 17.088 6.9218 17.0605C7.42433 16.9104 7.71033 16.3813 7.56015 15.8787C6.66908 12.8938 6.04208 9.73029 5.69719 6.49176C5.67537 6.25051 5.83212 6.04244 5.88055 5.98355C5.95848 5.89048 6.13226 5.72994 6.48573 5.70044H14.2482C14.2492 5.70044 14.2492 5.70044 14.2492 5.70044C14.7735 5.70044 15.1991 5.27583 15.1991 4.75137C15.2 4.22679 14.7744 3.80029 14.2501 3.80029Z" fill="white"/>
<path d="M52.2489 41.8003C51.7245 41.8003 51.2989 42.2259 51.2989 42.7503L51.2979 50.5012C51.2989 50.715 51.2172 50.9164 51.068 51.0665C50.9189 51.2165 50.7212 51.2992 50.5332 51.3001L50.4458 51.2982C47.1997 50.9458 44.0628 50.3207 41.1225 49.4401C40.6219 49.289 40.0909 49.575 39.9398 50.0775C39.7887 50.5801 40.0747 51.1092 40.5773 51.2603C43.6278 52.1742 46.8795 52.8221 50.2578 53.1888C50.3357 53.1964 50.4944 53.2002 50.5172 53.2002C51.2364 53.1973 51.9108 52.9152 52.4172 52.4051C52.9235 51.894 53.201 51.2156 53.1981 50.4975L53.199 42.7503C53.199 42.2259 52.7734 41.8003 52.2489 41.8003Z" fill="white"/>
</svg>
