<svg width="60" height="57" viewBox="0 0 60 57" fill="none" xmlns="http://www.w3.org/2000/svg">
<path d="M50.2767 47.6147C50.1081 46.3886 49.3979 45.3402 48.3279 44.7384L38.1149 38.9936C36.5516 38.1143 34.5739 38.3859 33.3054 39.6543L29.7191 43.2406C28.9844 43.9753 27.8082 44.0668 26.9828 43.4536C24.505 41.6125 22.0833 39.5137 19.7849 37.2153C17.4866 34.917 15.3878 32.4952 13.5466 30.0174C12.9334 29.1921 13.0249 28.0158 13.7596 27.2811L17.3459 23.6948C18.6144 22.4263 18.886 20.4486 18.0065 18.8853L12.2619 8.67228C11.6601 7.60229 10.6118 6.89208 9.38565 6.72361C8.10095 6.54718 6.82848 6.98179 5.89421 7.9164L2.11161 11.699C-0.560647 14.3713 -0.701098 19.1554 1.71597 25.1702C4.02811 30.9241 8.42787 37.2192 14.1045 42.8958C19.7812 48.5727 26.0762 52.9723 31.8301 55.2843C34.6793 56.4293 37.2519 57.0003 39.4551 57.0003C41.9029 57.0003 43.8947 56.2952 45.3012 54.8887L49.0838 51.1061C50.0183 50.1717 50.453 48.8991 50.2767 47.6147ZM47.7313 49.7537L47.0702 50.4146L38.3634 45.6654C37.8996 45.4122 37.3188 45.5833 37.0659 46.0471C36.8129 46.5108 36.9838 47.0917 37.4476 47.3446L45.6605 51.8244L43.9486 53.5363C41.8827 55.602 37.7256 55.5922 32.5431 53.5098C27.0232 51.2915 20.9552 47.0419 15.4568 41.5434C9.95864 36.045 5.70879 29.9769 3.49063 24.457C1.40809 19.2742 1.3984 15.1172 3.46411 13.0515L5.1757 11.3396L6.09128 13.0181C6.26494 13.3363 6.59301 13.5167 6.93168 13.5167C7.08632 13.5167 7.24337 13.4791 7.38867 13.3998C7.85234 13.1468 8.02335 12.5658 7.77035 12.1021L6.58574 9.92988L7.2466 9.26902C7.6811 8.83475 8.24521 8.59848 8.82904 8.59848C8.9274 8.59848 9.02645 8.60528 9.12539 8.61877C9.75327 8.70502 10.289 9.0663 10.5948 9.61023L16.3395 19.8232C16.8 20.6422 16.6578 21.6781 15.9934 22.3424L14.2869 24.049L9.8085 15.8385C9.55562 15.3748 8.97468 15.2038 8.51101 15.4568C8.04733 15.7097 7.87632 16.2906 8.12932 16.7543L12.8772 25.4586L12.4072 25.9286C11.0068 27.329 10.8367 29.5772 12.0114 31.1581C13.9081 33.7106 16.0684 36.2037 18.4324 38.5678C20.7965 40.9319 23.2896 43.0923 25.842 44.9888C27.4229 46.1636 29.671 45.9934 31.0716 44.593L31.5416 44.123L33.7134 45.3076C33.8589 45.387 34.0158 45.4245 34.1704 45.4245C34.5091 45.4245 34.8371 45.2442 35.0108 44.9259C35.2638 44.4622 35.0929 43.8813 34.6291 43.6284L32.9512 42.7131L34.6577 41.0065C35.322 40.3422 36.358 40.1999 37.1771 40.6605L47.3901 46.4051C47.9339 46.7111 48.2953 47.2467 48.3815 47.8746C48.4759 48.5613 48.2389 49.2461 47.7313 49.7537Z" fill="white"/>
<path d="M45.8427 24.483H44.7588V16.2584C44.7588 15.7302 44.3307 15.302 43.8024 15.302C43.2743 15.302 42.846 15.7301 42.846 16.2584V24.483H37.8538L39.6354 16.4658C39.7499 15.9502 39.4248 15.4393 38.9091 15.3248C38.3933 15.21 37.8827 15.5353 37.7681 16.0509L35.7279 25.232C35.6649 25.5152 35.7339 25.8116 35.9155 26.0379C36.097 26.2642 36.3713 26.3958 36.6615 26.3958H42.8459V29.5199C42.8459 30.048 43.2741 30.4763 43.8023 30.4763C44.3304 30.4763 44.7587 30.0481 44.7587 29.5199V26.3957H45.8425C46.3707 26.3957 46.7989 25.9676 46.7989 25.4393C46.7989 24.9112 46.3708 24.483 45.8427 24.483Z" fill="white"/>
<path d="M33.6008 28.5635H26.5623C26.9783 27.468 28.1556 26.7712 29.8537 25.8446C31.9493 24.701 34.5572 23.2778 34.5572 20.0474C34.5572 17.4308 32.2977 15.302 29.5204 15.302C26.7431 15.302 24.4835 17.4307 24.4835 20.0474C24.4835 20.5755 24.9117 21.0038 25.4399 21.0038C25.968 21.0038 26.3963 20.5756 26.3963 20.0474C26.3963 18.4854 27.7978 17.2147 29.5204 17.2147C31.2429 17.2147 32.6444 18.4853 32.6444 20.0474C32.6443 22.0017 31.244 22.9069 28.9374 24.1655C26.8497 25.3048 24.4834 26.5962 24.4834 29.5198C24.4834 30.048 24.9116 30.4762 25.4398 30.4762H33.6007C34.1288 30.4762 34.5571 30.0481 34.5571 29.5198C34.5571 28.9916 34.129 28.5635 33.6008 28.5635Z" fill="white"/>
<path d="M53.8155 39.8034L51.953 40.1759C56.479 35.7802 59.0399 29.7681 59.0399 23.3992C59.0399 10.497 48.5432 0.000244141 35.641 0.000244141C28.037 0.000244141 20.8802 3.71677 16.4967 9.94205C16.1927 10.3739 16.2962 10.9705 16.7281 11.2747C17.1598 11.5788 17.7564 11.4752 18.0606 11.0434C22.0865 5.32619 28.6586 1.91294 35.6411 1.91294C47.4885 1.91294 57.1273 11.5516 57.1273 23.3992C57.1273 29.333 54.7048 34.9285 50.4342 38.9799L50.8606 36.8482C50.9642 36.3302 50.6283 35.8264 50.1103 35.7229C49.5924 35.6192 49.0885 35.9552 48.985 36.4732L47.9649 41.5738C47.9022 41.8874 48.0003 42.2115 48.2264 42.4376C48.4075 42.6187 48.6516 42.7177 48.9026 42.7177C48.965 42.7177 49.0277 42.7116 49.0902 42.6992L54.1909 41.679C54.7089 41.5753 55.0448 41.0715 54.9412 40.5537C54.8372 40.0358 54.3333 39.7001 53.8155 39.8034Z" fill="white"/>
<path d="M35.641 4.08081C35.1128 4.08081 34.6846 4.50897 34.6846 5.03721V7.07744C34.6846 7.60558 35.1127 8.03385 35.641 8.03385C36.1691 8.03385 36.5974 7.60569 36.5974 7.07744V5.03721C36.5973 4.50908 36.1692 4.08081 35.641 4.08081Z" fill="white"/>
<path d="M54.0035 22.4429H51.9632C51.4351 22.4429 51.0068 22.871 51.0068 23.3993C51.0068 23.9274 51.435 24.3557 51.9632 24.3557H54.0035C54.5316 24.3557 54.9599 23.9275 54.9599 23.3993C54.9599 22.871 54.5316 22.4429 54.0035 22.4429Z" fill="white"/>
<path d="M21.9842 14.4101L20.2174 13.39C19.7598 13.1259 19.1751 13.2827 18.911 13.74C18.6469 14.1975 18.8036 14.7823 19.261 15.0464L21.0278 16.0665C21.1784 16.1534 21.3428 16.1947 21.5051 16.1947C21.8356 16.1947 22.157 16.0231 22.3342 15.7164C22.5982 15.259 22.4415 14.6742 21.9842 14.4101Z" fill="white"/>
<path d="M52.0213 31.752L50.2545 30.7318C49.7971 30.4677 49.2122 30.6245 48.9481 31.0818C48.6841 31.5391 48.8407 32.1241 49.2981 32.3882L51.0649 33.4083C51.2155 33.4952 51.38 33.5365 51.5422 33.5365C51.8727 33.5365 52.1942 33.3649 52.3713 33.0582C52.6355 32.6009 52.4788 32.0161 52.0213 31.752Z" fill="white"/>
<path d="M45.3004 6.66886C44.843 6.40467 44.2581 6.5615 43.994 7.01883L42.974 8.78565C42.7099 9.2431 42.8666 9.82796 43.324 10.092C43.4746 10.179 43.6389 10.2203 43.8012 10.2203C44.1317 10.2203 44.4532 10.0487 44.6303 9.74194L45.6505 7.97512C45.9146 7.5179 45.7579 6.93292 45.3004 6.66886Z" fill="white"/>
<path d="M27.9586 36.7062C27.5012 36.442 26.9164 36.5989 26.6522 37.0562L25.6322 38.823C25.3681 39.2805 25.5248 39.8653 25.9822 40.1294C26.1328 40.2163 26.2972 40.2576 26.4594 40.2576C26.7899 40.2576 27.1114 40.086 27.2885 39.7793L28.3087 38.0125C28.5728 37.5551 28.4161 36.9703 27.9586 36.7062Z" fill="white"/>
<path d="M52.3714 13.74C52.1073 13.2826 51.5222 13.1259 51.065 13.3901L49.2982 14.4102C48.8407 14.6743 48.684 15.2592 48.9482 15.7166C49.1253 16.0235 49.4468 16.1949 49.7773 16.1949C49.9395 16.1949 50.104 16.1537 50.2546 16.0667L52.0214 15.0467C52.4787 14.7824 52.6354 14.1974 52.3714 13.74Z" fill="white"/>
<path d="M22.3342 31.0819C22.0702 30.6244 21.4852 30.4676 21.0279 30.7319L19.261 31.7521C18.8036 32.0162 18.6469 32.601 18.9111 33.0585C19.0882 33.3653 19.4097 33.5368 19.7402 33.5368C19.9024 33.5368 20.0668 33.4955 20.2174 33.4086L21.9843 32.3885C22.4416 32.1242 22.5983 31.5392 22.3342 31.0819Z" fill="white"/>
<path d="M28.3087 8.786L27.2886 7.01917C27.0245 6.56161 26.4396 6.4049 25.9822 6.6692C25.5248 6.93327 25.3681 7.51825 25.6323 7.97558L26.6524 9.7424C26.8297 10.0492 27.1512 10.2207 27.4815 10.2207C27.6438 10.2207 27.8082 10.1794 27.9588 10.0925C28.416 9.82831 28.5727 9.24333 28.3087 8.786Z" fill="white"/>
<path d="M45.6505 38.823L44.6304 37.0562C44.3663 36.5988 43.7814 36.4421 43.324 36.7062C42.8666 36.9703 42.7099 37.5552 42.9741 38.0126L43.9941 39.7794C44.1712 40.0863 44.4927 40.2578 44.8232 40.2578C44.9855 40.2578 45.1499 40.2165 45.3005 40.1295C45.7578 39.8653 45.9145 39.2805 45.6505 38.823Z" fill="white"/>
</svg>
