<svg width="60" height="60" viewBox="0 0 60 60" fill="none" xmlns="http://www.w3.org/2000/svg">
<g clip-path="url(#clip0_523_1100)">
<path d="M28.2427 0.0364342C27.2932 0.165413 25.4881 0.564075 24.6442 0.845486C23.4486 1.25587 21.6553 2.15873 20.53 2.92088C19.3228 3.74165 16.955 6.1219 16.1814 7.29444C14.9742 9.13533 14.0833 11.2459 13.6262 13.3682C13.3332 14.7283 13.3332 18.6212 13.6262 19.9813C14.1537 22.4436 14.8687 24.0031 16.9785 27.3331C17.8224 28.6815 18.5023 29.8306 18.4905 29.8892C18.4671 29.9479 16.3221 31.1908 13.7083 32.6682L8.96113 35.3415L4.4836 47.1138C2.02213 53.5862 0.00606486 59.0033 0.00606486 59.1558C-0.00565643 59.4958 0.486638 60 0.826555 60C0.967211 60 1.43606 59.8124 1.85803 59.5662C3.6045 58.6047 14.728 52.3316 15.0679 52.1323L15.4313 51.9095L22.593 55.9547C26.5431 58.1826 29.8719 60 30.0008 60C30.1298 60 33.4352 58.1943 37.3501 55.9899C41.2533 53.7856 44.5118 51.9916 44.5821 51.9916C44.6525 51.9916 47.8758 53.7738 51.7438 55.9665C55.6119 58.1474 58.9173 59.9531 59.0931 59.9765C59.4799 60.0352 60.0073 59.5544 59.9956 59.1558C59.9956 59.0033 57.9796 53.5862 55.5181 47.1138L51.0406 35.3415L46.2934 32.6564C43.6796 31.1908 41.5346 29.9361 41.5112 29.8892C41.4994 29.8306 42.1793 28.6815 43.0232 27.3331C45.133 24.0031 45.848 22.4436 46.3755 19.9813C46.6685 18.6212 46.6685 14.7283 46.3755 13.3682C45.9301 11.2811 45.0041 9.10015 43.8202 7.29444C42.9646 6.01638 40.6555 3.7182 39.3193 2.82707C37.4556 1.58418 35.463 0.751682 33.3414 0.306118C32.3099 0.0833359 29.1686 -0.0808182 28.2427 0.0364342ZM33.1656 2.06493C38.3581 3.24919 42.4957 6.97786 44.1719 11.9963C44.6759 13.4854 44.8869 14.8808 44.8869 16.6747C44.8869 19.1253 44.4415 21.1421 43.4334 23.1823C42.8943 24.2845 31.0792 43.1037 30.6104 43.6197C30.2822 43.9597 29.8367 44.03 29.5203 43.7838C29.2624 43.5845 17.166 24.39 16.6151 23.2996C15.6188 21.3414 15.1148 19.1136 15.1148 16.6747C15.1148 13.5558 15.9236 10.8824 17.6583 8.25592C18.4554 7.04821 20.4597 5.07835 21.7725 4.22239C23.5776 3.03813 25.9453 2.13528 28.0434 1.84214C29.1804 1.67799 32.0169 1.80696 33.1656 2.06493ZM17.8107 35.494C17.4239 37.3114 17.1074 38.8826 17.1074 38.9764C17.1074 39.2461 17.6583 39.7151 17.9748 39.7151C18.1389 39.7151 18.3968 39.5978 18.5609 39.4454C18.807 39.2226 18.9359 38.7771 19.522 35.9278C19.8971 34.1455 20.237 32.6799 20.2722 32.6799C20.3073 32.6799 22.0773 35.4353 24.1988 38.8005C27.6214 44.2294 28.102 44.9446 28.5591 45.2143L29.0514 45.5192L29.0631 51.5343V57.5494L28.6881 57.3501C28.3247 57.1625 16.4862 50.5024 16.451 50.4555C16.4393 50.4555 16.8261 48.5912 17.3067 46.3399C18.092 42.6464 18.1741 42.2009 18.0217 41.9429C17.7873 41.5208 17.3887 41.3567 16.9785 41.4974C16.791 41.5677 16.5917 41.7084 16.5331 41.8139C16.4745 41.9195 16.0525 43.7955 15.5837 45.9882C15.1265 48.1808 14.728 50.0569 14.6928 50.1624C14.646 50.3383 2.7254 57.1507 2.64336 57.0569C2.61991 57.0335 4.35466 52.4137 6.48794 46.7972L10.3677 36.5727L14.4115 34.2863C16.6386 33.0316 18.4671 32.0467 18.4905 32.0936C18.5023 32.1288 18.1975 33.6648 17.8107 35.494ZM45.8246 34.427L49.634 36.5727L53.5138 46.7855C55.647 52.4137 57.3818 57.0335 57.3583 57.0452C57.3466 57.0687 54.639 55.5678 51.3453 53.7152C46.9264 51.2294 45.3323 50.2797 45.2971 50.1038C45.0979 49.2947 41.4877 32.1757 41.4877 32.0702C41.4877 31.9998 41.5932 32.0115 41.7573 32.1171C41.898 32.2109 43.7265 33.2427 45.8246 34.427ZM41.6518 41.4387C42.6716 46.2696 43.5272 50.2679 43.5624 50.3266C43.5858 50.4204 31.6418 57.2797 31.0323 57.5142C30.9854 57.5377 30.9385 54.8526 30.9385 51.5343L30.9503 45.5192L31.4426 45.2143C31.8997 44.9446 32.3803 44.2294 35.8029 38.8005C37.9244 35.4353 39.6826 32.6799 39.7295 32.6799C39.7647 32.6799 40.6321 36.6196 41.6518 41.4387Z" fill="#E83A15"/>
<path d="M28.4529 7.11856C26.8237 7.4117 25.2413 8.12695 23.9519 9.15878C22.2055 10.5541 20.9044 12.6881 20.5176 14.787C20.3535 15.6898 20.3535 17.6597 20.5176 18.5625C20.7872 20.0282 21.6194 21.7167 22.7095 23.0299C23.7644 24.2845 25.8625 25.5743 27.6559 26.0668C28.828 26.3951 31.2895 26.3599 32.4968 26.0199C36.8102 24.7887 39.6116 21.1069 39.6116 16.6747C39.6116 12.266 36.7985 8.56079 32.5554 7.35307C31.5942 7.07166 29.3672 6.94268 28.4529 7.11856ZM32.2858 9.11188C34.2901 9.73332 36.1304 11.2811 37.0095 13.0985C37.6659 14.4235 37.8534 15.2442 37.8534 16.6747C37.8534 18.1052 37.6659 18.926 37.0095 20.251C36.6344 21.0366 36.3296 21.447 35.5795 22.1974C33.915 23.8507 32.2975 24.5307 30.0001 24.5307C27.7028 24.5307 26.0852 23.8507 24.4208 22.1974C22.8619 20.6379 22.1469 18.9026 22.1469 16.6747C22.1469 15.256 22.3461 14.4235 22.9791 13.122C23.7761 11.4804 25.4288 9.95611 27.0464 9.34639C28.7459 8.70149 30.68 8.60769 32.2858 9.11188Z" fill="#E83A15"/>
<path d="M28.5703 10.7065C26.5308 11.199 24.7492 12.8523 24.1397 14.8339C23.8232 15.854 23.8232 17.4955 24.1397 18.5156C24.7609 20.5207 26.5308 22.1622 28.6172 22.6547C31.6882 23.3817 34.935 21.529 35.861 18.5156C36.1775 17.4955 36.1775 15.854 35.861 14.8339C34.935 11.8087 31.653 9.95611 28.5703 10.7065ZM31.3014 12.5122C33.1768 13.0985 34.3372 14.6932 34.3372 16.6747C34.3372 18.6563 33.1768 20.251 31.3014 20.8373C30.3637 21.1304 29.637 21.1304 28.6993 20.8373C27.3513 20.4151 26.3902 19.5006 25.8862 18.1521C25.5345 17.2141 25.6049 15.6429 26.0503 14.787C26.6363 13.6261 27.5037 12.8875 28.6993 12.5005C29.5667 12.2191 30.3989 12.2308 31.3014 12.5122Z" fill="#E83A15"/>
</g>
<defs>
<clipPath id="clip0_523_1100">
<rect width="60" height="60" fill="white"/>
</clipPath>
</defs>
</svg>
