<svg width="70" height="70" viewBox="0 0 70 70" fill="none" xmlns="http://www.w3.org/2000/svg">
<path d="M49.5586 0.222622C48.8585 0.468889 48.0622 1.20769 47.6916 1.97385C47.4307 2.49374 47.417 2.8221 47.417 7.92528C47.417 13.2063 47.417 13.3431 47.719 13.8767C47.8838 14.1777 48.2132 14.6155 48.4741 14.8618C49.2566 15.6142 49.8194 15.7647 51.9199 15.8332L53.8144 15.8879L53.7457 16.2573C53.4986 17.4476 52.6887 22.3318 52.7298 22.4276C52.7573 22.496 55.1872 21.0458 58.125 19.1988L63.4791 15.8605H65.0853C65.9639 15.8605 67.0072 15.7921 67.3916 15.71C68.3389 15.5048 69.1626 14.8618 69.6156 13.9588L70 13.2063V7.87055C70 2.97259 69.9726 2.48006 69.7392 1.97385C69.4234 1.27609 68.3938 0.359438 67.6937 0.154215C67.3093 0.0310822 64.797 -0.00996208 58.6605 0.00371933C51.3707 0.00371933 50.0803 0.0447636 49.5586 0.222622ZM67.4603 2.65792L67.8035 2.98627V7.78846C67.8035 12.6864 67.776 12.9737 67.2681 13.3568C67.1171 13.4663 66.3895 13.521 65.0029 13.5347H62.9437L59.4018 15.7374C57.4524 16.955 55.8324 17.9264 55.805 17.899C55.7775 17.8717 55.9285 16.8729 56.1344 15.6827L56.5051 13.5347H53.43H50.3548L50.0254 13.1926L49.6822 12.8643V7.91159C49.6822 2.99996 49.6822 2.94523 49.9842 2.63056L50.2725 2.31588H58.7016H67.1308L67.4603 2.65792Z" fill="white"/>
<path d="M51.9061 5.62684L51.9473 6.7624L58.7154 6.80345L65.4697 6.83081V5.66789V4.50496H58.6742H51.865L51.9061 5.62684Z" fill="white"/>
<path d="M51.9061 10.1417L51.9473 11.2773L56.4502 11.3183L60.9394 11.3457V10.1828V9.01986H56.409H51.865L51.9061 10.1417Z" fill="white"/>
<path d="M63.2732 10.1828V11.3457H64.3714H65.4697V10.1828V9.01986H64.3714H63.2732V10.1828Z" fill="white"/>
<path d="M31.904 3.4925C30.49 3.643 27.8405 4.14921 26.5226 4.51861C21.1548 6.02357 16.4597 8.74618 12.5472 12.6454C8.64834 16.5172 5.95759 21.0321 4.46121 26.2037L4.00818 27.8044L3.00601 26.1353C2.45688 25.2186 1.94894 24.4388 1.8803 24.3978C1.79793 24.343 0.397641 25.0818 -0.000478799 25.3828C-0.0416636 25.4239 3.06093 30.6775 3.81598 31.8541C3.91208 31.991 4.65341 31.6079 7.20687 30.0892C9.019 29.0084 10.5017 28.1191 10.5291 28.1054C10.5566 28.0781 9.56813 26.3679 9.40339 26.1627C9.40339 26.149 8.74444 26.5321 7.94819 27.0109C7.15195 27.5034 6.46554 27.9002 6.41063 27.9002C6.27334 27.9002 6.82248 26.0532 7.4677 24.3978C10.9135 15.5322 18.3817 8.9514 27.662 6.55715C32.2472 5.38054 37.5326 5.36686 42.1728 6.55715L43.6417 6.92654L43.9712 5.88675C44.2183 5.12059 44.2595 4.8196 44.1359 4.7512C43.8476 4.58702 41.7609 4.09449 40.1136 3.80717C38.8643 3.58827 37.8072 3.50618 35.4734 3.47882C33.8123 3.45146 32.2061 3.46514 31.904 3.4925Z" fill="white"/>
<path d="M32.7277 11.4414C29.9134 11.8792 27.003 13.2884 24.8752 15.2312C22.9807 16.9687 21.347 19.705 20.6194 22.3866L20.2487 23.7273L20.235 29.3367V34.9461L20.5919 35.6986C21.1136 36.8068 21.7177 37.4225 22.8022 37.9424L23.7769 38.4075L24.1476 39.5841C24.3672 40.2409 24.8065 41.2396 25.136 41.8142C25.795 42.9908 27.5247 44.8378 28.5681 45.4808C29.0348 45.7682 29.227 45.9871 29.227 46.1923C29.227 46.5343 29.5565 46.4522 24.3947 47.3963C22.5413 47.7246 20.6743 48.135 20.2625 48.2855C18.0659 49.1064 16.3911 50.844 15.5537 53.1835C15.3477 53.7718 15.1418 54.278 15.0869 54.3327C15.0457 54.4012 14.0985 53.5255 12.9865 52.4173C10.2545 49.6674 10.2408 50.0641 13.3297 46.9584L15.7047 44.5916L11.5175 40.4187L7.33042 36.2322L4.29647 39.2832C1.74301 41.8553 1.19388 42.4709 0.836941 43.2234C0.164255 44.6189 -0.0553974 45.6587 0.013244 47.2458C0.0818853 48.7781 0.370179 49.7631 1.11151 50.9671C1.3998 51.446 4.51612 54.6474 10.131 60.2294C18.162 68.192 18.7935 68.7803 19.6721 69.2045C22.1432 70.3674 25.1497 70.2443 27.3051 68.8898C27.6757 68.6572 29.4055 67.1659 31.1353 65.5926L34.2928 62.7195L33.4416 61.8712L32.6042 61.0093H44.7125C51.3707 61.0093 56.8209 60.9682 56.8209 60.8998C56.8209 60.5441 54.0203 52.5268 53.6496 51.8154C53.0593 50.7208 51.6453 49.3117 50.5745 48.737C49.435 48.1487 48.7486 47.9709 44.8086 47.2594C40.2508 46.4385 40.6215 46.5343 40.6352 46.1923C40.6352 45.9871 40.951 45.6587 41.6786 45.1388C42.2552 44.7284 42.9828 44.0717 43.326 43.6886L43.93 42.9771L45.5362 42.9224C46.8267 42.8814 47.2523 42.813 47.6916 42.5804C48.3917 42.211 48.9408 41.6637 49.3252 40.966C49.6135 40.4187 49.6135 40.3503 49.6135 32.3467C49.6135 25.0955 49.5861 24.1652 49.3664 23.139C48.1446 17.4886 44.1222 13.2474 38.5622 11.7424C37.7797 11.5235 37.011 11.4551 35.3361 11.414C34.128 11.3867 32.9611 11.4004 32.7277 11.4414ZM36.956 13.7399C41.4452 14.5197 45.2205 17.6938 46.6757 21.9214C47.2248 23.5221 47.3483 24.4935 47.3483 27.3803V29.925L46.7992 29.7198C46.2638 29.5009 46.2501 29.4872 46.2501 28.8305V28.1738H44.9459C41.6099 28.1738 38.4662 26.8194 35.9676 24.2883L34.9517 23.2622L33.7436 24.3977C31.0254 26.9835 28.2386 28.1738 24.9026 28.1738H23.5984V28.8305C23.5984 29.4872 23.5847 29.5009 23.0356 29.7198L22.4727 29.9387L22.5413 26.7646C22.61 23.2211 22.6924 22.7696 23.6122 20.8132C25.2595 17.2834 28.4857 14.6702 32.1237 13.8904C34.0868 13.4799 35.2537 13.4389 36.956 13.7399ZM35.8852 27.2572C37.6699 28.7211 40.2508 29.884 42.4748 30.226C43.0789 30.3218 43.6554 30.4176 43.7515 30.4449C43.8751 30.486 43.9163 31.2932 43.9163 33.9474C43.9163 37.6687 43.8202 38.3665 43.1749 39.8304L42.818 40.6239L38.878 40.6513L34.9243 40.6923V41.7869V42.8814L37.8758 42.9498L40.8274 43.0182L40.1822 43.4697C39.2075 44.1401 37.9445 44.701 36.805 44.9473C35.4459 45.2483 33.3455 45.1525 32.11 44.7421C29.3231 43.798 27.1952 41.6227 26.248 38.7769C25.9048 37.7371 25.891 37.5182 25.8224 34.1389C25.7538 30.2671 25.74 30.3629 26.5637 30.3629C27.2227 30.3629 29.4741 29.7609 30.5998 29.2683C31.6569 28.8305 34.0456 27.3256 34.4987 26.8194C34.6497 26.6552 34.8144 26.532 34.8831 26.532C34.9517 26.532 35.391 26.8604 35.8852 27.2572ZM23.5984 33.9474V35.8765L23.2415 35.5481C23.0493 35.3703 22.8022 35.0556 22.6924 34.8504C22.459 34.4126 22.4453 33.3317 22.6512 32.9213C22.8571 32.5382 23.3376 32.0046 23.4886 32.0046C23.5435 32.0046 23.5984 32.8802 23.5984 33.9474ZM47.1012 32.8392C47.5817 33.7285 47.3758 34.8367 46.607 35.5481L46.2501 35.8765V33.9337V31.9773L46.5521 32.1688C46.7168 32.2783 46.964 32.5792 47.1012 32.8392ZM47.3483 38.9138C47.3483 39.8304 47.3072 39.9946 47.0051 40.2819C46.7443 40.5555 46.5384 40.6239 46.003 40.6239H45.3303L45.646 39.6936C45.8245 39.1874 45.9755 38.6812 45.9755 38.5717C45.9755 38.3939 46.7718 37.9834 47.2523 37.9013C47.3072 37.9013 47.3483 38.3528 47.3483 38.9138ZM11.9294 45.2072L11.3116 45.8229L8.70324 43.2234L6.1086 40.6239L6.71264 40.0083L7.33042 39.3926L9.93879 41.9921L12.5472 44.5916L11.9294 45.2072ZM9.2661 47.9435C8.55223 48.9696 8.46986 50.3104 9.03272 51.3912C9.44457 52.1848 18.1895 60.8041 18.8622 61.0914C19.9192 61.5292 21.5529 61.2829 22.2942 60.5988C22.5825 60.3389 22.5825 60.3389 25.1772 62.9384L27.7856 65.5378L27.0717 66.2082C26.6736 66.5776 25.9871 67.0428 25.5616 67.2617C24.8202 67.6174 24.6418 67.6448 23.1866 67.6448C20.6057 67.6448 21.3333 68.2194 11.5587 58.4919C2.40196 49.3801 2.64907 49.6674 2.29214 47.7383C1.99012 46.1239 2.55298 44.3179 3.78852 42.9498L4.42002 42.2383L7.01467 44.8378L9.62304 47.4236L9.2661 47.9435ZM34.9929 47.3689C36.1049 47.3689 36.9698 47.2868 37.464 47.15C37.8758 47.0405 38.2328 46.9584 38.2465 46.9721C38.2602 46.9858 37.5189 47.752 36.5991 48.6686L34.9243 50.3378L33.222 48.6413L31.5196 46.9448L32.3983 47.1637C32.9748 47.3005 33.8535 47.3826 34.9929 47.3689ZM32.412 51.1176L34.8556 53.5529L37.313 51.1039L39.7703 48.6549L44.081 49.4348C47.5543 50.0641 48.5427 50.283 49.2154 50.6114C50.1489 51.0629 51.0001 51.8154 51.5355 52.6636C51.8375 53.1288 53.6634 58.2183 53.6634 58.574C53.6634 58.6287 48.3917 58.6834 41.9531 58.6834H30.2566L28.1288 56.5628C26.9619 55.3999 25.946 54.4422 25.891 54.4422C25.8224 54.4422 24.8889 55.2357 23.8181 56.1934C20.7155 59.0118 20.6057 59.0939 20.1389 59.0939C19.782 59.0939 19.4799 58.8613 18.313 57.7121L16.899 56.3302L17.4344 54.7569C18.0385 52.9646 18.5739 52.0479 19.3976 51.3639C20.4684 50.5019 21.2509 50.2557 25.4517 49.4621C27.6483 49.0654 29.5565 48.7234 29.7075 48.7097C29.886 48.696 30.8058 49.5169 32.412 51.1176ZM30.2978 63.2941L29.5702 64.0192L26.9619 61.4197L24.3535 58.8066L25.0948 58.1225L25.8361 57.4247L28.4171 59.9969L31.0117 62.5827L30.2978 63.2941Z" fill="white"/>
<path d="M62.6691 21.3604C62.5593 21.5382 61.667 23.0158 60.6785 24.6576L58.8938 27.6265L59.4704 27.9822C59.7862 28.1737 60.1843 28.42 60.349 28.5294C60.5138 28.6389 60.706 28.721 60.7609 28.721C60.8295 28.721 61.2963 28.0095 61.818 27.1339C62.4495 26.0941 62.8064 25.6153 62.875 25.7384C62.93 25.8342 63.1359 26.5046 63.3281 27.216C65.6619 35.7806 63.987 44.9882 58.8115 52.1847C58.3722 52.7866 58.0015 53.3476 57.9603 53.4297C57.9054 53.5665 59.3606 54.8525 59.5803 54.8525C59.745 54.8525 61.2688 52.6772 62.2024 51.1175C65.1402 46.1922 66.5954 40.8427 66.6091 35.0144C66.6091 31.8677 66.1561 28.6936 65.3324 25.9984C65.1814 25.5058 65.0853 25.0954 65.099 25.068C65.1402 25.0407 66.3346 25.7384 67.8996 26.6824L68.3389 26.9561L68.9155 25.9847C69.2312 25.4511 69.4646 24.9996 69.4372 24.9723C69.3685 24.9039 63.4928 21.3877 63.1359 21.1962C62.9162 21.0867 62.8339 21.1141 62.6691 21.3604Z" fill="white"/>
</svg>
