<svg width="57" height="57" viewBox="0 0 57 57" fill="none" xmlns="http://www.w3.org/2000/svg">
<path d="M17.6172 0.155929C15.6585 0.750729 14.1672 2.30449 13.5551 4.33167C13.3548 5.03572 13.3214 5.50913 13.2658 8.25249L13.2212 11.36L8.97 11.4086C4.98584 11.4571 4.68536 11.4814 3.99537 11.7242C2.582 12.234 1.27991 13.4357 0.645564 14.8074C-0.0221709 16.2398 8.69447e-05 15.8392 8.69447e-05 28.4878C8.69447e-05 41.2821 -0.0221709 40.8815 0.701209 42.3867C1.14637 43.2971 2.19248 44.4382 3.0049 44.8873C4.20682 45.5428 4.68536 45.6156 8.16872 45.6156H11.3516V50.7989C11.3516 55.5087 11.3738 56.0307 11.5519 56.4192C11.7856 56.9411 12.1974 57.1232 12.6537 56.9168C12.854 56.8319 14.8238 54.5619 17.6283 51.1995L22.2691 45.6278L30.638 45.5792C38.6286 45.5428 39.0292 45.5307 39.6191 45.3C41.5889 44.5232 42.9243 43.0665 43.4474 41.1C43.5476 40.7237 43.6255 40.226 43.6255 39.9954C43.6255 39.7526 43.67 39.5341 43.7145 39.4977C43.7701 39.4613 44.8274 40.6752 46.085 42.1804C47.3314 43.6856 48.5222 45.0694 48.7225 45.2636C49.1788 45.7128 49.6573 45.7249 50.0246 45.3122L50.3028 45.0208V39.6069V34.2052H51.2265C53.9308 34.2052 56.2011 32.263 56.8132 29.4468C57.0692 28.2693 57.0581 5.87329 56.8021 4.79294C56.3013 2.66866 54.9325 1.06634 53.0294 0.362289L52.2504 0.0830967L35.2231 0.0224028C20.3994 -0.0261523 18.118 -0.00187472 17.6172 0.155929ZM52.5397 2.34091C53.6971 2.77791 54.721 4.05248 54.977 5.36346C55.0549 5.78832 55.0883 9.68487 55.066 17.5144L55.0326 29.0462L54.7433 29.726C54.3649 30.6 53.6749 31.3526 52.8736 31.7532C52.3172 32.0445 52.0834 32.0809 50.6144 32.1416C48.2551 32.2266 48.4777 31.6925 48.4109 37.2884L48.3553 41.8283L46.0738 39.085L43.7924 36.3416L43.7368 26.3878C43.67 16.6525 43.67 16.4097 43.4363 15.7543C43.3139 15.378 43.0913 14.8317 42.9577 14.5404C42.6016 13.7878 41.3552 12.4768 40.6207 12.0883C39.2629 11.36 39.7526 11.3843 26.9655 11.3843H15.2467V8.3496C15.2467 5.60624 15.269 5.26635 15.4693 4.65942C15.8811 3.46982 16.9049 2.49871 18.1068 2.15883C18.3739 2.08599 24.6618 2.06172 35.2899 2.09813C49.8799 2.14669 52.1057 2.18311 52.5397 2.34091ZM39.007 13.6178C40.1421 13.9456 41.0992 14.8681 41.4998 16.0456C41.7335 16.7375 41.7335 16.7496 41.7113 28.6578L41.6779 40.5781L41.3997 41.1729C41.0324 41.9619 40.4203 42.6174 39.7081 43.0179C39.185 43.3214 38.9513 43.3578 37.5046 43.4428C36.6142 43.4914 32.6857 43.5399 28.7572 43.5399L21.6236 43.5521L21.2786 43.8191C21.0894 43.9769 19.2197 46.174 17.1164 48.6989L13.2991 53.3116L13.2435 48.6382C13.2101 46.0769 13.1656 43.9648 13.1545 43.9526C12.8763 43.6492 12.3977 43.6127 8.68065 43.5521L4.72988 43.4914L4.09553 43.1636C3.31651 42.7752 2.61538 41.9983 2.237 41.1243L1.94765 40.4567V28.5607V16.6647L2.237 15.9849C2.63764 15.0623 3.2386 14.3704 3.98424 13.9699C4.59633 13.6421 4.68536 13.63 6.90002 13.5693C8.15759 13.5207 15.7698 13.4843 23.816 13.4722C35.7573 13.46 38.5507 13.4843 39.007 13.6178Z" fill="white"/>
<path d="M9.17019 21.8237C8.5581 22.0907 8.39117 22.9768 8.84745 23.4624L9.11455 23.7659H15.6584C20.8556 23.7537 22.2467 23.7295 22.3914 23.5959C22.7141 23.341 22.8476 22.8069 22.6918 22.4063C22.4247 21.6901 22.5138 21.7023 15.6695 21.7144C12.2195 21.7144 9.29261 21.763 9.17019 21.8237Z" fill="white"/>
<path d="M9.27046 27.9779C8.93659 28.0508 8.56934 28.5727 8.56934 28.9976C8.56934 29.1797 8.69175 29.4953 8.83643 29.6773L9.10352 30.0172L21.5345 30.0537C30.1706 30.0779 34.0991 30.0415 34.3996 29.9565C34.7557 29.8473 34.8892 29.738 35.0117 29.3982C35.1452 29.0461 35.1452 28.9247 35.0117 28.5727C34.8892 28.245 34.7557 28.1236 34.4218 28.0265C34.0101 27.8929 9.84916 27.8565 9.27046 27.9779Z" fill="white"/>
<path d="M8.8476 34.5086C8.49148 34.8849 8.49148 35.419 8.83647 35.8681L9.10357 36.208L21.5568 36.2444C30.4377 36.2687 34.1214 36.2444 34.4219 36.1473C34.7446 36.0381 34.8893 35.9167 35.0117 35.6011C35.1786 35.1398 35.1341 34.8849 34.8002 34.4722L34.5777 34.2051H21.8462H9.1147L8.8476 34.5086Z" fill="white"/>
</svg>
