<svg width="32" height="40" viewBox="0 0 32 40" fill="none" xmlns="http://www.w3.org/2000/svg">
<path d="M3.69736 0.10524C2.988 0.324017 2.40616 0.855328 2.05547 1.60542C1.88012 1.98046 1.87215 2.06641 1.84824 4.77766L1.81636 7.55923L1.52943 7.61392C0.851954 7.73894 0.270121 8.22337 0.0868035 8.81719C-0.0247808 9.18442 -0.0327512 12.0363 0.0788332 12.4114C0.26215 13.0521 1.00339 13.6693 1.58522 13.6693H1.8323V16.9041V20.1388L1.5374 20.1935C0.859924 20.3185 0.365765 20.717 0.118685 21.3499C0.00710041 21.639 -0.00884022 21.9437 0.0150707 23.3657C0.0389817 25.0378 0.0389817 25.0378 0.26215 25.4129C0.5172 25.8348 1.15483 26.2489 1.56928 26.2489H1.81636L1.84824 29.0383C1.88809 32.3355 1.88809 32.3277 2.66121 33.0934C3.35463 33.7654 3.58577 33.8357 5.44285 33.8826L6.9333 33.9295V34.367C6.9333 35.0155 7.05286 35.3359 7.41152 35.6562L7.73033 35.9375V37.594C7.73033 39.9614 7.76222 40.0005 9.699 40.0005C10.7431 40.0005 10.9105 39.9849 11.1416 39.8442C11.588 39.5786 11.6358 39.3442 11.6358 37.5471V35.9531L11.9466 35.6484C12.2894 35.3124 12.4328 34.9296 12.4328 34.3123V33.906H13.3016H14.1624L14.2102 34.4842C14.258 35.1327 14.3855 35.4375 14.7442 35.7266L14.9833 35.9297L14.9913 37.5158C14.9913 39.938 15.0072 39.9458 16.8563 39.9849C18.2272 40.0161 18.4504 39.9536 18.7294 39.5082C18.8728 39.2817 18.8888 39.1098 18.8888 37.5783V35.8906L19.1199 35.7578C19.4706 35.5547 19.6858 35.0546 19.6858 34.4295V33.906H20.6024H21.519V34.4608C21.519 35.1171 21.6624 35.4687 22.045 35.7578L22.316 35.9531V37.633C22.316 39.0785 22.3319 39.3442 22.4515 39.5395C22.6986 39.9458 22.9775 40.0161 24.3564 39.9849L25.5998 39.9614L25.8708 39.6723L26.1418 39.3754V37.6643V35.9453L26.3809 35.7812C26.7634 35.5156 26.9388 35.0937 26.9388 34.453V33.906H28.1184C29.5291 33.906 30.1907 33.8123 30.7087 33.531C31.1631 33.2888 31.4819 32.9528 31.7847 32.398L31.9999 31.9917V16.9509V1.91014L31.8246 1.54291C31.5855 1.02722 31.0594 0.503723 30.5334 0.253696L30.0871 0.0349197L20.3633 0.0114784C15.0152 0.00366592 10.5598 0.0114784 10.4562 0.0349197C10.0577 0.128681 9.98593 0.894394 10.3605 1.08973C10.4562 1.13661 14.003 1.16787 20.1242 1.16787C29.5291 1.16787 29.7443 1.16787 30.0392 1.32413C30.4138 1.50384 30.653 1.79294 30.7645 2.17579C30.8283 2.37113 30.8442 7.09824 30.8283 17.115L30.8044 31.7652L30.5892 32.0855C30.4776 32.2574 30.2465 32.4606 30.0711 32.5465C29.7762 32.6871 29.4016 32.695 16.936 32.695C4.96464 32.695 4.0879 32.6871 3.85676 32.5621C3.54592 32.398 3.2032 32.0074 3.12349 31.7339C3.09161 31.6167 3.0677 30.3431 3.0677 28.9055V26.288L3.80097 26.2645L4.53424 26.2411L4.55815 28.1085L4.58206 29.9759L4.82117 30.3587C4.97261 30.5931 5.21172 30.8276 5.45082 30.976L5.84137 31.2104L8.06509 31.2338L10.2808 31.2573L10.4801 31.062C10.7351 30.8119 10.7431 30.4759 10.496 30.2494C10.3127 30.0853 10.2569 30.0775 8.3042 30.0775C6.18409 30.0775 5.98484 30.0462 5.82543 29.7102C5.76167 29.5774 5.73776 25.9832 5.73776 16.8806V4.23853L5.90513 4.02757L6.06454 3.82442H16.9281H27.7916L27.959 4.00413L28.1343 4.18384V16.9431V29.6946L27.9351 29.8821L27.7438 30.0775H20.1003H12.4567L12.2894 30.2572C12.0742 30.4838 12.0662 30.7807 12.2654 31.0229L12.4169 31.2104H20.2198H28.0148L28.3336 31.0385C28.7401 30.8276 29.0509 30.5072 29.2024 30.14C29.3139 29.8821 29.3299 28.4288 29.3299 16.9197V3.99632L29.1067 3.58221C28.9473 3.27748 28.7799 3.09777 28.493 2.92588L28.1104 2.69148L17.0636 2.66804C4.63785 2.6446 5.61023 2.59772 5.0284 3.24623C4.85305 3.44938 4.68567 3.73848 4.62988 3.94162C4.58206 4.13696 4.54221 4.9808 4.54221 5.92623V7.57486H3.78503H3.01988L3.04379 4.89486C3.0677 1.87107 3.08364 1.80856 3.68939 1.41789L4.0082 1.20693L6.18409 1.16787C8.11291 1.13661 8.37593 1.11317 8.50346 0.995968C8.71068 0.79282 8.6788 0.324017 8.45563 0.14431C8.28826 0.00366592 8.10494 -0.00414658 6.14424 0.00366592C4.65379 0.00366592 3.92849 0.0349197 3.69736 0.10524ZM4.54221 10.6221V12.4973H3.03582H1.52146L1.36205 12.2942C1.20265 12.0988 1.19468 11.9816 1.19468 10.6065C1.19468 8.62185 1.06715 8.74687 3.0677 8.74687H4.54221V10.6221ZM4.54221 16.9119V20.1544H3.78503H3.02785V16.9666C3.02785 15.2086 3.05176 13.7474 3.08364 13.724C3.10755 13.6928 3.45028 13.6693 3.84082 13.6693H4.54221V16.9119ZM4.54221 23.2017V25.0769H3.03582H1.52146L1.36205 24.8737C1.20265 24.6784 1.19468 24.5612 1.19468 23.186C1.19468 21.2014 1.06715 21.3265 3.0677 21.3265H4.54221V23.2017ZM11.2213 34.3514L11.1974 34.8046H9.68306H8.1687L8.14479 34.3514L8.12088 33.906H9.68306H11.2452L11.2213 34.3514ZM18.4743 34.3514L18.4504 34.8046L16.9839 34.828C15.8601 34.8436 15.5014 34.8202 15.4456 34.7499C15.4137 34.6952 15.3818 34.4842 15.3818 34.2733V33.906H16.936H18.4982L18.4743 34.3514ZM25.7432 34.3748V34.8436H24.2289H22.7145V34.3748V33.906H24.2289H25.7432V34.3748ZM10.4243 37.4377L10.4402 38.8285H9.68306H8.92588V37.4221V36.0078L9.66712 36.0313L10.4004 36.0547L10.4243 37.4377ZM17.6932 37.4221V38.8285H16.936H16.1789V37.4768C16.1789 36.7267 16.2028 36.0938 16.2347 36.0703C16.2586 36.0391 16.6013 36.0157 16.9918 36.0157H17.6932V37.4221ZM24.9462 37.4221V38.8285H24.2289H23.5116V37.4221V36.0157H24.2289H24.9462V37.4221Z" fill="#0052DA"/>
<path d="M16.378 6.27787C16.2505 6.33256 16.0592 6.46539 15.9716 6.56697C15.6607 6.90294 9.57139 16.6384 9.47575 16.9354C9.3004 17.5135 9.63515 18.1777 10.2329 18.4433C10.5438 18.584 10.9024 18.5918 16.8961 18.5918C20.8175 18.5918 23.3441 18.5605 23.5115 18.5137C24.2288 18.3183 24.6512 17.451 24.3563 16.7713C24.1969 16.3884 20.7298 10.9112 20.5784 10.794C20.3871 10.6534 20.0284 10.6768 19.8451 10.8565C19.5104 11.1847 19.5821 11.3488 21.487 14.3569C22.4753 15.9196 23.2644 17.2557 23.2405 17.3104C23.1767 17.4667 10.7191 17.4745 10.6554 17.3182C10.5916 17.1619 16.7925 7.37956 16.9519 7.37956C17.0316 7.37956 17.3265 7.76242 17.7489 8.43437C18.1156 9.01256 18.4742 9.53606 18.546 9.58294C18.7452 9.7314 19.0003 9.70796 19.2394 9.52043C19.5821 9.25478 19.5183 9.01256 18.801 7.86399C18.0996 6.75449 17.8525 6.44977 17.5178 6.27787C17.2468 6.14504 16.6968 6.14504 16.378 6.27787Z" fill="#E83A15"/>
<path d="M16.633 10.8723C16.37 11.1067 15.6766 12.7632 15.6686 13.1539C15.6606 13.568 15.9715 13.8258 16.4656 13.8258C16.6569 13.8258 16.8163 13.8571 16.8163 13.8883C16.8163 13.9196 16.7127 14.193 16.5772 14.49C16.2983 15.1307 16.2823 15.4119 16.4975 15.6229C16.6968 15.8182 17.1431 15.826 17.3185 15.6385C17.5018 15.4354 18.251 13.6383 18.251 13.3961C18.251 13.2789 18.2111 13.1226 18.1633 13.0288C18.0597 12.8413 17.6293 12.6538 17.3025 12.6538H17.0714L17.3424 11.9975C17.6452 11.2786 17.6452 11.0208 17.3503 10.8177C17.1112 10.6536 16.8562 10.6692 16.633 10.8723Z" fill="#0052DA"/>
<path d="M9.57165 21.6859C9.35645 21.9594 9.36442 22.1313 9.59556 22.3969L9.78685 22.6157L16.7131 22.6392C20.5149 22.647 23.7508 22.6392 23.8943 22.6157C24.4283 22.522 24.6435 22.0063 24.3088 21.6547L24.1414 21.4828H16.9362H9.73106L9.57165 21.6859Z" fill="#E83A15"/>
<path d="M9.82674 25.1551C9.42026 25.3192 9.32461 25.7724 9.62748 26.1084C9.73907 26.2412 10.1934 26.249 16.9363 26.249H24.1255L24.2929 26.0693C24.5798 25.7724 24.516 25.3817 24.1414 25.1942C23.9501 25.0926 22.914 25.077 16.9602 25.0848C13.1344 25.0848 9.92239 25.1161 9.82674 25.1551Z" fill="#E83A15"/>
</svg>
