<svg width="41" height="42" viewBox="0 0 41 42" fill="none" xmlns="http://www.w3.org/2000/svg">
<path d="M5.48271 1.1466C5.25622 1.2251 4.936 1.39779 4.7798 1.52339C4.12375 2.04934 4.15499 1.96299 2.0072 9.52243C0.866925 13.5416 0 16.7208 0 16.9013C0 17.3566 0.195253 17.9532 0.460798 18.3222C0.913785 18.958 1.17933 19.0679 4.11594 19.9157C5.60767 20.3474 7.06817 20.7713 7.36495 20.8577L7.88823 21.0225V24.4294C7.88823 26.6352 7.91947 27.9147 7.97414 28.056C8.0913 28.3857 8.50523 28.7782 8.82545 28.8646C8.98165 28.9117 10.5281 28.9431 12.5587 28.9431C15.4328 28.9431 16.0108 28.9588 16.0108 29.053C16.0108 29.1079 15.9249 29.5004 15.8233 29.9086C15.5968 30.7956 15.1751 31.6356 14.5268 32.5148C13.7224 33.6059 13.2538 34.6578 12.9882 35.9844C12.7383 37.2875 12.8555 39.8936 13.2147 40.6786C13.4022 41.1025 13.9801 41.1104 14.2535 40.6943C14.3628 40.5216 14.3628 40.451 14.2379 39.8858C14.1285 39.4148 14.0973 38.9281 14.1051 37.8527C14.1051 36.5888 14.1285 36.3612 14.3082 35.6861C14.5659 34.7441 14.9173 34.0376 15.5812 33.1427C16.4481 31.9731 16.8621 30.9997 17.151 29.4533C17.3541 28.3622 17.3463 25.0024 17.1276 22.8594C16.9636 21.2109 16.987 20.842 17.2994 20.371C17.7212 19.7273 18.635 19.3034 19.4004 19.3976C20.2204 19.4918 21.0561 20.1198 21.2592 20.787C21.3217 21.0068 21.3217 21.6348 21.2514 23.1891C21.0405 27.8676 21.5716 31.196 22.8134 33.0642C23.4851 34.069 24.1645 34.4301 24.5316 33.9748C24.7894 33.6608 24.7269 33.3861 24.3051 32.9622C23.8521 32.5069 23.5241 31.9417 23.2351 31.141C23.0086 30.4816 22.7275 29.3905 22.7275 29.1158V28.9431H26.5935H30.4595V29.9164C30.4595 31.5021 30.069 33.3547 29.3505 35.1994C28.9209 36.2905 27.9603 38.253 27.3433 39.3049C26.7653 40.2783 26.7185 40.451 26.945 40.7414C27.0777 40.9063 27.1793 40.9534 27.4136 40.9534C27.7963 40.9534 27.8822 40.8435 28.7647 39.25C30.686 35.7646 31.631 32.7267 31.631 29.9792V28.9431H35.169C37.3559 28.9431 38.8085 28.9117 38.9882 28.8646C39.3631 28.7547 39.7458 28.4328 39.8785 28.1031C40.0425 27.7263 40.0425 12.419 39.8785 12.0422C39.7536 11.7361 39.4021 11.3986 39.1053 11.2887C38.9569 11.2337 37.3793 11.2023 34.4036 11.2023H29.9284L30.0924 10.6685C30.4986 9.35758 30.1002 8.133 29.0771 7.56781C28.5538 7.28521 6.69328 0.997448 6.23248 0.997448C6.04504 1.0053 5.70921 1.0681 5.48271 1.1466ZM14.6206 4.577C19.0567 5.84868 23.9693 7.26166 25.5235 7.71695C27.2105 8.20365 28.4601 8.60399 28.6007 8.69819C28.8741 8.89444 29.0537 9.27908 29.0537 9.64803C29.0537 9.97772 28.6632 11.3593 28.5695 11.3593C28.4992 11.3593 4.74075 4.5299 4.70951 4.4985C4.66265 4.45925 5.15469 2.92852 5.26403 2.75583C5.45928 2.45753 5.84979 2.25343 6.22467 2.25343C6.42774 2.25343 9.75485 3.17187 14.6206 4.577ZM14.0426 8.46269C26.6638 12.0893 28.2258 12.5368 28.2571 12.576C28.2805 12.5996 28.1321 13.1334 27.4839 15.3706L27.3355 15.8887L15.4328 12.4583C8.88012 10.5822 3.49894 9.02004 3.47551 8.98864C3.43646 8.94939 4.25652 5.92718 4.35024 5.76233C4.36586 5.73093 4.40491 5.70738 4.42053 5.70738C4.44396 5.70738 8.77859 6.94767 14.0426 8.46269ZM15.1126 13.6358C21.6028 15.4962 26.9293 17.0505 26.9606 17.074C27.0465 17.1682 25.1174 23.7386 24.9456 23.927C24.7191 24.1782 24.4145 24.3116 24.0552 24.3116C23.735 24.3116 22.5947 24.029 22.4697 23.9191C22.4307 23.8877 22.4463 23.2597 22.4932 22.5218C22.5713 21.3444 22.5635 21.1167 22.4541 20.685C21.9387 18.6518 19.6269 17.6078 17.6899 18.5341C16.5184 19.0914 15.8702 20.0491 15.7921 21.3208L15.753 22.0116L8.83326 20.0177C5.02972 18.9266 1.82757 17.9611 1.71823 17.8826C1.43706 17.6785 1.22619 17.2781 1.22619 16.9484C1.22619 16.7836 1.64794 15.1979 2.1556 13.416C2.89756 10.8177 3.10062 10.1897 3.20215 10.2211C3.26463 10.2368 8.63019 11.7753 15.1126 13.6358ZM34.677 12.788C34.9738 13.9341 35.2627 14.4679 36.0438 15.2528C36.7389 15.9593 37.4808 16.3911 38.2775 16.5559L38.7382 16.6501L38.7226 20.057L38.6992 23.4717L38.2696 23.5737C36.731 23.9662 35.3174 25.285 34.841 26.7843C34.7551 27.0434 34.6692 27.3495 34.6457 27.4673L34.5989 27.6871H28.5538H22.5166L22.4697 27.0355C22.4385 26.6823 22.4151 26.1171 22.4151 25.7874V25.183L22.79 25.3007C23.9381 25.6696 24.6722 25.6147 25.3985 25.1123C26.1249 24.5942 26.1327 24.5785 27.9212 18.2908C28.8116 15.1508 29.5535 12.5525 29.577 12.5132C29.5926 12.4818 30.7329 12.4583 32.0996 12.4583H34.5911L34.677 12.788ZM38.7773 13.9498V15.402L38.582 15.3784C38.1447 15.3235 37.2856 14.8211 36.8404 14.3501C36.4186 13.9027 36.0047 13.1883 35.8797 12.6702L35.8329 12.4583L37.3012 12.474L38.7773 12.4975V13.9498ZM12.6056 22.357C15.7999 23.2754 15.917 23.3225 15.9639 23.5188C16.042 23.8956 16.1904 27.2789 16.1357 27.483L16.0889 27.6871L14.7143 27.6714L13.3397 27.6478L13.1913 27.0748C12.9726 26.2113 12.6212 25.6147 11.9104 24.8925C11.4106 24.3744 11.1607 24.1939 10.6218 23.9348C10.2547 23.7621 9.75485 23.5737 9.51274 23.5266L9.05975 23.4403V22.4198C9.05975 21.5642 9.07537 21.4072 9.1769 21.4072C9.24719 21.4072 10.7858 21.8389 12.6056 22.357ZM10.0594 25.0181C10.7545 25.3478 11.4262 26.015 11.7542 26.7058C11.8948 27.0041 12.0354 27.3495 12.0588 27.4751L12.1057 27.6871L10.6062 27.6714L9.0988 27.6478L9.07537 26.1642L9.05975 24.6806L9.30968 24.7355C9.45026 24.7669 9.78609 24.8925 10.0594 25.0181ZM38.7773 26.2034V27.6478L37.3012 27.6714L35.8329 27.6871L35.8797 27.4751C36.0594 26.7137 36.7467 25.7246 37.4105 25.285C37.762 25.0495 38.5899 24.6963 38.6992 24.7355C38.7461 24.7434 38.7773 25.3086 38.7773 26.2034Z" fill="#E83A15"/>
<path d="M4.19409 14.358C3.98322 14.5307 3.91293 14.829 4.02227 15.1037C4.10037 15.2921 4.20971 15.3706 4.5065 15.4648C5.69364 15.8494 12.0277 17.6392 12.2073 17.6392C12.6603 17.6392 12.918 16.9641 12.59 16.6344C12.4494 16.4931 4.85795 14.2638 4.5065 14.2638C4.40496 14.2638 4.26438 14.3109 4.19409 14.358Z" fill="#00045F"/>
<path d="M31.9433 17.7099C30.8421 18.071 30.186 18.9502 30.186 20.0727C30.186 21.0461 30.6703 21.8154 31.5372 22.2471C31.9043 22.4277 32.0839 22.4669 32.5681 22.4669C33.5366 22.4591 34.2785 22.0038 34.7393 21.1324C34.919 20.7949 34.9502 20.6457 34.9502 20.0727C34.9502 19.5232 34.919 19.3427 34.7628 19.0522C34.3254 18.2044 33.5834 17.7099 32.6853 17.6706C32.3885 17.6549 32.0527 17.6706 31.9433 17.7099ZM32.9664 18.9266C33.2476 18.9894 33.7396 19.5468 33.7553 19.8215C33.7787 20.2689 33.7162 20.5123 33.5366 20.7635C33.2788 21.0932 32.9664 21.2502 32.5525 21.2502C31.4747 21.2502 30.9905 19.9079 31.8027 19.1543C31.9902 18.9737 32.451 18.8167 32.6462 18.856C32.7087 18.8717 32.8571 18.9031 32.9664 18.9266Z" fill="#00045F"/>
</svg>
