<svg width="36" height="40" viewBox="0 0 36 40" fill="none" xmlns="http://www.w3.org/2000/svg">
<path d="M12.904 0.042305C11.2305 0.219986 9.60744 0.89122 8.26664 1.9573C6.86534 3.06286 5.87738 4.53366 5.33299 6.31046C5.08096 7.1495 5.06079 7.33705 5.01039 9.65676C4.98014 11.3151 5.00031 12.2331 5.08096 12.4799C5.21201 12.9241 5.706 13.4275 6.14957 13.5657C6.44193 13.6644 6.49233 13.7335 6.64355 14.3357C6.9964 15.7275 7.8533 17.0996 8.98241 18.0768L9.63769 18.6395L9.60744 19.3798L9.5772 20.1103L6.58307 21.127C4.92974 21.6798 3.34698 22.2622 3.05462 22.4201C2.32877 22.7952 1.0787 24.039 0.685526 24.7694C0.0403251 25.9836 0 26.2797 0 30.0702V33.4955L0.231869 33.7225L0.463738 33.9496L9.36549 33.9792L18.2673 33.9989L18.5495 34.6504C19.4064 36.6345 20.9892 38.2237 23.0559 39.1812C24.4672 39.8327 25.5661 40.0499 27.2194 39.9907C28.7114 39.9413 29.4675 39.7735 30.6571 39.2306C35.3046 37.128 37.2906 31.847 35.1231 27.3951C34.1251 25.3222 32.4113 23.733 30.2942 22.884C28.8828 22.3214 26.9875 22.1141 25.4552 22.3609C24.8302 22.4695 24.7293 22.4596 24.3261 22.272C24.0942 22.1536 22.6022 21.6205 21.0194 21.0875L18.1463 20.1103L18.1261 19.3304L18.0959 18.5506L18.5697 18.2051C19.1846 17.7511 20.1222 16.5863 20.5154 15.7867C20.6868 15.4412 20.9085 14.8292 21.0094 14.4344C21.1908 13.7631 21.2211 13.7138 21.5941 13.5558C22.078 13.3584 22.4913 12.8945 22.6324 12.4009C22.7635 11.9271 22.7635 8.98553 22.6224 7.76151C22.4913 6.54736 22.0578 5.25425 21.4428 4.23753C20.8783 3.29977 19.5375 1.93756 18.5999 1.34529C17.0273 0.348309 14.8195 -0.155117 12.904 0.042305ZM15.6159 1.72039C18.3681 2.41137 20.717 4.94825 20.969 7.5246C20.9993 7.83061 21.0497 8.21558 21.0698 8.38339L21.1102 8.67952L20.7372 8.26494C20.5255 8.0379 20.2936 7.67267 20.2129 7.45551C20.0315 6.89285 19.7593 6.68556 19.1342 6.6362C18.3983 6.5671 17.491 6.10316 16.4929 5.28386C16.009 4.87915 15.5655 4.58302 15.4344 4.58302C15.3034 4.58302 14.9404 4.79031 14.6078 5.03708C13.9021 5.57999 12.9645 6.05381 11.9967 6.36968C11.3918 6.55724 11.0591 6.59672 9.6881 6.60659L8.07509 6.62633L7.84322 6.89285C7.71217 7.04092 7.61135 7.24821 7.61135 7.35679C7.61135 7.74177 6.93591 8.72888 6.6738 8.72888C6.55282 8.72888 6.65363 7.54435 6.81493 6.86324C6.9964 6.16239 7.63152 4.89889 8.14566 4.22765C9.81915 2.07575 12.8939 1.03929 15.6159 1.72039ZM16.5635 7.33705C16.8559 7.51473 17.4708 7.79112 17.9245 7.94906C18.6201 8.1761 18.7814 8.27481 18.9528 8.56107C19.0637 8.74862 19.2754 9.05462 19.4367 9.25205C19.5879 9.44947 19.7089 9.72586 19.7089 9.8838C19.7089 10.4958 20.2734 10.8314 20.8279 10.5649L21.1202 10.4267V11.1572C21.1202 11.8185 21.0295 12.0456 20.8682 11.7889C20.7573 11.6112 20.2331 11.6803 19.971 11.9074C19.7593 12.1048 19.7089 12.2627 19.6181 13.0722C19.4972 14.2764 19.1342 15.2241 18.4689 16.0829C16.3619 18.8369 12.2588 19.1133 9.77883 16.685C8.67997 15.609 8.02469 14.0988 8.0146 12.6477C8.0146 12.2825 7.9642 12.1245 7.76257 11.937C7.51054 11.6803 7.12745 11.6211 6.79477 11.7889C6.61331 11.8876 6.60323 11.858 6.60323 11.1572V10.4267L6.91575 10.5748C7.16778 10.6932 7.26859 10.7031 7.52062 10.6044C7.83314 10.4761 8.0146 10.2392 8.0146 9.96277C8.0146 9.8838 8.18599 9.59753 8.39769 9.33101C8.6094 9.0645 8.84127 8.71901 8.91184 8.54133L9.04289 8.23532H10.0006C11.664 8.23532 13.3577 7.75164 14.7691 6.88298L15.4143 6.47826L15.7268 6.73491C15.8881 6.88298 16.2712 7.1495 16.5635 7.33705ZM13.3476 19.8536C14.2347 19.9128 15.384 19.7746 16.0998 19.5279L16.4829 19.3995V19.8141V20.2386L15.1723 20.9987L13.8617 21.7587L12.5512 21.0085L11.2406 20.2485V19.8339V19.4094L11.8656 19.597C12.1983 19.7055 12.8738 19.8141 13.3476 19.8536ZM11.0491 21.966C11.4322 22.1931 11.7749 22.4102 11.7951 22.4497C11.8455 22.5287 10.9785 31.7582 10.8777 32.2024L10.8374 32.4195L6.22014 32.3998L1.613 32.3702L1.58276 29.9518C1.57268 28.6192 1.60292 27.2471 1.65333 26.9115C1.86503 25.5789 2.7421 24.345 3.88129 23.7823C4.33494 23.5553 10.0208 21.5811 10.2627 21.5712C10.3131 21.5613 10.666 21.7489 11.0491 21.966ZM19.9609 22.4102C21.342 22.8742 22.4913 23.2591 22.5014 23.2789C22.5215 23.2986 22.2292 23.5059 21.8562 23.7428C20.0819 24.8681 18.6604 26.8127 18.0858 28.9153C17.9144 29.5372 17.864 30.0011 17.8539 31.0573L17.8438 32.4195H17.3599C17.0676 32.4195 16.866 32.3702 16.8357 32.2912C16.7853 32.1629 15.878 22.9137 15.878 22.5978C15.878 22.4596 16.0897 22.2819 16.6139 21.9858C17.0071 21.7587 17.3599 21.5712 17.3902 21.5712C17.4204 21.5613 18.5697 21.9463 19.9609 22.4102ZM14.7489 27.8295C14.9908 30.2676 15.1824 32.3011 15.1723 32.3406C15.1723 32.3899 14.5876 32.4195 13.8617 32.4195H12.5512V32.0938C12.5512 31.926 12.7326 29.9419 12.9544 27.6913C13.1762 25.4407 13.3577 23.5553 13.3577 23.4961C13.3577 23.4368 13.5593 23.3875 13.8416 23.3875H14.3255L14.7489 27.8295ZM29.034 24.1278C31.4334 24.8681 33.1976 26.5462 33.9739 28.8067C35.2945 32.6564 33.2077 36.7529 29.2357 38.1152C28.4897 38.3718 28.3082 38.3915 26.917 38.3915C25.4754 38.3915 25.3645 38.3817 24.5176 38.0855C23.2676 37.6413 22.6022 37.2268 21.6142 36.2594C20.8884 35.5585 20.6666 35.2624 20.2734 34.4826C19.719 33.3672 19.5173 32.6564 19.4468 31.5311C19.3056 29.4286 20.0819 27.5136 21.6949 25.9342C22.4006 25.2432 22.6828 25.0458 23.5599 24.6312C24.1345 24.3548 24.9209 24.0686 25.304 23.9896C26.3121 23.7724 28.0965 23.8415 29.034 24.1278Z" fill="#0052DA"/>
<path d="M26.3931 26.5362L26.1108 26.7731V29.0928C26.1108 31.4125 26.1108 31.4125 26.3528 31.6691L26.5947 31.9258H28.6312C30.5466 31.9258 30.6877 31.9159 30.9398 31.7185C31.2926 31.4421 31.3027 30.9288 30.9498 30.5932C30.718 30.3563 30.6676 30.3464 29.1856 30.3464H27.6734V28.5301V26.704L27.4113 26.5065C27.0585 26.2302 26.7359 26.2499 26.3931 26.5362Z" fill="#E83A15"/>
</svg>
