<svg width="40" height="40" viewBox="0 0 40 40" fill="none" xmlns="http://www.w3.org/2000/svg">
<path d="M18.5219 0.0774701C14.6393 0.375903 11.0809 1.72312 7.89804 4.09353C6.82286 4.90356 4.8517 6.88175 4.00691 8.01579C0.713103 12.4241 -0.609541 17.847 0.260844 23.2615C0.892299 27.1496 2.7952 30.9866 5.42342 33.6896C6.04634 34.3291 6.19141 34.4314 6.43034 34.4314C7.01059 34.4314 7.37752 34.0733 7.38605 33.519C7.38605 33.1865 7.33485 33.1012 6.84846 32.5811C4.13491 29.6735 2.47094 26.1946 1.96748 22.3832C1.82242 21.2321 1.79682 19.0322 1.92481 17.9749C2.41974 13.9418 4.13491 10.3009 6.91673 7.41893C9.86921 4.3408 13.7689 2.43083 18.0867 1.93628C19.1874 1.80838 21.9351 1.88512 22.9591 2.07271C25.8945 2.60136 28.2838 3.59046 30.5707 5.21905C30.912 5.45779 31.1936 5.67949 31.1936 5.71359C31.1936 5.75623 30.511 5.78181 29.6833 5.78181C28.0876 5.79033 28.0364 5.79886 27.7548 6.20814C27.4817 6.60037 27.6524 7.20576 28.1217 7.44451C28.4972 7.64062 33.728 7.63209 34.1035 7.43598C34.5813 7.19723 34.6069 7.00112 34.6069 4.07648C34.6069 1.15183 34.5813 0.955716 34.1035 0.71697C33.7792 0.546437 33.5573 0.546437 33.2416 0.708443C32.8149 0.930136 32.7723 1.09214 32.7296 2.86569L32.6869 4.50281L31.8763 3.91447C28.7958 1.63785 25.3057 0.367377 21.3805 0.0689434C20.1176 -0.0248499 19.7848 -0.0248499 18.5219 0.0774701Z" fill="#E83A15"/>
<path d="M35.7501 9.48238C35.5453 9.68702 35.46 9.84903 35.46 10.0451C35.46 10.3436 36.373 12.1342 36.6461 12.3814C36.7399 12.4667 36.9703 12.552 37.1581 12.5776C37.4653 12.6202 37.5335 12.5946 37.8066 12.3218C38.2503 11.8784 38.2247 11.5799 37.6359 10.5141C37.0813 9.49943 36.7826 9.19248 36.3474 9.19248C36.1085 9.19248 35.972 9.26069 35.7501 9.48238Z" fill="#E83A15"/>
<path d="M25.0587 14.0699C24.6065 14.3086 24.5723 14.4536 23.5142 19.7231C22.951 22.5369 22.4902 24.9755 22.4902 25.146C22.4902 25.5382 22.8145 25.9561 23.1644 26.0328C23.5313 26.1095 24.0006 25.8793 24.1542 25.5468C24.2225 25.3933 24.743 22.9291 25.3062 20.0812C26.2192 15.4853 26.3302 14.8629 26.2448 14.5985C26.0827 14.121 25.4768 13.8482 25.0587 14.0699Z" fill="#00045F"/>
<path d="M37.8413 14.4704C37.5341 14.7859 37.5341 14.9394 37.8072 16.2269C38.0717 17.4207 38.1144 17.523 38.5069 17.685C38.8738 17.847 39.2151 17.7788 39.4967 17.4974C39.7869 17.2075 39.821 16.9517 39.6418 16.1075C39.3005 14.4619 39.1554 14.2232 38.4898 14.2232C38.1656 14.2232 38.0461 14.2658 37.8413 14.4704Z" fill="#E83A15"/>
<path d="M18.0356 14.5728C17.8905 14.6325 16.986 15.6898 15.4074 17.6424C14.0847 19.288 12.9669 20.7205 12.9157 20.8313C12.7877 21.1127 12.8986 21.5817 13.1546 21.8204C13.368 22.0251 13.3936 22.0251 15.4159 22.0506L17.4554 22.0762V23.4405C17.4554 24.9582 17.5151 25.2055 17.9759 25.4443C18.3428 25.6318 18.7524 25.5381 19.0255 25.214C19.2473 24.9582 19.2473 24.9327 19.2473 23.5087V22.0677H19.7166C20.3225 22.0677 20.6724 21.8886 20.8345 21.4964C20.9369 21.2662 20.9454 21.1383 20.8686 20.9166C20.7236 20.4647 20.4932 20.3283 19.8532 20.2771L19.29 20.2345L19.2473 17.6253C19.2047 14.7689 19.2132 14.82 18.6756 14.5898C18.3599 14.4619 18.3513 14.4619 18.0356 14.5728ZM17.4298 20.2515C17.4042 20.2686 17.0031 20.2686 16.5252 20.26L15.6634 20.2345L16.5423 19.1345L17.4127 18.0431L17.4383 19.126C17.4468 19.7229 17.4468 20.2345 17.4298 20.2515Z" fill="#00045F"/>
<path d="M8.45312 15.0502C7.29261 15.2037 6.01263 16.1075 5.57744 17.0881C5.44091 17.4121 5.43237 17.5144 5.50917 17.7617C5.6457 18.1625 5.96143 18.4012 6.37956 18.4012C6.73795 18.4012 6.88301 18.2818 7.51447 17.4974C7.83873 17.0881 8.32512 16.8664 8.92245 16.8664C9.85256 16.8664 10.4584 17.3695 10.4584 18.1284C10.4584 18.9043 10.0062 19.4074 8.23126 20.6181C6.39662 21.8716 5.71397 22.656 5.4921 23.7218C5.42384 24.1055 5.43237 24.2249 5.55184 24.4807C5.80783 25.0264 5.93583 25.052 8.87125 25.052C11.7555 25.052 11.9603 25.0179 12.1992 24.5489C12.3699 24.2249 12.3699 24.0032 12.1992 23.6792C11.9688 23.2358 11.6957 23.1761 9.6819 23.1761C8.11179 23.1761 7.88993 23.1591 7.9838 23.0482C8.03499 22.98 8.60672 22.5707 9.24671 22.1359C10.8168 21.0701 11.5592 20.3538 11.9773 19.5267C12.2675 18.9299 12.2931 18.8275 12.2845 18.1539C12.2845 17.5485 12.2419 17.3354 12.0627 16.9346C11.6189 15.9711 10.8083 15.3487 9.71603 15.1184C9.14431 14.9905 8.94805 14.982 8.45312 15.0502Z" fill="#00045F"/>
<path d="M28.7614 15.076C28.1471 15.3318 27.9849 16.0907 28.4542 16.5511L28.7188 16.824L30.4937 16.8666L32.2686 16.9092L30.7838 20.4734C29.1881 24.3189 29.1881 24.3019 29.6233 24.7452C29.7428 24.8561 29.9476 24.984 30.0841 25.0096C30.3657 25.0693 30.8435 24.8817 30.9971 24.6429C31.1422 24.4042 34.6067 16.0566 34.6067 15.9372C34.6067 15.8775 34.5469 15.6985 34.4701 15.545C34.2227 15.0163 34.052 14.9907 31.347 14.9993C30.0244 14.9993 28.8553 15.0334 28.7614 15.076Z" fill="#00045F"/>
<path d="M38.635 19.723C38.2937 19.9703 38.2169 20.2687 38.1486 21.488L38.0889 22.6647L38.3449 22.9205C38.7886 23.3639 39.5736 23.236 39.804 22.6817C39.9406 22.3663 40.06 20.5501 39.9662 20.2261C39.932 20.0811 39.8211 19.8935 39.7272 19.8083C39.4968 19.5951 38.8825 19.5439 38.635 19.723Z" fill="#E83A15"/>
<path d="M37.6617 25.1459C37.5252 25.2483 37.3801 25.487 37.2863 25.7599C37.2095 26.0071 37.0303 26.4932 36.8937 26.8427C36.5951 27.6016 36.6207 27.9171 37.0132 28.2496C37.2436 28.4458 37.346 28.4713 37.6617 28.4372C37.875 28.4117 38.114 28.3264 38.2078 28.2241C38.4212 28.0194 39.1294 26.1521 39.1294 25.8025C39.1294 25.6234 39.0441 25.4614 38.8393 25.2568C38.4894 24.9072 38.0372 24.8646 37.6617 25.1459Z" fill="#E83A15"/>
<path d="M35.3924 29.9549C35.29 30.0316 34.8975 30.5006 34.522 31.0037C33.7967 31.9672 33.7284 32.1718 33.9674 32.6408C34.1295 32.9563 34.3343 33.0671 34.7353 33.0671C35.1791 33.0671 35.2815 32.9904 35.8617 32.2401C36.5615 31.3277 36.7406 31.0293 36.7406 30.7053C36.7406 30.0913 35.8788 29.6053 35.3924 29.9549Z" fill="#E83A15"/>
<path d="M31.8761 33.8943C31.6457 33.9967 30.0926 35.2075 29.9561 35.3865C29.6916 35.7702 29.8708 36.4353 30.2974 36.6314C30.8009 36.8616 31.0569 36.7593 32.243 35.864C32.9171 35.3439 33.0707 35.1307 33.0707 34.6873C33.0707 34.1843 32.3369 33.6982 31.8761 33.8943Z" fill="#E83A15"/>
<path d="M9.42578 35.719C9.09298 36.0771 9.08445 36.546 9.41725 36.9042C9.77564 37.2964 11.286 38.0979 11.67 38.0979C12.0881 38.0979 12.4977 37.7483 12.5575 37.3305C12.6343 36.8189 12.3868 36.5631 11.286 35.9748C10.1084 35.3523 9.80977 35.3097 9.42578 35.719Z" fill="#E83A15"/>
<path d="M26.9184 36.853C26.6538 36.9638 26.1845 37.1344 25.8773 37.2367C25.5275 37.3561 25.2459 37.5096 25.1349 37.646C24.9472 37.8847 24.9045 38.4219 25.0496 38.7033C25.1605 38.8994 25.5701 39.1211 25.8432 39.1211C26.0906 39.1211 27.7546 38.5157 28.0703 38.3111C28.6079 37.9529 28.5141 37.0235 27.9168 36.7763C27.5328 36.6143 27.4901 36.6143 26.9184 36.853Z" fill="#E83A15"/>
<path d="M14.5285 37.7567C14.4091 37.8505 14.264 38.0637 14.2128 38.2172C14.0933 38.6009 14.2725 39.0613 14.6139 39.2318C14.8528 39.3512 15.6976 39.5729 16.4741 39.7093C17.225 39.8458 17.7114 39.4962 17.7114 38.8226C17.7114 38.2513 17.4383 38.0637 16.2352 37.8079C15.0149 37.5436 14.8101 37.535 14.5285 37.7567Z" fill="#E83A15"/>
<path d="M20.9111 38.1746C20.1858 38.2258 19.9298 38.3281 19.725 38.6266C19.5458 38.8738 19.5543 39.3684 19.725 39.6242C19.981 39.9908 20.2967 40.0505 21.4145 39.9652C22.6348 39.88 22.6774 39.8629 22.959 39.5389C23.3089 39.1126 23.198 38.4646 22.7372 38.2173C22.4897 38.0979 22.1399 38.0894 20.9111 38.1746Z" fill="#E83A15"/>
</svg>
