<svg width="40" height="40" viewBox="0 0 40 40" fill="none" xmlns="http://www.w3.org/2000/svg">
<path d="M14.136 0.274204C13.3851 0.685493 12.7956 1.15324 12.3111 1.74195C10.5831 3.83872 10.5427 6.80646 12.2142 9.01614C12.5857 9.50001 13.4093 10.2097 13.9503 10.5L14.2006 10.6371V13.0645V15.4839H9.16996C5.94806 15.4839 3.96163 15.5161 3.65478 15.5726C1.91867 15.879 0.368284 17.4516 0.0695111 19.1936C0.0129865 19.5565 -0.0112383 21.7903 0.00491158 26.3307L0.0291364 32.9436L0.21486 33.3065C0.497483 33.8871 0.82048 34.2258 1.37765 34.5242L1.88637 34.7984H20.0146H38.1428L38.6516 34.5242C39.2168 34.2178 39.459 33.9678 39.782 33.3549L40.0001 32.9436V26.0484C40.0001 19.5242 39.992 19.129 39.8466 18.7097C39.5963 17.9678 39.2329 17.371 38.7484 16.8629C38.2236 16.3307 37.7714 16.0403 36.98 15.7339L36.4471 15.5242L32.4338 15.5L28.4125 15.4758V12.0161V8.5484L28.7436 7.87904L29.0828 7.20969L28.7355 3.83066C28.5498 1.96775 28.3641 0.387108 28.3237 0.306461C28.1784 0.0403328 27.9523 1.14441e-05 26.4745 1.14441e-05C24.9968 1.14441e-05 24.7707 0.0403328 24.6254 0.306461C24.585 0.387108 24.3993 1.96775 24.2136 3.83066L23.8663 7.20969L24.2055 7.87904L24.5366 8.5484V12.0161V15.4839H21.9526H19.3686V13.0726V10.6694L19.9096 10.3145C21.6619 9.1855 22.6874 7.19356 22.5663 5.1613C22.5178 4.24195 22.3563 3.62904 21.9768 2.84678C21.4519 1.76614 20.491 0.806461 19.3525 0.233883C18.7872 -0.048378 18.5369 -0.0564423 18.2785 0.201622L18.0766 0.395172V2.73388V5.07259L17.471 5.48388C17.1399 5.70162 16.8331 5.88711 16.7846 5.88711C16.7362 5.88711 16.4293 5.70162 16.0983 5.48388L15.4926 5.07259V2.73388V0.395172L15.2908 0.201622C15.0243 -0.0725708 14.7497 -0.048378 14.136 0.274204ZM27.2013 1.46775C27.2013 1.57259 27.3305 2.84678 27.4758 4.31453L27.7504 6.97582L27.5566 7.35485L27.3628 7.74195H26.4745H25.5863L25.3925 7.35485L25.1906 6.95969L25.4733 4.22582C25.6186 2.72582 25.7478 1.44356 25.7478 1.38711C25.7478 1.31453 25.9497 1.29033 26.4745 1.29033C27.1771 1.29033 27.2013 1.2984 27.2013 1.46775ZM14.3056 5.79033C14.346 5.84678 14.8628 6.21775 15.4603 6.61292C16.2275 7.12904 16.607 7.33872 16.7846 7.33872C16.9623 7.33872 17.3418 7.12904 18.117 6.61292C18.7145 6.21775 19.2394 5.81453 19.2879 5.73388C19.3363 5.63711 19.3686 4.83872 19.3686 3.67743C19.3686 2.62904 19.4009 1.7742 19.4413 1.7742C19.5786 1.7742 20.5395 2.87098 20.7656 3.28227C21.0563 3.82259 21.3066 4.82259 21.3066 5.4355C21.2985 7.08066 20.3134 8.6855 18.8276 9.45969C18.5046 9.62904 18.2058 9.83066 18.1574 9.91937C18.1089 10.0081 18.0766 11.1129 18.0766 12.7742V15.4839H16.7846H15.4926V12.7742C15.4926 11.1129 15.4603 10.0081 15.4119 9.91937C15.3634 9.83066 15.0647 9.62904 14.7417 9.45969C13.1428 8.62098 12.1738 6.9355 12.2869 5.1613C12.3596 3.96775 12.8279 2.98388 13.7 2.16936L14.1603 1.73388L14.2006 3.70969C14.2249 4.7984 14.2733 5.73388 14.3056 5.79033ZM27.1205 12.2581V15.4839H26.4745H25.8286V12.2581V9.03227H26.4745H27.1205V12.2581ZM36.9074 17.1129C37.6422 17.4758 38.0944 17.9436 38.4497 18.6936L38.7081 19.2339L38.7323 22.5161L38.7565 25.8065H20.0146H1.27268L1.2969 22.5161L1.32113 19.2339L1.57952 18.6936C1.7168 18.3952 1.98327 17.9919 2.16092 17.7984C2.51622 17.4113 3.25104 16.9839 3.75168 16.8629C3.9374 16.8226 10.6396 16.7984 20.1842 16.7984L36.2937 16.8145L36.9074 17.1129ZM38.7323 29.9113C38.7081 32.6129 38.7 32.7419 38.5385 32.9516C38.4497 33.0726 38.272 33.25 38.1509 33.3387L37.9329 33.5081H20.0146H2.09632L1.8783 33.3387C1.75717 33.25 1.57952 33.0726 1.4907 32.9516C1.3292 32.7419 1.32113 32.6129 1.2969 29.9113L1.27268 27.0968H20.0146H38.7565L38.7323 29.9113Z" fill="#E83A15"/>
<path d="M29.7045 20.75C29.3089 20.879 28.6306 21.5726 28.5095 21.9838C28.2834 22.7419 28.4449 23.3467 29.0182 23.9113C29.8337 24.7338 30.8673 24.7338 31.6829 23.9113C32.4743 23.129 32.4985 22.1209 31.7475 21.2903C31.2226 20.7097 30.4717 20.508 29.7045 20.75ZM30.7947 22.1371C31.1984 22.5322 30.9158 23.2258 30.3505 23.2258C30.0195 23.2258 29.7045 22.9113 29.7045 22.5806C29.7045 22.25 30.0195 21.9355 30.3505 21.9355C30.504 21.9355 30.6735 22.008 30.7947 22.1371Z" fill="#00045F"/>
<path d="M34.8725 20.75C34.4768 20.879 33.7986 21.5726 33.6774 21.9838C33.4513 22.7419 33.6128 23.3467 34.1861 23.9113C35.0017 24.7338 36.0353 24.7338 36.8509 23.9113C37.6422 23.129 37.6664 22.1209 36.9155 21.2903C36.3906 20.7097 35.6396 20.508 34.8725 20.75ZM35.9626 22.1371C36.3664 22.5322 36.0838 23.2258 35.5185 23.2258C35.1874 23.2258 34.8725 22.9113 34.8725 22.5806C34.8725 22.25 35.1874 21.9355 35.5185 21.9355C35.6719 21.9355 35.8415 22.008 35.9626 22.1371Z" fill="#00045F"/>
<path d="M3.8647 28.4919C3.71128 28.5403 3.39636 28.7661 3.17833 28.9919C2.60501 29.5565 2.44352 30.1613 2.66961 30.9194C2.79881 31.3629 3.46903 32.0323 3.91315 32.1613C4.17155 32.2339 7.87795 32.2581 20.0307 32.2581C37.836 32.2581 36.2856 32.3145 36.9154 31.6129C37.6422 30.8065 37.6422 29.8387 36.9154 29.0323C36.2856 28.3307 37.844 28.3871 19.9823 28.3952C8.68544 28.4032 4.06658 28.4274 3.8647 28.4919ZM35.9626 29.879C36.229 30.1371 36.229 30.5081 35.9626 30.7661L35.7688 30.9677H20.0146H4.26038L4.06658 30.7661C3.93738 30.6452 3.8647 30.4758 3.8647 30.3226C3.8647 30.1694 3.93738 30 4.06658 29.879L4.26038 29.6774H20.0146H35.7688L35.9626 29.879Z" fill="#00045F"/>
<path d="M6.44873 38.0645V40H7.09473H7.74072V38.0645V36.129H7.09473H6.44873V38.0645Z" fill="#00045F"/>
<path d="M12.9087 38.0645V40H13.5547H14.2007V38.0645V36.129H13.5547H12.9087V38.0645Z" fill="#00045F"/>
<path d="M19.3687 38.0645V40H20.0146H20.6606V38.0645V36.129H20.0146H19.3687V38.0645Z" fill="#00045F"/>
<path d="M25.8286 38.0645V40H26.4746H27.1206V38.0645V36.129H26.4746H25.8286V38.0645Z" fill="#00045F"/>
<path d="M32.2886 38.0645V40H32.9346H33.5806V38.0645V36.129H32.9346H32.2886V38.0645Z" fill="#00045F"/>
</svg>
