<svg width="50" height="50" viewBox="0 0 50 50" fill="none" xmlns="http://www.w3.org/2000/svg">
<path d="M22.1344 0.161842C21.4897 0.366947 21.0111 0.679489 20.5324 1.22644C20.005 1.82222 19.7803 2.45708 19.6338 3.71701C19.5752 4.2835 19.4873 4.77184 19.458 4.80114C19.4189 4.83044 18.8328 5.04532 18.1588 5.27972C17.475 5.50436 16.4006 5.95364 15.7656 6.26619C15.1112 6.5885 14.5739 6.80337 14.5153 6.75454C14.4567 6.71547 14.0953 6.43222 13.7143 6.12945C12.425 5.10392 11.3993 4.81091 10.1978 5.13322C9.35779 5.35786 8.78148 5.80714 7.12091 7.49682C5.6264 9.0107 5.36266 9.38184 5.11846 10.2023C4.79611 11.3548 5.09892 12.4389 6.12457 13.7184C6.42738 14.0993 6.71065 14.4607 6.74972 14.5193C6.79856 14.5779 6.58367 15.115 6.26132 15.7694C5.94874 16.4043 5.49941 17.4786 5.27475 18.1623C5.04032 18.8363 4.82542 19.4223 4.79611 19.4613C4.76681 19.4906 4.27841 19.5785 3.71186 19.6371C2.45178 19.7836 1.81686 20.0083 1.22101 20.5357C0.146521 21.4831 0 22.0105 0 25.009C0 27.9781 0.136753 28.5055 1.17217 29.4432C1.85593 30.0585 2.14897 30.1562 4.28818 30.4492L4.80588 30.5273L5.26498 31.8556C5.51895 32.5881 5.97805 33.682 6.28086 34.2876C6.6032 34.9322 6.79856 35.4401 6.74972 35.4987C6.71065 35.5573 6.42738 35.9187 6.12457 36.2996C5.09892 37.5888 4.80588 38.6143 5.12823 39.8157C5.35289 40.6556 5.80222 41.2319 7.4921 42.8923C9.00614 44.3866 9.37733 44.6503 10.1978 44.8945C11.3505 45.2168 12.4347 44.914 13.7143 43.8885C14.0953 43.5857 14.4567 43.3025 14.5153 43.2634C14.5739 43.2146 15.1112 43.4294 15.7852 43.7517C16.4201 44.0741 17.4946 44.5136 18.1686 44.748C18.8426 44.9726 19.4189 45.1875 19.458 45.2168C19.4873 45.2461 19.5752 45.7344 19.6338 46.3009C19.7803 47.5609 20.005 48.1957 20.5324 48.7915C21.5093 49.8952 22.027 50.0319 25.2211 49.9928L27.6924 49.9635L28.298 49.6803C29.0013 49.358 29.7046 48.6645 29.9879 48.0297C30.154 47.6488 30.2321 47.2679 30.447 45.7247L30.5252 45.207L31.8439 44.748C32.5667 44.494 33.6607 44.0448 34.2761 43.7322C34.9208 43.4099 35.4385 43.2146 35.4971 43.2634C35.5557 43.3025 35.9171 43.5857 36.2981 43.8885C37.5777 44.914 38.662 45.2168 39.8146 44.8945C40.6351 44.6503 41.0063 44.3866 42.5203 42.8923C44.2102 41.2319 44.6595 40.6556 44.8842 39.8157C45.2066 38.6143 44.9135 37.5888 43.8879 36.2996C43.5851 35.9187 43.3018 35.5573 43.2627 35.4987C43.2139 35.4401 43.4092 34.9224 43.7316 34.2778C44.0442 33.6625 44.4935 32.5686 44.7475 31.8458L45.2066 30.5273L45.7243 30.4492C47.2676 30.2343 47.6486 30.1562 48.0295 29.9901C48.6644 29.7069 49.358 29.0037 49.6803 28.3004L49.9636 27.6949L49.9929 25.2238C50.032 22.03 49.8952 21.5124 48.7914 20.5357C48.1956 20.0083 47.5606 19.7836 46.3006 19.6371C45.734 19.5785 45.2456 19.4906 45.2163 19.4613C45.187 19.4223 44.9721 18.846 44.7475 18.1721C44.513 17.4982 44.0735 16.4238 43.7511 15.789C43.4288 15.115 43.2139 14.5779 43.2627 14.5193C43.3018 14.4607 43.5851 14.0993 43.8879 13.7184C44.9135 12.4291 45.2066 11.4036 44.8842 10.2023C44.6595 9.36231 44.2102 8.78606 42.5203 7.12568C41.0063 5.63134 40.6351 5.36763 39.8146 5.12346C38.662 4.80114 37.5777 5.10392 36.2981 6.12945C35.9171 6.43222 35.5557 6.71547 35.4971 6.75454C35.4385 6.80337 34.9306 6.60803 34.2859 6.28572C33.6802 5.98294 32.5862 5.5239 31.8536 5.26996L30.5252 4.81091L30.447 4.29326C30.154 2.1543 30.0563 1.86129 29.4409 1.1776C28.9623 0.650188 28.5032 0.357182 27.839 0.161842C27.1063 -0.0530319 22.8475 -0.0530319 22.1344 0.161842ZM27.712 2.2129C28.1808 2.56451 28.298 2.90636 28.4739 4.35186C28.7181 6.40292 28.6888 6.36386 30.1833 6.78384C31.502 7.15498 32.9672 7.76053 34.1491 8.42468C35.5362 9.19627 35.5948 9.1865 36.7963 8.22934C38.4275 6.94011 38.574 6.86197 39.248 6.98894C39.5508 7.04754 39.8732 7.32102 41.2114 8.62979C42.0905 9.49905 42.8622 10.3488 42.9404 10.5246C43.2432 11.2278 43.1162 11.5501 41.9049 13.0738C40.8109 14.4509 40.8109 14.4607 41.5924 15.8671C42.2566 17.0489 42.8622 18.5139 43.2334 19.8325C43.6534 21.3268 43.6144 21.3073 45.6656 21.5417C47.1113 21.7077 47.4434 21.8249 47.8049 22.3035C48.0002 22.5672 48.01 22.6942 48.01 25.009C48.01 27.3237 48.0002 27.4507 47.8049 27.7144C47.4532 28.1832 47.1113 28.3004 45.6656 28.4762C43.6144 28.7204 43.6534 28.6911 43.2334 30.1855C42.8622 31.504 42.2566 32.969 41.5924 34.1508C40.8109 35.5573 40.8109 35.567 41.9049 36.9442C43.1162 38.4678 43.2432 38.7901 42.9404 39.4934C42.8622 39.6692 42.0905 40.5189 41.2114 41.3881C38.9745 43.5857 39.0527 43.5759 36.7963 41.7886C35.5948 40.8314 35.5362 40.8217 34.1491 41.5933C32.9672 42.2574 31.502 42.863 30.1833 43.2341C28.6888 43.6541 28.7181 43.615 28.4739 45.6661C28.298 47.1116 28.1808 47.4534 27.712 47.805C27.4482 48.0004 27.3212 48.0101 25.0062 48.0101C22.6912 48.0101 22.5642 48.0004 22.3005 47.805C21.8218 47.4437 21.7046 47.1213 21.5288 45.5879C21.3139 43.8006 21.226 43.6345 20.4445 43.4197C18.5691 42.8923 17.055 42.2867 15.7168 41.5151C14.5056 40.8217 14.4469 40.8314 13.0794 41.9058C11.5361 43.1169 11.2235 43.2439 10.5202 42.9411C10.3444 42.863 9.49455 42.0914 8.62519 41.2123C6.42738 38.9757 6.43715 39.0538 8.2247 36.7977C9.1722 35.6061 9.18197 35.5084 8.49821 34.3071C7.71676 32.9397 7.11114 31.4259 6.59344 29.5701C6.37854 28.779 6.20271 28.6911 4.41516 28.486C2.89134 28.3102 2.569 28.193 2.20758 27.7144C2.01222 27.4507 2.00245 27.3237 2.00245 25.009C2.00245 22.6942 2.01222 22.5672 2.20758 22.3035C2.569 21.8249 2.89134 21.7077 4.41516 21.5319C6.20271 21.3268 6.37854 21.2389 6.59344 20.4478C7.11114 18.5921 7.71676 17.0782 8.49821 15.7108C9.18197 14.5095 9.1722 14.4118 8.2247 13.2203C6.93532 11.5892 6.85717 11.4427 6.98416 10.7688C7.04277 10.466 7.31627 10.1437 8.62519 8.8056C9.49455 7.92657 10.3444 7.15498 10.5202 7.07684C11.2235 6.77407 11.5361 6.90104 13.0794 8.11214C14.4469 9.1865 14.5056 9.19627 15.7168 8.50282C17.055 7.73123 18.5691 7.12568 20.4445 6.59826C21.226 6.38339 21.3139 6.21735 21.5288 4.43977C21.6948 2.99426 21.8023 2.63288 22.1442 2.3301C22.5056 1.99803 22.7986 1.96873 25.1234 1.98826C27.3017 2.0078 27.4482 2.01756 27.712 2.2129Z" fill="#0052DA"/>
<path d="M23.3162 9.58691C20.4249 9.91899 17.5824 11.091 15.3846 12.8491C10.2173 16.9805 8.21483 23.7685 10.3247 29.9901C11.8583 34.5317 15.492 38.165 20.0244 39.6887C27.3114 42.1499 35.2626 38.9464 38.7693 32.1388C39.3945 30.9179 39.9512 29.4529 39.9512 29.0134C39.9512 28.4664 39.7266 28.1832 39.1405 27.9976C38.7205 27.8609 37.9976 28.4567 37.9976 28.9255C37.9976 29.1599 37.2748 30.8496 36.8548 31.6016C33.8169 36.9734 27.6435 39.6301 21.6752 38.1455C19.0574 37.4911 16.4981 35.9186 14.7887 33.9164C10.9499 29.4236 10.3736 23.2899 13.2844 18.2111C14.5836 15.9452 16.5763 14.0895 19.0183 12.8588C20.0928 12.3217 21.0696 11.9896 22.3492 11.7063C23.619 11.4329 26.1099 11.4036 27.3993 11.6575C31.3456 12.4291 34.6765 14.7536 36.6789 18.1232C37.2162 19.0316 37.7925 20.3403 37.9976 21.0924C38.0562 21.3268 38.2125 21.6198 38.3395 21.7468C38.8865 22.2937 39.9512 21.8542 39.9512 21.0728C39.9512 20.565 39.4335 19.1683 38.7693 17.8791C36.6887 13.8453 32.9085 10.9055 28.4738 9.88969C26.8327 9.50878 24.9182 9.39157 23.3162 9.58691Z" fill="#0052DA"/>
<path d="M22.9159 15.0564C22.6229 15.281 17.3872 25.634 17.3872 25.9758C17.3872 26.3079 17.6119 26.6791 17.8854 26.8256C18.0905 26.933 18.5887 26.9623 19.9367 26.9623H21.7047L21.6656 27.1772C21.6363 27.3041 21.2944 28.945 20.9037 30.8398C20.259 33.9359 20.2004 34.2973 20.3176 34.5805C20.5423 35.1177 21.2065 35.3228 21.7047 34.9907C21.9489 34.8345 32.1858 23.1727 32.5082 22.6941C32.6937 22.4011 32.6058 21.8249 32.3323 21.5514C32.1467 21.3561 31.9904 21.3463 29.988 21.2975L27.839 21.2486L29.4214 18.7092C31.2188 15.828 31.2774 15.6522 30.6913 15.1345L30.3787 14.8513H26.7743C23.2578 14.8513 23.1699 14.8513 22.9159 15.0564ZM28.2297 16.8633C28.2297 16.8926 27.5264 18.0451 26.6669 19.432C24.9379 22.2156 24.8988 22.3328 25.3872 22.8797L25.6705 23.202L27.5557 23.2509L29.4312 23.2997L26.2175 26.9721C24.4495 29.0036 22.9941 30.6444 22.9745 30.6249C22.955 30.6054 23.1406 29.6384 23.3848 28.4762C23.8537 26.2786 23.9025 25.8098 23.7364 25.4875C23.5215 25.087 23.1504 25.0089 21.5386 25.0089C20.7083 25.0089 20.0246 24.9894 20.0246 24.9601C20.0246 24.9308 20.933 23.0848 22.0466 20.858L24.0783 16.8047H26.1491C27.292 16.8047 28.2297 16.834 28.2297 16.8633Z" fill="#E83A15"/>
<path d="M38.9255 24.3546C38.4274 24.8527 38.486 25.4778 39.0915 25.8294C39.7068 26.2005 40.4882 25.7317 40.4882 24.9992C40.4882 24.5206 40.1463 24.1494 39.6287 24.0615C39.3162 24.0127 39.2282 24.0518 38.9255 24.3546Z" fill="#E83A15"/>
</svg>
