<svg width="40" height="40" viewBox="0 0 40 40" fill="none" xmlns="http://www.w3.org/2000/svg">
<path d="M2.24428 0.0896149C1.40469 0.363976 0.597399 1.08216 0.21797 1.89718C0.0242189 2.30872 0 2.45398 0 3.20444C0.00807296 3.97104 0.0242189 4.10015 0.242189 4.5359C0.524742 5.12498 1.22709 5.85123 1.7599 6.09332C2.64793 6.50486 3.63283 6.521 4.48856 6.14174L4.98101 5.92386L8.37166 9.31304L11.7623 12.7022L11.3587 13.2187C10.1396 14.768 9.2839 16.8499 9.09822 18.714L9.04171 19.3031L7.69353 19.3273C6.57946 19.3434 6.33727 19.3273 6.33727 19.2385C6.33727 19.174 6.2081 18.8673 6.05472 18.5607C5.70758 17.8667 5.2232 17.3987 4.49664 17.0598C4.00419 16.8257 3.88309 16.8015 3.18074 16.8015C2.45418 16.8015 2.38152 16.8177 1.80027 17.1001C1.06563 17.4632 0.613545 17.9313 0.258335 18.6817C0.0242189 19.174 0 19.295 0 19.9971C0 20.7233 0.0161459 20.7959 0.298699 21.3769C0.661982 22.1113 1.13021 22.5631 1.881 22.9182C2.37345 23.1522 2.49454 23.1764 3.18882 23.1764C3.88309 23.1764 4.00419 23.1522 4.49664 22.9182C5.2232 22.5793 5.70758 22.1113 6.05472 21.4173C6.2081 21.1106 6.33727 20.804 6.33727 20.7394C6.33727 20.6507 6.57946 20.6345 7.69353 20.6507L9.04171 20.6749L9.09822 21.264C9.2839 23.128 10.1558 25.2342 11.3667 26.7512L11.7704 27.2677L8.37166 30.6649L4.98101 34.0541L4.48856 33.8362C2.88205 33.118 1.02527 33.8201 0.234116 35.4421C0.0242189 35.8778 0.00807296 36.0069 0 36.7735C0 37.524 0.0242189 37.6692 0.21797 38.0889C0.524742 38.7344 1.16251 39.38 1.80834 39.7028C2.30079 39.9448 2.39767 39.961 3.14845 39.961C3.79429 39.9529 4.04455 39.9206 4.41591 39.7673C5.09404 39.501 5.70758 38.9119 6.07086 38.1615C6.36149 37.5805 6.37764 37.5079 6.37764 36.7816C6.37764 36.1038 6.34534 35.9424 6.14352 35.4985L5.9094 34.9821L9.30005 31.5929L12.6988 28.1957L13.2154 28.5991C14.7331 29.8096 16.8402 30.6811 18.705 30.8667L19.2944 30.9231L19.3186 32.2707C19.3347 33.3843 19.3186 33.6264 19.2298 33.6264C19.1652 33.6264 18.8584 33.7555 18.5517 33.9089C17.8574 34.2558 17.3891 34.74 17.0501 35.4663C16.816 35.9585 16.7917 36.0796 16.7917 36.7816C16.7917 37.5079 16.8079 37.5805 17.0904 38.1615C17.4537 38.8958 17.922 39.3477 18.6727 39.7028C19.1652 39.9368 19.2863 39.961 19.9806 39.961C20.6748 39.961 20.7959 39.9368 21.2884 39.7028C22.0392 39.3477 22.5074 38.8958 22.8707 38.1615C23.1532 37.5805 23.1694 37.5079 23.1694 36.7816C23.1694 36.0796 23.1452 35.9585 22.9111 35.4663C22.572 34.74 22.1038 34.2558 21.4095 33.9089C21.1027 33.7555 20.7959 33.6264 20.7314 33.6264C20.6425 33.6264 20.6264 33.3843 20.6425 32.2707L20.6668 30.9231L21.2884 30.8586C23.1129 30.6811 25.1634 29.8418 26.6973 28.6395L27.2624 28.1957L30.6611 31.5929L34.0517 34.9821L33.8257 35.4985C33.6239 35.9343 33.5916 36.1038 33.5835 36.7332C33.5835 37.2577 33.6239 37.5724 33.7369 37.879C34.076 38.799 34.8913 39.5656 35.8278 39.848C38.3062 40.6146 40.615 38.3067 39.8481 35.8294C39.5656 34.8933 38.7986 34.0783 37.8783 33.7394C37.5715 33.6264 37.2567 33.5861 36.732 33.5861C36.1023 33.5941 35.9327 33.6264 35.4968 33.8282L34.9801 34.0541L31.5895 30.6649L28.1908 27.2677L28.5944 26.7512C29.8054 25.2342 30.6772 23.128 30.8629 21.264L30.9194 20.6749L32.2757 20.6507C33.3817 20.6345 33.6239 20.6507 33.6239 20.7394C33.6239 20.804 33.753 21.1106 33.9064 21.4173C34.2536 22.1113 34.7379 22.5793 35.4645 22.9182C35.9569 23.1522 36.078 23.1764 36.7804 23.1764C37.507 23.1764 37.5796 23.1603 38.1609 22.8779C38.8955 22.5147 39.3476 22.0467 39.7028 21.2962C39.9369 20.804 39.9611 20.683 39.9611 19.989C39.9611 19.295 39.9369 19.174 39.7028 18.6817C39.3476 17.9313 38.8955 17.4632 38.1609 17.1001C37.5796 16.8177 37.507 16.8015 36.7804 16.8015C36.078 16.8015 35.9569 16.8257 35.4645 17.0598C34.7379 17.3987 34.2536 17.8667 33.9064 18.5607C33.753 18.8673 33.6239 19.174 33.6239 19.2385C33.6239 19.3273 33.3817 19.3434 32.2757 19.3273L30.9194 19.3031L30.8629 18.714C30.6772 16.8499 29.8054 14.7438 28.5944 13.2267L28.1908 12.7103L31.5895 9.31304L34.9801 5.92386L35.4968 6.15787C35.9408 6.35961 36.1023 6.39189 36.7723 6.39189C37.4666 6.39189 37.5877 6.36768 38.0721 6.14174C39.3799 5.52038 40.0661 4.37452 39.9854 2.95428C39.9531 2.46204 39.8965 2.21996 39.6947 1.80841C39.3799 1.179 38.726 0.533436 38.0882 0.234863C37.6684 0.0411949 37.5231 0.0169868 36.7723 0.0169868C36.0135 0.0250587 35.8762 0.0411949 35.4726 0.242935C33.8257 1.04181 33.1153 2.88973 33.8338 4.50363L34.0517 4.99586L30.6611 8.38505L27.2704 11.7742L26.6973 11.3304C25.1392 10.1281 23.1129 9.2969 21.2884 9.11937L20.6668 9.05482L20.6425 7.69914C20.6264 6.59362 20.6425 6.35154 20.7314 6.35154C20.7959 6.35154 21.1027 6.22243 21.4095 6.06911C22.1038 5.72212 22.572 5.23795 22.9111 4.5117C23.1452 4.01945 23.1694 3.89841 23.1694 3.19637C23.1694 2.47012 23.1532 2.39749 22.8707 1.81649C22.5074 1.08216 22.0392 0.630268 21.2884 0.275211C20.7959 0.0411949 20.6748 0.0169868 19.9806 0.0169868C19.2863 0.0169868 19.1652 0.0411949 18.6727 0.275211C17.922 0.630268 17.4537 1.08216 17.0904 1.81649C16.8079 2.39749 16.7917 2.47012 16.7917 3.19637C16.7917 3.89841 16.816 4.01945 17.0501 4.5117C17.3891 5.23795 17.8574 5.72212 18.5517 6.06911C18.8584 6.22243 19.1652 6.35154 19.2298 6.35154C19.3186 6.35154 19.3347 6.59362 19.3186 7.69914L19.2944 9.05482L18.705 9.11131C16.8402 9.2969 14.7574 10.1523 13.2074 11.3708L12.6907 11.7742L9.30005 8.38505L5.9094 4.99586L6.12737 4.50363C6.82972 2.93008 6.13545 1.03374 4.57737 0.291351C4.12528 0.0734749 3.93153 0.0250587 3.30991 0.00891876C2.84168 -0.0152893 2.46225 0.0169868 2.24428 0.0896149ZM3.78622 1.36459C4.48049 1.5744 5.12633 2.46204 5.12633 3.20444C5.12633 4.20506 4.18986 5.14112 3.18882 5.14112C2.68022 5.14112 2.2685 4.95552 1.85678 4.5359C1.03334 3.72089 1.03334 2.68799 1.85678 1.87297C2.42189 1.30004 3.02736 1.14672 3.78622 1.36459ZM20.578 1.36459C21.2722 1.5744 21.9181 2.46204 21.9181 3.20444C21.9181 4.20506 20.9816 5.14112 19.9806 5.14112C18.9795 5.14112 18.0431 4.20506 18.0431 3.20444C18.0431 2.69606 18.2287 2.28452 18.6485 1.87297C19.2136 1.30004 19.8191 1.14672 20.578 1.36459ZM37.3697 1.36459C38.064 1.5744 38.7098 2.46204 38.7098 3.20444C38.7098 4.20506 37.7734 5.14112 36.7723 5.14112C36.2637 5.14112 35.852 4.95552 35.4403 4.5359C34.6168 3.72089 34.6168 2.68799 35.4403 1.87297C36.0054 1.30004 36.6109 1.14672 37.3697 1.36459ZM22.0795 10.5396C25.8254 11.395 28.5944 14.2112 29.4824 18.0684C29.6681 18.8835 29.6681 21.0784 29.4824 21.9095C29.0304 23.8785 28.1827 25.4359 26.8103 26.8158C25.4298 28.1876 23.8717 29.0349 21.9019 29.4868C21.0704 29.6724 18.8746 29.6724 18.0592 29.4868C14.1519 28.5911 11.3183 25.7506 10.4868 21.9257C10.2769 20.9735 10.2769 19.0045 10.4868 18.0523C11.1003 15.2038 12.9006 12.8071 15.4113 11.4676C16.5011 10.8947 17.5183 10.5638 18.8907 10.354C19.4397 10.2733 21.4095 10.3863 22.0795 10.5396ZM3.78622 18.1491C4.23023 18.2782 4.90028 18.948 5.02945 19.3918C5.25549 20.1504 5.09404 20.7556 4.52086 21.3204C3.70549 22.1435 2.67215 22.1435 1.85678 21.3204C1.03334 20.5054 1.03334 19.4725 1.85678 18.6575C2.42189 18.0846 3.02736 17.9313 3.78622 18.1491ZM37.3697 18.1491C38.064 18.3589 38.7098 19.2466 38.7098 19.989C38.7098 20.9896 37.7734 21.9257 36.7723 21.9257C35.7713 21.9257 34.8348 20.9896 34.8348 19.989C34.8348 19.4806 35.0205 19.0691 35.4403 18.6575C36.0054 18.0846 36.6109 17.9313 37.3697 18.1491ZM3.78622 34.9337C4.48049 35.1435 5.12633 36.0311 5.12633 36.7735C5.12633 37.7741 4.18986 38.7102 3.18882 38.7102C2.18777 38.7102 1.25131 37.7741 1.25131 36.7735C1.25131 36.2651 1.43699 35.8536 1.85678 35.4421C2.42189 34.8691 3.02736 34.7158 3.78622 34.9337ZM20.578 34.9337C21.2722 35.1435 21.9181 36.0311 21.9181 36.7735C21.9181 37.7741 20.9816 38.7102 19.9806 38.7102C18.9795 38.7102 18.0431 37.7741 18.0431 36.7735C18.0431 36.2651 18.2287 35.8536 18.6485 35.4421C19.2136 34.8691 19.8191 34.7158 20.578 34.9337ZM37.3697 34.9337C38.064 35.1435 38.7098 36.0311 38.7098 36.7735C38.7098 37.7741 37.7734 38.7102 36.7723 38.7102C35.7713 38.7102 34.8348 37.7741 34.8348 36.7735C34.8348 36.2651 35.0205 35.8536 35.4403 35.4421C36.0054 34.8691 36.6109 34.7158 37.3697 34.9337Z" fill="#E83A15"/>
<path d="M16.792 15.1957C14.6769 15.9058 13.7646 16.2447 13.6678 16.3658C13.5305 16.5191 13.5225 16.8177 13.5225 19.9809C13.5225 22.9101 13.5386 23.4508 13.6436 23.596C13.7324 23.7251 14.5316 24.0237 16.8727 24.8065L19.9808 25.8394L23.0889 24.8065C25.4301 24.0237 26.2293 23.7251 26.3181 23.596C26.423 23.4508 26.4392 22.9101 26.4392 19.9809C26.4392 16.8177 26.4311 16.5191 26.302 16.3658C26.197 16.2447 25.2848 15.9058 23.1293 15.1876C21.4662 14.6308 20.0293 14.1789 19.9405 14.187C19.8517 14.187 18.4389 14.6389 16.792 15.1957ZM21.8538 16.1318C22.8225 16.4545 23.6137 16.737 23.6137 16.7612C23.6137 16.7854 22.7983 17.0759 21.7972 17.4067L19.9808 18.0119L18.1644 17.4067C17.1634 17.0759 16.348 16.7854 16.348 16.7612C16.348 16.7047 19.7386 15.5669 19.9405 15.5588C20.0293 15.5508 20.885 15.817 21.8538 16.1318ZM19.3188 21.7078L19.335 24.2577L17.0988 23.5073L14.8545 22.7568L14.8303 20.2068L14.8141 17.6569L17.0503 18.4074L19.2946 19.1578L19.3188 21.7078ZM25.091 22.7407C25.0506 22.7649 24.0335 23.1199 22.8225 23.5234L20.6267 24.2577L20.6428 21.7078L20.667 19.1578L22.8871 18.4154L25.1072 17.673L25.1314 20.1826C25.1394 21.5545 25.1233 22.7084 25.091 22.7407Z" fill="#00045F"/>
</svg>
