<svg width="41" height="40" viewBox="0 0 41 40" fill="none" xmlns="http://www.w3.org/2000/svg">
<path d="M20.4492 0.135235C20.3008 0.213364 15.9171 3.61967 10.713 7.7135C2.26606 14.3464 1.23461 15.1824 1.1174 15.4636C0.820465 16.198 1.08614 16.8543 1.81284 17.1902C2.07852 17.3152 2.32857 17.3387 3.55536 17.3387H4.97751V28.0967C4.97751 38.3938 4.98533 38.8782 5.12598 39.175C5.29007 39.5344 5.54793 39.7922 5.86049 39.9094C6.17305 40.0266 35.8194 40.0266 36.1319 39.9094C36.4445 39.7922 36.7023 39.5344 36.8664 39.175C37.0071 38.8782 37.0149 38.3938 37.0149 28.0967V17.3387H38.4136C39.2419 17.3387 39.9139 17.2996 40.0702 17.2527C40.6093 17.0731 41 16.534 41 15.9871C41 15.3855 40.7891 15.1746 38.187 13.1277L35.7256 11.1979L35.6865 7.40881C35.6475 3.35405 35.6475 3.39311 35.2411 3.02591C34.8739 2.68997 34.6004 2.65091 32.6469 2.65091C30.6621 2.65091 30.4824 2.67435 30.1151 3.02591C29.7323 3.3853 29.7088 3.47905 29.6697 4.97908L29.6307 6.40879L25.6846 3.30717C23.5123 1.60401 21.6291 0.158672 21.4885 0.103985C21.1447 -0.0444565 20.7696 -0.0288315 20.4492 0.135235ZM30.8418 9.04947C35.4599 12.6745 39.3279 15.7215 39.4372 15.823L39.6326 16.0105H37.851H36.0694L35.8819 16.2059L35.6865 16.3934V27.5342V38.6672H20.9962H6.30589V27.542C6.30589 16.7137 6.29808 16.4168 6.15743 16.2371C6.00896 16.0496 5.98552 16.0496 4.18048 16.0105L2.35982 15.9715L8.3766 11.2448C11.6897 8.65102 15.8859 5.35408 17.6987 3.92437L21.0118 1.33057L21.7229 1.89308C22.1214 2.20559 26.2238 5.43221 30.8418 9.04947ZM34.3581 7.0338C34.3581 9.44791 34.3347 10.0729 34.2644 10.026C34.2097 9.9948 33.4517 9.40885 32.5844 8.72133L30.9981 7.47912V5.72909V3.97906H32.6781H34.3581V7.0338Z" fill="#E83A15"/>
<path d="M19.6991 10.8542C18.9802 11.0417 18.0113 11.5339 17.5424 11.9401C16.4641 12.8933 16.0031 14.448 16.4563 15.6355C16.6282 16.073 16.7532 16.2527 17.5659 17.2215C17.8081 17.5027 18.1519 18.0184 18.3316 18.3621C18.6051 18.909 18.652 19.0575 18.652 19.495C18.652 19.7997 18.6208 19.995 18.5661 19.995C18.5192 19.995 18.3238 19.8544 18.1207 19.6903C16.4875 18.3153 13.7292 17.4793 12.0101 17.8387C10.4473 18.1668 9.21271 19.2372 8.36879 20.9872C7.57958 22.6278 7.46237 24.1122 7.99372 25.706C8.65791 27.7295 10.3457 28.9326 12.1195 28.6514C12.7446 28.5576 13.2291 28.292 13.9324 27.6592C14.2605 27.3623 14.831 26.956 15.1904 26.7451C15.7765 26.417 15.9249 26.3701 16.4328 26.3389C16.8314 26.3154 17.0111 26.331 17.0111 26.3935C17.0111 26.4404 16.847 26.6904 16.6438 26.9404C15.6046 28.2373 14.8857 30.0499 14.7685 31.7218C14.5966 34.1359 16.3078 36.214 19.1756 37.0734C19.746 37.2453 20.0273 37.2844 20.8009 37.2844C21.9105 37.2922 22.4262 37.175 23.4654 36.675C24.028 36.4015 24.2703 36.2297 24.6532 35.8234C25.7081 34.6906 26.005 33.2609 25.4189 32.0733C25.3095 31.8546 25.0126 31.4483 24.7626 31.1671C23.8093 30.1124 23.3404 29.2061 23.3404 28.4483C23.3404 28.1826 23.3639 27.9639 23.3873 27.9639C23.4107 27.9639 23.7233 28.1826 24.0671 28.4483C25.333 29.4014 27.1536 30.0967 28.6539 30.2061C31.0763 30.378 32.9907 28.9092 33.9987 26.1123C34.8973 23.5966 33.9128 20.6669 31.8264 19.6356C31.2169 19.3387 31.1779 19.3309 30.3808 19.3309C29.6385 19.3309 29.5057 19.3543 29.1228 19.5418C28.8884 19.659 28.3961 20.0184 28.0366 20.3387C27.1693 21.1122 26.1535 21.6434 25.5127 21.6591C25.2627 21.6591 25.0439 21.6434 25.0126 21.62C24.9892 21.5888 25.1689 21.2919 25.4268 20.9559C26.2785 19.8153 26.8802 18.4168 27.1302 16.9949C27.2787 16.1355 27.2787 15.6511 27.1302 14.9793C26.7317 13.0964 25.1064 11.5729 22.7622 10.9011C21.887 10.6432 20.5664 10.6276 19.6991 10.8542ZM22.5981 12.2136C24.1687 12.7761 25.3486 13.7683 25.7237 14.8386C26.1691 16.1043 25.6846 18.2215 24.5907 19.8387C24.1374 20.5106 24.1218 20.5184 23.6764 20.2059C22.8325 19.6043 22.0433 19.3543 20.9571 19.3543C20.5743 19.3543 20.207 19.37 20.1445 19.3856C20.0742 19.4012 20.0117 19.2606 19.9335 18.909C19.746 17.9949 19.1287 16.909 18.2769 15.9871C18.0503 15.7371 17.8003 15.4011 17.7378 15.2449C17.4799 14.6277 17.6909 13.737 18.2457 13.112C18.5348 12.7761 19.2928 12.362 19.9413 12.1667C20.5586 11.987 22.0198 12.0105 22.5981 12.2136ZM14.3387 19.2918C15.1826 19.495 15.9171 19.8153 16.6907 20.3075C17.5268 20.8387 17.5424 20.87 17.2846 21.1747C17.0111 21.5028 16.6673 22.1981 16.4954 22.7763C16.3938 23.1044 16.3547 23.4794 16.3547 24.0966L16.3625 24.9638L15.9015 25.0498C15.0498 25.2138 13.9245 25.8545 13.0181 26.6826C12.4321 27.2217 12.143 27.3623 11.6194 27.3701C10.8849 27.3779 10.0488 26.8545 9.61903 26.1123C9.35336 25.6592 9.13457 25.0263 9.0408 24.3857C8.82201 23.0107 9.4862 21.1903 10.6036 20.0731C11.5647 19.1122 12.6352 18.8856 14.3387 19.2918ZM31.1466 20.7841C32.2718 21.2919 32.9829 22.62 32.9751 24.2138C32.9751 24.831 32.936 25.0732 32.7407 25.6279C32.053 27.6279 30.834 28.7764 29.3103 28.878C27.9429 28.9639 26.0128 28.2998 24.786 27.3154L24.5125 27.0967L24.8641 26.5732C25.0517 26.2842 25.3017 25.7685 25.4189 25.4248C25.6065 24.8935 25.6377 24.6748 25.6377 23.9169V23.0341L25.8331 22.995C26.4504 22.8544 26.7082 22.7685 27.2083 22.5185C27.8413 22.1981 28.3492 21.8544 29.0056 21.2841C29.2634 21.0575 29.5838 20.8231 29.7088 20.7528C30.037 20.5731 30.7246 20.5887 31.1466 20.7841ZM22.4262 20.995C23.7311 21.6434 24.5047 23.081 24.2859 24.456C23.8405 27.1826 20.5899 28.2686 18.6442 26.331C17.644 25.3232 17.3861 23.9013 17.98 22.5966C18.2535 22.0185 18.5661 21.6356 19.074 21.2841C19.7616 20.8153 20.1992 20.6903 21.1212 20.7137C21.8245 20.7372 21.9573 20.7684 22.4262 20.995ZM18.5035 27.9092C18.7458 28.0733 19.2068 28.2998 19.5194 28.417C20.0117 28.5889 20.2304 28.6201 21.0275 28.628L21.9573 28.6358L22.0589 29.1045C22.223 29.9249 22.8091 30.9561 23.653 31.9405C24.239 32.628 24.3562 32.8624 24.3562 33.3937C24.3562 35.2453 21.7073 36.5109 19.4022 35.7609C18.6286 35.5109 17.7612 35.0109 17.2142 34.5187C16.0343 33.4327 15.7999 32.0343 16.4719 30.0342C16.847 28.9092 17.7534 27.4092 17.9722 27.5498C18.0269 27.5889 18.2691 27.7451 18.5035 27.9092Z" fill="#00045F"/>
<path d="M20.1756 22.1747C19.1521 22.6357 18.7146 23.8935 19.2224 24.8857C20.1756 26.7608 22.9647 26.0811 22.9647 23.9795C22.9647 23.7373 22.91 23.4013 22.8397 23.2373C22.6678 22.831 22.2147 22.3622 21.8162 22.1747C21.4021 21.9794 20.5974 21.9794 20.1756 22.1747ZM21.4412 23.5263C21.6365 23.706 21.6834 24.1045 21.5428 24.3623C21.4178 24.6045 21.0349 24.7217 20.7615 24.6045C20.4724 24.4873 20.3709 24.3154 20.3709 23.9716C20.3709 23.4248 21.0349 23.1435 21.4412 23.5263Z" fill="#E83A15"/>
</svg>
