<svg width="50" height="51" viewBox="0 0 50 51" fill="none" xmlns="http://www.w3.org/2000/svg">
<path d="M24.4494 1.24434C24.2601 1.42384 24.2003 1.59338 24.2003 1.9125C24.2003 2.15184 24.1306 2.61058 24.0509 2.91973C23.5329 4.92422 21.969 6.24061 19.8173 6.47995C19.2396 6.53979 19.0403 6.60959 18.9009 6.77913C18.4526 7.33759 18.871 8.07557 19.638 8.07557C20.7338 8.07557 21.9491 8.61409 22.8058 9.47173C23.6624 10.3294 24.2003 11.546 24.2003 12.643C24.2003 12.9621 24.2601 13.1317 24.4494 13.3112C24.9873 13.8597 25.7942 13.4608 25.7942 12.643C25.7942 11.546 26.3321 10.3294 27.1888 9.47173C28.0454 8.61409 29.2607 8.07557 30.3565 8.07557C31.1235 8.07557 31.5419 7.33759 31.0936 6.77913C30.9542 6.60959 30.7549 6.53979 30.1772 6.47995C28.8523 6.33036 27.7665 5.79184 26.9796 4.90428C26.2922 4.11644 25.9536 3.31864 25.8041 2.09201C25.7244 1.5136 25.6547 1.30417 25.4953 1.17453C25.1766 0.91524 24.7383 0.945159 24.4494 1.24434ZM25.316 5.31316C25.6348 5.81179 26.5911 6.74921 27.0692 7.02844C27.2386 7.13814 27.388 7.24784 27.388 7.27776C27.388 7.30768 27.1589 7.47721 26.88 7.66669C26.352 8.0257 25.5153 8.89332 25.2264 9.38198C25.1367 9.54154 25.0271 9.67118 24.9973 9.67118C24.9674 9.67118 24.798 9.44181 24.6088 9.16258C24.2502 8.63403 23.3835 7.79633 22.8954 7.50713C22.736 7.41737 22.6065 7.30768 22.6065 7.27776C22.6065 7.24784 22.7559 7.13814 22.9353 7.02844C23.4034 6.74921 24.3597 5.81179 24.6785 5.31316C24.8279 5.08379 24.9674 4.88433 24.9973 4.88433C25.0271 4.88433 25.1666 5.08379 25.316 5.31316Z" fill="#E83A15"/>
<path d="M9.00896 11.0175C8.85954 11.1571 8.75992 11.3765 8.75992 11.546C8.75992 12.9023 7.50479 14.1588 6.15004 14.1588C5.79143 14.1588 5.37305 14.5577 5.37305 14.8868C5.37305 15.3057 5.7217 15.6348 6.24965 15.7046C6.94695 15.8043 7.28563 15.924 7.72394 16.2531C8.22201 16.6121 8.62046 17.3401 8.74 18.0781C8.84957 18.7662 9.06872 19.0454 9.50703 19.0454C10.025 19.0454 10.2541 18.7861 10.3438 18.088C10.4434 17.39 10.7124 16.8215 11.1208 16.4326C11.4595 16.1035 12.1966 15.7644 12.5552 15.7545C12.9537 15.7545 13.4318 15.555 13.5414 15.3555C13.8203 14.837 13.4617 14.1588 12.9337 14.1588C12.3958 14.1588 11.6288 13.8397 11.2005 13.4508C10.6924 12.9821 10.4733 12.5532 10.3537 11.7854C10.2043 10.8579 9.53691 10.4789 9.00896 11.0175ZM9.99513 14.4879L10.4434 14.9267L9.98517 15.3755L9.53691 15.8342L9.09861 15.3755L8.66031 14.9168L9.07869 14.4879C9.3078 14.2486 9.50703 14.0591 9.52695 14.0591C9.53691 14.0591 9.7461 14.2586 9.99513 14.4879Z" fill="#E83A15"/>
<path d="M40.0785 10.8878C39.8294 11.0075 39.6401 11.3665 39.6401 11.7355C39.6401 12.653 38.8034 13.72 37.8571 13.9993C37.5582 14.089 37.1896 14.1588 37.0502 14.1588C36.5322 14.1588 36.1835 14.8469 36.4525 15.3555C36.5621 15.555 37.0402 15.7545 37.4387 15.7545C37.7973 15.7644 38.5344 16.1035 38.8731 16.4326C39.2815 16.8215 39.5505 17.39 39.6501 18.088C39.7398 18.7861 39.9689 19.0454 40.4869 19.0454C40.9252 19.0454 41.1443 18.7662 41.2539 18.0781C41.3734 17.3401 41.7719 16.6121 42.27 16.2531C42.7083 15.924 43.0469 15.8043 43.7442 15.7046C44.2722 15.6348 44.6208 15.3057 44.6208 14.8868C44.6208 14.5577 44.2025 14.1588 43.8439 14.1588C42.788 14.1588 41.6822 13.3511 41.3934 12.3538C41.3037 12.0646 41.234 11.6956 41.234 11.546C41.234 10.9776 40.6164 10.6186 40.0785 10.8878ZM40.9152 14.4879L41.3336 14.9168L40.8953 15.3755L40.457 15.8342L40.0087 15.3755L39.5505 14.9267L39.9689 14.4979C40.198 14.2685 40.4072 14.0791 40.4371 14.0691C40.4669 14.0591 40.6861 14.2486 40.9152 14.4879Z" fill="#E83A15"/>
<path d="M23.6523 18.9457C20.7236 19.4045 18.7712 21.02 18.2731 23.4035C17.9942 24.6999 18.1137 25.9166 18.6616 27.572C18.8808 28.2003 19.0202 28.8784 19.07 29.407C19.2095 31.0923 19.8072 32.4287 20.9527 33.5556C22.1581 34.7423 23.5427 35.3008 25.3059 35.3008C26.7503 35.3008 27.7564 34.9617 28.9418 34.0642C30.4061 32.9672 31.462 30.9328 31.472 29.2075C31.472 28.8186 31.5516 28.4596 31.731 28.0706C32.3784 26.5847 32.6076 24.3509 32.229 23.0843C31.6313 21.0998 30.1172 19.7336 27.836 19.1352C26.9196 18.8959 24.6384 18.7961 23.6523 18.9457ZM27.7364 20.7408C28.7027 21.0499 29.131 21.2793 29.6988 21.8178C30.2467 22.3264 30.5356 22.8251 30.7348 23.583C30.8743 24.0816 30.9241 25.4279 30.8145 25.4279C30.7747 25.4279 30.5954 25.2883 30.3961 25.1188C30.1969 24.9393 29.7885 24.68 29.4797 24.5403L28.9318 24.2811H25.2959H21.66L21.1021 24.5403C20.7933 24.6899 20.355 24.9692 20.1259 25.1786L19.7175 25.5476V24.7597C19.7175 23.7924 19.9267 23.0445 20.365 22.3863C20.7834 21.768 21.2316 21.409 22.0385 21.04C23.0546 20.5713 23.8515 20.4416 25.5449 20.4815C26.7503 20.5114 27.1686 20.5613 27.7364 20.7408ZM28.9816 26.0263C29.2008 26.136 29.4996 26.4152 29.649 26.6446C29.8981 27.0036 29.9279 27.1631 29.9578 28.0607C30.0276 29.9754 29.5893 31.222 28.4437 32.3688C27.6468 33.1666 26.9794 33.5257 25.9733 33.7151C24.6086 33.9645 23.0546 33.4559 22.0286 32.4187C20.9726 31.3716 20.614 30.3444 20.614 28.4197C20.614 26.8939 20.8133 26.4351 21.66 25.9963C21.919 25.8567 22.4469 25.8368 25.276 25.8268C28.4138 25.8268 28.613 25.8368 28.9816 26.0263Z" fill="#0052DA"/>
<path d="M8.3815 22.3364C4.92489 22.9647 3.44065 25.5376 4.57624 28.9482C4.74559 29.4269 4.87509 29.9953 4.87509 30.1948C4.87509 30.7931 5.15401 31.8004 5.50265 32.4486C6.29957 33.9545 8.06273 35.0016 9.79602 35.0016C10.3439 35.0016 11.2603 34.7523 11.868 34.4531C13.3622 33.7051 14.3982 32.1295 14.5874 30.3145C14.6273 29.9555 14.7668 29.3571 14.8962 28.9781C15.992 25.8866 14.7468 23.2738 11.7783 22.476C11.081 22.2965 9.10868 22.2067 8.3815 22.3364ZM11.7584 24.1215C12.5653 24.4306 13.0534 24.8196 13.3722 25.4079C13.6312 25.8866 13.8503 26.9238 13.6909 26.9238C13.6511 26.9238 13.5017 26.844 13.3622 26.7443C12.8143 26.3653 12.4856 26.3254 9.66652 26.3254C7.19609 26.3254 6.87733 26.3454 6.50876 26.5149C6.27964 26.6146 6.06049 26.7542 6.03061 26.8141C5.76165 27.2429 5.68196 26.5149 5.92103 25.8168C6.21987 24.9392 6.9869 24.3209 8.17231 23.9819C8.97918 23.7525 11.0113 23.8323 11.7584 24.1215ZM12.6649 28.2003C12.9837 28.5094 12.9936 28.5593 13.0235 29.407C13.0634 30.3344 12.894 31.1721 12.5752 31.7007C12.2664 32.1893 11.599 32.8276 11.101 33.0868C10.6726 33.3162 10.4834 33.3561 9.70636 33.3561C8.92937 33.3561 8.74011 33.3162 8.31177 33.0868C7.63439 32.7378 7.09648 32.1694 6.77771 31.5112C6.55856 31.0425 6.50876 30.8031 6.48883 29.8657C6.45895 28.9781 6.47887 28.7089 6.61833 28.4496C6.94706 27.8512 7.13632 27.8213 9.87571 27.8413L12.3461 27.8712L12.6649 28.2003Z" fill="#0052DA"/>
<path d="M39.5905 22.2965C39.481 22.3164 39.1423 22.3863 38.8434 22.4461C37.399 22.7253 36.0941 23.6927 35.5263 24.8993C35.2175 25.5575 35.2075 25.6174 35.2075 26.8739C35.2075 28.0607 35.2374 28.2402 35.4964 28.9183C35.6757 29.397 35.8052 29.9854 35.865 30.5638C36.0642 32.7877 37.7078 34.5429 39.9193 34.9218C42.32 35.3307 44.7107 33.6752 45.3681 31.1522C45.4478 30.833 45.5176 30.4142 45.5176 30.2347C45.5176 30.0452 45.657 29.4768 45.8264 28.9781C46.185 27.931 46.3045 26.6844 46.1252 25.8368C45.7766 24.1813 44.5413 22.9846 42.6786 22.486C42.1008 22.3264 39.999 22.1968 39.5905 22.2965ZM42.051 23.942C43.595 24.281 44.621 25.2883 44.621 26.495V26.9138L44.0632 26.6146L43.5054 26.3254H40.6863H37.8772L37.2895 26.6246C36.9707 26.7842 36.6918 26.9238 36.6718 26.9238C36.6021 26.9238 36.7914 25.9465 36.9209 25.6273C37.2197 24.8894 38.0864 24.2412 39.0925 23.9918C39.8196 23.8123 41.3338 23.7924 42.051 23.942ZM43.2762 27.9609C43.864 28.2103 43.9536 28.4596 43.9038 29.7859C43.854 31.1921 43.6747 31.6707 42.8778 32.4686C42.1905 33.1666 41.4533 33.4459 40.4671 33.386C39.1921 33.3062 38.2159 32.6281 37.6779 31.4414C37.3293 30.6934 37.2396 29.0479 37.5186 28.5194C37.8473 27.8812 38.1063 27.8213 40.6664 27.8213C42.3996 27.8213 43.0173 27.8512 43.2762 27.9609Z" fill="#0052DA"/>
<path d="M8.40138 35.6997C6.61829 35.8792 4.77543 36.5174 3.41072 37.4249C2.35482 38.133 1.17937 39.4194 0.691263 40.4167C0.472112 40.8655 0.223077 41.5037 0.143386 41.8328C-0.035919 42.5409 -0.0458804 43.9669 0.123463 44.1764C0.442228 44.5852 2.27513 45.4229 3.9586 45.9315C6.18995 46.6097 8.84965 46.859 11.4795 46.6396L12.4457 46.5598V46.9587C12.4457 47.7166 12.5553 47.8263 14.189 48.6242C16.4402 49.7211 18.6716 50.3993 21.4807 50.8281C22.9849 51.0575 27.0093 51.0575 28.5134 50.8281C31.6214 50.3494 34.0321 49.5715 36.7117 48.1854C37.3691 47.8563 37.5484 47.577 37.5484 46.8989V46.5598L38.4748 46.6396C42.2104 46.9587 45.657 46.3703 48.6853 44.8944C49.9603 44.2861 50.0002 44.2262 50.0002 43.229C50.0002 40.2871 47.8585 37.6044 44.5114 36.3878C41.5031 35.2908 38.2557 35.4404 35.5063 36.7966C34.5799 37.2554 32.8666 38.492 32.8666 38.7014C32.8666 38.8709 32.6375 38.7912 31.7609 38.3424C30.0873 37.4748 28.0652 36.9263 26.1227 36.8166C23.214 36.6371 20.8531 37.0859 18.4425 38.2626L17.3168 38.8111L16.8985 38.4222C14.687 36.3878 11.5691 35.3905 8.40138 35.6997ZM12.0672 37.5346C13.2127 37.8238 14.5376 38.482 15.4142 39.2L16.0418 39.7086L15.1652 40.6162C14.6771 41.1248 14.1093 41.8029 13.8901 42.132C13.4618 42.7902 12.884 44.0567 12.7844 44.5553C12.7147 44.9143 12.7047 44.9243 11.4496 45.0739C8.48107 45.4229 5.03443 44.8944 2.37474 43.6578L1.5081 43.2589L1.5579 42.85C1.83682 40.4566 3.88887 38.3923 6.7976 37.5945C7.94316 37.2753 8.62053 37.2055 9.90555 37.2454C10.7423 37.2753 11.3898 37.3551 12.0672 37.5346ZM41.9314 37.3352C43.8341 37.6244 45.4976 38.4022 46.7229 39.569C47.7688 40.5663 48.2569 41.5037 48.4462 42.8899L48.486 43.2589L47.729 43.6179C45.0294 44.8844 41.6525 45.4229 38.5944 45.0739C37.2795 44.9143 37.2994 44.9343 37.1599 44.3659C36.8412 43.1193 35.855 41.5636 34.6497 40.3868L33.9524 39.7186L34.301 39.4095C34.8788 38.9009 35.5362 38.492 36.3829 38.0931C38.166 37.2753 39.9292 37.036 41.9314 37.3352ZM27.5372 38.5419C31.0735 39.1602 34.1317 41.3043 35.3569 44.0068C35.6558 44.665 35.9546 45.9216 35.9546 46.5C35.9546 46.8291 35.9347 46.849 34.8887 47.3477C33.0359 48.2153 31.2927 48.7538 28.9119 49.1826C27.7962 49.3821 27.3081 49.412 24.9971 49.412C22.6761 49.412 22.1979 49.3821 21.0822 49.1826C18.7712 48.7638 16.9483 48.2053 15.1452 47.3576C14.0595 46.849 14.0395 46.8391 14.0395 46.5C14.0395 45.782 14.3583 44.6052 14.7966 43.7276C16.1912 40.8854 19.4187 38.8909 23.4032 38.3923C24.3894 38.2726 26.4215 38.3424 27.5372 38.5419Z" fill="#0052DA"/>
</svg>
