<svg width="40" height="40" viewBox="0 0 40 40" fill="none" xmlns="http://www.w3.org/2000/svg">
<path d="M18.5214 0.0777142C14.6388 0.376147 11.0804 1.72336 7.89756 4.09377C6.82237 4.90381 4.85121 6.88199 4.00642 8.01604C0.712614 12.4243 -0.610029 17.8473 0.260356 23.2617C0.891811 27.1499 2.79471 30.9869 5.42293 33.6898C6.04585 34.3293 6.19092 34.4316 6.42985 34.4316C7.0101 34.4316 7.37703 34.0735 7.38556 33.5193C7.38556 33.1867 7.33437 33.1015 6.84797 32.5814C4.13442 29.6738 2.47045 26.1949 1.96699 22.3835C1.82193 21.2324 1.79633 19.0325 1.92433 17.9752C2.41925 13.9421 4.13442 10.3012 6.91624 7.41917C9.86872 4.34105 13.7684 2.43107 18.0862 1.93653C19.187 1.80863 21.9346 1.88537 22.9586 2.07295C25.894 2.60161 28.2833 3.5907 30.5702 5.21929C30.9116 5.45804 31.1931 5.67973 31.1931 5.71384C31.1931 5.75647 30.5105 5.78205 29.6828 5.78205C28.0871 5.79058 28.0359 5.79911 27.7543 6.20839C27.4812 6.60061 27.6519 7.206 28.1212 7.44475C28.4967 7.64086 33.7275 7.63234 34.103 7.43622C34.5808 7.19748 34.6064 7.00136 34.6064 4.07672C34.6064 1.15207 34.5808 0.955961 34.103 0.717214C33.7787 0.546681 33.5568 0.546681 33.2411 0.708687C32.8145 0.930381 32.7718 1.09239 32.7291 2.86593L32.6865 4.50305L31.8758 3.91471C28.7953 1.63809 25.3053 0.367621 21.38 0.0691875C20.1171 -0.0246058 19.7843 -0.0246058 18.5214 0.0777142Z" fill="#0052DA"/>
<path d="M35.7501 9.48263C35.5453 9.68727 35.46 9.84927 35.46 10.0454C35.46 10.3438 36.373 12.1344 36.6461 12.3817C36.7399 12.467 36.9703 12.5522 37.1581 12.5778C37.4653 12.6204 37.5335 12.5949 37.8066 12.322C38.2503 11.8786 38.2247 11.5802 37.6359 10.5144C37.0813 9.49968 36.7826 9.19272 36.3474 9.19272C36.1085 9.19272 35.972 9.26093 35.7501 9.48263Z" fill="#0052DA"/>
<path d="M25.0577 14.0696C24.6055 14.3084 24.5714 14.4533 23.5132 19.7228C22.95 22.5366 22.4893 24.9752 22.4893 25.1458C22.4893 25.538 22.8135 25.9558 23.1634 26.0325C23.5303 26.1093 23.9996 25.8791 24.1532 25.5465C24.2215 25.393 24.742 22.9288 25.3052 20.0809C26.2183 15.4851 26.3292 14.8626 26.2439 14.5983C26.0817 14.1208 25.4759 13.8479 25.0577 14.0696Z" fill="#E83A15"/>
<path d="M37.8403 14.4707C37.5331 14.7862 37.5331 14.9396 37.8062 16.2272C38.0707 17.4209 38.1134 17.5232 38.5059 17.6852C38.8728 17.8472 39.2142 17.779 39.4958 17.4976C39.7859 17.2077 39.82 16.9519 39.6408 16.1078C39.2995 14.4621 39.1544 14.2234 38.4888 14.2234C38.1646 14.2234 38.0451 14.266 37.8403 14.4707Z" fill="#0052DA"/>
<path d="M18.0351 14.5728C17.8901 14.6325 16.9855 15.6898 15.4069 17.6424C14.0843 19.288 12.9664 20.7205 12.9152 20.8313C12.7872 21.1127 12.8981 21.5817 13.1541 21.8204C13.3675 22.0251 13.3931 22.0251 15.4154 22.0506L17.4549 22.0762V23.4405C17.4549 24.9582 17.5146 25.2055 17.9754 25.4443C18.3423 25.6318 18.7519 25.5381 19.025 25.214C19.2468 24.9582 19.2468 24.9327 19.2468 23.5087V22.0677H19.7162C20.322 22.0677 20.6719 21.8886 20.834 21.4964C20.9364 21.2662 20.9449 21.1383 20.8681 20.9166C20.7231 20.4647 20.4927 20.3283 19.8527 20.2771L19.2895 20.2345L19.2468 17.6253C19.2042 14.7689 19.2127 14.82 18.6751 14.5898C18.3594 14.4619 18.3508 14.4619 18.0351 14.5728ZM17.4293 20.2515C17.4037 20.2686 17.0026 20.2686 16.5247 20.26L15.6629 20.2345L16.5418 19.1345L17.4122 18.0431L17.4378 19.126C17.4463 19.7229 17.4463 20.2345 17.4293 20.2515Z" fill="#E83A15"/>
<path d="M8.45214 15.0505C7.29163 15.2039 6.01165 16.1078 5.57646 17.0883C5.43993 17.4124 5.4314 17.5147 5.50819 17.7619C5.64473 18.1627 5.96045 18.4014 6.37858 18.4014C6.73697 18.4014 6.88204 18.2821 7.51349 17.4976C7.83775 17.0883 8.32415 16.8666 8.92147 16.8666C9.85159 16.8666 10.4574 17.3697 10.4574 18.1286C10.4574 18.9045 10.0052 19.4076 8.23028 20.6184C6.39565 21.8718 5.71299 22.6563 5.49113 23.7221C5.42286 24.1058 5.4314 24.2252 5.55086 24.481C5.80686 25.0267 5.93485 25.0522 8.87027 25.0522C11.7545 25.0522 11.9593 25.0181 12.1982 24.5492C12.3689 24.2252 12.3689 24.0035 12.1982 23.6795C11.9678 23.2361 11.6948 23.1764 9.68092 23.1764C8.11082 23.1764 7.88895 23.1593 7.98282 23.0485C8.03402 22.9803 8.60574 22.571 9.24573 22.1361C10.8158 21.0703 11.5582 20.3541 11.9763 19.527C12.2665 18.9301 12.2921 18.8278 12.2835 18.1542C12.2835 17.5488 12.2409 17.3356 12.0617 16.9349C11.618 15.9713 10.8073 15.3489 9.71506 15.1187C9.14333 14.9908 8.94707 14.9823 8.45214 15.0505Z" fill="#E83A15"/>
<path d="M28.761 15.0758C28.1466 15.3316 27.9844 16.0904 28.4538 16.5509L28.7183 16.8237L30.4932 16.8664L32.2681 16.909L30.7833 20.4731C29.1876 24.3187 29.1876 24.3016 29.6228 24.745C29.7423 24.8559 29.9471 24.9838 30.0836 25.0093C30.3652 25.069 30.843 24.8814 30.9966 24.6427C31.1417 24.4039 34.6062 16.0563 34.6062 15.937C34.6062 15.8773 34.5465 15.6982 34.4697 15.5447C34.2222 15.0161 34.0515 14.9905 31.3465 14.999C30.0239 14.999 28.8548 15.0331 28.761 15.0758Z" fill="#E83A15"/>
<path d="M38.634 19.7227C38.2927 19.97 38.2159 20.2685 38.1476 21.4878L38.0879 22.6644L38.3439 22.9202C38.7876 23.3636 39.5727 23.2357 39.8031 22.6815C39.9396 22.366 40.0591 20.5498 39.9652 20.2258C39.9311 20.0809 39.8201 19.8933 39.7263 19.808C39.4959 19.5948 38.8815 19.5437 38.634 19.7227Z" fill="#0052DA"/>
<path d="M37.6612 25.1457C37.5247 25.248 37.3796 25.4868 37.2858 25.7596C37.209 26.0069 37.0298 26.4929 36.8932 26.8425C36.5946 27.6014 36.6202 27.9169 37.0127 28.2494C37.2431 28.4455 37.3455 28.4711 37.6612 28.437C37.8746 28.4114 38.1135 28.3261 38.2074 28.2238C38.4207 28.0192 39.1289 26.1518 39.1289 25.8023C39.1289 25.6232 39.0436 25.4612 38.8388 25.2565C38.4889 24.907 38.0367 24.8643 37.6612 25.1457Z" fill="#0052DA"/>
<path d="M35.3914 29.9552C35.289 30.0319 34.8965 30.5009 34.521 31.0039C33.7957 31.9674 33.7275 32.1721 33.9664 32.641C34.1285 32.9565 34.3333 33.0674 34.7344 33.0674C35.1781 33.0674 35.2805 32.9906 35.8608 32.2403C36.5605 31.3279 36.7397 31.0295 36.7397 30.7055C36.7397 30.0916 35.8778 29.6056 35.3914 29.9552Z" fill="#0052DA"/>
<path d="M31.8756 33.8941C31.6452 33.9964 30.0921 35.2072 29.9556 35.3863C29.6911 35.77 29.8703 36.435 30.2969 36.6312C30.8004 36.8614 31.0564 36.7591 32.2425 35.8638C32.9166 35.3436 33.0702 35.1305 33.0702 34.6871C33.0702 34.184 32.3364 33.698 31.8756 33.8941Z" fill="#0052DA"/>
<path d="M9.4248 35.7192C9.09201 36.0773 9.08347 36.5463 9.41627 36.9044C9.77466 37.2966 11.285 38.0981 11.669 38.0981C12.0872 38.0981 12.4967 37.7486 12.5565 37.3307C12.6333 36.8191 12.3858 36.5633 11.285 35.975C10.1075 35.3526 9.8088 35.3099 9.4248 35.7192Z" fill="#0052DA"/>
<path d="M26.9179 36.853C26.6534 36.9638 26.184 37.1344 25.8768 37.2367C25.527 37.3561 25.2454 37.5096 25.1344 37.646C24.9467 37.8847 24.904 38.4219 25.0491 38.7033C25.16 38.8994 25.5696 39.1211 25.8427 39.1211C26.0902 39.1211 27.7541 38.5157 28.0699 38.3111C28.6075 37.9529 28.5136 37.0235 27.9163 36.7763C27.5323 36.6143 27.4896 36.6143 26.9179 36.853Z" fill="#0052DA"/>
<path d="M14.528 37.757C14.4086 37.8508 14.2635 38.0639 14.2123 38.2174C14.0928 38.6011 14.272 39.0616 14.6134 39.2321C14.8523 39.3515 15.6971 39.5732 16.4736 39.7096C17.2245 39.846 17.7109 39.4964 17.7109 38.8228C17.7109 38.2515 17.4379 38.0639 16.2347 37.8081C15.0144 37.5438 14.8096 37.5353 14.528 37.757Z" fill="#0052DA"/>
<path d="M20.9106 38.1746C20.1853 38.2258 19.9293 38.3281 19.7245 38.6266C19.5453 38.8738 19.5538 39.3684 19.7245 39.6242C19.9805 39.9908 20.2962 40.0505 21.414 39.9652C22.6343 39.88 22.677 39.8629 22.9586 39.5389C23.3084 39.1126 23.1975 38.4646 22.7367 38.2173C22.4892 38.0979 22.1394 38.0894 20.9106 38.1746Z" fill="#0052DA"/>
</svg>
