<svg width="37" height="50" viewBox="0 0 37 50" fill="none" xmlns="http://www.w3.org/2000/svg">
<path d="M16.839 0.158291C16.1153 0.402565 15.768 0.63707 14.118 2.01477C12.5548 3.33386 12.304 3.5195 11.8697 3.66607C11.7057 3.7247 10.6154 3.86149 9.45747 3.97874C8.30922 4.09599 7.15133 4.25233 6.88116 4.34027C5.64607 4.74088 4.67151 5.71797 4.29519 6.95889C4.20835 7.2227 4.05397 8.40499 3.93818 9.56773C3.82239 10.7402 3.6873 11.8444 3.62941 12.0105C3.48467 12.4502 3.30134 12.7042 1.98906 14.3067C1.36187 15.0786 0.725026 15.8993 0.57064 16.1436C-0.0951484 17.2086 -0.191639 18.684 0.34871 19.837C0.512745 20.2083 1.16888 21.117 2.00836 22.1527C2.77064 23.0908 3.46537 24.0385 3.56186 24.2535C3.67765 24.5173 3.79344 25.3381 3.93818 26.794C4.16011 29.1781 4.2759 29.6959 4.71976 30.3994C5.52063 31.6794 6.42765 32.1484 8.49256 32.3634C9.23554 32.4416 9.85308 32.51 9.86273 32.5295C9.88203 32.5491 8.69519 35.4413 7.23817 38.9588C5.57853 42.9551 4.58467 45.4858 4.57502 45.691C4.57502 46.0916 5.05747 46.5802 5.46274 46.5802C5.60747 46.5802 6.73642 46.287 7.9715 45.9353C9.21624 45.5835 10.2873 45.3197 10.3452 45.3392C10.4127 45.3686 10.9627 46.3066 11.561 47.4302C12.1689 48.5441 12.7864 49.5896 12.9408 49.746C13.1724 49.9902 13.2592 50.0195 13.6066 49.9707C13.8189 49.9414 14.0794 49.8339 14.1759 49.7362C14.2724 49.6385 15.6136 46.502 17.1575 42.7695C19.4153 37.3075 20.0136 35.9396 20.2259 35.7832C20.361 35.6758 21.1618 35.0211 21.982 34.3371C23.4294 33.1158 24.1338 32.6565 24.4618 32.7249C24.568 32.7445 25.3978 34.64 27.1057 38.7634C28.4662 42.066 29.5758 44.7823 29.5566 44.8018C29.5469 44.8116 28.7557 44.5967 27.8101 44.3231C24.9153 43.4828 24.8767 43.4925 23.5259 46.033C23.0241 46.971 22.5802 47.7527 22.5513 47.7527C22.5224 47.7527 21.9531 46.4531 21.2969 44.8605C20.5636 43.0724 20.0329 41.9194 19.9171 41.8315C19.4443 41.4993 18.7978 41.8119 18.7978 42.3689C18.7978 42.5252 19.425 44.1863 20.1969 46.0525C21.6732 49.6287 21.8855 50 22.4259 50C22.9952 50 23.1592 49.7948 24.3943 47.5182C25.0504 46.3066 25.639 45.3099 25.7162 45.3099C25.7838 45.3099 26.8355 45.5933 28.0513 45.945C29.2767 46.2968 30.4057 46.5802 30.5697 46.5802C30.9846 46.5802 31.4381 46.1209 31.4381 45.7105C31.4381 45.5347 30.3188 42.7011 28.7846 38.9881C27.3276 35.4608 26.1504 32.5588 26.1697 32.5393C26.189 32.5197 26.7873 32.4416 27.4916 32.3634C29.3057 32.168 30.0583 31.8651 30.8302 31.015C31.6408 30.1259 31.7855 29.6275 32.0557 26.8819C32.2294 25.1915 32.3355 24.5173 32.4802 24.1949C32.5864 23.9604 33.2715 23.0419 33.9951 22.1527C35.8092 19.9445 36.1469 19.1531 35.9539 17.619C35.8285 16.6908 35.5197 16.1534 33.9951 14.2871C33.2136 13.3198 32.4995 12.372 32.4223 12.1864C32.3451 12.0007 32.1811 10.8086 32.0557 9.52865C31.8241 7.20316 31.718 6.73415 31.2934 6.03064C30.8013 5.22942 29.9425 4.565 29.0741 4.32072C28.8136 4.24256 27.6364 4.08622 26.4688 3.97874C25.0504 3.83218 24.2206 3.71492 23.9601 3.59767C23.7478 3.49996 22.9276 2.88439 22.146 2.22974C19.7724 0.256001 19.4539 0.0703545 18.1706 0.0117264C17.582 -0.0175858 17.2636 0.0117264 16.839 0.158291ZM19.068 1.72165C19.2803 1.82913 20.1004 2.46424 20.8917 3.1189C22.6478 4.58454 23.1109 4.90698 23.7478 5.1024C24.018 5.18057 25.1759 5.33691 26.3145 5.44439C28.5916 5.65935 29.0548 5.78637 29.6144 6.29446C30.2609 6.89049 30.3574 7.21293 30.6083 9.81201C30.9267 12.9192 30.8688 12.7922 32.8951 15.2642C33.5899 16.1241 34.246 17.0034 34.3425 17.2184C34.5451 17.6679 34.5741 18.4886 34.4101 19.0358C34.3522 19.241 33.9758 19.8273 33.5706 20.3353C33.1653 20.8337 32.4802 21.6837 32.0557 22.2309C30.975 23.5793 30.8881 23.8236 30.618 26.6278C30.4153 28.6309 30.3574 28.9729 30.1355 29.4419C29.6144 30.5069 29.132 30.7121 26.2759 30.9955C23.5355 31.2691 23.2846 31.357 21.9627 32.4513C21.4224 32.8813 20.5829 33.575 20.0908 33.9854C19.1162 34.7866 18.7303 34.9527 17.9101 34.9527C17.1671 34.9527 16.7908 34.728 14.9382 33.1842C14.0601 32.4611 13.2206 31.7869 13.0759 31.6892C12.5259 31.3375 11.9469 31.2202 9.68904 30.9857C7.13203 30.7219 6.81361 30.6339 6.22502 29.9793C5.72326 29.4126 5.59782 28.9436 5.38554 26.6376C5.2794 25.4846 5.12502 24.3121 5.04782 24.0385C4.85484 23.3937 4.53642 22.9246 3.08906 21.1463C1.81537 19.5732 1.55485 19.1531 1.46801 18.5082C1.34257 17.6288 1.59345 17.1305 3.05046 15.3424C3.78379 14.4337 4.47853 13.5543 4.60397 13.3784C5.01888 12.7824 5.17326 12.1082 5.38554 9.89017C5.49168 8.70789 5.65572 7.53537 5.73291 7.27156C5.93554 6.66576 6.59168 6.00133 7.18993 5.79614C7.45045 5.71797 8.60835 5.55187 9.77589 5.44439C11.9566 5.22942 12.6224 5.07309 13.2206 4.65294C13.3943 4.52591 14.2531 3.83218 15.1215 3.10912C16.8776 1.64348 17.3311 1.3992 18.1803 1.47737C18.4504 1.49691 18.8557 1.61417 19.068 1.72165ZM12.0724 32.8422C12.2461 32.9106 13.1627 33.6239 14.118 34.4153C15.9706 35.9591 16.4917 36.2718 17.4276 36.3988C17.7557 36.4477 18.0452 36.5063 18.0741 36.5356C18.132 36.5845 13.6259 47.5475 13.5004 47.6843C13.4522 47.7331 13.018 47.0296 12.5355 46.1209C12.0434 45.222 11.5031 44.3426 11.3294 44.1765C10.789 43.6586 10.5092 43.6684 8.37677 44.2742C7.34431 44.5771 6.48554 44.8018 6.46624 44.7725C6.44695 44.753 7.54694 42.0367 8.91712 38.7243C11.5996 32.2266 11.4259 32.5588 12.0724 32.8422Z" fill="#0052DA"/>
<path d="M16.7331 6.70487C15.9612 6.82212 15.6814 7.37907 16.1156 7.93601L16.3279 8.2096L17.2445 8.15097C22.1173 7.81876 26.4401 10.9846 27.6849 15.7821C27.9647 16.8569 28.0322 18.7232 27.8296 19.8859C27.077 24.2535 23.7094 27.5757 19.3866 28.2205C18.3445 28.3671 16.5787 28.2792 15.6042 28.0251C10.1235 26.5888 6.87174 20.9021 8.42524 15.4792C9.22612 12.6847 11.0691 10.4374 13.6551 9.1183C14.398 8.73723 14.5621 8.28777 14.1182 7.8383C13.8191 7.52563 13.5103 7.5354 12.8831 7.84807C9.80507 9.41143 7.54717 12.4111 6.77525 15.958C6.54367 17.0426 6.54367 19.368 6.77525 20.4917C7.63402 24.5467 10.5287 27.8981 14.3112 29.1781C16.627 29.9598 19.3287 29.9793 21.548 29.227C25.0796 28.0349 27.7717 25.2697 28.9103 21.6642C29.7112 19.1335 29.5568 16.0948 28.505 13.6423C27.0673 10.2615 24.0086 7.71128 20.4384 6.90029C19.5314 6.6951 17.4761 6.58762 16.7331 6.70487Z" fill="#0052DA"/>
<path d="M21.5961 13.0755C21.2777 13.2221 20.3996 14.0429 18.3443 16.1143L15.5268 18.9674L14.5329 17.9806C13.7224 17.1891 13.4426 16.9742 13.018 16.8276C11.918 16.4563 10.7022 17.0035 10.268 18.0685C10.0751 18.5375 10.0751 19.4169 10.2584 19.8859C10.4417 20.3158 13.8382 23.8138 14.4075 24.1558C14.9672 24.488 15.4979 24.5467 16.1636 24.3512C16.7136 24.1949 16.8101 24.107 20.5154 20.3647C23.0724 17.7754 24.3654 16.3977 24.5005 16.1241C24.761 15.5769 24.761 14.6877 24.5005 14.1601C23.9408 13.056 22.6768 12.5772 21.5961 13.0755ZM22.9952 14.5803C23.1592 14.7366 23.2364 14.9223 23.2364 15.1372C23.2364 15.4303 22.9084 15.7919 19.5312 19.2117C16.2215 22.5631 15.7873 22.9638 15.5171 22.9638C15.247 22.9638 14.9864 22.739 13.3847 21.117C11.5224 19.2312 11.4259 19.1042 11.6189 18.5864C11.7058 18.3616 12.2075 18.1271 12.4584 18.2053C12.5742 18.2346 13.24 18.8306 13.9347 19.5244C15.0443 20.6285 15.2373 20.7848 15.5171 20.7848C15.8163 20.7848 16.1154 20.5015 19.0391 17.5604C22.5031 14.0722 22.5031 14.0722 22.9952 14.5803Z" fill="#E83A15"/>
</svg>
