<svg width="42" height="40" viewBox="0 0 42 40" fill="none" xmlns="http://www.w3.org/2000/svg">
<g clip-path="url(#clip0_523_2888)">
<path d="M18.3338 0.0861855C17.6199 0.380474 17.267 0.943825 17.3245 1.70056C17.3737 2.2471 17.6281 2.66751 18.0876 2.93657C18.3584 3.09633 18.5718 3.12996 19.3022 3.15519L20.1802 3.18882V4.31552V5.43381L19.5483 5.73651C18.777 6.09806 18.1533 6.58574 17.743 7.13227L17.4394 7.54428H15.158H12.8767V7.04819C12.8767 6.66982 12.8357 6.50166 12.6962 6.32509C12.3925 5.92149 12.1135 5.86263 10.5626 5.86263C8.97878 5.86263 8.77362 5.92149 8.44537 6.46803C8.28946 6.73709 8.28125 6.90525 8.28125 10.1929C8.28125 13.9934 8.28125 14.0018 8.79824 14.3886C9.0116 14.5567 9.1429 14.5651 10.6036 14.5651C12.0151 14.5651 12.2038 14.5483 12.409 14.4054C12.729 14.1868 12.8275 13.9682 12.8767 13.388L12.9177 12.8835L15.1416 12.8583L17.3655 12.8415L17.743 13.3375C18.4241 14.2372 19.4827 14.9267 20.5905 15.2042C22.3795 15.633 24.4228 14.8931 25.5963 13.388L26.023 12.8415H26.9339C28.5095 12.8415 29.3794 13.0685 30.2984 13.7159C30.7744 14.0438 31.5048 14.851 31.5048 15.0276C31.5048 15.078 31.4145 15.1117 31.3078 15.1117C31.0534 15.1117 30.7006 15.4816 30.6349 15.8264C30.6103 15.9861 30.6021 16.4738 30.6185 16.9194C30.6431 17.7182 30.6513 17.735 30.9139 17.9789L31.1765 18.2227H34.5903C38.2174 18.2227 38.3487 18.2059 38.5621 17.8107C38.6031 17.7182 38.6441 17.1885 38.6441 16.6252C38.6441 15.6078 38.6441 15.5994 38.4062 15.3555C38.1928 15.1369 38.1107 15.1117 37.643 15.1117H37.1178L36.929 14.4979C36.1413 11.9754 34.4918 9.94062 32.2187 8.71302C30.717 7.91424 29.6502 7.65358 27.4919 7.5695L25.9902 7.51905L25.3173 6.82117C24.8003 6.28304 24.5049 6.05602 24.0371 5.829C23.7007 5.66084 23.3806 5.5263 23.3232 5.5263C23.2411 5.5263 23.2165 5.24883 23.2165 4.35756V3.18882L24.1028 3.15519C24.8495 3.12996 25.0301 3.09633 25.3337 2.91976C26.0887 2.48253 26.3267 1.48195 25.8507 0.72521C25.4158 0.018919 25.4404 0.018919 21.7804 0.00210381C19.4663 -0.00630379 18.5144 0.0105114 18.3338 0.0861855ZM24.7839 1.23811C24.8824 1.29697 24.9398 1.41468 24.9398 1.57444C24.9398 1.7342 24.8824 1.85191 24.7839 1.91077C24.6772 1.96122 23.553 1.99485 21.6984 1.99485C19.8438 1.99485 18.7195 1.96122 18.6128 1.91077C18.4077 1.79305 18.3995 1.36423 18.6046 1.24652C18.8016 1.12881 24.5705 1.1204 24.7839 1.23811ZM22.0676 4.22303V5.27406H21.6984H21.3291V4.22303V3.172H21.6984H22.0676V4.22303ZM23.0934 6.69505C23.8238 6.96411 24.4146 7.41815 24.907 8.09922L25.3419 8.6962L27.1309 8.74665C28.9608 8.7971 29.5107 8.88118 30.5282 9.23433C32.7521 10.0079 34.6888 11.8913 35.5832 14.1363C36.0017 15.1958 36.1002 15.1201 34.3605 15.0949L32.8588 15.0696L32.6536 14.6829C31.9233 13.3123 30.5775 12.2361 29.1168 11.8745C28.4192 11.6979 25.8999 11.6054 25.506 11.74C25.3091 11.8072 25.1614 11.9334 25.0383 12.152C24.0125 14.0186 21.6081 14.6913 19.7781 13.6234C19.2693 13.3207 18.818 12.8835 18.4405 12.3117C18.26 12.0427 18.022 11.7904 17.9153 11.74C17.8004 11.6979 16.6187 11.6643 15.2893 11.6643H12.8767L12.8931 10.2097L12.9177 8.76347L15.4945 8.72143L18.0794 8.67939L18.4077 8.1833C18.9493 7.3677 19.7289 6.82958 20.7136 6.56052C21.3045 6.40917 22.4862 6.46803 23.0934 6.69505ZM11.7278 10.2349V13.4384L10.6036 13.4132L9.47115 13.388L9.44653 10.2097L9.43012 7.03978H10.579H11.7278V10.2349ZM37.4953 16.6672V17.0456H34.6231H31.7509V16.6672V16.2888H34.6231H37.4953V16.6672Z" fill="white"/>
<path d="M14.026 15.3471C11.3015 16.8942 1.53615 22.7547 1.35561 22.9481C0.994537 23.3517 1.0766 23.7553 1.78233 24.9913C2.57012 26.3787 2.84093 26.5216 3.71078 26.0424C3.96518 25.8994 4.19495 25.7901 4.21957 25.7901C4.24419 25.7901 4.2606 28.7246 4.2606 32.3065V38.8228H2.29111C0.42831 38.8228 0.313423 38.8313 0.157506 38.991C-0.064061 39.218 -0.0476486 39.546 0.198537 39.7898L0.395485 40H21.0012H41.6069L41.8039 39.7898C42.0501 39.546 42.0665 39.2517 41.8449 39.0078L41.6726 38.8228H33.3515H25.0222V32.3065C25.0222 28.7246 25.0387 25.7901 25.0633 25.7901C25.0879 25.7901 25.3177 25.9078 25.5721 26.0424C26.4419 26.5216 26.7127 26.3787 27.5005 24.9913C28.2062 23.7553 28.2883 23.3517 27.9272 22.9481C27.7877 22.7968 25.5392 21.4094 22.6835 19.7278C19.9344 18.105 17.1033 16.4318 16.4058 16.0113C14.9615 15.1537 14.5676 15.0444 14.026 15.3471ZM20.7058 19.9128C24.0047 21.8635 26.7538 23.5031 26.8112 23.5619C26.9015 23.646 26.8522 23.789 26.5404 24.3523L26.1465 25.0334L25.8921 24.8736C24.2591 23.8646 14.8466 18.3488 14.7153 18.3236C14.5922 18.2984 12.8361 19.299 9.10225 21.5019C6.1152 23.2676 3.55487 24.7811 3.40716 24.8736L3.13635 25.0334L2.75066 24.3523C2.43062 23.789 2.38138 23.646 2.47165 23.5619C2.52909 23.5031 3.13635 23.1415 3.80926 22.7463C4.49037 22.3511 5.48332 21.7626 6.02493 21.4431C6.56654 21.1151 8.11751 20.1986 9.47153 19.3999C10.8255 18.5927 12.5242 17.5921 13.2464 17.1633C13.9685 16.7345 14.5922 16.3813 14.6332 16.3813C14.666 16.3729 17.3987 17.9705 20.7058 19.9128ZM19.36 22.368L23.8323 25.0166L23.857 31.9197L23.8734 38.8228H18.9497H14.026V33.8704V28.9096L13.8126 28.7414C13.5992 28.5732 13.5008 28.5648 10.604 28.5648C7.78926 28.5648 7.43639 28.59 7.21483 28.7918C7.19021 28.8171 7.15738 31.0705 7.13276 33.8031L7.09173 38.7808L6.2547 38.806L5.40946 38.8313V31.9365V25.0502L5.92645 24.7475C12.3929 20.8965 14.6578 19.5933 14.7645 19.6521C14.8302 19.6941 16.8981 20.9133 19.36 22.368ZM12.8771 34.2824V38.8228H10.5794H8.28163V34.2824V29.742H10.5794H12.8771V34.2824Z" fill="white"/>
<path d="M16.0208 28.6489C15.9224 28.6909 15.8075 28.8002 15.7582 28.8927C15.7008 29.002 15.668 29.9438 15.668 31.5497V34.0386L15.8731 34.2404L16.0701 34.4506H18.8684C21.6421 34.4506 21.9211 34.4253 22.0852 34.1647C22.118 34.1142 22.1509 32.9203 22.1509 31.5077C22.1509 30.0951 22.118 28.9011 22.0852 28.8507C21.9211 28.59 21.6421 28.5648 18.934 28.5732C17.4323 28.5732 16.1193 28.6068 16.0208 28.6489ZM21.002 31.5077V33.2734H18.9094H16.8168V31.5077V29.742H18.9094H21.002V31.5077Z" fill="white"/>
<path d="M32.1368 22.2755C29.6504 24.8568 29.2236 25.4118 28.8133 26.5805C28.2881 28.0603 28.2799 29.6075 28.7805 31.0705C29.1252 32.0627 29.4862 32.6344 30.3151 33.4921C30.9469 34.1395 31.1767 34.3161 31.8332 34.6524C32.9164 35.1905 33.4745 35.325 34.6644 35.325C35.8132 35.325 36.3876 35.1905 37.3724 34.7028C38.8823 33.9545 39.982 32.6428 40.5892 30.8771C40.8026 30.2465 40.819 30.1119 40.819 28.8591C40.819 27.6063 40.8026 27.4718 40.5892 26.8411C40.1297 25.5042 39.826 25.0838 37.7909 22.9313C34.9352 19.9212 34.9187 19.9044 34.6561 19.9044C34.451 19.896 34.0817 20.2491 32.1368 22.2755ZM36.7405 23.5115C38.6361 25.5295 38.8249 25.7481 39.1285 26.3955C39.5634 27.3036 39.7112 27.9258 39.7112 28.8591C39.7112 29.7588 39.5552 30.4903 39.2188 31.1882C38.5623 32.5503 37.5775 33.4416 36.2235 33.9041C33.4662 34.8542 30.6105 33.265 29.7324 30.2801C29.5273 29.599 29.5273 28.1192 29.7324 27.4381C29.913 26.8159 30.2987 26.0256 30.6269 25.5799C30.8239 25.3109 34.6151 21.3338 34.6726 21.3338C34.6808 21.3338 35.6081 22.3175 36.7405 23.5115Z" fill="white"/>
<path d="M32.2519 26.1769C32.1452 26.2526 31.9236 26.5384 31.7513 26.8075C30.9389 28.1024 30.9963 29.9101 31.899 31.1293C32.2929 31.659 32.5719 31.7768 32.8837 31.5329C33.2202 31.2807 33.212 30.9528 32.8673 30.4903C32.4898 29.9942 32.3257 29.5065 32.3257 28.8591C32.3257 28.2117 32.4898 27.724 32.8591 27.2279C33.212 26.7739 33.2284 26.4628 32.933 26.2189C32.6704 26.0087 32.5063 26.0003 32.2519 26.1769Z" fill="white"/>
</g>
<defs>
<clipPath id="clip0_523_2888">
<rect width="42" height="40" fill="white"/>
</clipPath>
</defs>
</svg>
