<svg width="40" height="40" viewBox="0 0 40 40" fill="none" xmlns="http://www.w3.org/2000/svg">
<g clip-path="url(#clip0_523_2826)">
<path d="M8.23095 0.0477943C7.11292 0.204346 6.04213 0.548759 5.82955 0.807068C5.49886 1.22976 5.49099 1.22976 8.26245 3.99289C10.8213 6.5525 10.9473 6.71688 10.8843 7.13956C10.8764 7.22567 10.0655 8.0867 9.09703 9.04949C7.38062 10.7559 7.31763 10.8107 7.01056 10.8107C6.7035 10.8107 6.64051 10.7559 4.121 8.25891C2.31011 6.47422 1.46765 5.69147 1.31018 5.65233C0.924378 5.5584 0.703921 5.79322 0.444097 6.5525C-0.16216 8.33718 -0.146413 10.4976 0.483464 12.3684C1.42041 15.155 3.53837 17.2997 6.3177 18.2704C8.06561 18.8887 10.0497 18.9748 11.8134 18.5208L12.4039 18.3721L12.5614 18.56C12.648 18.6617 13.3566 19.4367 14.136 20.282C14.9155 21.1274 15.5611 21.8632 15.5769 21.9102C15.6478 22.2389 14.388 23.3348 13.7188 23.5305C13.1834 23.6949 12.3566 23.7105 11.8213 23.5774C11.5536 23.507 11.2465 23.4522 11.152 23.4522C11.0339 23.4522 9.78202 24.6498 6.76649 27.6556C2.73527 31.679 2.53844 31.8903 2.27074 32.4539C1.86132 33.3071 1.7196 33.9255 1.7196 34.8413C1.72747 35.7728 1.86132 36.3364 2.27861 37.1896C2.86125 38.3637 3.93991 39.2952 5.27053 39.7648C5.89253 39.984 6.03426 39.9997 6.93183 39.9997C7.78216 39.9997 8.00262 39.9684 8.55376 39.7883C9.71904 39.4048 10.0261 39.1465 14.3565 34.8256C18.0807 31.1154 18.3641 30.8179 18.3641 30.5675C18.3641 30.4187 18.3247 30.2074 18.2854 30.0978C18.1436 29.7377 18.0964 29.0489 18.183 28.5793C18.5531 26.5676 20.5372 25.3934 22.5449 25.9962C22.789 26.0666 22.9858 26.0823 23.096 26.0431C23.1905 26.004 23.6787 25.5578 24.1826 25.0412C25.2219 23.9845 25.3951 23.6714 25.3951 22.826C25.3951 22.192 25.1983 21.7771 24.6078 21.1274L24.1826 20.6578L24.5133 20.3368C24.7022 20.1568 24.8755 20.0081 24.9069 20.0081C25.0329 20.0081 37.7722 31.5146 37.9611 31.7964C38.5517 32.6809 38.7721 33.401 38.7642 34.4108C38.7327 37.941 34.4811 39.8275 31.7569 37.5262C31.5285 37.3383 29.4342 35.0918 27.08 32.5322C21.9072 26.8885 21.915 26.8963 21.6473 26.8963C21.3166 26.8963 21.0253 27.1703 21.0253 27.4912C21.0253 27.7965 20.5844 27.2955 27.2217 34.4891C29.2295 36.6651 30.9695 38.5203 31.0955 38.622C32.7962 39.9292 35.1661 40.1327 37.1266 39.123C37.9218 38.7159 39.0004 37.6279 39.3941 36.8373C40.3704 34.8883 40.1578 32.5948 38.843 30.9353C38.6619 30.7005 35.6542 27.9452 32.1663 24.822C28.6783 21.691 25.8281 19.1079 25.8281 19.0844C25.8281 19.0531 28.3004 16.5796 31.3238 13.5816L36.8116 8.13367L38.0714 7.48398C39.6461 6.67774 39.7248 6.62295 39.8901 6.19243C40.1342 5.55057 40.024 5.37054 38.4808 3.81285C36.8195 2.14558 36.6384 2.00468 36.1424 2.00468C35.4968 2.00468 35.3314 2.17689 34.4732 3.80502L33.7095 5.23747L31.0719 7.87535C28.7334 10.2001 28.4264 10.5289 28.4264 10.7481C28.4264 11.1081 28.6626 11.3508 29.009 11.3508C29.2846 11.3508 29.4263 11.2256 31.7569 8.90859L34.2134 6.4664L34.8433 7.0926L35.4731 7.7188L29.3869 13.7617L23.3086 19.8124L22.6788 19.1862L22.0489 18.56L24.718 15.8986C26.1903 14.4349 27.4265 13.1511 27.4658 13.0415C27.6075 12.658 27.3241 12.2666 26.8911 12.2588C26.6942 12.2588 26.3793 12.5406 24.6392 14.2626L22.6236 16.2587L20.545 14.3879C19.4034 13.3625 18.4743 12.4701 18.4822 12.4075C18.4822 12.3449 18.5688 12.0161 18.6554 11.6639C19.3404 9.01818 18.7341 6.0124 17.0807 3.80502C15.7186 1.9812 13.7266 0.697483 11.4984 0.196518C10.7347 0.0243149 8.95531 -0.0539627 8.23095 0.0477943ZM10.8764 1.33934C12.711 1.67593 14.0258 2.38041 15.3564 3.71892C17.5374 5.92629 18.246 8.98687 17.2697 11.9927C17.1516 12.384 17.0886 12.705 17.1122 12.8224C17.1437 12.9476 18.0019 13.7695 19.4585 15.0767L21.7497 17.1354L21.4741 17.4093L21.1907 17.6833L20.734 17.2684C20.1199 16.7048 19.6002 16.4778 18.9467 16.4778C18.1436 16.4778 17.8287 16.6579 16.7185 17.7616C15.6556 18.8026 15.6714 18.7791 15.8761 19.5541C15.9391 19.8124 15.9863 20.1177 15.9706 20.2272C15.9469 20.3995 15.758 20.2272 14.4274 18.7713C13.5692 17.832 12.8212 17.0884 12.7188 17.0649C12.6243 17.0414 12.2622 17.1119 11.9157 17.2136C9.98673 17.8242 7.69556 17.652 5.86104 16.7596C2.59355 15.1785 0.759035 11.6248 1.34167 8.00842L1.44403 7.39788L3.6171 9.55046C6.01063 11.9222 6.17598 12.0396 7.01056 12.0396C7.80578 12.0396 8.03411 11.8831 9.85289 10.0906C11.8291 8.14932 12.0496 7.8597 12.1047 7.13956C12.1834 6.20808 12.1519 6.16112 9.65605 3.66413C8.44353 2.45086 7.46723 1.45676 7.48297 1.44893C8.53802 1.19845 9.88438 1.15931 10.8764 1.33934ZM38.6619 5.76191C38.6619 5.7854 38.158 6.05936 37.5517 6.38029L36.4416 6.95953L35.7015 6.22374L34.9692 5.48795L35.5676 4.36078L36.166 3.24144L37.41 4.4782C38.1029 5.15919 38.6619 5.73843 38.6619 5.76191ZM19.2144 17.7381C19.427 17.7929 20.0333 18.3565 21.8048 20.1098C24.0409 22.3407 24.1117 22.4268 24.1511 22.7634C24.2062 23.233 24.0881 23.4365 23.3323 24.1723C22.726 24.7751 22.7102 24.7829 22.4426 24.7046C22.0331 24.5872 20.8836 24.6107 20.3561 24.7437C18.3247 25.2604 16.9233 27.0529 16.9311 29.1194C16.9311 29.5107 16.9626 29.9569 17.002 30.1213L17.065 30.4031L13.1991 34.2386C9.04192 38.3637 9.01042 38.3872 7.90027 38.6768C6.3177 39.0838 4.5383 38.4107 3.62498 37.0565C2.75102 35.7493 2.7274 33.9568 3.58561 32.6574C3.72733 32.4382 5.5461 30.5753 7.62469 28.5088L11.404 24.7672L11.9079 24.8533C12.5771 24.9707 12.9157 24.9629 13.5849 24.822C15.9312 24.3289 17.5138 22.1059 17.1673 19.7654L17.0728 19.1236L17.7342 18.466C18.2854 17.9181 18.5609 17.7224 18.8995 17.6676C18.9231 17.6598 19.0648 17.6989 19.2144 17.7381Z" fill="white"/>
<path d="M8.84427 29.9726C5.8996 32.9001 5.75 33.0566 5.75 33.3306C5.75 33.5498 5.79724 33.6593 5.95471 33.7768C6.39562 34.1212 6.34838 34.1681 9.67098 30.8649C12.4818 28.0705 12.7653 27.7652 12.7731 27.5225C12.781 27.3268 12.7259 27.2173 12.5684 27.0764C12.1196 26.6928 12.1826 26.6458 8.84427 29.9726Z" fill="white"/>
<path d="M14.1288 29.1272C14.0028 29.182 12.5462 30.5831 10.8928 32.2347C7.65683 35.4597 7.6962 35.4127 8.04263 35.851C8.16073 36.0076 8.27096 36.0546 8.49141 36.0546C8.76699 36.0546 8.92446 35.9058 11.8691 32.9783C14.5933 30.2778 14.9634 29.8786 14.9634 29.6673C14.9634 29.5186 14.9004 29.3698 14.7902 29.2681C14.5304 29.0411 14.3965 29.0098 14.1288 29.1272Z" fill="white"/>
<path d="M33.7411 32.3208C33.1113 32.5713 32.6625 33.0096 32.4499 33.5732C32.4026 33.6985 32.3633 34.0116 32.3633 34.2777C32.3712 36.5086 35.4103 37.1035 36.3236 35.0448C36.5047 34.6221 36.4811 33.7376 36.2685 33.3384C36.0874 32.9862 35.678 32.587 35.308 32.4148C34.9379 32.2347 34.0797 32.1799 33.7411 32.3208ZM34.993 33.6985C35.6229 34.3482 34.9064 35.3579 34.0718 35.0057C33.5286 34.7865 33.4183 34.1446 33.8435 33.6828C34.0088 33.5106 34.1112 33.4715 34.4104 33.4715C34.7096 33.4715 34.8119 33.5106 34.993 33.6985Z" fill="white"/>
</g>
<defs>
<clipPath id="clip0_523_2826">
<rect width="40" height="40" fill="white"/>
</clipPath>
</defs>
</svg>
