<svg width="40" height="40" viewBox="0 0 40 40" fill="none" xmlns="http://www.w3.org/2000/svg">
<g clip-path="url(#clip0_449_3308)">
<path d="M19.375 2.8125V5.625H17.906C16.8433 5.625 16.3119 5.65625 15.9759 5.74219C14.5225 6.125 13.4051 7.34375 13.1785 8.82812L13.0926 9.35938L11.6392 9.39062C10.3499 9.42188 10.1389 9.44531 9.64664 9.61719C9.06841 9.82031 0.38712 14.9609 0.137074 15.25C-0.0660883 15.4766 -0.0426465 15.8281 0.191772 16.0547L0.379306 16.25H20.0001H39.6209L39.8084 16.0547C40.0429 15.8281 40.0663 15.4766 39.871 15.25C39.6131 14.9609 30.9318 9.82031 30.3536 9.61719C29.8613 9.44531 29.6503 9.42188 28.3532 9.39062L26.8998 9.35938L26.8217 8.82031C26.5873 7.34375 25.4855 6.125 24.0243 5.74219C23.6883 5.65625 23.1569 5.625 22.0942 5.625H20.6252V2.8125V0H20.0001H19.375V2.8125ZM24.2821 7.17969C24.5556 7.32812 24.8604 7.55469 24.9698 7.67969C25.2667 8.03125 25.5246 8.59375 25.5871 9.00781L25.6418 9.375H20.0001H14.3584L14.4131 9.00781C14.4757 8.59375 14.7335 8.03125 15.0304 7.67969C15.2414 7.42969 15.9056 7.03906 16.2807 6.94531C16.4135 6.91406 18.156 6.89062 20.1564 6.89844L23.7899 6.91406L24.2821 7.17969ZM29.9238 10.8047C30.2364 10.9141 31.7288 11.7578 33.7448 12.9688L37.0658 14.9609L28.5329 14.9844C23.8368 14.9922 16.1635 14.9922 11.4673 14.9844L2.93446 14.9609L6.25539 12.9688C8.27139 11.7578 9.76385 10.9141 10.0764 10.8047L10.5843 10.6328H20.0001H29.4159L29.9238 10.8047Z" fill="#0052DA"/>
<path d="M5.91171 1.3436C5.83357 1.39829 5.52101 1.89829 5.20846 2.45297L4.64585 3.46079L3.63004 4.01547C2.84083 4.45297 2.5986 4.61704 2.5439 4.78891C2.38762 5.2186 2.53609 5.38266 3.63004 5.98422L4.64585 6.53891L5.2319 7.58579C5.87264 8.71079 6.02892 8.85922 6.45869 8.70297C6.63059 8.64829 6.79469 8.4061 7.23227 7.61704L7.78706 6.60141L8.83413 6.01547C9.95933 5.37485 10.1078 5.2186 9.95152 4.78891C9.89682 4.61704 9.64677 4.44516 8.84975 3.99985L7.81831 3.42954L7.25571 2.41391C6.95097 1.85922 6.63841 1.36704 6.56027 1.32797C6.35711 1.2186 6.06799 1.23422 5.91171 1.3436ZM6.52901 3.68735C6.8025 4.24204 6.99004 4.42954 7.52138 4.69516C7.76362 4.82016 7.96678 4.95297 7.96678 4.99985C7.96678 5.03891 7.72455 5.19516 7.42762 5.35141C6.92752 5.61704 6.86501 5.67954 6.59934 6.17954C6.44306 6.47641 6.28678 6.7186 6.24771 6.7186C6.20083 6.7186 6.06799 6.51547 5.94297 6.26547C5.67729 5.74204 5.48976 5.55454 4.94278 5.2811C4.71618 5.16391 4.52864 5.03891 4.52864 4.99985C4.52864 4.96079 4.73181 4.82016 4.98185 4.69516C5.50539 4.42954 5.69292 4.24204 5.96641 3.68735C6.08362 3.4686 6.20864 3.2811 6.24771 3.2811C6.28678 3.2811 6.4118 3.4686 6.52901 3.68735Z" fill="#E83A15"/>
<path d="M30.627 5V5.625H31.252H31.877V5V4.375H31.252H30.627V5Z" fill="#E83A15"/>
<path d="M17.6949 17.0703L17.4995 17.2578V19.4062C17.4995 20.5859 17.4604 21.8203 17.4136 22.1484C17.3198 22.8594 17.0619 23.9062 16.9603 24.0078C16.9135 24.0547 16.5696 23.9609 16.0774 23.7656C15.0537 23.3672 14.9365 23.3438 14.4599 23.4453C13.9051 23.5625 13.4675 23.9062 13.2331 24.3984C12.7721 25.3906 13.155 26.3359 14.2411 26.8828C14.4833 27.0078 14.6865 27.125 14.6865 27.1406C14.6865 27.1562 14.6005 27.3203 14.499 27.5078C14.3974 27.6953 14.2333 28.0703 14.1395 28.3438C13.9832 28.7812 13.9442 28.8281 13.7957 28.7734C13.7019 28.7344 13.3816 28.7109 13.0768 28.7109C12.6002 28.7109 12.4751 28.7422 12.1391 28.9453C11.2093 29.5234 10.9436 30.9219 11.6156 31.7188C11.725 31.8516 12.4126 32.4922 13.1471 33.1484L14.4833 34.3359L13.6941 34.3828C13.0143 34.4141 12.858 34.4531 12.5924 34.625C12.1157 34.9453 11.9125 35.3281 11.9125 35.9375C11.9125 36.5469 12.1157 36.9297 12.6002 37.25C12.9049 37.4531 12.9518 37.4609 14.2098 37.4844L15.507 37.5078L17.4448 38.3359L19.3749 39.1562V39.5781V40H20H20.6251V39.2656C20.6251 38.6797 20.5938 38.5 20.4922 38.375C20.4141 38.2812 19.3514 37.7812 18.1246 37.25L15.8976 36.2891L14.5771 36.25C13.4363 36.2188 13.2487 36.1953 13.1706 36.0703C13.1081 35.9766 13.1081 35.8984 13.1706 35.7969C13.2487 35.6797 13.4206 35.6641 14.5537 35.6406L15.8586 35.625L16.4212 36.0547C17.1401 36.6016 18.0699 37.0625 18.8669 37.2656C20.0859 37.5781 21.7268 37.5469 22.7739 37.1875L23.2193 37.0391L23.1646 37.8906L23.1021 38.75H23.7428H24.3758V38.3906C24.3758 37.2656 24.8915 35.2188 25.3994 34.3203C25.6729 33.8281 25.6885 33.5859 25.4541 33.3359C25.3525 33.2266 24.3367 32.3672 23.1959 31.4219C21.344 29.8906 21.0861 29.6484 20.9064 29.2812C20.672 28.7891 20.5235 28.1719 20.5626 27.7812L20.586 27.5L24.3523 30.4531L28.1265 33.3984V36.6953V40H28.7516H29.3767L29.3611 36.3906L29.3376 32.7734L28.4234 32.0469L27.5013 31.3125V30.7031C27.5013 28.7812 26.7668 27.0391 25.3916 25.6953C24.7274 25.0469 24.4227 24.5391 24.1492 23.6328C23.821 22.5156 23.7507 21.8203 23.7507 19.4766V17.2578L23.5553 17.0703L23.3678 16.875H20.6251H17.8824L17.6949 17.0703ZM22.5004 18.4375V18.75H20.6251H18.7497V18.4375V18.125H20.6251H22.5004V18.4375ZM22.5004 20.3125V20.625H20.6251H18.7497V20.3125V20H20.6251H22.5004V20.3125ZM22.5629 22.1484C22.6098 22.6328 22.8364 23.6484 23.024 24.2188C23.3756 25.2578 23.6413 25.6875 24.4461 26.5234C25.5088 27.6172 26.048 28.6562 26.2042 29.9141L26.2589 30.3359L25.962 30.1094C25.7979 29.9922 24.4383 28.9297 22.938 27.7578C20.0703 25.5078 19.9843 25.4609 19.6093 25.7656C19.3905 25.9453 19.3045 26.3906 19.2967 27.4062C19.2967 28.7891 19.664 29.9453 20.3282 30.6328C20.5157 30.8203 21.4455 31.6172 22.4067 32.4062C23.36 33.1953 24.1414 33.875 24.1414 33.9219C24.1414 33.9609 24.0085 34.3281 23.8522 34.7344C23.5709 35.4531 23.5553 35.4688 23.1255 35.6953C22.4926 36.0312 21.93 36.1719 21.0548 36.2266C19.7343 36.2969 18.6091 36.0078 17.562 35.3203C15.0537 33.6562 14.288 30.4609 15.7648 27.8125C15.9289 27.5156 16.3509 26.9844 16.8041 26.5234C17.5933 25.7109 17.8668 25.2734 18.2028 24.2969C18.4137 23.6797 18.6638 22.5469 18.6716 22.2188C18.6716 22.0859 18.695 21.9531 18.7263 21.9219C18.7576 21.8984 19.6249 21.8828 20.6563 21.8906L22.5395 21.9141L22.5629 22.1484ZM15.5616 24.8984C15.9602 25.0547 16.304 25.1875 16.3196 25.2031C16.3352 25.2188 16.1399 25.4141 15.8898 25.6484L15.4288 26.0781L14.9131 25.8125C14.624 25.6719 14.3739 25.5 14.3427 25.4297C14.1942 25.0391 14.3583 24.7656 14.8193 24.6172C14.835 24.6094 15.171 24.7344 15.5616 24.8984ZM13.53 30.0781C13.7097 30.2109 13.7332 30.2969 13.7723 30.9922C13.8035 31.4141 13.8504 31.8438 13.8817 31.9531C13.9285 32.1328 13.8973 32.1172 13.5457 31.8203C12.6002 31.0234 12.4986 30.9062 12.4986 30.5625C12.4986 30.3125 12.5455 30.2109 12.7017 30.0859C12.9596 29.8828 13.28 29.875 13.53 30.0781Z" fill="#0052DA"/>
<path d="M16.2495 30.7578C16.2573 31.1016 16.5073 31.9219 16.7651 32.4453C16.9683 32.8359 17.2339 33.1875 17.6558 33.6094C17.9917 33.9453 18.2964 34.2188 18.3433 34.2188C18.3901 34.2188 18.5776 34 18.7573 33.7344L19.0854 33.2578L18.687 32.8984C18.1401 32.4062 17.7729 31.8281 17.6089 31.1719L17.4683 30.625H16.8589C16.3276 30.625 16.2495 30.6406 16.2495 30.7578Z" fill="#E83A15"/>
<path d="M30.2911 18.2186C30.213 18.2733 29.9004 18.7733 29.5879 19.328L29.0252 20.3358L28.0094 20.8905C27.2202 21.328 26.978 21.492 26.9233 21.6639C26.767 22.0936 26.9155 22.2577 28.0094 22.8592L29.0252 23.4139L29.6113 24.4608C30.252 25.5858 30.4083 25.7342 30.8381 25.578C31.01 25.5233 31.1819 25.2811 31.6117 24.492L32.1743 23.4764L33.2135 22.8905C34.3387 22.2498 34.4872 22.0936 34.3309 21.6639C34.2762 21.492 34.0262 21.3202 33.2291 20.8748L32.1977 20.3045L31.6351 19.2889C31.3304 18.7342 31.0178 18.242 30.9397 18.203C30.7365 18.0936 30.4474 18.1092 30.2911 18.2186ZM30.9084 20.5623C31.1819 21.117 31.3694 21.3045 31.9008 21.5702C32.143 21.6952 32.3462 21.828 32.3462 21.8748C32.3462 21.9139 32.1039 22.0702 31.807 22.2264C31.3069 22.492 31.2444 22.5545 30.9787 23.0545C30.8225 23.3514 30.6662 23.5936 30.6271 23.5936C30.5802 23.5936 30.4474 23.3905 30.3224 23.1405C30.0567 22.617 29.8692 22.4295 29.3222 22.1561C29.0956 22.0389 28.908 21.9139 28.908 21.8748C28.908 21.8358 29.1112 21.6952 29.3612 21.5702C29.8848 21.3045 30.0723 21.117 30.3458 20.5623C30.463 20.3436 30.588 20.1561 30.6271 20.1561C30.6662 20.1561 30.7912 20.3436 30.9084 20.5623Z" fill="#E83A15"/>
<path d="M8.12305 20.625V21.25H8.74805H9.37305V20.625V20H8.74805H8.12305V20.625Z" fill="#E83A15"/>
<path d="M4.69238 25.7108C3.80176 25.9687 3.12207 26.8749 3.12207 27.8202C3.12207 28.7187 3.80176 29.6405 4.64551 29.8905C5.70801 30.1952 6.74707 29.7577 7.23926 28.7968C8.09863 27.1093 6.52051 25.1874 4.69238 25.7108ZM5.96582 27.1796C6.16895 27.3905 6.20801 27.4843 6.20801 27.8124C6.20801 28.1483 6.16895 28.2343 5.9502 28.453C5.73145 28.6718 5.64551 28.7108 5.30957 28.7108C4.97363 28.7108 4.8877 28.6718 4.66895 28.453C4.4502 28.2343 4.41113 28.1483 4.41113 27.8202C4.41113 27.414 4.60645 27.1015 4.95801 26.9452C5.24707 26.8202 5.70801 26.9218 5.96582 27.1796Z" fill="#E83A15"/>
</g>
<defs>
<clipPath id="clip0_449_3308">
<rect width="40" height="40" fill="white"/>
</clipPath>
</defs>
</svg>
