<svg width="36" height="36" viewBox="0 0 36 36" fill="none" xmlns="http://www.w3.org/2000/svg">
<g clip-path="url(#clip0_449_3324)">
<path d="M6.30689 0.0733113C5.13977 0.373727 4.35934 1.53688 4.35934 3.00815V3.52425L2.90396 3.54735C1.22359 3.57046 1.1111 3.60898 0.548628 4.29454C-0.0279011 4.99551 0.000222209 4.54874 0.000222209 12.5521V19.6312L0.204117 19.8777C0.372857 20.0856 0.457227 20.1319 0.703307 20.1319C0.949386 20.1319 1.03376 20.0856 1.2025 19.8777L1.40639 19.6312V16.3574V13.0836H17.9992H34.592V20.0163V26.949H31.6953C29.0235 26.949 28.7704 26.9644 28.5103 27.0954C28.1728 27.2648 27.9549 27.5113 27.8072 27.8888C27.7158 28.1353 27.7017 28.6591 27.7017 31.3397V34.4979H14.8705C3.5297 34.4979 2.01104 34.4825 1.82824 34.3824C1.39936 34.1436 1.40639 34.1821 1.40639 30.0302C1.40639 25.9245 1.40639 25.9245 1.01969 25.7319C0.64706 25.5471 0.218178 25.7088 0.0775615 26.0863C0.0142839 26.248 0.00022221 27.3573 0.0142839 30.3075L0.0353764 34.3053L0.225209 34.6905C0.464258 35.1912 0.935324 35.6688 1.37827 35.8536C1.71575 35.9923 2.11651 36 15.2079 36H28.6861L32.3421 31.9945L35.9981 27.9812L35.9841 16.5885L35.963 5.18809L35.7732 4.79524C35.5763 4.38698 35.1755 3.94021 34.7888 3.70912C34.592 3.59357 34.3459 3.57046 33.1085 3.54735L31.6601 3.52425L31.6179 2.85409C31.5546 1.5985 31.0836 0.774282 30.1766 0.281292C29.7547 0.0502023 29.6423 0.0270934 29.1079 0.0270934C28.5876 0.0270934 28.454 0.0579053 28.0533 0.265886C27.5049 0.550896 27.0619 1.02848 26.8088 1.5985C26.6612 1.92203 26.612 2.16852 26.5838 2.75395L26.5417 3.49343L23.5465 3.51654L20.5443 3.53195L20.5162 2.82327C20.4811 1.91432 20.249 1.31349 19.7428 0.789688C19.2085 0.242777 18.7234 0.0270934 17.9992 0.0270934C17.275 0.0270934 16.7899 0.242777 16.2555 0.789688C15.7493 1.31349 15.5173 1.91432 15.4821 2.82327L15.454 3.53195L12.4518 3.51654L9.45671 3.49343L9.41452 2.75395C9.3864 2.16852 9.33718 1.92203 9.18953 1.5985C8.66222 0.412242 7.45995 -0.227105 6.30689 0.0733113ZM7.51619 1.73715C7.61463 1.82189 7.7693 2.00676 7.8607 2.14541C8.00835 2.39191 8.01538 2.45353 8.01538 4.26373C8.01538 6.07393 8.00835 6.13555 7.8607 6.38205C7.62166 6.7672 7.36151 6.93666 6.98185 6.97518C6.52484 7.01369 6.13815 6.7749 5.92722 6.30502C5.77254 5.9815 5.76551 5.87365 5.76551 4.26373C5.76551 2.65381 5.77254 2.54597 5.92722 2.22244C6.21549 1.58309 7.02403 1.3366 7.51619 1.73715ZM18.6741 1.79878C19.1101 2.16082 19.1311 2.31488 19.1101 4.37928C19.089 6.39746 19.0819 6.40516 18.6038 6.79801C18.3296 7.0214 17.6687 7.0214 17.3945 6.79801C16.9164 6.41286 16.9094 6.38975 16.8883 4.4332C16.8742 3.33167 16.8953 2.53826 16.9375 2.3688C17.1484 1.5985 18.0695 1.29038 18.6741 1.79878ZM29.6001 1.69864C29.8321 1.82959 29.9586 1.96824 30.0782 2.22244C30.2258 2.54597 30.2328 2.65381 30.2328 4.26373C30.2328 5.87365 30.2258 5.9815 30.0782 6.30502C29.8602 6.7749 29.4735 7.01369 29.0165 6.97518C28.6368 6.93666 28.3767 6.7672 28.1447 6.38205C27.99 6.13555 27.983 6.06623 27.983 4.28684C27.983 2.32258 27.997 2.21474 28.3486 1.8604C28.7001 1.49836 29.129 1.44444 29.6001 1.69864ZM4.37341 5.75811C4.43668 6.91356 4.92181 7.76088 5.79364 8.23076C6.91154 8.8316 8.26849 8.45415 8.96455 7.35263C9.28797 6.82882 9.42155 6.34354 9.42155 5.63486V5.07254H12.4378H15.454L15.4821 5.7427C15.5384 6.93666 16.0516 7.8148 16.9797 8.28469C17.3383 8.46956 17.4859 8.50037 17.9992 8.50037C18.4984 8.49267 18.6671 8.46185 19.0187 8.28469C19.9397 7.8148 20.46 6.93666 20.5162 5.7427L20.5443 5.07254H23.5606H26.5768V5.63486C26.5768 6.33583 26.7104 6.85963 27.0198 7.32181C27.9127 8.70835 29.6563 8.92403 30.7883 7.7994C31.3437 7.26019 31.639 6.47449 31.639 5.55013V5.07254H32.8975C34.135 5.07254 34.1701 5.08025 34.36 5.25742L34.5568 5.44229L34.5779 8.49267L34.599 11.543H17.9992H1.39936L1.42045 8.49267L1.44154 5.44229L1.63841 5.25742C1.82824 5.08025 1.8634 5.07254 3.08676 5.07254H4.33825L4.37341 5.75811ZM33.5373 28.5127C33.5373 28.5204 32.539 29.6219 31.3226 30.9545L29.1079 33.381V30.9314V28.4896H31.3226C32.539 28.4896 33.5373 28.4973 33.5373 28.5127Z" fill="#0052DA"/>
<path d="M16.9445 15.4021C14.1392 15.8027 11.6011 18.0442 10.6238 20.9868C10.0262 22.7739 10.0051 24.8845 10.5605 26.6793C11.4675 29.5987 13.7877 31.8018 16.5789 32.3872C17.2609 32.5258 18.7514 32.5258 19.4545 32.3795C21.0576 32.0483 22.5833 31.1239 23.7082 29.8144C27.0338 25.9321 26.394 19.7851 22.3442 16.7733C20.8396 15.6486 18.8147 15.1402 16.9445 15.4021ZM17.2961 17.2817C17.2961 17.7207 17.4156 17.998 17.6546 18.1367C18.2101 18.4448 18.7022 18.0442 18.7022 17.2817C18.7022 16.9658 18.7163 16.935 18.8639 16.935C19.4545 16.935 21.0365 17.6129 21.7114 18.1598L22.0138 18.4063L21.7677 18.7067C21.6271 18.8762 21.5005 19.0996 21.4724 19.1997C21.3669 19.6619 21.7396 20.1318 22.1895 20.1163C22.3864 20.1086 22.5129 20.0393 22.7239 19.8082L23.0051 19.5155L23.216 19.7851C23.5254 20.1934 24.0879 21.5106 24.2496 22.2424C24.4675 23.1898 24.4675 23.1744 24.0035 23.1744C23.666 23.1744 23.5887 23.2052 23.4059 23.3978C23.2512 23.5673 23.202 23.6982 23.202 23.9216C23.209 24.4223 23.5254 24.715 24.0738 24.715C24.2496 24.715 24.3972 24.7458 24.3972 24.7844C24.3972 24.8229 24.348 25.1002 24.2917 25.4006C24.1371 26.2094 23.8137 27.0721 23.4059 27.75L23.0473 28.3508L22.8223 28.1197C22.3723 27.6499 22.0559 27.6036 21.7114 27.9426C21.5216 28.1274 21.4794 28.2199 21.4794 28.4818C21.4794 28.7437 21.5286 28.8438 21.7606 29.1057L22.0419 29.4215L21.8661 29.5756C21.2615 30.0994 20.1506 30.6463 19.3209 30.8312C19.0256 30.9005 18.7655 30.9544 18.7514 30.9544C18.7304 30.9544 18.7022 30.7388 18.6882 30.4768C18.66 30.084 18.6249 29.9762 18.4632 29.8221C18.1819 29.5602 17.7671 29.5756 17.5 29.8683C17.3242 30.0686 17.2961 30.1533 17.2961 30.5308V30.9621L17.0359 30.9159C16.0375 30.731 14.8142 30.1687 14.1322 29.5756L13.9564 29.4215L14.2376 29.1057C14.4697 28.8438 14.5189 28.7437 14.5189 28.4818C14.5189 28.2199 14.4767 28.1274 14.2869 27.9426C13.9424 27.6036 13.626 27.6499 13.176 28.1197L12.958 28.3431L12.6276 27.8116C12.1284 26.9874 11.7558 25.9552 11.6433 25.0771L11.5941 24.715H11.9175C12.4729 24.715 12.7893 24.4223 12.7963 23.9216C12.7963 23.6982 12.7471 23.5673 12.5924 23.3978C12.4096 23.2052 12.3323 23.1744 11.9948 23.1744C11.5308 23.1744 11.5378 23.1975 11.7417 22.2501C11.9034 21.526 12.4588 20.2011 12.7823 19.7851L12.9932 19.5155L13.2674 19.7928C13.415 19.9469 13.6119 20.0932 13.7033 20.1163C13.9705 20.1857 14.329 19.9854 14.4556 19.685C14.6033 19.3383 14.547 19.0919 14.2306 18.7067L13.9845 18.4063L14.2869 18.1598C14.9407 17.636 16.5016 16.9504 17.1062 16.9427C17.282 16.935 17.2961 16.9504 17.2961 17.2817Z" fill="#E83A15"/>
<path d="M17.6055 20.2319C17.3313 20.4707 17.2961 20.6556 17.2961 21.8572V23.0204H16.6001C15.9743 23.0204 15.8759 23.0358 15.7142 23.1975C15.5947 23.3054 15.5173 23.4749 15.4892 23.6828C15.454 23.9601 15.4822 24.0372 15.665 24.2606L15.8759 24.5225H17.0852H18.2945L18.4984 24.2683L18.7023 24.0218V22.3579C18.7023 21.2872 18.6742 20.6402 18.6249 20.5323C18.4984 20.2627 18.2664 20.0932 17.9992 20.0932C17.8656 20.0932 17.6828 20.1549 17.6055 20.2319Z" fill="#E83A15"/>
<path d="M0.197157 22.4043C0.00732422 22.62 -0.0137683 22.6816 0.0213859 22.9666C0.0987252 23.5983 0.738532 23.8602 1.17444 23.4519C1.33615 23.2979 1.37131 23.2054 1.37131 22.905C1.37131 22.6046 1.33615 22.5122 1.17444 22.3581C0.879149 22.0808 0.478391 22.1039 0.197157 22.4043Z" fill="#E83A15"/>
</g>
<defs>
<clipPath id="clip0_449_3324">
<rect width="36" height="36" fill="white"/>
</clipPath>
</defs>
</svg>
