<svg width="34" height="40" viewBox="0 0 34 40" fill="none" xmlns="http://www.w3.org/2000/svg">
<g clip-path="url(#clip0_449_3336)">
<path d="M13.0657 0.0624466C12.6807 0.187424 12.2235 0.445198 12.0149 0.671722C11.7743 0.913872 11.4615 1.4841 11.4615 1.66375C11.4615 1.73406 11.261 1.84341 10.9241 1.94496C9.6167 2.35896 8.46169 3.06197 7.44304 4.04619C6.68908 4.78826 6.22387 5.40535 5.76668 6.31146C5.11699 7.56908 4.88438 8.59235 4.88438 10.1937V11.381L4.02615 11.4044C3.25614 11.4357 3.11979 11.4591 2.78291 11.6544C2.23749 11.959 1.98082 12.4199 1.9327 13.1619C1.88457 13.8728 2.01291 14.3961 2.32572 14.7711C2.56635 15.0679 2.56635 15.0679 2.44604 15.4506C2.24551 16.1068 2.21343 16.6301 2.34176 17.2238C2.5102 17.9815 2.80697 18.5283 3.36042 19.0673C3.80958 19.5047 4.6598 19.989 4.98063 19.989C5.16511 19.989 5.18917 20.0359 5.37365 20.7857C5.56616 21.5122 6.07949 22.6448 6.5447 23.3244C7.01793 24.0274 8.13284 25.1132 8.8868 25.5975L9.56055 26.0349L9.04722 26.1287C7.78794 26.3552 6.13564 27.0426 4.98063 27.8237C1.84447 29.9327 -0.112624 33.5337 0.00768938 36.9941C0.031752 37.8612 0.0477938 37.9393 0.304462 38.408C0.633318 38.9938 1.13061 39.4625 1.7402 39.7359C2.18135 39.939 2.26156 39.9468 3.7775 39.9702L5.35761 40.0015L5.56616 39.7984C5.82282 39.5484 5.82282 39.2516 5.56616 39.0094C5.37365 38.8142 5.34959 38.8142 3.97802 38.8142C2.62249 38.8142 2.57437 38.8063 2.14926 38.5954C1.86853 38.4626 1.63593 38.2674 1.47551 38.0486C1.25093 37.7362 1.23488 37.6425 1.21082 36.9316C1.12259 34.6039 2.17333 32.0652 3.99406 30.2061C5.26136 28.9017 6.81741 27.9643 8.54992 27.4566L8.72638 27.4019L8.75044 29.4328L8.77451 31.4637L9.01513 31.7059C9.28784 31.9871 9.72899 32.1199 10.0659 32.0262C10.1942 31.9949 10.884 31.5887 11.6059 31.1279C12.3197 30.6748 12.9454 30.2999 12.9855 30.2999C13.0336 30.2999 13.0657 31.8856 13.0657 34.557V38.8142H10.2183H7.36283L7.17033 39.0094C6.91366 39.2516 6.91366 39.5484 7.17033 39.7984L7.37085 39.9858L16.2099 39.9702L25.0569 39.9468L25.5141 39.7359C25.7707 39.6187 26.1477 39.3688 26.3643 39.1735L26.7573 38.8142L26.9899 39.0563C28.0808 40.1655 29.9817 40.2749 31.257 39.2828C31.8987 38.7985 32.396 37.869 32.396 37.1816C32.396 36.8926 32.412 36.877 32.6928 36.8223C32.8692 36.791 33.0938 36.6661 33.2542 36.5098L33.5189 36.2521V33.9477C33.5189 31.7371 33.5109 31.6434 33.3505 31.4403C33.158 31.206 32.797 31.0029 32.5564 31.0029C32.404 31.0029 32.396 30.956 32.396 30.3467V29.6984L32.7248 29.6515C33.166 29.5969 33.6392 29.2688 33.8397 28.8938C33.9761 28.6361 34.0002 28.433 34.0002 27.6831C34.0002 26.6129 33.8798 26.2927 33.3424 25.949C33.0377 25.7459 32.9414 25.7303 32.0591 25.7068L31.1126 25.6756V22.184C31.1126 18.8954 31.1046 18.6767 30.9683 18.5595C30.7517 18.3721 30.2865 18.3877 30.102 18.5908C29.9576 18.747 29.9496 18.9423 29.9256 22.223L29.9015 25.6912H29.2277H28.546V20.2233V14.7554H29.2197H29.8935L29.9256 15.8022C29.9576 17.0129 30.0298 17.1769 30.5512 17.1769C31.0565 17.1769 31.1126 17.0441 31.1126 15.8334V14.7711L31.3773 14.7242C31.8666 14.6383 32.027 14.3649 32.797 12.3496C33.1981 11.3029 33.5189 10.3968 33.5189 10.3265C33.5189 10.1155 32.1473 5.04604 32.019 4.77264C31.7944 4.31178 31.6741 4.28834 29.2919 4.28834C27.3268 4.28834 27.1182 4.30396 26.8937 4.43676C26.7573 4.51487 26.6049 4.68672 26.5568 4.80389C26.4044 5.17102 25.0168 10.1468 25.0168 10.3186C25.0168 10.4827 26.2841 13.7165 26.5568 14.2399C26.6691 14.4508 26.8054 14.5758 27.03 14.6617L27.3428 14.7789V20.239V25.6912H26.5247C25.5622 25.6912 25.1612 25.8318 24.8323 26.2536C24.327 26.8942 24.327 28.472 24.8323 29.1126C25.0489 29.3938 25.5702 29.6672 25.883 29.675C26.0595 29.675 26.0595 29.6828 26.0595 30.8232V31.9793L25.7226 31.4325C24.9526 30.1671 23.8217 28.9485 22.5704 28.0346C21.4796 27.23 19.6267 26.4177 18.2792 26.1443C18.0146 26.0974 17.798 26.0271 17.798 25.9959C17.798 25.9724 18.0226 25.8162 18.2953 25.6444C18.9049 25.285 19.9315 24.3399 20.4609 23.6603C20.9903 22.9885 21.6721 21.6059 21.8967 20.7545C22.0651 20.0905 22.0811 20.0671 22.3619 19.9812C24.335 19.3641 25.4419 17.3175 24.8082 15.4428L24.6879 15.0757L24.9285 14.7789C25.2414 14.3883 25.3697 13.8728 25.3216 13.1541C25.2734 12.4199 24.9847 11.92 24.4553 11.6309C24.1505 11.4747 23.958 11.4357 23.2843 11.4122L22.4661 11.381L22.41 10.1937C22.2977 7.85028 21.9608 6.96761 21.255 7.24881C20.894 7.39723 20.8138 7.68624 20.9662 8.26428C21.1106 8.80326 21.2389 10.0452 21.247 10.8654V11.3966H13.6672H6.08751V10.303C6.08751 9.6 6.13564 8.98291 6.21585 8.60016C6.6971 6.3349 8.30929 4.34302 10.4509 3.39005C11.3893 2.96824 11.3813 2.96824 11.3813 3.37442C11.3813 4.63204 12.3679 5.61626 13.6271 5.61626C14.8864 5.61626 15.873 4.63204 15.873 3.37442C15.873 2.96824 15.865 2.96824 16.8034 3.39005C17.8862 3.86653 18.8407 4.6086 19.5706 5.52252C19.8032 5.81154 20.0438 6.09275 20.116 6.13961C20.2925 6.28802 20.6614 6.26459 20.8459 6.08493C21.2069 5.73343 20.9743 5.22569 19.9797 4.20242C19.0172 3.20258 17.8461 2.46051 16.5387 2.02308C16.0735 1.86685 15.7928 1.72625 15.7928 1.65594C15.7928 1.46848 15.4158 0.820137 15.1752 0.609234C14.6538 0.132748 13.6432 -0.125027 13.0657 0.0624466ZM14.2367 1.35912C14.5576 1.56221 14.6698 1.92934 14.6698 2.8042C14.6698 4.00714 14.3891 4.44457 13.6191 4.44457C13.1459 4.44457 12.793 4.18679 12.6566 3.74936C12.5122 3.27288 12.5924 1.88247 12.7849 1.60126C13.0817 1.17165 13.7635 1.05448 14.2367 1.35912ZM31.0324 5.51471C31.0324 5.55377 31.3212 6.63953 31.6661 7.9362L32.2997 10.2874L31.6821 11.92L31.0565 13.5447L29.2999 13.5603L27.5434 13.5838L26.8856 11.92L26.2279 10.264L26.8536 8.07681C27.1985 6.87387 27.5032 5.79592 27.5353 5.67094L27.5835 5.46003H29.3079C30.2544 5.46003 31.0324 5.48347 31.0324 5.51471ZM23.9741 12.7245C24.1024 12.8495 24.1345 12.9823 24.1345 13.3885C24.1345 13.7947 24.1024 13.9274 23.9741 14.0524C23.8136 14.2087 23.7094 14.2087 13.6271 14.2087C3.5449 14.2087 3.44062 14.2087 3.28021 14.0524C3.03958 13.8181 3.0476 12.9979 3.29625 12.7479L3.46469 12.5683H13.6432C23.7094 12.5683 23.8136 12.5683 23.9741 12.7245ZM5.12501 17.0598C5.12501 18.9735 5.13303 18.9501 4.49938 18.497C3.7775 17.9815 3.34437 16.9817 3.50479 16.2083C3.68125 15.3647 3.66521 15.3803 4.44323 15.3803H5.12501V17.0598ZM20.9101 17.7003C20.87 20.2468 20.8459 20.403 20.3406 21.5512C19.6428 23.1135 18.3755 24.3867 16.7473 25.1444C15.6404 25.6522 14.9827 25.7928 13.6271 25.7928C12.6807 25.7928 12.3438 25.7615 11.8224 25.6209C9.62472 25.0429 7.78794 23.5197 6.91366 21.5512C6.40835 20.403 6.38428 20.2468 6.34418 17.7003L6.3121 15.3803H13.6271H20.9422L20.9101 17.7003ZM23.6051 15.6381C24.0302 16.6301 23.6452 17.8956 22.7308 18.5049C22.1132 18.9188 22.1293 18.9579 22.1293 17.0598V15.3803H22.811H23.4928L23.6051 15.6381ZM32.7008 26.9566C32.7569 27.0113 32.797 27.3082 32.797 27.73C32.797 28.2767 32.773 28.4174 32.6687 28.4564C32.5965 28.4798 31.0485 28.5033 29.2277 28.5033C26.3162 28.5033 25.8911 28.4877 25.7868 28.3783C25.6905 28.2924 25.6584 28.1049 25.6584 27.6831C25.6584 27.2613 25.6905 27.0738 25.7868 26.9879C25.8911 26.8785 26.3242 26.8629 29.2598 26.8629C31.7543 26.8629 32.6286 26.8863 32.7008 26.9566ZM14.6698 26.9957C14.6698 27.0738 13.6833 28.5814 13.6271 28.5814C13.571 28.5814 12.5844 27.0738 12.5844 26.9957C12.5844 26.9879 13.0577 26.9801 13.6271 26.9801C14.2046 26.9801 14.6698 26.9879 14.6698 26.9957ZM11.8786 28.1361L12.4962 29.1672L11.2369 29.964L9.97764 30.7607L9.95357 28.9954C9.94555 28.0268 9.95357 27.2144 9.97764 27.191C10.0258 27.1363 11.1647 27.0426 11.2209 27.0816C11.2369 27.0972 11.5337 27.5659 11.8786 28.1361ZM17.2766 27.191C17.3007 27.2144 17.3087 28.0268 17.3007 28.9954L17.2766 30.7607L16.0174 29.964L14.7581 29.1672L15.3997 28.1127L16.0334 27.0504L16.635 27.1051C16.9638 27.1285 17.2526 27.1675 17.2766 27.191ZM19.1455 27.5972C19.8834 27.8471 20.8539 28.3158 21.5919 28.7923C22.3298 29.2688 23.8297 30.7217 24.319 31.4481C25.498 33.1822 26.0996 35.0882 26.0434 36.8613C26.0194 37.6503 26.0033 37.7284 25.7788 38.0486C25.6183 38.2674 25.3857 38.4626 25.105 38.6032L24.6639 38.8142H19.4663H14.2688V34.557C14.2688 32.2136 14.2848 30.2999 14.3089 30.2999C14.325 30.2999 14.9345 30.6748 15.6484 31.1279C16.3703 31.5887 17.0601 31.9949 17.1884 32.0262C17.5253 32.1199 17.9664 31.9871 18.2391 31.7059L18.4798 31.4637L18.5038 29.4328C18.5199 28.3236 18.5359 27.4097 18.552 27.4097C18.56 27.4097 18.8327 27.4956 19.1455 27.5972ZM31.1768 30.3858L31.1527 31.0966L30.7357 31.2528C30.1421 31.4637 29.5646 31.9949 29.2518 32.6276C29.0032 33.1119 28.9871 33.2057 28.9871 33.9321C28.9871 34.6273 29.0112 34.7679 29.2197 35.2053C29.5085 35.8068 30.1341 36.3927 30.7357 36.6114L31.1527 36.7676L31.1447 37.1504C31.1126 38.2986 29.8052 39.1032 28.6342 38.697C28.1449 38.5329 27.8 38.2439 27.5353 37.7831L27.3027 37.3691L27.2787 33.5181L27.2546 29.675H29.2277H31.2009L31.1768 30.3858ZM32.3158 33.9399V35.7131L31.8265 35.6584C30.872 35.5647 30.2384 34.9944 30.1662 34.1664C30.0699 33.0026 30.7838 32.2136 31.9789 32.1824L32.3158 32.1746V33.9399Z" fill="#0052DA"/>
<path d="M9.15978 17.044C8.91113 17.2705 8.87103 17.3564 8.86301 17.6689C8.85499 18.1141 9.07155 18.4266 9.49666 18.5672C10.1223 18.7702 10.7399 18.325 10.7399 17.6689C10.7399 17.372 10.6998 17.2783 10.4672 17.0518C10.2346 16.8252 10.1383 16.7862 9.82551 16.7862C9.5127 16.7862 9.40843 16.8331 9.15978 17.044Z" fill="#0052DA"/>
<path d="M16.7874 17.0519C16.5548 17.2785 16.5146 17.3722 16.5146 17.669C16.5146 18.5126 17.4852 18.9266 18.1188 18.3486C18.7605 17.7628 18.3113 16.7863 17.3969 16.7863C17.1242 16.7863 17.0119 16.8332 16.7874 17.0519Z" fill="#0052DA"/>
<path d="M11.7263 20.3172C11.4455 20.45 11.3493 20.7703 11.4535 21.2468C11.8386 23.0043 14.0764 23.5667 15.2955 22.2154C15.7367 21.7311 15.9372 21.1218 15.8009 20.6844C15.5763 19.9579 14.7742 20.1298 14.6378 20.9187C14.5977 21.153 14.5015 21.3405 14.317 21.5202C14.0764 21.7545 13.9881 21.7858 13.6432 21.7858C13.0417 21.7858 12.5845 21.3327 12.5845 20.739C12.5845 20.5281 12.2476 20.2235 12.0311 20.2313C11.9589 20.2313 11.8225 20.2704 11.7263 20.3172Z" fill="#0052DA"/>
<path d="M13.2903 6.54584C13.1781 6.63177 12.8813 7.10044 12.6246 7.59255C12.1754 8.42836 12.1594 8.49085 12.2557 8.72519C12.3679 8.98296 12.6727 9.13137 13.0818 9.13137H13.3064L13.0658 9.54537C12.777 10.0375 12.769 10.139 12.9936 10.4124C13.1781 10.6389 13.5791 10.6936 13.8037 10.514C14.0122 10.3499 15.071 8.69394 15.071 8.52991C15.071 8.44398 14.9988 8.27994 14.9025 8.16278C14.7582 7.99093 14.678 7.95968 14.301 7.95968C14.0523 7.95968 13.8678 7.92844 13.8678 7.88157C13.8678 7.8347 13.94 7.66285 14.0283 7.49101C14.2528 7.06139 14.2368 6.75675 13.9801 6.56147C13.7155 6.35837 13.547 6.35837 13.2903 6.54584Z" fill="#E83A15"/>
</g>
<defs>
<clipPath id="clip0_449_3336">
<rect width="34" height="40" fill="white"/>
</clipPath>
</defs>
</svg>
