<svg width="40" height="40" viewBox="0 0 40 40" fill="none" xmlns="http://www.w3.org/2000/svg">
<g clip-path="url(#clip0_50_41)">
<path d="M16.9083 0.158333C16.7083 0.316666 16.7083 0.341663 16.6667 2.34166L16.625 4.36666L16.1667 4.475C14.7833 4.81667 12.9583 5.56667 11.7917 6.275L11.2917 6.58333L9.9 5.19167C8.61667 3.90833 8.48333 3.8 8.20833 3.8C7.925 3.8 7.775 3.93333 5.85833 5.85833C3.93333 7.775 3.8 7.925 3.8 8.20833C3.8 8.48333 3.90833 8.61666 5.19167 9.9L6.58333 11.2917L6.275 11.7917C5.56667 12.9583 4.81667 14.7833 4.475 16.1667L4.36667 16.625L2.34167 16.6667C0.341667 16.7083 0.316667 16.7083 0.158333 16.9083C0.00833333 17.0917 0 17.275 0 20C0 22.725 0.00833333 22.9083 0.158333 23.0917C0.316667 23.2917 0.341667 23.2917 2.34167 23.3333L4.36667 23.375L4.475 23.8333C4.81667 25.2167 5.56667 27.0417 6.275 28.2083L6.58333 28.7083L5.19167 30.1C3.90833 31.3833 3.8 31.5167 3.8 31.7917C3.8 32.0667 3.93333 32.225 5.75833 34.05C6.825 35.125 7.81667 36.0667 7.94167 36.1333C8.075 36.2083 8.25 36.2333 8.35833 36.2083C8.45833 36.175 9.15833 35.5333 9.91667 34.7833L11.2917 33.4167L11.7833 33.7167C12.9917 34.4417 14.5083 35.075 15.9 35.45L16.625 35.6417L16.6667 37.6583C16.7083 39.6583 16.7083 39.6833 16.9083 39.8417C17.0917 39.9917 17.275 40 20 40C22.725 40 22.9083 39.9917 23.0917 39.8417C23.2917 39.6833 23.2917 39.6583 23.3333 37.6583L23.375 35.6417L24.1 35.45C25.4917 35.075 27.0083 34.4417 28.2167 33.7167L28.7083 33.4167L31.625 36.325C34.775 39.4667 34.9083 39.5667 35.95 39.7583C38.1417 40.1667 40.1667 38.1417 39.7583 35.95C39.5667 34.9083 39.4667 34.775 36.325 31.625L33.4167 28.7083L33.7167 28.2167C34.4417 27.0083 35.075 25.4917 35.45 24.1L35.6417 23.375L37.6583 23.3333C39.6583 23.2917 39.6833 23.2917 39.8417 23.0917C39.9917 22.9083 40 22.725 40 20C40 17.275 39.9917 17.0917 39.8417 16.9083C39.6833 16.7083 39.6583 16.7083 37.6583 16.6667L35.6333 16.625L35.525 16.1667C35.1833 14.7833 34.4333 12.9583 33.725 11.7917L33.4167 11.2917L34.8083 9.9C36.0917 8.61666 36.2 8.48333 36.2 8.20833C36.2 7.925 36.0667 7.775 34.1417 5.85833C32.225 3.93333 32.075 3.8 31.7917 3.8C31.5167 3.8 31.3833 3.90833 30.1 5.19167L28.7083 6.575L28.375 6.36666C27.2417 5.65833 25.6583 4.98333 24.2083 4.58333L23.375 4.35833L23.3333 2.34166C23.2917 0.341663 23.2917 0.316666 23.0917 0.158333C22.9083 0.0083313 22.725 -3.8147e-06 20 -3.8147e-06C17.275 -3.8147e-06 17.0917 0.0083313 16.9083 0.158333ZM22 3.23333C22 5.00833 22.0083 5.15 22.1667 5.30833C22.35 5.50833 22.325 5.5 23.5 5.78333C25.025 6.14167 26.5417 6.79166 27.925 7.675C28.9083 8.30833 28.8583 8.325 30.45 6.75L31.8 5.425L33.1917 6.81667L34.575 8.20833L33.25 9.55C31.675 11.1417 31.6917 11.0917 32.325 12.075C33.1917 13.425 33.8667 15.0083 34.2167 16.4833C34.5 17.675 34.4917 17.65 34.6917 17.8333C34.85 17.9917 34.9917 18 36.7667 18H38.6667V20V22H36.7667C34.9917 22 34.85 22.0083 34.6917 22.1667C34.4917 22.35 34.5 22.325 34.2167 23.5167C33.95 24.625 33.55 25.675 32.9417 26.85L32.4667 27.7583L31.4917 26.7833L30.5083 25.8083L30.7167 25.4083C31.0667 24.7167 31.4083 23.7833 31.6167 22.9417C32.4583 19.6333 31.8583 16.1583 29.95 13.2833C29.3333 12.3667 28.1 11.0667 27.175 10.375C26.3167 9.725 24.8083 8.94167 23.7917 8.6C22.3583 8.125 21.7833 8.04166 19.9583 8.04166C18.4583 8.05 18.2 8.06667 17.3667 8.26666C15.1083 8.8 13.1417 9.88333 11.55 11.4583C9.7 13.2917 8.54167 15.5417 8.11667 18.1667C7.925 19.3333 8 21.4917 8.275 22.6667C8.79167 24.8583 9.76667 26.6417 11.3333 28.275C13.0583 30.0833 15.125 31.2333 17.6083 31.7667C18.7417 32.0083 21.0833 32.0333 22.1917 31.8083C23.1333 31.6167 24.2583 31.25 25.125 30.8417L25.8167 30.5167L26.7833 31.4917L27.75 32.4667L27.15 32.7917C25.8417 33.5 24.5667 34 23.275 34.2917C22.9667 34.3583 22.625 34.4333 22.525 34.4583C22.425 34.4833 22.2583 34.5833 22.1667 34.6833C22.0083 34.8583 22 34.975 22 36.7667V38.6667H20H18V36.7667C18 34.9917 17.9917 34.85 17.8333 34.6917C17.65 34.4917 17.675 34.5 16.4833 34.2167C15.0083 33.8667 13.425 33.1917 12.075 32.325C11.0917 31.6917 11.1417 31.675 9.55 33.25L8.2 34.575L6.80833 33.1833L5.425 31.7917L6.75 30.45C8.325 28.8583 8.30833 28.9083 7.675 27.925C6.81667 26.575 6.15833 25.0583 5.79167 23.5417C5.51667 22.4083 5.43333 22.1833 5.24167 22.0833C5.15833 22.0333 4.25833 22 3.21667 22H1.33333V20V18H3.23333C5.00833 18 5.15 17.9917 5.30833 17.8333C5.50833 17.65 5.5 17.675 5.78333 16.4833C6.13333 15.0083 6.80833 13.425 7.675 12.075C8.30833 11.0917 8.325 11.1417 6.75 9.55L5.425 8.2L6.81667 6.80833L8.20833 5.425L9.55 6.75C11.15 8.33333 11.0833 8.30833 12.1083 7.65833C13.4417 6.8 15.0833 6.10833 16.6667 5.74166C17.5667 5.53333 17.8167 5.43333 17.9167 5.24166C17.9667 5.15833 18 4.25833 18 3.21666V1.33333H20H22V3.23333ZM21.625 9.45833C22.8083 9.65 23.55 9.88333 24.625 10.4083C29.775 12.925 32.0083 18.8417 29.8167 24.15C29.6833 24.475 29.5417 24.75 29.5083 24.75C29.3917 24.75 25.8417 21.1083 25.7 20.8333C25.5667 20.5833 25.5417 20.3833 25.5583 19.5083C25.5833 18.2917 25.4917 17.625 25.175 16.6917C24.475 14.65 22.7333 13.0417 20.575 12.45C19.8333 12.2417 18 12.2417 17.2667 12.4417C16.5083 12.6583 15.8583 12.9583 15.7583 13.15C15.5167 13.6083 15.575 13.6917 17.5 15.625L19.3333 17.4667V18.4V19.3333H18.4H17.4667L15.625 17.5C13.6917 15.575 13.6083 15.5167 13.15 15.7583C12.9583 15.8583 12.6583 16.5083 12.4417 17.2667C12.2417 18 12.2417 19.8333 12.45 20.575C13.0417 22.7333 14.65 24.475 16.6917 25.175C17.625 25.4917 18.2917 25.5833 19.5083 25.5583C20.3833 25.5417 20.5833 25.5667 20.8333 25.7C21.1083 25.8417 24.75 29.3917 24.75 29.5083C24.75 29.5833 23.6917 30.025 22.9833 30.2417C21.5333 30.6833 19.4 30.775 17.925 30.4583C13.375 29.4917 10.0583 25.95 9.40833 21.3417C9.35 20.9 9.325 20.2083 9.35833 19.5083C9.58333 14.3833 13.3917 10.175 18.4917 9.425C19.2667 9.30833 20.825 9.325 21.625 9.45833ZM20.0417 13.7083C20.8 13.8667 21.8583 14.4 22.4417 14.925C23.0833 15.4917 23.6917 16.4417 23.9667 17.275C24.1667 17.8917 24.1917 18.0917 24.2083 19.3333C24.225 20.775 24.2833 21.0833 24.6833 21.7417C24.7833 21.9083 27.8833 25.075 31.5833 28.7917C38.75 35.9917 38.5 35.7083 38.5 36.5C38.5 37.5333 37.5333 38.5 36.5 38.5C35.7083 38.5 35.9917 38.75 28.7917 31.5833C24.7167 27.525 21.8917 24.7667 21.6667 24.6417C21.025 24.2667 20.4083 24.15 19.4167 24.2083C18.7583 24.25 18.375 24.2333 17.875 24.125C15.2667 23.5917 13.4667 21.275 13.6083 18.625C13.6333 18.2083 13.675 17.8083 13.7083 17.725C13.7583 17.6 14.0333 17.8333 15.325 19.1167L16.8833 20.6667H18.575C20.8333 20.6667 20.6667 20.8333 20.6667 18.575V16.8833L19.1083 15.325C17.4417 13.6417 17.5167 13.7667 18.125 13.6417C18.5 13.5583 19.5 13.5917 20.0417 13.7083Z" fill="#E83A15"/>
<path d="M23.325 23.325C23.1083 23.55 23.075 23.6334 23.1167 23.8584C23.1833 24.2084 23.7917 24.8167 24.1417 24.8834C24.3667 24.925 24.45 24.8917 24.675 24.675C24.8917 24.45 24.925 24.3667 24.8833 24.1417C24.8167 23.7917 24.2083 23.1834 23.8583 23.1167C23.6333 23.075 23.55 23.1084 23.325 23.325Z" fill="#E83A15"/>
<path d="M25.6667 25.6666C25.5583 25.7749 25.5 25.9416 25.5 26.1416C25.5 26.4416 25.6583 26.6082 29.5667 30.5249C31.95 32.9166 33.7417 34.6499 33.9 34.7166C34.45 34.9582 34.9583 34.4499 34.7167 33.8999C34.65 33.7416 32.9167 31.9499 30.525 29.5582C26.6083 25.6582 26.4417 25.4999 26.1417 25.4999C25.9417 25.4999 25.775 25.5582 25.6667 25.6666Z" fill="#E83A15"/>
<path d="M35.75 35.4419C35.4417 35.6002 35.2917 35.9502 35.4167 36.2419C35.5333 36.5336 36.0583 37.0502 36.3167 37.1252C36.7667 37.2586 37.2583 36.7669 37.125 36.3169C37.05 36.0752 36.6167 35.6086 36.3167 35.4502C36.0417 35.3086 36.0167 35.3086 35.75 35.4419Z" fill="#E83A15"/>
</g>
<defs>
<clipPath id="clip0_50_41">
<rect width="40" height="40" fill="white"/>
</clipPath>
</defs>
</svg>
