<svg width="40" height="40" viewBox="0 0 40 40" fill="none" xmlns="http://www.w3.org/2000/svg">
<g clip-path="url(#clip0_50_26)">
<path d="M18.6478 0.0904655C15.4481 0.695393 12.9245 3.26437 12.445 6.41471L12.3506 7.0275L9.59119 7.06678C6.5173 7.0982 6.4151 7.11391 5.25157 7.6717C3.6478 8.44161 2.4607 9.84002 1.96541 11.5527C1.89466 11.7962 1.80032 12.3383 1.76101 12.7547C1.7217 13.1868 1.68239 17.3977 1.68239 22.3707V31.2168L1.34434 31.3503C0.872647 31.531 0.495289 31.8688 0.227993 32.3481C0.00786784 32.7487 -0.00785542 32.8194 6.20494e-06 33.6365C0.0314527 36.0248 1.44655 38.2245 3.70283 39.3558C3.92296 39.4736 4.41824 39.6622 4.80346 39.78L5.49529 40H20H34.5047L35.2122 39.78C37.4685 39.073 39.1116 37.431 39.7799 35.2077C39.9449 34.6421 39.9921 34.3278 40 33.6365C40.0078 32.8194 39.9921 32.7487 39.772 32.3481C39.5047 31.8688 39.1273 31.531 38.6556 31.3503L38.3176 31.2168V22.3707C38.3176 17.3977 38.2783 13.1868 38.239 12.7547C38.1525 11.8355 37.9953 11.2698 37.6415 10.5471C36.9575 9.18795 35.9512 8.20593 34.599 7.59314C33.5456 7.11391 33.4041 7.0982 30.4088 7.06678L27.6415 7.0275L27.5865 6.58755C27.5 5.91977 27.1855 4.90632 26.8711 4.26997C25.8176 2.18807 24.088 0.789665 21.8239 0.200451C21.022 -0.0116653 19.4733 -0.0666618 18.6478 0.0904655ZM21.7138 1.38674C24.544 2.18807 26.4465 4.67849 26.4465 7.601C26.4465 8.59874 26.3522 9.16438 26.0456 9.95786C25.4717 11.4505 24.3396 12.684 22.9009 13.4146C21.8789 13.9252 21.2343 14.0667 20 14.0667C18.5456 14.0667 17.5393 13.7681 16.3443 12.9746C15.0236 12.0947 13.923 10.4371 13.6399 8.89727C13.5299 8.29235 13.5299 6.9725 13.6399 6.36757C13.8208 5.38555 14.3789 4.25425 15.1101 3.37436C15.9513 2.36876 17.5314 1.48101 18.9151 1.22961C19.5676 1.11963 21.0534 1.19819 21.7138 1.38674ZM12.4686 8.94441C12.5393 9.34508 12.6258 9.7536 12.6494 9.84787L12.7044 10.0207L10 10.0443L7.2956 10.0678L6.69811 10.3664C5.70755 10.8535 4.98428 11.7726 4.75629 12.8411C4.6934 13.1318 4.66981 15.9364 4.66981 22.245V31.2403H3.80503H2.94026V21.8679C2.94026 11.482 2.90881 12.1105 3.46698 10.9792C3.78931 10.3035 4.77202 9.2508 5.37736 8.92084C6.5173 8.3002 6.91824 8.23735 9.85849 8.2295L12.3428 8.22164L12.4686 8.94441ZM33.6242 8.48089C34.8821 8.92084 35.9748 9.85573 36.5251 10.9713C37.0912 12.0947 37.0597 11.4663 37.0597 21.8679V31.2403H36.1949H35.3302V22.245C35.3302 15.9364 35.3066 13.1318 35.2437 12.8411C35.0157 11.7726 34.2924 10.8535 33.3019 10.3664L32.7044 10.0678L30 10.0443L27.2956 10.0207L27.3506 9.84787C27.3742 9.7536 27.4607 9.34508 27.5314 8.94441L27.6651 8.21378L30.338 8.23735L33.011 8.26092L33.6242 8.48089ZM13.5928 11.8119C14.5833 13.3675 16.2264 14.538 18.1761 15.0723C19.0487 15.3158 20.9512 15.3158 21.8239 15.0723C23.7736 14.538 25.4167 13.3675 26.4072 11.8041L26.7924 11.1991L29.6226 11.2227L32.4607 11.2463L32.838 11.4427C33.294 11.6705 33.7185 12.1183 33.9465 12.6133L34.1116 12.9746L34.1352 22.1036L34.1509 31.2403H31.0692C28.3176 31.2403 27.9795 31.256 27.8459 31.3739C27.6415 31.5546 27.6572 32.0338 27.8695 32.2302C28.0267 32.3716 28.2626 32.3795 33.1604 32.4188C36.9732 32.4502 38.3176 32.4816 38.4434 32.5523C38.6714 32.6859 38.8679 33.1258 38.8679 33.5029C38.8679 33.9743 38.6635 34.9406 38.467 35.4198C37.9009 36.7554 36.761 37.8945 35.4245 38.4602C34.4418 38.8687 34.8899 38.8608 19.9921 38.8608C4.4261 38.8608 5.52673 38.9001 4.19812 38.2559C3.57705 37.9574 3.3412 37.7845 2.77516 37.2189C2.21699 36.6611 2.03617 36.4176 1.72956 35.7969C1.19497 34.7128 0.990571 33.4872 1.25001 32.9373C1.49372 32.4188 0.621075 32.458 12.7358 32.4188C23.4355 32.3795 23.7657 32.3716 23.9229 32.2302C24.1273 32.0495 24.1431 31.5939 23.9544 31.3817C23.8365 31.2482 23.4512 31.2403 14.8349 31.2403H5.84906L5.86478 22.1036L5.88837 12.9746L6.10849 12.519C6.36006 12.0162 6.84749 11.5605 7.36635 11.3484C7.65723 11.2306 8.03459 11.2149 10.456 11.2149L13.2154 11.207L13.5928 11.8119Z" fill="#E83A15"/>
<path d="M22.2012 4.02655C22.044 4.09726 21.2578 4.80432 20.338 5.73135L18.7421 7.31045L18.4119 6.98834C17.8145 6.41484 17.2641 6.24986 16.588 6.44626C16.1163 6.58768 15.6446 6.9962 15.456 7.42829C15.283 7.84467 15.3066 8.51245 15.5031 8.88954C15.739 9.3452 17.445 11.0107 17.8773 11.1993C18.0975 11.3014 18.4041 11.3642 18.695 11.3642C19.6226 11.3642 19.5912 11.3878 22.0676 8.93668C23.3805 7.64041 24.4025 6.55625 24.4968 6.37556C24.9214 5.56637 24.544 4.49792 23.6792 4.05012C23.3255 3.86943 22.5943 3.85371 22.2012 4.02655ZM23.3412 5.23641C23.4198 5.32283 23.4827 5.50352 23.4827 5.63707C23.4827 5.84919 23.2233 6.14773 21.3286 8.03322L19.1667 10.1858H18.7421H18.3255L17.4214 9.29021C16.6352 8.51245 16.5173 8.36318 16.5173 8.1432C16.5173 7.79753 16.8632 7.48328 17.1619 7.55399C17.272 7.58541 17.6179 7.85252 17.9245 8.15106C18.7972 8.99167 18.6556 9.04667 20.8255 6.88621C22.5078 5.20498 22.6494 5.07928 22.9167 5.07928C23.0975 5.07928 23.2468 5.13428 23.3412 5.23641Z" fill="#E83A15"/>
<path d="M8.87578 17.2875C8.38836 17.5153 8.03459 17.8846 7.79874 18.3952C7.62578 18.7645 7.61792 18.8902 7.61792 20.32C7.61792 21.8362 7.61792 21.852 7.83805 22.2998C8.07389 22.779 8.34119 23.0461 8.86792 23.3289L9.19025 23.5018L14.8428 23.5253C21.2578 23.5489 20.9827 23.5725 21.6667 22.9283C22.2956 22.3469 22.3742 22.0091 22.3428 20.1629C22.3192 18.7645 22.3034 18.5995 22.1462 18.3088C21.8711 17.7981 21.6038 17.5232 21.1635 17.3032L20.7547 17.0989H18.1839C15.6132 17.0989 15.6053 17.0989 15.4874 17.2718C15.3223 17.5075 15.3302 17.8296 15.511 18.0495L15.6604 18.2381L18.1289 18.2774C19.8506 18.3088 20.6368 18.3481 20.7547 18.4109C21.1006 18.6073 21.1792 18.953 21.1792 20.32C21.1792 21.7341 21.1242 21.9384 20.6839 22.2055C20.4402 22.3547 20.2516 22.3626 15.0236 22.3626C10.1729 22.3626 9.57547 22.3469 9.33962 22.2369C8.88364 22.0169 8.83647 21.8362 8.83647 20.2493V18.8273L9.06446 18.5759L9.29245 18.3167L10.3616 18.2774C11.3207 18.2381 11.4465 18.2145 11.6038 18.0653C11.8082 17.8531 11.8239 17.476 11.6274 17.2561C11.4937 17.1147 11.3915 17.0989 10.3774 17.0989C9.37892 17.0989 9.22955 17.1147 8.87578 17.2875Z" fill="#E83A15"/>
<path d="M13.1288 17.2721C13.0581 17.3664 13.0031 17.5393 13.0031 17.6493C13.0031 17.9871 13.2074 18.1992 13.5452 18.1992C13.9066 18.1992 14.1266 17.9871 14.1266 17.6493C14.1266 17.3114 13.9066 17.0993 13.5452 17.0993C13.3253 17.0993 13.2153 17.1464 13.1288 17.2721Z" fill="#E83A15"/>
<path d="M25.3852 17.2876C24.8978 17.5155 24.544 17.8847 24.3082 18.3954L24.1273 18.7882V23.2662V27.7442L24.3475 28.192C24.5833 28.6713 24.8506 28.9384 25.3773 29.2212C25.6918 29.3862 25.7704 29.394 28.2547 29.394C30.739 29.394 30.8176 29.3862 31.1321 29.2212C31.6588 28.9384 31.9261 28.6713 32.1619 28.192L32.3821 27.7442V23.2662V18.7882L32.2012 18.3954C31.9654 17.8847 31.6116 17.5155 31.1242 17.2876C30.739 17.1069 30.6997 17.0991 28.2547 17.0991C25.8097 17.0991 25.7704 17.1069 25.3852 17.2876ZM30.8962 18.5446L31.1635 18.8117V23.1798C31.1635 28.0192 31.1792 27.8857 30.6604 28.1292C30.2594 28.3177 26.25 28.3177 25.849 28.1292C25.3302 27.8857 25.3459 28.0192 25.3459 23.1798V18.8117L25.6132 18.5446L25.8805 18.2775H28.2547H30.6289L30.8962 18.5446Z" fill="#E83A15"/>
<path d="M7.79087 25.4895C7.60219 25.7016 7.61792 26.1572 7.82232 26.3379C7.97955 26.4793 8.23112 26.4872 14.7641 26.5108C18.4827 26.5265 21.6509 26.5108 21.7924 26.4872C22.3034 26.3929 22.5236 25.8744 22.2012 25.5209L22.0361 25.348H14.9764C8.23899 25.348 7.9088 25.3559 7.79087 25.4895Z" fill="#E83A15"/>
<path d="M7.83018 28.4123C7.72012 28.5223 7.65723 28.6715 7.65723 28.8444C7.65723 29.0172 7.72012 29.1665 7.83018 29.2765C8.00314 29.4336 8.06603 29.4336 14.9843 29.4336H21.9733L22.1619 29.2372C22.272 29.1351 22.3585 28.9544 22.3585 28.8444C22.3585 28.7344 22.272 28.5537 22.1619 28.4516L21.9733 28.2552H14.9843C8.06603 28.2552 8.00314 28.2552 7.83018 28.4123Z" fill="#E83A15"/>
<path d="M25.4795 31.3818C25.2988 31.5782 25.3066 32.0496 25.4873 32.2067C25.6837 32.3874 26.1551 32.3796 26.3123 32.1989C26.493 32.0024 26.4851 31.5311 26.3044 31.3739C26.108 31.1932 25.6366 31.2011 25.4795 31.3818Z" fill="#E83A15"/>
</g>
<defs>
<clipPath id="clip0_50_26">
<rect width="40" height="40" fill="white"/>
</clipPath>
</defs>
</svg>
