<svg width="40" height="40" viewBox="0 0 40 40" fill="none" xmlns="http://www.w3.org/2000/svg">
<g clip-path="url(#clip0_49_79)">
<path d="M19.4505 0.0534096C18.9092 0.225422 18.415 0.678905 14.7277 4.34587L10.7423 8.30994V7.16842V6.01907L10.9855 5.97216C11.315 5.90961 11.6524 5.54995 11.7622 5.13556C11.8171 4.93227 11.8485 4.43188 11.825 3.89239C11.7936 2.8525 11.6759 2.57103 11.1973 2.32083C10.9306 2.18009 10.7031 2.17228 8.18476 2.17228C5.57229 2.17228 5.45461 2.18009 5.17218 2.33647C4.6544 2.62576 4.58379 2.84468 4.58379 4.08785C4.58379 4.99482 4.60732 5.22938 4.725 5.44049C4.87406 5.71414 5.27417 6.00343 5.50953 6.00343C5.63505 6.00343 5.6429 6.23017 5.6429 9.69385V13.3843L2.94413 16.0895C0.55133 18.4821 0.237519 18.8339 0.119841 19.1701C-0.233196 20.2413 0.206139 21.3437 1.20249 21.8519C1.69674 22.1099 2.51264 22.1334 3.01474 21.9145C3.21871 21.8285 3.84633 21.2733 4.77992 20.3429C5.58014 19.5532 6.26267 18.9043 6.29405 18.9043C6.32543 18.9043 6.34897 23.3609 6.34897 28.8105C6.34897 38.2868 6.35681 38.7403 6.49803 39.0452C6.67063 39.4283 7.14134 39.8349 7.54145 39.9365C7.72189 39.9913 12.2251 40.0069 20.1723 39.9991L32.5207 39.9756L32.8502 39.7567C33.0307 39.6394 33.2739 39.397 33.3915 39.2172L33.6112 38.8888L33.6348 34.0491L33.6504 29.2015L33.4778 29.0138C33.2425 28.7558 32.8502 28.7715 32.6384 29.0373C32.4737 29.2406 32.4737 29.3109 32.4737 33.8849C32.4737 38.4275 32.4737 38.5292 32.3167 38.6855C32.1598 38.8419 32.0579 38.8419 19.9997 38.8419C7.94156 38.8419 7.83957 38.8419 7.68266 38.6855C7.52576 38.5292 7.52576 38.4275 7.52576 28.0678V17.6142L13.7627 11.3983L19.9997 5.18247L26.2367 11.3983L32.4737 17.6142V22.1647C32.4737 24.7292 32.505 26.7933 32.5443 26.9028C32.7012 27.3015 33.368 27.3406 33.5641 26.9653C33.6191 26.8637 33.6504 25.4954 33.6504 22.8605C33.6504 20.6869 33.674 18.9043 33.7054 18.9043C33.7367 18.9043 34.4193 19.5532 35.2195 20.3429C36.1531 21.2733 36.7807 21.8285 36.9847 21.9145C37.4868 22.1334 38.3027 22.1099 38.7969 21.8519C39.856 21.3124 40.2954 20.0302 39.7854 18.9825C39.6677 18.7244 38.3968 17.4187 35.243 14.2678C31.7048 10.7494 30.8262 9.91278 30.6614 9.91278C30.3397 9.91278 30.0416 10.1942 30.0416 10.4835C30.0416 10.7025 30.481 11.1716 34.3487 15.034C36.7179 17.3953 38.6949 19.4125 38.742 19.5063C38.9852 19.9911 38.6949 20.6635 38.1693 20.8433C37.5338 21.0466 37.9732 21.4453 28.9041 12.4226C19.9997 3.55618 20.3606 3.88457 19.7487 4.00967C19.5368 4.05658 17.858 5.69068 11.0953 12.4226C4.29351 19.1936 2.64601 20.7964 2.41065 20.8589C1.59475 21.0857 0.888675 20.21 1.28094 19.4672C1.3437 19.3499 5.4703 15.206 10.4442 10.249C17.7403 2.99324 19.5368 1.24185 19.7487 1.19494C20.3449 1.06984 20.2821 1.02293 24.4715 5.19029C28.0254 8.71652 28.4647 9.13091 28.6844 9.13091C28.9747 9.13091 29.2571 8.8338 29.2571 8.51323C29.2571 8.23176 21.5688 0.53817 20.9804 0.241058C20.5646 0.029953 19.8114 -0.0638695 19.4505 0.0534096ZM10.6639 4.08785V4.83063H8.1926H5.72135V4.08785V3.34508H8.1926H10.6639V4.08785ZM9.54983 7.76264L9.56552 9.48275L8.1926 10.851L6.81968 12.2193V9.16218C6.81968 7.48116 6.84322 6.08162 6.8746 6.05035C6.90598 6.02689 7.51007 6.01125 8.22398 6.01907L9.5263 6.04253L9.54983 7.76264Z" fill="#E83A15"/>
<path d="M26.0327 14.6821C24.393 14.9323 23.0201 16.1442 22.5494 17.747C22.4239 18.1927 22.3768 19.2482 22.4631 19.6547C22.5102 19.8659 22.4396 19.9597 21.6237 20.765L20.7293 21.6563L20.439 21.453C20.2821 21.3514 20.0468 21.2419 19.9291 21.2107C19.631 21.1481 19.121 21.2889 18.9406 21.4843C18.8621 21.5703 18.7601 21.6407 18.7131 21.6407C18.6582 21.6407 18.4463 21.4609 18.2345 21.2498L17.8501 20.8588L19.2701 19.428C20.0546 18.6461 20.7293 17.9034 20.7764 17.7861C20.8862 17.4968 20.8862 17.0589 20.7764 16.8478C20.5489 16.41 20.3763 16.324 18.5483 15.7376C15.9908 14.9088 15.9045 14.9244 14.6492 16.1442L13.8804 16.9026L13.5431 16.582C13.3626 16.41 13.1351 16.2223 13.041 16.1754C12.8056 16.0582 12.1858 16.066 11.9348 16.1989C11.621 16.3631 10.2951 17.7314 10.201 17.9894C9.99701 18.521 10.1147 18.9745 10.6011 19.4906L10.9306 19.8502L10.099 20.6868C9.64397 21.1481 9.22817 21.6016 9.1811 21.6954C9.07127 21.9144 9.07127 22.4617 9.1811 22.6806C9.30662 22.923 11.7622 25.3858 12.0132 25.5188C12.2564 25.6439 12.6879 25.6595 12.9782 25.55C13.0959 25.5031 13.5744 25.0966 14.0452 24.6353L14.9081 23.7987L15.6377 24.5258L16.3595 25.2451L16.2889 25.6986C16.2183 26.1521 16.1948 26.1755 15.3239 27.0434L14.4296 27.9347L13.5901 27.9113C12.2172 27.8722 11.2915 28.2162 10.3971 29.1075C9.55767 29.9285 9.14187 30.9371 9.14187 32.1177C9.14187 33.0013 9.27524 33.3765 9.65181 33.5642C10.1618 33.83 10.3422 33.7284 11.6994 32.3758L12.9311 31.1482L13.3469 31.2499C14.0922 31.4453 14.0844 31.4297 14.2334 32.0396L14.3747 32.6025L13.1037 33.8691C11.8877 35.0888 11.8406 35.1514 11.8406 35.4563C11.8406 36.0975 12.28 36.3555 13.3548 36.3555C14.5394 36.3555 15.4416 36.0114 16.2732 35.2296C16.8851 34.6588 17.2617 34.0724 17.4892 33.2984C17.6461 32.8058 17.6618 32.6025 17.6304 31.8832L17.5912 31.0388L18.3444 30.2882L19.0975 29.5454H19.7408C20.1017 29.5454 20.4312 29.5219 20.4783 29.4907C20.5332 29.4594 21.9453 30.8042 23.9537 32.8058C25.813 34.651 27.4135 36.2069 27.5076 36.2538C27.7508 36.3711 28.4412 36.3633 28.6922 36.2304C28.8099 36.1678 29.2257 35.7925 29.618 35.386C30.4025 34.5884 30.5594 34.2835 30.4731 33.7362C30.426 33.4313 30.1907 33.1811 26.8094 29.8034C23.381 26.371 23.2006 26.1834 23.1613 25.8706L23.1143 25.5344L24.346 24.3069L25.5855 23.0715L26.37 23.1106C27.79 23.181 28.6922 22.8448 29.6572 21.8831C30.6065 20.937 30.9517 20.03 30.8889 18.6618C30.8575 17.8643 30.7477 17.5906 30.3868 17.4342C29.8769 17.1997 29.7906 17.2544 28.4177 18.607L27.1389 19.8737L26.6132 19.7329C26.3151 19.6626 26.0405 19.5453 25.9935 19.4827C25.9464 19.4202 25.8601 19.1622 25.8052 18.8963L25.7032 18.4194L26.88 17.2388C27.5311 16.582 28.1038 15.9721 28.1509 15.8783C28.347 15.4952 28.1431 14.9635 27.743 14.7993C27.3978 14.6664 26.5583 14.6039 26.0327 14.6821ZM25.5934 16.8948C24.3617 18.1379 24.3695 18.1066 24.699 19.3185C24.9344 20.1864 25.1148 20.4913 25.4757 20.6321C26.0013 20.8354 27.1703 21.0856 27.3978 21.0387C27.5782 20.9996 27.9391 20.7103 28.7001 19.9675L29.7513 18.9432L29.7043 19.3576C29.5944 20.2959 28.9276 21.2107 28.0097 21.6642C27.5311 21.8987 27.4448 21.9144 26.6682 21.9144C25.9229 21.9144 25.7973 21.8909 25.358 21.6876C23.8674 20.9996 23.1613 19.1309 23.836 17.6141C24.0557 17.1215 24.7775 16.3944 25.2874 16.1442C25.664 15.9565 26.4877 15.761 26.5819 15.8314C26.6054 15.847 26.1582 16.324 25.5934 16.8948ZM18.0855 16.8087C18.9249 17.0746 19.6074 17.317 19.6074 17.3404C19.6074 17.3639 18.007 18.9745 16.0535 20.9214L12.5075 24.4554L11.3699 23.3217L10.2324 22.188L13.1743 19.256C15.6377 16.8009 16.1555 16.324 16.336 16.324C16.4615 16.324 17.246 16.5429 18.0855 16.8087ZM12.8213 17.4968L13.0488 17.7392L12.4055 18.3725L11.77 19.0136L11.5268 18.7869C11.4013 18.6618 11.2915 18.5289 11.2915 18.4819C11.2915 18.3725 12.4055 17.2622 12.5075 17.2622C12.5546 17.2622 12.6958 17.3717 12.8213 17.4968ZM23.3339 21.5547C23.4987 21.7658 23.7968 22.0629 24.0086 22.2271C24.2204 22.3835 24.393 22.5398 24.393 22.5711C24.393 22.6415 22.6749 24.3381 22.6435 24.2912C22.3533 23.9003 21.5766 22.8213 21.5295 22.7431C21.4903 22.6728 21.7021 22.4147 22.2042 21.9065C22.6122 21.5 22.9652 21.1716 22.9887 21.1716C23.0201 21.1716 23.177 21.3436 23.3339 21.5547ZM17.5049 22.1645C17.756 22.4147 17.9599 22.6337 17.9599 22.6571C17.9599 22.6884 17.7167 23.0324 17.4265 23.4234L16.8851 24.1349L16.3046 23.5485L15.724 22.9699L16.3517 22.3444C16.6968 22.0004 16.995 21.7189 17.0107 21.7189C17.0342 21.7189 17.2539 21.9222 17.5049 22.1645ZM20.8235 23.7987C21.4511 24.6431 21.8276 25.2373 21.8982 25.464C22.0473 25.9957 22.0081 26.5587 21.7884 27.0434C20.9647 28.8261 18.5013 28.8417 17.6461 27.0747C17.4186 26.5899 17.3872 25.7533 17.5991 25.2842C17.7952 24.8151 19.6937 22.3209 19.78 22.4069C19.8271 22.4538 20.29 23.0715 20.8235 23.7987ZM16.7125 27.8331C16.7675 27.9738 17.0499 28.3257 17.3402 28.6071L17.8658 29.1232L17.4578 29.5298L17.0499 29.9285L16.9165 29.7018C16.7596 29.4281 15.7946 28.5211 15.6613 28.5211C15.6142 28.5211 15.779 28.31 16.0378 28.052C16.2967 27.794 16.5243 27.5829 16.5556 27.5829C16.587 27.5829 16.6576 27.7002 16.7125 27.8331ZM26.1582 30.7886L29.3748 33.9942L28.7864 34.5806C28.4647 34.9012 28.1509 35.167 28.0803 35.167C28.0175 35.167 26.5662 33.7753 24.8559 32.0708L21.7492 28.9746L22.1493 28.5681C22.369 28.3413 22.62 28.0286 22.7063 27.8722C22.7926 27.7158 22.8789 27.5829 22.9024 27.5829C22.926 27.5829 24.393 29.0215 26.1582 30.7886ZM13.8804 29.0763C14.8689 29.2326 15.7868 29.9285 16.2183 30.8511C16.4066 31.242 16.4301 31.3906 16.4301 32.1177C16.4301 32.8449 16.4066 32.9934 16.2183 33.3844C15.7868 34.3148 14.7748 35.0654 13.8569 35.1514L13.4489 35.1827L14.3982 34.221C14.9238 33.6893 15.3945 33.1654 15.4495 33.0638C15.5907 32.7901 15.5593 32.407 15.3396 31.6252C15.12 30.8355 14.9866 30.6009 14.6806 30.4445C14.2805 30.2413 12.8919 29.9207 12.6487 29.9754C12.5153 30.0067 12.0368 30.4133 11.3935 31.0466C10.8208 31.6095 10.3344 32.0474 10.3108 32.0239C10.2324 31.9535 10.4285 31.1404 10.6246 30.7495C11.009 29.952 12.0054 29.2248 12.9076 29.0763C13.1194 29.0372 13.3077 29.0059 13.3312 28.9981C13.3548 28.9981 13.598 29.0294 13.8804 29.0763Z" fill="#E83A15"/>
</g>
<defs>
<clipPath id="clip0_49_79">
<rect width="40" height="40" fill="white"/>
</clipPath>
</defs>
</svg>
