<svg width="50" height="50" viewBox="0 0 50 50" fill="none" xmlns="http://www.w3.org/2000/svg">
<g clip-path="url(#clip0_449_5125)">
<path d="M7.29646 0.0753098C6.29039 0.309811 5.28432 1.15988 4.81547 2.16628L4.54198 2.75254V18.044V33.3355L4.81547 33.9217C5.17688 34.6936 5.92899 35.446 6.6811 35.788C7.21832 36.0322 7.40391 36.0713 8.6151 36.1006L9.95328 36.1397L9.98258 37.4881C10.0119 38.8267 10.0119 38.8463 10.3049 39.2078C10.8714 39.9015 10.9887 39.9308 13.5966 39.9308H15.9213V42.7644V45.598H13.1864H10.4417L10.2072 45.8422C9.89467 46.1451 9.89467 46.5164 10.2072 46.8193L10.4417 47.0636H13.5283C16.8493 47.0636 17.0349 47.0343 17.3083 46.5457C17.406 46.3796 17.4451 45.1485 17.4646 41.2304L17.4939 36.1202H18.1777H18.8516L18.8321 41.631L18.8028 47.1418L18.5098 47.5619C18.3242 47.8257 18.0214 48.0895 17.6893 48.2556L17.1716 48.5292H8.82022H0.478615L0.24419 48.7735C-0.0683759 49.0764 -0.0683759 49.4477 0.24419 49.7506L0.478615 49.9949H8.82022C16.9274 49.9949 17.1911 49.9851 17.8065 49.7995C18.9005 49.4575 19.6819 48.7051 20.141 47.5424C20.3461 47.0441 20.3559 46.8193 20.3949 43.4679L20.434 39.9308H21.5964H22.7587V44.5036C22.7587 47.132 22.7978 49.2034 22.8564 49.3988C23.0811 50.2001 23.9992 50.2001 24.2239 49.3988C24.2825 49.2034 24.3216 46.448 24.3216 42.5983V36.1202H25.0053H25.689V42.5983C25.689 46.448 25.7281 49.2034 25.7867 49.3988C26.0114 50.2001 26.9295 50.2001 27.1542 49.3988C27.2128 49.2034 27.2519 47.132 27.2519 44.5036V39.9308H28.424H29.5961V42.9794C29.5961 44.66 29.6449 46.3601 29.6938 46.7412C29.8403 47.8941 30.4068 48.8028 31.3348 49.3891C32.3115 50.0144 32.0185 49.9949 41.1904 49.9949H49.532L49.7664 49.7506C50.079 49.4477 50.079 49.0764 49.7664 48.7735L49.532 48.5292H41.1904H32.839L32.3213 48.2556C31.9892 48.0895 31.6864 47.8257 31.5008 47.5619L31.2078 47.1418L31.1785 41.631L31.1589 36.1202H31.8329H32.5166L32.5459 41.2206C32.5655 45.1485 32.6046 46.3796 32.7022 46.5457C33.005 47.0831 32.7315 47.0636 41.4639 47.0636H49.532L49.7664 46.8193C50.079 46.5164 50.079 46.1451 49.7664 45.8422L49.532 45.598H41.8057H34.0892V42.7644V39.9308H36.414C39.0219 39.9308 39.1391 39.9015 39.7057 39.2078C39.9987 38.8463 39.9987 38.8267 40.028 37.4881L40.0573 36.1397L41.3955 36.1006C42.6457 36.0713 42.7727 36.0518 43.3686 35.7684C44.1695 35.3874 44.7751 34.7816 45.1658 33.9706L45.4686 33.3355L45.4979 25.6653C45.5077 21.4443 45.4979 17.8974 45.4686 17.7802C45.4393 17.6532 45.283 17.4871 45.117 17.3991C44.863 17.2721 44.7653 17.2721 44.5309 17.3698C44.3649 17.4284 44.1988 17.5652 44.15 17.6629C44.0914 17.7704 44.0523 20.7017 44.0523 25.2842C44.0523 30.8634 44.023 32.8274 43.9351 33.1303C43.8569 33.3746 43.6323 33.7068 43.3686 33.9706C43.1048 34.2344 42.7727 34.4591 42.5285 34.5373C41.9913 34.6936 8.05834 34.7132 7.49182 34.5471C6.97413 34.4103 6.20248 33.6384 6.06573 33.1401C5.90945 32.5831 5.91922 3.49512 6.06573 2.94796C6.21225 2.42033 6.9546 1.68751 7.48205 1.54094C7.77508 1.46278 12.698 1.44324 25.2299 1.45301L42.5676 1.48232L42.9876 1.77545C43.222 1.94155 43.5444 2.26399 43.7104 2.49849L44.0035 2.91864L44.0328 8.88867C44.0621 14.8391 44.0621 14.8587 44.2672 15.0834C44.57 15.4059 45.0486 15.3863 45.3221 15.0443C45.5272 14.7805 45.5272 14.761 45.4979 8.77142L45.4686 2.75254L45.1658 2.11743C44.7751 1.30644 44.1695 0.700645 43.3686 0.31958L42.7337 0.0166817L25.2006 -0.00285721C15.2083 -0.00285721 7.51135 0.0264549 7.29646 0.0753098ZM15.9213 37.2927V38.4652L13.7041 38.4457L11.477 38.4163L11.4477 37.2634L11.4184 36.1202H13.6748H15.9213V37.2927ZM22.7587 37.2927V38.4652H21.5866H20.4145V37.2927V36.1202H21.5866H22.7587V37.2927ZM29.5961 37.2927V38.4652H28.424H27.2519V37.2927V36.1202H28.424H29.5961V37.2927ZM38.5628 37.2634L38.5335 38.4163L36.3163 38.4457L34.0892 38.4652V37.2927V36.1202H36.3358H38.5922L38.5628 37.2634Z" fill="white"/>
<path d="M8.40011 3.08479C8.21452 3.1825 7.93126 3.42678 7.76521 3.62219L7.47218 3.99349L7.44288 13.442L7.42334 22.9002L7.62846 23.1542C7.88242 23.4864 8.38057 23.5158 8.65407 23.2129C8.82989 23.0174 8.83966 22.6755 8.88849 13.7058L8.93733 4.41364L15.218 4.36478L21.5084 4.31593L21.6939 4.08143C21.9479 3.76876 21.9284 3.42678 21.6353 3.14342L21.4009 2.89915H15.0714C9.09362 2.89915 8.72244 2.90892 8.40011 3.08479Z" fill="white"/>
<path d="M24.0773 3.13366C23.7843 3.42679 23.7647 3.76877 24.0187 4.08144L24.2043 4.31594L32.6436 4.36479L41.0731 4.41365V18.0441V31.6745H25.0052H8.93738L8.88854 28.7432C8.85924 27.131 8.8104 25.7631 8.77133 25.7045C8.73226 25.6458 8.56621 25.5383 8.40992 25.4797C8.1755 25.382 8.07782 25.382 7.82386 25.509C7.65781 25.597 7.50153 25.7631 7.47223 25.8901C7.44292 26.0073 7.42339 27.4534 7.44292 29.1047L7.47223 32.0946L7.76526 32.4659C7.93131 32.6613 8.21457 32.9056 8.40016 33.0033C8.72249 33.1792 9.34762 33.189 25.0052 33.189C40.6628 33.189 41.288 33.1792 41.6103 33.0033C41.7959 32.9056 42.0792 32.6613 42.2452 32.4659L42.5382 32.0946L42.5675 18.1613C42.5871 4.71655 42.5871 4.20846 42.4113 3.87625C42.3038 3.6906 42.0596 3.40724 41.8643 3.24114L41.4931 2.94801L32.9073 2.9187L24.3117 2.89916L24.0773 3.13366Z" fill="white"/>
<path d="M12.4343 6.00623C10.6761 6.63156 9.87515 8.59552 10.6956 10.2761C10.9984 10.9015 11.6626 11.517 12.2682 11.7515L12.698 11.9176V12.7872C12.698 13.5787 12.7176 13.6764 12.9422 13.8913C13.0692 14.0281 13.2938 14.1356 13.4306 14.1356C13.5673 14.1356 13.792 14.0281 13.919 13.8913C14.1436 13.6764 14.1632 13.5787 14.1632 12.7872V11.9176L14.5929 11.7515C15.2181 11.517 15.8627 10.9015 16.1851 10.2468C16.5465 9.51398 16.5758 8.38056 16.2437 7.67705C15.5893 6.23096 13.8897 5.48837 12.4343 6.00623ZM14.1632 7.51095C14.6516 7.76499 15.0423 8.38056 15.0423 8.90819C15.0423 9.07429 14.9446 9.4065 14.8274 9.641C14.5734 10.1295 13.958 10.5204 13.4306 10.5204C12.9031 10.5204 12.2878 10.1295 12.0436 9.641C11.9166 9.4065 11.8189 9.07429 11.8189 8.90819C11.8189 8.38056 12.2096 7.76499 12.698 7.51095C12.9324 7.39369 13.2645 7.29599 13.4306 7.29599C13.5966 7.29599 13.9287 7.39369 14.1632 7.51095Z" fill="white"/>
<path d="M23.8431 7.24719C23.2375 7.43284 22.4561 7.99955 22.1044 8.49787C21.4988 9.34794 13.2354 23.7796 13.0595 24.2974C12.6395 25.5188 13.0107 26.9747 13.9875 27.942C14.5931 28.5478 15.2377 28.8702 16.0582 28.9972C16.4099 29.0559 20.2974 29.0852 25.445 29.0656L34.2359 29.0363L34.7829 28.8116C36.5313 28.1081 37.5374 25.9682 36.9415 24.2486C36.6583 23.4278 28.0432 8.59558 27.5646 8.10703C26.9297 7.44261 26.2166 7.15925 25.1519 7.12994C24.5952 7.1104 24.1166 7.15925 23.8431 7.24719ZM25.9334 8.75191C26.1482 8.84962 26.4413 9.05481 26.5878 9.21114C26.7245 9.36748 28.8148 12.9045 31.2274 17.067L35.6034 24.6394V25.3331C35.6034 25.9292 35.5643 26.0855 35.3103 26.5056C35.1248 26.7988 34.8317 27.0919 34.5387 27.2776L34.0601 27.5707H25.0054H15.9508L15.4722 27.2776C14.6126 26.7402 14.1633 25.636 14.4563 24.7469C14.6126 24.2583 23.1007 9.5629 23.4231 9.21114C23.804 8.80077 24.3803 8.56627 25.0054 8.56627C25.318 8.56627 25.6989 8.64443 25.9334 8.75191Z" fill="white"/>
<path d="M25.0737 12.4355C24.8392 12.5625 20.0628 18.7964 19.7307 19.4022C19.5842 19.6855 19.6526 20.3011 19.8773 20.6431C20.141 21.0437 20.5805 21.1707 21.782 21.1707C22.368 21.1707 22.8564 21.2 22.8564 21.2489C22.8564 21.288 22.5731 21.9817 22.2215 22.7829C21.5378 24.3756 21.4499 24.8153 21.7527 25.4406C22.1043 26.193 23.1983 26.5252 23.9406 26.0952C24.1653 25.9682 25.0053 24.9423 26.4509 23.0272C29.6743 18.7475 29.6352 18.8257 29.2249 18.0538C28.9221 17.4968 28.5412 17.3601 27.2812 17.3601C26.6756 17.3601 26.1774 17.3307 26.1774 17.3014C26.1774 17.2721 26.4705 16.5686 26.8221 15.7381C27.4082 14.3702 27.4668 14.1845 27.4277 13.7057C27.3788 13.0902 27.1054 12.6603 26.6267 12.4355C26.2165 12.2401 25.4351 12.2401 25.0737 12.4355ZM25.9821 13.8718C25.9821 13.95 25.65 14.7708 25.2397 15.7088C24.2141 18.044 24.2141 18.044 24.3704 18.4153C24.5364 18.7964 24.6341 18.8257 26.3435 18.855L27.7305 18.8745L25.5328 21.8058C23.5304 24.4733 23.0518 25.0302 23.0518 24.6785C23.0518 24.6101 23.4229 23.6916 23.8722 22.6461C24.3216 21.5909 24.7025 20.6626 24.7123 20.5845C24.7611 20.2718 24.7025 20.0861 24.5169 19.9005C24.3411 19.7246 24.1946 19.7051 22.8076 19.7051H21.2936L23.5108 16.7249C24.7416 15.0932 25.7965 13.7546 25.8649 13.7448C25.9235 13.7448 25.9821 13.8034 25.9821 13.8718Z" fill="white"/>
<path d="M0.244192 45.8422C0.107445 45.9693 0 46.194 0 46.3308C0 46.4676 0.107445 46.6923 0.244192 46.8193L0.478617 47.0636H4.00475H7.53089L7.76532 46.8193C7.90206 46.6923 8.00951 46.4676 8.00951 46.3308C8.00951 46.194 7.90206 45.9693 7.76532 45.8422L7.53089 45.598H4.00475H0.478617L0.244192 45.8422Z" fill="white"/>
</g>
<defs>
<clipPath id="clip0_449_5125">
<rect width="50" height="50" fill="white"/>
</clipPath>
</defs>
</svg>
