<svg width="50" height="70" viewBox="0 0 50 70" fill="none" xmlns="http://www.w3.org/2000/svg">
<path d="M20.7201 0.0285981C15.1359 0.644236 9.80978 3.44881 6.37228 7.58043C3.35598 11.2195 1.69837 15.1459 1.22283 19.7427C1.11413 20.8372 1.03261 21.0971 0.80163 21.2613C0.244565 21.658 0 22.4652 0 24.0111C0 25.174 0.0543478 25.5434 0.271739 25.9948C0.80163 27.062 0.910326 27.103 4.21196 27.144C6.94293 27.1714 7.16033 27.1577 7.58152 26.8978C8.41033 26.3916 8.55978 25.9401 8.55978 24.0522C8.55978 22.2737 8.50543 22.0274 7.88043 21.357C7.51359 20.9603 7.5 20.9329 7.62228 19.9206C7.88043 17.7316 8.84511 15.1459 10.1087 13.2306C10.4484 12.7244 11.1821 11.7941 11.7527 11.1785C12.7038 10.1387 12.7853 10.0019 12.7174 9.60519C12.6223 9.099 12.1875 8.70226 11.7255 8.70226C11.3451 8.70226 10.2174 9.71464 9.23913 10.9596C7.2962 13.4221 5.85598 16.9108 5.61141 19.7427L5.52989 20.7414H4.34783H3.16576L3.22011 20.0163C3.31522 18.9082 3.79076 16.6782 4.15761 15.5427C5.55707 11.3427 8.58696 7.48466 12.4457 4.98106C14.144 3.87292 16.9429 2.77845 19.2391 2.32698C20.9239 1.98496 24.7283 1.98496 26.3995 2.3133C30.4484 3.13415 33.7636 4.91266 36.6984 7.86772C39.0625 10.2619 40.5842 12.7518 41.5625 15.8573C42.4728 18.7303 42.4321 17.9779 42.4864 33.834L42.5408 48.2399H41.3859H40.231L40.1766 33.9024C40.1223 18.142 40.163 19.0176 39.2663 16.2951C38.7772 14.8039 38.0707 13.3674 37.1603 11.9857C36.2092 10.5355 33.8995 8.25079 32.3641 7.2384C27.4185 3.96868 21.2364 3.44881 15.788 5.85664C14.7418 6.32179 14.4837 6.49964 14.3071 6.85534C14.1168 7.25209 14.1168 7.33417 14.3207 7.71723C14.5924 8.26447 15.0815 8.3876 15.7337 8.11398C16.0054 8.00453 16.6712 7.71723 17.1875 7.49834C20.3804 6.15762 24.3478 6.04817 27.731 7.21104C32.7989 8.96219 36.4674 13.0938 37.8125 18.5525C38.0842 19.688 38.0978 20.03 38.1386 34.0118L38.1793 48.3083L37.5408 48.7187C37.1875 48.9376 36.712 49.4028 36.481 49.7174C36.1277 50.251 36.0734 50.4425 36.019 51.4686L35.9783 52.6178H31.5897H27.1875L27.1467 49.5943C27.106 46.6119 27.106 46.5708 26.7799 46.3109C26.3995 46.0099 25.8424 45.9689 25.462 46.2425C25.2174 46.4204 25.2038 46.6666 25.1359 49.4849L25.0679 52.5357L24.606 52.6315C24.0217 52.7546 23.5054 53.1376 23.1658 53.7259C22.9212 54.15 22.894 54.4373 22.894 56.9272C22.894 59.5813 22.9076 59.6771 23.2201 60.197C23.8587 61.223 23.8995 61.2367 30.3397 61.2367H36.0054V62.3996V63.5625H35.6386C35.0679 63.5625 33.9402 64.1507 33.5054 64.6706C32.8533 65.4504 32.7446 65.8745 32.7446 67.7214C32.7446 70.2524 31.7799 69.9925 41.3995 69.9925H49.3342L49.6603 69.6504C49.9728 69.3495 50 69.2263 50 67.8993C50 66.1618 49.769 65.2862 49.1168 64.6159C48.5326 64.0002 48.0435 63.7403 47.2962 63.6172L46.7391 63.5214V62.7826C46.7391 62.1807 46.6712 61.9892 46.3995 61.7155C45.9783 61.2778 45.394 61.2641 45 61.6882C44.769 61.9344 44.7011 62.1807 44.7011 62.7826V63.5625H41.3723H38.0435V57.2693V50.9624L38.3832 50.6341C38.7092 50.292 38.7228 50.292 41.3315 50.292C43.1793 50.3057 44.0217 50.3468 44.1712 50.4699C44.6603 50.8529 44.7011 51.1813 44.7011 54.8067V58.3774L45.0543 58.7331C45.3261 59.0067 45.4755 59.0615 45.8288 58.9931C46.6848 58.8152 46.6712 58.8836 46.6712 54.5605V50.6204L46.3315 49.95C46.087 49.4849 45.7609 49.1155 45.3125 48.8145L44.6332 48.3494L44.5652 33.9024C44.4973 20.9466 44.4701 19.3186 44.2527 18.2104C43.0707 12.0541 39.7962 6.97847 34.8641 3.6677C31.3043 1.27356 27.6359 0.110683 23.3696 0.0149172C22.2147 -0.0124445 21.019 0.00123638 20.7201 0.0285981ZM6.52174 23.9564V25.1193H4.27989H2.03804V23.9564V22.7935H4.27989H6.52174V23.9564ZM31.6576 56.9272V59.1846L28.3016 59.1572L24.9321 59.1162L24.8913 57.0641C24.8777 55.9422 24.8913 54.9435 24.9185 54.8478C24.9728 54.7109 25.7201 54.6699 28.3288 54.6699H31.6576V56.9272ZM36.0054 56.9272V59.1846H34.8505H33.6957V56.9272V54.6699H34.8505H36.0054V56.9272ZM47.5679 66.0113C47.9076 66.367 47.962 66.5175 47.962 67.1742V67.9403H41.3723H34.7826V67.1195C34.7826 66.4218 34.837 66.2302 35.1223 65.9566L35.4484 65.6146H41.3043H47.1739L47.5679 66.0113Z" fill="#E83A15"/>
<path d="M1.82067 29.6475C1.23643 29.8527 1.08698 30.2905 1.08698 31.6996C1.08698 32.8215 1.12774 33.0677 1.3723 33.3824C1.72556 33.8339 2.44567 33.8749 2.85328 33.4645C3.08426 33.2319 3.12502 33.013 3.12502 31.7407C3.12502 30.9472 3.07067 30.1811 2.98915 30.0443C2.81252 29.7296 2.18752 29.5107 1.82067 29.6475Z" fill="#E83A15"/>
<path d="M6.16851 31.8365C5.58427 32.0417 5.43481 32.4795 5.43481 33.8886C5.43481 35.0104 5.47558 35.2567 5.72014 35.5714C6.0734 36.0228 6.79351 36.0639 7.20112 35.6534C7.4321 35.4209 7.47286 35.202 7.47286 33.9297C7.47286 33.1362 7.41851 32.37 7.33699 32.2332C7.16036 31.9186 6.53536 31.6997 6.16851 31.8365Z" fill="#E83A15"/>
<path d="M1.3723 36.5566C1.12774 36.8712 1.08698 37.1175 1.08698 38.2667C1.08698 39.4569 1.11415 39.6484 1.39948 39.9494C1.83426 40.4419 2.40491 40.483 2.85328 40.0315C3.09784 39.7852 3.12502 39.58 3.12502 38.253C3.12502 36.9259 3.09784 36.7207 2.85328 36.4745C2.44567 36.064 1.72556 36.1051 1.3723 36.5566Z" fill="#E83A15"/>
<path d="M5.72014 38.7453C5.47558 39.06 5.43481 39.3062 5.43481 40.4554C5.43481 41.6593 5.46199 41.8372 5.74731 42.1655C6.16851 42.6444 6.86144 42.6854 7.22829 42.2339C7.4321 41.974 7.47286 41.673 7.47286 40.4281C7.47286 39.1147 7.44568 38.9095 7.20112 38.6632C6.79351 38.2528 6.0734 38.2939 5.72014 38.7453Z" fill="#E83A15"/>
<path d="M1.3723 43.1234C1.12774 43.438 1.08698 43.6843 1.08698 44.7651C1.08698 45.4628 1.15491 46.1879 1.23643 46.3794C1.54893 47.0771 2.63589 47.1319 2.97556 46.4752C3.05708 46.3247 3.12502 45.5586 3.12502 44.7651C3.12502 43.4928 3.08426 43.2739 2.85328 43.0413C2.44567 42.6309 1.72556 42.6719 1.3723 43.1234Z" fill="#E83A15"/>
<path d="M5.72014 45.3121C5.47558 45.6268 5.43481 45.873 5.43481 46.9538C5.43481 47.6515 5.50275 48.3766 5.58427 48.5681C5.89677 49.2659 6.98373 49.3206 7.3234 48.6639C7.40492 48.5134 7.47286 47.7473 7.47286 46.9538C7.47286 45.6815 7.4321 45.4626 7.20112 45.23C6.79351 44.8196 6.0734 44.8606 5.72014 45.3121Z" fill="#E83A15"/>
<path d="M1.3723 49.69C1.12774 50.0047 1.08698 50.2509 1.08698 51.3317C1.08698 52.0295 1.15491 52.7545 1.23643 52.9461C1.54893 53.6438 2.63589 53.6985 2.97556 53.0418C3.05708 52.8913 3.12502 52.1389 3.12502 51.3454C3.12502 50.0457 3.09784 49.9089 2.81252 49.6353C2.36415 49.2112 1.72556 49.2386 1.3723 49.69Z" fill="#E83A15"/>
<path d="M5.77449 51.8654C5.46199 52.1664 5.43481 52.3032 5.43481 53.4934C5.43481 54.9299 5.57068 55.3814 6.0734 55.614C6.56253 55.8328 6.76634 55.8055 7.13318 55.4224C7.45927 55.1078 7.47286 54.9983 7.47286 53.6029C7.47286 52.2211 7.44568 52.098 7.16036 51.8244C6.73916 51.4276 6.1821 51.4413 5.77449 51.8654Z" fill="#E83A15"/>
<path d="M1.41303 56.2432C1.07336 56.5852 1.05977 56.64 1.11412 58.0901C1.15488 59.7318 1.24999 59.937 1.99727 60.0875C2.35053 60.1559 2.49999 60.1012 2.77173 59.8276C3.1114 59.4856 3.12499 59.4035 3.12499 57.9807C3.12499 56.5989 3.09781 56.4758 2.81249 56.2022C2.39129 55.8054 1.83423 55.8191 1.41303 56.2432Z" fill="#E83A15"/>
<path d="M5.76087 58.432C5.4212 58.7741 5.40761 58.8288 5.46196 60.2926C5.50272 61.6881 5.52989 61.8249 5.8288 62.0711C6.23641 62.4132 6.6712 62.3995 7.11957 62.0438C7.45924 61.7702 7.47283 61.7291 7.47283 60.2242C7.47283 58.7877 7.44565 58.6646 7.16033 58.391C6.73913 57.9943 6.18207 58.0079 5.76087 58.432Z" fill="#E83A15"/>
</svg>
