<svg width="50" height="50" viewBox="0 0 50 50" fill="none" xmlns="http://www.w3.org/2000/svg">
<g clip-path="url(#clip0_449_5363)">
<path d="M16.1331 0.138359C11.1855 0.924824 6.89282 4.14128 4.75658 8.66851C3.68845 10.9372 3.30554 12.5908 3.29547 15.1115C3.28539 16.0795 3.31562 17.0676 3.366 17.2995L3.43654 17.7331H2.77148C2.39865 17.7331 1.91497 17.7835 1.68321 17.854C1.12899 18.0154 0.292633 18.8523 0.131407 19.4068C-0.039896 20.0118 -0.039896 44.4931 0.131407 45.0981C0.363169 45.8846 1.49175 46.7719 2.26765 46.7719C2.39865 46.7719 2.42888 46.8828 2.42888 47.3365C2.42888 47.6491 2.47926 48.0927 2.5498 48.3246C2.71102 48.8792 3.54738 49.7161 4.1016 49.8774C4.42405 49.9682 9.22052 49.9984 25.0207 49.9984C48.1465 49.9984 46.101 50.069 46.897 49.1918C47.3908 48.6372 47.5722 48.1532 47.5722 47.3365C47.5722 46.8626 47.6024 46.7719 47.7535 46.7719C47.8543 46.7719 48.1465 46.7013 48.4085 46.6105C48.9829 46.419 49.6983 45.6728 49.8696 45.0779C50.0409 44.5032 50.0409 20.0017 49.8696 19.427C49.8092 19.2052 49.5572 18.8018 49.3154 18.5397C48.5597 17.6927 48.9325 17.7331 40.8007 17.7331H33.6664L33.7369 17.1482C33.878 16.1299 33.8176 13.6192 33.6261 12.5908C32.4572 6.07719 27.167 0.985321 20.6373 0.0980263C19.5793 -0.0532188 17.1911 -0.0229683 16.1331 0.138359ZM21.1412 1.85246C26.0183 2.80025 30.0489 6.37968 31.5906 11.1287C32.0642 12.5706 32.1952 13.5083 32.1952 15.3132C32.2053 17.1886 32.0743 17.9952 31.4899 19.7496C29.9884 24.2567 25.9578 27.816 21.3024 28.7234C20.9598 28.794 20.597 28.9251 20.4963 29.0158C20.3955 29.1167 19.932 29.7418 19.4584 30.4174C18.9848 31.0929 18.5817 31.6374 18.5515 31.6374C18.5212 31.6374 18.098 31.0526 17.5942 30.3367C17.1004 29.6208 16.5966 28.9957 16.4858 28.9352C16.3749 28.8747 15.8812 28.7335 15.3874 28.6226C10.208 27.4328 6.19753 23.2383 5.08911 17.8843C4.83719 16.6542 4.82711 14.0225 5.07903 12.7723C6.22776 7.02499 10.7119 2.68933 16.4858 1.75163C17.6143 1.57013 19.9723 1.62055 21.1412 1.85246ZM4.04114 20.1731L4.31321 20.9596H4.02098C3.84968 20.9596 3.628 21.0604 3.48692 21.2117L3.23501 21.4536V32.2525V43.0513L3.48692 43.2933L3.72876 43.5453H18.5515H33.3742L33.616 43.2933L33.8679 43.0513V32.2525V21.4536L33.616 21.2117C33.475 21.0604 33.2533 20.9596 33.082 20.9596H32.7897L33.0618 20.1731L33.344 19.3967L40.6092 19.3665L47.8845 19.3463L48.1264 19.5883L48.3783 19.8404V32.2525V44.6645L48.1264 44.9065L47.8845 45.1586H25.0005H2.1165L1.87466 44.9065L1.62275 44.6645V32.2525V19.8404L1.87466 19.5883C2.10642 19.3564 2.18704 19.3362 2.94278 19.3665L3.75899 19.3967L4.04114 20.1731ZM5.21002 22.8451C7.06412 25.9204 9.66389 28.2092 12.707 29.4595C13.1806 29.6611 14.0371 29.9435 14.6014 30.0947L15.6494 30.377L16.8586 32.071C18.5716 34.4606 18.5313 34.4606 20.2544 32.0609L21.4636 30.3569L22.1992 30.1855C26.0082 29.278 29.5451 26.6867 31.6209 23.2887C31.8325 22.9258 32.0642 22.6233 32.1348 22.593C32.2255 22.5628 32.2557 24.7205 32.2557 32.2424V41.9321H31.4496H30.6434V41.3674C30.6434 40.5507 30.462 40.0667 29.9683 39.5122C29.2025 38.6551 29.9381 38.7055 18.5716 38.7055C10.994 38.7055 8.44462 38.7358 8.13225 38.8265C7.57803 38.9879 6.74167 39.8247 6.58045 40.3793C6.50991 40.6112 6.45953 41.0548 6.45953 41.3674V41.9321H5.6534H4.84727V32.2525C4.84727 26.0212 4.8775 22.5729 4.94803 22.5729C4.99842 22.5729 5.11934 22.6938 5.21002 22.8451ZM28.7792 40.5709C28.9909 40.7725 29.0312 40.9137 29.0312 41.3775V41.9321H18.5515H8.07179V41.3775C8.07179 40.9137 8.11209 40.7725 8.3237 40.5709L8.56554 40.3188H18.5515H28.5374L28.7792 40.5709ZM45.9599 47.3264C45.9599 47.7902 45.9196 47.9314 45.708 48.1331L45.4661 48.3851H25.0005H4.53489L4.29305 48.1331C4.08144 47.9314 4.04114 47.7902 4.04114 47.3264V46.7719H25.0005H45.9599V47.3264Z" fill="white"/>
<path d="M10.3189 7.07546C8.25316 9.13237 8.07178 9.34411 8.07178 9.66677C8.07178 9.98942 8.25316 10.2012 10.3189 12.2581L12.5559 14.5066H13.3721H14.1782L14.5712 14.9099L14.9642 15.3132L14.5208 15.7669L14.0774 16.2207L13.3116 16.1602C9.92588 15.8778 7.33618 19.0237 8.27331 22.3007C8.43454 22.8351 8.69653 23.077 9.1399 23.077C9.47243 23.077 9.6135 22.9762 10.5909 22.0183L11.6591 20.9596H12.2838H12.9086V21.5848V22.2099L11.8505 23.2787C10.8932 24.2568 10.7925 24.3979 10.7925 24.7306C10.7925 25.1743 11.0343 25.4365 11.5684 25.5978C14.8231 26.5254 18.0073 23.8837 17.705 20.4958C17.6446 19.8303 17.6546 19.7799 17.8965 19.548L18.1585 19.306L21.4032 22.5527C24.406 25.5574 24.6781 25.7994 25.0005 25.7994C25.3129 25.7994 25.5144 25.628 27.1871 23.9543C28.8599 22.2805 29.0312 22.0788 29.0312 21.7663C29.0312 21.4436 28.7893 21.1714 25.7865 18.1667L22.5317 14.9099L22.7635 14.6881C22.9751 14.4763 23.0859 14.4562 24.1238 14.4562C25.4439 14.4461 26.0485 14.2646 26.9957 13.5991C28.3762 12.6412 29.1621 10.9574 29.0009 9.33403C28.8699 8.02325 28.5979 7.54935 27.963 7.54935C27.6305 7.54935 27.4894 7.65018 26.512 8.60806L25.4439 9.66677H24.8191H24.1944V9.03154V8.4064L25.1617 7.44852C26.2399 6.37973 26.4415 6.05708 26.2903 5.61343C26.1694 5.2807 25.857 5.0992 25.1214 4.93788C23.3278 4.55473 21.4737 5.26053 20.3552 6.74272C19.5994 7.75101 19.2871 8.8198 19.3979 10.0701L19.4584 10.8364L19.0049 11.28L18.5515 11.7237L18.1484 11.3304L17.7453 10.9372V10.1306V9.31386L15.4982 7.07546C13.4426 5.00846 13.231 4.82697 12.9086 4.82697C12.5861 4.82697 12.3745 5.00846 10.3189 7.07546ZM23.2069 7.08554L22.5821 7.73085V9.26345C22.5821 10.7456 22.5922 10.7961 22.834 11.028C23.0658 11.27 23.1162 11.28 24.5974 11.28H26.1291L26.7639 10.665L27.3987 10.06L27.3181 10.4028C27.2073 10.907 26.7135 11.764 26.381 12.0463C26.2097 12.1875 25.8469 12.4194 25.5648 12.5606C25.0005 12.853 24.1843 12.9135 23.0658 12.7521L22.5015 12.6614L21.9271 13.2059C21.4535 13.6596 21.3024 13.7403 20.9699 13.7503C20.6272 13.7604 20.5063 13.6999 20.1436 13.3269L19.7204 12.8933L20.4559 12.1371L21.2016 11.3809L21.1311 10.8465C20.9497 9.39453 20.9497 9.26345 21.121 8.73914C21.4535 7.7006 22.1791 6.96454 23.1867 6.61164C23.4386 6.5209 23.6805 6.45032 23.7309 6.44023C23.7812 6.44023 23.5394 6.73264 23.2069 7.08554ZM14.541 8.42657L16.1331 10.0197V10.8162V11.6229L17.7655 13.2664L19.408 14.9099L18.7732 15.535L18.1484 16.1702L16.5059 14.5267L14.8634 12.8933H14.0573H13.2612L11.649 11.28L10.0367 9.66677L11.4474 8.25516C12.2233 7.47877 12.8783 6.84355 12.9086 6.84355C12.9388 6.84355 13.6744 7.55944 14.541 8.42657ZM24.0432 18.7414L27.0662 21.7663L26.0283 22.7947L25.0005 23.8333L21.9574 20.7882L18.9041 17.7331L19.9118 16.7248C20.466 16.1702 20.9396 15.7165 20.9699 15.7165C21.0001 15.7165 22.3806 17.0777 24.0432 18.7414ZM16.5865 16.9265C16.909 17.2491 16.9896 17.4104 16.9896 17.7129C16.9997 18.0255 16.909 18.1768 16.4455 18.6708L15.9013 19.2556L15.992 19.8303C16.1532 20.9496 16.0928 21.7663 15.8005 22.3309C15.6595 22.6132 15.4277 22.9762 15.2866 23.1476C15.0045 23.4804 14.148 23.9744 13.6442 24.0853L13.3015 24.166L13.9061 23.5308L14.5208 22.8956V21.363C14.5208 19.8808 14.5107 19.8303 14.2689 19.5984C14.0371 19.3565 13.9868 19.3464 12.5055 19.3464H10.9738L10.339 19.9614C9.70419 20.5664 9.70419 20.5664 9.77473 20.2337C9.98634 19.3161 10.6816 18.4591 11.5684 18.0255C12.0924 17.7734 12.9589 17.723 14.0371 17.8743L14.6216 17.965L15.3471 17.2491C15.7502 16.8458 16.1028 16.5232 16.1331 16.5232C16.1633 16.5232 16.3749 16.7046 16.5865 16.9265Z" fill="white"/>
<path d="M35.7319 21.2116L35.48 21.4536V32.2524V43.0512L35.7319 43.2932L35.9737 43.5453H41.1229H46.272L46.5139 43.2932L46.7658 43.0512V32.2524V21.4536L46.5139 21.2116L46.272 20.9595H41.1229H35.9737L35.7319 21.2116ZM45.1535 28.2192V33.8657H41.1229H37.0922V28.2192V22.5728H41.1229H45.1535V28.2192ZM45.1535 38.7055V41.932H41.1229H37.0922V38.7055V35.479H41.1229H45.1535V38.7055Z" fill="white"/>
<path d="M38.7046 24.9928V25.7994H39.5107H40.3168V24.9928V24.1862H39.5107H38.7046V24.9928Z" fill="white"/>
<path d="M41.9292 24.9928V25.7994H42.7353H43.5415V24.9928V24.1862H42.7353H41.9292V24.9928Z" fill="white"/>
<path d="M38.7046 28.2192V29.0259H39.5107H40.3168V28.2192V27.4126H39.5107H38.7046V28.2192Z" fill="white"/>
<path d="M41.9292 28.2192V29.0259H42.7353H43.5415V28.2192V27.4126H42.7353H41.9292V28.2192Z" fill="white"/>
<path d="M38.7046 31.4458V32.2524H39.5107H40.3168V31.4458V30.6392H39.5107H38.7046V31.4458Z" fill="white"/>
<path d="M41.9292 31.4458V32.2524H42.7353H43.5415V31.4458V30.6392H42.7353H41.9292V31.4458Z" fill="white"/>
<path d="M40.3172 36.4167C39.8234 36.578 38.977 37.4451 38.8258 37.9593C38.5437 38.9071 38.7452 39.6634 39.4607 40.3692C40.4784 41.3976 41.7682 41.3976 42.7859 40.3692C43.7734 39.3911 43.8037 38.1308 42.8665 37.0922C42.2116 36.3662 41.2744 36.1142 40.3172 36.4167ZM41.6775 38.1509C42.1813 38.645 41.8287 39.5121 41.1233 39.5121C40.7102 39.5121 40.3172 39.1189 40.3172 38.7055C40.3172 38.2921 40.7102 37.8988 41.1233 37.8988C41.3147 37.8988 41.5264 37.9896 41.6775 38.1509Z" fill="white"/>
</g>
<defs>
<clipPath id="clip0_449_5363">
<rect width="50" height="50" fill="white"/>
</clipPath>
</defs>
</svg>
