<svg width="50" height="50" viewBox="0 0 50 50" fill="none" xmlns="http://www.w3.org/2000/svg">
<g clip-path="url(#clip0_637_160)">
<path d="M18.0039 0.25198C17.7011 0.544281 17.6809 1.05833 17.903 2.32832C18.1958 4.03172 18.4885 4.63648 20.5378 7.92234C21.6988 9.76685 22.1026 10.3414 22.3146 10.422L22.5973 10.5228V16.9433V23.3538L21.9815 23.4243C20.7196 23.5654 19.5384 24.14 18.6198 25.0572L18.0544 25.6216L16.5603 25.4603C13.451 25.1177 12.3506 25.0572 8.81727 25.0572L5.18299 25.0471L4.37537 25.3293C3.19423 25.7526 2.47746 26.2264 1.3367 27.3653C0.518987 28.1717 0.286796 28.4741 0.145463 28.8672C-0.177585 29.8449 0.0344154 30.8024 0.741082 31.4979C1.51842 32.284 1.18527 32.2538 9.64508 32.2538C16.7017 32.2538 17.1559 32.2639 17.2064 32.4252C17.4386 33.1408 17.7314 33.7455 18.115 34.2898L18.5592 34.9248V40.1258V45.3368L18.2563 45.4577C17.8323 45.6291 17.2064 46.3648 17.0651 46.8487C16.7824 47.7659 16.9843 48.5319 17.7011 49.2375C18.7308 50.2756 20.1542 50.2555 21.1133 49.1871C21.7493 48.4815 21.931 47.7155 21.6685 46.8487C21.5272 46.3648 20.9013 45.6291 20.4773 45.4577L20.1744 45.3368V40.8111C20.1744 38.3216 20.1946 36.2855 20.2148 36.2855C20.235 36.2855 20.5177 36.4065 20.8407 36.5476C21.8603 37.0012 22.5569 37.0919 24.9898 37.0919C28.0184 37.0919 28.927 36.8903 30.3706 35.8723L30.9763 35.4489L31.4003 35.7312C31.6426 35.8924 32.5815 36.5375 33.5001 37.1826C35.4687 38.5534 36.5893 39.138 37.6594 39.3597C38.7799 39.5815 39.4563 39.5512 41.7177 39.1682C43.4641 38.8759 43.767 38.7953 44.1304 38.5332C45.1198 37.8377 45.4832 36.4972 44.9582 35.4893C44.5443 34.6829 44.4333 34.6224 38.6083 32.2941L33.0963 30.0968V29.6937L33.1064 29.2804L40.9302 24.5431C45.2308 21.9326 48.9358 19.6547 49.1579 19.4632C49.7636 18.9592 49.9958 18.4351 49.9958 17.5884C49.9958 16.7821 49.7938 16.2882 49.2285 15.754C48.7339 15.2802 48.3401 15.1492 46.2504 14.8065C43.5449 14.363 42.3839 14.484 40.8999 15.3911C40.5466 15.6028 38.1238 17.6993 35.4687 20.0881L30.6735 24.402L30.2394 24.15C29.6337 23.7973 28.7655 23.505 28.0487 23.4243L27.443 23.3538V16.9433V10.5228L27.7257 10.422C27.9377 10.3414 28.3718 9.71646 29.6337 7.7006C30.522 6.25925 31.3801 4.78767 31.5316 4.4349C31.9152 3.51768 32.1878 2.39888 32.2584 1.39095C32.319 0.554359 32.3089 0.514042 32.0565 0.262062L31.794 0H25.0201H18.2462L18.0039 0.25198ZM30.5624 2.07634C30.2999 3.48744 30.0678 3.96117 28.3818 6.65235L26.9887 8.8698H25.01H23.0314L21.6382 6.63219C19.9523 3.93093 19.7403 3.47736 19.4778 2.07634L19.3971 1.61269H25.0201H30.6432L30.5624 2.07634ZM25.8278 16.9332V23.384H25.0201H24.2125V16.9332V10.4825H25.0201H25.8278V16.9332ZM46.1091 16.4293C47.0681 16.5905 47.9565 16.7921 48.0878 16.8728C48.3805 17.0643 48.5017 17.5582 48.3401 17.9412C48.2392 18.173 46.634 19.191 39.5169 23.5251L30.8047 28.8168L29.7245 28.595C28.8765 28.4337 28.6746 28.3632 28.7756 28.2624C28.8462 28.2019 31.7234 25.6115 35.1658 22.5273C39.0121 19.0701 41.6066 16.8224 41.9095 16.6712C42.5253 16.3587 43.3228 16.137 43.8982 16.137C44.1506 16.1269 45.1399 16.2579 46.1091 16.4293ZM28.8967 25.2789L29.4015 25.5107L29.0986 25.793C28.9371 25.9542 28.2708 26.559 27.6247 27.1335L26.4436 28.1918L24.3438 28.2523C23.1929 28.2826 21.8603 28.3632 21.3858 28.4237C20.558 28.5245 19.1144 28.8369 18.7207 28.9881C18.539 29.0587 18.5289 29.0284 18.5996 28.5144C18.6904 27.7987 19.1447 26.8311 19.6596 26.2768C20.1038 25.793 21.0224 25.2588 21.6483 25.1076C21.8704 25.0572 23.4756 25.0169 25.222 25.0269C28.3011 25.0471 28.4222 25.0572 28.8967 25.2789ZM12.1992 26.7102C13.0573 26.7606 14.5514 26.8815 15.5104 26.9722L17.2569 27.1537L17.1862 27.4057C17.0045 28.091 16.954 28.5547 16.9439 29.5525V30.6411H9.56432H2.1847L1.89194 30.3488C1.69003 30.1371 1.59918 29.9557 1.59918 29.7138C1.59918 29.4316 1.73042 29.2502 2.58851 28.4136C3.61823 27.4057 4.27442 26.9924 5.26375 26.7505C5.89975 26.5993 9.92775 26.5691 12.1992 26.7102ZM27.4733 29.9456C29.5428 30.1271 31.4811 30.5806 31.4811 30.8931C31.4811 30.9637 31.4306 31.256 31.3801 31.5583C31.0369 33.3323 29.5933 34.8543 27.7963 35.328C26.9584 35.5397 23.0919 35.5397 22.2641 35.328C20.3158 34.824 18.8721 33.2214 18.6097 31.2862L18.5491 30.7721L18.9529 30.6109C20.5076 29.986 24.4548 29.6735 27.4733 29.9456ZM38.1944 33.8665C41.4249 35.1566 43.3026 35.9529 43.4238 36.094C43.6559 36.3863 43.6358 36.729 43.3733 37.0314C43.1613 37.2632 42.9392 37.3237 41.3038 37.5958C40.3043 37.7571 39.2544 37.8982 38.9818 37.8982C38.3156 37.8982 37.3363 37.6563 36.7003 37.3338C36.2864 37.1221 32.5007 34.572 32.1575 34.2697C32.107 34.2294 32.2281 33.8564 32.4199 33.4532C32.6118 33.04 32.8036 32.5461 32.8439 32.3546C32.9247 31.9514 32.9752 31.8506 33.0761 31.8506C33.1165 31.8506 35.4182 32.7578 38.1944 33.8665ZM19.922 47.02C20.4268 47.5139 20.0735 48.3807 19.3668 48.3807C18.9529 48.3807 18.5592 47.9876 18.5592 47.5744C18.5592 47.1611 18.9529 46.768 19.3668 46.768C19.5586 46.768 19.7706 46.8587 19.922 47.02Z" fill="white"/>
</g>
<defs>
<clipPath id="clip0_637_160">
<rect width="50" height="50" fill="white"/>
</clipPath>
</defs>
</svg>
