<svg width="50" height="37" viewBox="0 0 50 37" fill="none" xmlns="http://www.w3.org/2000/svg">
<path d="M24.0421 0.169296C23.0546 0.517532 22.6343 1.13441 22.556 2.31841L22.5072 3.11437L20.5128 3.14422L18.5282 3.16412L18.0882 2.75619C17.8536 2.5373 17.4039 2.22886 17.1008 2.08957C16.6218 1.86073 16.4165 1.82093 15.6637 1.82093C14.9012 1.82093 14.7056 1.86073 14.1875 2.09951C13.4347 2.4577 12.7699 3.13427 12.418 3.91034C12.1931 4.41776 12.1442 4.63666 12.1442 5.35303C12.1442 6.10919 12.1735 6.26838 12.4571 6.85541C12.8383 7.64143 13.4543 8.24835 14.2266 8.61649C14.6959 8.84533 14.9207 8.88512 15.6637 8.88512C16.4067 8.88512 16.6316 8.84533 17.0911 8.62643C17.3843 8.48714 17.8243 8.1787 18.0589 7.94986L18.4793 7.54193H20.5226H22.556V9.57164V11.5914L21.51 11.6412C20.3564 11.6909 20.0142 11.8103 19.4472 12.3575C19.0463 12.7356 18.7726 13.2629 18.6846 13.8002L18.6162 14.2081H17.3648C16.1721 14.2081 16.1036 14.1982 16.1036 14.0092C16.1036 13.7704 15.5757 13.1535 15.2042 12.9545C14.8523 12.7655 14.119 12.7456 13.64 12.9048C13.2392 13.0341 12.721 13.5813 12.6233 13.9495L12.5646 14.1783L10.2574 14.238C7.69598 14.2977 7.38313 14.3474 6.20997 14.9743C5.34965 15.4319 4.40134 16.3971 3.94185 17.2826C3.34549 18.4467 3.29661 18.7849 3.29661 22.0186V24.9238L2.89578 25.2522C2.34831 25.6999 2.08434 26.3168 2.15278 27.0033C2.22121 27.66 2.44607 28.0679 2.93489 28.3863L3.30639 28.645L3.27706 30.0081L3.24773 31.3712L2.61227 31.401C1.66396 31.4408 1.63463 31.4906 1.63463 33.3213V34.8038H0.950286C0.334375 34.8038 0.256164 34.8237 0.109518 35.0525C-0.0957852 35.3808 0.00197841 35.7788 0.324598 35.8982C0.666771 36.0375 49.3335 36.0375 49.6757 35.8982C49.9983 35.7788 50.0961 35.3808 49.8908 35.0525C49.7441 34.8237 49.6659 34.8038 49.05 34.8038H48.3656V33.3213C48.3656 31.4906 48.3363 31.4408 47.388 31.401L46.7525 31.3712L46.7232 29.9981L46.6939 28.635L47.0361 28.4261C48.1017 27.7893 48.1408 26.0979 47.1045 25.2522L46.7037 24.9238V22.0186C46.7037 19.7401 46.6743 19.0038 46.557 18.5462C46.1855 17.0836 45.0808 15.6608 43.8001 14.9743C42.666 14.3673 42.2261 14.2877 39.694 14.238L37.4357 14.1882L37.377 13.9495C37.2792 13.5813 36.7611 13.0341 36.3603 12.9048C35.8226 12.7257 35.1284 12.7754 34.6983 13.0142C34.3072 13.2331 33.8966 13.7604 33.8966 14.039C33.8966 14.1882 33.75 14.2081 32.6355 14.2081H31.3841L31.3157 13.8002C31.2277 13.2629 30.9539 12.7356 30.5531 12.3575C29.9861 11.8103 29.6439 11.6909 28.5001 11.6412L27.4442 11.5914V9.57164V7.54193H29.507C31.5699 7.54193 31.5699 7.54193 31.7556 7.78072C32.0391 8.1389 32.8017 8.59659 33.4469 8.78563C35.1089 9.27316 36.986 8.318 37.6214 6.66637C37.9538 5.80076 37.9343 4.69635 37.5823 3.91034C37.2304 3.13427 36.5656 2.4577 35.8128 2.09951C35.2946 1.86073 35.0991 1.82093 34.3366 1.82093C33.5838 1.82093 33.3785 1.86073 32.8994 2.08957C32.5964 2.22886 32.1564 2.5373 31.912 2.75619L31.4819 3.16412H29.4582H27.4442V2.4179C27.4442 1.87067 27.3953 1.56224 27.2585 1.28365C26.711 0.199146 25.3228 -0.278435 24.0421 0.169296ZM25.88 1.3732C26.1537 1.52244 26.2711 1.87067 26.2711 2.5771V3.16412H25.0001H23.7292V2.5373C23.739 1.47269 24.0714 1.13441 25.0686 1.214C25.4107 1.24385 25.7725 1.3135 25.88 1.3732ZM16.436 3.07457C16.7 3.14422 16.9933 3.36311 17.3648 3.77104L17.9221 4.35807H25.0001H32.0782L32.6355 3.77104C33.2612 3.09447 33.7011 2.91538 34.6005 2.98503C35.8226 3.07457 36.634 4.01978 36.634 5.34307C36.634 6.79571 35.7053 7.74092 34.2877 7.74092C33.6718 7.73097 33.1047 7.44244 32.5475 6.83551L32.0684 6.31813H25.0099H17.9514L17.3941 6.87531C16.7684 7.50213 16.2992 7.74092 15.693 7.74092C14.735 7.74092 13.992 7.29319 13.6009 6.48728C13.376 6.0296 13.3467 5.8505 13.3858 5.22368C13.4151 4.61676 13.4738 4.39787 13.7084 3.99988C14.2266 3.13427 15.3313 2.75619 16.436 3.07457ZM26.2711 9.58159V11.6213H25.0001H23.7292V9.58159V7.54193H25.0001H26.2711V9.58159ZM29.3995 12.9943C29.5853 13.0838 29.8394 13.3127 29.9568 13.5017L30.1816 13.84V18.0586C30.1816 22.7349 30.1718 22.7847 29.5559 23.1727C29.2724 23.3518 28.9889 23.3618 25.0001 23.3618C21.0114 23.3618 20.7279 23.3518 20.4444 23.1727C19.8284 22.7847 19.8187 22.7349 19.8187 18.0586V13.84L20.0435 13.5017C20.4932 12.8152 20.4737 12.8152 25.0001 12.8152C28.6663 12.8152 29.0867 12.8351 29.3995 12.9943ZM14.7838 14.1584L15.0282 14.3972V17.7104C15.0282 21.4116 15.0087 21.5012 14.4417 21.5509C13.7475 21.6106 13.7671 21.73 13.7475 17.7999L13.728 14.2678L13.9528 14.0888C14.2461 13.84 14.5003 13.8599 14.7838 14.1584ZM36.0474 14.0888L36.2723 14.2678L36.2527 17.7999C36.2332 21.73 36.2527 21.6106 35.5586 21.5509C34.9916 21.5012 34.972 21.4116 34.972 17.7104V14.3972L35.2164 14.1584C35.5 13.8599 35.7541 13.84 36.0474 14.0888ZM12.4864 18.0885V20.7749H11.2643C9.56326 20.7749 9.65125 20.6455 9.65125 23.0633V24.9537H7.05074H4.46L4.48933 21.8892L4.51866 18.8347L4.87061 18.0885C5.54518 16.6458 6.75744 15.7304 8.29233 15.5016C8.58562 15.4618 9.64147 15.422 10.6582 15.412L12.4864 15.4021V18.0885ZM18.6455 18.0885V20.7749H17.4235H16.2014V18.0885V15.4021H17.4235H18.6455V18.0885ZM33.7989 18.0885V20.7749H32.5768H31.3548V18.0885V15.4021H32.5768H33.7989V18.0885ZM42.4803 15.6906C43.7219 16.1284 44.5724 16.8945 45.1297 18.0885L45.4816 18.8347L45.5109 21.8892L45.5403 24.9537H42.9495H40.349V23.0633C40.349 20.6455 40.437 20.7749 38.7359 20.7749H37.5139V18.0785V15.3822L39.694 15.422C41.6004 15.4618 41.9426 15.4916 42.4803 15.6906ZM12.9361 22.1181C13.0534 22.4265 13.7964 22.7648 14.3341 22.7648C14.8914 22.7648 15.5366 22.4862 15.7321 22.1678C15.8495 21.9887 15.9668 21.9688 17.2475 21.9688H18.6455V22.2076C18.6455 22.914 19.2125 23.8194 19.9067 24.2373L20.3564 24.506H25.0001C30.2109 24.506 29.9079 24.5458 30.6704 23.7498C31.0419 23.3618 31.3548 22.6454 31.3548 22.1977C31.3548 21.9688 31.3548 21.9688 32.7528 21.9688C34.0335 21.9688 34.1508 21.9887 34.2681 22.1678C34.4637 22.4862 35.1089 22.7648 35.6661 22.7648C36.2038 22.7648 36.9469 22.4265 37.0642 22.1181C37.1033 21.9987 37.3086 21.9688 38.1493 21.9688H39.1759V23.511V25.0432L38.8923 25.2024C38.2667 25.5308 37.9343 26.4163 38.12 27.2719C38.2276 27.7794 38.6577 28.3763 38.9901 28.4858C39.1661 28.5455 39.1759 28.6549 39.1759 29.9882V31.4209H38.5502C37.6116 31.4209 37.6116 31.4309 37.6116 33.2715V34.8038H25.0001H12.3886V33.2715C12.3886 31.4309 12.3886 31.4209 11.4501 31.4209H10.8244V29.9882C10.8244 28.6549 10.8342 28.5455 11.0102 28.4858C11.3426 28.3763 11.7727 27.7794 11.8803 27.2719C12.066 26.4163 11.7336 25.5308 11.1079 25.2024L10.8244 25.0432V23.511V21.9688H11.8509C12.6917 21.9688 12.897 21.9987 12.9361 22.1181ZM10.5311 26.2471C10.7951 26.3864 10.8733 26.8939 10.6875 27.1923L10.5311 27.4411H7.08984C4.02984 27.4411 3.63879 27.4212 3.47259 27.2719C3.25751 27.0729 3.24773 26.5755 3.46281 26.3267C3.60946 26.1576 3.85386 26.1476 6.9823 26.1476C9.02556 26.1476 10.4236 26.1874 10.5311 26.2471ZM46.5277 26.3168C46.7428 26.5158 46.7525 27.0132 46.5375 27.262C46.3908 27.4311 46.1464 27.4411 42.93 27.4411H39.4692L39.3127 27.1923C39.127 26.9038 39.2052 26.3964 39.4496 26.2471C39.5474 26.1974 40.9747 26.1476 42.9789 26.1476C45.9802 26.1476 46.3615 26.1675 46.5277 26.3168ZM9.65125 30.028V31.3214H7.06051H4.46978V30.028V28.7345H7.06051H9.65125V30.028ZM45.5305 30.028V31.3214H42.9398H40.349V30.028V28.7345H42.9398H45.5305V30.028ZM11.2155 33.7093V34.8038L7.04096 34.7839L2.85668 34.754L2.82735 33.6795L2.79802 32.6149H7.01163H11.2155V33.7093ZM47.1729 33.6795L47.1436 34.754L42.9691 34.7839L38.7848 34.8038V33.7093V32.6149H42.9886H47.2023L47.1729 33.6795Z" fill="white"/>
<path d="M24.7847 13.8798C24.638 13.9196 23.1227 16.4369 22.5263 17.6408C22.1353 18.4268 21.9398 19.2228 22.018 19.7103C22.1744 20.6953 22.8001 21.5808 23.6702 22.0484C24.1003 22.2773 24.2861 22.3171 24.9998 22.3171C25.7134 22.3171 25.8992 22.2773 26.3293 22.0484C27.6394 21.352 28.2553 19.9292 27.8447 18.586C27.5221 17.5612 25.5668 14.0788 25.2148 13.9196C25.0877 13.8599 24.9802 13.8201 24.9704 13.8201C24.9607 13.8301 24.8727 13.85 24.7847 13.8798ZM25.6646 16.7652C26.8377 18.8646 26.9844 19.4118 26.6129 20.2078C26.4173 20.6257 25.8014 21.0535 25.2539 21.143C24.3741 21.2823 23.4649 20.6853 23.2498 19.8297C23.1227 19.3024 23.1814 19.0138 23.6017 18.1383C23.983 17.3622 24.9313 15.7006 24.9998 15.7006C25.0389 15.7006 25.3322 16.1782 25.6646 16.7652Z" fill="white"/>
</svg>
