<svg width="46" height="46" viewBox="0 0 46 46" fill="none" xmlns="http://www.w3.org/2000/svg">
<path d="M28.1055 0.18878L27.871 0.368467V2.31808V4.26769L26.2386 7.38527L24.6061 10.5028L24.2002 10.5657C23.7493 10.6286 23.3434 10.9251 23.1901 11.3114C23.1089 11.4821 23.0909 12.0122 23.1089 12.9196L23.136 14.2763L23.4066 14.5548C23.5509 14.6986 23.8214 14.8693 24.0018 14.9142C24.2183 14.9771 26.2025 14.995 29.4043 14.9861L34.4731 14.9591L34.6895 14.7075C34.9511 14.4021 34.9601 14.2044 34.7166 13.89L34.5362 13.6564H29.4855H24.4438V12.7579V11.8595H33.508H42.5723V12.7579V13.6564H39.596C36.7369 13.6564 36.6106 13.6653 36.4393 13.8361C36.2138 14.0607 36.2048 14.4739 36.4302 14.7435L36.6016 14.9591H39.8395C43.4291 14.9591 43.366 14.9681 43.7448 14.3482C43.8981 14.0966 43.9252 13.89 43.9252 12.7489C43.9252 11.536 43.9071 11.4103 43.7177 11.1318C43.5373 10.8712 43.366 10.7454 42.8609 10.5208C42.7887 10.4849 41.9951 9.04738 41.0841 7.32238L39.4336 4.17784L39.3705 2.38097C39.2983 0.548155 39.2262 0.170811 38.9195 0.0540142C38.8384 0.0270605 36.4212 0.000107765 33.5621 0.000107765C28.4212 0.000107765 28.34 0.000107765 28.1055 0.18878ZM37.9725 1.68917C37.9725 1.88683 37.9996 2.40792 38.0266 2.85714L38.0898 3.6837H33.6523H29.2239V2.51573V1.34776H33.5982H37.9725V1.68917ZM39.7944 7.75363L41.2104 10.4669L33.7155 10.4939C29.5937 10.5028 26.2025 10.4939 26.1845 10.4759C26.1664 10.4579 26.7887 9.22706 27.5734 7.73566L28.9984 5.03136H33.6884L38.3784 5.04034L39.7944 7.75363Z" fill="white"/>
<path d="M0.577626 0.440159C-0.0356769 0.817503 0.000399741 0.341331 0.000399741 7.60969V14.1863L0.279994 14.5097C0.442339 14.6894 0.703894 14.8601 0.902316 14.914C1.13681 14.9769 4.34764 15.0038 10.5709 14.9859C19.3826 14.9589 19.9057 14.9499 20.1402 14.7972C20.2845 14.7074 20.4739 14.5097 20.5641 14.348C20.7355 14.0695 20.7445 13.8449 20.7445 7.65461C20.7445 0.601878 20.7625 0.799534 20.1853 0.449143C19.8877 0.269456 19.7614 0.269456 10.3724 0.269456C1.16387 0.269456 0.848201 0.27844 0.577626 0.440159ZM9.6509 7.63665V13.6562H5.50209H1.35327V7.63665V1.61711H5.50209H9.6509V7.63665ZM19.3916 7.63665V13.6562L15.2247 13.6382L11.0489 13.6113L11.0218 7.60969L11.0038 1.61711H15.1977H19.3916V7.63665Z" fill="white"/>
<path d="M7.26868 9.17312C7.0432 9.35281 7.03418 9.37976 7.03418 10.4309C7.03418 11.3833 7.05222 11.518 7.21456 11.6798C7.48514 11.9493 7.96315 11.9223 8.19765 11.6259C8.36 11.4192 8.38705 11.2575 8.38705 10.404C8.38705 9.48758 8.37803 9.4157 8.16157 9.20906C7.891 8.93953 7.58435 8.92156 7.26868 9.17312Z" fill="white"/>
<path d="M12.4921 9.20906C12.2756 9.4157 12.2666 9.47859 12.2666 10.4489C12.2666 11.4012 12.2846 11.4821 12.474 11.6618C12.7717 11.9403 13.1956 11.9223 13.4301 11.6259C13.5924 11.4192 13.6195 11.2575 13.6195 10.404C13.6195 9.48757 13.6105 9.4157 13.394 9.20906C13.2767 9.08328 13.0693 8.98445 12.943 8.98445C12.8168 8.98445 12.6093 9.08328 12.4921 9.20906Z" fill="white"/>
<path d="M25.0282 21.4458C24.3066 21.8231 24.1443 22.1106 24.0812 23.1348L24.0361 23.9434L18.0113 23.9883C12.1759 24.0333 11.9774 24.0422 11.8512 24.204C11.5806 24.5813 11.7429 25.0844 12.1849 25.2372C12.3923 25.309 17.0462 25.336 28.5547 25.336H44.6448V26.0547V26.7735H22.9989H1.35287V26.0547V25.336H5.49267C8.1443 25.336 9.72266 25.3001 9.89402 25.2461C10.1466 25.1563 10.372 24.8418 10.372 24.5813C10.372 24.5184 10.2909 24.3567 10.1826 24.2219L10.0022 23.9883H5.34836H0.703495L0.351747 24.3387L0 24.6891L0.0180383 34.7965L0.0450958 44.904L0.32469 45.2544C0.468996 45.443 0.775648 45.6856 0.992108 45.7934L1.38895 46.0001H22.9718C42.2548 46.0001 44.5998 45.9821 44.8974 45.8653C45.3213 45.6856 45.6099 45.4161 45.8264 44.9938C45.9887 44.6704 45.9977 44.311 45.9977 34.6797V24.7071L45.6911 24.3657C45.3934 24.0512 45.3483 24.0333 44.6719 23.9883L43.9684 23.9434L43.9233 23.1258C43.8782 22.4071 43.8421 22.2723 43.6257 21.9848C43.4814 21.7961 43.2108 21.5715 43.0214 21.4727C42.6787 21.293 42.4802 21.293 33.9842 21.293C26.2458 21.302 25.2717 21.32 25.0282 21.4458ZM42.5524 23.3325L42.5795 23.9883H34.0022H25.434V23.3774C25.434 23.036 25.4611 22.7305 25.4972 22.7036C25.5242 22.6676 29.3754 22.6497 34.0383 22.6586L42.5253 22.6856L42.5524 23.3325ZM11.8151 36.3868V44.6524H6.69222C2.83202 44.6524 1.54228 44.6255 1.4611 44.5446C1.37993 44.4637 1.35287 42.5051 1.35287 36.279V28.1211H6.58399H11.8151V36.3868ZM23.1792 36.3868V44.6524H18.1736H13.168V36.3868V28.1211H18.1736H23.1792V36.3868ZM44.6448 36.279C44.6448 42.5051 44.6178 44.4637 44.5366 44.5446C44.4554 44.6255 42.1014 44.6524 34.4803 44.6524H24.5321V36.3868V28.1211H34.5885H44.6448V36.279Z" fill="white"/>
<path d="M9.51524 29.9361C9.16349 30.1427 9.11839 30.2954 9.10938 31.3197C9.10938 32.4517 9.19957 32.6583 9.71366 32.7572C9.94816 32.8021 10.0474 32.7662 10.2278 32.5865C10.4532 32.3619 10.4622 32.308 10.4622 31.3646C10.4622 30.8255 10.4352 30.3134 10.4081 30.2326C10.354 30.0978 9.9211 29.8283 9.76777 29.8283C9.7317 29.8283 9.61445 29.8822 9.51524 29.9361Z" fill="white"/>
<path d="M20.8698 29.918C20.482 30.0707 20.3828 30.3492 20.3828 31.2836C20.3828 32.2449 20.473 32.5414 20.8067 32.6942C21.1134 32.8379 21.2306 32.8199 21.5012 32.6043C21.7267 32.4246 21.7357 32.3977 21.7357 31.3555C21.7357 30.475 21.7086 30.2684 21.5824 30.1156C21.3839 29.891 21.1224 29.8192 20.8698 29.918Z" fill="white"/>
<path d="M42.3434 29.936C41.9826 30.1337 41.9375 30.2774 41.9375 31.3286C41.9375 32.2989 41.9465 32.3618 42.163 32.5684C42.2802 32.6942 42.4877 32.793 42.6139 32.793C42.7402 32.793 42.9476 32.6942 43.0649 32.5684C43.2814 32.3618 43.2904 32.2899 43.2904 31.3645C43.2904 30.8255 43.2633 30.3133 43.2363 30.2325C43.1821 30.0977 42.7492 29.8282 42.5959 29.8282C42.5598 29.8282 42.4426 29.8821 42.3434 29.936Z" fill="white"/>
</svg>
