<svg width="40" height="40" viewBox="0 0 40 40" fill="none" xmlns="http://www.w3.org/2000/svg">
<g clip-path="url(#clip0_643_154)">
<path d="M14.136 0.274143C13.3851 0.685434 12.7956 1.15318 12.3111 1.74189C10.5831 3.83866 10.5427 6.8064 12.2142 9.01608C12.5857 9.49995 13.4093 10.2096 13.9503 10.5L14.2006 10.637V13.0645V15.4838H9.16996C5.94806 15.4838 3.96163 15.5161 3.65478 15.5725C1.91867 15.879 0.368284 17.4516 0.0695111 19.1935C0.0129865 19.5564 -0.0112383 21.7903 0.00491158 26.3306L0.0291364 32.9435L0.21486 33.3064C0.497483 33.887 0.82048 34.2258 1.37765 34.5241L1.88637 34.7983H20.0146H38.1428L38.6515 34.5241C39.2168 34.2177 39.459 33.9677 39.782 33.3548L40.0001 32.9435V26.0483C40.0001 19.5241 39.992 19.129 39.8466 18.7096C39.5963 17.9677 39.2329 17.3709 38.7484 16.8629C38.2236 16.3306 37.7714 16.0403 36.98 15.7338L36.4471 15.5241L32.4338 15.5L28.4125 15.4758V12.0161V8.54834L28.7436 7.87898L29.0828 7.20963L28.7355 3.8306C28.5498 1.96769 28.3641 0.387047 28.3237 0.306401C28.1784 0.0402723 27.9523 -5.02346e-05 26.4745 -5.02346e-05C24.9968 -5.02346e-05 24.7707 0.0402723 24.6254 0.306401C24.585 0.387047 24.3993 1.96769 24.2136 3.8306L23.8663 7.20963L24.2055 7.87898L24.5366 8.54834V12.0161V15.4838H21.9526H19.3686V13.0725V10.6693L19.9096 10.3145C21.6619 9.18543 22.6874 7.1935 22.5663 5.16124C22.5178 4.24189 22.3563 3.62898 21.9768 2.84672C21.4519 1.76608 20.491 0.806401 19.3525 0.233821C18.7872 -0.0484373 18.5369 -0.0565019 18.2785 0.201563L18.0766 0.395111V2.73382V5.07253L17.471 5.48382C17.1399 5.70156 16.8331 5.88705 16.7846 5.88705C16.7362 5.88705 16.4293 5.70156 16.0983 5.48382L15.4926 5.07253V2.73382V0.395111L15.2908 0.201563C15.0243 -0.0726309 14.7497 -0.0484373 14.136 0.274143ZM27.2013 1.46769C27.2013 1.57253 27.3305 2.84672 27.4758 4.31447L27.7504 6.97576L27.5566 7.35479L27.3628 7.74189H26.4745H25.5863L25.3925 7.35479L25.1906 6.95963L25.4733 4.22576C25.6186 2.72576 25.7478 1.4435 25.7478 1.38705C25.7478 1.31447 25.9497 1.29027 26.4745 1.29027C27.1771 1.29027 27.2013 1.29834 27.2013 1.46769ZM14.3056 5.79027C14.346 5.84672 14.8628 6.21769 15.4603 6.61285C16.2275 7.12898 16.607 7.33866 16.7846 7.33866C16.9623 7.33866 17.3418 7.12898 18.117 6.61285C18.7145 6.21769 19.2394 5.81447 19.2879 5.73382C19.3363 5.63705 19.3686 4.83866 19.3686 3.67737C19.3686 2.62898 19.4009 1.77414 19.4413 1.77414C19.5786 1.77414 20.5395 2.87092 20.7656 3.28221C21.0563 3.82253 21.3066 4.82253 21.3066 5.43543C21.2985 7.0806 20.3134 8.68543 18.8276 9.45963C18.5046 9.62898 18.2058 9.8306 18.1574 9.91931C18.1089 10.008 18.0766 11.1129 18.0766 12.7741V15.4838H16.7846H15.4926V12.7741C15.4926 11.1129 15.4603 10.008 15.4119 9.91931C15.3634 9.8306 15.0647 9.62898 14.7417 9.45963C13.1428 8.62092 12.1738 6.93543 12.2869 5.16124C12.3596 3.96769 12.8279 2.98382 13.7 2.1693L14.1603 1.73382L14.2006 3.70963C14.2249 4.79834 14.2733 5.73382 14.3056 5.79027ZM27.1205 12.258V15.4838H26.4745H25.8286V12.258V9.03221H26.4745H27.1205V12.258ZM36.9074 17.1129C37.6422 17.4758 38.0944 17.9435 38.4497 18.6935L38.7081 19.2338L38.7323 22.5161L38.7565 25.8064H20.0146H1.27268L1.2969 22.5161L1.32113 19.2338L1.57952 18.6935C1.7168 18.3951 1.98327 17.9919 2.16092 17.7983C2.51622 17.4112 3.25104 16.9838 3.75168 16.8629C3.9374 16.8225 10.6396 16.7983 20.1842 16.7983L36.2937 16.8145L36.9074 17.1129ZM38.7323 29.9112C38.7081 32.6129 38.7 32.7419 38.5385 32.9516C38.4497 33.0725 38.272 33.25 38.1509 33.3387L37.9329 33.508H20.0146H2.09632L1.8783 33.3387C1.75717 33.25 1.57952 33.0725 1.4907 32.9516C1.3292 32.7419 1.32113 32.6129 1.2969 29.9112L1.27268 27.0967H20.0146H38.7565L38.7323 29.9112Z" fill="#E83A15"/>
<path d="M29.7045 20.7501C29.3089 20.8791 28.6306 21.5727 28.5095 21.984C28.2834 22.742 28.4449 23.3469 29.0182 23.9114C29.8337 24.734 30.8673 24.734 31.6829 23.9114C32.4743 23.1291 32.4985 22.1211 31.7475 21.2904C31.2226 20.7098 30.4717 20.5082 29.7045 20.7501ZM30.7947 22.1372C31.1984 22.5324 30.9158 23.2259 30.3505 23.2259C30.0195 23.2259 29.7045 22.9114 29.7045 22.5807C29.7045 22.2501 30.0195 21.9356 30.3505 21.9356C30.504 21.9356 30.6735 22.0082 30.7947 22.1372Z" fill="#00045F"/>
<path d="M34.8725 20.7501C34.4768 20.8791 33.7986 21.5727 33.6774 21.984C33.4513 22.742 33.6128 23.3469 34.1861 23.9114C35.0017 24.734 36.0353 24.734 36.8509 23.9114C37.6422 23.1291 37.6664 22.1211 36.9155 21.2904C36.3906 20.7098 35.6396 20.5082 34.8725 20.7501ZM35.9626 22.1372C36.3664 22.5324 36.0838 23.2259 35.5185 23.2259C35.1874 23.2259 34.8725 22.9114 34.8725 22.5807C34.8725 22.2501 35.1874 21.9356 35.5185 21.9356C35.6719 21.9356 35.8415 22.0082 35.9626 22.1372Z" fill="#00045F"/>
<path d="M3.8647 28.4918C3.71128 28.5402 3.39636 28.766 3.17833 28.9918C2.60501 29.5563 2.44352 30.1612 2.66961 30.9192C2.79881 31.3628 3.46903 32.0321 3.91315 32.1612C4.17155 32.2338 7.87795 32.2579 20.0307 32.2579C37.836 32.2579 36.2856 32.3144 36.9154 31.6128C37.6422 30.8063 37.6422 29.8386 36.9154 29.0321C36.2856 28.3305 37.844 28.387 19.9823 28.395C8.68544 28.4031 4.06658 28.4273 3.8647 28.4918ZM35.9626 29.8789C36.229 30.137 36.229 30.5079 35.9626 30.766L35.7688 30.9676H20.0146H4.26038L4.06658 30.766C3.93738 30.645 3.8647 30.4757 3.8647 30.3225C3.8647 30.1692 3.93738 29.9999 4.06658 29.8789L4.26038 29.6773H20.0146H35.7688L35.9626 29.8789Z" fill="#00045F"/>
<path d="M6.44873 38.0645V40H7.09473H7.74072V38.0645V36.129H7.09473H6.44873V38.0645Z" fill="#00045F"/>
<path d="M12.9087 38.0645V40H13.5547H14.2007V38.0645V36.129H13.5547H12.9087V38.0645Z" fill="#00045F"/>
<path d="M19.3687 38.0645V40H20.0146H20.6606V38.0645V36.129H20.0146H19.3687V38.0645Z" fill="#00045F"/>
<path d="M25.8286 38.0645V40H26.4746H27.1206V38.0645V36.129H26.4746H25.8286V38.0645Z" fill="#00045F"/>
<path d="M32.2886 38.0645V40H32.9346H33.5806V38.0645V36.129H32.9346H32.2886V38.0645Z" fill="#00045F"/>
</g>
<defs>
<clipPath id="clip0_643_154">
<rect width="40" height="40" fill="white"/>
</clipPath>
</defs>
</svg>
