<svg width="50" height="50" viewBox="0 0 50 50" fill="none" xmlns="http://www.w3.org/2000/svg">
<g clip-path="url(#clip0_523_6032)">
<path d="M36.1992 0.148487C35.1923 0.513 34.5413 1.48157 34.5413 2.60635C34.5413 3.96026 35.4466 5.02256 36.7281 5.17878L37.2265 5.24127V9.90705V14.5832H36.901C36.4128 14.5832 35.5991 15.0102 35.1821 15.4893C34.7244 15.9996 34.5413 16.5412 34.5413 17.3015C34.5515 18.5825 35.6805 19.7906 36.8705 19.7906H37.2265V26.2685C37.2265 33.2672 37.2265 33.2464 36.6773 34.3607C36.3925 34.9231 35.6195 35.8604 35.2737 36.0479C35.1313 36.1312 35.0702 36.0791 34.9482 35.7875C34.7244 35.2356 34.1243 34.6211 33.5446 34.3711C32.2528 33.8087 30.6458 34.4961 30.1982 35.8084C30.1372 35.9958 30.0457 36.1416 30.005 36.1416C29.8524 36.1416 28.9268 35.1627 28.6522 34.7148C28.4997 34.4753 28.2861 33.9858 28.164 33.6213C27.9504 33.0068 27.9301 32.7777 27.9301 30.2053L27.9199 27.4454L28.4488 27.3829C30.1881 27.1642 31.1645 25.0604 30.2694 23.4878C29.8422 22.7484 28.937 22.186 28.1742 22.186H27.8894L27.8385 19.9156C27.7978 18.1555 27.747 17.4577 27.5842 16.7703C26.3434 11.3963 22.6716 7.28254 17.647 5.63702C15.745 5.01214 15.45 4.9809 10.1102 4.92883L5.20764 4.87675L5.09576 4.26229C4.68891 2.14811 2.02407 1.41908 0.661127 3.05418C0.0101712 3.83529 0 3.90819 0 10.0529C0 16.2496 0.0101712 16.3329 0.681469 17.0932C2.13595 18.7387 4.67874 18.0097 5.09576 15.833L5.21782 15.2081H9.35749C11.7477 15.2081 13.7311 15.2498 14.0464 15.3123C15.2466 15.5414 16.4366 16.3642 17.0774 17.3744C17.6368 18.27 17.7996 18.947 17.8708 20.6446L17.9318 22.186H17.6267C17.4639 22.186 17.1181 22.2589 16.874 22.3422C15.5619 22.8004 14.8601 24.2377 15.2771 25.6436C15.5314 26.5185 16.579 27.3829 17.4029 27.3933H17.7691L17.8301 30.5385C17.8911 34.1316 18.003 34.9856 18.6234 36.9227C19.3558 39.1931 20.5051 41.0886 22.1833 42.7966C23.292 43.9422 24.36 44.7546 25.7331 45.494C26.7807 46.0668 28.3979 46.6813 29.3845 46.8792L30.005 47.0041V47.3895C30.005 48.3476 30.5847 49.285 31.4493 49.7224C32.385 50.2015 33.4428 50.0557 34.2362 49.337C34.816 48.8163 35.0092 48.431 35.0804 47.6603L35.1414 47.0458L36.2094 46.7542C38.8743 46.046 40.9593 44.8171 42.9326 42.807C45.0787 40.6199 46.3297 38.2766 47.0112 35.1314C47.2248 34.142 47.235 33.8712 47.2757 26.9455L47.3062 19.7906H47.6927C48.2012 19.7906 49.0556 19.3428 49.4319 18.8741C50.0524 18.1034 50.1846 16.9265 49.7269 16.0309C49.3404 15.2498 48.3436 14.5832 47.5604 14.5832H47.296V9.89663V5.21002H47.6316C48.4453 5.18919 49.2489 4.65804 49.6862 3.83529C50.4287 2.45013 49.7676 0.66922 48.3233 0.148487C47.7842 -0.0493927 36.7281 -0.0493927 36.1992 0.148487ZM47.9063 1.7211C48.2623 1.90857 48.4148 2.16893 48.4148 2.60635C48.4148 3.04377 48.2623 3.30413 47.9063 3.4916C47.652 3.62699 46.8383 3.64782 42.2613 3.64782C36.5451 3.64782 36.4739 3.63741 36.2094 3.1375C36.0772 2.87713 36.0772 2.33557 36.2094 2.08562C36.4739 1.5753 36.5145 1.5753 42.2409 1.56488C46.8383 1.56488 47.652 1.58571 47.9063 1.7211ZM3.26495 4.05399L3.55991 4.35602V10.032V15.708L3.29546 16.0309C2.93947 16.4683 2.29869 16.4891 1.89184 16.083L1.62739 15.8018V10.0841V4.35602L1.92235 4.05399C2.14612 3.83529 2.31903 3.75197 2.59365 3.75197C2.86827 3.75197 3.04118 3.83529 3.26495 4.05399ZM45.75 9.91746L45.7703 14.5832H42.2613H38.7522V9.96954C38.7522 7.42835 38.7827 5.31417 38.8234 5.28292C38.8641 5.24127 40.4304 5.22044 42.3019 5.23085L45.7195 5.2621L45.75 9.91746ZM15.4195 6.72015C19.5592 7.44918 23.1293 10.1778 24.9703 14.0104C25.9569 16.0621 26.3434 17.9055 26.3434 20.5404V22.186H22.8852H19.427V20.8008C19.427 19.2282 19.2642 18.2805 18.837 17.3535C18.2064 15.9892 17.1995 14.9373 15.8976 14.2812C14.7177 13.6772 14.4227 13.6459 9.59142 13.6459H5.1873V10.1049V6.56393H9.85588C13.5785 6.56393 14.6974 6.59518 15.4195 6.72015ZM47.8554 16.2912C48.0385 16.3746 48.2419 16.5308 48.3029 16.6453C48.4962 17.0203 48.4352 17.5723 48.1707 17.8847L47.9266 18.1763H42.2613H36.5959L36.3518 17.8847C35.9043 17.3535 36.0975 16.51 36.718 16.26C36.8705 16.1975 39.0573 16.1559 42.2409 16.1559C46.5637 16.1454 47.5706 16.1767 47.8554 16.2912ZM45.7195 26.7163C45.7195 34.2878 45.7195 34.267 45.0583 36.402C44.031 39.6722 41.5391 42.63 38.4674 44.2026C37.5927 44.6504 35.7517 45.3066 35.355 45.3066H35.0906L35.1109 41.6406L35.1414 37.9746L35.6805 37.6518C36.9112 36.9123 37.9589 35.6313 38.4572 34.2566L38.7013 33.59L38.7217 26.8205C38.742 23.092 38.7725 19.9885 38.8031 19.9156C38.8336 19.8114 39.5862 19.7906 42.2816 19.8114L45.7195 19.8427V26.7163ZM28.6522 24.0189C29.0591 24.3314 29.1709 24.8209 28.9472 25.2583C28.8455 25.4458 28.6522 25.654 28.52 25.7165C28.3369 25.7999 26.6282 25.8311 22.875 25.8311C16.9655 25.8311 17.0367 25.8415 16.7824 25.2166C16.5587 24.6542 16.8028 24.1023 17.3927 23.8627C17.5453 23.8002 19.7321 23.769 23.0072 23.7794C28.2759 23.8002 28.3674 23.8002 28.6522 24.0189ZM26.3434 29.997C26.3434 32.986 26.4451 33.7567 27.0147 34.9752C27.4622 35.9229 28.52 37.0998 29.3845 37.5997L29.9948 37.9642L30.005 41.6718V45.3899L29.2625 45.192C24.8584 44.036 21.1459 40.3283 19.9355 35.8917C19.5185 34.3711 19.427 33.413 19.427 30.3302V27.3933H22.8852H26.3434V29.997ZM33.0055 35.85C33.5649 36.1104 33.5649 36.0791 33.5649 42.078C33.5649 48.1498 33.5751 48.0664 32.9546 48.3268C32.5376 48.5039 32.0697 48.3581 31.7951 47.9831C31.5815 47.6915 31.5815 47.5978 31.5612 42.1926C31.5408 37.1831 31.551 36.6728 31.7137 36.3499C31.9884 35.7875 32.4766 35.6001 33.0055 35.85Z" fill="#E83A15"/>
</g>
<defs>
<clipPath id="clip0_523_6032">
<rect width="50" height="50" fill="white"/>
</clipPath>
</defs>
</svg>
