<svg width="50" height="50" viewBox="0 0 50 50" fill="none" xmlns="http://www.w3.org/2000/svg">
<g clip-path="url(#clip0_523_6021)">
<path d="M29.2696 0.0749969C28.8105 0.172825 28.007 0.5424 27.5061 0.890232C27.2452 1.07502 25.9304 2.35766 24.5947 3.73812L22.1737 6.23818L21.7772 5.84687C20.9319 4.99902 19.5023 4.54249 18.3335 4.75988C17.1022 4.98815 16.6535 5.30338 14.5351 7.49908C12.8551 9.22738 12.542 9.60782 12.2603 10.2274C11.4881 11.9448 11.7072 13.8036 12.8342 15.0971L13.2307 15.5536L11.9785 16.8797C10.5176 18.4232 10.2463 18.9015 10.2358 19.8363C10.2358 20.7494 10.6115 21.4233 11.7072 22.5103C12.3959 23.1842 12.6985 23.4016 13.1159 23.532C13.8047 23.7386 14.0864 23.7386 14.723 23.5103C15.1404 23.369 15.4952 23.0646 16.6222 21.9124L17.9996 20.4994L18.4692 20.9776C18.7301 21.2385 18.9388 21.5103 18.9388 21.5755C18.9388 21.6298 14.7856 26.0104 9.70364 31.304C-0.554148 41.989 0.00935149 41.3151 -0.0010837 42.826C-0.0010837 44.2499 0.103268 44.4238 2.52423 46.9674C4.99737 49.5652 5.31043 49.7935 6.53134 49.8696C7.10528 49.9022 7.48095 49.8696 7.88792 49.7283C8.43055 49.5544 9.00448 48.9674 21.0049 36.478C27.9026 29.3039 33.6628 23.2277 33.7985 22.9886C34.5394 21.6733 34.5603 19.8689 33.8402 18.5863C33.715 18.3798 32.108 16.6297 30.2714 14.6949L26.9217 11.1948L28.4452 9.61869C29.8018 8.20562 30.0001 8.04257 30.3131 8.04257C30.6471 8.04257 30.9288 8.30344 33.8611 11.347C35.8647 13.4231 37.2108 14.7384 37.4821 14.8797C38.0143 15.1514 39.0056 15.184 39.5691 14.9449C40.0805 14.7166 41.7292 13.0101 42.0005 12.434C42.3032 11.7492 42.2823 10.847 41.9484 10.1513C41.5936 9.40129 33.5376 1.05328 32.755 0.629356C31.7949 0.0967369 30.3549 -0.131531 29.2696 0.0749969ZM31.7741 2.08591C32.2332 2.32505 33.1411 3.2055 36.449 6.65123C41.2805 11.7057 40.9988 11.1948 39.7361 12.5209C38.4735 13.8362 38.8074 14.0101 35.0611 10.097C31.628 6.50993 31.3775 6.3034 30.3131 6.3034C29.374 6.31427 28.967 6.58601 27.2661 8.34692L25.7217 9.94479L24.5425 8.7165L23.3737 7.49908L25.7217 5.0425C28.7166 1.91199 28.9879 1.72721 30.4175 1.77069C31.0227 1.79243 31.3253 1.85765 31.7741 2.08591ZM20.0553 6.69471C20.5458 6.92298 32.1915 18.9993 32.4524 19.5537C32.5463 19.7602 32.6611 20.2059 32.6819 20.5646C32.7863 21.7385 32.6819 21.9016 29.8122 24.9125L27.2556 27.5974L26.8382 27.2278C26.1182 26.5865 25.5651 26.3691 24.626 26.3582C23.0711 26.3582 23.4259 26.0647 17.3005 32.4236C13.4081 36.4671 11.7802 38.228 11.5715 38.6302C11.3524 39.0541 11.2689 39.3694 11.2376 40.0107C11.175 41.0433 11.4046 41.7716 11.9681 42.4455C12.1872 42.7064 12.3646 42.9564 12.3646 43.0108C12.3646 43.1303 7.90879 47.7391 7.56443 47.9783C7.25137 48.1957 6.40612 48.2065 6.02002 48C5.59218 47.7609 1.84594 43.7934 1.72072 43.4455C1.57463 43.0108 1.5955 42.5434 1.78333 42.1412C1.87725 41.9455 6.23916 37.315 11.4881 31.8475C20.4206 22.532 21.0258 21.8798 21.0258 21.5211C21.0258 21.1842 20.7545 20.8689 17.4361 17.4015C15.4639 15.3362 13.7734 13.4883 13.6899 13.3144C13.4186 12.7383 13.3768 12.1296 13.5647 11.4448C13.7316 10.8687 13.8673 10.6948 15.4743 8.98824C17.3318 7.03168 17.6031 6.78167 18.1979 6.55341C18.657 6.37949 19.5127 6.43384 20.0553 6.69471ZM15.6517 18.0428L16.7996 19.2385L15.4847 20.5972C14.4308 21.6842 14.1177 21.9559 13.8777 21.9559C13.6586 21.9559 13.3977 21.7603 12.7507 21.0972C11.5402 19.8581 11.5402 19.8254 13.1473 18.1515C13.836 17.4341 14.4203 16.8471 14.4517 16.8471C14.483 16.8471 15.0256 17.3906 15.6517 18.0428ZM25.2312 28.1952C25.419 28.2713 25.6695 28.4561 25.7947 28.6083L26.0243 28.8691L19.8258 35.3258L13.6273 41.7825L13.3977 41.5759C12.7925 40.9998 12.709 40.0107 13.189 39.2281C13.6377 38.5107 23.405 28.4126 23.8433 28.2169C24.3025 28.0104 24.7929 27.9995 25.2312 28.1952Z" fill="#E83A15"/>
<path d="M19.3255 10.1186C18.7307 10.2599 18.3759 10.4882 17.9793 10.9773C17.3532 11.7274 17.1967 12.7926 17.5932 13.6948C17.8958 14.4122 22.7586 19.4884 23.4787 19.8471C24.7309 20.4667 26.1292 19.9667 26.7971 18.6406C27.0892 18.0427 27.0892 17.0536 26.7866 16.4014C26.4631 15.7057 21.3186 10.4012 20.8177 10.2382C20.2229 10.0534 19.7429 10.0208 19.3255 10.1186ZM22.8317 14.5426C25.597 17.434 25.6387 17.4884 25.19 18.0862C25.0335 18.3036 24.8874 18.3688 24.5952 18.3688C24.23 18.3688 24.063 18.2166 21.6316 15.684C19.4716 13.4339 19.0437 12.9339 19.0437 12.6839C19.0437 12.0643 19.4507 11.6839 19.9829 11.8034C20.1498 11.8361 21.2142 12.8687 22.8317 14.5426Z" fill="#E83A15"/>
<path d="M40.488 22.3037C40.0289 22.5755 40.0289 22.6081 40.0184 26.4669L40.008 30.1626L39.5488 30.4561C38.9749 30.8148 38.5888 31.4235 38.4427 32.1844C38.234 33.2061 38.6097 34.0757 39.5384 34.7823L40.0393 35.1627L39.9975 36.1519C39.9349 37.6845 39.4132 38.6084 38.2131 39.2606C37.827 39.478 37.587 39.5106 36.3139 39.5432L34.853 39.5759L34.5713 39.0867C33.6738 37.5106 31.3468 37.5106 30.4389 39.0758L30.1572 39.5541L26.6823 39.565C23.1343 39.565 22.9151 39.5867 22.623 39.9889C22.529 40.1193 22.4977 41.1411 22.4873 43.9455V47.7282L22.7482 47.9891L22.9986 48.2608H26.5883H30.1885L30.3137 48.5869C30.6059 49.3261 31.6598 50 32.5051 50C33.3399 50 34.4043 49.3261 34.686 48.5978L34.8217 48.2826L36.7105 48.2391C38.8079 48.1739 39.8202 47.9782 41.3959 47.2825C43.9525 46.1847 46.3734 43.6412 47.4691 40.9237C48.0431 39.478 48.2831 38.3258 48.3561 36.6193L48.4187 35.141L48.8883 34.7605C49.7962 34.0431 50.1406 33.1844 49.9423 32.1844C49.7962 31.4235 49.4101 30.8148 48.8362 30.4561L48.377 30.1626L48.3666 26.5538C48.3666 22.7385 48.3457 22.5102 47.8761 22.2928C47.5213 22.1189 40.7802 22.1298 40.488 22.3037ZM46.6969 26.956V29.9995H44.1925H41.688V26.956V23.9125H44.1925H46.6969V26.956ZM48.0744 32.0648C48.3353 32.3474 48.377 32.4561 48.3248 32.7496C48.1892 33.4888 48.2309 33.4779 44.1716 33.4779H40.5297L40.2793 33.2061C39.9349 32.8474 39.9454 32.4453 40.321 32.0539L40.6237 31.7387H44.1925H47.7613L48.0744 32.0648ZM46.6656 36.6519C46.6239 37.7715 46.5508 38.315 46.3421 39.0541C45.5282 41.9129 43.6603 44.2064 41.1141 45.489C39.6323 46.239 38.7975 46.4347 36.7626 46.4891L35.0095 46.5434V43.9238V41.3042H36.3035C37.3053 41.3042 37.754 41.2498 38.2757 41.0868C39.2045 40.7824 40.1228 40.1193 40.6863 39.3367C41.3541 38.4128 41.5941 37.6736 41.6567 36.3258L41.7194 35.2171H44.2238H46.7282L46.6656 36.6519ZM33.0373 39.8802L33.3399 40.1954V43.9673V47.7282L33.079 47.9891C32.7451 48.3478 32.2651 48.3478 31.9311 47.9891L31.6703 47.7282V43.9673V40.1954L31.9729 39.8802C32.359 39.478 32.6512 39.478 33.0373 39.8802ZM30.0006 43.9129V46.5217H27.0788H24.1569V43.9129V41.3042H27.0788H30.0006V43.9129Z" fill="#E83A15"/>
</g>
<defs>
<clipPath id="clip0_523_6021">
<rect width="50" height="50" fill="white"/>
</clipPath>
</defs>
</svg>
