<svg width="40" height="50" viewBox="0 0 40 50" fill="none" xmlns="http://www.w3.org/2000/svg">
<path d="M16.0709 0.0854301C13.6698 0.564064 11.8542 2.66419 11.8542 4.96944C11.8542 6.40534 13.0745 7.39191 14.4834 7.09887C15.3565 6.91327 16.1205 5.97554 16.1205 5.05735C16.1205 4.71547 16.4479 4.32475 16.7753 4.25637C17.1226 4.19777 17.5889 4.35405 17.708 4.57872C17.7675 4.69593 17.8072 6.63 17.8072 9.58971V14.4249L16.2495 14.464C14.5529 14.503 14.3247 14.5616 13.8286 15.0989C13.4119 15.5287 13.2432 15.9487 13.2432 16.5445V17.0818H11.2092H9.1753V15.9682C9.1753 14.6593 9.01655 14.0439 8.51054 13.4676C7.98469 12.862 7.38939 12.569 6.60557 12.5103C5.35543 12.4224 4.3831 12.9597 3.84733 14.0342C3.59929 14.5421 3.56952 14.7082 3.52984 15.8315L3.50007 17.0818H3.03375C1.58518 17.0818 0.444182 17.9511 0.0869999 19.3284C-0.151121 20.2662 0.106843 21.2625 0.771599 21.956C1.17839 22.376 2.17056 22.8449 2.6468 22.8449C2.95438 22.8449 3.02383 22.884 3.06352 23.0598C3.37109 24.5348 3.48023 24.9841 3.73819 25.7753C3.89694 26.2833 4.29381 27.2308 4.6113 27.8754C6.31784 31.3431 8.93717 33.9218 12.5288 35.6606L13.7393 36.2564V42.9084C13.7393 46.5617 13.779 49.6093 13.8187 49.6679C14.027 49.9805 14.3247 50 19.99 50C25.6553 50 25.9529 49.9805 26.1613 49.6679C26.201 49.6093 26.2407 46.5617 26.2407 42.9084V36.2564L27.4709 35.6606C31.0527 33.9218 33.7712 31.2356 35.4282 27.7778C36.1128 26.3516 36.5096 25.1013 36.9164 23.0793C36.9462 22.9133 37.0454 22.8644 37.4324 22.8254C38.6924 22.7082 39.764 21.663 39.9822 20.3345C40.0715 19.7973 39.8136 18.8498 39.4465 18.3126C38.9206 17.5604 37.9483 17.0818 36.9462 17.0818H36.4799L36.4501 15.8315C36.4104 14.7082 36.3807 14.5421 36.1326 14.0342C35.5968 12.9597 34.6245 12.4224 33.3744 12.5103C32.5806 12.569 31.9953 12.862 31.4595 13.4872C30.9634 14.0537 30.8046 14.6495 30.8046 15.978V17.0818H28.7707H26.7367V16.5445C26.7367 15.9487 26.5681 15.5287 26.1514 15.0989C25.6454 14.5616 25.4271 14.503 23.6908 14.464L22.0735 14.4249V9.31621C22.0735 4.50058 22.0636 4.16846 21.8751 3.58238C21.131 1.18922 18.4918 -0.393204 16.0709 0.0854301ZM18.3033 1.63855C19.2955 2.00973 20.1686 2.87908 20.5059 3.82658C20.6646 4.28568 20.6746 4.79361 20.6845 9.38458V14.4444H19.9999H19.3054L19.2756 9.48226C19.2458 4.87176 19.2359 4.51034 19.0573 4.188C18.591 3.32841 17.8766 2.87908 16.9638 2.87908C16.3487 2.88885 16.1007 2.967 15.5351 3.38702C15.1779 3.65076 14.7315 4.47127 14.7315 4.8913C14.7315 5.57506 14.2453 5.93647 13.6599 5.69227C12.9059 5.3797 13.2035 3.74844 14.2255 2.60558C14.662 2.12695 15.5946 1.58971 16.2396 1.45295C16.8249 1.33574 17.6881 1.41388 18.3033 1.63855ZM7.08181 14.0342C7.64735 14.337 7.78625 14.7179 7.78625 15.978V17.0818H6.34761H4.90896V16.0659C4.90896 15.4994 4.95856 14.923 5.01809 14.7668C5.14708 14.4346 5.48442 14.0635 5.7523 13.956C6.09956 13.8095 6.73455 13.8486 7.08181 14.0342ZM34.5352 14.1611C34.9618 14.5421 35.071 14.9328 35.071 16.0561V17.0818H33.6323H32.1937V15.978C32.1937 14.7179 32.3326 14.337 32.8981 14.0342C33.3744 13.7704 34.178 13.8388 34.5352 14.1611ZM25.2088 16.0464C25.2882 16.1538 25.3477 16.4273 25.3477 16.6618V17.0818H19.99H14.6322V16.6618C14.6322 16.232 14.7612 15.978 15.0291 15.8803C15.1085 15.851 17.4004 15.8315 20.119 15.8412C24.8913 15.8608 25.0699 15.8705 25.2088 16.0464ZM37.7498 18.6251C38.2459 18.8693 38.5436 19.348 38.5436 19.934C38.5436 20.4713 38.3848 20.8229 37.9979 21.1843L37.73 21.4285L20.119 21.4579C4.42279 21.4774 2.47813 21.4579 2.20033 21.3309C1.71416 21.0964 1.49588 20.735 1.4562 20.061C1.42643 19.5726 1.4562 19.4163 1.65463 19.1331C1.78361 18.9475 2.04158 18.713 2.23009 18.6251C2.55751 18.4591 3.60921 18.4493 19.99 18.4493C36.3707 18.4493 37.4224 18.4591 37.7498 18.6251ZM35.4679 23.0598C35.4679 23.8022 34.6543 26.3223 33.9994 27.6019C33.5133 28.5494 32.3723 30.1612 31.6083 30.9719C28.3341 34.4493 23.4328 36.3541 18.8093 35.9438C13.2432 35.4457 8.70897 32.5446 6.12933 27.8266C5.3852 26.4688 4.51209 23.9389 4.51209 23.1086V22.8449H19.99H35.4679V23.0598ZM16.5174 37.0085C19.0673 37.536 21.8949 37.4481 24.5837 36.7643L24.8516 36.696V42.6642V48.6325L19.9701 48.6129L15.0787 48.5836L15.049 42.6349L15.0291 36.6862L15.297 36.7448C15.4557 36.7839 16.0014 36.9011 16.5174 37.0085Z" fill="white"/>
<path d="M9.24505 24.8181C8.97716 25.0232 8.92755 25.5019 9.15575 25.7754L9.35419 26.0196H19.9903H30.6264L30.8248 25.7754C31.053 25.5019 31.0034 25.0232 30.7355 24.8181C30.6065 24.7302 28.2947 24.7009 19.9903 24.7009C11.6858 24.7009 9.37403 24.7302 9.24505 24.8181Z" fill="white"/>
<path d="M16.8845 39.0402C16.7357 39.2063 16.7158 39.6165 16.7158 42.9962C16.7158 46.7472 16.7158 46.7667 16.9341 46.9718C17.2218 47.2356 17.5691 47.216 17.8568 46.923L18.1049 46.6886V42.9962C18.1049 38.8155 18.1148 38.8644 17.4203 38.8644C17.1821 38.8644 16.9837 38.9327 16.8845 39.0402Z" fill="white"/>
<path d="M22.0337 39.0793C21.8948 39.2649 21.875 39.8119 21.875 42.9962V46.6886L22.123 46.923C22.4108 47.216 22.758 47.2356 23.0458 46.9718C23.264 46.7667 23.264 46.7472 23.264 42.9767C23.264 39.4309 23.2541 39.1769 23.0854 39.0304C22.8076 38.7862 22.2223 38.8155 22.0337 39.0793Z" fill="white"/>
</svg>
