<svg width="44" height="50" viewBox="0 0 44 50" fill="none" xmlns="http://www.w3.org/2000/svg">
<g clip-path="url(#clip0_523_6051)">
<path d="M14.7834 0.0938969C13.8782 0.36987 13.1678 1.01381 12.7554 1.91072C12.5147 2.42817 12.4345 2.50866 12.2283 2.46267C12.0908 2.42817 10.2003 2.0947 8.02333 1.70374C5.10163 1.18629 3.91003 1.02531 3.45172 1.0598C2.22575 1.18629 1.06853 2.02571 0.530015 3.1986C0.163369 4.00352 0.197742 5.36039 0.610218 6.16531C1.24039 7.39569 2.19138 8.03963 3.49755 8.13162C4.52874 8.20061 11.0367 7.52218 11.5408 7.2922C12.1596 7.01623 12.1939 6.16531 11.621 5.78585C11.3461 5.60186 11.1169 5.61336 7.54211 5.99283C3.36006 6.45278 3.19965 6.44128 2.56948 5.80884C1.90494 5.14191 1.90494 4.06101 2.58094 3.38258C3.22257 2.75014 3.40589 2.75014 7.62232 3.48607C9.69615 3.85403 11.644 4.199 11.9533 4.26799L12.4918 4.38298V6.95873V9.54598L12.7783 9.82196C13.2251 10.2819 13.8782 10.1899 14.1532 9.63797C14.2907 9.3735 14.3251 8.68357 14.3251 5.95833V2.61215L14.7146 2.22119C15.0469 1.88772 15.1844 1.83023 15.6312 1.83023C16.2958 1.83023 16.8114 2.24419 16.9603 2.92262C17.0176 3.1756 17.0749 4.78544 17.0749 6.49878C17.0749 9.60348 17.0749 9.61498 17.3384 9.85645C17.6936 10.1899 18.2207 10.1899 18.5415 9.84495C18.7821 9.58048 18.7935 9.48849 18.7935 6.97023V4.35998L19.0571 4.30249C20.5122 3.96902 27.3066 2.85363 27.6503 2.89963C28.5555 3.02611 29.1055 3.69305 29.1055 4.65896C29.1055 5.09591 29.0367 5.33739 28.8534 5.57887C28.1659 6.47578 28.1201 6.47578 23.7662 6.00433C21.7153 5.78585 19.9049 5.63636 19.756 5.67086C19.355 5.77435 19.0571 6.44128 19.2289 6.82075C19.2977 6.98173 19.4696 7.17721 19.6185 7.2692C19.9049 7.45318 26.2067 8.16612 27.5128 8.15462C28.8076 8.15462 29.9648 7.41869 30.6179 6.16531C30.996 5.46388 30.996 3.84253 30.6179 3.08361C30.0794 1.97971 28.9107 1.16329 27.742 1.0598C27.2722 1.02531 26.0233 1.19779 23.2048 1.70374C21.0622 2.0832 19.1831 2.40517 19.0342 2.42817C18.805 2.45117 18.7363 2.38218 18.6102 2.02571C18.2092 0.887321 16.9259 -0.0210915 15.7114 0.00190544C15.3562 0.00190544 14.9438 0.0479012 14.7834 0.0938969Z" fill="#E83A15"/>
<path d="M10.2232 10.9142C9.99407 11.1327 9.97115 11.2592 9.97115 12.4781V13.8005L9.54722 14.3179L9.12328 14.8239H7.02653H4.92977V14.1454C4.92977 13.582 4.88394 13.398 4.65479 13.1335C4.3798 12.8116 4.3798 12.8116 2.69553 12.7771C1.76745 12.7541 0.885214 12.7656 0.724806 12.8001C0.0144304 12.984 -0.249096 13.858 0.266499 14.3409C0.50711 14.5709 0.65606 14.5939 1.81329 14.5939H3.09655V19.9409V25.2879H2.01952C0.862298 25.2879 0.289415 25.4258 0.11755 25.7478C-0.0772309 26.1158 -0.0084849 26.6102 0.266499 26.8747C0.518568 27.1162 0.644603 27.1277 2.45492 27.1277C4.33397 27.1277 4.36835 27.1277 4.64333 26.8402C4.88394 26.6102 4.92977 26.4492 4.92977 25.8628V25.1729H7.00361H9.07745L9.99407 26.0353C11.0596 27.0472 12.4689 27.8061 13.8095 28.1051C15.1156 28.4041 17.052 28.3006 18.278 27.8866C19.4581 27.4841 20.6153 26.7597 21.509 25.8628L22.2079 25.1614L25.2901 25.1959L28.3607 25.2304L28.9451 25.5408C30.2283 26.2193 30.847 27.2887 30.9158 28.979L30.9616 30.0829L30.446 30.6003C29.6898 31.3708 29.6211 31.6582 29.6211 34.234V36.4648L29.9419 36.7408L30.2627 37.0167H36.0488H41.8349L42.1099 36.7293C42.3964 36.4533 42.3964 36.4418 42.3964 34.234C42.3964 32.1412 42.3735 31.9802 42.1214 31.4283C41.9724 31.1178 41.6516 30.6693 41.3996 30.4509L40.9412 30.0599L40.8725 27.5301C40.8267 25.9203 40.7465 24.7244 40.6319 24.253C40.185 22.2751 39.1997 20.3318 37.8935 18.814C36.5071 17.2041 34.227 15.8013 32.0272 15.2033C30.8929 14.9044 30.8241 14.8929 26.5275 14.8469L22.185 14.8009L21.8069 14.3869C21.4403 13.973 21.4403 13.9385 21.4288 12.8001C21.4288 11.5467 21.2913 10.9717 20.9705 10.7993C20.833 10.7303 18.7477 10.6843 15.6198 10.6843C10.6013 10.6843 10.4638 10.6843 10.2232 10.9142ZM19.5956 13.6165V14.7204L20.2945 15.4908C20.6841 15.9163 21.0736 16.3417 21.1653 16.4337C21.3028 16.5832 22.059 16.6177 26.1036 16.6752C30.171 16.7327 30.9845 16.7787 31.5689 16.9397C33.299 17.4456 34.6395 18.2045 35.8311 19.3544C37.3092 20.7458 38.2372 22.3096 38.7414 24.1955C38.9476 24.9429 39.0049 25.5523 39.0393 27.4267L39.0966 29.7379L38.6153 29.8069C38.0883 29.8759 37.7331 30.1519 37.6987 30.5199C37.6185 31.3593 37.905 31.6122 38.9591 31.6122C39.8069 31.6122 40.3684 31.8077 40.4944 32.1297C40.5288 32.2332 40.5631 32.9691 40.5631 33.751V35.1769H35.9801H31.397V33.728C31.397 32.2907 31.397 32.2792 31.7293 31.9457L32.0615 31.6122H33.9177C35.728 31.6122 35.7624 31.6007 36.0374 31.3248C36.4155 30.9568 36.4155 30.4739 36.0259 30.1059C35.7509 29.8529 35.6363 29.8299 34.2729 29.7954L32.8063 29.7494L32.7375 28.703C32.5886 26.0928 31.0533 24.1265 28.7044 23.5055C28.1659 23.3675 27.3181 23.333 24.7172 23.333H21.4174L20.4205 24.3449C18.9311 25.8628 17.6478 26.4377 15.7458 26.4607C14.5886 26.4722 13.8209 26.2998 12.721 25.7708C12.0335 25.4488 11.6669 25.1729 10.8763 24.3449L9.89095 23.333H7.41609H4.92977V19.9984V16.6637H7.38172C10.1659 16.6637 9.8222 16.7787 10.9909 15.4908L11.6898 14.7204V13.6165V12.5241H15.6427H19.5956V13.6165Z" fill="#E83A15"/>
<path d="M19.5954 19.2855C19.4006 19.4465 19.309 19.688 19.2402 20.2169C18.9767 22.1142 17.8195 23.2986 15.9633 23.5631C15.0696 23.6896 14.7832 23.9311 14.7832 24.5405C14.7832 24.828 14.8634 24.989 15.104 25.1729C15.3675 25.3914 15.5165 25.4259 16.1581 25.3684C18.8048 25.1499 20.9818 22.8502 21.0162 20.2514C21.0276 19.619 20.9933 19.4925 20.7527 19.297C20.4204 19.021 19.9277 19.021 19.5954 19.2855Z" fill="#E83A15"/>
<path d="M32.44 39.8455C31.89 40.5584 32.3025 41.7313 33.0931 41.7313C33.6316 41.7313 33.9409 41.3979 33.9982 40.7424C34.044 40.2825 34.0097 40.1215 33.8034 39.857C33.4597 39.42 32.7722 39.42 32.44 39.8455Z" fill="#E83A15"/>
<path d="M37.47 39.7765C37.1262 40.1215 37.1491 41.1449 37.5043 41.4783C37.8366 41.8003 38.3751 41.8003 38.7074 41.5013C38.9022 41.3059 38.9595 41.1334 38.9595 40.6389C38.9595 39.8685 38.7074 39.5465 38.1001 39.5465C37.8481 39.5465 37.6074 39.6385 37.47 39.7765Z" fill="#E83A15"/>
<path d="M31.3284 43.7091C31.0075 43.8586 30.8242 44.2726 30.8242 44.8475C30.8242 45.6984 31.695 46.1699 32.3137 45.6639C32.497 45.5144 32.5887 45.296 32.6345 44.859C32.6804 44.3186 32.6574 44.2381 32.3366 43.9161C31.97 43.5596 31.7408 43.5021 31.3284 43.7091Z" fill="#E83A15"/>
<path d="M35.4419 43.6861C35.0982 43.8241 34.9492 44.1576 34.9492 44.7785C34.9492 45.7329 35.7283 46.1699 36.4043 45.5949C36.6793 45.3535 36.7252 45.227 36.7252 44.721C36.7252 44.2151 36.6793 44.0886 36.4043 43.8471C36.0606 43.5596 35.8544 43.5251 35.4419 43.6861Z" fill="#E83A15"/>
<path d="M38.9246 43.8012C38.6496 44.0197 38.6152 44.1231 38.6152 44.7211C38.6152 45.3075 38.6496 45.4225 38.9131 45.6295C39.085 45.7675 39.3371 45.871 39.4746 45.871C39.6121 45.871 39.8641 45.7675 40.036 45.6295C40.2881 45.434 40.3339 45.3075 40.3339 44.7786C40.3339 44.0656 40.1047 43.7207 39.5891 43.6172C39.3371 43.5712 39.1537 43.6172 38.9246 43.8012Z" fill="#E83A15"/>
<path d="M27.6043 47.8602C27.0543 48.2856 26.997 49.1825 27.4897 49.677C27.8678 50.0565 28.0626 50.0795 28.5209 49.838C28.9104 49.6425 28.9906 49.47 28.9906 48.7916C28.9906 48.4006 28.9219 48.2051 28.7042 47.9982C28.4063 47.6877 27.9022 47.6302 27.6043 47.8602Z" fill="#E83A15"/>
<path d="M32.4857 47.9982C32.2565 48.2167 32.1992 48.3892 32.1992 48.8261C32.2107 49.4126 32.3367 49.6655 32.7377 49.8725C33.1273 50.0795 33.3335 50.0335 33.7002 49.677C34.0783 49.2861 34.147 48.7226 33.8606 48.1822C33.5856 47.6302 32.9325 47.5382 32.4857 47.9982Z" fill="#E83A15"/>
<path d="M37.5381 47.9522C37.2861 48.1477 37.2402 48.2742 37.2402 48.8031C37.2402 49.5851 37.5038 49.9415 38.0766 49.9415C38.7183 49.9415 38.9589 49.6426 38.9589 48.8491C38.9589 48.2742 38.9245 48.1592 38.661 47.9522C38.4891 47.8142 38.2371 47.7107 38.0996 47.7107C37.9621 47.7107 37.71 47.8142 37.5381 47.9522Z" fill="#E83A15"/>
<path d="M42.614 47.8602C42.0641 48.2856 42.0068 49.1825 42.4994 49.677C42.8775 50.0565 43.0723 50.0795 43.5306 49.838C43.9202 49.6425 44.0004 49.47 44.0004 48.7916C44.0004 48.4006 43.9317 48.2051 43.714 47.9982C43.4161 47.6877 42.9119 47.6302 42.614 47.8602Z" fill="#E83A15"/>
</g>
<defs>
<clipPath id="clip0_523_6051">
<rect width="44" height="50" fill="white"/>
</clipPath>
</defs>
</svg>
