<svg width="68" height="70" viewBox="0 0 68 70" fill="none" xmlns="http://www.w3.org/2000/svg">
<path d="M20.6833 0.0847858C19.4933 0.240184 17.8358 0.635744 16.7167 1.01718C14.0108 1.97782 12.0275 3.23514 9.9025 5.35421C7.29583 7.95361 5.8225 10.5954 4.93 14.2684C4.64667 15.3986 4.6325 15.9637 4.57583 23.55L4.51917 31.6448H2.60667C0.765 31.6448 0.68 31.659 0.354167 31.998C0 32.3371 0 32.3653 0 35.0353C0 37.7054 0 37.7336 0.354167 38.0727C0.68 38.4117 0.765 38.4259 2.62083 38.4259H4.53333V39.556V40.6862H3.75417C3.1025 40.6862 2.90417 40.7427 2.62083 41.0394C2.26667 41.3784 2.26667 41.4067 2.26667 44.0767C2.26667 46.7467 2.26667 46.775 2.62083 47.1141C2.90417 47.4107 3.1025 47.4672 3.75417 47.4672H4.53333V49.3744C4.53333 51.225 4.5475 51.3098 4.8875 51.6347L5.2275 51.9879H11.3333H17.4392L17.7792 51.6347C18.1192 51.3098 18.1333 51.225 18.1333 49.3744V47.4672H18.9125C19.5642 47.4672 19.7625 47.4107 20.0458 47.1141C20.4 46.775 20.4 46.7467 20.4 44.0767C20.4 41.4067 20.4 41.3784 20.0458 41.0394C19.7625 40.7427 19.5642 40.6862 18.9125 40.6862H18.1333V39.556V38.4259H20.0458C21.9017 38.4259 21.9867 38.4117 22.3125 38.0727C22.6667 37.7336 22.6667 37.7054 22.6667 35.0353C22.6667 32.3653 22.6667 32.3371 22.3125 31.998C21.9867 31.659 21.9017 31.6448 20.0458 31.6448H18.1192L18.1617 24.2563L18.2042 16.882L18.5583 16.1756C18.9975 15.2715 19.8617 14.4238 20.7542 13.9859C21.335 13.7034 21.6892 13.6468 22.6667 13.6468C23.7008 13.6468 23.97 13.7034 24.5933 14.0142C25.6558 14.5651 26.1092 15.0031 26.6475 15.992L27.1292 16.882L27.2142 26.7003C27.2992 35.996 27.3133 36.5893 27.5967 37.7195C28.475 41.3643 30.005 44.0767 32.5692 46.6337C35.19 49.2614 38.1508 50.8719 41.7917 51.6489C43.4775 52.0162 47.1892 52.0162 48.875 51.6489C52.5158 50.8719 55.4767 49.2614 58.0975 46.6337C60.6617 44.0767 62.1775 41.3643 63.07 37.7195C63.3533 36.5893 63.3675 36.0242 63.4242 28.4238L63.4808 20.3431H65.3933C67.235 20.3431 67.32 20.329 67.6458 19.9899C68 19.6509 68 19.6226 68 16.9526C68 14.2826 68 14.2543 67.6458 13.9153C67.32 13.5762 67.235 13.5621 65.3792 13.5621H63.4667V12.4319V11.3017H64.2458C64.8975 11.3017 65.0958 11.2452 65.3792 10.9486C65.7333 10.6095 65.7333 10.5813 65.7333 7.91122C65.7333 5.24119 65.7333 5.21294 65.3792 4.87389C65.0958 4.57722 64.8975 4.52071 64.2458 4.52071H63.4667V2.61354C63.4667 0.762889 63.4525 0.678126 63.1125 0.353202L62.7725 2.29478e-05H56.6667H50.5608L50.2208 0.353202C49.8808 0.678126 49.8667 0.762889 49.8667 2.61354V4.52071H49.0875C48.4358 4.52071 48.2375 4.57722 47.9542 4.87389C47.6 5.21294 47.6 5.24119 47.6 7.91122C47.6 10.5813 47.6 10.6095 47.9542 10.9486C48.2375 11.2452 48.4358 11.3017 49.0875 11.3017H49.8667V12.4319V13.5621H47.9542C46.0983 13.5621 46.0133 13.5762 45.6875 13.9153C45.3333 14.2543 45.3333 14.2826 45.3333 16.9526C45.3333 19.6226 45.3333 19.6509 45.6875 19.9899C46.0133 20.329 46.0983 20.3431 47.9542 20.3431H49.8808L49.8383 27.7175L49.7958 35.106L49.3142 35.996C48.7758 36.9849 48.3225 37.4228 47.26 37.9738C46.6508 38.2846 46.3533 38.3411 45.3333 38.3411C44.3133 38.3411 44.0158 38.2846 43.4067 37.9738C42.3442 37.4228 41.8908 36.9849 41.3525 35.996L40.8708 35.106L40.7858 25.2876C40.7008 15.992 40.6867 15.3986 40.4033 14.2684C39.525 10.6236 37.995 7.91122 35.4308 5.35421C32.8525 2.78307 30.0192 1.21496 26.4917 0.40971C25.3158 0.141294 21.8025 -0.0564856 20.6833 0.0847858ZM25.075 2.47227C28.4042 2.96672 31.4358 4.50658 33.8583 6.92232C36.3375 9.4087 37.8817 12.5025 38.3917 16.0343C38.4625 16.5994 38.5333 20.7669 38.5333 25.8527C38.5333 33.326 38.5617 34.8234 38.7458 35.5298C39.695 39.1463 43.4067 41.3926 46.9342 40.4743C49.385 39.8386 51.2833 37.9597 51.9208 35.5298C52.0908 34.8376 52.1333 33.5096 52.1333 27.5197V20.3431H56.6667H61.2V27.6468C61.2 35.0777 61.1433 36.0384 60.6192 38.0727C59.9817 40.6014 57.9275 43.9354 55.9442 45.659C50.9433 49.996 44.2708 50.9284 38.4625 48.1171C34.4958 46.1817 31.5917 42.8759 30.2317 38.7508C29.5233 36.5752 29.4667 35.6852 29.4667 26.1352C29.4667 18.7609 29.4383 17.1645 29.2542 16.4864C28.6167 14.0424 26.7325 12.1494 24.2958 11.5136C20.74 10.5954 17.0283 12.8416 16.0792 16.4581C15.9092 17.1504 15.8667 18.4783 15.8667 24.4682V31.6448H11.3333H6.8V24.2563C6.8 18.4642 6.8425 16.6135 7.0125 15.6105C7.82 10.6378 10.9367 6.35724 15.4275 4.04039C18.445 2.4864 21.7033 1.94957 25.075 2.47227ZM61.2 3.39054V4.52071H56.6667H52.1333V3.39054V2.26037H56.6667H61.2V3.39054ZM63.4667 7.91122V9.0414H56.6667H49.8667V7.91122V6.78105H56.6667H63.4667V7.91122ZM61.2 12.4319V13.5621H56.6667H52.1333V12.4319V11.3017H56.6667H61.2V12.4319ZM65.7333 16.9526V18.0828H56.6667H47.6V16.9526V15.8224H56.6667H65.7333V16.9526ZM20.4 35.0353V36.1655H11.3333H2.26667V35.0353V33.9052H11.3333H20.4V35.0353ZM15.8667 39.556V40.6862H11.3333H6.8V39.556V38.4259H11.3333H15.8667V39.556ZM18.1333 44.0767V45.2069H11.3333H4.53333V44.0767V42.9465H11.3333H18.1333V44.0767ZM15.8667 48.5974V49.7276H11.3333H6.8V48.5974V47.4672H11.3333H15.8667V48.5974Z" fill="#E83A15"/>
<path d="M10.8092 54.4178C10.2992 54.672 6.54501 60.4359 6.13418 61.6085C4.97251 64.9284 6.13418 68.1211 9.02418 69.5338C9.90251 69.9576 10.0867 70 11.3333 70C12.5517 70 12.7642 69.9576 13.6283 69.5479C14.9458 68.9263 15.7675 68.1352 16.405 66.8496C16.915 65.8042 16.9292 65.7336 16.9292 64.222C16.915 61.9617 16.6458 61.3118 14.1808 57.5822C11.9567 54.2482 11.6875 53.9939 10.8092 54.4178ZM12.7925 59.6024C14.6483 62.3996 15.0592 63.7841 14.5633 65.4652C14.3367 66.2422 13.1608 67.4147 12.3817 67.6408C10.5825 68.1635 8.75501 67.217 8.14585 65.4228C7.59335 63.7982 7.99001 62.442 9.87418 59.6024C10.6392 58.444 11.2908 57.4975 11.3333 57.4975C11.3758 57.4975 12.0275 58.444 12.7925 59.6024Z" fill="#E83A15"/>
</svg>
