<svg width="55" height="70" viewBox="0 0 55 70" fill="none" xmlns="http://www.w3.org/2000/svg">
<path d="M22.0975 0.119605C18.796 0.789691 16.2995 3.72986 16.2995 6.95722C16.2995 8.96748 17.9775 10.3487 19.9147 9.93842C21.1152 9.67859 22.1657 8.36577 22.1657 7.08029C22.1657 6.60166 22.6159 6.05465 23.0661 5.95893C23.5436 5.87687 24.1848 6.09568 24.3485 6.41021C24.4303 6.57431 24.4849 9.28201 24.4849 13.4256V20.1948L22.343 20.2495C20.0102 20.3042 19.6964 20.3863 19.0143 21.1384C18.4413 21.7401 18.2094 22.3282 18.2094 23.1624V23.9145H15.4127H12.616V22.3555C12.616 20.523 12.3978 19.6615 11.702 18.8547C10.9789 18.0068 10.1604 17.5965 9.08266 17.5145C7.36372 17.3914 6.02677 18.1436 5.29008 19.6478C4.94902 20.3589 4.90809 20.5914 4.85353 22.1641L4.8126 23.9145H4.17141C2.17962 23.9145 0.61075 25.1316 0.119625 27.0598C-0.207792 28.3726 0.14691 29.7675 1.06095 30.7384C1.62029 31.3265 2.98452 31.9829 3.63935 31.9829C4.06227 31.9829 4.15776 32.0376 4.21233 32.2837C4.63525 34.3487 4.78531 34.9778 5.14002 36.0854C5.35829 36.7966 5.90399 38.1231 6.34054 39.0256C8.68703 43.8803 12.2886 47.4906 17.2272 49.9248L18.8915 50.759V60.0718C18.8915 65.1863 18.9461 69.453 19.0007 69.535C19.2871 69.9726 19.6964 70 27.4862 70C35.276 70 35.6853 69.9726 35.9718 69.535C36.0263 69.453 36.0809 65.1863 36.0809 60.0718V50.759L37.7726 49.9248C42.6974 47.4906 46.4355 43.7299 48.7137 38.8889C49.6551 36.8923 50.2007 35.1419 50.7601 32.3111C50.801 32.0786 50.9374 32.0102 51.4695 31.9555C53.2021 31.7914 54.6754 30.3282 54.9756 28.4683C55.0984 27.7162 54.7437 26.3897 54.2389 25.6376C53.5158 24.5846 52.1789 23.9145 50.801 23.9145H50.1598L50.1189 22.1641C50.0643 20.5914 50.0234 20.3589 49.6823 19.6478C48.9456 18.1436 47.6087 17.3914 45.8898 17.5145C44.7984 17.5965 43.9935 18.0068 43.2568 18.882C42.5747 19.6752 42.3564 20.5094 42.3564 22.3692V23.9145H39.5597H36.763V23.1624C36.763 22.3282 36.5311 21.7401 35.9581 21.1384C35.2624 20.3863 34.9622 20.3042 32.5748 20.2495L30.3511 20.1948V13.0427C30.3511 6.30081 30.3375 5.83585 30.0783 5.01534C29.0551 1.66491 25.4262 -0.550481 22.0975 0.119605ZM25.167 2.29397C26.5312 2.81362 27.7318 4.03072 28.1956 5.35722C28.4139 5.99995 28.4275 6.71106 28.4412 13.1384V20.2222H27.4999H26.5449L26.504 13.2752C26.463 6.82046 26.4494 6.31448 26.2038 5.8632C25.5626 4.65978 24.5804 4.03072 23.3253 4.03072C22.4795 4.04439 22.1384 4.1538 21.3608 4.74183C20.8697 5.11106 20.2558 6.25978 20.2558 6.84782C20.2558 7.80508 19.5873 8.31106 18.7824 7.96918C17.7456 7.53158 18.1548 5.24781 19.56 3.64781C20.1603 2.97773 21.4426 2.22559 22.3294 2.03414C23.1343 1.87003 24.3212 1.97944 25.167 2.29397ZM9.73749 19.6478C10.5151 20.0718 10.7061 20.6051 10.7061 22.3692V23.9145H8.72796H6.74981V22.4923C6.74981 21.6991 6.81803 20.8923 6.89988 20.6735C7.07723 20.2085 7.54107 19.6889 7.90942 19.5384C8.3869 19.3333 9.26001 19.388 9.73749 19.6478ZM47.4859 19.8256C48.0725 20.3589 48.2226 20.9059 48.2226 22.4786V23.9145H46.2445H44.2663V22.3692C44.2663 20.6051 44.4573 20.0718 45.2349 19.6478C45.8898 19.2786 46.9948 19.3743 47.4859 19.8256ZM34.6621 22.4649C34.7712 22.6153 34.8531 22.9983 34.8531 23.3265V23.9145H27.4862H20.1193V23.3265C20.1193 22.7248 20.2967 22.3692 20.665 22.2324C20.7742 22.1914 23.9256 22.1641 27.6636 22.1777C34.2255 22.2051 34.4711 22.2188 34.6621 22.4649ZM51.906 26.0752C52.5882 26.4171 52.9974 27.0871 52.9974 27.9077C52.9974 28.6598 52.7792 29.1521 52.2471 29.6581L51.8788 30L27.6636 30.041C6.08134 30.0683 3.40743 30.041 3.02545 29.8632C2.35697 29.535 2.05684 29.029 2.00227 28.0854C1.96134 27.4017 2.00227 27.1829 2.27512 26.7863C2.45247 26.5265 2.80717 26.1983 3.06638 26.0752C3.51657 25.8427 4.96267 25.829 27.4862 25.829C50.0098 25.829 51.4558 25.8427 51.906 26.0752ZM48.7683 32.2837C48.7683 33.323 47.6496 36.8513 46.7492 38.6427C46.0808 39.9692 44.5119 42.2256 43.4614 43.3607C38.9594 48.229 32.2201 50.8957 25.8628 50.3214C18.2094 49.6239 11.9748 45.5624 8.42783 38.9572C7.40465 37.0564 6.20412 33.5145 6.20412 32.3521V31.9829H27.4862H48.7683V32.2837ZM22.7114 51.812C26.2175 52.5504 30.1055 52.4273 33.8026 51.4701L34.171 51.3743V59.7299V68.0855L27.4589 68.0581L20.7332 68.0171L20.6923 59.6889L20.665 51.3607L21.0334 51.4427C21.2516 51.4974 22.002 51.6615 22.7114 51.812Z" fill="#E83A15"/>
<path d="M12.7115 34.7453C12.3432 35.0325 12.275 35.7026 12.5887 36.0855L12.8616 36.4274H27.4862H42.1108L42.3837 36.0855C42.6974 35.7026 42.6292 35.0325 42.2609 34.7453C42.0835 34.6222 38.9049 34.5812 27.4862 34.5812C16.0675 34.5812 12.8889 34.6222 12.7115 34.7453Z" fill="#E83A15"/>
<path d="M23.2162 54.6563C23.0115 54.8888 22.9842 55.4631 22.9842 60.1947C22.9842 65.446 22.9842 65.4734 23.2844 65.7606C23.68 66.1298 24.1575 66.1024 24.5531 65.6922L24.8942 65.364V60.1947C24.8942 54.3417 24.9078 54.4101 23.9528 54.4101C23.6254 54.4101 23.3526 54.5058 23.2162 54.6563Z" fill="#E83A15"/>
<path d="M30.2965 54.711C30.1055 54.9708 30.0783 55.7366 30.0783 60.1947V65.364L30.4193 65.6922C30.815 66.1024 31.2924 66.1298 31.6881 65.7606C31.9882 65.4734 31.9882 65.446 31.9882 60.1674C31.9882 55.2033 31.9746 54.8477 31.7426 54.6426C31.3606 54.3007 30.5557 54.3417 30.2965 54.711Z" fill="#E83A15"/>
</svg>
