<svg width="56" height="41" viewBox="0 0 56 41" fill="none" xmlns="http://www.w3.org/2000/svg">
<g clip-path="url(#clip0_94_428)">
<path d="M2.14833 0.240326C1.37473 0.533047 0.662521 1.21606 0.294138 2.00883L-0.000568696 2.61866V10.9855C-0.000568696 20.5233 -0.037407 20.1086 0.994066 21.1087C2.03782 22.121 1.55892 22.0722 11.6895 22.0722C16.6012 22.0722 20.6289 22.0966 20.6289 22.121C20.6289 22.1576 20.4938 22.6821 20.3342 23.2919C20.1623 23.9017 19.9167 25.1458 19.7693 26.0727C19.2045 29.5609 18.2835 31.2685 16.5521 31.9881C15.9381 32.232 15.6312 32.7077 15.7662 33.1467C15.8645 33.4273 26.83 40.0012 27.2107 40.0012C27.7018 40.0012 28.0211 39.4768 28.1193 38.4888C28.2299 37.4033 28.5368 36.7569 29.3227 35.9398C30.2682 34.964 31.3734 34.3176 36.4202 31.7441C40.9268 29.4512 41.2706 29.3048 41.7618 29.3536C42.2652 29.4024 42.3512 29.3658 42.9775 28.8413C44.365 27.6461 45.593 26.0239 47.0174 23.4748L47.7664 22.1332L50.5661 22.0722C53.1325 22.0112 53.4027 21.9869 53.9675 21.7307C54.7043 21.3892 55.1709 20.9745 55.6007 20.2427L55.9323 19.6939L55.9691 11.1685L56.0059 2.65525L55.7112 2.02103C55.3183 1.19166 54.6429 0.545242 53.8202 0.240326C53.1694 -0.00360489 52.9606 -0.00360489 27.9597 0.0085907C3.37628 0.0085907 2.75002 0.0207901 2.14833 0.240326ZM53.5009 1.94785C54.3114 2.43571 54.2745 2.05762 54.2745 11.1685V19.4134L53.7956 19.889L53.3167 20.3647H51.0205C49.2277 20.3647 48.7365 20.3281 48.7856 20.2183C49.0681 19.5475 50.9345 15.7056 51.3889 14.8762C51.7081 14.303 51.9906 13.6566 52.0274 13.437C52.1011 13.0468 52.0397 12.9736 51.2538 12.2296C50.1364 11.1807 48.4909 9.94882 46.9069 8.96089C44.4755 7.44851 37.5131 4.20422 35.6098 3.69196C34.5292 3.41144 32.3926 3.41144 31.312 3.70416C28.8561 4.36278 26.9037 5.97272 25.7126 8.31447C25.4793 8.77794 25.2705 9.14384 25.2337 9.14384C25.2091 9.14384 24.2882 8.5584 23.183 7.83881C20.8008 6.28984 20.6412 6.21666 20.2114 6.49718C19.8553 6.72892 19.6711 7.25337 19.843 7.54609C19.9044 7.65586 20.9727 8.39985 22.2006 9.20482C23.4286 10.0098 24.4355 10.7172 24.4355 10.7782C24.4355 10.9245 23.3058 12.876 22.434 14.2298L21.7095 15.3641H16.0364C9.71246 15.3641 9.67562 15.3641 8.73011 16.1813C7.88283 16.9009 7.57584 17.6327 7.51444 19.1694L7.45305 20.4867H5.19363C2.67635 20.4867 2.39392 20.4135 1.96414 19.7183C1.73083 19.3402 1.71855 19.0475 1.71855 11.1197C1.71855 2.05762 1.68171 2.43571 2.49216 1.94785C2.87282 1.70392 3.3026 1.70392 27.9965 1.70392C52.6905 1.70392 53.1203 1.70392 53.5009 1.94785ZM35.1677 5.05798C36.2115 5.32631 39.355 6.69233 42.2407 8.11933C45.3719 9.68049 47.6928 11.1563 49.5838 12.815L50.1364 13.2907L49.0803 15.4617C48.5032 16.6447 47.6068 18.5108 47.0911 19.6085C45.6544 22.6577 44.2177 25.1458 43.1125 26.463L42.7564 26.8777L42.6091 26.3532C42.4126 25.6092 41.639 24.8165 40.8654 24.5603C40.0918 24.3042 39.6129 24.3774 38.3604 24.9506C37.8324 25.1946 37.0956 25.5239 36.7272 25.6824L36.0764 25.9751L36.2483 25.6946C36.3466 25.5483 37.5008 23.6578 38.8024 21.4868C41.1478 17.5961 41.1724 17.5351 41.1724 16.8521C41.1724 15.7666 40.6566 14.9372 39.662 14.4494C39.4287 14.3274 39.2199 14.2176 39.1954 14.2054C39.1708 14.181 39.3182 13.9005 39.5269 13.5834C40.19 12.4979 40.2637 11.6807 39.7848 10.7294C39.0358 9.25361 36.9482 8.9243 35.7694 10.0952L35.3642 10.4977L34.873 10.1074C33.9275 9.35118 32.2575 9.50974 31.4348 10.4367C31.2383 10.6684 31.0664 10.9123 31.0664 10.9855C31.0664 11.0587 30.8085 10.9245 30.5015 10.705C29.9858 10.3391 29.8507 10.3025 29.0526 10.3025C28.3281 10.3025 28.0825 10.3513 27.6036 10.6318C27.0879 10.9367 26.8668 11.2417 25.2214 13.9249C22.876 17.7668 23.1584 17.3887 22.9251 17.0228C22.7287 16.7423 22.7532 16.6935 23.4409 15.6568C24.4723 14.0835 25.3442 12.5589 26.6458 9.9976C27.6896 7.96077 27.886 7.65586 28.6596 6.88747C29.5929 5.97272 30.6121 5.3629 31.6927 5.07018C32.5768 4.83844 34.2836 4.82625 35.1677 5.05798ZM38.2253 11.3636C38.3358 11.4978 38.4341 11.7417 38.4341 11.9125C38.4341 12.071 37.7219 13.3639 36.8009 14.8518C33.3749 20.3891 32.0488 22.6333 32.0488 22.8772C32.0488 23.609 32.982 23.9383 33.4855 23.3773C33.6205 23.2309 34.6029 21.6575 35.6712 19.8768C38.0411 15.9251 38.0902 15.852 38.5691 15.852C39.0358 15.852 39.4164 16.2423 39.4164 16.7057C39.4164 16.9741 38.4955 18.6328 36.2238 22.4625C34.4678 25.4141 33.0311 27.9266 33.0311 28.0364C33.0311 28.1461 33.1171 28.3535 33.2153 28.4998C33.596 29.0487 33.8416 28.9755 37.0219 27.4997C40.2023 26.0117 40.4356 25.9507 40.8286 26.4996C41.0864 26.8655 41.0619 27.1338 40.7426 27.4875C40.583 27.6583 38.1762 28.9755 35.3888 30.4147C32.5891 31.8661 29.9613 33.2809 29.556 33.5858C28.4263 34.3786 27.3212 35.5983 26.8914 36.4886C26.6826 36.9033 26.523 37.3302 26.523 37.4033C26.523 37.4887 26.4862 37.5619 26.4371 37.5619C26.3757 37.5619 24.5583 36.5008 22.3971 35.208L18.4431 32.8662L19.0817 32.1832C20.3342 30.8538 20.9236 29.3414 21.4884 26.0239C21.8937 23.67 22.434 21.9991 23.1953 20.7428C23.4777 20.3037 24.7671 18.1815 26.0564 16.0349C28.6474 11.7661 28.7579 11.6441 29.4455 12.1564C30.0595 12.6077 29.9735 12.9248 28.6719 15.0592C27.7264 16.6204 27.5054 17.0594 27.5668 17.3034C27.6896 17.779 27.8615 17.9254 28.3035 17.9254C28.8438 17.9254 28.9912 17.7424 30.9436 14.5469C31.84 13.0833 32.675 11.7661 32.8224 11.6076C33.1293 11.2904 33.7065 11.2539 34.038 11.5466C34.5046 11.9613 34.3327 12.3272 32.0488 16.1203C30.7963 18.1815 29.8385 19.9012 29.8385 20.072C29.8385 20.4379 30.2437 20.8526 30.6121 20.8526C30.7594 20.8526 31.005 20.755 31.1401 20.633C31.2874 20.5233 32.6504 18.3645 34.1854 15.8398C35.9168 12.9858 37.071 11.2051 37.243 11.1197C37.5868 10.9611 37.9429 11.0465 38.2253 11.3636ZM21.2429 17.5473C21.3902 17.8766 21.6726 18.2913 21.8691 18.4864C22.0656 18.6694 22.2252 18.8767 22.2252 18.9377C22.2252 18.9865 22.0656 19.2792 21.8568 19.5719C21.6604 19.8646 21.4884 20.1574 21.4884 20.2305C21.4884 20.3281 19.622 20.3647 15.3364 20.3647H9.18445L9.23357 19.2182C9.2704 17.9132 9.4546 17.5351 10.2036 17.1692C10.5843 16.9741 11.1123 16.9497 15.8031 16.9497H20.985L21.2429 17.5473Z" fill="#E83A15"/>
<path d="M20.1376 3.14321C19.7815 3.43593 19.7447 4.05796 20.0885 4.38727C20.2359 4.52143 20.9604 4.75316 22.0409 4.9849C22.9865 5.19224 24.1407 5.48496 24.5951 5.61912C25.3809 5.85086 25.4669 5.85086 25.7371 5.66791C26.4738 5.19224 26.3879 4.39946 25.5774 4.07015C25.0617 3.85062 21.9795 3.11882 21.0463 2.99685C20.5429 2.92367 20.3832 2.94807 20.1376 3.14321Z" fill="#00045F"/>
<path d="M6.06547 4.43596C5.85672 4.53354 5.48834 4.77747 5.23047 4.99701C3.69554 6.33863 3.95341 8.66818 5.74621 9.71709C6.22511 9.99761 6.47069 10.0586 7.1829 10.0586C7.89511 10.0586 8.1407 9.99761 8.6196 9.71709C10.4124 8.66818 10.6703 6.33863 9.13533 4.99701C8.87746 4.77747 8.4968 4.52134 8.27577 4.43596C7.76004 4.21643 6.56893 4.22862 6.06547 4.43596ZM7.96879 6.16788C8.44768 6.57037 8.58276 7.19239 8.27577 7.65586C7.95651 8.15593 7.7232 8.27789 7.1829 8.27789C5.97952 8.29009 5.48834 6.92407 6.39702 6.16788C6.63033 5.96054 6.92503 5.85077 7.1829 5.85077C7.44077 5.85077 7.73548 5.96054 7.96879 6.16788Z" fill="#00045F"/>
<path d="M13.8138 4.55785C13.0771 4.89935 12.7455 5.24086 12.414 5.97265C11.8982 7.10694 12.1561 8.41197 13.0771 9.29013C13.9489 10.1317 15.1891 10.339 16.2697 9.82678C18.1485 8.94862 18.6274 6.60688 17.2275 5.17988C16.3188 4.24074 14.9927 4.009 13.8138 4.55785ZM15.7049 6.02144C16.4048 6.38734 16.5399 7.36307 15.975 7.93631C15.0663 8.82666 13.5682 7.9607 13.8998 6.74104C14.0963 5.97265 14.9435 5.64335 15.7049 6.02144Z" fill="#00045F"/>
<path d="M18.9834 9.52205C18.6641 9.76598 18.5536 10.266 18.7624 10.5466C18.9588 10.8271 20.2973 11.8272 20.4815 11.8394C21.12 11.8882 21.4884 11.5833 21.4884 11.0222C21.4884 10.7051 21.3779 10.5466 20.8867 10.1319C20.2727 9.61962 19.6833 9.26592 19.45 9.26592C19.3763 9.26592 19.1676 9.37569 18.9834 9.52205Z" fill="#00045F"/>
</g>
<defs>
<clipPath id="clip0_94_428">
<rect width="56" height="40" fill="white" transform="translate(0 0.0012207)"/>
</clipPath>
</defs>
</svg>
