<svg width="70" height="70" viewBox="0 0 70 70" fill="none" xmlns="http://www.w3.org/2000/svg">
<path d="M20.108 0.112713C19.1644 0.399865 18.3028 1.12458 17.8378 2.04073C17.701 2.32788 17.5779 2.94321 17.5369 3.57221L17.4822 4.61143L13.352 4.66612C9.46796 4.72082 9.19444 4.73449 8.48328 5.02164C6.93787 5.65064 5.65231 6.92231 5.03689 8.42644L4.72234 9.21953L4.65395 19.2425L4.58557 29.2791L3.86074 29.5253C2.37004 30.0449 0.975068 31.4123 0.414345 32.9027C0.0861174 33.7505 -0.105349 35.8016 0.0587651 36.6904C0.181851 37.3604 1.0161 38.2082 1.72726 38.3996L2.28798 38.55L2.38371 39.685C2.87605 45.4417 6.26774 50.501 11.3416 53.0307C12.5451 53.646 14.4598 54.316 15.4308 54.4801C15.7453 54.5348 16.0052 54.6305 16.0052 54.6989C16.0052 54.8083 14.7606 59.8676 14.3504 61.4128C14.2409 61.823 14.1315 61.9461 13.7076 62.0828C12.5588 62.452 11.4237 63.5049 10.904 64.6535C10.6851 65.1458 10.6031 65.6244 10.5757 66.7866C10.521 68.154 10.5484 68.3455 10.8356 68.824C11.027 69.1522 11.3826 69.4941 11.7519 69.6855L12.3536 70H24.4707H36.6015L37.2032 69.6992C37.9828 69.3026 38.393 68.6873 38.5025 67.7438C38.8307 65.1458 37.4084 62.6434 35.2749 62.0691L34.7689 61.9324L33.8662 58.2951C33.3602 56.2851 32.9773 54.6442 32.991 54.6305C33.0183 54.6169 33.5517 54.4801 34.1945 54.316C36.7656 53.687 38.8717 52.6205 40.8684 50.9523C44.1097 48.2448 46.3252 43.9512 46.5987 39.808L46.6808 38.55L47.2142 38.4133C47.8433 38.2355 48.5955 37.6065 48.828 37.0459C49.1015 36.3759 48.9374 33.7368 48.5681 32.766C48.0211 31.3712 46.4073 29.8808 44.9576 29.4569L44.3832 29.2928L44.3422 27.693L44.3011 26.0931L45.1901 26.8178C50.5511 31.2345 58.2919 31.467 63.817 27.3648C70.3953 22.4832 71.9543 13.4174 67.3865 6.62149C66.1146 4.72082 63.735 2.65606 61.6152 1.60317C59.3586 0.481908 57.4576 0.0580173 54.7087 0.0716912C52.9034 0.0853651 52.3974 0.140061 51.276 0.440886C48.3766 1.20662 46.3115 2.36891 44.3011 4.35162C43.5763 5.07634 42.8925 5.80105 42.7694 5.97881L42.5643 6.29331L41.9352 5.8284C41.5933 5.55492 40.9642 5.1994 40.5265 5.03532C39.7743 4.72082 39.5418 4.70714 35.6031 4.66612L31.4592 4.6251V3.6269C31.4592 1.95869 30.6113 0.700691 29.148 0.194756C28.6556 0.0306696 27.7803 -0.0103521 24.4981 0.00332176C22.2688 0.00332176 20.2995 0.0580173 20.108 0.112713ZM28.5736 2.51932C29.0522 2.76545 29.1343 2.95688 29.1343 3.90038V4.63877H24.4844H19.8345V3.87303C19.8345 3.21669 19.8892 3.06627 20.2311 2.71075L20.6277 2.31421H24.416C27.4658 2.31421 28.259 2.35523 28.5736 2.51932ZM56.9106 2.51932C61.7793 3.3671 65.6086 6.67618 67.0583 11.2843C69.4379 18.8323 64.5555 26.6401 56.6917 27.8434C52.6573 28.4587 48.7185 27.1187 45.7508 24.1377C42.0035 20.3638 40.9915 14.9079 43.125 9.98527C45.4089 4.69347 51.2623 1.52112 56.9106 2.51932ZM39.5145 7.18212C39.9248 7.29151 40.4581 7.59233 40.759 7.87949C41.2924 8.3444 41.2924 8.37175 41.1009 8.74094C40.9915 8.95972 40.718 9.68444 40.4855 10.3408L40.0889 11.5441L23.5271 11.5851L6.9789 11.6125V10.8877C6.9789 9.68444 7.32081 8.79564 8.07299 8.04357C9.20812 6.92231 8.16873 6.97701 24.4297 6.97701C37.0528 6.96334 38.8854 6.99068 39.5145 7.18212ZM9.3312 16.5487L9.37223 19.1605L9.75516 19.4886C10.2202 19.8852 10.7946 19.9125 11.2322 19.557C11.5467 19.2972 11.5604 19.2288 11.6288 16.6445L11.6972 14.0054L25.6879 13.9644L39.6649 13.937V14.9352C39.6649 17.3692 40.212 19.7348 41.3061 21.9499L41.9899 23.331V26.2162V29.115H24.4844H6.9789V21.6218C6.9789 17.4922 7.01993 14.0738 7.07464 14.0327C7.11566 13.978 7.63536 13.937 8.22343 13.937H9.29017L9.3312 16.5487ZM44.561 31.7678C45.2858 32.0823 46.2568 33.1488 46.4757 33.8736C46.5714 34.1607 46.6398 34.8171 46.6398 35.323V36.2255L24.5254 36.1981L2.39739 36.1571L2.35636 35.364C2.26063 33.4633 3.40942 31.9319 5.201 31.5627C5.46085 31.508 14.2956 31.4806 24.8263 31.4943C43.1797 31.508 44.0003 31.5217 44.561 31.7678ZM44.3148 39.2201C44.3148 39.5893 44.2191 40.3823 44.1097 40.9703C43.0703 46.4125 39.1863 50.5967 33.7979 52.0598L32.4849 52.4154L25.2366 52.4701C20.4226 52.4974 17.6053 52.4564 16.8394 52.3607C12.4083 51.7727 8.4696 49.0242 6.3498 45.0588C5.39247 43.2539 4.92748 41.6677 4.70866 39.5346L4.61293 38.55H24.4707H44.3148V39.2201ZM31.4456 58.1721C31.8969 60.0181 32.2798 61.5769 32.2798 61.6589C32.2798 61.7546 29.654 61.7957 24.4707 61.7957C17.0993 61.7957 16.6753 61.782 16.7437 61.5495C16.7847 61.4265 17.154 59.936 17.5779 58.2404C18.0019 56.5449 18.3711 55.0818 18.3985 54.9861C18.4395 54.863 19.7935 54.822 24.5254 54.822H30.6113L31.4456 58.1721ZM35.1108 64.5578C35.8082 65.009 36.1228 65.6927 36.1502 66.7593L36.1775 67.6071L24.5254 67.6481L12.8597 67.6754V66.855C12.8597 65.9115 13.0785 65.2825 13.5845 64.8313C14.3504 64.1202 14.2409 64.1202 24.7716 64.1612L34.55 64.1886L35.1108 64.5578Z" fill="#E83A15"/>
<path d="M54.0112 5.13103L53.683 5.48655L53.642 10.1767C53.6146 13.1029 53.6556 15.072 53.7377 15.4001C53.8471 15.824 54.4762 16.5214 57.0063 19.0374C59.8783 21.8952 60.1655 22.1414 60.5894 22.1414C61.1228 22.1277 61.4237 21.9499 61.6562 21.4987C62.0254 20.8287 61.9024 20.6646 58.9483 17.711L56.09 14.8258L56.049 10.1493L56.0079 5.48655L55.6797 5.13103C55.2147 4.63877 54.4762 4.63877 54.0112 5.13103Z" fill="#00045F"/>
<path d="M9.75509 22.4695C9.38589 22.7977 9.37222 22.8524 9.3312 24.3565C9.2765 25.888 9.29018 25.929 9.6457 26.3529C10.1106 26.9135 10.7943 26.9546 11.2866 26.4486C11.6147 26.1341 11.6284 26.0384 11.6284 24.548C11.6284 23.6865 11.5874 22.8797 11.5464 22.7567C11.437 22.4969 10.7943 22.1413 10.4114 22.1413C10.261 22.1413 9.9602 22.2918 9.75509 22.4695Z" fill="#00045F"/>
</svg>
