<svg width="50" height="50" viewBox="0 0 50 50" fill="none" xmlns="http://www.w3.org/2000/svg">
<g clip-path="url(#clip0_523_6041)">
<path d="M32.3945 0.144627C30.8966 0.486504 29.44 1.54144 28.7478 2.77219C28.0763 3.99318 24.0681 12.5987 24.0681 12.8429C24.0681 13.1066 24.4813 13.5657 24.7293 13.5657C25.0598 13.5657 25.3904 13.3411 25.566 12.9992C25.659 12.7941 26.7231 10.567 27.9111 8.04686C29.1094 5.51698 30.2354 3.25082 30.4317 3.00662C31.1032 2.13728 32.5288 1.45353 33.6652 1.45353C35.2561 1.45353 36.7953 2.39125 37.4771 3.77829L37.7561 4.33506L37.787 9.77578L37.818 15.2263H37.0329H36.2581V10.02V4.81369L35.9792 4.27645C35.1528 2.75266 33.1073 2.47916 31.8367 3.71968C31.5784 3.97364 29.4193 8.45711 22.5805 22.9527L13.6549 41.8438L12.8182 41.8731C12.3533 41.8926 11.9814 41.8731 11.9814 41.8438C11.9814 41.8047 14.75 35.9245 18.1281 28.7646C22.0433 20.4716 24.2747 15.6463 24.2747 15.4509C24.2747 15.236 24.1921 15.0798 24.0061 14.943C23.6549 14.6793 23.4173 14.689 23.097 14.9528C22.9214 15.1091 20.8243 19.446 16.5475 28.5106L10.2562 41.8438L9.73966 41.9024C8.44835 42.0587 7.95248 42.7424 7.95248 44.3542V45.116H6.48555C5.58679 45.116 4.71903 45.1747 4.28514 45.2626C2.57028 45.6044 1.18599 46.6008 0.411196 48.066C-0.0743389 48.9939 -0.125992 49.4628 0.235577 49.7851L0.473179 50H6.83678C12.9008 50 13.2107 49.9902 13.438 49.8144C13.7272 49.5897 13.7686 49.0037 13.5 48.7497C13.3347 48.5934 12.8492 48.5837 7.55992 48.5348L1.80582 48.486L2.52895 47.7925C3.06614 47.2748 3.40705 47.0403 3.87192 46.8645L4.49175 46.6301H11.8264H19.1611L19.5847 46.845C20.1115 47.1087 20.69 47.7338 20.8347 48.1929L20.9483 48.5348H18.3863C15.9586 48.5348 15.814 48.5446 15.5557 48.7399C15.3595 48.8865 15.2872 49.033 15.2872 49.2674C15.2872 49.5018 15.3595 49.6484 15.5557 49.7949C15.8243 49.9902 15.9483 50 19.0268 50H22.2189L22.4669 49.7558C22.7768 49.4725 22.7768 49.4042 22.5082 48.4176C22.2499 47.431 21.9297 46.8352 21.4028 46.3175C20.5247 45.4677 19.4917 45.116 17.8491 45.116H16.8367V44.2076C16.8367 43.5434 16.7851 43.2015 16.6405 42.9085C16.4338 42.4787 16.0206 42.1173 15.6281 42.0294C15.4318 41.9806 15.3905 41.9219 15.4318 41.7559C15.5351 41.3847 32.7458 5.02858 32.9317 4.78438C33.3139 4.29599 34.0061 4.27645 34.4606 4.74531L34.7085 4.99928V10.0981V15.197L34.3986 15.2556C33.8408 15.363 33.7788 15.6365 33.7788 18.0785V20.2567L33.1073 20.4814C29.6982 21.6438 26.2892 24.5253 24.6156 27.6706C23.6755 29.4288 23.5206 30.0051 22.2913 36.0807C21.3718 40.6619 21.2479 41.3847 21.2479 42.3322C21.2479 43.5727 21.4338 44.403 21.9607 45.4872C23.097 47.8413 25.4007 49.4921 28.097 49.9023C28.6549 49.9805 30.8553 50 35.9999 49.9805C43.0659 49.9414 43.1383 49.9414 43.8924 49.7265C45.4316 49.2772 46.6093 48.6032 47.6837 47.5385C48.8201 46.4249 49.6155 44.9988 49.8841 43.6118C50.07 42.6545 50.0287 41.0526 49.7911 40.1735C48.9337 37.0185 46.3407 34.8011 42.849 34.2346L42.4564 34.1662V31.9685V29.7707L42.1982 29.5362C41.8883 29.2432 41.537 29.2237 41.1755 29.4972L40.9069 29.6925V31.9294V34.1662L40.5246 34.2346C38.2519 34.596 36.3408 35.651 35.0495 37.2529C33.8614 38.7278 33.3449 40.1637 33.3346 42.0392C33.3243 42.9573 33.3759 43.3871 33.5515 44.022C33.9854 45.5654 35.0804 47.2064 36.2685 48.1246L36.8056 48.5348H32.7354C29.6673 48.5348 28.4999 48.4957 27.9937 48.3981C25.566 47.9097 23.6032 46.1319 22.9731 43.8365C22.6425 42.6643 22.7355 41.7461 23.5722 37.5948L24.3264 33.8341L28.7685 33.7853C32.9937 33.7364 33.2313 33.7267 33.6755 33.5313C34.285 33.2676 34.7809 32.789 35.0804 32.1736L35.3284 31.6852V26.5375C35.3284 21.7219 35.3387 21.3898 35.5143 21.341C35.8862 21.2335 36.9606 21.087 37.8284 21.0284C39.0474 20.9405 39.5742 21.087 40.1837 21.6633C40.8552 22.308 40.9069 22.5522 40.9069 25.1309V27.3482L41.1651 27.5827C41.4854 27.8952 41.8779 27.8952 42.2085 27.5827L42.4668 27.3287L42.4358 24.8183L42.4048 22.308L42.0845 21.6731C41.7436 20.9991 40.9895 20.2079 40.4833 20.0125L40.1837 19.8953V17.7952C40.1837 15.7049 40.1837 15.7049 39.9255 15.4705C39.7912 15.3337 39.6052 15.2263 39.5122 15.2263C39.3779 15.2263 39.3573 14.6402 39.3573 9.9223C39.3573 5.4779 39.3366 4.53041 39.2023 4.05179C38.4275 1.23863 35.349 -0.529358 32.3945 0.144627ZM38.6341 18.0883V19.4851L37.3738 19.6121C36.6713 19.6804 35.9276 19.7586 35.7209 19.7879L35.3284 19.8367V18.2641V16.6915H36.9813H38.6341V18.0883ZM33.7788 26.6938C33.7788 31.4898 33.7788 31.5094 33.5515 31.7829C33.1176 32.3103 32.9937 32.3201 28.6549 32.3201H24.6569L24.7189 31.9001C24.9255 30.5326 25.8759 28.3641 26.94 26.8598C27.7561 25.6975 29.4503 24.1151 30.7313 23.3043C31.7127 22.6889 33.3656 21.8782 33.6548 21.8684C33.7478 21.8684 33.7788 22.8941 33.7788 26.6938ZM43.3242 35.8365C45.7416 36.4226 47.7353 38.3078 48.2932 40.5447C48.4895 41.3456 48.4895 42.8694 48.2932 43.602C47.7044 45.7803 45.8965 47.5873 43.6445 48.2418C42.0019 48.7106 40.2664 48.5739 38.6341 47.8315C37.911 47.5092 37.6011 47.2845 36.878 46.591C35.4627 45.243 34.8738 43.8951 34.8738 42.0392C34.8738 40.1149 35.7313 38.3957 37.3015 37.1357C38.9337 35.8365 41.2581 35.3384 43.3242 35.8365ZM15.2252 43.5141C15.2562 43.602 15.2872 43.9927 15.2872 44.3932V45.116H12.3946H9.50206V44.3542C9.50206 43.8951 9.55371 43.5434 9.62603 43.475C9.719 43.3871 10.4938 43.3578 12.4566 43.3578C14.8326 43.3578 15.1735 43.3774 15.2252 43.5141Z" fill="#E83A15"/>
<path d="M40.793 38.8939C39.2434 39.3139 38.2207 40.5544 38.2207 42.0391C38.2207 43.4946 39.0885 44.6862 40.5141 45.1746C41.1236 45.3895 42.1773 45.3895 42.8488 45.1746C43.5616 44.95 44.4293 44.1979 44.8012 43.475C45.0492 42.9964 45.0905 42.801 45.0905 42.088C45.0905 41.0917 44.8012 40.3981 44.1091 39.7437C43.2827 38.9623 41.8777 38.6008 40.793 38.8939ZM42.4046 40.4177C43.4273 40.867 43.8405 41.8145 43.4376 42.7522C42.9004 43.9439 41.4438 44.276 40.4211 43.4262C38.7992 42.0782 40.4521 39.5581 42.4046 40.4177Z" fill="#E83A15"/>
</g>
<defs>
<clipPath id="clip0_523_6041">
<rect width="50" height="50" fill="white"/>
</clipPath>
</defs>
</svg>
