<svg width="48" height="50" viewBox="0 0 48 50" fill="none" xmlns="http://www.w3.org/2000/svg">
<path d="M14.6 0.0605812C13.76 0.171581 12.59 0.454124 11.8 0.726578C9.89 1.41275 8.49 2.31084 6.99 3.82446C5.15 5.68117 4.11 7.56815 3.48 10.1918C3.28 10.999 3.27 11.4027 3.23 16.8214L3.19 22.6035H1.84C0.54 22.6035 0.48 22.6136 0.25 22.8557C0 23.0979 0 23.1181 0 25.0253C0 26.9324 0 26.9526 0.25 27.1948C0.48 27.437 0.54 27.4471 1.85 27.4471H3.2V28.2543V29.0616H2.65C2.19 29.0616 2.05 29.102 1.85 29.3139C1.6 29.556 1.6 29.5762 1.6 31.4834C1.6 33.3906 1.6 33.4107 1.85 33.6529C2.05 33.8648 2.19 33.9052 2.65 33.9052H3.2V35.2674C3.2 36.5893 3.21 36.6499 3.45 36.882L3.69 37.1342H8H12.31L12.55 36.882C12.79 36.6499 12.8 36.5893 12.8 35.2674V33.9052H13.35C13.81 33.9052 13.95 33.8648 14.15 33.6529C14.4 33.4107 14.4 33.3906 14.4 31.4834C14.4 29.5762 14.4 29.556 14.15 29.3139C13.95 29.102 13.81 29.0616 13.35 29.0616H12.8V28.2543V27.4471H14.15C15.46 27.4471 15.52 27.437 15.75 27.1948C16 26.9526 16 26.9324 16 25.0253C16 23.1181 16 23.0979 15.75 22.8557C15.52 22.6136 15.46 22.6035 14.15 22.6035H12.79L12.82 17.326L12.85 12.0586L13.1 11.554C13.41 10.9082 14.02 10.3028 14.65 9.98995C15.06 9.78813 15.31 9.74777 16 9.74777C16.73 9.74777 16.92 9.78813 17.36 10.0101C18.11 10.4037 18.43 10.7165 18.81 11.4228L19.15 12.0586L19.21 19.0717C19.27 25.7114 19.28 26.1353 19.48 26.9425C20.1 29.546 21.18 31.4834 22.99 33.3098C24.84 35.1867 26.93 36.3371 29.5 36.8921C30.69 37.1544 33.31 37.1544 34.5 36.8921C37.07 36.3371 39.16 35.1867 41.01 33.3098C42.82 31.4834 43.89 29.546 44.52 26.9425C44.72 26.1353 44.73 25.7316 44.77 20.3028L44.81 14.5308H46.16C47.46 14.5308 47.52 14.5207 47.75 14.2785C48 14.0364 48 14.0162 48 12.109C48 10.2019 48 10.1817 47.75 9.93949C47.52 9.69731 47.46 9.68722 46.15 9.68722H44.8V8.87996V8.07269H45.35C45.81 8.07269 45.95 8.03233 46.15 7.82042C46.4 7.57824 46.4 7.55806 46.4 5.6509C46.4 3.74373 46.4 3.72355 46.15 3.48137C45.95 3.26946 45.81 3.2291 45.35 3.2291H44.8V1.86684C44.8 0.544941 44.79 0.484398 44.55 0.252308L44.31 3.8147e-05H40H35.69L35.45 0.252308C35.21 0.484398 35.2 0.544941 35.2 1.86684V3.2291H34.65C34.19 3.2291 34.05 3.26946 33.85 3.48137C33.6 3.72355 33.6 3.74373 33.6 5.6509C33.6 7.55806 33.6 7.57824 33.85 7.82042C34.05 8.03233 34.19 8.07269 34.65 8.07269H35.2V8.87996V9.68722H33.85C32.54 9.68722 32.48 9.69731 32.25 9.93949C32 10.1817 32 10.2019 32 12.109C32 14.0162 32 14.0364 32.25 14.2785C32.48 14.5207 32.54 14.5308 33.85 14.5308H35.21L35.18 19.7982L35.15 25.0757L34.81 25.7114C34.43 26.4178 34.11 26.7306 33.36 27.1242C32.93 27.3462 32.72 27.3865 32 27.3865C31.28 27.3865 31.07 27.3462 30.64 27.1242C29.89 26.7306 29.57 26.4178 29.19 25.7114L28.85 25.0757L28.79 18.0626C28.73 11.4228 28.72 10.999 28.52 10.1918C27.9 7.58833 26.82 5.6509 25.01 3.82446C23.19 1.98793 21.19 0.867847 18.7 0.292671C17.87 0.100945 15.39 -0.0403252 14.6 0.0605812ZM17.7 1.76593C20.05 2.11911 22.19 3.21901 23.9 4.94454C25.65 6.72052 26.74 8.93041 27.1 11.4531C27.15 11.8567 27.2 14.8335 27.2 18.4662C27.2 23.8043 27.22 24.8739 27.35 25.3784C28.02 27.9617 30.64 29.5661 33.13 28.9102C34.86 28.4561 36.2 27.1141 36.65 25.3784C36.77 24.884 36.8 23.9355 36.8 19.6569V14.5308H40H43.2V19.7478C43.2 25.0555 43.16 25.7417 42.79 27.1948C42.34 29.001 40.89 31.3825 39.49 32.6136C35.96 35.7114 31.25 36.3774 27.15 34.3694C24.35 32.9869 22.3 30.6257 21.34 27.6792C20.84 26.1252 20.8 25.4894 20.8 18.6681C20.8 13.4006 20.78 12.2604 20.65 11.776C20.2 10.0303 18.87 8.67814 17.15 8.22405C14.64 7.56815 12.02 9.17259 11.35 11.7558C11.23 12.2503 11.2 13.1988 11.2 17.4773V22.6035H8H4.8V17.326C4.8 13.1887 4.83 11.8668 4.95 11.1504C5.52 7.59842 7.72 4.5409 10.89 2.88601C13.02 1.77602 15.32 1.39257 17.7 1.76593ZM43.2 2.42183V3.2291H40H36.8V2.42183V1.61457H40H43.2V2.42183ZM44.8 5.6509V6.45816H40H35.2V5.6509V4.84363H40H44.8V5.6509ZM43.2 8.87996V9.68722H40H36.8V8.87996V8.07269H40H43.2V8.87996ZM46.4 12.109V12.9163H40H33.6V12.109V11.3018H40H46.4V12.109ZM14.4 25.0253V25.8325H8H1.6V25.0253V24.218H8H14.4V25.0253ZM11.2 28.2543V29.0616H8H4.8V28.2543V27.4471H8H11.2V28.2543ZM12.8 31.4834V32.2907H8H3.2V31.4834V30.6761H8H12.8V31.4834ZM11.2 34.7125V35.5197H8H4.8V34.7125V33.9052H8H11.2V34.7125Z" fill="white"/>
<path d="M7.63002 38.8698C7.27002 39.0515 4.62002 43.1685 4.33002 44.0061C3.51002 46.3774 4.33002 48.6579 6.37002 49.667C6.99002 49.9697 7.12002 50 8.00002 50C8.86002 50 9.01002 49.9697 9.62002 49.6771C10.55 49.2331 11.13 48.668 11.58 47.7497C11.94 47.003 11.95 46.9526 11.95 45.8729C11.94 44.2583 11.75 43.7941 10.01 41.1302C8.44002 38.7487 8.25002 38.5671 7.63002 38.8698ZM9.03002 42.5732C10.34 44.5711 10.63 45.56 10.28 46.7608C10.12 47.3158 9.29002 48.1534 8.74002 48.3148C7.47002 48.6882 6.18002 48.0121 5.75002 46.7306C5.36002 45.5701 5.64002 44.6014 6.97002 42.5732C7.51002 41.7457 7.97002 41.0696 8.00002 41.0696C8.03002 41.0696 8.49002 41.7457 9.03002 42.5732Z" fill="white"/>
</svg>
