<svg width="38" height="50" viewBox="0 0 38 50" fill="none" xmlns="http://www.w3.org/2000/svg">
<path d="M15.7473 0.0204239C11.5033 0.460167 7.45543 2.46343 4.84293 5.41459C2.55054 8.01395 1.29076 10.8185 0.929348 14.1019C0.846739 14.8837 0.784783 15.0694 0.609239 15.1866C0.18587 15.47 0 16.0466 0 17.1508C0 17.9814 0.0413043 18.2453 0.206522 18.5677C0.609239 19.33 0.691848 19.3593 3.20109 19.3886C5.27663 19.4081 5.44185 19.3984 5.76196 19.2127C6.39185 18.8511 6.50543 18.5287 6.50543 17.1801C6.50543 15.9098 6.46413 15.7339 5.98913 15.255C5.71033 14.9716 5.7 14.9521 5.79293 14.229C5.98913 12.6654 6.72228 10.8185 7.68261 9.45044C7.94076 9.08887 8.49837 8.42437 8.93207 7.98463C9.65489 7.24196 9.71685 7.14424 9.66522 6.86085C9.59293 6.49928 9.2625 6.21589 8.91141 6.21589C8.62228 6.21589 7.76522 6.93903 7.02174 7.82828C5.54511 9.58725 4.45054 12.0791 4.26467 14.1019L4.20272 14.8153H3.30435H2.40598L2.44728 14.2974C2.51957 13.5058 2.88098 11.913 3.15978 11.1019C4.22337 8.1019 6.52609 5.34618 9.4587 3.5579C10.7495 2.76637 12.8766 1.9846 14.6217 1.66212C15.9022 1.41782 18.7935 1.41782 20.0636 1.65236C23.1408 2.23868 25.6603 3.50904 27.8908 5.6198C29.6875 7.32991 30.844 9.10842 31.5875 11.3267C32.2793 13.3788 32.2484 12.8413 32.2897 24.1671L32.331 34.4571H31.4533H30.5755L30.5342 24.216C30.4929 12.9586 30.5239 13.584 29.8424 11.6394C29.4707 10.5742 28.9337 9.54816 28.2418 8.56118C27.519 7.52535 25.7636 5.89342 24.5967 5.17029C20.838 2.83477 16.1397 2.46343 11.9989 4.18331C11.2038 4.51556 11.0076 4.6426 10.8734 4.89667C10.7288 5.18006 10.7288 5.23869 10.8837 5.51231C11.0902 5.90319 11.462 5.99114 11.9576 5.7957C12.1641 5.71752 12.6701 5.51231 13.0625 5.35596C15.4891 4.3983 18.5043 4.32012 21.0755 5.15074C24.9272 6.40156 27.7152 9.35272 28.7375 13.2518C28.944 14.0628 28.9543 14.3071 28.9853 24.2942L29.0163 34.5059L28.531 34.7991C28.2625 34.9554 27.9011 35.2877 27.7255 35.5125C27.4571 35.8936 27.4158 36.0304 27.3745 36.7633L27.3435 37.5841H24.0082H20.6625L20.6315 35.4245C20.6005 33.2942 20.6005 33.2649 20.3527 33.0792C20.0636 32.8642 19.6402 32.8349 19.3511 33.0304C19.1652 33.1574 19.1549 33.3333 19.1033 35.3463L19.0516 37.5255L18.7005 37.5939C18.2565 37.6818 17.8641 37.9555 17.606 38.3757C17.4201 38.6786 17.3995 38.8838 17.3995 40.6623C17.3995 42.5581 17.4098 42.6265 17.6473 42.9978C18.1326 43.7307 18.1636 43.7405 23.0582 43.7405H27.3641V44.5711V45.4018H27.0853C26.6516 45.4018 25.7946 45.8219 25.4641 46.1933C24.9685 46.7503 24.8859 47.0532 24.8859 48.3725C24.8859 50.1803 24.1527 49.9946 31.4636 49.9946H37.494L37.7418 49.7503C37.9793 49.5353 38 49.4474 38 48.4995C38 47.2584 37.8245 46.633 37.3288 46.1542C36.8848 45.7145 36.513 45.5288 35.9451 45.4408L35.5217 45.3724V44.8447C35.5217 44.4148 35.4701 44.278 35.2636 44.0825C34.9435 43.7698 34.4995 43.7601 34.2 44.063C34.0245 44.2389 33.9728 44.4148 33.9728 44.8447V45.4018H31.4429H28.913V40.9066V36.4017L29.1712 36.1672C29.419 35.9229 29.4293 35.9229 31.412 35.9229C32.8163 35.9327 33.4565 35.962 33.5701 36.0499C33.9418 36.3235 33.9728 36.5581 33.9728 39.1476V41.6982L34.2413 41.9522C34.4478 42.1477 34.5614 42.1868 34.8299 42.1379C35.4804 42.0109 35.4701 42.0597 35.4701 38.9718V36.1574L35.212 35.6786C35.0261 35.3463 34.7783 35.0825 34.4375 34.8675L33.9212 34.5352L33.8696 24.216C33.8179 14.9619 33.7973 13.799 33.6321 13.0075C32.7337 8.61004 30.2451 4.98462 26.4967 2.61979C23.7913 0.909679 21.0033 0.0790558 17.7609 0.0106506C16.8832 -0.00889206 15.9745 0.000881195 15.7473 0.0204239ZM4.95652 17.1117V17.9423H3.25272H1.54891V17.1117V16.2811H3.25272H4.95652V17.1117ZM24.0598 40.6623V42.2747L21.5092 42.2552L18.9484 42.2258L18.9174 40.76C18.9071 39.9587 18.9174 39.2454 18.938 39.177C18.9793 39.0792 19.5473 39.0499 21.5299 39.0499H24.0598V40.6623ZM27.3641 40.6623V42.2747H26.4864H25.6087V40.6623V39.0499H26.4864H27.3641V40.6623ZM36.1516 47.1509C36.4098 47.405 36.4511 47.5125 36.4511 47.9816V48.5288H31.4429H26.4348V47.9425C26.4348 47.4441 26.4761 47.3073 26.6929 47.1119L26.9408 46.8676H31.3913H35.8522L36.1516 47.1509Z" fill="white"/>
<path d="M1.38378 21.1768C0.939759 21.3234 0.826172 21.6361 0.826172 22.6426C0.826172 23.4439 0.85715 23.6198 1.04302 23.8445C1.3115 24.167 1.85878 24.1963 2.16856 23.9032C2.34411 23.737 2.37508 23.5807 2.37508 22.6719C2.37508 22.1051 2.33378 21.5579 2.27182 21.4602C2.13758 21.2354 1.66258 21.0791 1.38378 21.1768Z" fill="white"/>
<path d="M4.68847 22.7404C4.24445 22.887 4.13086 23.1997 4.13086 24.2062C4.13086 25.0075 4.16184 25.1834 4.34771 25.4081C4.61619 25.7306 5.16347 25.7599 5.47325 25.4668C5.64879 25.3006 5.67977 25.1443 5.67977 24.2355C5.67977 23.6687 5.63847 23.1215 5.57651 23.0238C5.44227 22.799 4.96727 22.6427 4.68847 22.7404Z" fill="white"/>
<path d="M1.04302 26.1118C0.85715 26.3366 0.826172 26.5125 0.826172 27.3333C0.826172 28.1835 0.846824 28.3203 1.06367 28.5353C1.39411 28.8871 1.8278 28.9164 2.16856 28.5939C2.35443 28.418 2.37508 28.2715 2.37508 27.3236C2.37508 26.3757 2.35443 26.2291 2.16856 26.0532C1.85878 25.76 1.3115 25.7894 1.04302 26.1118Z" fill="white"/>
<path d="M4.34771 27.6752C4.16184 27.9 4.13086 28.0759 4.13086 28.8967C4.13086 29.7567 4.15151 29.8837 4.36836 30.1183C4.68847 30.4603 5.2151 30.4896 5.4939 30.1671C5.64879 29.9814 5.67977 29.7665 5.67977 28.8772C5.67977 27.9391 5.65912 27.7925 5.47325 27.6166C5.16347 27.3235 4.61619 27.3528 4.34771 27.6752Z" fill="white"/>
<path d="M1.04302 30.8024C0.85715 31.0272 0.826172 31.2031 0.826172 31.9751C0.826172 32.4734 0.877802 32.9914 0.939759 33.1282C1.17726 33.6265 2.00335 33.6656 2.2615 33.1966C2.32345 33.0891 2.37508 32.5418 2.37508 31.9751C2.37508 31.0663 2.34411 30.9099 2.16856 30.7438C1.85878 30.4506 1.3115 30.4799 1.04302 30.8024Z" fill="white"/>
<path d="M4.34771 32.3658C4.16184 32.5906 4.13086 32.7665 4.13086 33.5385C4.13086 34.0368 4.18249 34.5547 4.24445 34.6916C4.48195 35.1899 5.30803 35.229 5.56619 34.76C5.62814 34.6525 5.67977 34.1052 5.67977 33.5385C5.67977 32.6297 5.64879 32.4733 5.47325 32.3072C5.16347 32.014 4.61619 32.0433 4.34771 32.3658Z" fill="white"/>
<path d="M1.04302 35.4929C0.85715 35.7176 0.826172 35.8935 0.826172 36.6655C0.826172 37.1639 0.877802 37.6818 0.939759 37.8186C1.17726 38.317 2.00335 38.3561 2.2615 37.887C2.32345 37.7795 2.37508 37.2421 2.37508 36.6753C2.37508 35.747 2.35443 35.6492 2.13758 35.4538C1.79682 35.1509 1.3115 35.1704 1.04302 35.4929Z" fill="white"/>
<path d="M4.38901 37.0467C4.15151 37.2617 4.13086 37.3594 4.13086 38.2096C4.13086 39.2356 4.23412 39.5581 4.61619 39.7242C4.98792 39.8806 5.14282 39.861 5.42162 39.5874C5.66945 39.3627 5.67977 39.2845 5.67977 38.2877C5.67977 37.3008 5.65912 37.2128 5.44227 37.0174C5.12216 36.734 4.69879 36.7438 4.38901 37.0467Z" fill="white"/>
<path d="M1.07458 40.1738C0.816432 40.4181 0.806106 40.4571 0.84741 41.493C0.878389 42.6656 0.950671 42.8122 1.51861 42.9197C1.78708 42.9686 1.90067 42.9295 2.10719 42.734C2.36535 42.4897 2.37567 42.4311 2.37567 41.4148C2.37567 40.4278 2.35502 40.3399 2.13817 40.1444C1.81806 39.861 1.39469 39.8708 1.07458 40.1738Z" fill="white"/>
<path d="M4.3783 41.7372C4.12014 41.9815 4.10982 42.0206 4.15112 43.0662C4.1821 44.0629 4.20275 44.1606 4.42993 44.3365C4.73971 44.5808 5.07014 44.5711 5.4109 44.317C5.66906 44.1216 5.67938 44.0922 5.67938 43.0173C5.67938 41.9913 5.65873 41.9033 5.44188 41.7079C5.12177 41.4245 4.6984 41.4343 4.3783 41.7372Z" fill="white"/>
</svg>
