<svg width="48" height="41" viewBox="0 0 48 41" fill="none" xmlns="http://www.w3.org/2000/svg">
<path d="M1.33157 0.245266C1.05965 0.376699 0.722082 0.639566 0.562676 0.82733C-0.0186847 1.53144 6.88837e-05 1.26857 6.88837e-05 9.54888V17.0969L0.234489 17.3222C0.384517 17.4818 0.562676 17.5569 0.797096 17.5569C1.03152 17.5569 1.20967 17.4818 1.3597 17.3222L1.59412 17.0969V9.67093C1.59412 1.7943 1.59412 1.82247 2.01608 1.65348C2.10047 1.62532 2.58806 1.59715 3.09441 1.59715H4.02271L4.05084 5.23035C4.07897 8.78844 4.07897 8.88233 4.29464 9.30479C4.61345 9.96196 5.08229 10.4501 5.73866 10.8069L6.3294 11.1261H24.0046H41.6799L42.1487 10.8914C42.7488 10.6003 43.4052 9.94318 43.6959 9.34234L43.9303 8.87294L43.9585 5.23035L43.9866 1.59715H44.9149C45.9932 1.59715 46.0964 1.62532 46.2745 1.98207C46.4902 2.38576 46.4808 19.3219 46.2745 20.1387C45.9557 21.3497 45.2149 22.251 44.071 22.8049L43.3677 23.1429L41.7174 23.171L40.0671 23.2086L40.0202 22.0445C39.9827 21.0493 39.9358 20.8052 39.7389 20.3546C39.4107 19.6505 38.82 19.0309 38.173 18.7117L37.6479 18.4488L32.6219 18.4206L27.596 18.3925L27.3522 18.646C27.2115 18.7868 27.099 18.9933 27.099 19.1154C27.099 19.4064 27.2771 19.7819 27.4647 19.8758C27.5491 19.9134 29.8089 19.9697 32.5 19.9978L37.3853 20.0448L37.7229 20.3077C38.2667 20.7207 38.3886 21.0305 38.4261 22.1759L38.4636 23.1804L33.7659 23.2086L29.0775 23.2367L28.8618 23.4433C28.5524 23.7531 28.5805 24.2788 28.9181 24.5699L29.1806 24.7952L36.3633 24.767L43.5552 24.7388L44.1647 24.5229C45.8807 23.9033 47.0528 22.711 47.756 20.8709L47.9623 20.3264L47.9905 11.1824C48.0186 1.11836 48.0373 1.55021 47.4466 0.82733C47.2872 0.639566 46.9496 0.376699 46.6777 0.245266L46.1901 0.00117493H24.0046H1.81917L1.33157 0.245266ZM42.3831 4.99565C42.3831 8.3472 42.3738 8.41292 42.1675 8.77906C42.0362 9.02315 41.8205 9.22968 41.5392 9.36112L41.1267 9.57704H24.0046C7.52025 9.57704 6.87325 9.56766 6.50756 9.39867C6.29189 9.30479 6.01997 9.07948 5.89807 8.91049L5.67303 8.59129L5.64489 5.08953L5.61676 1.59715H24.0046H42.3831V4.99565Z" fill="#E83A15"/>
<path d="M7.45454 3.42783C7.06071 3.81274 7.16386 4.41358 7.66083 4.67644C7.95151 4.83604 40.0576 4.83604 40.3483 4.67644C40.8453 4.41358 40.9484 3.81274 40.5546 3.42783L40.3296 3.19312H24.0046H7.67958L7.45454 3.42783Z" fill="#00045F"/>
<path d="M7.45458 6.61976C7.07013 6.99528 7.14514 7.60551 7.6046 7.84021C7.99843 8.04675 40.0108 8.04675 40.4046 7.84021C40.8641 7.60551 40.9391 6.99528 40.5546 6.61976L40.3296 6.38506H24.0046H7.67962L7.45458 6.61976Z" fill="#00045F"/>
<path d="M12.4244 12.8348C11.5711 12.9099 10.3615 13.1634 9.49882 13.4356C7.37029 14.1116 5.66372 15.1631 4.02278 16.7966C2.0349 18.7869 0.872179 20.9274 0.262688 23.7344C-0.0279924 25.0675 -0.0279924 27.715 0.262688 29.0762C1.06909 32.8315 3.15074 35.8357 6.37635 37.9198C9.52695 39.957 13.6902 40.5485 17.3941 39.4783C21.6136 38.2578 25.0924 34.925 26.4896 30.7661C27.0147 29.1983 27.1366 28.3627 27.1366 26.4288C27.1366 24.9361 27.099 24.4855 26.9303 23.6875C26.3677 21.0963 25.2237 18.9183 23.4421 17.0501C22.42 15.9798 21.4824 15.2476 20.3103 14.5716C17.9942 13.2385 15.0593 12.5907 12.4244 12.8348ZM15.8188 14.5998C20.6009 15.5104 24.3235 19.1906 25.3737 24.0348C25.6175 25.1426 25.6175 27.6117 25.3831 28.7289C24.3235 33.714 20.4509 37.4598 15.5375 38.2578C9.07687 39.3093 2.9257 34.925 1.77235 28.4472C1.56606 27.2831 1.60357 25.1051 1.86612 23.9409C2.98196 18.8338 7.07961 15.1067 12.2837 14.459C13.1745 14.3557 14.8623 14.4214 15.8188 14.5998Z" fill="#00045F"/>
<path d="M13.0806 16.9469C12.8555 17.1628 12.8462 17.2098 12.8462 18.5898C12.8462 19.3596 12.818 19.998 12.7805 19.998C12.743 19.998 12.2273 19.5098 11.6272 18.9184C10.652 17.9608 10.4926 17.8388 10.2019 17.8388C9.7612 17.8388 9.47052 18.158 9.47052 18.6367C9.47052 18.9841 9.55491 19.0874 11.1583 20.7021L12.8462 22.4014V23.8753C12.8462 24.6827 12.818 25.3492 12.7805 25.3492C12.7336 25.3492 12.0773 25.1427 11.3084 24.8892L9.91123 24.4386L8.85166 22.3826C8.2703 21.256 7.71706 20.2797 7.63267 20.2139C7.18259 19.8854 6.37618 20.2609 6.37618 20.796C6.37618 20.9274 6.67624 21.6222 7.03256 22.345C7.39825 23.0679 7.64205 23.6594 7.59517 23.6594C7.53891 23.6594 6.9763 23.4904 6.33868 23.2839C4.94154 22.8238 4.78213 22.8238 4.46332 23.1994C3.88196 23.8941 4.26641 24.3165 5.9261 24.8329C6.59185 25.0394 7.12633 25.2366 7.12633 25.2741C7.12633 25.3117 6.53559 25.6403 5.81358 26.0064C5.09156 26.3725 4.46332 26.7481 4.40706 26.8513C4.25703 27.1424 4.29454 27.4803 4.52896 27.7338C4.94154 28.2032 5.06343 28.1751 7.27636 27.0485C8.40157 26.4758 9.36738 26.0064 9.42364 26.0064C9.52678 26.0064 12.2179 26.8513 12.2648 26.8983C12.3023 26.9358 10.6145 29.2735 10.502 29.3392C10.4551 29.3673 9.38613 29.5551 8.13902 29.7616C6.01987 30.0996 5.85108 30.1372 5.65417 30.3719C5.41038 30.6441 5.38225 30.8882 5.55103 31.198C5.81358 31.705 5.99174 31.7238 7.70769 31.4421C8.37344 31.3389 8.9548 31.2637 9.01106 31.2825C9.06732 31.3013 8.75789 31.7989 8.33593 32.3809C7.71706 33.2352 7.55766 33.5263 7.55766 33.7798C7.55766 34.4275 8.39219 34.7937 8.84228 34.343C8.9548 34.221 9.36738 33.6953 9.74245 33.1695C10.1269 32.6344 10.4551 32.2119 10.4645 32.2307C10.4832 32.2495 10.5957 32.9067 10.727 33.6953C10.9896 35.3382 11.1208 35.5823 11.721 35.5823C12.171 35.5823 12.4711 35.2725 12.4711 34.8125C12.4711 34.6247 12.3211 33.5451 12.1429 32.3997L11.8053 30.3155L12.6774 29.1045C13.1556 28.4379 13.5682 27.8934 13.5963 27.8934C13.6244 27.884 14.037 28.4379 14.5152 29.1045L15.3967 30.3343L15.0591 32.4654C14.8716 33.6389 14.7215 34.7092 14.7215 34.8406C14.7215 35.2349 15.0591 35.5823 15.4342 35.5823C16.1374 35.5823 16.2218 35.4227 16.5125 33.5638C16.6156 32.8409 16.7188 32.2401 16.7375 32.2213C16.7469 32.2026 17.1032 32.6814 17.5346 33.2634C18.5097 34.6247 18.8754 34.8218 19.4193 34.2773C19.8788 33.8173 19.8319 33.6859 18.791 32.2683C18.4066 31.7425 18.1159 31.3013 18.1441 31.2825C18.1628 31.2637 18.8098 31.3389 19.5693 31.4609C20.3382 31.5736 21.079 31.6393 21.2196 31.6111C21.4822 31.536 21.7541 31.1323 21.7541 30.8131C21.7541 30.569 21.4259 30.1653 21.1728 30.109C20.9946 30.0621 16.8219 29.3861 16.7282 29.3861C16.7188 29.3861 16.2968 28.8228 15.7999 28.1469L14.8903 26.8983L16.2874 26.457C17.047 26.2129 17.7315 26.0064 17.7877 26.0064C17.8534 26.0064 18.8098 26.4664 19.9069 27.0391C21.0133 27.6024 22.0167 28.0718 22.1573 28.0718C22.5511 28.0718 22.8981 27.7057 22.8981 27.2926C22.8981 27.0954 22.8512 26.8795 22.7856 26.8044C22.7199 26.7293 22.0823 26.3632 21.3697 25.9876C20.657 25.6121 20.1038 25.2835 20.1413 25.246C20.1788 25.2084 20.7414 25.0113 21.3978 24.786C22.8887 24.2978 23.17 24.0161 22.87 23.3496C22.7574 23.1055 22.4292 22.9083 22.1479 22.9083C22.0542 22.9083 21.4259 23.0961 20.7414 23.3214C20.0569 23.5561 19.5037 23.7251 19.5037 23.6969C19.5037 23.6782 19.8037 23.0679 20.1601 22.345C20.5258 21.6222 20.8164 20.9274 20.8164 20.796C20.8164 20.2515 20.01 19.8854 19.5599 20.2139C19.4662 20.2797 18.9223 21.2654 18.341 22.392L17.3001 24.4574L15.9405 24.8986C15.1904 25.1333 14.5527 25.3399 14.5152 25.3399C14.4684 25.3492 14.4402 24.6639 14.4402 23.8284V22.3075L16.0812 20.6552C17.5346 19.1906 17.7221 18.9653 17.7221 18.6931C17.7221 18.4771 17.6377 18.3082 17.4502 18.111C16.9626 17.6322 16.7938 17.7073 15.5561 18.9278L14.4496 20.0168L14.4215 18.5898L14.3933 17.1628L14.1308 16.9375C13.7838 16.6465 13.3713 16.6465 13.0806 16.9469Z" fill="#E83A15"/>
<path d="M39.4951 15.3978C39.0637 15.8015 39.1481 16.4023 39.6732 16.7027C40.1514 16.975 40.7891 16.5713 40.7891 15.9892C40.7891 15.332 39.9733 14.9565 39.4951 15.3978Z" fill="#00045F"/>
<path d="M42.6176 15.5103C42.3175 15.8671 42.3456 16.2708 42.7207 16.59C42.9926 16.8434 43.2271 16.8622 43.5928 16.6651C44.296 16.3083 43.996 15.2099 43.1896 15.2099C42.9458 15.2099 42.8145 15.2756 42.6176 15.5103Z" fill="#00045F"/>
<path d="M30.8966 26.4758C30.5966 26.5884 30.484 26.7856 30.3809 27.3207C30.334 27.5929 30.2871 27.837 30.2871 27.8558C30.2871 27.8746 30.0808 28.1187 29.8183 28.3909C29.1432 29.1044 28.8431 29.8179 28.8431 30.7004C28.8431 31.5735 29.115 32.2213 29.762 32.8878C30.259 33.4042 30.3809 33.6483 30.3809 34.1834C30.3809 34.6434 30.2215 34.972 29.7714 35.3945C29.1807 35.9577 28.6837 37.2158 28.8243 37.7884C28.9744 38.3893 29.7245 38.5958 30.1465 38.164C30.2778 38.0419 30.3809 37.826 30.3809 37.6945C30.3809 37.3002 30.6341 36.8121 31.1217 36.2769C31.7687 35.5728 32.0031 34.9063 31.9562 33.9769C31.9093 33.1132 31.6843 32.6156 31.0373 31.9209C30.1934 31.0102 30.2027 30.3718 31.0842 29.3767C31.6655 28.7289 31.9749 28.006 31.9749 27.3395C31.9656 26.8701 31.8624 26.6635 31.5342 26.4945C31.2998 26.3631 31.1592 26.3631 30.8966 26.4758Z" fill="#E83A15"/>
<path d="M36.5133 26.4756C36.232 26.5883 36.0069 26.9356 36.0069 27.2548C36.0069 27.621 35.7725 28.0341 35.2849 28.5692C34.6567 29.2545 34.4597 29.7427 34.4597 30.7003C34.4691 31.6579 34.6567 32.1367 35.3599 32.8971C36.2507 33.8735 36.232 34.4931 35.2849 35.5164C34.7692 36.0703 34.4972 36.6617 34.441 37.3752C34.3941 37.8634 34.4129 37.9385 34.6285 38.1544C35.0786 38.5957 35.8381 38.4173 35.9506 37.8352C35.9788 37.6756 36.035 37.4222 36.0632 37.2626C36.0913 37.103 36.3257 36.7462 36.5789 36.4646C36.8321 36.1923 37.1509 35.7417 37.2915 35.4694C37.5166 35.0376 37.5541 34.8592 37.5541 34.1739C37.5541 33.2163 37.3572 32.7187 36.7289 32.0428C35.7912 31.0289 35.7631 30.3811 36.6164 29.4704C37.1509 28.8978 37.4978 28.1936 37.5635 27.5271C37.6197 27.0389 37.601 26.9544 37.404 26.7291C37.1509 26.4475 36.8039 26.3536 36.5133 26.4756Z" fill="#E83A15"/>
<path d="M41.3048 26.4757C41.0048 26.5884 40.8922 26.7855 40.7891 27.3207C40.7422 27.5929 40.6953 27.8276 40.6953 27.8464C40.6953 27.8652 40.4422 28.1562 40.1327 28.5036C39.6733 29.0105 39.5326 29.2452 39.3732 29.7803C39.0356 30.8788 39.2982 31.9866 40.0858 32.8127C40.5922 33.3478 40.7891 33.7046 40.7891 34.0989C40.7891 34.6152 40.6484 34.8969 40.0858 35.5071C39.692 35.9296 39.5326 36.1924 39.3826 36.6712C39.1106 37.5631 39.1575 37.9668 39.5607 38.2766C39.9921 38.6052 40.7891 38.2296 40.7891 37.6945C40.7891 37.3002 41.0423 36.812 41.5299 36.2769C42.1769 35.5728 42.4113 34.9063 42.3644 33.9862C42.3081 33.1507 42.055 32.578 41.408 31.8833C40.5922 31.0196 40.6109 30.3624 41.4924 29.3767C42.0737 28.7289 42.3831 28.006 42.3831 27.3301C42.3831 26.9264 42.3456 26.8325 42.0925 26.6259C41.7924 26.3725 41.6236 26.3443 41.3048 26.4757Z" fill="#E83A15"/>
</svg>
