<svg width="52" height="51" viewBox="0 0 52 51" fill="none" xmlns="http://www.w3.org/2000/svg">
<path d="M39.2592 1.12502C38.0497 1.39724 36.9622 2.01496 36.0577 2.92585C34.8888 4.12989 34.3908 5.13501 33.9944 7.11383L33.7708 8.19223L33.2322 8.38069C31.5857 8.95654 30.366 10.6736 30.366 12.4116C30.366 13.0922 30.5896 13.3749 31.1994 13.4691C31.4434 13.5005 33.1814 13.5214 35.0718 13.5005L38.5173 13.4691L38.7612 13.1759C39.0356 12.8409 39.0661 12.4744 38.8933 11.6159C38.5884 10.1501 37.4806 8.85183 36.1288 8.38069C35.6206 8.2027 35.6003 8.18176 35.6308 7.84672C35.7426 6.61127 36.4439 5.07219 37.2773 4.20318C37.9583 3.50169 38.6799 3.09337 39.5844 2.89444C42.5421 2.2453 45.5403 4.06707 46.5567 7.13477L46.7803 7.81531L46.8108 17.7827L46.8413 27.7606H33.781H20.7309L20.5683 27.2789C20.0906 25.8341 18.9523 24.7452 17.509 24.3474C17.2346 24.2636 16.8789 24.2008 16.7366 24.2008C16.5841 24.2008 16.3605 24.0751 16.1776 23.8762C14.9173 22.4837 12.8744 22.0544 11.2177 22.8292C10.5164 23.1538 9.41877 24.1589 9.28664 24.5986C9.22566 24.7976 9.19517 24.7976 8.38208 24.5044C6.74573 23.9181 5.23135 24.2217 3.9609 25.4048C3.44255 25.8864 2.72093 27.1428 2.72093 27.5616C2.72093 27.7082 2.64979 27.7606 2.44651 27.7606C1.66391 27.7815 0.728859 28.3888 0.34264 29.1321C-0.389141 30.5142 0.0885495 32.1475 1.41999 32.828C1.85702 33.0584 2.09079 33.1002 2.77175 33.1002H3.60517L4.7435 37.7384C5.37364 40.2826 5.9733 42.6698 6.09526 43.0467C6.49164 44.3031 7.24375 45.4024 8.23979 46.1458C9.28664 46.9415 10.2115 47.287 11.6344 47.4022C12.102 47.4441 12.478 47.4859 12.478 47.5174C12.478 47.5383 12.2239 48.0723 11.919 48.7005C11.2686 50.0301 11.2177 50.4489 11.6243 50.784C11.9292 51.0353 12.1528 51.0562 12.5288 50.8782C12.722 50.7944 12.9964 50.3338 13.6062 49.0983L14.4193 47.4441H26.453H38.4969L39.31 49.1193C39.7572 50.0301 40.2044 50.8363 40.3162 50.8991C40.6415 51.0771 40.8854 51.0248 41.1801 50.7002C41.5968 50.25 41.5562 49.8626 40.9464 48.6062C40.6516 48.0199 40.4484 47.4964 40.4788 47.4441C40.5195 47.3812 40.6923 47.3394 40.8752 47.3394C41.8814 47.3394 43.4568 46.5332 44.4528 45.5071C45.6115 44.3031 45.7233 43.989 47.1665 38.1572L48.4065 33.1002H49.2196C49.9005 33.1002 50.1343 33.0584 50.5713 32.828C52.6346 31.7705 52.411 28.7133 50.2156 27.9071C50.0022 27.8338 49.5448 27.771 49.1992 27.7606H48.5691L48.5284 17.7304C48.498 6.42281 48.5488 7.18711 47.6747 5.35487C47.2682 4.50681 47.0547 4.21365 46.2315 3.36559C45.1338 2.2453 44.1886 1.65899 42.8673 1.2716C41.8408 0.978439 40.2044 0.905148 39.2592 1.12502ZM35.8036 10.1501C36.3422 10.4223 36.7081 10.7574 36.9521 11.2076L37.1858 11.6368H34.7466C33.3135 11.6368 32.2971 11.595 32.2971 11.5426C32.2971 11.3227 32.9984 10.5166 33.3846 10.2967C34.1367 9.86742 35.1328 9.8046 35.8036 10.1501ZM14.2668 24.4939C14.5006 24.6091 14.8258 24.8918 15.0088 25.1117C15.7406 26.0016 15.7101 25.9807 16.33 25.9807C16.6451 25.9807 17.072 26.033 17.2753 26.0854C17.8038 26.2424 18.4847 26.7973 18.7592 27.3208L18.9929 27.7606H11.7767C6.06477 27.7606 4.55039 27.7291 4.55039 27.6245C4.56055 27.3313 5.26184 26.5251 5.72937 26.2948C6.74573 25.7817 7.79259 25.9493 8.77846 26.7764C9.63221 27.4988 10.1912 27.3732 10.4961 26.3681C10.8214 25.3525 11.4007 24.6719 12.2443 24.3474C12.7626 24.1484 13.7485 24.2217 14.2668 24.4939ZM49.8192 29.6556C50.3172 29.8964 50.4087 30.6712 49.9818 31.1109C49.7786 31.3203 49.5448 31.3203 25.9957 31.3203C2.44651 31.3203 2.21275 31.3203 2.00948 31.1109C1.59277 30.6817 1.66391 29.9069 2.1416 29.6661C2.46684 29.4986 49.4737 29.4986 49.8192 29.6556ZM46.4754 33.4353C45.7944 36.6705 44.341 42.6802 44.1174 43.1409C43.5279 44.345 42.1965 45.3396 40.8854 45.5595C40.0418 45.706 12.1325 45.6956 11.2787 45.5595C9.8863 45.3187 8.58535 44.324 8.00602 43.0257C7.78242 42.5232 5.46511 33.5295 5.46511 33.1631C5.46511 33.1316 14.7039 33.1002 26.0058 33.1002H46.5465L46.4754 33.4353Z" fill="white"/>
<path d="M30.5898 15.5422C30.2951 15.8563 30.2748 16.8404 30.5492 17.1755C30.9964 17.7513 31.9111 17.4582 32.0534 16.7043C32.1347 16.2332 31.9416 15.5526 31.6875 15.406C31.342 15.2176 30.8236 15.2804 30.5898 15.5422Z" fill="white"/>
<path d="M34.0348 15.5736C33.7401 15.9609 33.7401 16.8928 34.0247 17.1859C34.4719 17.6466 35.224 17.5314 35.4476 16.9661C35.6305 16.5158 35.5187 15.7201 35.2443 15.4898C34.8886 15.1966 34.2889 15.2385 34.0348 15.5736Z" fill="white"/>
<path d="M37.531 15.563C37.1956 15.8981 37.1651 16.8194 37.4802 17.165C37.8969 17.6256 38.6592 17.5419 38.893 17.0184C39.0962 16.5472 39.0352 15.8457 38.7507 15.563C38.4153 15.2071 37.8664 15.2071 37.531 15.563Z" fill="white"/>
<path d="M30.6305 19.081C30.3865 19.2799 30.3662 19.3532 30.3662 20.1803C30.3662 20.9865 30.3865 21.0912 30.6203 21.3215C30.9354 21.6566 31.3826 21.6566 31.7485 21.3425C32.2058 20.9342 32.2262 19.5102 31.7688 19.0705C31.4842 18.7983 30.976 18.7983 30.6305 19.081Z" fill="white"/>
<path d="M34.0754 19.1229C33.8518 19.3532 33.8213 19.4579 33.8213 20.2222C33.8213 20.9865 33.8518 21.0912 34.0754 21.3216C34.4209 21.688 34.8681 21.6671 35.2544 21.2797C35.5186 20.997 35.5491 20.9028 35.5491 20.2746C35.5491 19.5521 35.3763 19.0391 35.0917 18.9239C34.736 18.7878 34.3193 18.8611 34.0754 19.1229Z" fill="white"/>
<path d="M37.5314 19.1229C37.3078 19.3532 37.2773 19.4579 37.2773 20.2222C37.2773 20.9865 37.3078 21.0912 37.5314 21.3216C37.6941 21.4996 37.8872 21.5833 38.1108 21.5833C38.7612 21.5728 39.0052 21.175 39.0052 20.1175C39.0052 19.4684 38.9747 19.3427 38.7511 19.1229C38.4157 18.7669 37.8668 18.7669 37.5314 19.1229Z" fill="white"/>
<path d="M30.8236 22.9548C30.4678 23.1642 30.3662 23.3946 30.3662 23.9914C30.3662 24.473 30.4069 24.63 30.6 24.808C30.8541 25.0593 31.3622 25.1116 31.6875 24.9337C32.1245 24.6928 32.1957 23.4888 31.8094 23.1119C31.5655 22.892 31.0777 22.8083 30.8236 22.9548Z" fill="white"/>
<path d="M34.2787 22.9549C33.9229 23.1643 33.8213 23.3946 33.8213 23.9914C33.8213 24.473 33.8619 24.6301 34.0551 24.8081C34.3498 25.1012 34.9291 25.1117 35.2544 24.8395C35.4678 24.672 35.4983 24.5463 35.4983 24.0019C35.4983 23.5098 35.4576 23.3213 35.295 23.1643C35.0409 22.9025 34.5429 22.7978 34.2787 22.9549Z" fill="white"/>
<path d="M37.7347 22.9653C37.3891 23.1747 37.2875 23.3946 37.2773 23.9495C37.2773 24.7034 37.5416 25.0384 38.1413 25.0384C38.497 25.0384 38.6291 24.986 38.7917 24.7662C39.0357 24.4521 39.0763 23.7506 38.8934 23.3318C38.7003 22.9025 38.1413 22.7245 37.7347 22.9653Z" fill="white"/>
</svg>
