<svg width="42" height="50" viewBox="0 0 42 50" fill="none" xmlns="http://www.w3.org/2000/svg">
<g clip-path="url(#clip0_449_5242)">
<path d="M6.10817 0.270822C5.67276 0.704565 5.77171 0.95674 6.7217 1.94527C7.49356 2.76232 7.61231 2.84302 7.94876 2.84302C8.23573 2.84302 8.36438 2.7825 8.5326 2.57067C8.87895 2.11675 8.74041 1.79397 7.80032 0.845783C6.87013 -0.0923119 6.55347 -0.193182 6.10817 0.270822Z" fill="white"/>
<path d="M19.6061 0.119568C13.1244 0.69453 8.03803 5.32448 6.64274 11.9113C6.34587 13.3235 6.2766 15.7646 6.5042 17.207C6.7318 18.7302 7.16721 20.1423 7.79064 21.4537C8.49323 22.9163 9.09687 23.8241 10.3635 25.2867C10.9474 25.9525 11.7291 26.9713 12.1051 27.5362C13.7379 30.0075 14.7671 33.0134 14.9353 35.7571L14.9947 36.8465L14.6978 37.1693C14.114 37.7947 14.0249 38.0771 14.0249 39.4086C14.0249 40.5484 14.0447 40.6493 14.2921 41.0831C14.4405 41.3453 14.7077 41.6479 14.8858 41.7589L15.2124 41.9707L15.1728 43.2215C15.1332 44.664 15.2718 45.128 15.8754 45.6727C16.1822 45.945 16.2316 46.056 16.2811 46.6208C16.4197 47.9221 17.2212 49.072 18.4186 49.6772L19.0717 50H21.0508H23.03L23.693 49.6671C24.9398 49.0417 25.8403 47.6295 25.8502 46.2577C25.8502 46.0459 25.9492 45.8542 26.1966 45.6121C26.7507 45.0674 26.8695 44.6034 26.82 43.2215L26.7804 42.0312L27.1763 41.7286C27.8788 41.1839 28.0273 40.8006 28.0273 39.4288C28.0273 38.1477 27.9481 37.8149 27.483 37.2601C27.2158 36.9373 27.2158 36.9171 27.2851 35.9992C27.5622 32.2468 29.0465 28.6861 31.6194 25.5894C33.5985 23.2088 34.7761 20.8283 35.3699 18.0442C35.6964 16.5211 35.6964 13.616 35.3699 12.1433C34.7069 9.10712 33.3808 6.60554 31.3423 4.50743C28.2054 1.28967 24.0294 -0.263741 19.6061 0.119568ZM23.4753 1.78393C25.2367 2.15715 27.2059 3.04481 28.5715 4.07369C30.7981 5.75822 32.6189 8.32034 33.4006 10.8623C33.8756 12.4258 34.0043 13.2731 34.0043 14.998C34.0043 16.7834 33.8558 17.7618 33.3709 19.285C32.7574 21.2015 31.9855 22.5229 30.422 24.3789C28.1757 27.0419 26.7606 29.9268 26.0976 33.1748C25.9591 33.8204 25.8304 34.698 25.8008 35.1216C25.7711 35.5352 25.7216 36.0294 25.6919 36.2009L25.6424 36.5338H24.6133H23.5742V33.2152V29.8965L25.1081 27.1629C26.7903 24.1772 26.8794 23.925 26.3846 23.5316C26.2362 23.4106 26.0383 23.3198 25.9393 23.3198C25.8403 23.3198 25.395 23.6426 24.9398 24.0259C22.2185 26.3761 19.4378 26.3963 16.9639 24.0864C16.6572 23.7939 16.3207 23.5316 16.2217 23.4912C16.004 23.4106 15.5686 23.5719 15.4004 23.8039C15.1134 24.1772 15.252 24.5302 16.7957 27.3042L18.3295 30.0579V33.2959V36.5338H17.4488H16.5681L16.4988 35.6966C16.3306 33.6388 15.6577 31.0969 14.777 29.2207C13.9457 27.4353 13.0749 26.1341 11.6994 24.5806C10.5614 23.2996 9.83904 22.2606 9.27499 21.0603C8.27553 18.9622 7.91928 17.4289 7.90939 15.1493C7.90939 12.7082 8.35469 10.7513 9.38384 8.69355C11.3927 4.69909 15.0145 2.20758 19.7149 1.59228C20.3878 1.51158 22.743 1.62254 23.4753 1.78393ZM21.0014 27.2941C22.1196 27.2941 22.4263 27.2537 22.9112 27.0721C23.218 26.9612 23.4753 26.8805 23.4753 26.9007C23.4753 26.9208 23.1388 27.5261 22.7331 28.2523L21.9909 29.5636V33.0538V36.5338H20.9024H19.8139V33.0033V29.4729L19.329 28.5953C19.0717 28.101 18.755 27.516 18.6462 27.2941L18.4384 26.8704L19.0519 27.0822C19.5566 27.2537 19.9128 27.2941 21.0014 27.2941ZM26.2856 38.3596C26.5231 38.5512 26.5429 38.6218 26.5429 39.3783C26.5429 40.6897 27.0872 40.5686 21.0706 40.5686C16.4197 40.5686 15.9051 40.5484 15.7369 40.3971C15.5884 40.266 15.5587 40.0844 15.5587 39.3985C15.5587 38.0368 15.064 38.1477 21.0113 38.1477C25.9294 38.1477 26.0284 38.1477 26.2856 38.3596ZM25.0982 42.4448C25.2169 42.5658 25.2565 42.818 25.2565 43.4939C25.2565 44.3008 25.2367 44.4017 25.0388 44.5429C24.7023 44.785 17.3004 44.785 16.9639 44.5429C16.766 44.4017 16.7462 44.3008 16.7462 43.4939C16.7462 42.818 16.7858 42.5658 16.9045 42.4448C17.0332 42.3036 17.5478 42.2834 21.0014 42.2834C24.4549 42.2834 24.9695 42.3036 25.0982 42.4448ZM24.2471 46.6713C24.1383 47.6497 23.3565 48.376 22.2284 48.5576C21.3477 48.6988 19.6753 48.5979 19.141 48.3861C18.4483 48.1036 17.8347 47.2261 17.8347 46.52V46.2174H21.0607H24.2966L24.2471 46.6713Z" fill="white"/>
<path d="M19.873 7.1906C18.3887 7.352 16.7163 7.90678 15.4992 8.65323C14.7273 9.12732 13.5398 10.0553 13.233 10.4285C12.8966 10.8421 12.8966 11.3364 13.2429 11.6087C13.6586 11.9416 13.9159 11.8811 14.5492 11.2859C15.9741 9.94437 17.4981 9.17775 19.4079 8.84488C22.2678 8.33044 25.0782 9.12732 27.4135 11.1145C27.8786 11.5079 28.3338 11.8206 28.4526 11.8206C28.7594 11.8206 29.3135 11.4574 29.3234 11.2456C29.3531 10.7917 29.2739 10.6202 28.7396 10.1158C27.0771 8.52209 24.712 7.44278 22.2876 7.18052C21.2287 7.06956 20.9814 7.06956 19.873 7.1906Z" fill="white"/>
<path d="M19.7643 11.4574C18.557 11.6995 17.6763 12.103 16.667 12.8797C15.9941 13.4042 15.7071 13.8278 15.8159 14.1708C16.0336 14.8971 16.6373 14.9475 17.3696 14.3019C18.3294 13.4344 19.6752 12.9301 21.0013 12.9301C22.3372 12.9301 23.495 13.3537 24.5835 14.2515C25.2267 14.776 25.5533 14.8567 25.9194 14.5945C26.2064 14.3927 26.2856 13.9993 26.1074 13.6463C25.771 13.0007 23.9898 11.9012 22.733 11.5683C21.8721 11.3464 20.5856 11.296 19.7643 11.4574Z" fill="white"/>
<path d="M20.2294 15.5931C19.7346 15.7646 19.0518 16.2185 18.9133 16.4707C18.6461 16.975 19.0023 17.671 19.5268 17.671C19.6554 17.671 19.9622 17.5298 20.1997 17.3684C20.5163 17.1465 20.7538 17.0658 21.0507 17.0658C21.3476 17.0658 21.5851 17.1465 21.9017 17.3684C22.4163 17.7215 22.6637 17.7416 23.02 17.4592C23.584 17.0154 23.2179 16.2387 22.2184 15.7444C21.6741 15.472 20.7835 15.4115 20.2294 15.5931Z" fill="white"/>
<path d="M20.3681 19.5977C20.0515 19.8499 20.002 20.4652 20.2889 20.7274C20.7343 21.1309 21.4863 21.0099 21.6941 20.4954C22.0207 19.6885 21.0608 19.0429 20.3681 19.5977Z" fill="white"/>
<path d="M34.1429 0.906305C33.1929 1.87466 33.1039 2.09658 33.4799 2.58075C33.6382 2.7825 33.7669 2.84302 34.0538 2.84302C34.3903 2.84302 34.509 2.76232 35.2809 1.94527C35.934 1.27953 36.1418 0.987002 36.1418 0.785261C36.1418 0.401953 35.7361 0.0186453 35.3403 0.0186453C35.0632 0.0186453 34.8851 0.159864 34.1429 0.906305Z" fill="white"/>
<path d="M0.220308 14.8265C-0.0567703 15.0484 -0.0765616 15.6738 0.180726 15.9663C0.329161 16.1378 0.487491 16.158 1.6156 16.158C2.86245 16.158 2.88224 16.158 3.08016 15.8957C3.35724 15.5426 3.33744 15.1997 3.04057 14.8971C2.81297 14.655 2.7437 14.6449 1.62549 14.6449C0.635926 14.6449 0.408326 14.6752 0.220308 14.8265Z" fill="white"/>
<path d="M38.9617 14.8971C38.6648 15.1997 38.645 15.5426 38.9221 15.8957C39.12 16.158 39.1398 16.158 40.3866 16.158C41.8314 16.158 41.9996 16.0773 41.9996 15.3913C41.9996 14.7458 41.772 14.6449 40.3768 14.6449C39.2585 14.6449 39.1893 14.655 38.9617 14.8971Z" fill="white"/>
<path d="M6.7912 28.7869C5.85111 29.7351 5.71257 30.0579 6.05892 30.5118C6.21725 30.7136 6.35579 30.7842 6.63287 30.7842C6.94953 30.7842 7.08807 30.6833 7.85993 29.8965C8.82971 28.908 8.91877 28.6457 8.48336 28.212C8.03805 27.748 7.72139 27.8489 6.7912 28.7869Z" fill="white"/>
<path d="M33.5194 28.212C33.084 28.6457 33.173 28.908 34.1428 29.8965C34.9147 30.6833 35.0532 30.7842 35.3699 30.7842C35.647 30.7842 35.7855 30.7136 35.9438 30.5118C36.2902 30.0579 36.1516 29.7351 35.2116 28.7869C34.2814 27.8489 33.9647 27.748 33.5194 28.212Z" fill="white"/>
</g>
<defs>
<clipPath id="clip0_449_5242">
<rect width="42" height="50" fill="white"/>
</clipPath>
</defs>
</svg>
