<svg width="36" height="41" viewBox="0 0 36 41" fill="none" xmlns="http://www.w3.org/2000/svg">
<g clip-path="url(#clip0_94_389)">
<path d="M17.1915 0.21986C16.3984 0.626114 16.158 1.20424 16.158 2.7277V3.45427L15.6853 3.03239C14.9322 2.34488 14.139 2.25894 13.3699 2.76676C12.6488 3.23552 12.3764 4.23553 12.769 4.9621C12.8651 5.13398 13.6663 6.03242 14.5476 6.95431L16.158 8.63401V11.1887V13.7356L15.8616 13.8372C15.1726 14.0481 13.9067 14.7747 13.5622 15.1497C13.474 15.2356 13.3779 15.3138 13.3459 15.3138C13.2417 15.3138 9.08357 12.9622 8.93135 12.8216C8.85924 12.7512 8.50672 11.7434 8.14619 10.5872C7.78566 9.42308 7.42513 8.35276 7.34501 8.20432C6.78418 7.134 5.19785 6.98556 4.39666 7.93088C3.98005 8.43089 3.8759 9.05589 4.10824 9.71996C4.18035 9.92309 4.2204 10.1106 4.18836 10.134C4.16432 10.1575 3.89192 10.0325 3.58747 9.85278C2.56997 9.26683 2.26552 9.14183 1.82487 9.14183C0.655148 9.14183 -0.234163 10.1965 0.0542626 11.259C0.222511 11.8997 0.462865 12.1419 1.44832 12.7122C1.95306 13.0012 2.35365 13.2591 2.33763 13.2825C2.32161 13.3138 2.10529 13.3763 1.86493 13.4309C0.999656 13.6184 0.446841 14.2044 0.390759 14.9935C0.3507 15.5638 0.454853 15.8997 0.815385 16.306C1.13586 16.6732 1.60855 16.8841 2.12932 16.8841C2.32962 16.8919 3.52338 16.6575 4.77322 16.3763L7.04857 15.8607L9.27586 17.1185L11.5112 18.3763L11.4471 18.6966C11.415 18.8763 11.391 19.4623 11.391 20.0013C11.391 20.5404 11.415 21.1263 11.4471 21.306L11.5112 21.6263L9.27586 22.8842L7.04857 24.142L4.77322 23.6264C3.52338 23.3451 2.32962 23.1107 2.12932 23.1185C1.44031 23.1185 0.83942 23.4936 0.534971 24.1107C0.390759 24.392 0.366723 24.5639 0.390759 24.9623C0.446841 25.7983 0.975621 26.3764 1.86493 26.5717C2.10529 26.6264 2.32161 26.6889 2.33763 26.7201C2.35365 26.7436 1.94505 27.0092 1.43229 27.3061C0.647137 27.767 0.462865 27.9155 0.26257 28.228C-0.44247 29.353 0.414794 30.8608 1.76078 30.8608C2.23348 30.8608 2.5219 30.7514 3.4032 30.2514C3.8118 30.0171 4.16432 29.8452 4.19637 29.8686C4.2204 29.8921 4.18035 30.0796 4.10824 30.2827C3.6756 31.5249 4.48479 32.689 5.78271 32.689C6.62395 32.689 7.17676 32.2905 7.50525 31.4311C7.79367 30.6968 7.80168 30.4389 7.56133 30.2046C7.12869 29.7827 6.70407 30.0014 6.46371 30.7749C6.27944 31.3921 6.15926 31.5171 5.76668 31.5171C5.45422 31.5171 5.18182 31.2749 5.18182 31.0014C5.18182 30.9155 5.35007 30.3061 5.55838 29.6499C5.91891 28.4858 5.92692 28.4467 5.79072 28.2436C5.59844 27.9624 5.302 27.8608 5.0296 27.9936C4.91743 28.0483 4.18836 28.4545 3.41121 28.892C2.63407 29.3296 1.913 29.6889 1.81686 29.6889C1.38422 29.6889 1.0958 29.2905 1.25603 28.9077C1.32013 28.7514 1.71271 28.4936 2.80231 27.8842C4.74117 26.8061 4.94147 26.603 4.52485 26.1342C4.37263 25.9701 4.13227 25.892 3.17086 25.6733C2.5219 25.5248 1.92101 25.3686 1.82487 25.3217C1.45633 25.1264 1.52844 24.4936 1.93704 24.3373C2.14535 24.2514 2.46582 24.3061 4.54088 24.7748C5.83879 25.0717 7.00851 25.3139 7.1367 25.3139C7.28092 25.3139 8.21029 24.8373 9.90078 23.892C11.2948 23.1107 12.4966 22.4232 12.5847 22.3529C12.8331 22.1498 12.8491 21.9623 12.6969 21.3373C12.6088 20.9779 12.5527 20.4466 12.5527 20.0013C12.5527 19.556 12.6088 19.0248 12.6969 18.6654C12.8491 18.0404 12.8331 17.8529 12.5847 17.6497C12.2002 17.3294 7.34501 14.6888 7.14472 14.6888C7.02454 14.6888 5.9109 14.9153 4.67708 15.1966C3.44326 15.4778 2.30558 15.7044 2.16137 15.7044C1.5044 15.7044 1.34416 14.8528 1.95306 14.6263C2.07324 14.5794 2.67412 14.431 3.27501 14.2981C4.19637 14.0872 4.40468 14.0169 4.54088 13.8528C4.91743 13.3841 4.72515 13.1888 2.80231 12.1184C1.71271 11.509 1.32013 11.2512 1.25603 11.095C1.0958 10.7122 1.38422 10.3137 1.82487 10.3137C1.92101 10.3137 2.69015 10.7043 3.53139 11.1809C4.40468 11.6731 5.15779 12.0481 5.28597 12.0481C5.51832 12.0559 5.79072 11.8606 5.86283 11.634C5.89487 11.5481 5.75066 10.9622 5.55036 10.3215C5.35007 9.6809 5.18182 9.08714 5.18182 9.00121C5.18182 8.91527 5.24592 8.76683 5.33405 8.66526C5.51031 8.45432 5.99903 8.41526 6.1833 8.60276C6.2554 8.66526 6.64798 9.8059 7.0646 11.134C7.48121 12.4544 7.84975 13.5716 7.8818 13.6028C7.91385 13.6341 9.13966 14.3372 10.5898 15.1497C12.2322 16.0794 13.3138 16.6419 13.45 16.6419C13.6102 16.6419 13.8426 16.4935 14.2913 16.095C14.9723 15.4935 15.8696 15.0169 16.6788 14.8138C16.9432 14.7513 17.1995 14.6341 17.2556 14.556C17.3357 14.4544 17.3598 13.6888 17.3598 11.2981L17.3518 8.16526L16.1901 6.95431C13.5141 4.17303 13.5622 4.23553 13.9788 3.82927C14.3874 3.43864 14.4915 3.48552 15.5651 4.58709C16.4064 5.43867 16.5666 5.57148 16.7829 5.57148C16.9271 5.57148 17.1114 5.50898 17.1995 5.43085C17.3518 5.29804 17.3598 5.19648 17.3598 3.60271C17.3598 1.8605 17.4078 1.46987 17.6562 1.28237C17.9927 1.03237 18.4334 1.21206 18.5615 1.64956C18.6096 1.798 18.6417 2.67301 18.6417 3.60271C18.6417 5.19648 18.6497 5.29804 18.8019 5.43085C18.89 5.50898 19.0743 5.57148 19.2185 5.57148C19.4348 5.57148 19.5951 5.43867 20.4363 4.58709C21.5099 3.48552 21.614 3.43864 22.0226 3.82927C22.4393 4.23553 22.4873 4.17303 19.8114 6.95431L18.6497 8.16526L18.6417 9.11839C18.6417 10.0012 18.6577 10.0872 18.8179 10.2356C18.9141 10.3215 19.0823 10.3918 19.1945 10.3918C19.6512 10.384 19.8434 10.0168 19.8434 9.14183V8.63401L21.4538 6.95431C22.3351 6.03242 23.1363 5.13398 23.2244 4.9621C23.617 4.22771 23.3526 3.23552 22.6315 2.76676C21.8624 2.25894 21.0692 2.34488 20.3161 3.03239L19.8434 3.45427V2.7277C19.8434 1.19643 19.6031 0.610489 18.8099 0.212048C18.225 -0.0692062 17.7604 -0.0692062 17.1915 0.21986Z" fill="#E83A15"/>
<path d="M29.7782 7.33705C29.2254 7.50893 28.8648 7.79799 28.6325 8.24331C28.5684 8.36831 28.2159 9.42301 27.8553 10.5871C27.4948 11.7433 27.1423 12.7512 27.0702 12.8215C26.918 12.9621 22.7598 15.3137 22.6557 15.3137C22.6236 15.3137 22.5275 15.2356 22.4394 15.1496C22.0948 14.7746 20.829 14.0481 20.148 13.8371L19.8435 13.7356V13.173C19.8435 12.5246 19.7314 12.1418 19.5231 12.0324C19.2827 11.9074 18.9783 11.9387 18.802 12.1105C18.6578 12.2512 18.6418 12.3684 18.6418 13.3449C18.6418 14.0871 18.6738 14.4699 18.7459 14.5559C18.802 14.634 19.0584 14.7512 19.3228 14.8137C20.14 15.0168 21.0533 15.509 21.7183 16.1028C22.1589 16.4934 22.3913 16.6418 22.5515 16.6418C22.6877 16.6418 23.7453 16.095 25.4117 15.1496C26.8699 14.3293 28.0877 13.634 28.1197 13.6027C28.1518 13.5715 28.5203 12.4543 28.9369 11.134C29.3535 9.80582 29.7461 8.66519 29.8182 8.60269C30.0025 8.41518 30.4912 8.45425 30.6675 8.66519C30.7556 8.76675 30.8197 8.91519 30.8197 9.00113C30.8197 9.08707 30.6515 9.68082 30.4512 10.3215C30.2509 10.9621 30.1067 11.548 30.1387 11.634C30.2108 11.8605 30.4832 12.0558 30.7156 12.048C30.8437 12.048 31.5888 11.673 32.4621 11.1808C33.3034 10.7043 34.0645 10.3136 34.1686 10.3136C34.441 10.3136 34.6654 10.4543 34.7535 10.6808C34.9137 11.1027 34.7615 11.2355 33.1031 12.1809C31.2443 13.2277 31.0841 13.3918 31.4607 13.8527C31.5969 14.0168 31.8052 14.0871 32.7265 14.2981C33.3274 14.4309 33.9283 14.5793 34.0485 14.6262C34.6654 14.8606 34.4971 15.7043 33.8321 15.7043C33.6799 15.7043 32.5583 15.4778 31.3405 15.1965C30.1147 14.9153 29.009 14.6887 28.8728 14.6887C28.7126 14.6887 27.8633 15.1262 26.1809 16.0715C23.3928 17.634 23.2966 17.6965 23.2165 17.9153C23.1845 18.0012 23.2165 18.3215 23.3046 18.6653C23.4889 19.4387 23.4889 20.5638 23.3046 21.3372C23.2165 21.681 23.1845 22.0013 23.2165 22.0872C23.2966 22.306 23.3928 22.3685 26.1809 23.931C27.8233 24.8607 28.7126 25.3138 28.8648 25.3138C28.993 25.3138 30.1627 25.0716 31.4607 24.7747C33.5357 24.306 33.8562 24.2513 34.0645 24.3372C34.5292 24.5169 34.5452 25.1497 34.0805 25.3529C33.9443 25.4154 33.3274 25.5716 32.7265 25.7044C31.8052 25.9154 31.5969 25.9857 31.4607 26.1498C31.0841 26.6107 31.2443 26.7748 33.1031 27.8216C34.7615 28.767 34.9137 28.8998 34.7535 29.3217C34.6654 29.5482 34.441 29.6889 34.1847 29.6889C34.0885 29.6889 33.3675 29.3295 32.5903 28.892C31.8132 28.4545 31.0841 28.0482 30.9719 27.9935C30.6995 27.8607 30.4031 27.9623 30.2108 28.2435C30.0746 28.4467 30.0826 28.4857 30.4432 29.6498C30.6515 30.306 30.8197 30.9154 30.8197 31.0014C30.8197 31.0873 30.7556 31.2357 30.6675 31.3373C30.4912 31.5482 30.0025 31.5873 29.8182 31.3998C29.7461 31.3373 29.3535 30.1967 28.9369 28.8685C28.5203 27.5482 28.1518 26.431 28.1197 26.3998C28.0877 26.3685 26.8699 25.6732 25.4117 24.8529C23.6812 23.8763 22.6877 23.3607 22.5435 23.3607C22.3753 23.3607 22.191 23.4778 21.8625 23.7747C21.0613 24.5169 20.2842 24.9388 19.3147 25.1888C19.0504 25.2513 18.802 25.3685 18.7459 25.4466C18.6658 25.5482 18.6418 26.3138 18.6418 28.7045L18.6498 31.8373L19.8115 33.0483C22.4874 35.8295 22.4394 35.767 22.0227 36.1733C21.6141 36.5639 21.51 36.5171 20.4364 35.4155C19.5952 34.5639 19.4349 34.4311 19.2186 34.4311C19.0744 34.4311 18.8901 34.4936 18.802 34.5717C18.6498 34.7045 18.6418 34.8061 18.6418 36.4546C18.6418 37.4702 18.6097 38.2827 18.5616 38.4077C18.3293 39.0015 17.6162 38.9624 17.44 38.353C17.3919 38.2046 17.3599 37.3296 17.3599 36.3999C17.3599 34.8061 17.3519 34.7045 17.1996 34.5717C17.1115 34.4936 16.9272 34.4311 16.783 34.4311C16.5667 34.4311 16.4065 34.5639 15.5652 35.4155C14.4916 36.5171 14.3875 36.5639 13.9789 36.1733C13.5623 35.767 13.5142 35.8295 16.1901 33.0483L17.3519 31.8373L17.3599 28.7045C17.3599 26.3138 17.3358 25.5482 17.2557 25.4466C17.1996 25.3685 16.9513 25.2513 16.6869 25.1888C15.7255 24.9466 14.9804 24.5325 14.1391 23.7747C13.8106 23.4857 13.6103 23.3607 13.4581 23.3607C13.3139 23.3607 12.2644 23.9075 10.5498 24.8685L7.86587 26.3841L7.60949 27.1185C7.31305 27.9857 7.29703 28.2045 7.49732 28.4467C7.66557 28.6498 8.13026 28.6967 8.33856 28.5248C8.41067 28.4701 8.53886 28.1732 8.635 27.8607C8.72313 27.556 8.85933 27.2513 8.93144 27.181C9.08366 27.0326 13.2418 24.6888 13.3459 24.6888C13.378 24.6888 13.4741 24.7669 13.5623 24.8529C13.9068 25.2279 15.1726 25.9544 15.8617 26.1654L16.1581 26.2669V28.8138V31.3686L14.5477 33.0483C13.6664 33.9701 12.8733 34.853 12.7931 35.0014C12.5608 35.4467 12.5207 35.7983 12.6649 36.2905C12.9373 37.1811 13.8427 37.7046 14.772 37.5014C15.1166 37.4311 15.3008 37.3217 15.6774 36.978L16.1581 36.5483V37.2749C16.1581 38.7983 16.3984 39.3765 17.1916 39.7827C17.7605 40.0718 18.2251 40.0718 18.81 39.7827C19.6032 39.3921 19.8435 38.8061 19.8435 37.2749V36.5483L20.3162 36.9702C21.0693 37.6577 21.8625 37.7436 22.6316 37.2358C23.3527 36.7671 23.6171 35.7749 23.2245 35.0405C23.1364 34.8686 22.3352 33.9701 21.4539 33.0483L19.8435 31.3686V28.8138V26.2669L20.148 26.1654C20.829 25.9544 22.0948 25.2279 22.4394 24.8529C22.5275 24.7669 22.6236 24.6888 22.6557 24.6888C22.7598 24.6888 26.918 27.0404 27.0702 27.181C27.1423 27.2513 27.4948 28.2513 27.8553 29.4154C28.2159 30.5717 28.5764 31.6498 28.6565 31.7983C29.2173 32.8686 30.8037 33.017 31.6049 32.0717C32.0215 31.5717 32.1256 30.9467 31.8933 30.2826C31.8212 30.0795 31.7811 29.892 31.8052 29.8685C31.8292 29.8451 32.1897 30.017 32.5983 30.2435C33.5277 30.767 33.728 30.8451 34.2087 30.8529C35.3945 30.8764 36.2517 29.767 35.9152 28.6342C35.739 28.0638 35.3945 27.7357 34.401 27.1966C33.9764 26.9623 33.6479 26.7513 33.6639 26.7201C33.6799 26.6888 33.8962 26.6263 34.1366 26.5716C35.0019 26.3841 35.5547 25.7982 35.6108 25.0091C35.6508 24.4388 35.5467 24.1029 35.1861 23.6966C34.8657 23.3294 34.393 23.1185 33.8722 23.1185C33.6719 23.1107 32.4782 23.345 31.2283 23.6263L28.961 24.1419L26.7257 22.8841L24.4904 21.6263L24.5545 21.2981C24.6266 20.8841 24.6266 19.1184 24.5545 18.7044L24.4904 18.3762L26.7257 17.1184L28.961 15.8606L31.2283 16.3762C32.4782 16.6575 33.6719 16.8918 33.8722 16.884C34.393 16.884 34.8657 16.6731 35.1861 16.3059C35.5467 15.8996 35.6508 15.5637 35.6108 14.9934C35.5547 14.2043 35.0019 13.6184 34.1366 13.4309C33.8962 13.3762 33.6799 13.3137 33.6639 13.2824C33.6479 13.259 34.0485 13.0012 34.5532 12.7121C35.5387 12.1418 35.779 11.8996 35.9473 11.259C36.2277 10.2121 35.3384 9.13394 34.2087 9.14957C33.728 9.15738 33.5277 9.23551 32.5983 9.75895C32.1897 9.98551 31.8292 10.1574 31.8052 10.134C31.7811 10.1105 31.8212 9.92301 31.8933 9.71989C32.2057 8.81363 31.8612 7.89956 31.044 7.4933C30.6915 7.31361 30.0826 7.2433 29.7782 7.33705Z" fill="#00045F"/>
<path d="M17.0392 16.681C15.0603 17.2279 13.9707 19.3607 14.7078 21.2513C15.0362 22.1029 15.8294 22.8764 16.7187 23.2201C17.3036 23.4467 18.5614 23.4701 19.1783 23.2592C20.0917 22.9467 21.0211 22.0404 21.3415 21.1498C21.5578 20.5482 21.5338 19.3294 21.3015 18.7513C20.949 17.8841 20.1558 17.1185 19.2825 16.7904C18.6976 16.5716 17.6401 16.5247 17.0392 16.681ZM19.0101 17.9544C19.5068 18.2044 19.7872 18.4622 20.0436 18.9232C20.2599 19.2904 20.284 19.4154 20.284 20.0013C20.284 20.5873 20.2599 20.7123 20.0436 21.0795C19.7872 21.5404 19.5148 21.7904 19.0101 22.056C18.7457 22.1888 18.5454 22.2279 18.0006 22.2279C17.2715 22.2279 16.935 22.1107 16.4223 21.6888C16.0537 21.3842 15.7413 20.7591 15.7012 20.2045C15.6131 19.1185 16.1979 18.2279 17.2555 17.8451C17.6881 17.6888 18.5935 17.7435 19.0101 17.9544Z" fill="#00045F"/>
</g>
<defs>
<clipPath id="clip0_94_389">
<rect width="36" height="40" fill="white" transform="translate(0 0.0012207)"/>
</clipPath>
</defs>
</svg>
