<svg width="60" height="60" viewBox="0 0 60 60" fill="none" xmlns="http://www.w3.org/2000/svg">
<g clip-path="url(#clip0_108_378)">
<path d="M28.7565 0.0726662C27.2888 0.40136 25.7946 1.51656 25.1203 2.77262C24.8161 3.34784 24.7765 3.55914 24.7897 4.65086C24.7897 5.33172 24.8294 5.97736 24.8558 6.08301C24.8955 6.23561 23.2426 7.13951 17.1734 10.2503L9.43807 14.2298L8.77693 13.7485C7.30921 12.7038 5.48447 12.3751 3.72584 12.8564C0.076356 13.8542 -1.21947 17.9628 1.33252 20.4397C2.05977 21.1441 2.7738 21.5667 3.73906 21.8602L4.34731 22.048V30.007V37.966L3.73906 38.1538C2.23167 38.6116 0.882945 39.7151 0.367257 40.9007C-1.04758 44.1876 1.75565 47.5919 5.66958 47.3454C6.85963 47.275 7.63978 47.005 8.68437 46.3124C9.2794 45.9133 9.45129 45.8428 9.68931 45.9485C9.83475 46.0072 13.3256 47.7915 17.4378 49.8928C23.2955 52.9097 24.8955 53.7784 24.8558 53.931C24.8294 54.0366 24.7897 54.6823 24.7897 55.3631C24.7765 56.4548 24.8161 56.6661 25.1203 57.2413C25.6492 58.2392 26.5483 59.0491 27.7252 59.5539C28.6772 59.9765 28.7962 60 29.9995 60C31.2027 60 31.3217 59.9765 32.2738 59.5539C33.4374 59.0491 34.2836 58.2979 34.8522 57.2648C35.1828 56.6661 35.2225 56.4666 35.2225 55.4218C35.2225 54.7762 35.1828 54.1423 35.1167 54.0014C35.0241 53.7784 35.3547 53.5905 38.4224 52.0175C40.3 51.0549 43.7247 49.3058 46.0255 48.1202C48.3262 46.9346 50.3096 45.9367 50.4154 45.9015C50.5212 45.8663 50.9047 46.0307 51.3146 46.3124C52.3459 47.005 53.1525 47.275 54.3161 47.3454C56.6169 47.4863 58.521 46.4767 59.5391 44.575C59.9094 43.8707 59.949 43.6946 59.949 42.6851C59.9358 41.2764 59.6185 40.4899 58.6664 39.5742C57.9392 38.8699 57.2251 38.4473 56.2599 38.1538L55.6516 37.966V30.007V22.048L56.2599 21.8602C57.7673 21.4023 59.116 20.2989 59.6317 19.1132C61.0333 15.8381 58.2697 12.4573 54.3426 12.6568C53.179 12.7155 51.9889 13.1499 51.103 13.8307L50.5873 14.2298L46.2106 11.9877C43.804 10.7551 40.3 8.95905 38.4224 7.99646C35.3547 6.42344 35.0241 6.23561 35.1167 6.01258C35.1828 5.87171 35.2225 5.2378 35.2225 4.59216C35.2225 3.57087 35.1696 3.33609 34.8787 2.77262C34.0192 1.16439 32.2473 0.0961456 30.3168 0.0139732C29.735 -0.021244 29.0474 0.0139732 28.7565 0.0726662ZM31.6391 2.11525C32.8159 2.72567 33.3713 3.67653 33.2787 4.93259C33.1597 6.63474 31.3746 7.90255 29.4706 7.63255C28.6243 7.51516 27.6194 6.90474 27.1566 6.24736C26.8392 5.7778 26.7599 5.51954 26.7202 4.83868C26.6806 4.11087 26.7202 3.92304 27.0508 3.37131C27.4607 2.66698 28.1086 2.13872 28.8888 1.88047C29.6557 1.63395 30.9118 1.72786 31.6391 2.11525ZM26.231 8.05515C26.588 8.40732 27.6458 8.97079 28.3202 9.18209L28.9152 9.35818L28.9681 11.2247C29.021 13.3494 29.1135 13.5725 29.9995 13.5725C30.8457 13.5725 30.9118 13.4081 30.9515 11.2834L30.9912 9.42861L31.8903 9.09992C32.3928 8.92384 33.0936 8.55993 33.4506 8.28993L34.0985 7.80864L41.8338 11.7764L49.5824 15.7442L49.4766 16.3311C49.3444 17.0824 49.3444 17.7163 49.4766 18.3972L49.5824 18.9489L48.0221 19.7354C46.0916 20.7215 45.8668 20.8976 45.8668 21.3906C45.8668 21.8132 46.356 22.2593 46.832 22.2593C46.9775 22.2593 47.8766 21.8602 48.8287 21.3671C49.8997 20.8154 50.6138 20.5102 50.7063 20.5806C50.7857 20.6276 51.1427 20.8741 51.4997 21.1089C52.0418 21.4728 52.6633 21.7428 53.5095 21.9775C53.6418 22.0128 53.6682 23.6797 53.6418 30.007L53.6021 38.0012L52.941 38.2008C52.2534 38.4121 51.6055 38.7642 50.9972 39.2573L50.6402 39.5508L48.8684 38.6469C47.8899 38.1538 46.951 37.7547 46.8056 37.7547C46.3957 37.7547 45.8668 38.2712 45.8668 38.6703C45.8668 39.1047 46.1312 39.3042 48.0221 40.2668L49.5824 41.0651L49.4766 41.6168C49.3444 42.2977 49.3444 42.9316 49.4766 43.6829L49.5824 44.2698L41.8471 48.2376L34.0985 52.1936L33.3845 51.6771C32.9878 51.3836 32.3002 51.0432 31.8639 50.9023L31.0837 50.6441L31.0308 48.7893C30.978 46.6646 30.8854 46.4415 29.9995 46.4415C29.1135 46.4415 29.021 46.6646 28.9681 48.7893L28.9152 50.6441L28.1351 50.9023C27.6987 51.0432 27.0111 51.3836 26.6277 51.6771L25.9004 52.1936L18.1519 48.2376L10.4166 44.2698L10.5223 43.6829C10.6546 42.9316 10.6546 42.2977 10.5223 41.6168L10.4166 41.0651L11.9768 40.2668C13.8677 39.3042 14.1322 39.1047 14.1322 38.6703C14.1322 38.2595 13.6032 37.7547 13.1801 37.7547C13.0082 37.7547 12.1091 38.1538 11.157 38.6469C10.1124 39.1868 9.38518 39.4921 9.29262 39.4334C9.21329 39.3864 8.85627 39.1399 8.49926 38.9051C7.95712 38.5295 7.25632 38.236 6.50262 38.0364C6.25139 37.9777 6.25139 22.0362 6.50262 21.9775C7.32243 21.7428 7.95712 21.4728 8.49926 21.1089C8.85627 20.8741 9.21329 20.6276 9.29262 20.5806C9.38518 20.5102 10.0992 20.8154 11.1703 21.3671C12.1223 21.8602 13.0214 22.2593 13.1669 22.2593C13.6429 22.2593 14.1322 21.8132 14.1322 21.3906C14.1322 20.8976 13.9074 20.7215 11.9768 19.7354L10.4166 18.9489L10.5223 18.3972C10.6546 17.7163 10.6546 17.0824 10.5223 16.3311L10.4166 15.7442L13.6958 14.0772C15.4941 13.1499 18.9717 11.3773 21.4047 10.1212C23.8377 8.8534 25.874 7.83211 25.9136 7.82037C25.9533 7.82037 26.0988 7.92603 26.231 8.05515ZM6.38361 14.5351C7.24309 14.7698 8.2348 15.7089 8.51248 16.5424C8.9885 18.0098 8.16869 19.4889 6.52906 20.0876C5.90759 20.3224 4.66465 20.3341 4.05641 20.1111C2.03332 19.3598 1.34574 17.0941 2.66802 15.5446C3.51427 14.5703 4.982 14.1711 6.38361 14.5351ZM56.1938 14.7229C58.2962 15.6972 58.6532 18.1741 56.9078 19.5476C56.2202 20.0758 55.6384 20.2754 54.7393 20.2754C53.4302 20.2871 52.3856 19.7471 51.7906 18.7846C51.1559 17.728 51.2088 16.6011 51.9625 15.6385C52.8616 14.4646 54.7525 14.0538 56.1938 14.7229ZM6.91252 40.0907C8.30091 40.7364 8.94883 42.1216 8.51248 43.4716C8.34058 44.0116 8.14224 44.2815 7.61333 44.7394C6.50262 45.702 5.11423 45.9015 3.80518 45.2911C2.21844 44.5633 1.53086 42.8964 2.24489 41.5112C3.09115 39.856 5.11423 39.2338 6.91252 40.0907ZM55.9954 39.9264C56.6433 40.1612 57.3838 40.8186 57.7144 41.4525C58.4681 42.8846 57.8069 44.5398 56.1938 45.2911C54.8847 45.9015 53.4963 45.702 52.3856 44.7394C51.1956 43.7063 51.0104 42.4033 51.8699 41.1355C52.7162 39.8794 54.4484 39.3747 55.9954 39.9264ZM31.5994 52.7336C32.7234 53.2853 33.3052 54.1657 33.3052 55.3279C33.2919 58.4505 28.4921 59.4248 27.0111 56.5957C26.1384 54.9405 27.1301 52.9801 29.1268 52.4284C29.8011 52.2523 30.8457 52.3814 31.5994 52.7336Z" fill="#E83A15"/>
<path d="M21.7088 15.8497C18.6146 16.5188 16.5387 19.1953 17.0014 21.9187C17.1733 22.8579 17.7419 24.02 18.3369 24.6187L18.7469 25.0413L18.0196 25.4874C16.8824 26.18 15.904 27.2247 15.256 28.4221C14.6081 29.6312 14.3833 30.3825 14.3569 31.486C14.3304 32.1668 14.3701 32.2842 14.6478 32.4838C15.2957 32.9533 16.2477 32.566 16.2477 31.8147C16.261 31.1573 16.6444 29.8191 17.0543 29.0795C17.57 28.1521 18.813 27.0252 19.8311 26.5556L20.5716 26.2035L21.365 26.403C21.8013 26.5204 22.6211 26.6026 23.2029 26.6026H24.2607L24.4194 26.9782C24.4988 27.1895 24.8161 27.6356 25.0938 27.976L25.6227 28.5865L24.75 29.1499C22.674 30.4999 21.2856 32.8594 21.2724 35.0194C21.2724 35.8763 21.5369 36.2285 22.1848 36.2285C22.8856 36.2285 23.1368 35.9116 23.2558 34.8785C23.3748 33.8807 23.6789 33.0238 24.2211 32.2138C24.6839 31.5212 25.9797 30.453 26.8127 30.0656C27.5268 29.7486 27.5268 29.7486 28.2805 29.9364C29.2325 30.1712 30.7663 30.1712 31.7184 29.9364C32.4721 29.7486 32.4721 29.7486 33.1729 30.0656C34.5216 30.676 35.9364 32.1316 36.4125 33.3994C36.5182 33.7164 36.6769 34.3855 36.7298 34.8903C36.8224 35.6181 36.9149 35.8529 37.1397 36.0172C37.5364 36.2989 38.1314 36.2872 38.4752 35.982C38.7397 35.7472 38.7529 35.6416 38.6868 34.7142C38.5413 32.4603 37.1265 30.2886 34.9315 28.9386L34.3762 28.5982L34.8918 27.976C35.1827 27.6473 35.5001 27.1895 35.5794 26.9782L35.7381 26.6026H36.7959C37.3777 26.6026 38.1975 26.5204 38.6339 26.403L39.4273 26.2035L40.1677 26.5556C41.1859 27.0252 42.4288 28.1521 42.9445 29.0795C43.3544 29.8308 43.7379 31.1573 43.7511 31.8381C43.7511 32.566 44.7031 32.9533 45.3511 32.4838C45.6287 32.2842 45.6684 32.1668 45.642 31.486C45.6155 30.3825 45.3907 29.6312 44.7428 28.4221C44.0949 27.2247 43.1164 26.18 41.9792 25.4874L41.252 25.0413L41.6619 24.6187C42.2569 24.02 42.8255 22.8579 42.9974 21.9187C43.6056 18.4088 39.9562 15.2041 36.0026 15.7793C34.0985 16.061 32.2341 17.2584 31.4407 18.7023L31.1234 19.2775H29.9862H28.849L28.5581 18.714C28.0953 17.8218 26.945 16.8123 25.8475 16.331C24.4062 15.6971 23.1104 15.5445 21.7088 15.8497ZM24.7632 17.7866C25.5301 18.0801 26.3235 18.7375 26.707 19.3831C27.0243 19.9231 27.0243 19.9231 26.7598 20.0522C26.6144 20.1344 26.1516 20.4748 25.7285 20.827C24.869 21.5666 24.1153 22.7757 23.9831 23.6444C23.9434 23.9496 23.8641 24.3487 23.8244 24.5365L23.7583 24.8652L22.8062 24.8183C20.7567 24.7009 19.1832 23.3626 18.9452 21.5431C18.7865 20.334 19.5005 18.8901 20.598 18.221C21.8806 17.4345 23.4542 17.2701 24.7632 17.7866ZM38.6339 17.8336C41.2784 18.9018 41.8999 22.13 39.7843 23.8322C38.9777 24.4778 38.2504 24.7596 37.1926 24.8183L36.2406 24.8652L36.1745 24.5365C36.1348 24.3487 36.0555 23.9496 36.0158 23.6444C35.8836 22.7757 35.1299 21.5666 34.2704 20.827C33.8472 20.4748 33.3845 20.1344 33.239 20.064C32.9878 19.9349 32.9878 19.9114 33.1993 19.524C34.1514 17.7514 36.5844 17.0001 38.6339 17.8336ZM31.52 21.2848C32.4456 21.5548 33.5828 22.5761 33.9001 23.4213C34.5613 25.2056 33.7811 27.0604 31.9564 27.9643C31.3217 28.2695 31.1366 28.3047 29.9994 28.3047C28.8623 28.3047 28.6771 28.2695 28.0425 27.9643C25.7285 26.8256 25.1334 24.0552 26.8392 22.3296C28.0689 21.0853 29.6556 20.7331 31.52 21.2848Z" fill="#00045F"/>
<path d="M35.0373 39.1632C34.3497 39.4214 34.1514 40.0906 34.6274 40.5484C34.8918 40.7949 35.0241 40.8066 36.8091 40.8066C38.5545 40.8066 38.7529 40.7832 38.9909 40.5719C39.3215 40.2784 39.3347 39.7384 39.0041 39.3862C38.7661 39.1162 38.6603 39.1045 37.0471 39.081C36.1216 39.0575 35.2092 39.1045 35.0373 39.1632Z" fill="#00045F"/>
<path d="M20.955 39.4214C20.4658 40.0436 20.8889 40.8066 21.7219 40.8066C22.2112 40.8066 22.7269 40.384 22.7269 39.9849C22.7269 39.8675 22.6079 39.6445 22.4492 39.4684C22.0922 39.0575 21.2591 39.0341 20.955 39.4214Z" fill="#00045F"/>
<path d="M24.3929 39.4214C23.9036 40.0436 24.3268 40.8066 25.1598 40.8066C25.6491 40.8066 26.1647 40.384 26.1647 39.9849C26.1647 39.8675 26.0457 39.6445 25.8871 39.4684C25.53 39.0575 24.697 39.0341 24.3929 39.4214Z" fill="#00045F"/>
<path d="M27.8308 39.4214C27.7118 39.5623 27.6193 39.8206 27.6193 39.9849C27.6193 40.5014 27.9631 40.8066 28.5449 40.8066C28.9415 40.8066 29.1134 40.7362 29.325 40.5014C29.4837 40.3253 29.6027 40.1023 29.6027 39.9849C29.6027 39.8675 29.4837 39.6445 29.325 39.4684C28.968 39.0575 28.135 39.0341 27.8308 39.4214Z" fill="#00045F"/>
<path d="M21.0344 42.8378C20.6245 43.2252 20.6509 43.7769 21.0873 44.0821C21.4311 44.3286 21.5369 44.3286 29.9994 44.3286C38.462 44.3286 38.5678 44.3286 38.9116 44.0821C39.3611 43.7651 39.3876 43.1782 38.9512 42.826L38.6471 42.5678H29.9862H21.3121L21.0344 42.8378Z" fill="#E83A15"/>
</g>
<defs>
<clipPath id="clip0_108_378">
<rect width="60" height="60" fill="white"/>
</clipPath>
</defs>
</svg>
