<svg width="60" height="60" viewBox="0 0 60 60" fill="none" xmlns="http://www.w3.org/2000/svg">
<g clip-path="url(#clip0_108_387)">
<path d="M41.4983 0.134579C40.9827 0.353489 40.549 0.791309 40.3147 1.28064C40.1037 1.74421 40.0803 2.05326 40.0803 5.14375V8.49179H20.9777C0.210949 8.49179 1.42976 8.45316 0.714882 9.17427C0.0820356 9.81812 0 10.2431 0 13.2949V16.1021L0.292984 16.4112C0.656285 16.8232 1.10162 16.8232 1.46492 16.4112C1.75791 16.1021 1.75791 16.0892 1.75791 13.4108C1.75791 11.505 1.79306 10.6938 1.89854 10.5779C2.00401 10.462 6.42222 10.4233 21.0597 10.4233H40.0803V12.0716C40.0803 13.6684 40.092 13.7456 40.4201 14.2993C40.8655 15.0848 41.4046 15.3553 42.6351 15.4196L43.5961 15.4711V17.7118C43.5961 19.36 43.643 20.0811 43.7602 20.4031C44.0531 21.1499 44.9907 21.4719 45.5884 21.0212C45.7524 20.9053 46.5494 20.2357 47.3697 19.5403C48.1901 18.8449 48.8815 18.2783 48.9167 18.2783C48.9636 18.2783 48.9753 24.498 48.9636 32.0825L48.9284 45.8996L46.0572 45.9383C43.3148 45.964 43.1859 45.9769 42.9281 46.2473C42.4827 46.698 42.5882 47.3934 43.139 47.7024C43.3969 47.8569 44.0297 47.8956 46.2329 47.8956H48.987V49.4279C48.987 50.6513 48.9518 51.0118 48.7995 51.1663C48.6354 51.3466 46.3501 51.3724 25.3256 51.3724C7.37149 51.3724 2.00401 51.3337 1.89854 51.2178C1.80478 51.1148 1.75791 50.5354 1.75791 49.4794V47.8956H20.6261C36.9629 47.8956 39.5529 47.8698 39.8342 47.7024C40.385 47.3934 40.4904 46.698 40.0451 46.2473L39.7756 45.964H20.7667H1.75791V32.9582V19.9395L1.46492 19.6304C1.10162 19.2184 0.656285 19.2184 0.292984 19.6304L0 19.9395V35.6237C0 50.5998 0.0117194 51.3337 0.222668 51.8231C0.480494 52.4412 0.855515 52.8404 1.42976 53.1108C1.8165 53.2782 3.05876 53.3039 11.403 53.3039H20.9425L20.462 55.6476L19.9698 58.0041L16.5243 58.0684C14.6258 58.1071 13.0554 58.1586 13.0319 58.1715C13.0085 58.1843 12.9265 58.3775 12.8444 58.6093C12.6569 59.0857 12.7858 59.6781 13.1257 59.8712C13.2663 59.9485 17.7431 60 25.349 60C37.3145 60 37.3497 60 37.6661 59.7296C38.088 59.369 38.088 58.6994 37.6661 58.3389C37.3614 58.0813 37.209 58.0684 34.0448 58.0684H30.7516L30.3063 55.9051C30.0719 54.7204 29.8493 53.6516 29.8141 53.5357C29.7555 53.3168 30.318 53.3039 39.4826 53.2782L49.1979 53.2395L49.7019 52.8532C49.9714 52.6343 50.3113 52.2351 50.4402 51.9518C50.6863 51.4368 50.6863 51.3981 50.7215 34.0527L50.7566 16.6687L51.4949 16.0506L52.2333 15.4454H55.0928C56.6983 15.4454 58.1398 15.381 58.3859 15.3166C58.9719 15.1363 59.5227 14.6084 59.7805 13.9645C59.9798 13.4881 60.0032 12.9988 60.0032 7.78355C60.0032 4.46127 59.9563 1.92449 59.886 1.66695C59.7454 1.08748 59.0071 0.289101 58.468 0.1217C57.9406 -0.0457001 41.8851 -0.0328255 41.4983 0.134579ZM58.1047 2.07901C58.3039 2.29792 58.3039 13.1404 58.1047 13.3593C57.9992 13.4752 57.1085 13.5138 54.835 13.5138C51.7645 13.5138 51.7059 13.5138 51.3191 13.81C51.0965 13.9774 49.7136 15.1363 48.2252 16.3854C46.7486 17.6345 45.4946 18.6647 45.4477 18.6647C45.3891 18.6647 45.354 17.7761 45.354 16.6945C45.354 14.9818 45.3306 14.6856 45.1196 14.3251C44.768 13.6941 44.3461 13.5138 43.1507 13.5138C42.5062 13.5138 42.0726 13.4623 41.9788 13.3593C41.7679 13.1275 41.7796 2.10477 41.9905 2.01463C42.0608 1.976 45.6939 1.93737 50.0417 1.93737C56.0538 1.92449 57.9992 1.96312 58.1047 2.07901ZM28.4078 55.4544C28.6422 56.652 28.8648 57.7208 28.9 57.8367C28.9586 58.0556 28.7359 58.0684 25.3842 58.0684C23.2278 58.0684 21.798 58.0169 21.798 57.9525C21.798 57.8495 22.1613 56.0467 22.677 53.5872L22.7356 53.3039H25.349H27.9624L28.4078 55.4544Z" fill="#E83A15"/>
<path d="M45.6236 6.8177C45.3189 6.95934 45.1196 7.33278 45.1196 7.7706C45.1196 8.59473 46.2681 8.95529 46.7486 8.28568C46.8893 8.09253 46.9947 7.86074 46.9947 7.7706C46.9947 7.39716 46.7017 6.94647 46.3736 6.8177C45.9634 6.66317 45.9634 6.66317 45.6236 6.8177Z" fill="#00045F"/>
<path d="M49.6082 6.8177C49.3035 6.95934 49.1042 7.33278 49.1042 7.7706C49.1042 8.59473 50.2527 8.95529 50.7332 8.28568C50.8739 8.09253 50.9793 7.86074 50.9793 7.7706C50.9793 7.39716 50.6864 6.94647 50.3582 6.8177C49.948 6.66317 49.948 6.66317 49.6082 6.8177Z" fill="#00045F"/>
<path d="M53.5927 6.8177C53.288 6.95934 53.0887 7.33278 53.0887 7.7706C53.0887 8.59473 54.2372 8.95529 54.7177 8.28568C54.8584 8.09253 54.9638 7.86074 54.9638 7.7706C54.9638 7.39716 54.6709 6.94647 54.3427 6.8177C53.9325 6.66317 53.9325 6.66317 53.5927 6.8177Z" fill="#00045F"/>
<path d="M23.7904 12.8702C22.0559 13.1406 20.1574 13.939 18.6339 15.0464C17.6846 15.7289 16.1611 17.39 15.4696 18.4846C14.8251 19.5147 14.0516 21.2274 13.8406 22.0902L13.7117 22.631L12.3288 22.6825C11.2038 22.7211 10.8639 22.7855 10.4069 23.0302C9.16461 23.6869 8.35597 24.8458 8.07471 26.3396C7.71141 28.284 8.70755 30.383 10.4069 31.2586C11.0397 31.5934 11.1921 31.6063 13.1609 31.6449C16.079 31.7093 16.1962 31.6063 15.5751 29.5202C15.2587 28.4385 15.2001 28.0136 15.1415 26.5714C15.1063 25.5541 15.1415 24.5368 15.2235 24.0217C15.7861 20.4677 18.1182 17.1969 21.1653 15.6903C22.5833 14.9949 23.6732 14.7502 25.3139 14.7502C26.9312 14.7631 27.8219 14.9434 29.2516 15.5744C34.291 17.7892 36.8575 24.099 35.0527 29.7906C34.7363 30.7693 34.748 31.0397 35.0761 31.3874C35.3223 31.6449 35.4746 31.6707 36.5528 31.6707H37.7599L37.713 34.3362C37.6661 37.3108 37.6075 37.5813 36.7755 38.4569C36.1426 39.1265 35.5918 39.2682 33.6464 39.2682H31.9236L31.7361 38.8432C31.4314 38.1478 30.9744 37.6328 30.3298 37.2851C29.7673 36.976 29.6149 36.9503 28.0797 36.9503C26.5913 36.9503 26.3687 36.976 25.8413 37.2593C24.7397 37.8259 24.1537 38.8818 24.142 40.2468C24.142 41.5989 24.7514 42.6548 25.8413 43.2085C26.3687 43.4789 26.5913 43.5176 28.0797 43.5176C29.6149 43.5176 29.7673 43.4918 30.3298 43.1828C30.9626 42.8351 31.4314 42.32 31.7361 41.6375L31.9119 41.2255L33.9745 41.174C36.002 41.1353 36.0489 41.1224 36.7989 40.7361C38.1466 40.0408 39.1076 38.6887 39.3772 37.0919C39.4358 36.7185 39.4944 35.3149 39.4944 34.0014V31.6063L40.092 31.3616C40.971 31.0268 42.0726 29.7906 42.4242 28.7734C42.7875 27.6788 42.7172 26.1078 42.2601 25.1291C41.8382 24.2278 41.1468 23.4809 40.3264 23.0688C39.7756 22.7726 39.4592 22.7083 38.3459 22.6568L37.0216 22.5924L36.752 21.7554C35.0879 16.553 30.7869 13.0247 25.853 12.8187C25.1381 12.7801 24.2123 12.8058 23.7904 12.8702ZM13.3953 26.4812C13.4305 27.5629 13.5242 28.6832 13.6297 29.0695L13.8055 29.7649L12.5398 29.7134C11.3913 29.6747 11.2507 29.649 10.817 29.3142C9.35212 28.1939 9.45759 25.7859 11.0046 24.8845C11.4147 24.6527 11.7077 24.5883 12.4226 24.5883H13.3367L13.3953 26.4812ZM39.5295 24.7557C40.0569 25.0004 40.76 25.9018 40.8538 26.4555C41.0765 27.7947 40.6311 28.8764 39.6115 29.443C39.1779 29.6876 38.9084 29.7391 37.9943 29.7391C37.0216 29.7391 36.9044 29.7134 36.963 29.5331C37.1622 28.9794 37.3849 26.9963 37.3849 25.8631V24.5883H38.2638C38.756 24.5883 39.3186 24.6656 39.5295 24.7557ZM29.5915 39.0364C29.9548 39.2166 30.236 39.7446 30.236 40.2339C30.236 40.7233 29.9548 41.2512 29.5915 41.4315C29.4157 41.5216 28.736 41.586 27.9391 41.586C26.603 41.586 26.5796 41.586 26.2397 41.2126C25.9585 40.9035 25.8999 40.7233 25.8999 40.2339C25.8999 39.7446 25.9585 39.5643 26.2397 39.2553C26.5796 38.8818 26.603 38.8818 27.9391 38.8818C28.736 38.8818 29.4157 38.9462 29.5915 39.0364Z" fill="#00045F"/>
<path d="M23.345 17.6344C21.927 18.0465 20.9308 18.7032 19.7941 19.9523C18.9737 20.8537 18.6807 21.2786 18.3057 22.1542C17.1924 24.691 17.1924 27.2922 18.3057 29.8547C18.9737 31.4 20.3918 32.9581 21.7981 33.7178C23.263 34.4905 24.0365 34.6707 25.6655 34.5935C27.9156 34.4905 29.3571 33.7951 30.9626 32.0438C31.6892 31.2326 31.9588 30.8334 32.3807 29.8547C33.0487 28.3223 33.2128 27.5368 33.2128 25.9401C33.2128 23.6222 32.4393 21.5876 30.9392 19.9523C29.9313 18.8577 29.111 18.2782 27.8687 17.8018C26.6851 17.3382 24.599 17.261 23.345 17.6344ZM25.6538 19.669C26.1343 20.4158 26.7202 23.0428 26.7202 24.4721V25.1031H25.3842C24.6459 25.1031 24.013 25.0645 23.9896 25.0001C23.8841 24.8198 24.142 22.5921 24.3881 21.5619C24.6225 20.5575 25.1381 19.3084 25.3256 19.3084C25.3725 19.3084 25.5248 19.4758 25.6538 19.669ZM22.97 19.8621C22.97 19.875 22.8411 20.4416 22.6888 21.1112C22.5364 21.7808 22.3723 22.7337 22.3372 23.2359C22.2903 23.7252 22.2317 24.3562 22.1965 24.6138L22.1262 25.1031H20.7199H19.3019L19.3839 24.5494C19.5011 23.7124 20.1691 22.283 20.8137 21.5104C21.4348 20.7506 22.97 19.5788 22.97 19.8621ZM28.4664 20.2227C29.6852 20.9953 30.6345 22.2701 31.1384 23.8154C31.572 25.1803 31.6306 25.116 29.9782 25.0773L28.5367 25.0387L28.443 23.9441C28.3492 22.708 28.0679 21.0597 27.8218 20.3257C27.7398 20.0424 27.7046 19.8235 27.7515 19.8235C27.7984 19.8235 28.1148 20.0038 28.4664 20.2227ZM22.1965 27.4467C22.2317 27.6785 22.2903 28.2708 22.3372 28.773C22.3723 29.2624 22.5364 30.2153 22.6888 30.8849C22.8411 31.5545 22.9466 32.134 22.9114 32.1597C22.7825 32.3014 21.4817 31.2841 20.884 30.5758C20.2042 29.7775 19.5011 28.3352 19.3722 27.5111L19.3019 27.0346H20.7199H22.1379L22.1965 27.4467ZM26.7202 27.6012C26.7202 29.4813 25.8178 32.7005 25.2905 32.7005C25.2319 32.7005 25.0209 32.3271 24.8334 31.8764C24.4584 31.0008 24.0951 29.2237 23.9896 27.833L23.931 27.0346H25.3256H26.7202V27.6012ZM31.3494 27.4467C30.9978 29.2624 29.9196 30.8591 28.4195 31.812C27.6929 32.2756 27.6343 32.2756 27.7867 31.8249C28.0211 31.1682 28.3609 29.2495 28.4313 28.1421L28.5133 27.0346H29.9665H31.4314L31.3494 27.4467Z" fill="#E83A15"/>
</g>
<defs>
<clipPath id="clip0_108_387">
<rect width="60" height="60" fill="white"/>
</clipPath>
</defs>
</svg>
