<svg width="110" height="110" viewBox="0 0 110 110" fill="none" xmlns="http://www.w3.org/2000/svg">
<path d="M53.0124 0.363721C52.6078 0.576646 40.6606 9.86018 26.4773 21.0175C3.45615 39.0948 0.645052 41.3731 0.325609 42.1396C-0.483646 44.1411 0.240424 45.9297 2.22097 46.8453C2.94504 47.1859 3.62652 47.2498 6.97002 47.2498H10.8459V76.5696C10.8459 104.633 10.8672 105.953 11.2506 106.762C11.6978 107.742 12.4005 108.444 13.2524 108.764C14.1042 109.083 94.902 109.083 95.7538 108.764C96.6057 108.444 97.3085 107.742 97.7557 106.762C98.139 105.953 98.1603 104.633 98.1603 76.5696V47.2498H101.972C104.23 47.2498 106.061 47.1434 106.487 47.0156C107.957 46.5259 109.021 45.0567 109.021 43.5662C109.021 41.9267 108.446 41.3518 101.355 35.7732L94.6464 30.5139L94.5399 20.187C94.4335 9.13623 94.4335 9.2427 93.3261 8.24195C92.3251 7.32637 91.5798 7.21991 86.2557 7.21991C80.8465 7.21991 80.3567 7.28379 79.3558 8.24195C78.3123 9.2214 78.2484 9.47691 78.1419 13.5651L78.0354 17.4616L67.2808 9.00848C61.3605 4.36671 56.2281 0.427598 55.8448 0.278551C54.9077 -0.126007 53.8855 -0.0834218 53.0124 0.363721ZM81.3363 24.6585C93.9224 34.5382 104.464 42.8423 104.762 43.1191L105.295 43.6301H100.439H95.5835L95.0724 44.1624L94.5399 44.6734V75.0365V105.378H54.5031H14.4663V75.0578C14.4663 45.5464 14.445 44.7373 14.0617 44.2476C13.657 43.7366 13.5931 43.7366 8.67371 43.6301L3.7117 43.5236L20.1098 30.6417C29.1394 23.5726 40.5754 14.5871 45.5161 10.6906L54.5457 3.62147L56.4837 5.15454C57.5698 6.00624 68.7503 14.8 81.3363 24.6585ZM90.9196 19.165C90.9196 25.7444 90.8557 27.4478 90.664 27.32C90.515 27.2349 88.4492 25.6379 86.0854 23.7642L81.7622 20.3787V15.6092V10.8396H86.3409H90.9196V19.165Z" fill="#F7F7F7"/>
<path d="M50.968 29.5768C49.0087 30.0878 46.368 31.4293 45.0902 32.5365C42.1513 35.1342 40.8949 39.3714 42.13 42.6078C42.5986 43.8002 42.9393 44.2899 45.1541 46.9302C45.8143 47.6967 46.7513 49.102 47.2411 50.0389C47.9865 51.5294 48.1143 51.9339 48.1143 53.1263C48.1143 53.9567 48.0291 54.4891 47.88 54.4891C47.7522 54.4891 47.2198 54.1058 46.6661 53.6586C42.2152 49.9112 34.6977 47.6329 30.0125 48.6123C25.7533 49.5066 22.3885 52.4237 20.0885 57.1932C17.9376 61.6646 17.6181 65.7102 19.0663 70.0539C20.8764 75.5686 25.4764 78.8477 30.3107 78.0812C32.0143 77.8256 33.3347 77.1017 35.2514 75.377C36.1458 74.5679 37.7004 73.4607 38.6801 72.8858C40.2773 71.9915 40.6819 71.8637 42.0661 71.7786C43.1523 71.7147 43.6421 71.7573 43.6421 71.9276C43.6421 72.0554 43.1948 72.7367 42.6411 73.4181C39.8088 76.9526 37.8495 81.8925 37.5301 86.4491C37.0615 93.0285 41.7254 98.6923 49.5411 101.034C51.0957 101.503 51.8624 101.609 53.9707 101.609C56.9948 101.631 58.4003 101.311 61.2327 99.9486C62.766 99.2033 63.4262 98.7349 64.4697 97.6277C67.3447 94.5403 68.154 90.6437 66.5568 87.4073C66.2586 86.8111 65.4494 85.7039 64.7679 84.9373C62.1697 82.0629 60.892 79.5929 60.892 77.5275C60.892 76.8036 60.9559 76.2074 61.0198 76.2074C61.0836 76.2074 61.9355 76.8036 62.8725 77.5275C66.3225 80.1252 71.2845 82.0203 75.3734 82.3184C81.9752 82.7868 87.1928 78.7838 89.94 71.1611C92.389 64.3049 89.7057 56.3202 84.0196 53.5096C82.3585 52.7005 82.2521 52.6792 80.0798 52.6792C78.0567 52.6792 77.6947 52.7431 76.6512 53.2541C76.0123 53.5735 74.6706 54.5529 73.691 55.4259C71.3271 57.5339 68.5586 58.9818 66.8123 59.0244C66.1308 59.0244 65.5345 58.9818 65.4494 58.9179C65.3855 58.8327 65.8753 58.0236 66.5781 57.108C68.8993 53.9993 70.5391 50.188 71.2206 46.3127C71.6253 43.9706 71.6253 42.6504 71.2206 40.8193C70.1345 35.6878 65.7049 31.5357 59.3161 29.7046C56.9309 29.0019 53.3318 28.9593 50.968 29.5768ZM58.8688 33.2817C63.1494 34.8148 66.3651 37.5189 67.3873 40.436C68.6012 43.8854 67.2808 49.6557 64.2994 54.0632C63.0642 55.8944 63.0216 55.9156 61.8077 55.0639C59.5077 53.4244 57.3568 52.7431 54.3966 52.7431C53.3531 52.7431 52.3522 52.7856 52.1818 52.8282C51.9902 52.8708 51.8198 52.4876 51.6068 51.5294C51.0957 49.0382 49.4133 46.0785 47.092 43.566C46.4745 42.8846 45.793 41.9691 45.6226 41.5432C44.9198 39.8611 45.4948 37.4338 47.0069 35.7303C47.7948 34.8148 49.8606 33.6863 51.6281 33.154C53.3105 32.6642 57.2929 32.7281 58.8688 33.2817ZM36.3588 52.5727C38.6588 53.1263 40.6606 53.9993 42.7689 55.3408C45.0476 56.7886 45.0902 56.8738 44.3874 57.7042C43.6421 58.5985 42.705 60.4935 42.2365 62.0692C41.9597 62.9635 41.8532 63.9855 41.8532 65.6676L41.8745 68.0311L40.618 68.2653C38.2967 68.7124 35.2301 70.4584 32.7597 72.7154C31.1625 74.1846 30.3745 74.5679 28.9477 74.5892C26.9459 74.6105 24.6672 73.1839 23.4959 71.1611C22.7718 69.9261 22.1755 68.2014 21.92 66.4554C21.3237 62.708 23.1338 57.7468 26.1792 54.702C28.7986 52.083 31.7162 51.4655 36.3588 52.5727ZM82.1669 56.6396C85.2335 58.0236 87.1715 61.6433 87.1502 65.987C87.1502 67.6691 87.0437 68.3292 86.5113 69.841C84.6372 75.2918 81.315 78.4218 77.1623 78.6986C73.4354 78.9329 68.1753 77.123 64.8318 74.4401L64.0864 73.8439L65.0447 72.4173C65.5558 71.6295 66.2373 70.2242 66.5568 69.2873C67.0679 67.8395 67.1531 67.2433 67.1531 65.1779V62.7718L67.6855 62.6654C69.3679 62.2821 70.0706 62.0479 71.4336 61.3665C73.1586 60.4935 74.5428 59.5567 76.3317 58.0023C77.0345 57.3848 77.9076 56.7461 78.2484 56.5544C79.1428 56.0647 81.0169 56.1073 82.1669 56.6396ZM58.4003 57.2145C61.9568 58.9818 64.0651 62.8996 63.4688 66.6471C62.2549 74.0782 53.3957 77.0378 48.093 71.7573C45.3671 69.0105 44.6643 65.1353 46.2828 61.5795C47.0282 60.0038 47.88 58.9605 49.2643 58.0023C51.1383 56.7248 52.3309 56.3841 54.8439 56.448C56.7605 56.5118 57.1226 56.597 58.4003 57.2145ZM47.7096 76.0584C48.3698 76.5055 49.6263 77.123 50.4781 77.4424C51.8198 77.9108 52.4161 77.996 54.5883 78.0173L57.1226 78.0386L57.3994 79.3161C57.8466 81.5518 59.4438 84.3624 61.7438 87.0453C63.341 88.919 63.6605 89.5578 63.6605 91.0057C63.6605 96.052 56.4411 99.5014 50.1587 97.4573C48.0504 96.776 45.6865 95.4133 44.1958 94.0718C40.98 91.1122 40.3412 87.3008 42.1726 81.8499C43.1948 78.7838 45.6652 74.6956 46.2615 75.0789C46.4106 75.1854 47.0708 75.6112 47.7096 76.0584Z" fill="#F7F7F7"/>
<path d="M52.2671 60.4297C49.4773 61.686 48.2848 65.1141 49.669 67.8182C52.2671 72.9284 59.8699 71.076 59.8699 65.3483C59.8699 64.6882 59.7208 63.7727 59.5291 63.3255C59.0606 62.2183 57.8254 60.9408 56.7393 60.4297C55.6106 59.8974 53.4171 59.8974 52.2671 60.4297ZM55.7171 64.1133C56.2495 64.6031 56.3773 65.689 55.994 66.3916C55.6532 67.0517 54.6097 67.3711 53.8644 67.0517C53.0764 66.7323 52.7995 66.2639 52.7995 65.327C52.7995 63.8365 54.6097 63.07 55.7171 64.1133Z" fill="#F7F7F7"/>
</svg>
