<svg width="103" height="117" viewBox="0 0 103 117" fill="none" xmlns="http://www.w3.org/2000/svg">
<path d="M49.1883 0.63871C46.9189 1.827 46.2312 3.51804 46.2312 7.97414V10.0994L44.8788 8.86536C42.7241 6.8544 40.4547 6.60303 38.2541 8.0884C36.1911 9.45951 35.4117 12.3845 36.5349 14.5098C36.81 15.0125 39.1023 17.6405 41.6238 20.337L46.2312 25.2501V32.7227V40.1723L45.3831 40.4694C43.4117 41.0864 39.79 43.2116 38.8043 44.3085C38.5521 44.5599 38.2771 44.7884 38.1854 44.7884C37.8874 44.7884 25.9905 37.91 25.555 37.4987C25.3487 37.293 24.3401 34.3451 23.3086 30.9631C22.277 27.5581 21.2455 24.4274 21.0163 23.9933C19.4117 20.8626 14.873 20.4284 12.5807 23.1935C11.3888 24.656 11.0908 26.4841 11.7555 28.4265C11.9618 29.0207 12.0764 29.5691 11.9848 29.6377C11.916 29.7062 11.1366 29.3406 10.2656 28.815C7.35437 27.1011 6.48331 26.7355 5.22256 26.7355C1.87585 26.7355 -0.668568 29.8205 0.156648 32.9283C0.638025 34.8022 1.32571 35.5106 4.1452 37.1788C5.58932 38.0243 6.73546 38.7784 6.68961 38.8469C6.64377 38.9383 6.02485 39.1212 5.33717 39.2811C2.86152 39.8296 1.27986 41.5435 1.1194 43.8515C1.00479 45.5197 1.30278 46.5023 2.3343 47.6906C3.25121 48.7646 4.60365 49.3816 6.09362 49.3816C6.66669 49.4045 10.0822 48.7189 13.6581 47.8963L20.1681 46.388L26.5407 50.0672L32.9361 53.7463L32.7527 54.6832C32.661 55.2088 32.5922 56.9227 32.5922 58.4995C32.5922 60.0763 32.661 61.7902 32.7527 62.3158L32.9361 63.2527L26.5407 66.9318L20.1681 70.611L13.6581 69.1027C10.0822 68.2801 6.66669 67.5945 6.09362 67.6174C4.12227 67.6174 2.40307 68.7143 1.53201 70.5196C1.1194 71.3422 1.05063 71.845 1.1194 73.0104C1.27986 75.4555 2.79276 77.1466 5.33717 77.7179C6.02485 77.8778 6.64377 78.0606 6.68961 78.1521C6.73546 78.2206 5.5664 78.9976 4.09935 79.8659C1.85293 81.2142 1.32571 81.6484 0.752638 82.5625C-1.26456 85.8531 1.18817 90.2635 5.03918 90.2635C6.39162 90.2635 7.21683 89.9436 9.73833 88.4811C10.9074 87.7955 11.916 87.2928 12.0077 87.3613C12.0764 87.4299 11.9618 87.9783 11.7555 88.5725C10.5177 92.2059 12.8329 95.6108 16.5464 95.6108C18.9532 95.6108 20.5349 94.4454 21.4747 91.9317C22.3 89.7836 22.3229 89.0295 21.6352 88.344C20.3974 87.11 19.1825 87.7498 18.4948 90.0121C17.9676 91.8174 17.6237 92.1831 16.5005 92.1831C15.6065 92.1831 14.8272 91.4747 14.8272 90.6748C14.8272 90.4235 15.3085 88.641 15.9045 86.7215C16.9361 83.3166 16.959 83.2023 16.5693 82.6082C16.0191 81.7855 15.171 81.4884 14.3916 81.8769C14.0707 82.0369 11.9848 83.2252 9.76125 84.5049C7.53775 85.7846 5.47471 86.8357 5.19964 86.8357C3.96181 86.8357 3.1366 85.6703 3.59505 84.5506C3.77843 84.0935 4.90164 83.3394 8.01913 81.557C13.5664 78.4034 14.1395 77.8093 12.9475 76.4382C12.512 75.9583 11.8243 75.7298 9.07357 75.0899C7.21683 74.6557 5.49763 74.1987 5.22256 74.0616C4.16812 73.4903 4.37442 71.6393 5.54348 71.1823C6.13947 70.9309 7.05638 71.0908 12.9933 72.462C16.7068 73.3303 20.0535 74.0387 20.4203 74.0387C20.8329 74.0387 23.4919 72.6448 28.3286 69.8797C32.3172 67.5945 35.7556 65.5836 36.0077 65.3779C36.7183 64.7837 36.7642 64.2353 36.3286 62.4072C36.0765 61.356 35.916 59.8021 35.916 58.4995C35.916 57.1969 36.0765 55.643 36.3286 54.5918C36.7642 52.7637 36.7183 52.2152 36.0077 51.6211C34.9074 50.6842 21.0163 42.9603 20.4432 42.9603C20.0994 42.9603 16.9131 43.623 13.383 44.4456C9.85294 45.2683 6.59792 45.931 6.18531 45.931C4.30565 45.931 3.8472 43.4402 5.58932 42.7775C5.93316 42.6403 7.65237 42.2062 9.37157 41.8177C12.0077 41.2007 12.6037 40.995 12.9933 40.5151C14.0707 39.144 13.5206 38.5727 8.01913 35.442C4.90164 33.6596 3.77843 32.9055 3.59505 32.4484C3.1366 31.3287 3.96181 30.1633 5.22256 30.1633C5.49763 30.1633 7.69821 31.3058 10.1051 32.6998C12.6037 34.1395 14.7584 35.2364 15.1252 35.2364C15.7899 35.2592 16.5693 34.6879 16.7756 34.0252C16.8673 33.7738 16.4547 32.06 15.8816 30.1861C15.3085 28.3123 14.8272 26.5755 14.8272 26.3242C14.8272 26.0728 15.0105 25.6386 15.2627 25.3415C15.767 24.7245 17.1653 24.6103 17.6925 25.1587C17.8988 25.3415 19.022 28.6779 20.214 32.5627C21.406 36.4246 22.4604 39.6925 22.5521 39.7839C22.6438 39.8753 26.151 41.9319 30.3 44.3085C34.9991 47.0279 38.0937 48.6732 38.4834 48.6732C38.9418 48.6732 39.6066 48.239 40.8903 47.0736C42.8387 45.314 45.406 43.92 47.7212 43.3259C48.4777 43.1431 49.2112 42.8003 49.3716 42.5718C49.6009 42.2747 49.6696 40.0352 49.6696 33.0426L49.6467 23.879L46.3229 20.337C38.6668 12.2017 38.8043 12.3845 39.9963 11.1963C41.1653 10.0537 41.4633 10.1908 44.535 13.4129C46.9418 15.9037 47.4003 16.2922 48.0192 16.2922C48.4318 16.2922 48.959 16.1094 49.2112 15.8809C49.6467 15.4924 49.6696 15.1953 49.6696 10.5335C49.6696 5.43759 49.8072 4.295 50.5178 3.74656C51.4805 3.0153 52.7413 3.54089 53.108 4.82059C53.2456 5.25478 53.3373 7.81418 53.3373 10.5335C53.3373 15.1953 53.3602 15.4924 53.7957 15.8809C54.0479 16.1094 54.5751 16.2922 54.9877 16.2922C55.6066 16.2922 56.0651 15.9037 58.472 13.4129C61.5436 10.1908 61.8416 10.0537 63.0106 11.1963C64.2026 12.3845 64.3402 12.2017 56.684 20.337L53.3602 23.879L53.3373 26.6669C53.3373 29.2492 53.3831 29.5005 53.8416 29.9347C54.1166 30.1861 54.598 30.3918 54.9189 30.3918C56.2255 30.3689 56.7757 29.2949 56.7757 26.7355V25.2501L61.3831 20.337C63.9046 17.6405 66.1969 15.0125 66.449 14.5098C67.5723 12.3617 66.8158 9.45951 64.7528 8.0884C62.5522 6.60303 60.2828 6.8544 58.1281 8.86536L56.7757 10.0994V7.97414C56.7757 3.49519 56.088 1.7813 53.8186 0.61586C52.1453 -0.20681 50.8158 -0.20681 49.1883 0.63871Z" fill="#F7F7F7"/>
<path d="M85.1997 21.4567C83.618 21.9594 82.5865 22.8049 81.9218 24.1075C81.7384 24.4731 80.7298 27.5581 79.6983 30.963C78.6667 34.3451 77.6581 37.293 77.4518 37.4986C77.0163 37.91 65.1194 44.7884 64.8214 44.7884C64.7298 44.7884 64.4547 44.5599 64.2025 44.3085C63.2169 43.2116 59.5951 41.0864 57.6466 40.4694L56.7756 40.1723V38.527C56.7756 36.6303 56.4547 35.5105 55.8587 35.1906C55.171 34.825 54.2999 34.9164 53.7956 35.4191C53.383 35.8305 53.3372 36.1732 53.3372 39.0297C53.3372 41.2006 53.4289 42.3204 53.6352 42.5718C53.7956 42.8003 54.5292 43.1431 55.2856 43.3259C57.6237 43.92 60.2369 45.3597 62.1395 47.0964C63.4002 48.239 64.065 48.6732 64.5235 48.6732C64.9131 48.6732 67.9389 47.0736 72.7068 44.3085C76.8788 41.909 80.363 39.8752 80.4547 39.7838C80.5464 39.6924 81.6008 36.4246 82.7928 32.5627C83.9848 28.6778 85.108 25.3415 85.3143 25.1587C85.8415 24.6102 87.2398 24.7245 87.7441 25.3415C87.9963 25.6386 88.1797 26.0727 88.1797 26.3241C88.1797 26.5755 87.6983 28.3122 87.1252 30.1861C86.5521 32.0599 86.1395 33.7738 86.2312 34.0252C86.4375 34.6879 87.2169 35.2592 87.8817 35.2363C88.2484 35.2363 90.3802 34.1394 92.8788 32.6998C95.2857 31.3058 97.4633 30.1632 97.7613 30.1632C98.5407 30.1632 99.1825 30.5746 99.4347 31.2373C99.8932 32.4713 99.4576 32.8597 94.7126 35.6248C89.3946 38.6869 88.9361 39.1668 90.0135 40.5151C90.4032 40.995 90.9991 41.2006 93.6353 41.8176C95.3545 42.2061 97.0737 42.6403 97.4175 42.7774C99.1825 43.463 98.7012 45.931 96.7986 45.931C96.3631 45.931 93.1539 45.2683 89.6696 44.4456C86.1625 43.6229 82.9991 42.9602 82.6094 42.9602C82.151 42.9602 79.7212 44.2399 74.9074 47.005C66.9303 51.5754 66.6553 51.7582 66.426 52.398C66.3343 52.6494 66.426 53.5863 66.6782 54.5918C67.2054 56.8541 67.2054 60.1448 66.6782 62.4071C66.426 63.4126 66.3343 64.3495 66.426 64.6009C66.6553 65.2407 66.9303 65.4236 74.9074 69.9939C79.6066 72.7133 82.151 74.0387 82.5865 74.0387C82.9533 74.0387 86.3 73.3303 90.0135 72.4619C95.9504 71.0908 96.8674 70.9308 97.4633 71.1822C98.7929 71.7078 98.8387 73.5588 97.5092 74.153C97.1195 74.3358 95.3545 74.7928 93.6353 75.1813C90.9991 75.7983 90.4032 76.004 90.0135 76.4838C88.9361 77.8321 89.3946 78.312 94.7126 81.3741C99.4576 84.1392 99.8932 84.5277 99.4347 85.7617C99.1825 86.4244 98.5407 86.8357 97.8072 86.8357C97.5321 86.8357 95.4691 85.7845 93.2456 84.5048C91.0221 83.2251 88.9361 82.0368 88.6152 81.8769C87.8358 81.4884 86.9877 81.7855 86.4375 82.6081C86.0479 83.2023 86.0708 83.3165 87.1023 86.7214C87.6983 88.641 88.1797 90.4234 88.1797 90.6748C88.1797 90.9262 87.9963 91.3604 87.7441 91.6574C87.2398 92.2744 85.8415 92.3887 85.3143 91.8403C85.108 91.6574 83.9848 88.3211 82.7928 84.4363C81.6008 80.5743 80.5464 77.3065 80.4547 77.2151C80.363 77.1237 76.8788 75.0899 72.7068 72.6904C67.7555 69.834 64.9131 68.3257 64.5005 68.3257C64.0192 68.3257 63.4919 68.6685 62.5521 69.5369C60.2598 71.7078 58.0363 72.9418 55.2627 73.6731C54.5062 73.8559 53.7956 74.1987 53.6352 74.4272C53.4059 74.7243 53.3372 76.9637 53.3372 83.9564L53.3601 93.12L56.6839 96.662C64.3401 104.797 64.2025 104.614 63.0106 105.803C61.8415 106.945 61.5435 106.808 58.4719 103.586C56.065 101.095 55.6065 100.707 54.9876 100.707C54.575 100.707 54.0478 100.89 53.7956 101.118C53.3601 101.507 53.3372 101.804 53.3372 106.625C53.3372 109.596 53.2455 111.973 53.108 112.338C52.4432 114.075 50.4031 113.961 49.8988 112.178C49.7612 111.744 49.6696 109.185 49.6696 106.465C49.6696 101.804 49.6466 101.507 49.2111 101.118C48.959 100.89 48.4317 100.707 48.0191 100.707C47.4002 100.707 46.9418 101.095 44.5349 103.586C41.4632 106.808 41.1652 106.945 39.9962 105.803C38.8042 104.614 38.6667 104.797 46.3228 96.662L49.6466 93.12L49.6696 83.9564C49.6696 76.9637 49.6008 74.7243 49.3716 74.4272C49.2111 74.1987 48.5005 73.8559 47.744 73.6731C44.9933 72.9647 42.8615 71.7535 40.4546 69.5369C39.5148 68.6914 38.9417 68.3257 38.5062 68.3257C38.0936 68.3257 35.0907 69.9254 30.1853 72.7361L22.5062 77.1694L21.7726 79.3175C20.9245 81.854 20.8787 82.4939 21.4517 83.2023C21.9331 83.7964 23.2626 83.9335 23.8586 83.4308C24.0649 83.2708 24.4317 82.4025 24.7068 81.4884C24.9589 80.5972 25.3486 79.7059 25.5549 79.5003C25.9904 79.0661 37.8873 72.2106 38.1853 72.2106C38.277 72.2106 38.5521 72.4391 38.8042 72.6904C39.7899 73.7873 43.4117 75.9125 45.383 76.5295L46.2311 76.8266V84.2763V91.7488L41.6237 96.662C39.1022 99.3585 36.8329 101.941 36.6036 102.375C35.9389 103.677 35.8243 104.706 36.2369 106.145C37.0162 108.751 39.6065 110.282 42.2655 109.688C43.2512 109.482 43.7784 109.162 44.8558 108.156L46.2311 106.9V109.025C46.2311 113.481 46.9188 115.172 49.1882 116.36C50.8157 117.206 52.1452 117.206 53.8186 116.36C56.0879 115.218 56.7756 113.504 56.7756 109.025V106.9L58.128 108.134C60.2828 110.145 62.5521 110.396 64.7527 108.911C66.8157 107.539 67.5722 104.637 66.449 102.489C66.1968 101.986 63.9045 99.3585 61.383 96.662L56.7756 91.7488V84.2763V76.8266L57.6466 76.5295C59.5951 75.9125 63.2169 73.7873 64.2025 72.6904C64.4547 72.4391 64.7298 72.2106 64.8214 72.2106C65.1194 72.2106 77.0163 79.0889 77.4518 79.5003C77.6581 79.7059 78.6667 82.631 79.6983 86.0359C80.7298 89.418 81.7613 92.5715 81.9905 93.0057C83.5951 96.1364 88.1338 96.5706 90.4261 93.8055C91.6181 92.343 91.9161 90.5149 91.2513 88.5724C91.045 87.9783 90.9304 87.4299 90.9991 87.3613C91.0679 87.2927 92.0994 87.7955 93.2685 88.4582C95.9275 89.9893 96.5006 90.2178 97.876 90.2406C101.269 90.3092 103.721 87.0642 102.758 83.7507C102.254 82.0825 101.269 81.1228 98.4261 79.546C97.2112 78.8604 96.2714 78.2434 96.3172 78.152C96.3631 78.0606 96.982 77.8778 97.6696 77.7178C100.145 77.1694 101.727 75.4555 101.887 73.1475C102.002 71.4793 101.704 70.4967 100.673 69.3084C99.7556 68.2343 98.4032 67.6173 96.9132 67.6173C96.3401 67.5945 92.9247 68.28 89.3487 69.1027L82.8616 70.6109L76.4662 66.9318L70.0707 63.2526L70.2541 62.2929C70.4604 61.0817 70.4604 55.9172 70.2541 54.7061L70.0707 53.7463L76.4662 50.0671L82.8616 46.388L89.3487 47.8962C92.9247 48.7189 96.3401 49.4044 96.9132 49.3816C98.4032 49.3816 99.7556 48.7646 100.673 47.6906C101.704 46.5023 102.002 45.5196 101.887 43.8515C101.727 41.5434 100.145 39.8295 97.6696 39.2811C96.982 39.1211 96.3631 38.9383 96.3172 38.8469C96.2714 38.7784 97.4175 38.0242 98.8616 37.1787C101.681 35.5105 102.369 34.8021 102.85 32.9283C103.652 29.8661 101.108 26.7126 97.876 26.7583C96.5006 26.7812 95.9275 27.0097 93.2685 28.5407C92.0994 29.2034 91.0679 29.7062 90.9991 29.6376C90.9304 29.5691 91.045 29.0206 91.2513 28.4265C92.1453 25.7757 91.1596 23.102 88.8215 21.9137C87.8129 21.3881 86.0708 21.1825 85.1997 21.4567Z" fill="#F7F7F7"/>
<path d="M48.7528 48.7874C43.0909 50.3871 39.9734 56.6256 42.0823 62.1557C43.0221 64.6466 45.2915 66.9089 47.8359 67.9144C49.5093 68.5771 53.1081 68.6457 54.8732 68.0287C57.4864 67.1146 60.1454 64.4638 61.0623 61.8587C61.6812 60.0991 61.6124 56.5342 60.9477 54.8432C59.9391 52.3066 57.6697 50.0671 55.1712 49.1074C53.4978 48.4675 50.472 48.3304 48.7528 48.7874ZM54.3918 52.5123C55.813 53.2435 56.6153 53.9976 57.3488 55.3459C57.9677 56.4199 58.0365 56.7856 58.0365 58.4994C58.0365 60.2133 57.9677 60.579 57.3488 61.653C56.6153 63.0013 55.8359 63.7325 54.3918 64.5095C53.6354 64.898 53.0623 65.0122 51.5035 65.0122C49.4176 65.0122 48.4548 64.6694 46.9878 63.4354C45.9333 62.5442 45.0393 60.7161 44.9247 59.0936C44.6726 55.9172 46.3459 53.3121 49.3717 52.1924C50.6096 51.7353 53.1998 51.8953 54.3918 52.5123Z" fill="#F7F7F7"/>
</svg>
