<svg width="200" height="70" viewBox="0 0 200 70" fill="none" xmlns="http://www.w3.org/2000/svg">
<path d="M74.0073 27.9834V23.6539H78.5653C79.1299 23.6539 79.6397 23.5454 80.0955 23.3284C80.5727 23.0896 80.953 22.7424 81.2349 22.2867C81.5169 21.831 81.6582 21.2667 81.6582 20.594C81.6582 19.9213 81.5169 19.357 81.2349 18.9013C80.953 18.4238 80.5727 18.0766 80.0955 17.8596C79.6397 17.6208 79.1299 17.5015 78.5653 17.5015H74.0073V13.172H79.5745C81.0507 13.172 82.3855 13.4759 83.579 14.0835C84.7725 14.6694 85.7167 15.5158 86.4115 16.6226C87.1063 17.7077 87.4533 19.0315 87.4533 20.594C87.4533 22.1131 87.1063 23.4369 86.4115 24.5654C85.7167 25.6722 84.7725 26.5185 83.579 27.1045C82.3855 27.6904 81.0507 27.9834 79.5745 27.9834H74.0073ZM69.3843 36.2517V13.172H75.2119V36.2517H69.3843ZM90.0186 36.2517V13.172H95.8463V36.2517H90.0186ZM94.6417 36.2517V31.2386H105.776V36.2517H94.6417ZM117.202 36.6098C115.249 36.6098 113.523 36.2083 112.026 35.4053C110.55 34.5807 109.4 33.4413 108.575 31.9873C107.75 30.5334 107.337 28.884 107.337 27.0394V13.172H113.132V27.4625C113.132 28.2872 113.306 29.0034 113.653 29.611C114.023 30.197 114.511 30.6527 115.118 30.9782C115.748 31.2821 116.443 31.4339 117.202 31.4339C117.983 31.4339 118.667 31.2821 119.253 30.9782C119.839 30.6527 120.306 30.197 120.653 29.611C121.001 29.0251 121.174 28.3198 121.174 27.4951V13.172H127.034V27.0719C127.034 28.9165 126.622 30.5659 125.797 32.0199C124.973 33.4522 123.822 34.5807 122.346 35.4053C120.892 36.2083 119.178 36.6098 117.202 36.6098ZM130.746 36.2517V13.172H134.946L143.802 26.5511H141.816L150.639 13.172H154.838V36.2517H149.076V22.8075L149.987 23.068L144.681 31.0433H140.904L135.63 23.068L136.542 22.8075V36.2517H130.746ZM158.947 36.2517V13.172H164.775V36.2517H158.947ZM163.57 36.2517V31.3363H176.072V36.2517H163.57ZM163.57 26.8766V22.0914H174.9V26.8766H163.57ZM163.57 18.0874V13.172H175.877V18.0874H163.57ZM183.982 26.9092V22.7424H188.377C189.332 22.7424 190.059 22.5146 190.558 22.0588C191.079 21.5814 191.34 20.9412 191.34 20.1382C191.34 19.357 191.079 18.7276 190.558 18.2502C190.059 17.751 189.332 17.5015 188.377 17.5015H183.982V13.172H189.191C190.754 13.172 192.121 13.465 193.293 14.0509C194.487 14.6369 195.42 15.4398 196.093 16.4598C196.766 17.4798 197.102 18.6734 197.102 20.0406C197.102 21.4078 196.755 22.6122 196.061 23.6539C195.388 24.6739 194.444 25.4768 193.228 26.0628C192.012 26.6271 190.591 26.9092 188.963 26.9092H183.982ZM179.359 36.2517V13.172H185.187V36.2517H179.359ZM191.861 36.2517L185.154 26.3558L190.396 25.0862L198.6 36.2517H191.861Z" fill="#00045F"/>
<path d="M72.8652 50.869H70.6743V49.7188H72.8652C73.2467 49.7188 73.5551 49.6572 73.7901 49.5338C74.025 49.4106 74.1967 49.241 74.3047 49.0252C74.4164 48.8056 74.4719 48.5551 74.4719 48.2738C74.4719 48.0079 74.4164 47.7594 74.3047 47.5282C74.1967 47.2932 74.025 47.1044 73.7901 46.9618C73.5551 46.8192 73.2467 46.7479 72.8652 46.7479H71.1195V54.0075H69.6685V45.5919H72.8652C73.5165 45.5919 74.0694 45.7075 74.5245 45.9388C74.9832 46.166 75.3317 46.482 75.5707 46.8866C75.8097 47.2874 75.9288 47.7459 75.9288 48.2623C75.9288 48.8056 75.8097 49.2718 75.5707 49.661C75.3317 50.0501 74.9832 50.3488 74.5245 50.5569C74.0694 50.765 73.5165 50.869 72.8652 50.869ZM82.5016 52.8573V54.0075H78.2759V52.8573H82.5016ZM78.6806 45.5919V54.0075H77.2296V45.5919H78.6806ZM88.1028 45.5919H89.5479V51.2158C89.5479 51.8554 89.4096 52.391 89.1321 52.8226C88.8546 53.2542 88.4772 53.5798 87.9993 53.7994C87.525 54.0152 86.9952 54.123 86.4092 54.123C85.8046 54.123 85.2645 54.0152 84.7909 53.7994C84.3166 53.5798 83.943 53.2542 83.6692 52.8226C83.3999 52.391 83.2645 51.8554 83.2645 51.2158V45.5919H84.7095V51.2158C84.7095 51.6204 84.7791 51.9537 84.9182 52.2157C85.0566 52.4739 85.2534 52.6646 85.5072 52.788C85.7617 52.9112 86.0621 52.9729 86.4092 52.9729C86.7562 52.9729 87.0551 52.9112 87.3052 52.788C87.5597 52.6646 87.7566 52.4739 87.8949 52.2157C88.034 51.9537 88.1028 51.6204 88.1028 51.2158V45.5919ZM91.7159 45.5919H93.0108L95.4444 52.0827L97.8721 45.5919H99.167L95.9535 54.0075H94.9242L91.7159 45.5919ZM91.1262 45.5919H92.3574L92.5713 51.2101V54.0075H91.1262V45.5919ZM98.5255 45.5919H99.7626V54.0075H98.3116V51.2101L98.5255 45.5919ZM104.642 50.2043H102.497L102.486 49.1466H104.358C104.674 49.1466 104.942 49.1004 105.162 49.0079C105.385 48.9116 105.555 48.7748 105.67 48.5975C105.786 48.4164 105.844 48.1987 105.844 47.9444C105.844 47.6631 105.79 47.4338 105.682 47.2566C105.574 47.0793 105.408 46.9502 105.185 46.8693C104.965 46.7884 104.684 46.7479 104.341 46.7479H102.936V54.0075H101.485V45.5919H104.341C104.804 45.5919 105.216 45.6363 105.578 45.7249C105.944 45.8135 106.255 45.9522 106.509 46.141C106.767 46.326 106.961 46.561 107.092 46.8462C107.228 47.1313 107.295 47.4704 107.295 47.8634C107.295 48.2103 107.212 48.5282 107.046 48.8171C106.881 49.1023 106.636 49.3354 106.312 49.5165C105.988 49.6976 105.586 49.8055 105.104 49.8402L104.642 50.2043ZM104.578 54.0075H102.04L102.693 52.8573H104.578C104.906 52.8573 105.179 52.8033 105.399 52.6955C105.618 52.5837 105.783 52.4315 105.89 52.2389C106.002 52.0424 106.058 51.8131 106.058 51.551C106.058 51.2774 106.01 51.0405 105.914 50.8401C105.817 50.6359 105.665 50.4798 105.456 50.3719C105.248 50.2602 104.977 50.2043 104.642 50.2043H103.012L103.023 49.1466H105.145L105.474 49.5454C105.937 49.5608 106.316 49.6629 106.613 49.8517C106.913 50.0405 107.137 50.2853 107.283 50.5858C107.43 50.8863 107.503 51.21 107.503 51.5568C107.503 52.0924 107.385 52.5413 107.15 52.9035C106.919 53.2657 106.585 53.5412 106.15 53.7301C105.715 53.915 105.191 54.0075 104.578 54.0075ZM110.514 45.5919V54.0075H109.063V45.5919H110.514ZM118.995 45.5919V54.0075H117.544L113.769 47.9791V54.0075H112.318V45.5919H113.769L117.556 51.632V45.5919H118.995ZM127.187 49.7072V52.9208C127.067 53.0789 126.88 53.2523 126.626 53.4411C126.375 53.626 126.042 53.7859 125.625 53.9208C125.209 54.0556 124.691 54.123 124.071 54.123C123.542 54.123 123.058 54.0345 122.62 53.8572C122.18 53.6761 121.801 53.4121 121.481 53.0654C121.165 52.7186 120.92 52.2966 120.747 51.7995C120.573 51.2986 120.486 50.7283 120.486 50.0887V49.505C120.486 48.8692 120.566 48.3027 120.723 47.8057C120.885 47.3047 121.117 46.8809 121.417 46.534C121.718 46.1873 122.08 45.9252 122.504 45.748C122.932 45.5669 123.415 45.4764 123.955 45.4764C124.645 45.4764 125.215 45.5919 125.666 45.8231C126.121 46.0505 126.471 46.3665 126.718 46.7711C126.965 47.1756 127.121 47.638 127.187 48.1583H125.764C125.718 47.8654 125.627 47.6034 125.493 47.3721C125.361 47.141 125.172 46.9599 124.926 46.8289C124.683 46.694 124.367 46.6265 123.978 46.6265C123.643 46.6265 123.348 46.6901 123.093 46.8172C122.839 46.9444 122.627 47.1313 122.458 47.378C122.292 47.6245 122.167 47.9251 122.082 48.2796C121.997 48.6341 121.955 49.0387 121.955 49.4934V50.0887C121.955 50.5511 122.003 50.9615 122.1 51.3198C122.199 51.6782 122.342 51.9807 122.527 52.2273C122.716 52.4739 122.945 52.6608 123.215 52.788C123.485 52.9112 123.789 52.9729 124.128 52.9729C124.46 52.9729 124.731 52.9459 124.943 52.892C125.155 52.8342 125.323 52.7667 125.446 52.6897C125.573 52.6088 125.672 52.5317 125.741 52.4584V50.788H123.989V49.7072H127.187ZM133.042 49.4298L134.493 48.453C134.736 48.2911 134.909 48.1332 135.013 47.9791C135.117 47.821 135.17 47.6245 135.17 47.3895C135.17 47.1892 135.093 47.0042 134.938 46.8346C134.784 46.6651 134.567 46.5803 134.285 46.5803C134.089 46.5803 133.923 46.6265 133.787 46.719C133.653 46.8076 133.551 46.9271 133.481 47.0774C133.416 47.2238 133.383 47.3876 133.383 47.5687C133.383 47.742 133.428 47.9212 133.516 48.1062C133.605 48.2873 133.726 48.478 133.881 48.6784C134.035 48.8749 134.208 49.0869 134.401 49.3142L138.378 54.0075H136.765L133.516 50.1869C133.235 49.8479 132.986 49.5377 132.771 49.2564C132.555 48.9713 132.387 48.6957 132.268 48.4298C132.148 48.1602 132.089 47.8827 132.089 47.5975C132.089 47.1583 132.179 46.7807 132.36 46.4647C132.541 46.1487 132.797 45.906 133.129 45.7364C133.46 45.563 133.847 45.4764 134.291 45.4764C134.718 45.4764 135.087 45.563 135.395 45.7364C135.707 45.906 135.946 46.1314 136.112 46.4127C136.281 46.694 136.366 47.0022 136.366 47.3375C136.366 47.6034 136.318 47.8461 136.222 48.0658C136.125 48.2854 135.992 48.4858 135.822 48.6668C135.653 48.8479 135.457 49.0194 135.233 49.1813L133.47 50.4644C133.266 50.6301 133.113 50.79 133.013 50.9442C132.917 51.0944 132.853 51.2331 132.823 51.3603C132.791 51.4875 132.776 51.5992 132.776 51.6955C132.776 51.9421 132.828 52.1656 132.932 52.366C133.04 52.5664 133.196 52.7263 133.4 52.8457C133.608 52.9613 133.861 53.0192 134.157 53.0192C134.478 53.0192 134.788 52.9478 135.088 52.8053C135.389 52.6589 135.659 52.4527 135.898 52.1868C136.137 51.9209 136.325 51.603 136.464 51.2331C136.607 50.8632 136.678 50.4528 136.678 50.002H137.881C137.881 50.4104 137.84 50.7977 137.759 51.1637C137.682 51.5298 137.557 51.8689 137.383 52.181C137.214 52.4931 136.991 52.7725 136.713 53.0192C136.686 53.0461 136.655 53.0808 136.621 53.1232C136.59 53.1617 136.558 53.1944 136.528 53.2214C136.197 53.5259 135.824 53.7531 135.412 53.9035C135.004 54.0499 134.568 54.123 134.106 54.123C133.547 54.123 133.063 54.021 132.655 53.8168C132.246 53.6125 131.93 53.3312 131.707 52.9729C131.487 52.6145 131.377 52.2042 131.377 51.7418C131.377 51.3989 131.448 51.0983 131.591 50.8401C131.733 50.5781 131.928 50.3353 132.175 50.1118C132.425 49.8845 132.715 49.6571 133.042 49.4298ZM142.285 45.5919H145.262C145.902 45.5919 146.448 45.6883 146.898 45.8809C147.35 46.0736 147.694 46.3588 147.933 46.7364C148.176 47.1101 148.297 47.5725 148.297 48.1236C148.297 48.5436 148.22 48.9135 148.066 49.2333C147.912 49.5531 147.694 49.8229 147.413 50.0425C147.131 50.2583 146.796 50.4259 146.407 50.5453L145.967 50.7592H143.291L143.28 49.609H145.286C145.632 49.609 145.921 49.5474 146.152 49.424C146.384 49.3007 146.557 49.1331 146.673 48.9212C146.792 48.7054 146.852 48.4626 146.852 48.1929C146.852 47.9001 146.795 47.6457 146.678 47.43C146.567 47.2103 146.394 47.0427 146.158 46.9271C145.924 46.8076 145.625 46.7479 145.262 46.7479H143.736V54.0075H142.285V45.5919ZM147.089 54.0075L145.112 50.2274L146.633 50.2216L148.638 53.9323V54.0075H147.089ZM155.251 52.8573V54.0075H150.783V52.8573H155.251ZM151.193 45.5919V54.0075H149.742V45.5919H151.193ZM154.667 49.1061V50.2389H150.783V49.1061H154.667ZM155.222 45.5919V46.7479H150.783V45.5919H155.222ZM159.633 50.869H157.442V49.7188H159.633C160.015 49.7188 160.323 49.6572 160.558 49.5338C160.793 49.4106 160.965 49.241 161.073 49.0252C161.185 48.8056 161.24 48.5551 161.24 48.2738C161.24 48.0079 161.185 47.7594 161.073 47.5282C160.965 47.2932 160.793 47.1044 160.558 46.9618C160.323 46.8192 160.015 46.7479 159.633 46.7479H157.888V54.0075H156.437V45.5919H159.633C160.284 45.5919 160.838 45.7075 161.292 45.9388C161.751 46.166 162.1 46.482 162.338 46.8866C162.577 47.2874 162.697 47.7459 162.697 48.2623C162.697 48.8056 162.577 49.2718 162.338 49.661C162.1 50.0501 161.751 50.3488 161.292 50.5569C160.838 50.765 160.284 50.869 159.633 50.869ZM166.397 46.7132L163.882 54.0075H162.362L165.53 45.5919H166.5L166.397 46.7132ZM168.501 54.0075L165.98 46.7132L165.871 45.5919H166.847L170.027 54.0075H168.501ZM168.379 50.8863V52.0365H163.801V50.8863H168.379ZM172.518 45.5919V54.0075H171.067V45.5919H172.518ZM174.322 45.5919H177.299C177.939 45.5919 178.484 45.6883 178.935 45.8809C179.386 46.0736 179.731 46.3588 179.97 46.7364C180.213 47.1101 180.334 47.5725 180.334 48.1236C180.334 48.5436 180.257 48.9135 180.102 49.2333C179.948 49.5531 179.731 49.8229 179.449 50.0425C179.168 50.2583 178.833 50.4259 178.443 50.5453L178.004 50.7592H175.328L175.317 49.609H177.322C177.669 49.609 177.958 49.5474 178.189 49.424C178.421 49.3007 178.594 49.1331 178.709 48.9212C178.829 48.7054 178.889 48.4626 178.889 48.1929C178.889 47.9001 178.831 47.6457 178.715 47.43C178.603 47.2103 178.43 47.0427 178.195 46.9271C177.96 46.8076 177.661 46.7479 177.299 46.7479H175.773V54.0075H174.322V45.5919ZM179.126 54.0075L177.149 50.2274L178.669 50.2216L180.675 53.9323V54.0075H179.126ZM183.328 45.5919V54.0075H181.877V45.5919H183.328ZM191.809 45.5919V54.0075H190.358L186.583 47.9791V54.0075H185.132V45.5919H186.583L190.369 51.632V45.5919H191.809ZM200 49.7072V52.9208C199.88 53.0789 199.693 53.2523 199.439 53.4411C199.189 53.626 198.855 53.7859 198.439 53.9208C198.023 54.0556 197.504 54.123 196.884 54.123C196.356 54.123 195.872 54.0345 195.433 53.8572C194.993 53.6761 194.614 53.4121 194.294 53.0654C193.978 52.7186 193.733 52.2966 193.56 51.7995C193.386 51.2986 193.3 50.7283 193.3 50.0887V49.505C193.3 48.8692 193.379 48.3027 193.537 47.8057C193.699 47.3047 193.93 46.8809 194.231 46.534C194.531 46.1873 194.894 45.9252 195.317 45.748C195.745 45.5669 196.229 45.4764 196.768 45.4764C197.458 45.4764 198.029 45.5919 198.479 45.8231C198.934 46.0505 199.285 46.3665 199.531 46.7711C199.778 47.1756 199.934 47.638 200 48.1583H198.578C198.531 47.8654 198.441 47.6034 198.306 47.3721C198.175 47.141 197.986 46.9599 197.739 46.8289C197.497 46.694 197.181 46.6265 196.791 46.6265C196.456 46.6265 196.161 46.6901 195.907 46.8172C195.653 46.9444 195.44 47.1313 195.271 47.378C195.105 47.6245 194.98 47.9251 194.895 48.2796C194.811 48.6341 194.768 49.0387 194.768 49.4934V50.0887C194.768 50.5511 194.817 50.9615 194.913 51.3198C195.013 51.6782 195.155 51.9807 195.34 52.2273C195.529 52.4739 195.758 52.6608 196.029 52.788C196.298 52.9112 196.603 52.9729 196.942 52.9729C197.273 52.9729 197.545 52.9459 197.757 52.892C197.969 52.8342 198.137 52.7667 198.259 52.6897C198.387 52.6088 198.485 52.5317 198.555 52.4584V50.788H196.803V49.7072H200Z" fill="#E83A15"/>
<path fill-rule="evenodd" clip-rule="evenodd" d="M4.33156 13.9489L27.1188 0.798127C28.963 -0.266042 31.0742 -0.266042 32.9193 0.798127L55.7066 13.9489C57.5517 15.0139 58.6078 16.8423 58.6078 18.9725V25.8941H58.6417H59.0564C59.5968 25.8941 60.0381 26.3363 60.0381 26.8757V27.0106C60.0381 27.551 59.5959 27.9922 59.0564 27.9922H58.8482H58.6408H58.6078V29.1389C59.6235 29.1904 60.4372 30.0361 60.4372 31.0636V37.5697C60.4372 38.5972 59.6225 39.4431 58.6078 39.4944V40.6411H58.6417H59.0564C59.5968 40.6411 60.0381 41.0833 60.0381 41.6227V41.7576C60.0381 42.297 59.5959 42.7392 59.0564 42.7392H58.8482H58.6408H58.6078V50.8783C58.6078 54.0735 56.002 56.6789 52.8064 56.6789H43.3064V50.8792V50.8783H50.7768C51.8952 50.8783 52.8073 49.9664 52.8073 48.8481V42.7392H52.3586C51.8191 42.7392 51.3768 42.297 51.3768 41.7576V41.6227C51.3768 41.0833 51.8191 40.6411 52.3586 40.6411H52.8073V39.4944C51.7925 39.4431 50.9777 38.5972 50.9777 37.5697V31.0636C50.9777 30.0361 51.7925 29.1913 52.8073 29.1389V27.9922H52.3586C51.8191 27.9922 51.3768 27.551 51.3768 27.0106V26.8757C51.3768 26.3363 51.8191 25.8941 52.3586 25.8941H52.8073V20.144C52.8073 19.3981 52.4375 18.7578 51.7915 18.3853C44.8726 14.3929 37.9528 10.3995 31.0339 6.40703C30.3888 6.03457 29.6493 6.03457 29.0043 6.40703L8.24752 18.3863C7.60156 18.7587 7.23181 19.399 7.23181 20.1449V33.4663H7.26576H7.68044C8.22088 33.4663 8.66218 33.9085 8.66218 34.4479V34.5828C8.66218 35.1231 8.22088 35.5644 7.68044 35.5644H7.47223H7.26484H7.23181V48.8481C7.23181 49.9664 8.14378 50.8783 9.26226 50.8783H13.7746V50.859V50.4444C13.7746 49.904 14.2168 49.4628 14.7563 49.4628H14.8912C15.4316 49.4628 15.8729 49.904 15.8729 50.4444V50.6526V50.8599V50.8783H17.8602C18.0199 50.8783 18.1502 51.0086 18.1502 51.1681V56.3881C18.1502 56.5477 18.0199 56.678 17.8602 56.678H15.8729V57.1413C15.8729 57.6807 15.4307 58.1229 14.8912 58.1229H14.7563C14.2168 58.1229 13.7746 57.6807 13.7746 57.1413V56.678H7.23181C4.03704 56.678 1.4304 54.0726 1.4304 50.8774V35.5634H0.981735C0.44224 35.5634 0 35.1222 0 34.5818V34.447C0 33.9075 0.44224 33.4654 0.981735 33.4654H1.4304V18.9725C1.4304 16.8423 2.48645 15.0139 4.33156 13.9489Z" fill="#E83A15"/>
<path fill-rule="evenodd" clip-rule="evenodd" d="M24.7453 58.3266C24.9791 57.1143 25.5984 55.7561 26.6362 54.702C27.4838 53.8394 28.6098 53.1758 30.0313 52.9483C30.1113 52.9353 30.1859 52.9516 30.2523 52.994C30.3178 53.038 30.3569 53.0975 30.3668 53.17L30.3896 53.3323C30.4087 53.4685 30.3059 53.594 30.1559 53.6184C28.9262 53.8182 27.9476 54.3979 27.2055 55.152C26.2669 56.1066 25.7048 57.3369 25.4929 58.4359C25.4665 58.5721 25.3256 58.6649 25.1728 58.6479L24.9909 58.6266C24.9109 58.6169 24.8454 58.5826 24.7962 58.5239C24.749 58.4644 24.7317 58.3983 24.7453 58.3266ZM35.6228 45.5H36.615C36.7933 45.5 36.9397 45.6304 36.9397 45.7911V46.6104C37.6291 46.3846 38.795 46.2362 40.1165 46.2362C42.2347 46.2362 43.9518 46.6169 43.9518 47.0873C43.9518 47.5569 42.2347 47.9384 40.1165 47.9384C38.795 47.9384 37.6291 47.7901 36.9397 47.5634V50.2547H38.3039C38.5877 50.2547 38.8196 50.4617 38.8196 50.7161V51.1441H41.9201V50.7756C41.9201 50.2954 42.3584 49.9032 42.8932 49.9032H43.0268C43.5626 49.9032 44 50.2954 44 50.7756V50.9607V51.1449V56.3162V56.727C44 57.2065 43.5626 57.5994 43.0268 57.5994H42.8932C42.3584 57.5994 41.9201 57.2065 41.9201 56.727V56.3153H35.0798C30.6579 56.3153 28.7698 58.0935 28.7698 61.9717V62.2423C28.7698 62.3842 28.6406 62.5 28.4824 62.5H23.2874C23.1292 62.5 23 62.3842 23 62.2423V61.9717C23 54.8193 27.3592 51.2851 33.1335 51.2851V50.7153C33.1335 50.4609 33.3654 50.2538 33.6492 50.2538H35.299V47.5406C34.6232 47.7828 33.4146 47.945 32.0367 47.945C29.9185 47.945 28.2014 47.5634 28.2014 47.0931C28.2014 46.6234 29.9185 46.2419 32.0367 46.2419C33.4154 46.2419 34.6232 46.4033 35.299 46.6455V45.7894C35.2981 45.6304 35.4436 45.5 35.6228 45.5Z" fill="#00045F"/>
<path fill-rule="evenodd" clip-rule="evenodd" d="M24.8419 68.7887C23.5098 67.2953 25.338 65.578 25.3622 64.5798C25.6244 66.4837 24.1956 66.5758 24.8419 68.7887ZM24.0017 67.5816C23.9456 65.8222 25.327 64.3649 26 62C26.6731 64.3649 28.054 65.8222 27.9984 67.5816C27.8957 70.8061 24.1039 70.8061 24.0017 67.5816Z" fill="#00045F"/>
<path fill-rule="evenodd" clip-rule="evenodd" d="M26.4563 27.262L26.8287 26.7731L27.0802 26.9648L26.8683 27.2437L28.1381 28.2106L28.3849 27.8868L28.65 28.0886L28.2142 28.6602L26.4279 27.2997L26.4563 27.262ZM41.7503 41.6091C41.5209 41.9091 41.6832 42.4173 42.1099 42.7429C42.5375 43.0686 43.0696 43.0897 43.299 42.7888C43.5284 42.4888 43.3669 41.9806 42.9393 41.6549C42.5118 41.3293 41.9796 41.3091 41.7503 41.6091ZM30.0465 30.4756C29.1959 29.8142 29.2666 29.2033 29.5979 28.8115L29.9501 29.0794C31.442 30.216 33.1165 28.2115 31.5319 27.0043L29.9657 25.8117L30.3117 25.3576L29.0418 24.3906L28.6831 24.8612L28.4317 24.6695C28.6207 24.4081 28.4556 23.5806 27.7848 22.7265C26.8637 21.5531 25.2122 20.422 24.2551 21.4825C22.7569 20.3403 22.2027 19.9532 20.8026 18.8863C18.3758 18.3763 16.7903 20.1862 16.3472 24.3567L17.2399 25.0365L19.8548 21.4485C19.9337 21.5614 20.1411 21.6779 20.2566 21.765L22.3421 23.3549L21.7238 23.964L21.1164 23.5017L19.5135 26.6685L20.4612 27.1538L27.4784 32.4957L27.8271 32.2215L22.5973 28.2372C22.4596 28.1317 22.4321 27.9327 22.5376 27.7941L22.6862 27.5987C22.7917 27.4611 22.9908 27.4336 23.1284 27.54L28.5381 31.6619L30.0465 30.4756ZM41.8135 43.7933C43.6852 45.219 45.8414 42.3897 43.9688 40.9642L33.0119 32.6196L30.1282 34.8892L41.8135 43.7933Z" fill="#0052DA"/>
<path fill-rule="evenodd" clip-rule="evenodd" d="M19.9384 40.6779L18.8392 40.255L17.74 39.832L16.8235 40.5724L15.9068 41.3127L16.0895 42.4759L16.273 43.6392L17.373 44.063L18.4722 44.4869L19.3888 43.7456L20.3054 43.0053L20.1219 41.8421L19.9384 40.6779ZM42.555 19.8642C41.465 19.6028 40.4006 19.7275 39.3327 20.5908C38.2647 21.454 37.6921 23.1145 38.0831 24.508L37.8913 24.663L37.6032 24.8951L19.3429 39.2624C18.3052 38.8193 17.2702 38.7835 16.1252 39.7091C14.9793 40.6347 14.5618 42.7851 15.6545 44.1383C16.7482 45.4914 18.9392 45.5345 20.0843 44.6089C21.2303 43.6832 21.4119 42.664 21.1972 41.5567L39.9364 26.8024C41.2172 27.4767 42.9605 27.2666 44.0285 26.4033C45.0965 25.5401 45.4424 24.5254 45.4158 23.4062L42.8559 25.4612L41.6054 24.9951L40.4126 24.5208L40.1906 23.2053L40.0052 21.9356L42.555 19.8642Z" fill="#0052DA"/>
</svg>
