<svg width="150" height="54" viewBox="0 0 150 54" fill="none" xmlns="http://www.w3.org/2000/svg">
<path d="M55.5044 20.9874V17.7403H58.9228C59.3463 17.7403 59.7286 17.6589 60.0705 17.4962C60.4284 17.3171 60.7137 17.0567 60.9251 16.7149C61.1365 16.3731 61.2425 15.9499 61.2425 15.4454C61.2425 14.9408 61.1365 14.5176 60.9251 14.1758C60.7137 13.8178 60.4284 13.5573 60.0705 13.3946C59.7286 13.2155 59.3463 13.126 58.9228 13.126H55.5044V9.87891H59.6798C60.7869 9.87891 61.788 10.1068 62.6831 10.5625C63.5783 11.002 64.2864 11.6367 64.8075 12.4668C65.3286 13.2806 65.5888 14.2735 65.5888 15.4454C65.5888 16.5847 65.3286 17.5776 64.8075 18.4239C64.2864 19.254 63.5783 19.8888 62.6831 20.3282C61.788 20.7677 60.7869 20.9874 59.6798 20.9874H55.5044ZM52.0371 27.1886V9.87891H56.4078V27.1886H52.0371ZM67.5128 27.1886V9.87891H71.8836V27.1886H67.5128ZM70.9801 27.1886V23.4288H79.3309V27.1886H70.9801ZM87.9003 27.4572C86.4353 27.4572 85.1412 27.156 84.0179 26.5538C82.9114 25.9353 82.0485 25.0808 81.4297 23.9903C80.8115 22.8999 80.5018 21.6628 80.5018 20.2794V9.87891H84.8481V20.5968C84.8481 21.2153 84.9786 21.7524 85.2388 22.2081C85.5157 22.6476 85.882 22.9894 86.3376 23.2335C86.8099 23.4614 87.331 23.5753 87.9003 23.5753C88.4864 23.5753 88.9991 23.4614 89.4386 23.2335C89.8782 22.9894 90.2283 22.6476 90.4886 22.2081C90.7494 21.7686 90.8793 21.2397 90.8793 20.6212V9.87891H95.2744V20.3038C95.2744 21.6872 94.9653 22.9243 94.3466 24.0148C93.7283 25.089 92.8654 25.9353 91.7583 26.5538C90.6678 27.156 89.382 27.4572 87.9003 27.4572ZM98.0586 27.1886V9.87891H101.208L107.85 19.9132H106.361L112.978 9.87891H116.128V27.1886H111.806V17.1055L112.489 17.3008L108.509 23.2823H105.677L101.721 17.3008L102.405 17.1055V27.1886H98.0586ZM119.209 27.1886V9.87891H123.58V27.1886H119.209ZM122.676 27.1886V23.5021H132.053V27.1886H122.676ZM122.676 20.1573V16.5684H131.174V20.1573H122.676ZM122.676 13.5655V9.87891H131.906V13.5655H122.676ZM137.985 20.1817V17.0567H141.281C141.998 17.0567 142.543 16.8858 142.917 16.544C143.308 16.1859 143.503 15.7058 143.503 15.1036C143.503 14.5176 143.308 14.0456 142.917 13.6875C142.543 13.3132 141.998 13.126 141.281 13.126H137.985V9.87891H141.892C143.064 9.87891 144.089 10.0986 144.969 10.5381C145.864 10.9775 146.564 11.5797 147.068 12.3447C147.573 13.1097 147.825 14.0049 147.825 15.0303C147.825 16.0557 147.565 16.959 147.044 17.7403C146.54 18.5053 145.831 19.1075 144.92 19.547C144.008 19.9702 142.942 20.1817 141.721 20.1817H137.985ZM134.518 27.1886V9.87891H138.889V27.1886H134.518ZM143.894 27.1886L138.864 19.7667L142.795 18.8145L148.949 27.1886H143.894Z" fill="white"/>
<path d="M54.6481 38.1519H53.0049V37.2892H54.6481C54.9342 37.2892 55.1654 37.243 55.3417 37.1505C55.5179 37.0581 55.6466 36.9309 55.7277 36.769C55.8114 36.6043 55.8531 36.4165 55.8531 36.2055C55.8531 36.0061 55.8114 35.8197 55.7277 35.6463C55.6466 35.47 55.5179 35.3284 55.3417 35.2215C55.1654 35.1146 54.9342 35.0611 54.6481 35.0611H53.3387V40.5057H52.2505V34.1941H54.6481C55.1365 34.1941 55.5512 34.2808 55.8925 34.4542C56.2365 34.6247 56.4979 34.8617 56.6772 35.1651C56.8564 35.4657 56.9458 35.8096 56.9458 36.1968C56.9458 36.6043 56.8564 36.954 56.6772 37.2459C56.4979 37.5377 56.2365 37.7617 55.8925 37.9178C55.5512 38.0739 55.1365 38.1519 54.6481 38.1519ZM61.8753 39.6431V40.5057H58.706V39.6431H61.8753ZM59.0096 34.1941V40.5057H57.9213V34.1941H59.0096ZM66.0762 34.1941H67.16V38.412C67.16 38.8917 67.0563 39.2934 66.8482 39.6171C66.6401 39.9408 66.357 40.185 65.9985 40.3497C65.6428 40.5115 65.2455 40.5924 64.806 40.5924C64.3526 40.5924 63.9475 40.5115 63.5923 40.3497C63.2366 40.185 62.9563 39.9408 62.751 39.6171C62.549 39.2934 62.4475 38.8917 62.4475 38.412V34.1941H63.5313V38.412C63.5313 38.7154 63.5834 38.9654 63.6878 39.1619C63.7915 39.3555 63.9391 39.4986 64.1295 39.5911C64.3204 39.6835 64.5457 39.7298 64.806 39.7298C65.0662 39.7298 65.2904 39.6835 65.478 39.5911C65.6689 39.4986 65.8165 39.3555 65.9203 39.1619C66.0246 38.9654 66.0762 38.7154 66.0762 38.412V34.1941ZM68.786 34.1941H69.7572L71.5824 39.0622L73.4032 34.1941H74.3743L71.9642 40.5057H71.1923L68.786 34.1941ZM68.3437 34.1941H69.2672L69.4275 38.4077V40.5057H68.3437V34.1941ZM73.8932 34.1941H74.821V40.5057H73.7328V38.4077L73.8932 34.1941ZM78.4803 37.6534H76.8715L76.8632 36.8601H78.2678C78.5047 36.8601 78.7056 36.8254 78.8705 36.756C79.038 36.6838 79.1651 36.5812 79.2517 36.4482C79.3388 36.3124 79.3821 36.1491 79.3821 35.9584C79.3821 35.7475 79.3416 35.5755 79.2606 35.4425C79.1796 35.3096 79.0553 35.2128 78.8877 35.1521C78.7228 35.0914 78.512 35.0611 78.255 35.0611H77.2012V40.5057H76.1129V34.1941H78.255C78.6019 34.1941 78.911 34.2273 79.1829 34.2938C79.457 34.3603 79.6901 34.4643 79.8805 34.6059C80.0741 34.7446 80.2201 34.9209 80.3183 35.1348C80.4199 35.3486 80.4704 35.603 80.4704 35.8977C80.4704 36.1578 80.4082 36.3963 80.2839 36.613C80.1596 36.8268 79.9759 37.0017 79.7334 37.1375C79.4903 37.2733 79.1884 37.3542 78.8272 37.3803L78.4803 37.6534ZM78.4326 40.5057H76.5292L77.0192 39.6431H78.4326C78.6784 39.6431 78.8832 39.6026 79.048 39.5217C79.2129 39.4379 79.336 39.3237 79.4165 39.1793C79.5003 39.0319 79.5425 38.8599 79.5425 38.6634C79.5425 38.4582 79.5064 38.2805 79.4343 38.1302C79.3616 37.977 79.2478 37.86 79.0913 37.779C78.9354 37.6953 78.7317 37.6534 78.4803 37.6534H77.2578L77.2661 36.8601H78.8577L79.1046 37.1592C79.4515 37.1707 79.7362 37.2473 79.9587 37.3889C80.184 37.5305 80.3516 37.7141 80.4615 37.9395C80.5714 38.1648 80.6263 38.4077 80.6263 38.6677C80.6263 39.0695 80.5381 39.4061 80.3616 39.6778C80.1884 39.9494 79.9382 40.1561 79.6119 40.2977C79.285 40.4364 78.8921 40.5057 78.4326 40.5057ZM82.8849 34.1941V40.5057H81.7967V34.1941H82.8849ZM89.2451 34.1941V40.5057H88.1569L85.3261 35.9844V40.5057H84.2379V34.1941H85.3261L88.1658 38.7241V34.1941H89.2451ZM95.3889 37.2806V39.6907C95.299 39.8093 95.1591 39.9393 94.9682 40.0809C94.7801 40.2196 94.5304 40.3395 94.218 40.4407C93.9061 40.5419 93.5171 40.5924 93.052 40.5924C92.6558 40.5924 92.2929 40.526 91.9638 40.393C91.6341 40.2572 91.3495 40.0592 91.1097 39.7992C90.8728 39.539 90.6891 39.2226 90.5592 38.8498C90.4288 38.4741 90.3639 38.0464 90.3639 37.5666V37.1289C90.3639 36.652 90.4233 36.2272 90.5415 35.8544C90.663 35.4787 90.8367 35.1608 91.062 34.9007C91.2873 34.6406 91.5592 34.4441 91.8767 34.3111C92.198 34.1753 92.5603 34.1074 92.9649 34.1074C93.4827 34.1074 93.9105 34.1941 94.2485 34.3675C94.5898 34.538 94.8523 34.775 95.0376 35.0784C95.2224 35.3818 95.3395 35.7286 95.3889 36.1188H94.3223C94.2873 35.8992 94.2196 35.7027 94.1186 35.5292C94.0199 35.3559 93.8783 35.22 93.6935 35.1218C93.5115 35.0206 93.2746 34.97 92.9827 34.97C92.7313 34.97 92.5098 35.0177 92.3189 35.1131C92.1286 35.2084 91.9693 35.3486 91.8423 35.5336C91.7179 35.7185 91.6242 35.9439 91.5603 36.2098C91.4971 36.4757 91.4649 36.7792 91.4649 37.1201V37.5666C91.4649 37.9134 91.501 38.2212 91.5737 38.49C91.6486 38.7588 91.7557 38.9856 91.8944 39.1706C92.0359 39.3555 92.208 39.4957 92.41 39.5911C92.6125 39.6835 92.8406 39.7298 93.0953 39.7298C93.3439 39.7298 93.5476 39.7096 93.7063 39.6691C93.8656 39.6258 93.991 39.5752 94.0837 39.5174C94.1791 39.4567 94.2529 39.3989 94.3051 39.3439V38.0912H92.991V37.2806H95.3889ZM99.7807 37.0725L100.869 36.3399C101.051 36.2185 101.181 36.1 101.259 35.9844C101.337 35.8659 101.376 35.7185 101.376 35.5423C101.376 35.392 101.318 35.2533 101.202 35.1261C101.087 34.9989 100.924 34.9353 100.712 34.9353C100.565 34.9353 100.441 34.97 100.34 35.0394C100.239 35.1059 100.162 35.1955 100.11 35.3082C100.061 35.418 100.037 35.5408 100.037 35.6766C100.037 35.8067 100.07 35.941 100.136 36.0798C100.202 36.2156 100.293 36.3586 100.409 36.509C100.525 36.6563 100.655 36.8153 100.8 36.9858L103.782 40.5057H102.573L100.136 37.6403C99.925 37.386 99.7385 37.1534 99.5771 36.9424C99.415 36.7286 99.289 36.5219 99.1997 36.3225C99.1098 36.1203 99.0654 35.9122 99.0654 35.6983C99.0654 35.3689 99.1331 35.0857 99.2691 34.8487C99.405 34.6117 99.597 34.4296 99.8456 34.3025C100.094 34.1724 100.385 34.1074 100.717 34.1074C101.038 34.1074 101.314 34.1724 101.545 34.3025C101.779 34.4296 101.958 34.5987 102.083 34.8097C102.21 35.0206 102.274 35.2518 102.274 35.5033C102.274 35.7027 102.237 35.8847 102.165 36.0495C102.093 36.2142 101.993 36.3645 101.866 36.5002C101.739 36.6361 101.592 36.7647 101.424 36.8861L100.101 37.8484C99.9483 37.9727 99.834 38.0926 99.7591 38.2082C99.6864 38.3209 99.6387 38.425 99.6159 38.5204C99.5926 38.6157 99.5809 38.6995 99.5809 38.7718C99.5809 38.9567 99.6203 39.1243 99.698 39.2746C99.7791 39.4249 99.8961 39.5448 100.049 39.6344C100.205 39.7211 100.394 39.7645 100.617 39.7645C100.857 39.7645 101.09 39.711 101.315 39.6041C101.541 39.4943 101.743 39.3396 101.922 39.1403C102.101 38.9408 102.243 38.7024 102.347 38.425C102.454 38.1475 102.508 37.8398 102.508 37.5016H103.409C103.409 37.808 103.379 38.0984 103.318 38.3729C103.261 38.6475 103.166 38.9018 103.037 39.1359C102.909 39.37 102.742 39.5795 102.534 39.7645C102.513 39.7847 102.491 39.8107 102.464 39.8425C102.441 39.8714 102.418 39.8959 102.395 39.9162C102.146 40.1445 101.867 40.315 101.558 40.4277C101.252 40.5375 100.925 40.5924 100.578 40.5924C100.159 40.5924 99.7963 40.5158 99.4899 40.3627C99.1836 40.2095 98.9466 39.9985 98.779 39.7298C98.6142 39.461 98.5321 39.1532 98.5321 38.8064C98.5321 38.5493 98.5854 38.3238 98.6925 38.1302C98.799 37.9337 98.945 37.7516 99.1303 37.584C99.3179 37.4135 99.5349 37.243 99.7807 37.0725ZM106.713 34.1941H108.946C109.426 34.1941 109.835 34.2663 110.173 34.4108C110.511 34.5553 110.77 34.7692 110.949 35.0524C111.131 35.3327 111.222 35.6795 111.222 36.0928C111.222 36.4078 111.164 36.6852 111.048 36.9251C110.933 37.165 110.77 37.3673 110.559 37.532C110.347 37.6938 110.096 37.8196 109.804 37.9091L109.474 38.0695H107.467L107.459 37.2069H108.963C109.223 37.2069 109.44 37.1606 109.613 37.0682C109.787 36.9757 109.917 36.85 110.004 36.691C110.093 36.5291 110.138 36.3471 110.138 36.1448C110.138 35.9252 110.095 35.7344 110.008 35.5726C109.924 35.4079 109.794 35.2821 109.618 35.1955C109.442 35.1059 109.218 35.0611 108.946 35.0611H107.801V40.5057H106.713V34.1941ZM110.316 40.5057L108.833 37.6707L109.973 37.6664L111.478 40.4494V40.5057H110.316ZM116.437 39.6431V40.5057H113.086V39.6431H116.437ZM113.394 34.1941V40.5057H112.306V34.1941H113.394ZM115.999 36.8297V37.6793H113.086V36.8297H115.999ZM116.416 34.1941V35.0611H113.086V34.1941H116.416ZM119.724 38.1519H118.081V37.2892H119.724C120.01 37.2892 120.241 37.243 120.417 37.1505C120.594 37.0581 120.723 36.9309 120.804 36.769C120.887 36.6043 120.929 36.4165 120.929 36.2055C120.929 36.0061 120.887 35.8197 120.804 35.6463C120.723 35.47 120.594 35.3284 120.417 35.2215C120.241 35.1146 120.01 35.0611 119.724 35.0611H118.415V40.5057H117.326V34.1941H119.724C120.212 34.1941 120.627 34.2808 120.968 34.4542C121.312 34.6247 121.574 34.8617 121.753 35.1651C121.932 35.4657 122.022 35.8096 122.022 36.1968C122.022 36.6043 121.932 36.954 121.753 37.2459C121.574 37.5377 121.312 37.7617 120.968 37.9178C120.627 38.0739 120.212 38.1519 119.724 38.1519ZM124.796 35.0351L122.91 40.5057H121.77L124.146 34.1941H124.874L124.796 35.0351ZM126.375 40.5057L124.484 35.0351L124.402 34.1941H125.134L127.519 40.5057H126.375ZM126.283 38.1648V39.0275H122.85V38.1648H126.283ZM129.388 34.1941V40.5057H128.299V34.1941H129.388ZM130.74 34.1941H132.973C133.453 34.1941 133.862 34.2663 134.2 34.4108C134.538 34.5553 134.797 34.7692 134.976 35.0524C135.158 35.3327 135.249 35.6795 135.249 36.0928C135.249 36.4078 135.192 36.6852 135.076 36.9251C134.96 37.165 134.797 37.3673 134.586 37.532C134.375 37.6938 134.123 37.8196 133.831 37.9091L133.502 38.0695H131.495L131.486 37.2069H132.99C133.25 37.2069 133.467 37.1606 133.641 37.0682C133.814 36.9757 133.944 36.85 134.031 36.691C134.121 36.5291 134.166 36.3471 134.166 36.1448C134.166 35.9252 134.122 35.7344 134.035 35.5726C133.951 35.4079 133.822 35.2821 133.645 35.1955C133.469 35.1059 133.245 35.0611 132.973 35.0611H131.829V40.5057H130.74V34.1941ZM134.343 40.5057L132.86 37.6707L134.001 37.6664L135.505 40.4494V40.5057H134.343ZM137.495 34.1941V40.5057H136.407V34.1941H137.495ZM143.855 34.1941V40.5057H142.767L139.936 35.9844V40.5057H138.848V34.1941H139.936L142.776 38.7241V34.1941H143.855ZM149.999 37.2806V39.6907C149.909 39.8093 149.769 39.9393 149.578 40.0809C149.39 40.2196 149.14 40.3395 148.828 40.4407C148.516 40.5419 148.127 40.5924 147.662 40.5924C147.266 40.5924 146.903 40.526 146.574 40.393C146.244 40.2572 145.959 40.0592 145.719 39.7992C145.483 39.539 145.299 39.2226 145.169 38.8498C145.039 38.4741 144.974 38.0464 144.974 37.5666V37.1289C144.974 36.652 145.033 36.2272 145.151 35.8544C145.273 35.4787 145.446 35.1608 145.672 34.9007C145.897 34.6406 146.169 34.4441 146.487 34.3111C146.808 34.1753 147.171 34.1074 147.575 34.1074C148.092 34.1074 148.52 34.1941 148.858 34.3675C149.2 34.538 149.463 34.775 149.647 35.0784C149.832 35.3818 149.949 35.7286 149.999 36.1188H148.932C148.897 35.8992 148.829 35.7027 148.728 35.5292C148.63 35.3559 148.489 35.22 148.303 35.1218C148.121 35.0206 147.884 34.97 147.592 34.97C147.341 34.97 147.12 35.0177 146.929 35.1131C146.738 35.2084 146.579 35.3486 146.452 35.5336C146.328 35.7185 146.234 35.9439 146.17 36.2098C146.107 36.4757 146.075 36.7792 146.075 37.1201V37.5666C146.075 37.9134 146.111 38.2212 146.183 38.49C146.258 38.7588 146.365 38.9856 146.504 39.1706C146.646 39.3555 146.818 39.4957 147.02 39.5911C147.222 39.6835 147.451 39.7298 147.705 39.7298C147.954 39.7298 148.157 39.7096 148.317 39.6691C148.475 39.6258 148.601 39.5752 148.693 39.5174C148.789 39.4567 148.863 39.3989 148.915 39.3439V38.0912H147.601V37.2806H149.999Z" fill="#E83A15"/>
<path fill-rule="evenodd" clip-rule="evenodd" d="M3.24768 10.4616L20.3381 0.598593C21.7212 -0.199531 23.3046 -0.199531 24.6885 0.598593L41.7788 10.4616C43.1626 11.2604 43.9547 12.6317 43.9547 14.2293V19.4205H43.9802H44.2912C44.6965 19.4205 45.0275 19.7522 45.0275 20.1567V20.2579C45.0275 20.6632 44.6958 20.9941 44.2912 20.9941H44.135H43.9795H43.9547V21.8541C44.7165 21.8927 45.3268 22.527 45.3268 23.2976V28.1772C45.3268 28.9478 44.7158 29.5822 43.9547 29.6207V30.4808H43.9802H44.2912C44.6965 30.4808 45.0275 30.8124 45.0275 31.217V31.3181C45.0275 31.7227 44.6958 32.0543 44.2912 32.0543H44.135H43.9795H43.9547V38.1586C43.9547 40.555 42.0004 42.5091 39.6037 42.5091H32.4788V38.1593V38.1586H38.0815C38.9203 38.1586 39.6043 37.4747 39.6043 36.636V32.0543H39.2678C38.8632 32.0543 38.5315 31.7227 38.5315 31.3181V31.217C38.5315 30.8124 38.8632 30.4808 39.2678 30.4808H39.6043V29.6207C38.8433 29.5822 38.2322 28.9478 38.2322 28.1772V23.2976C38.2322 22.527 38.8433 21.8934 39.6043 21.8541V20.9941H39.2678C38.8632 20.9941 38.5315 20.6632 38.5315 20.2579V20.1567C38.5315 19.7522 38.8632 19.4205 39.2678 19.4205H39.6043V15.1079C39.6043 14.5486 39.327 14.0683 38.8426 13.789C33.6534 10.7947 28.4635 7.79958 23.2743 4.80526C22.7906 4.52591 22.2359 4.52591 21.7522 4.80526L6.18465 13.7897C5.70018 14.069 5.42286 14.5492 5.42286 15.1087V25.0996H5.44832H5.75934C6.16467 25.0996 6.49564 25.4313 6.49564 25.8358V25.937C6.49564 26.3422 6.16467 26.6732 5.75934 26.6732H5.60318H5.44764H5.42286V36.636C5.42286 37.4747 6.10684 38.1586 6.94569 38.1586H10.3299V38.1442V37.8332C10.3299 37.4279 10.6616 37.097 11.0662 37.097H11.1674C11.5727 37.097 11.9037 37.4279 11.9037 37.8332V37.9894V38.1448V38.1586H13.3941C13.5139 38.1586 13.6116 38.2563 13.6116 38.376V42.2909C13.6116 42.4107 13.5139 42.5084 13.3941 42.5084H11.9037V42.8558C11.9037 43.2604 11.572 43.592 11.1674 43.592H11.0662C10.6616 43.592 10.3299 43.2604 10.3299 42.8558V42.5084H5.42286C3.02679 42.5084 1.07182 40.5544 1.07182 38.1579V26.6725H0.735322C0.330703 26.6725 -0.000976562 26.3415 -0.000976562 25.9363V25.8352C-0.000976562 25.4306 0.330703 25.099 0.735322 25.099H1.07182V14.2293C1.07182 12.6317 1.86386 11.2604 3.24768 10.4616Z" fill="#E83A15"/>
<path fill-rule="evenodd" clip-rule="evenodd" d="M17.9114 44.2194C18.0882 43.1963 18.5568 42.0501 19.342 41.1604C19.9833 40.4325 20.8353 39.8724 21.9108 39.6804C21.9713 39.6694 22.0278 39.6832 22.078 39.719C22.1275 39.7561 22.1571 39.8064 22.1647 39.8676L22.1819 40.0045C22.1964 40.1194 22.1186 40.2254 22.0051 40.246C21.0747 40.4146 20.3342 40.9038 19.7728 41.5402C19.0626 42.3459 18.6373 43.3842 18.477 44.3116C18.457 44.4266 18.3504 44.505 18.2348 44.4905L18.0972 44.4726C18.0366 44.4644 17.9871 44.4355 17.9499 44.3859C17.9141 44.3357 17.901 44.28 17.9114 44.2194ZM26.1414 33.3945H26.8921C27.027 33.3945 27.1378 33.5046 27.1378 33.6402V34.3317C27.6594 34.1411 28.5416 34.0158 29.5414 34.0158C31.1441 34.0158 32.4433 34.3371 32.4433 34.7342C32.4433 35.1304 31.1441 35.4524 29.5414 35.4524C28.5416 35.4524 27.6594 35.3273 27.1378 35.1359V37.4072H28.17C28.3847 37.4072 28.5602 37.5819 28.5602 37.7966V38.1578H30.906V37.8468C30.906 37.4416 31.2377 37.1106 31.6423 37.1106H31.7434C32.1488 37.1106 32.4797 37.4416 32.4797 37.8468V38.003V38.1585V42.5227V42.8695C32.4797 43.2741 32.1488 43.6057 31.7434 43.6057H31.6423C31.2377 43.6057 30.906 43.2741 30.906 42.8695V42.522H25.7306C22.3849 42.522 20.9563 44.0227 20.9563 47.2957V47.5241C20.9563 47.6438 20.8586 47.7415 20.7389 47.7415H16.8083C16.6885 47.7415 16.5908 47.6438 16.5908 47.5241V47.2957C16.5908 41.2595 19.8891 38.2768 24.258 38.2768V37.7959C24.258 37.5812 24.4334 37.4065 24.6482 37.4065H25.8964V35.1167C25.3851 35.321 24.4706 35.458 23.4281 35.458C21.8254 35.458 20.5263 35.1359 20.5263 34.739C20.5263 34.3426 21.8254 34.0206 23.4281 34.0206C24.4713 34.0206 25.3851 34.1569 25.8964 34.3612V33.6388C25.8957 33.5046 26.0058 33.3945 26.1414 33.3945Z" fill="white"/>
<path fill-rule="evenodd" clip-rule="evenodd" d="M17.8419 52.9401C16.5098 51.6334 18.338 50.1308 18.3622 49.2573C18.6244 50.9232 17.1956 51.0038 17.8419 52.9401ZM17.0017 51.8839C16.9456 50.3444 18.327 49.0693 19 47C19.6731 49.0693 21.054 50.3444 20.9984 51.8839C20.8957 54.7054 17.1039 54.7054 17.0017 51.8839Z" fill="white"/>
<path fill-rule="evenodd" clip-rule="evenodd" d="M19.8411 20.4471L20.1204 20.0804L20.309 20.2242L20.1501 20.4334L21.1024 21.1586L21.2875 20.9157L21.4864 21.0671L21.1595 21.4957L19.8198 20.4754L19.8411 20.4471ZM31.3115 31.2074C31.1395 31.4324 31.2613 31.8135 31.5812 32.0578C31.9019 32.302 32.3011 32.3178 32.4731 32.0922C32.6451 31.8672 32.524 31.486 32.2033 31.2418C31.8827 30.9975 31.4836 30.9824 31.3115 31.2074ZM22.5337 22.8573C21.8958 22.3612 21.9488 21.903 22.1973 21.6092L22.4615 21.8102C23.5804 22.6626 24.8362 21.1592 23.6478 20.2538L22.4732 19.3593L22.7326 19.0188L21.7802 18.2936L21.5112 18.6465L21.3226 18.5027C21.4644 18.3066 21.3405 17.686 20.8375 17.0455C20.1466 16.1655 18.908 15.3171 18.1902 16.1125C17.0665 15.2559 16.6509 14.9655 15.6008 14.1653C13.7807 13.7828 12.5916 15.1403 12.2593 18.2681L12.9288 18.778L14.89 16.087C14.9491 16.1717 15.1047 16.259 15.1914 16.3244L16.7555 17.5168L16.2917 17.9736L15.8362 17.6269L14.634 20.0019L15.3448 20.3659L20.6077 24.3724L20.8692 24.1667L16.9468 21.1785C16.8436 21.0994 16.823 20.9501 16.9021 20.8462L17.0135 20.6996C17.0927 20.5964 17.242 20.5758 17.3452 20.6556L21.4025 23.747L22.5337 22.8573ZM31.359 32.8456C32.7628 33.9148 34.3799 31.7929 32.9754 30.7237L24.7578 24.4653L22.595 26.1675L31.359 32.8456Z" fill="#0052DA"/>
<path fill-rule="evenodd" clip-rule="evenodd" d="M14.9529 30.508L14.1285 30.1908L13.3042 29.8736L12.6167 30.4289L11.9293 30.9841L12.0662 31.8565L12.2039 32.729L13.0289 33.0468L13.8533 33.3647L14.5407 32.8088L15.2282 32.2536L15.0906 31.3811L14.9529 30.508ZM31.9153 14.8978C31.0978 14.7017 30.2996 14.7952 29.4986 15.4427C28.6976 16.0901 28.2682 17.3355 28.5614 18.3806L28.4175 18.4969L28.2015 18.671L14.5063 29.4464C13.728 29.114 12.9518 29.0872 12.093 29.7814C11.2336 30.4756 10.9205 32.0884 11.74 33.1033C12.5603 34.1181 14.2035 34.1505 15.0623 33.4562C15.9218 32.762 16.0581 31.9976 15.897 31.1671L29.9514 20.1014C30.912 20.6071 32.2195 20.4495 33.0205 19.8021C33.8215 19.1547 34.0808 18.3937 34.0609 17.5543L32.141 19.0955L31.2031 18.746L30.3085 18.3902L30.142 17.4036L30.003 16.4514L31.9153 14.8978Z" fill="#0052DA"/>
</svg>
