<svg width="166" height="60" viewBox="0 0 166 60" fill="none" xmlns="http://www.w3.org/2000/svg">
<path d="M61.426 23.3193V19.7114H65.2091C65.6777 19.7114 66.1008 19.621 66.4791 19.4402C66.8753 19.2412 67.1909 18.9519 67.4249 18.5721C67.6589 18.1923 67.7762 17.7221 67.7762 17.1615C67.7762 16.6009 67.6589 16.1307 67.4249 15.7509C67.1909 15.3531 66.8753 15.0637 66.4791 14.8828C66.1008 14.6839 65.6777 14.5844 65.2091 14.5844H61.426V10.9766H66.0468C67.272 10.9766 68.3799 11.2298 69.3705 11.7361C70.3611 12.2244 71.1448 12.9297 71.7214 13.852C72.2981 14.7563 72.5861 15.8594 72.5861 17.1615C72.5861 18.4274 72.2981 19.5306 71.7214 20.471C71.1448 21.3933 70.3611 22.0986 69.3705 22.5869C68.3799 23.0752 67.272 23.3193 66.0468 23.3193H61.426ZM57.5889 30.2096V10.9766H62.4258V30.2096H57.5889ZM74.7154 30.2096V10.9766H79.5523V30.2096H74.7154ZM78.5525 30.2096V26.032H87.7941V30.2096H78.5525ZM97.2776 30.508C95.6563 30.508 94.2241 30.1734 92.9811 29.5043C91.7565 28.817 90.8015 27.8676 90.1167 26.6559C89.4326 25.4443 89.0899 24.0698 89.0899 22.5326V10.9766H93.8998V22.8853C93.8998 23.5725 94.0442 24.1693 94.3322 24.6757C94.6386 25.164 95.044 25.5437 95.5482 25.815C96.0708 26.0682 96.6475 26.1948 97.2776 26.1948C97.9261 26.1948 98.4936 26.0682 98.98 25.815C99.4664 25.5437 99.8539 25.164 100.142 24.6757C100.431 24.1874 100.574 23.5997 100.574 22.9124V10.9766H105.438V22.5598C105.438 24.0969 105.096 25.4714 104.411 26.6831C103.727 27.8767 102.772 28.817 101.547 29.5043C100.34 30.1734 98.9173 30.508 97.2776 30.508ZM108.519 30.2096V10.9766H112.005L119.355 22.1257H117.707L125.03 10.9766H128.516V30.2096H123.733V19.0061L124.489 19.2232L120.085 25.8693H116.95L112.573 19.2232L113.329 19.0061V30.2096H108.519ZM131.926 30.2096V10.9766H136.763V30.2096H131.926ZM135.763 30.2096V26.1134H146.14V30.2096H135.763ZM135.763 22.397V18.4093H145.167V22.397H135.763ZM135.763 15.0727V10.9766H145.978V15.0727H135.763ZM152.705 22.4241V18.9519H156.353C157.146 18.9519 157.749 18.762 158.163 18.3822C158.596 17.9844 158.812 17.4508 158.812 16.7817C158.812 16.1307 158.596 15.6062 158.163 15.2084C157.749 14.7924 157.146 14.5844 156.353 14.5844H152.705V10.9766H157.028C158.325 10.9766 159.46 11.2207 160.433 11.709C161.424 12.1973 162.199 12.8664 162.757 13.7164C163.315 14.5664 163.595 15.561 163.595 16.7003C163.595 17.8397 163.307 18.8434 162.73 19.7114C162.172 20.5614 161.388 21.2305 160.379 21.7188C159.37 22.1891 158.19 22.4241 156.839 22.4241H152.705ZM148.868 30.2096V10.9766H153.705V30.2096H148.868ZM159.244 30.2096L153.678 21.963L158.028 20.905L164.838 30.2096H159.244Z" fill="white"/>
<path d="M60.478 42.3903H58.6596V41.4318H60.478C60.7947 41.4318 61.0506 41.3804 61.2457 41.2777C61.4406 41.175 61.5831 41.0337 61.6728 40.8538C61.7655 40.6708 61.8116 40.4621 61.8116 40.2277C61.8116 40.0061 61.7655 39.799 61.6728 39.6063C61.5831 39.4105 61.4406 39.2531 61.2457 39.1343C61.0506 39.0155 60.7947 38.9561 60.478 38.9561H59.029V45.0057H57.8247V37.9928H60.478C61.0186 37.9928 61.4775 38.0891 61.8552 38.2818C62.2359 38.4712 62.5252 38.7345 62.7236 39.0717C62.9219 39.4057 63.0208 39.7878 63.0208 40.2181C63.0208 40.6708 62.9219 41.0594 62.7236 41.3837C62.5252 41.7079 62.2359 41.9568 61.8552 42.1302C61.4775 42.3036 61.0186 42.3903 60.478 42.3903ZM68.4762 44.0472V45.0057H64.9689V44.0472H68.4762ZM65.3048 37.9928V45.0057H64.1005V37.9928H65.3048ZM73.1252 37.9928H74.3247V42.6793C74.3247 43.2123 74.2098 43.6587 73.9795 44.0183C73.7492 44.378 73.436 44.6493 73.0393 44.8324C72.6456 45.0121 72.2059 45.102 71.7195 45.102C71.2177 45.102 70.7694 45.0121 70.3764 44.8324C69.9827 44.6493 69.6726 44.378 69.4453 44.0183C69.2218 43.6587 69.1094 43.2123 69.1094 42.6793V37.9928H70.3088V42.6793C70.3088 43.0165 70.3665 43.2943 70.482 43.5126C70.5968 43.7277 70.7602 43.8867 70.9708 43.9894C71.1821 44.0922 71.4314 44.1436 71.7195 44.1436C72.0075 44.1436 72.2556 44.0922 72.4632 43.9894C72.6745 43.8867 72.8378 43.7277 72.9527 43.5126C73.0681 43.2943 73.1252 43.0165 73.1252 42.6793V37.9928ZM76.1241 37.9928H77.1988L79.2187 43.4018L81.2337 37.9928H82.3085L79.6412 45.0057H78.787L76.1241 37.9928ZM75.6346 37.9928H76.6565L76.834 42.6745V45.0057H75.6346V37.9928ZM81.776 37.9928H82.8028V45.0057H81.5985V42.6745L81.776 37.9928ZM86.8525 41.8364H85.0721L85.0629 40.955H86.6173C86.8795 40.955 87.1018 40.9165 87.2842 40.8394C87.4697 40.7591 87.6103 40.6451 87.7061 40.4974C87.8025 40.3465 87.8504 40.165 87.8504 39.9531C87.8504 39.7187 87.8056 39.5277 87.716 39.38C87.6263 39.2322 87.4887 39.1247 87.3033 39.0573C87.1209 38.9898 86.8875 38.9561 86.6031 38.9561H85.4369V45.0057H84.2326V37.9928H86.6031C86.987 37.9928 87.329 38.0297 87.63 38.1036C87.9334 38.1774 88.1913 38.293 88.4019 38.4504C88.6163 38.6045 88.7778 38.8004 88.8865 39.038C88.9989 39.2756 89.0548 39.5582 89.0548 39.8857C89.0548 40.1747 88.986 40.4396 88.8484 40.6804C88.7109 40.9181 88.5076 41.1123 88.2392 41.2632C87.9702 41.4142 87.6361 41.5041 87.2363 41.533L86.8525 41.8364ZM86.7997 45.0057H84.6932L85.2354 44.0472H86.7997C87.0717 44.0472 87.2983 44.0023 87.4807 43.9124C87.6631 43.8192 87.7995 43.6924 87.8885 43.5319C87.9813 43.3681 88.0279 43.1771 88.0279 42.9587C88.0279 42.7307 87.988 42.5332 87.9082 42.3663C87.8277 42.196 87.7018 42.066 87.5286 41.9761C87.3561 41.883 87.1307 41.8364 86.8525 41.8364H85.4995L85.5087 40.955H87.2701L87.5434 41.2874C87.9272 41.3002 88.2423 41.3853 88.4885 41.5426C88.7379 41.6999 88.9233 41.9039 89.0449 42.1543C89.1665 42.4047 89.2273 42.6745 89.2273 42.9635C89.2273 43.4099 89.1297 43.7839 88.9344 44.0857C88.7428 44.3876 88.4658 44.6172 88.1047 44.7745C87.743 44.9287 87.3082 45.0057 86.7997 45.0057ZM91.7269 37.9928V45.0057H90.5226V37.9928H91.7269ZM98.7655 37.9928V45.0057H97.5612L94.4285 39.9821V45.0057H93.2242V37.9928H94.4285L97.571 43.0261V37.9928H98.7655ZM105.565 41.4222V44.1002C105.465 44.2319 105.31 44.3764 105.099 44.5337C104.891 44.6878 104.615 44.8211 104.269 44.9335C103.924 45.0459 103.493 45.102 102.979 45.102C102.54 45.102 102.138 45.0282 101.774 44.8805C101.409 44.7296 101.094 44.5096 100.829 44.2206C100.567 43.9316 100.364 43.58 100.22 43.1658C100.075 42.7483 100.004 42.2731 100.004 41.7401V41.2536C100.004 40.7238 100.069 40.2518 100.2 39.8375C100.335 39.4201 100.527 39.0669 100.776 38.7779C101.026 38.4889 101.326 38.2705 101.678 38.1228C102.033 37.9719 102.434 37.8965 102.882 37.8965C103.455 37.8965 103.929 37.9928 104.303 38.1854C104.68 38.3749 104.971 38.6382 105.176 38.9754C105.38 39.3125 105.51 39.6978 105.565 40.1314H104.384C104.346 39.8873 104.271 39.669 104.159 39.4763C104.05 39.2837 103.893 39.1327 103.688 39.0235C103.487 38.9112 103.225 38.8549 102.902 38.8549C102.624 38.8549 102.379 38.908 102.167 39.0139C101.957 39.1198 101.78 39.2756 101.64 39.4811C101.502 39.6866 101.398 39.937 101.328 40.2325C101.258 40.5279 101.222 40.8651 101.222 41.244V41.7401C101.222 42.1254 101.262 42.4674 101.342 42.766C101.425 43.0647 101.544 43.3167 101.697 43.5222C101.854 43.7277 102.044 43.8835 102.268 43.9894C102.492 44.0922 102.745 44.1436 103.026 44.1436C103.302 44.1436 103.527 44.1211 103.703 44.0761C103.879 44.028 104.018 43.9718 104.12 43.9076C104.226 43.8401 104.308 43.7759 104.365 43.7148V42.3229H102.911V41.4222H105.565ZM110.425 41.191L111.629 40.377C111.831 40.2421 111.974 40.1105 112.061 39.9821C112.147 39.8504 112.191 39.6866 112.191 39.4907C112.191 39.3238 112.127 39.1697 111.998 39.0284C111.871 38.887 111.69 38.8164 111.456 38.8164C111.293 38.8164 111.156 38.8549 111.043 38.932C110.932 39.0059 110.847 39.1054 110.789 39.2306C110.735 39.3526 110.708 39.4891 110.708 39.6401C110.708 39.7845 110.745 39.9338 110.818 40.088C110.892 40.2389 110.992 40.3978 111.121 40.5649C111.249 40.7286 111.392 40.9052 111.553 41.0946L114.854 45.0057H113.515L110.818 41.8219C110.585 41.5394 110.378 41.2809 110.2 41.0465C110.02 40.8089 109.881 40.5793 109.782 40.3577C109.682 40.133 109.633 39.9018 109.633 39.6641C109.633 39.2981 109.708 38.9834 109.859 38.7201C110.009 38.4568 110.222 38.2545 110.497 38.1132C110.772 37.9687 111.093 37.8965 111.461 37.8965C111.816 37.8965 112.122 37.9687 112.377 38.1132C112.636 38.2545 112.835 38.4424 112.972 38.6768C113.113 38.9112 113.184 39.168 113.184 39.4474C113.184 39.669 113.144 39.8713 113.064 40.0543C112.983 40.2373 112.874 40.4043 112.732 40.5552C112.592 40.7061 112.429 40.849 112.243 40.9839L110.78 42.0531C110.61 42.1912 110.484 42.3245 110.401 42.4529C110.321 42.5782 110.268 42.6938 110.243 42.7997C110.217 42.9057 110.204 42.9988 110.204 43.0791C110.204 43.2846 110.247 43.4708 110.333 43.6378C110.423 43.8048 110.553 43.938 110.722 44.0376C110.895 44.1339 111.104 44.1821 111.35 44.1821C111.616 44.1821 111.874 44.1227 112.123 44.0039C112.373 43.8819 112.597 43.71 112.795 43.4885C112.993 43.2669 113.15 43.002 113.265 42.6938C113.383 42.3855 113.443 42.0435 113.443 41.6678H114.441C114.441 42.0082 114.407 42.3309 114.34 42.6359C114.276 42.941 114.172 43.2236 114.028 43.4836C113.887 43.7438 113.702 43.9766 113.472 44.1821C113.449 44.2045 113.424 44.2335 113.395 44.2688C113.369 44.3009 113.343 44.3282 113.318 44.3507C113.043 44.6044 112.734 44.7938 112.392 44.919C112.053 45.041 111.691 45.102 111.307 45.102C110.844 45.102 110.442 45.0169 110.103 44.8468C109.764 44.6766 109.502 44.4422 109.316 44.1436C109.134 43.8449 109.043 43.5029 109.043 43.1176C109.043 42.8319 109.102 42.5814 109.221 42.3663C109.339 42.1479 109.5 41.9456 109.705 41.7594C109.913 41.5699 110.153 41.3804 110.425 41.191ZM118.097 37.9928H120.567C121.099 37.9928 121.551 38.0731 121.925 38.2336C122.3 38.3941 122.586 38.6318 122.785 38.9465C122.986 39.258 123.087 39.6433 123.087 40.1025C123.087 40.4525 123.023 40.7607 122.894 41.0272C122.767 41.2938 122.586 41.5186 122.353 41.7015C122.119 41.8814 121.841 42.0211 121.518 42.1206L121.153 42.2988H118.931L118.922 41.3403H120.587C120.875 41.3403 121.115 41.289 121.306 41.1862C121.498 41.0834 121.642 40.9438 121.739 40.7671C121.838 40.5873 121.887 40.385 121.887 40.1602C121.887 39.9162 121.839 39.7042 121.743 39.5245C121.65 39.3414 121.506 39.2017 121.311 39.1054C121.117 39.0059 120.868 38.9561 120.567 38.9561H119.301V45.0057H118.097V37.9928ZM122.084 45.0057L120.443 41.8557L121.705 41.8509L123.37 44.9431V45.0057H122.084ZM128.858 44.0472V45.0057H125.15V44.0472H128.858ZM125.49 37.9928V45.0057H124.286V37.9928H125.49ZM128.374 40.9213V41.8653H125.15V40.9213H128.374ZM128.834 37.9928V38.9561H125.15V37.9928H128.834ZM132.495 42.3903H130.677V41.4318H132.495C132.812 41.4318 133.068 41.3804 133.263 41.2777C133.458 41.175 133.601 41.0337 133.69 40.8538C133.783 40.6708 133.829 40.4621 133.829 40.2277C133.829 40.0061 133.783 39.799 133.69 39.6063C133.601 39.4105 133.458 39.2531 133.263 39.1343C133.068 39.0155 132.812 38.9561 132.495 38.9561H131.047V45.0057H129.842V37.9928H132.495C133.036 37.9928 133.495 38.0891 133.872 38.2818C134.253 38.4712 134.543 38.7345 134.741 39.0717C134.939 39.4057 135.038 39.7878 135.038 40.2181C135.038 40.6708 134.939 41.0594 134.741 41.3837C134.543 41.7079 134.253 41.9568 133.872 42.1302C133.495 42.3036 133.036 42.3903 132.495 42.3903ZM138.109 38.9272L136.022 45.0057H134.76L137.389 37.9928H138.195L138.109 38.9272ZM139.856 45.0057L137.763 38.9272L137.672 37.9928H138.483L141.122 45.0057H139.856ZM139.754 42.4047V43.3632H135.955V42.4047H139.754ZM143.19 37.9928V45.0057H141.986V37.9928H143.19ZM144.687 37.9928H147.158C147.689 37.9928 148.142 38.0731 148.516 38.2336C148.89 38.3941 149.176 38.6318 149.375 38.9465C149.576 39.258 149.677 39.6433 149.677 40.1025C149.677 40.4525 149.613 40.7607 149.485 41.0272C149.357 41.2938 149.176 41.5186 148.943 41.7015C148.709 41.8814 148.431 42.0211 148.108 42.1206L147.743 42.2988H145.522L145.513 41.3403H147.177C147.465 41.3403 147.705 41.289 147.897 41.1862C148.089 41.0834 148.233 40.9438 148.328 40.7671C148.428 40.5873 148.478 40.385 148.478 40.1602C148.478 39.9162 148.43 39.7042 148.333 39.5245C148.241 39.3414 148.097 39.2017 147.902 39.1054C147.706 39.0059 147.459 38.9561 147.158 38.9561H145.891V45.0057H144.687V37.9928ZM148.674 45.0057L147.033 41.8557L148.295 41.8509L149.96 44.9431V45.0057H148.674ZM152.162 37.9928V45.0057H150.958V37.9928H152.162ZM159.201 37.9928V45.0057H157.997L154.863 39.9821V45.0057H153.659V37.9928H154.863L158.006 43.0261V37.9928H159.201ZM166 41.4222V44.1002C165.9 44.2319 165.745 44.3764 165.534 44.5337C165.327 44.6878 165.05 44.8211 164.704 44.9335C164.359 45.0459 163.928 45.102 163.413 45.102C162.975 45.102 162.574 45.0282 162.209 44.8805C161.844 44.7296 161.529 44.5096 161.264 44.2206C161.002 43.9316 160.798 43.58 160.655 43.1658C160.51 42.7483 160.439 42.2731 160.439 41.7401V41.2536C160.439 40.7238 160.504 40.2518 160.635 39.8375C160.77 39.4201 160.962 39.0669 161.211 38.7779C161.461 38.4889 161.761 38.2705 162.113 38.1228C162.468 37.9719 162.87 37.8965 163.318 37.8965C163.89 37.8965 164.364 37.9928 164.738 38.1854C165.115 38.3749 165.406 38.6382 165.611 38.9754C165.815 39.3125 165.945 39.6978 166 40.1314H164.819C164.781 39.8873 164.706 39.669 164.594 39.4763C164.485 39.2837 164.329 39.1327 164.123 39.0235C163.922 38.9112 163.66 38.8549 163.337 38.8549C163.059 38.8549 162.813 38.908 162.603 39.0139C162.392 39.1198 162.215 39.2756 162.075 39.4811C161.937 39.6866 161.833 39.937 161.763 40.2325C161.693 40.5279 161.658 40.8651 161.658 41.244V41.7401C161.658 42.1254 161.698 42.4674 161.777 42.766C161.86 43.0647 161.979 43.3167 162.132 43.5222C162.289 43.7277 162.479 43.8835 162.704 43.9894C162.927 44.0922 163.18 44.1436 163.461 44.1436C163.737 44.1436 163.962 44.1211 164.138 44.0761C164.314 44.028 164.453 43.9718 164.555 43.9076C164.661 43.8401 164.742 43.7759 164.8 43.7148V42.3229H163.347V41.4222H166Z" fill="#768099"/>
<path fill-rule="evenodd" clip-rule="evenodd" d="M3.59519 11.624L22.5086 0.665103C24.0393 -0.221701 25.7916 -0.221701 27.323 0.665103L46.2364 11.624C47.7678 12.5116 48.6444 14.0352 48.6444 15.8103V21.5784H48.6726H49.0168C49.4653 21.5784 49.8316 21.9469 49.8316 22.3964V22.5088C49.8316 22.9591 49.4646 23.3268 49.0168 23.3268H48.8439H48.6718H48.6444V24.2824C49.4874 24.3252 50.1629 25.03 50.1629 25.8863V31.308C50.1629 32.1642 49.4866 32.8691 48.6444 32.9119V33.8675H48.6726H49.0168C49.4653 33.8675 49.8316 34.236 49.8316 34.6855V34.7979C49.8316 35.2474 49.4646 35.6159 49.0168 35.6159H48.8439H48.6718H48.6444V42.3984C48.6444 45.0611 46.4817 47.2323 43.8293 47.2323H35.9443V42.3992V42.3984H42.1447C43.073 42.3984 43.83 41.6385 43.83 40.7066V35.6159H43.4576C43.0098 35.6159 42.6427 35.2474 42.6427 34.7979V34.6855C42.6427 34.236 43.0098 33.8675 43.4576 33.8675H43.83V32.9119C42.9878 32.8691 42.3115 32.1642 42.3115 31.308V25.8863C42.3115 25.03 42.9878 24.326 43.83 24.2824V23.3268H43.4576C43.0098 23.3268 42.6427 22.9591 42.6427 22.5088V22.3964C42.6427 21.9469 43.0098 21.5784 43.4576 21.5784H43.83V16.7866C43.83 16.1651 43.5231 15.6315 42.987 15.3211C37.2443 11.9941 31.5008 8.6662 25.7581 5.33918C25.2227 5.02879 24.6089 5.02879 24.0736 5.33918L6.84544 15.3219C6.30929 15.6322 6.0024 16.1658 6.0024 16.7874V27.8885H6.03057H6.37476C6.82333 27.8885 7.1896 28.257 7.1896 28.7065V28.8189C7.1896 29.2691 6.82333 29.6369 6.37476 29.6369H6.20194H6.02981H6.0024V40.7066C6.0024 41.6385 6.75934 42.3984 7.68767 42.3984H11.4329V42.3824V42.0368C11.4329 41.5865 11.7999 41.2188 12.2477 41.2188H12.3597C12.8082 41.2188 13.1745 41.5865 13.1745 42.0368V42.2104V42.3831V42.3984H14.824C14.9565 42.3984 15.0646 42.507 15.0646 42.64V46.9899C15.0646 47.123 14.9565 47.2315 14.824 47.2315H13.1745V47.6176C13.1745 48.0671 12.8074 48.4356 12.3597 48.4356H12.2477C11.7999 48.4356 11.4329 48.0671 11.4329 47.6176V47.2315H6.0024C3.35074 47.2315 1.18723 45.0604 1.18723 42.3977V29.6361H0.814839C0.367059 29.6361 0 29.2684 0 28.8181V28.7057C0 28.2562 0.367059 27.8877 0.814839 27.8877H1.18723V15.8103C1.18723 14.0352 2.06375 12.5116 3.59519 11.624Z" fill="#0052DA"/>
<path fill-rule="evenodd" clip-rule="evenodd" d="M19.8227 49.1322C20.0185 47.9953 20.537 46.7217 21.406 45.7333C22.1157 44.9245 23.0585 44.3021 24.2488 44.0888C24.3158 44.0766 24.3782 44.0919 24.4338 44.1317C24.4887 44.1729 24.5214 44.2288 24.5297 44.2968L24.5488 44.4489C24.5648 44.5766 24.4788 44.6943 24.3531 44.7172C23.3235 44.9045 22.5041 45.4481 21.8827 46.1553C21.0968 47.0505 20.6262 48.2041 20.4487 49.2346C20.4266 49.3623 20.3086 49.4494 20.1807 49.4334L20.0283 49.4135C19.9613 49.4043 19.9065 49.3722 19.8654 49.3172C19.8258 49.2614 19.8113 49.1994 19.8227 49.1322ZM28.9307 37.1045H29.7615C29.9108 37.1045 30.0333 37.2268 30.0333 37.3774V38.1457C30.6106 37.934 31.5869 37.7948 32.6934 37.7948C34.467 37.7948 35.9048 38.1518 35.9048 38.593C35.9048 39.0333 34.467 39.391 32.6934 39.391C31.5869 39.391 30.6106 39.252 30.0333 39.0394V41.563H31.1756C31.4133 41.563 31.6074 41.7571 31.6074 41.9957V42.397H34.2035V42.0515C34.2035 41.6012 34.5705 41.2335 35.0184 41.2335H35.1303C35.5788 41.2335 35.9451 41.6012 35.9451 42.0515V42.225V42.3978V47.247V47.6322C35.9451 48.0818 35.5788 48.4502 35.1303 48.4502H35.0184C34.5705 48.4502 34.2035 48.0818 34.2035 47.6322V47.2461H28.476C24.7734 47.2461 23.1925 48.9135 23.1925 52.5502V52.804C23.1925 52.937 23.0844 53.0456 22.9519 53.0456H18.602C18.4695 53.0456 18.3613 52.937 18.3613 52.804V52.5502C18.3613 45.8433 22.0114 42.5293 26.8463 42.5293V41.9949C26.8463 41.7564 27.0405 41.5622 27.2781 41.5622H28.6596V39.018C28.0937 39.2451 27.0817 39.3972 25.928 39.3972C24.1543 39.3972 22.7166 39.0394 22.7166 38.5983C22.7166 38.1579 24.1543 37.8002 25.928 37.8002C27.0824 37.8002 28.0937 37.9515 28.6596 38.1786V37.3759C28.6588 37.2268 28.7806 37.1045 28.9307 37.1045Z" fill="#E83A15"/>
<path fill-rule="evenodd" clip-rule="evenodd" d="M19.7452 58.8218C18.271 57.3699 20.2942 55.7003 20.321 54.7298C20.6112 56.5808 19.0299 56.6704 19.7452 58.8218ZM18.8153 57.6482C18.7533 55.9377 20.282 54.5209 21.0268 52.2217C21.7717 54.5209 23.2999 55.9377 23.2384 57.6482C23.1247 60.7832 18.9285 60.7832 18.8153 57.6482Z" fill="#E83A15"/>
<path fill-rule="evenodd" clip-rule="evenodd" d="M21.9589 22.7197L22.2681 22.3123L22.4767 22.4721L22.3009 22.7044L23.3548 23.5102L23.5597 23.2404L23.7797 23.4086L23.418 23.8848L21.9353 22.7511L21.9589 22.7197ZM34.6529 34.6756C34.4625 34.9256 34.5973 35.349 34.9514 35.6204C35.3063 35.8918 35.748 35.9094 35.9384 35.6587C36.1287 35.4087 35.9947 34.9852 35.6398 34.7138C35.285 34.4424 34.8433 34.4256 34.6529 34.6756ZM24.9388 25.3977C24.2328 24.8465 24.2915 24.3374 24.5664 24.011L24.8588 24.2342C26.0971 25.1814 27.4869 23.511 26.1717 22.5049L24.8718 21.5111L25.1589 21.1327L24.1049 20.3269L23.8072 20.719L23.5985 20.5593C23.7554 20.3414 23.6183 19.6518 23.0616 18.9401C22.2971 17.9623 20.9263 17.0197 20.132 17.9035C18.8884 16.9517 18.4285 16.629 17.2663 15.74C15.2521 15.3149 13.9362 16.8232 13.5684 20.2986L14.3093 20.8651L16.4797 17.8752C16.5452 17.9692 16.7173 18.0663 16.8132 18.1389L18.5442 19.4638L18.0309 19.9714L17.5268 19.5861L16.1964 22.2251L16.983 22.6295L22.8073 27.0811L23.0967 26.8526L18.7559 23.5324C18.6417 23.4444 18.6189 23.2786 18.7064 23.1631L18.8297 23.0003C18.9173 22.8856 19.0826 22.8627 19.1968 22.9513L23.6868 26.3862L24.9388 25.3977ZM34.7054 36.4958C36.2589 37.6838 38.0485 35.3261 36.4943 34.1381L27.4001 27.1843L25.0066 29.0757L34.7054 36.4958Z" fill="white"/>
<path fill-rule="evenodd" clip-rule="evenodd" d="M16.5492 33.8971L15.6369 33.5447L14.7246 33.1922L13.9638 33.8092L13.203 34.4261L13.3546 35.3955L13.5069 36.3649L14.4199 36.7181L15.3322 37.0713L16.093 36.4536L16.8538 35.8366L16.7015 34.8673L16.5492 33.8971ZM35.321 16.5524C34.4162 16.3346 33.5329 16.4385 32.6465 17.1579C31.76 17.8773 31.2848 19.261 31.6093 20.4223L31.4501 20.5515L31.211 20.7449L16.055 32.7175C15.1936 32.3483 14.3346 32.3184 13.3843 33.0898C12.4331 33.8612 12.0866 35.6532 12.9936 36.7808C13.9014 37.9084 15.7199 37.9443 16.6703 37.1729C17.6214 36.4015 17.7722 35.5522 17.594 34.6295L33.1475 22.3342C34.2106 22.8961 35.6575 22.7211 36.544 22.0017C37.4304 21.2823 37.7175 20.4368 37.6954 19.5041L35.5708 21.2166L34.5328 20.8282L33.5427 20.433L33.3585 19.3367L33.2047 18.2786L35.321 16.5524Z" fill="white"/>
</svg>
