<?xml version="1.0" encoding="utf-8"?>
<!-- Generator: Adobe Illustrator 24.0.2, SVG Export Plug-In . SVG Version: 6.00 Build 0)  -->
<svg version="1.1" id="Layer_1" xmlns="http://www.w3.org/2000/svg" xmlns:xlink="http://www.w3.org/1999/xlink" x="0px" y="0px"
	 viewBox="0 0 400 137" style="enable-background:new 0 0 400 137;" xml:space="preserve">
<style type="text/css">
	.st0{fill:none;stroke:#08A6CB;stroke-width:2;}
	.st1{fill:none;stroke:#1467B3;stroke-width:2;}
	.st2{fill:none;stroke:#188DD6;stroke-width:2;}
	.st3{fill:none;stroke:#1E7ECE;stroke-width:2;}
	.st4{fill:none;stroke:#0E97C4;stroke-width:2;}
	.st5{fill:#0E76BA;}
	.st6{fill:#FFFFFF;}
	.st7{fill:#01D5DC;}
	.st8{fill:#21A3F1;}
	.st9{fill:#1A58AB;}
	.st10{fill:#1887CE;}
	.st11{fill:#1E96E0;}
	.st12{fill:#1BB3EF;}
</style>
<g>
	<path vector-effect="non-scaling-stroke" class="st0" d="M74.6,10.6c-0.4,0.2-0.5,0.4-0.4,0.7c2.4,5.4,5.4,11,9,16.7
		c0.6,0.9,0.7,2,1.1,3c0.1,0.3-0.1,0.5-0.3,0.6c0,0-0.1,0-0.1,0L78.9,32c-0.3,0-0.4,0.2-0.4,0.5c0,0.3,0.1,0.4,0.4,0.4
		c2.9,0.1,7.5-0.9,7.1,3.4c-0.1,1.1,0,2.5,0.3,4.2c0,0.1,0.1,0.1,0.1,0.1c0,0,0,0,0,0l0.3,0c0.1,0,0.2-0.1,0.2-0.2
		c-0.2-1.3-0.1-2.6,0.3-3.9c0.1-0.4,0.3-0.4,0.5-0.1c4.6,7.4,7.5,14.5,8.7,21.2c2.1,11.3-1.7,19.3-11.5,24"/>
	<path vector-effect="non-scaling-stroke" class="st1" d="M74,39c-0.9-2-2-3.2-3.3-3.5"/>
	<path vector-effect="non-scaling-stroke" class="st2" d="M70.7,35.4c1.4-1,1.9-2.4,1.7-4.1c-0.3-2-0.4-3.2-0.4-3.5
		c0-1.3-0.1-2.5-0.3-3.7c-0.4-2.7,0-5.2-0.3-7.9c0-0.3,0-0.6,0.2-0.8c0.3-0.5,0.4-1,0.3-1.5c-0.1-0.4-0.3-0.5-0.6-0.3l-1.7,0.8"/>
	<path vector-effect="non-scaling-stroke" class="st3" d="M70.7,35.4c-2.3,1.9-4.3,4.2-6.5,6c-2.1,1.7-4.2,3.2-6.1,5.3
		c-2.3,2.6-4.8,5.1-7.3,7.5c-1,0.9-1.6,2.1-2.5,3.1c-0.9,0.9-1.6,1.7-1.9,2.2c-4.8,7.5-7.6,14.4-4.7,23.3c0.4,1.3,0.6,2.5,0.6,3.7"
		/>
	<path vector-effect="non-scaling-stroke" class="st4" d="M110.7,71.5c-0.8,1.4-1.6,2.9-2.3,4.4c-2,4.5-4.6,7.8-8.6,10.6
		C92.9,91.4,82,93.3,75,92.3c-5-0.7-8.9-2.1-11.6-4.2c-6.3-4.8-8.1-11.5-5.6-19.8"/>
	<path vector-effect="non-scaling-stroke" class="st2" d="M85,34.1c-0.2,0-0.3-0.1-0.5-0.2c-0.2-0.1-0.5-0.1-0.6,0.1
		c-0.1,0.1-0.1,0.2-0.1,0.3c0.1,0.4,0.3,0.6,0.6,0.6c0.3,0,0.5-0.1,0.7-0.4C85.3,34.4,85.2,34.2,85,34.1C85,34.1,85,34.1,85,34.1"/>
</g>
<path class="st5" d="M74.6,10.6c-0.4,0.2-0.5,0.4-0.4,0.7c2.4,5.4,5.4,11,9,16.7c0.6,0.9,0.7,2,1.1,3c0.1,0.3-0.1,0.5-0.3,0.6
	c0,0-0.1,0-0.1,0L78.9,32c-0.3,0-0.4,0.2-0.4,0.5c0,0.3,0.1,0.4,0.4,0.4c2.9,0.1,7.5-0.9,7.1,3.4c-0.1,1.1,0,2.5,0.3,4.2
	c0,0.1,0.1,0.1,0.1,0.1c0,0,0,0,0,0l0.3,0c0.1,0,0.2-0.1,0.2-0.2c-0.2-1.3-0.1-2.6,0.3-3.9c0.1-0.4,0.3-0.4,0.5-0.1
	c4.6,7.4,7.5,14.5,8.7,21.2c2.1,11.3-1.7,19.3-11.5,24c3.4-3.7,5.2-7.5,5.3-11.2c0.2-4.7-1.2-9.2-4.3-13.7C82.1,51,78.1,45.1,74,39
	c-0.9-2-2-3.2-3.3-3.5c1.4-1,1.9-2.4,1.7-4.1c-0.3-2-0.4-3.2-0.4-3.5c0-1.3-0.1-2.5-0.3-3.7c-0.4-2.7,0-5.2-0.3-7.9
	c0-0.3,0-0.6,0.2-0.8c0.3-0.5,0.4-1,0.3-1.5c-0.1-0.4-0.3-0.5-0.6-0.3l-1.7,0.8l3.9-4.4c0.2-0.3,0.5-0.3,0.7,0
	C74.4,10.1,74.5,10.3,74.6,10.6z M85,34.1c-0.2,0-0.3-0.1-0.5-0.2c-0.2-0.1-0.5-0.1-0.6,0.1c-0.1,0.1-0.1,0.2-0.1,0.3
	c0.1,0.4,0.3,0.6,0.6,0.6c0.3,0,0.5-0.1,0.7-0.4C85.3,34.4,85.2,34.2,85,34.1C85,34.1,85,34.1,85,34.1z"/>
<path class="st6" d="M345.7,35.7l0-24.7c0-0.3,0.2-0.5,0.5-0.5l5.8,0c0.3,0,0.5,0.2,0.5,0.5c0,10.9,0,21.7,0,32.6
	c0,4.1-3.2,6-6.3,2.9c-7.8-8.1-15.6-16.2-23.2-24.3c-0.5-0.5-0.7-0.4-0.7,0.3l0,24.5c0,0.3-0.2,0.5-0.5,0.5H316
	c-0.3,0-0.4-0.1-0.4-0.4c0-11.3,0-22.6,0-33.8c0-3.6,4.1-4,6.3-1.7c7.9,8.1,15.7,16.3,23.4,24.4C345.6,36.3,345.7,36.2,345.7,35.7z"
	/>
<path class="st7" d="M74.6,10.6l18.5,21.1c0.2,0.2,0.4,0.3,0.7,0.4c0.4,0.1,0.5,0.3,0.5,0.7c0,0.2,0,0.4,0.2,0.6
	c9.2,11,17.9,22.9,16.3,38.2c-0.8,1.4-1.6,2.9-2.3,4.4c-2,4.5-4.6,7.8-8.6,10.6C92.9,91.4,82,93.3,75,92.3c-5-0.7-8.9-2.1-11.6-4.2
	c-6.3-4.8-8.1-11.5-5.6-19.8c0.9,11.4,10.2,17.4,21,15.9c0.9-0.1,3-1,6.2-2.7c9.8-4.7,13.6-12.7,11.5-24c-1.2-6.7-4.2-13.8-8.7-21.2
	c-0.2-0.3-0.4-0.3-0.5,0.1c-0.4,1.3-0.5,2.6-0.3,3.9c0,0.1,0,0.2-0.2,0.2l-0.3,0c-0.1,0-0.1,0-0.1-0.1c0,0,0,0,0,0
	c-0.3-1.7-0.4-3.1-0.3-4.2c0.4-4.3-4.2-3.3-7.1-3.4c-0.3,0-0.4-0.2-0.4-0.4c0-0.3,0.1-0.4,0.4-0.5l4.9-0.4c0.3,0,0.5-0.3,0.5-0.5
	c0,0,0-0.1,0-0.1c-0.3-1-0.5-2.1-1.1-3c-3.7-5.7-6.7-11.3-9-16.7C74.1,11,74.2,10.8,74.6,10.6z"/>
<path class="st6" d="M128.5,18.5c-0.2,0.3-0.3,0.7-0.3,1V47c0,0.3-0.2,0.5-0.5,0.5h-5.9c-0.3,0-0.4-0.1-0.4-0.4
	c0-8.8,0-17.6-0.1-26.6c0-7.9,4.9-9.9,12.1-10c5.7,0,14.2-0.9,18.8,1.4c5.1,2.6,6.5,8.6,6.2,14.1c-0.3,5.4-2.6,9.7-7.8,11.5
	c-4.9,1.7-13.8,0.9-19.4,0.8c-0.3,0-0.4-0.1-0.4-0.4l0-6c0-0.2,0.1-0.4,0.4-0.4c4.8,0,9.7-0.1,14.9-0.2c3.2-0.1,5-1.6,5.5-4.4
	c0.8-4.7-0.4-9.7-5.9-9.7c-4.9,0-9.9,0-14.8-0.1C129.7,17.2,129,17.7,128.5,18.5z"/>
<path class="st6" d="M189.1,35.5c-0.1,0-0.2,0.1-0.2,0.2c0,0.1,0,0.1,0.1,0.1l13,11.1c0.5,0.4,0.4,0.6-0.2,0.6l-9.3,0
	c-0.3,0-0.5-0.1-0.7-0.3l-13.2-11.5c-0.3-0.2-0.6-0.3-0.9-0.3l-3.1,0.1c-0.7,0-1.1-0.3-1.1-1.1l0-4.8c0-0.8,0.4-1.2,1.2-1.2
	c4.2,0.1,8.7,0.1,13.4,0.1c6.7-0.1,6.1-5.3,6.1-10.2c0-0.6-0.5-1.1-1.1-1.1c0,0,0,0,0,0l-21.8,0c-0.3,0-0.5,0.2-0.5,0.5V47
	c0,0.3-0.2,0.5-0.5,0.5l-5.8,0c-0.3,0-0.5-0.2-0.5-0.5V13.5c0-1.7,1.3-3,3-3c7.8,0,15.6,0,23.7,0c3.1,0,5.3,0.4,6.5,1.1
	c4.1,2.4,4.1,7.9,3.7,12.2C200.3,30.6,195.9,34.8,189.1,35.5z"/>
<path class="st6" d="M208,10.5h5.9c0.2,0,0.4,0.2,0.4,0.4v36.2c0,0.2-0.2,0.4-0.4,0.4H208c-0.2,0-0.4-0.2-0.4-0.4V10.9
	C207.6,10.7,207.8,10.5,208,10.5z"/>
<path class="st6" d="M250.8,36.6l0-1c-0.1-1.8-1.5-3.2-3.3-3.2c-5.7-0.1-11.2-0.1-16.5,0c-11.3,0.1-14.3-16.6-4.3-20.9
	c1.4-0.6,3.8-0.9,7.1-0.9c6.8,0,13.5,0,20.1,0c0.2,0,0.3,0.1,0.3,0.3l0,6.2c0,0.2-0.1,0.3-0.3,0.3l-22.4,0c-2.7,0-4.1,1.4-4.1,4.1
	l0,0.9c0,1.7,1.4,3.2,3.2,3.2c5.2,0.1,10.5,0.1,15.8,0.1c12.6,0.1,15.4,17.3,4.4,21.2c-1.3,0.5-3.6,0.7-6.9,0.7
	c-7.7,0-15.2,0-22.8,0c-0.2,0-0.3-0.1-0.3-0.3l0-6.2c0-0.2,0.1-0.3,0.3-0.3h25.6C249.6,40.7,250.9,39.4,250.8,36.6z"/>
<path class="st6" d="M281.4,17.7l0,29.4c0,0.2-0.2,0.4-0.4,0.4l0,0h-5.9c-0.2,0-0.4-0.2-0.4-0.4V17.7c0-0.2-0.2-0.4-0.4-0.4l0,0
	l-14,0c-0.2,0-0.4-0.2-0.4-0.4c0,0,0,0,0,0l0-5.9c0-0.2,0.2-0.4,0.4-0.4h35.6c0.2,0,0.4,0.2,0.4,0.4c0,0,0,0,0,0l0,5.9
	c0,0.2-0.2,0.4-0.4,0.4l0,0l-14,0C281.6,17.3,281.4,17.5,281.4,17.7C281.4,17.7,281.4,17.7,281.4,17.7z"/>
<path class="st6" d="M301.4,10.5h5.9c0.2,0,0.4,0.2,0.4,0.4v36.1c0,0.2-0.2,0.4-0.4,0.4h-5.9c-0.2,0-0.4-0.2-0.4-0.4V11
	C301,10.7,301.2,10.5,301.4,10.5z"/>
<path class="st6" d="M366.8,17.9v20.4c0,1.4,1.1,2.5,2.5,2.5l23.7,0c0.3,0,0.5,0.2,0.5,0.5V47c0,0.3-0.2,0.5-0.5,0.5
	c-6.4,0-12.8,0-19.2,0c-7.7,0-13.9-1.1-13.9-10c0-7.9,0-15.8,0-23.7c0-1.8,1.5-3.3,3.3-3.3l29.7,0c0.4,0,0.6,0.2,0.6,0.6l-0.1,5.5
	c0,0.4-0.2,0.6-0.6,0.6l-25.5,0C367,17.3,366.8,17.5,366.8,17.9z"/>
<path class="st8" d="M70.7,35.4c-2.3,1.9-4.3,4.2-6.5,6c-2.1,1.7-4.2,3.2-6.1,5.3c-2.3,2.6-4.8,5.1-7.3,7.5c-1,0.9-1.6,2.1-2.5,3.1
	c-0.9,0.9-1.6,1.7-1.9,2.2c-4.8,7.5-7.6,14.4-4.7,23.3c0.4,1.3,0.6,2.5,0.6,3.7c-8.8-14.4-5.2-29.5,3.7-43
	c6.9-10.5,14.7-20.2,23.6-29.1l1.7-0.8c0.3-0.2,0.5-0.1,0.6,0.3c0.1,0.5,0,1.1-0.3,1.5c-0.1,0.3-0.2,0.5-0.2,0.8
	c0.3,2.7-0.1,5.2,0.3,7.9c0.2,1.2,0.3,2.5,0.3,3.7c0,0.3,0.1,1.5,0.4,3.5C72.6,33,72,34.4,70.7,35.4z"/>
<path class="st6" d="M369.9,25.5h20.3c0.2,0,0.4,0.2,0.4,0.4v6c0,0.2-0.2,0.4-0.4,0.4h-20.3c-0.2,0-0.4-0.2-0.4-0.4v-6
	C369.5,25.7,369.7,25.5,369.9,25.5z"/>
<path class="st8" d="M85,34.1c0.2,0,0.3,0.2,0.2,0.4c0,0,0,0.1,0,0.1C85,34.8,84.8,35,84.5,35c-0.3,0-0.5-0.2-0.6-0.6
	c-0.1-0.2,0.1-0.5,0.3-0.5c0.1,0,0.2,0,0.3,0.1C84.7,34,84.8,34.1,85,34.1z"/>
<path class="st9" d="M70.7,35.4C72,35.8,73.1,37,74,39c-3.5,5-6.9,10.1-10.1,15.2c-2.9,4.5-4.9,9.3-6.1,14.1
	c-2.6,8.4-0.7,15,5.6,19.8c2.7,2.1,6.6,3.5,11.6,4.2c7,1,17.9-0.9,24.8-5.8c4-2.8,6.6-6.1,8.6-10.6c0.7-1.5,1.4-3,2.3-4.4
	c-0.8,38.2-51,45.8-68.4,14.9c0.1-1.2-0.1-2.4-0.6-3.7c-2.9-8.8-0.1-15.8,4.7-23.3c0.3-0.5,1-1.3,1.9-2.2c1-1,1.6-2.2,2.5-3.1
	c2.5-2.4,5-4.9,7.3-7.5c1.9-2.1,3.9-3.6,6.1-5.3C66.3,39.7,68.3,37.3,70.7,35.4z"/>
<path class="st10" d="M258.9,67.8l-9.3,16.4c-0.8,1.4-2.6,1.9-4.1,1.1c-0.5-0.3-0.9-0.7-1.1-1.1l-10-17.5c-0.3-0.5-0.4-0.5-0.4,0.1
	l0.1,18.2c0,0.2-0.1,0.3-0.3,0.3l-5.3,0c-0.2,0-0.3-0.1-0.3-0.3c0-10,0-20,0-30c0-2.5,3.8-3.6,5.3-1.1c4.4,7.5,8.8,15,13.2,22.5
	c0.2,0.3,0.4,0.3,0.5,0c5.8-10,10-17.2,12.5-21.7c2.3-4.1,6.1-2.7,6.1,1.8c0,9.5,0,18.9,0,28.4c0,0.2-0.1,0.3-0.3,0.3H260
	c-0.2,0-0.2-0.1-0.2-0.2l0-17C259.8,66.8,259.5,66.7,258.9,67.8z"/>
<path class="st11" d="M328.4,63.2l0,21.8c0,0.1-0.1,0.2-0.2,0.2h-5.4c-0.1,0-0.2-0.1-0.2-0.2c0,0,0,0,0,0V55.5
	c0-0.5,0.1-0.9,0.3-1.4c1.5-2.6,3.7-1.9,5.5,0c6.8,7,13.5,14,20.2,21c0.3,0.3,0.4,0.2,0.4-0.2l0-21.7c0-0.2,0.1-0.3,0.3-0.3l5.3-0.1
	c0.2,0,0.3,0.1,0.3,0.3c0,0,0,0,0,0v26.8c0,6.7-2.3,7.6-6.9,2.8L328.9,63C328.6,62.7,328.4,62.8,328.4,63.2z"/>
<path class="st5" d="M164.1,79.3h23c0.1,0,0.2,0.1,0.2,0.2l0,5.5c0,0.1-0.1,0.2-0.2,0.2h-26.7c-1.5,0-2.8-1.2-2.8-2.8l0,0V53.3
	c0-0.2,0.1-0.3,0.3-0.3l5.4,0c0.2,0,0.3,0.1,0.3,0.3l0,25.6C163.5,79.2,163.7,79.3,164.1,79.3z"/>
<path class="st10" d="M215.6,78.7V53.2c0-0.2,0.1-0.2,0.2-0.2l5.3,0c0.2,0,0.4,0.1,0.4,0.3l0,29.2c0,1.5-1.2,2.8-2.8,2.8
	c-6.4,0-14.7,0.8-20.1-1.3c-12.3-4.9-9.5-18.5-9.5-30.4c0-0.4,0.2-0.6,0.6-0.6h4.9c0.3,0,0.6,0.2,0.6,0.5c0,0,0,0,0,0
	c0,5.3-0.1,10.7-0.1,16.2c0,10.5,11.5,10,20.1,9.4C215.4,79.2,215.6,79,215.6,78.7z"/>
<path class="st11" d="M310.1,52.9h5.4c0.1,0,0.3,0.1,0.3,0.3V85c0,0.1-0.1,0.3-0.3,0.3h-5.4c-0.1,0-0.3-0.1-0.3-0.3V53.2
	C309.8,53.1,309.9,52.9,310.1,52.9z"/>
<path class="st8" d="M387.1,79.3c0.2,0,0.4-0.1,0.4-0.4l0-6.4c0-0.3-0.1-0.4-0.5-0.4l-14.7,0c-0.3,0-0.4-0.1-0.4-0.4l0-5.2
	c0-0.2,0.2-0.4,0.4-0.4l18.3,0c1.6,0,2.8,1.3,2.8,2.8l0,0v13.5c0,1.5-1.2,2.7-2.7,2.8c-6.1,0-12.4,0-18.8,0
	c-6.4,0-10.7-1.6-10.7-8.6c0-5.2,0-10.4-0.1-15.6c0-2.9,1-5.2,3.3-6.6c1.4-0.9,3.5-1.4,6.5-1.4c7.4,0,14.8,0,22.1,0
	c0.2,0,0.3,0.1,0.3,0.3c0,0,0,0,0,0l0,5.3c0,0.1-0.1,0.3-0.3,0.3l0,0l-23.7,0c-1.2,0-2.2,1-2.2,2.2v16.2c0,1,0.5,1.7,1.5,2
	c1.1,0.3,2.4,0.4,4,0.4C377.6,79.5,382.5,79.4,387.1,79.3z"/>
<path class="st5" d="M128.1,58.8c-1.1,0.2-1.7,0.9-1.7,1.9c-0.1,8.2-0.1,16.2-0.1,24.2c0,0.2-0.1,0.3-0.3,0.3h-5.5
	c-0.1,0-0.2-0.1-0.2-0.2c0-7.8,0-15.7,0-23.8c0-6.2,4.2-8.2,10-8.3c5.1-0.1,13.2-0.9,17.3,1.4c5.7,3.2,6.8,13.2,3.3,18.4
	c-2.2,3.3-5.6,4.8-10.1,4.7c-4.1-0.1-8-0.2-11.8-0.2c-0.3,0-0.5-0.2-0.5-0.5v0v-5c0-0.3,0.1-0.4,0.4-0.4c4.2,0,8.2,0,12,0
	c5.4-0.1,6.1-3.2,5.6-7.8c-0.4-4.2-3-4.7-6.8-4.7c-3.8,0-7.6,0-11.3,0C128.3,58.8,128.2,58.8,128.1,58.8z"/>
<path class="st11" d="M300.5,68.1c3.9,3.3,5.1,7.4,3.9,12.3c-1.1,4.1-4.4,4.8-8.5,4.8c-7,0-13.9,0-20.7,0c-1.5,0-2.7-1.2-2.7-2.7
	v-27c0-1.4,1.1-2.5,2.5-2.5c5.7,0,11.5,0,17.5,0c3,0,5,0.3,6.2,1c4.7,2.5,3.9,9.2,1.6,13.4C300.2,67.6,300.3,67.9,300.5,68.1z
	 M280.7,66.4c0-0.2,0.1-0.3,0.3-0.3l10.2,0c2.5,0,4.1-1.2,4.8-3.6l0.1-0.5c0.6-2.2-0.2-3.3-2.4-3.3l-14.9,0c-0.4,0-0.5,0.2-0.5,0.5
	l0,19.5c0,0.4,0.2,0.6,0.6,0.6h17c2.1,0,3-1.1,2.7-3.2l0-0.3c-0.4-2.5-1.9-3.7-4.4-3.7l-13.4,0c-0.2,0-0.3-0.1-0.3-0.3L280.7,66.4z"
	/>
<path class="st12" d="M118.5,101.6c0.1-1.5-1.1-2.7-2-3.8c-0.3-0.3-0.2-0.4,0.2-0.2c3.2,1.2,5.4,2.4,6.4,3.6
	c8.2,10.1-20.4,14.4-25.1,15c-15.7,2.1-31.5,2.1-47.2,0.1c-7.8-1-15-3.1-21.5-6.2c-2.2-1.1-3.7-2.8-4.5-5.3c-0.1-0.3-0.1-0.7,0-0.9
	c1.5-3.3,5-5.2,8.1-6.4c0.5-0.2,0.6-0.1,0.2,0.3c-1.6,1.7-2.9,3.2-1.5,5.5c2.4,4.2,12.3,6.6,16.8,7.4c17.9,3.2,35.9,3.1,53.9-0.3
	C106.2,109.7,118.1,106.7,118.5,101.6z"/>
<path class="st12" d="M131.7,97.7c4.1,1.7,9.6,4.4,12,7.6c9.5,12.7-23.5,19.7-29.8,20.8c-22.1,3.8-44.2,4.5-66.5,2
	c-7-0.8-49.3-7-42.7-21.3c2-4.2,8.9-7.5,13-9.1c0.1,0,0.2,0,0.2,0.1v0c0,0.1,0,0.2-0.1,0.2c-7.4,3.4-9.7,10.1-2,15.2
	c6.9,4.6,15.4,6.7,23.5,8.1c23.1,4.1,46.3,4.1,69.5,0.2c5.5-0.9,35.5-7.3,28.6-18.4c-1.2-1.9-3.7-4.1-6-5.2c-0.1,0-0.1-0.1-0.1-0.2
	h0C131.5,97.7,131.6,97.6,131.7,97.7z"/>
</svg>
