<svg width="864" height="722" viewBox="0 0 864 722" fill="none" xmlns="http://www.w3.org/2000/svg">
<path d="M364.593 639.104H19.668L64.3829 529.157L88.0044 516.205L125.193 430.213L155.26 412.551L183.861 360.821H212.075L274.796 466.733L306.716 483.217L364.593 639.104Z" fill="#EBEBEB"/>
<path d="M19.668 639.104H168.441V553.305L206.614 493.235L188.435 430.213L212.075 360.821H183.861L155.26 412.551L125.193 430.213L88.0044 516.205L64.3829 529.157L19.668 639.104Z" fill="#DBDBDB"/>
<path d="M212.07 639.104L226.486 593.936L249.799 570.966L260.22 543.885L267.477 549.772V575.676L249.799 596.291V639.278L212.07 639.104Z" fill="#DBDBDB"/>
<path d="M239.77 499.972L243.649 481.847L254.051 471.443L258.914 477.62L252.429 485.708L255.344 502.945L239.77 499.972Z" fill="#DBDBDB"/>
<path d="M339.777 639.027H844.34L749.14 440.173L703.344 420.523L654.731 325.516L622.676 291.042L594.423 228.135L561.345 233.502L504.781 365.299L473.189 388.867L421.893 524.621L371.369 573.707L339.777 639.027Z" fill="#EBEBEB"/>
<path d="M594.423 228.135L598.302 327.234L561.055 379.293L578.521 419.114L543.938 506.94L574.082 579.594L556.231 639.027H339.777L371.369 573.707L421.893 524.621L473.189 388.867L504.781 365.299L561.345 233.502L594.423 228.135Z" fill="#DBDBDB"/>
<path d="M585.121 481.403L611.097 436.235L609.051 417.087L618.739 403.344L630.454 442.373L595.311 481.403H585.121Z" fill="#DBDBDB"/>
<path d="M564.737 149.382L566.57 153.126L570.7 153.725L567.709 156.62L568.423 160.731L564.737 158.801L561.051 160.731L561.745 156.62L558.773 153.725L562.884 153.126L564.737 149.382Z" fill="#DBDBDB"/>
<path d="M218.303 336.21L220.156 339.935L224.266 340.534L221.294 343.448L221.989 347.54L218.303 345.61L214.617 347.54L215.331 343.448L212.34 340.534L216.47 339.935L218.303 336.21Z" fill="#DBDBDB"/>
<path d="M699.608 12.45L701.461 16.1754L705.571 16.7737L702.599 19.6884L703.294 23.7998L699.608 21.8503L695.922 23.7998L696.636 19.6884L693.645 16.7737L697.774 16.1754L699.608 12.45Z" fill="#DBDBDB"/>
<path d="M285.678 18.125L287.531 21.8504L291.641 22.4488L288.669 25.3634L289.364 29.4556L285.678 27.5253L281.992 29.4556L282.706 25.3634L279.715 22.4488L283.845 21.8504L285.678 18.125Z" fill="#DBDBDB"/>
<path d="M810.537 324.86L812.39 328.586L816.52 329.184L813.529 332.099L814.243 336.21L810.537 334.261L806.851 336.21L807.565 332.099L804.574 329.184L808.704 328.586L810.537 324.86Z" fill="#DBDBDB"/>
<path d="M404.42 142.954L406.253 146.699L410.383 147.297L407.392 150.192L408.106 154.304L404.42 152.374L400.734 154.304L401.429 150.192L398.438 147.297L402.567 146.699L404.42 142.954Z" fill="#DBDBDB"/>
<path d="M37.2055 66.0336L39.0581 69.759L43.188 70.3574L40.1968 73.272L40.8915 77.3641L37.2055 75.4339L33.5194 77.3641L34.2335 73.272L31.2422 70.3574L35.3721 69.759L37.2055 66.0336Z" fill="#DBDBDB"/>
<path d="M116.752 289.073L118.586 292.799L122.716 293.397L119.724 296.312L120.438 300.423L116.752 298.474L113.066 300.423L113.761 296.312L110.789 293.397L114.9 292.799L116.752 289.073Z" fill="#DBDBDB"/>
<path d="M37.2017 352.656L38.3403 354.972L40.8877 355.339L39.0543 357.134L39.4982 359.682L37.2017 358.466L34.9244 359.682L35.3683 357.134L33.5156 355.339L36.063 354.972L37.2017 352.656Z" fill="#DBDBDB"/>
<path d="M296.381 118.305L297.52 120.621L300.067 120.988L298.214 122.783L298.658 125.331L296.381 124.115L294.085 125.331L294.528 122.783L292.676 120.988L295.223 120.621L296.381 118.305Z" fill="#DBDBDB"/>
<path d="M487.85 323.509L488.989 325.825L491.536 326.192L489.703 327.987L490.127 330.535L487.85 329.319L485.573 330.535L486.017 327.987L484.164 326.192L486.711 325.825L487.85 323.509Z" fill="#DBDBDB"/>
<path d="M57.2366 86.0502L58.3752 88.3472L60.9226 88.714L59.07 90.5091L59.5138 93.057L57.2366 91.8603L54.94 93.057L55.3839 90.5091L53.5312 88.714L56.0787 88.3472L57.2366 86.0502Z" fill="#DBDBDB"/>
<path d="M705.577 291.235L706.715 293.552L709.263 293.918L707.429 295.714L707.854 298.261L705.577 297.045L703.299 298.261L703.743 295.714L701.891 293.918L704.438 293.552L705.577 291.235Z" fill="#DBDBDB"/>
<path d="M132.135 399.831L133.274 402.147L135.821 402.514L133.988 404.309L134.413 406.857L132.135 405.66L129.858 406.857L130.302 404.309L128.449 402.514L130.997 402.147L132.135 399.831Z" fill="#DBDBDB"/>
<path d="M87.9009 276.623L89.0395 278.92L91.5869 279.307L89.7536 281.102L90.1781 283.63L87.9009 282.433L85.6236 283.63L86.0675 281.102L84.2148 279.307L86.7623 278.92L87.9009 276.623Z" fill="#DBDBDB"/>
<path d="M461.874 100.431L463.012 102.728L465.56 103.094L463.707 104.909L464.151 107.437L461.874 106.241L459.577 107.437L460.021 104.909L458.188 103.094L460.735 102.728L461.874 100.431Z" fill="#DBDBDB"/>
<path d="M714.612 399.831L715.75 402.147L718.298 402.514L716.464 404.309L716.889 406.857L714.612 405.66L712.335 406.857L712.759 404.309L710.926 402.514L713.473 402.147L714.612 399.831Z" fill="#DBDBDB"/>
<path d="M829.069 179.493L830.207 181.81L832.755 182.176L830.902 183.972L831.346 186.519L829.069 185.323L826.792 186.519L827.216 183.972L825.383 182.176L827.93 181.81L829.069 179.493Z" fill="#DBDBDB"/>
<path d="M728.467 176L729.606 178.297L732.153 178.663L730.301 180.478L730.745 183.006L728.467 181.81L726.19 183.006L726.615 180.478L724.781 178.663L727.329 178.297L728.467 176Z" fill="#DBDBDB"/>
<path d="M654.606 74.8356C645.863 90.1231 629.382 100.431 610.508 100.431C582.41 100.431 559.676 77.6537 559.676 49.5687C559.676 25.3634 576.581 5.11515 599.238 0C582.892 7.52795 571.564 24.0315 571.564 43.1989C571.564 69.4695 592.869 90.7601 619.135 90.7601C633.242 90.7408 645.902 84.6026 654.606 74.8356Z" fill="#DBDBDB"/>
<path d="M19.2969 639.104C283.707 637.927 580.308 637.907 844.7 639.104C580.289 640.282 283.688 640.282 19.2969 639.104Z" fill="#263238"/>
<path d="M855.354 656.399H8.64579C3.87903 656.399 0 652.519 0 647.752C0 642.984 3.87903 639.104 8.64579 639.104H855.354C860.121 639.104 864 642.984 864 647.752C864 652.519 860.14 656.399 855.354 656.399Z" fill="#455A64"/>
<path d="M683.189 688.796H149.427C144.66 688.796 140.781 684.916 140.781 680.149C140.781 675.381 144.66 671.501 149.427 671.501H683.169C687.936 671.501 691.815 675.381 691.815 680.149C691.834 684.916 687.955 688.796 683.189 688.796Z" fill="#455A64"/>
<path d="M635.24 722H246.392C241.625 722 237.746 718.121 237.746 713.353C237.746 708.585 241.625 704.705 246.392 704.705H635.24C640.007 704.705 643.886 708.585 643.886 713.353C643.886 718.14 640.026 722 635.24 722Z" fill="#455A64"/>
<path d="M113.379 688.796H72.7747C68.0079 688.796 64.1289 684.916 64.1289 680.149C64.1289 675.381 68.0079 671.501 72.7747 671.501H113.379C118.146 671.501 122.025 675.381 122.025 680.149C122.025 684.916 118.165 688.796 113.379 688.796Z" fill="#455A64"/>
<path d="M702.428 722H682.107C677.34 722 673.461 718.121 673.461 713.353C673.461 708.585 677.34 704.705 682.107 704.705H702.409C707.176 704.705 711.055 708.585 711.055 713.353C711.074 718.14 707.195 722 702.428 722Z" fill="#455A64"/>
<path d="M400.121 672.675H176.469C178.862 672.675 181.023 671.71 182.586 670.146C184.15 668.583 185.115 666.421 185.115 664.027C185.115 659.26 181.255 655.38 176.469 655.38H400.121C397.728 655.38 395.566 656.345 394.003 657.909C392.44 659.491 391.475 661.653 391.475 664.027C391.475 668.814 395.335 672.675 400.121 672.675Z" fill="#455A64"/>
<path d="M632.38 672.675H485.672C488.065 672.675 490.226 671.71 491.79 670.146C493.353 668.583 494.318 666.421 494.318 664.027C494.318 659.26 490.458 655.38 485.672 655.38H632.38C629.987 655.38 627.826 656.345 626.262 657.909C624.699 659.491 623.734 661.653 623.734 664.027C623.734 668.814 627.594 672.675 632.38 672.675Z" fill="#455A64"/>
<path d="M521.424 704.898H296.383C298.776 704.898 300.937 703.933 302.5 702.37C304.064 700.806 305.029 698.644 305.029 696.251C305.029 691.483 301.169 687.603 296.383 687.603H521.444C519.05 687.603 516.889 688.568 515.326 690.132C513.763 691.715 512.798 693.876 512.798 696.251C512.778 701.038 516.638 704.898 521.424 704.898Z" fill="#455A64"/>
<path d="M77.1484 638.949H615.6L517.312 396.588L470.03 372.653L419.854 256.877L386.737 214.855L357.577 138.186L323.418 144.73L265.021 305.345L232.425 334.067L161.927 499.509L109.763 559.327L77.1484 638.949Z" fill="#455A64"/>
<path d="M357.577 138.186L361.572 258.961L323.129 322.389L341.154 370.935L305.451 477.967L336.58 566.507L318.15 638.949H77.1484L109.763 559.327L161.927 499.509L232.425 334.067L265.021 305.345L323.418 144.73L357.577 138.186Z" fill="#37474F"/>
<path d="M347.965 446.851L374.79 391.801L372.686 368.464L382.683 351.71L394.783 399.271L358.483 446.851H347.965Z" fill="#37474F"/>
<path d="M786.835 638.988H388.145L440.811 509.604L478.018 479.724L516.403 368.329L547.455 345.436L576.962 278.418H606.103L670.85 415.639L703.812 437.007L786.835 638.988Z" fill="#37474F"/>
<path d="M388.145 638.988H561.06V527.806L600.468 449.979L581.691 368.329L606.103 278.418H576.962L547.455 345.436L516.403 368.329L478.018 479.724L440.811 509.604L388.145 638.988Z" fill="#263238"/>
<path d="M606.105 638.988L620.985 580.463L645.069 550.699L655.799 515.588L663.307 523.231V556.798L645.069 583.513V639.2L606.105 638.988Z" fill="#263238"/>
<path d="M634.707 458.703L638.702 435.212L649.432 421.739L654.469 429.75L647.753 440.212L650.783 462.564L634.707 458.703Z" fill="#263238"/>
<path d="M101.375 638.506C99.1561 640.725 73.3731 641.71 63.994 641.71C54.6149 641.71 28.8319 640.725 26.6125 638.506C24.3932 636.286 55.6377 464.861 63.994 464.861C72.3696 464.861 103.595 636.286 101.375 638.506Z" fill="#263238"/>
<path d="M101.898 594.824C95.5292 597.256 71.927 606.869 66.8321 609.668C66.8321 608.587 66.8128 607.525 66.8128 606.444C72.5059 603.086 78.2183 599.785 83.9307 596.446C90.0677 592.875 96.6292 589.69 102.361 585.501C102.631 585.289 102.477 584.729 102.091 584.884C95.7994 587.509 89.9519 591.389 84.0658 594.844C78.2569 598.241 72.5252 601.754 66.8128 605.286C66.7935 597.063 66.7549 588.86 66.7163 580.637C75.9218 576.95 85.1465 572.028 93.6186 566.971C93.9081 566.797 93.7151 566.257 93.3678 566.392C84.3939 570.098 75.0534 574.46 66.697 579.537C66.6584 575.271 66.6584 570.986 66.6006 566.72C66.369 544.715 66.3304 522.71 65.7707 500.706C71.3673 497.887 77.1376 495.397 82.7149 492.56C83.0816 492.367 82.8307 491.73 82.4254 491.884C76.7516 494.104 71.2901 496.729 65.7128 499.181C65.404 487.831 64.9795 476.481 64.2847 465.151C64.2654 464.784 63.7058 464.764 63.7058 465.151C62.9145 486.229 62.9917 507.307 63.2426 528.405C57.453 523.772 51.2581 519.68 45.372 515.182C45.1405 515.009 44.9282 515.395 45.1405 515.569C51.316 520.259 57.0863 525.471 63.2619 530.142C63.2812 531.339 63.2812 532.516 63.3005 533.713C57.0091 530.837 50.6406 528.173 44.2913 525.451C43.7896 525.239 43.3457 525.953 43.8475 526.185C50.3125 529.293 56.7775 532.458 63.3198 535.392C63.4742 545.835 63.6479 556.277 63.783 566.72C64.0145 584.961 64.4198 603.202 64.8058 621.423C52.9371 615.42 40.972 609.571 28.9489 603.916C28.4857 603.703 28.0998 604.34 28.5436 604.611C40.2772 611.328 52.4354 617.428 64.8444 622.852C65.1725 638.004 65.4812 624.203 65.6742 639.374C65.6935 640.301 67.1216 640.301 67.1023 639.374C66.89 620.053 66.8514 629.665 66.8128 610.344C73.0656 608.799 96.7064 598.666 102.322 595.905C102.921 595.596 102.515 594.593 101.898 594.824Z" fill="#37474F"/>
<path d="M294.342 638.371C292.45 640.262 270.315 641.112 262.267 641.112C254.22 641.112 232.084 640.262 230.193 638.371C228.302 636.479 255.088 489.356 262.267 489.356C269.446 489.356 296.233 636.46 294.342 638.371Z" fill="#263238"/>
<path d="M294.785 600.885C289.323 602.97 269.06 611.212 264.698 613.625C264.698 612.698 264.698 611.772 264.679 610.865C269.562 607.988 274.463 605.151 279.365 602.294C284.615 599.225 290.269 596.504 295.171 592.894C295.402 592.72 295.287 592.218 294.939 592.373C289.536 594.631 284.518 597.971 279.481 600.924C274.502 603.838 269.581 606.85 264.679 609.88C264.66 602.835 264.64 595.77 264.583 588.725C272.476 585.559 280.407 581.332 287.664 576.989C287.915 576.834 287.741 576.371 287.451 576.487C279.751 579.672 271.742 583.416 264.563 587.76C264.544 584.092 264.525 580.425 264.486 576.757C264.293 557.879 264.254 538.982 263.772 520.104C268.577 517.672 273.518 515.549 278.323 513.117C278.632 512.962 278.42 512.403 278.072 512.538C273.209 514.43 268.5 516.688 263.733 518.792C263.483 509.044 263.097 499.316 262.518 489.587C262.498 489.259 262.035 489.259 262.016 489.587C261.34 507.674 261.398 525.779 261.63 543.866C256.651 539.889 251.344 536.376 246.287 532.535C246.094 532.381 245.901 532.728 246.094 532.863C251.382 536.898 256.342 541.356 261.649 545.371C261.668 546.394 261.668 547.417 261.688 548.44C256.284 545.97 250.823 543.673 245.361 541.337C244.937 541.163 244.551 541.762 244.994 541.974C250.552 544.638 256.091 547.359 261.707 549.869C261.842 558.825 261.997 567.801 262.112 576.757C262.325 592.411 262.653 608.066 263 623.701C252.81 618.547 242.543 613.528 232.219 608.664C231.833 608.471 231.485 609.031 231.871 609.262C241.945 615.034 252.386 620.265 263.019 624.917C263.29 637.927 263.56 628.102 263.733 641.111C263.753 641.903 264.969 641.903 264.969 641.111C264.795 624.531 264.756 630.765 264.718 614.185C270.083 612.853 290.366 604.167 295.19 601.792C295.653 601.541 295.306 600.673 294.785 600.885Z" fill="#37474F"/>
<path d="M85.3234 639.143C86.9252 640.745 105.568 641.459 112.341 641.459C119.115 641.459 137.758 640.745 139.36 639.143C140.961 637.54 118.382 513.657 112.341 513.657C106.282 513.657 83.7216 637.54 85.3234 639.143Z" fill="#263238"/>
<path d="M84.9382 607.564C89.5506 609.32 106.591 616.269 110.277 618.296C110.277 617.524 110.277 616.752 110.277 615.96C106.167 613.548 102.037 611.135 97.9069 608.741C93.4875 606.155 88.7208 603.858 84.5909 600.827C84.3979 600.673 84.4944 600.267 84.7839 600.383C89.3383 602.275 93.5647 605.093 97.8104 607.583C101.998 610.034 106.147 612.582 110.277 615.13C110.297 609.185 110.316 603.259 110.355 597.314C103.716 594.65 97.0385 591.079 90.9208 587.431C90.7085 587.296 90.8436 586.91 91.0945 587.007C97.5788 589.69 104.314 592.836 110.355 596.503C110.374 593.415 110.393 590.327 110.412 587.238C110.586 571.333 110.605 555.428 111.011 539.523C106.958 537.477 102.809 535.681 98.7561 533.635C98.4859 533.5 98.6789 533.037 98.9683 533.153C103.079 534.755 107.016 536.647 111.049 538.422C111.262 530.219 111.59 522.015 112.072 513.831C112.091 513.561 112.477 513.561 112.497 513.831C113.056 529.061 113.018 544.31 112.825 559.539C117.013 556.2 121.49 553.227 125.736 549.985C125.909 549.849 126.064 550.139 125.89 550.255C121.432 553.652 117.263 557.397 112.786 560.794C112.767 561.663 112.767 562.512 112.748 563.38C117.283 561.296 121.895 559.366 126.488 557.397C126.855 557.242 127.164 557.763 126.797 557.937C122.127 560.176 117.456 562.473 112.728 564.577C112.612 572.124 112.497 579.672 112.4 587.219C112.227 600.403 111.937 613.586 111.667 626.75C120.235 622.407 128.881 618.18 137.585 614.088C137.913 613.934 138.202 614.397 137.874 614.59C129.402 619.454 120.602 623.855 111.648 627.773C111.416 638.718 111.184 630.206 111.049 641.15C111.049 641.806 110.007 641.826 110.007 641.15C110.162 627.175 110.181 632.696 110.219 618.721C105.704 617.601 88.605 610.285 84.5523 608.278C84.2049 608.124 84.4944 607.409 84.9382 607.564Z" fill="#455A64"/>
<path d="M769.284 638.12C767.238 640.166 743.443 641.073 734.797 641.073C726.152 641.073 702.337 640.166 700.311 638.12C698.265 636.073 727.097 477.871 734.797 477.871C742.517 477.871 771.33 636.073 769.284 638.12Z" fill="#263238"/>
<path d="M769.767 597.797C763.881 600.036 742.112 608.915 737.404 611.501C737.404 610.517 737.384 609.513 737.384 608.529C742.633 605.44 747.902 602.371 753.171 599.302C758.825 596.021 764.904 593.068 770.173 589.188C770.424 588.995 770.288 588.474 769.941 588.609C764.132 591.022 758.729 594.612 753.306 597.797C747.96 600.943 742.653 604.167 737.384 607.429C737.365 599.843 737.346 592.257 737.288 584.69C745.779 581.293 754.309 576.738 762.106 572.067C762.376 571.912 762.202 571.41 761.874 571.526C753.595 574.943 744.988 578.977 737.268 583.648C737.249 579.71 737.23 575.773 737.191 571.816C736.979 551.509 736.94 531.184 736.419 510.897C741.591 508.291 746.898 505.994 752.071 503.369C752.418 503.195 752.167 502.597 751.8 502.751C746.57 504.797 741.514 507.23 736.381 509.488C736.111 499.007 735.705 488.545 735.068 478.083C735.049 477.735 734.547 477.735 734.528 478.083C733.795 497.52 733.872 516.997 734.103 536.453C728.758 532.188 723.045 528.404 717.603 524.254C717.391 524.1 717.179 524.447 717.391 524.602C723.084 528.926 728.41 533.732 734.123 538.056C734.142 539.156 734.142 540.256 734.161 541.356C728.352 538.712 722.466 536.241 716.619 533.732C716.156 533.539 715.75 534.195 716.214 534.427C722.177 537.284 728.14 540.217 734.181 542.92C734.316 552.552 734.489 562.203 734.605 571.835C734.817 588.667 735.203 605.498 735.551 622.33C724.609 616.79 713.55 611.386 702.454 606.174C702.029 605.981 701.662 606.579 702.087 606.811C712.914 613.007 724.145 618.643 735.57 623.643C735.86 637.618 736.149 627.059 736.342 641.053C736.361 641.903 737.674 641.903 737.654 641.053C737.461 623.218 737.423 629.935 737.384 612.081C743.155 610.652 764.981 601.31 770.153 598.743C770.713 598.511 770.327 597.584 769.767 597.797Z" fill="#455A64"/>
<path d="M670.862 638.12C668.816 640.166 645.021 641.073 636.375 641.073C627.73 641.073 603.915 640.166 601.889 638.12C599.843 636.073 628.675 477.871 636.375 477.871C644.076 477.871 672.888 636.073 670.862 638.12Z" fill="#263238"/>
<path d="M671.33 597.797C665.444 600.036 643.675 608.915 638.966 611.501C638.966 610.517 638.966 609.513 638.947 608.529C644.196 605.44 649.465 602.371 654.733 599.302C660.388 596.021 666.467 593.068 671.735 589.188C671.986 588.995 671.851 588.474 671.504 588.609C665.695 591.022 660.291 594.612 654.868 597.797C649.522 600.943 644.215 604.167 638.947 607.429C638.927 599.843 638.908 592.257 638.85 584.69C647.342 581.293 655.872 576.738 663.668 572.067C663.938 571.912 663.765 571.41 663.437 571.526C655.158 574.943 646.55 578.977 638.831 583.648C638.812 579.71 638.792 575.773 638.754 571.816C638.541 551.509 638.503 531.184 637.982 510.897C643.154 508.291 648.461 505.994 653.633 503.369C653.98 503.195 653.73 502.597 653.363 502.751C648.133 504.797 643.077 507.23 637.943 509.488C637.673 499.007 637.268 488.545 636.631 478.083C636.612 477.735 636.11 477.735 636.091 478.083C635.357 497.52 635.434 516.997 635.666 536.453C630.32 532.188 624.608 528.404 619.166 524.254C618.953 524.1 618.741 524.447 618.953 524.602C624.646 528.926 629.973 533.732 635.685 538.056C635.705 539.156 635.705 540.256 635.724 541.356C629.915 538.712 624.029 536.241 618.181 533.732C617.718 533.539 617.313 534.195 617.776 534.427C623.739 537.284 629.703 540.217 635.743 542.92C635.878 552.552 636.052 562.203 636.168 571.835C636.38 588.667 636.766 605.498 637.113 622.33C626.171 616.79 615.113 611.386 604.016 606.174C603.592 605.981 603.225 606.579 603.65 606.811C614.476 613.007 625.708 618.643 637.133 623.643C637.422 637.618 637.712 627.059 637.905 641.053C637.924 641.903 639.236 641.903 639.217 641.053C639.024 623.218 638.985 629.935 638.947 612.081C644.717 610.652 666.544 601.31 671.716 598.743C672.275 598.511 671.909 597.584 671.33 597.797Z" fill="#455A64"/>
<path d="M658.162 639.645C659.59 641.073 676.226 641.71 682.266 641.71C688.307 641.71 704.942 641.073 706.37 639.645C707.798 638.216 687.65 527.652 682.266 527.652C676.882 527.652 656.734 638.216 658.162 639.645Z" fill="#263238"/>
<path d="M657.837 611.463C661.947 613.026 677.174 619.223 680.455 621.037C680.455 620.342 680.455 619.647 680.455 618.952C676.788 616.79 673.102 614.648 669.416 612.505C665.46 610.208 661.214 608.143 657.528 605.441C657.354 605.305 657.451 604.939 657.702 605.035C661.754 606.734 665.537 609.243 669.32 611.463C673.063 613.663 676.769 615.922 680.455 618.199C680.474 612.891 680.493 607.602 680.532 602.294C674.607 599.92 668.644 596.735 663.183 593.473C662.99 593.357 663.125 593.01 663.337 593.106C669.127 595.5 675.148 598.318 680.532 601.58C680.551 598.82 680.571 596.06 680.59 593.319C680.744 579.131 680.764 564.925 681.13 550.737C677.521 548.923 673.797 547.302 670.188 545.487C669.956 545.371 670.111 544.947 670.362 545.043C674.028 546.472 677.541 548.17 681.15 549.753C681.343 542.437 681.632 535.122 682.076 527.806C682.095 527.575 682.443 527.555 682.462 527.806C682.964 541.395 682.925 555.003 682.751 568.611C686.495 565.62 690.471 562.994 694.273 560.099C694.427 559.983 694.562 560.234 694.408 560.35C690.432 563.381 686.708 566.739 682.713 569.75C682.693 570.522 682.694 571.295 682.674 572.047C686.727 570.194 690.838 568.476 694.948 566.72C695.276 566.585 695.546 567.048 695.218 567.202C691.05 569.21 686.881 571.237 682.655 573.128C682.558 579.865 682.443 586.601 682.365 593.338C682.211 605.093 681.96 616.868 681.709 628.623C689.371 624.743 697.071 620.979 704.829 617.331C705.118 617.196 705.389 617.601 705.08 617.775C697.515 622.118 689.66 626.036 681.671 629.53C681.458 639.297 681.265 631.48 681.13 641.247C681.13 641.845 680.204 641.845 680.204 641.247C680.339 628.777 680.358 633.912 680.397 621.442C676.364 620.439 661.118 613.914 657.489 612.119C657.181 611.965 657.432 611.309 657.837 611.463Z" fill="#37474F"/>
<path d="M195.631 639.413C197.059 640.841 213.694 641.478 219.735 641.478C225.775 641.478 242.411 640.841 243.839 639.413C245.267 637.985 225.119 527.42 219.735 527.42C214.351 527.42 194.203 637.985 195.631 639.413Z" fill="#263238"/>
<path d="M195.301 611.251C199.411 612.814 214.638 619.01 217.919 620.825C217.919 620.13 217.919 619.435 217.919 618.74C214.252 616.578 210.566 614.436 206.88 612.293C202.924 609.996 198.678 607.931 194.992 605.228C194.818 605.093 194.915 604.726 195.166 604.823C199.218 606.522 203.001 609.031 206.783 611.251C210.527 613.451 214.233 615.71 217.919 617.987C217.938 612.679 217.957 607.39 217.977 602.082C212.052 599.708 206.089 596.523 200.627 593.261C200.434 593.145 200.569 592.798 200.781 592.894C206.571 595.288 212.592 598.106 217.977 601.368C217.996 598.608 218.015 595.867 218.034 593.106C218.189 578.919 218.208 564.712 218.575 550.525C214.966 548.711 211.241 547.089 207.632 545.275C207.401 545.159 207.555 544.734 207.806 544.831C211.473 546.259 214.985 547.958 218.594 549.541C218.787 542.225 219.077 534.91 219.52 527.594C219.54 527.362 219.887 527.343 219.906 527.594C220.408 541.183 220.37 554.791 220.196 568.399C223.94 565.407 227.915 562.782 231.717 559.887C231.872 559.771 232.007 560.022 231.852 560.138C227.877 563.168 224.152 566.527 220.157 569.538C220.138 570.31 220.138 571.082 220.119 571.835C224.171 569.982 228.282 568.264 232.393 566.508C232.721 566.372 232.991 566.836 232.663 566.99C228.494 568.998 224.326 571.024 220.099 572.916C220.003 579.653 219.887 586.389 219.81 593.126C219.656 604.881 219.405 616.655 219.154 628.411C226.815 624.531 234.515 620.767 242.274 617.119C242.563 616.984 242.833 617.389 242.524 617.563C234.959 621.906 227.105 625.824 219.115 629.318C218.903 639.085 218.71 631.48 218.575 641.266C218.575 641.864 217.648 641.864 217.648 641.266C217.784 628.797 217.803 633.719 217.841 621.249C213.808 620.246 198.562 613.721 194.934 611.926C194.645 611.733 194.915 611.096 195.301 611.251Z" fill="#37474F"/>
<path d="M338.83 639.201C340.258 640.629 356.894 641.266 362.934 641.266C368.975 641.266 385.61 640.629 387.038 639.201C388.466 637.772 368.318 527.208 362.934 527.208C357.55 527.208 337.402 637.772 338.83 639.201Z" fill="#263238"/>
<path d="M338.503 611.019C342.613 612.583 357.84 618.779 361.121 620.593C361.121 619.898 361.121 619.203 361.121 618.508C357.454 616.347 353.768 614.204 350.082 612.061C346.126 609.764 341.88 607.699 338.194 604.997C338.02 604.862 338.117 604.495 338.368 604.591C342.44 606.29 346.203 608.799 349.985 611.019C353.729 613.22 357.435 615.478 361.121 617.756C361.14 612.447 361.159 607.159 361.198 601.85C355.273 599.476 349.31 596.291 343.848 593.029C343.655 592.913 343.791 592.566 344.003 592.662C349.792 595.056 355.814 597.874 361.198 601.136C361.217 598.376 361.236 595.635 361.256 592.875C361.41 578.687 361.429 564.481 361.796 550.294C358.187 548.479 354.463 546.858 350.854 545.043C350.622 544.927 350.777 544.503 351.047 544.599C354.714 546.028 358.226 547.726 361.835 549.309C362.028 541.993 362.317 534.678 362.761 527.362C362.78 527.131 363.128 527.111 363.147 527.362C363.649 540.951 363.61 554.559 363.437 568.168C367.18 565.176 371.156 562.551 374.958 559.655C375.112 559.539 375.247 559.79 375.112 559.906C371.137 562.937 367.412 566.295 363.417 569.306C363.398 570.079 363.398 570.851 363.379 571.603C367.431 569.75 371.542 568.033 375.653 566.276C375.981 566.141 376.251 566.604 375.942 566.759C371.774 568.766 367.605 570.793 363.379 572.684C363.282 579.421 363.166 586.158 363.089 592.894C362.935 604.649 362.684 616.424 362.433 628.179C370.095 624.299 377.795 620.535 385.553 616.887C385.842 616.752 386.112 617.157 385.804 617.331C378.239 621.674 370.384 625.592 362.394 629.086C362.182 638.853 361.989 631.48 361.854 641.247C361.854 641.845 360.928 641.845 360.928 641.247C361.063 628.777 361.082 633.468 361.121 620.998C357.087 619.995 341.841 613.47 338.213 611.675C337.847 611.521 338.097 610.865 338.503 611.019Z" fill="#37474F"/>
<path d="M789.201 639.201C790.629 640.629 807.265 641.266 813.305 641.266C819.346 641.266 835.981 640.629 837.409 639.201C838.837 637.772 818.689 527.208 813.305 527.208C807.921 527.208 787.773 637.772 789.201 639.201Z" fill="#263238"/>
<path d="M788.872 611.019C792.983 612.583 808.21 618.779 811.49 620.593C811.49 619.898 811.49 619.203 811.49 618.508C807.824 616.347 804.138 614.204 800.452 612.061C796.495 609.764 792.25 607.699 788.564 604.997C788.39 604.862 788.486 604.495 788.737 604.591C792.809 606.29 796.573 608.799 800.355 611.019C804.099 613.22 807.804 615.478 811.49 617.756C811.51 612.447 811.529 607.159 811.568 601.85C805.643 599.476 799.68 596.291 794.218 593.029C794.025 592.913 794.16 592.566 794.372 592.662C800.162 595.056 806.183 597.874 811.568 601.136C811.587 598.376 811.606 595.635 811.625 592.875C811.78 578.687 811.799 564.481 812.166 550.294C808.557 548.479 804.832 546.858 801.224 545.043C800.992 544.927 801.146 544.503 801.397 544.599C805.064 546.028 808.576 547.726 812.185 549.309C812.378 541.993 812.668 534.678 813.111 527.362C813.131 527.131 813.478 527.111 813.497 527.362C813.999 540.951 813.961 554.559 813.787 568.168C817.531 565.176 821.506 562.551 825.308 559.655C825.463 559.539 825.598 559.79 825.463 559.906C821.487 562.937 817.762 566.295 813.768 569.306C813.748 570.079 813.748 570.851 813.729 571.603C817.782 569.75 821.892 568.033 826.003 566.276C826.331 566.141 826.601 566.604 826.292 566.759C822.124 568.766 817.955 570.793 813.729 572.684C813.632 579.421 813.517 586.158 813.44 592.894C813.285 604.649 813.034 616.424 812.783 628.179C820.445 624.299 828.145 620.535 835.903 616.887C836.193 616.752 836.463 617.157 836.154 617.331C828.589 621.674 820.734 625.592 812.745 629.086C812.533 638.853 812.34 631.48 812.204 641.247C812.204 641.845 811.278 641.845 811.278 641.247C811.413 628.777 811.432 633.468 811.471 620.998C807.438 619.995 792.192 613.47 788.564 611.675C788.197 611.521 788.467 610.865 788.872 611.019Z" fill="#37474F"/>
<path d="M610.001 631.248H607.145V639.297H610.001V631.248Z" fill="#263238"/>
<path d="M471.801 631.248H468.945V639.297H471.801V631.248Z" fill="#263238"/>
<path d="M468.945 639.278L509.279 579.305L550.675 639.278H468.945Z" fill="#E83A15"/>
<path opacity="0.1" d="M468.945 639.278L509.279 579.305L550.675 639.278H468.945Z" fill="black"/>
<path d="M509.273 579.305H568.385L609.491 639.278H550.669L509.273 579.305Z" fill="#E83A15"/>
<path d="M534.484 590.211H561.502L569.724 602.217H542.764L534.484 590.211Z" fill="white"/>
<path opacity="0.3" d="M496.023 639.278H521.459L509.282 579.305L496.023 639.278Z" fill="black"/>
<path d="M552.087 631.248H549.23V639.297H552.087V631.248Z" fill="#263238"/>
<path d="M509.279 579.305C499.514 598.801 488.185 620.207 477.629 639.297C487.394 619.782 498.684 598.357 509.279 579.305Z" fill="white"/>
<path d="M509.273 579.305C519.753 598.26 530.946 619.57 540.614 638.969C530.135 619.975 518.942 598.685 509.273 579.305Z" fill="white"/>
<path d="M496.024 639.278C496.024 639.278 494.191 630.785 485.41 623.295L509.283 579.305L496.024 639.278Z" fill="#E83A15"/>
<path d="M521.451 639.278L509.273 579.286L534.13 625.573C534.13 625.592 523.13 627.002 521.451 639.278Z" fill="#E83A15"/>
<path d="M291.238 217.481C291.238 217.461 291.238 217.461 291.219 217.461C290.755 216.921 290.234 216.419 289.694 215.937C289.694 215.917 289.694 215.917 289.675 215.917C289.212 215.377 288.691 214.875 288.15 214.392C288.15 214.373 288.15 214.373 288.131 214.373C287.668 213.833 287.147 213.331 286.606 212.848C286.606 212.829 286.606 212.829 286.587 212.829C286.124 212.288 285.603 211.787 285.062 211.304C285.062 211.285 285.062 211.285 285.043 211.285C284.58 210.744 284.059 210.242 283.518 209.76C283.518 209.74 283.518 209.74 283.499 209.74C283.036 209.2 282.515 208.698 281.975 208.216C281.975 208.196 281.975 208.196 281.955 208.196C281.492 207.656 280.971 207.154 280.431 206.671C280.431 206.652 280.431 206.652 280.411 206.652C279.948 206.112 279.427 205.61 278.887 205.127C278.887 205.108 278.887 205.108 278.868 205.108C278.404 204.567 277.883 204.066 277.343 203.583C277.343 203.564 277.343 203.564 277.324 203.564C275.76 201.865 273.966 200.417 271.939 199.24V47.5999C271.939 46.8085 271.553 46.3838 271.553 45.5924C271.553 44.3764 271.553 43.971 271.148 43.1796C271.148 42.7743 270.762 41.9636 270.762 41.5582C270.357 40.3422 270.357 39.9368 269.952 39.1454C269.546 38.7401 269.16 37.9294 269.16 37.524C268.35 36.3079 267.944 35.9026 267.539 35.5165C267.134 35.1112 266.748 34.3005 266.323 33.8951L264.702 32.2737C264.702 32.0228 264.394 31.7912 264.046 31.6175C263.834 31.4051 263.583 31.1542 263.255 30.8261L263.178 30.7488C263.178 30.4979 262.869 30.2663 262.522 30.0926C262.309 29.8802 262.058 29.6293 261.73 29.3012L261.653 29.2239C261.653 28.973 261.344 28.7414 260.997 28.5677C260.785 28.3553 260.534 28.1044 260.206 27.7763L260.129 27.6991C260.129 27.4481 259.82 27.2165 259.472 27.0428C259.26 26.8304 259.009 26.5795 258.681 26.2514L258.604 26.1742C258.604 25.9232 258.295 25.6916 257.948 25.5179C257.736 25.3056 257.485 25.0546 257.157 24.7265L257.079 24.6493C257.079 24.3983 256.771 24.1667 256.423 23.993C256.211 23.7807 255.96 23.5297 255.632 23.2016L255.555 23.1244C255.555 22.8734 255.246 22.6418 254.899 22.4681C254.686 22.2558 254.435 22.0048 254.107 21.6767L254.03 21.5995C254.03 21.3486 253.721 21.1169 253.374 20.9432C253.162 20.7309 252.911 20.4799 252.583 20.1518L252.506 20.0746C252.506 19.8237 252.197 19.592 251.849 19.4183C251.637 19.206 251.386 18.955 251.058 18.6269L250.981 18.5497C250.981 18.2988 250.672 18.0671 250.325 17.8934L249.437 17.0055C249.437 16.6195 248.646 16.2141 248.221 16.2141C248.221 15.8087 247.835 15.8088 247.835 15.8088C247.025 15.4227 246.6 15.0174 245.809 14.5927C245.404 14.1874 244.593 13.8013 243.802 12.9713C243.397 12.9713 242.586 12.5852 242.181 12.5852C241.39 12.1799 240.154 12.1799 239.768 11.7745C238.977 11.7745 238.553 11.7745 237.742 11.3885H235.33C234.944 11.3885 234.944 11.3885 234.539 11.3885C234.133 11.3885 233.747 11.3885 233.747 11.3885H230.93C230.524 11.7745 229.714 11.7745 229.309 11.7745C228.093 12.1799 227.302 12.1799 226.896 12.5852C226.105 12.5852 225.68 12.9713 225.275 13.8013C224.059 13.8013 223.673 14.1874 222.863 14.5927C222.477 14.9981 221.647 15.4034 221.242 15.8088C220.856 16.2141 220.451 16.6194 219.235 17.0248C218.849 17.8355 218.443 18.2409 218.019 18.6462C217.614 19.0516 217.614 19.4376 217.228 19.4376L68.1264 204.857C60.8894 213.968 61.5649 226.688 70.1335 234.505C70.5966 235.065 71.1177 235.567 71.6773 236.05C72.1405 236.609 72.6616 237.111 73.2212 237.594C73.6844 238.154 74.2055 238.656 74.7651 239.138C75.2283 239.698 75.7494 240.2 76.309 240.682C76.7722 241.242 77.2932 241.744 77.8529 242.226C78.3161 242.786 78.8371 243.288 79.3968 243.771C79.86 244.33 80.381 244.832 80.9407 245.315C81.4039 245.875 81.9249 246.376 82.4846 246.859C82.9478 247.419 83.4688 247.921 84.0285 248.403C84.9548 249.446 86.0162 250.43 87.1742 251.318C91.2076 254.947 96.0322 256.144 100.876 256.144H212.461V271.412C212.461 278.09 215.201 283.939 219.659 287.954L219.717 288.012C220.18 288.533 220.682 289.016 221.184 289.479C221.203 289.498 221.222 289.498 221.222 289.517C221.686 290.058 222.207 290.54 222.708 291.004L222.766 291.062C223.23 291.583 223.731 292.065 224.233 292.529C224.252 292.548 224.272 292.548 224.272 292.567C224.735 293.108 225.256 293.59 225.758 294.054L225.816 294.111C226.279 294.633 226.78 295.115 227.282 295.578C227.302 295.598 227.321 295.598 227.321 295.617C227.784 296.157 228.305 296.64 228.807 297.103L228.865 297.161C229.328 297.682 229.83 298.165 230.331 298.628C230.351 298.647 230.37 298.648 230.37 298.667C230.833 299.207 231.354 299.69 231.856 300.153L231.914 300.211C232.377 300.732 232.879 301.215 233.381 301.678C233.4 301.697 233.419 301.697 233.419 301.717C237.433 306.118 243.242 308.839 249.862 308.839C262.348 308.839 272.017 299.149 272.017 286.661V256.028H276.05C288.536 256.028 298.61 246.357 298.61 233.868C298.61 227.402 295.754 221.554 291.238 217.481ZM212.345 131.16V196.306H159.872L212.345 131.16Z" fill="#E83A15"/>
<path opacity="0.1" d="M291.238 217.481C291.238 217.461 291.238 217.461 291.219 217.461C290.755 216.921 290.234 216.419 289.694 215.937C289.694 215.917 289.694 215.917 289.675 215.917C289.212 215.377 288.691 214.875 288.15 214.392C288.15 214.373 288.15 214.373 288.131 214.373C287.668 213.833 287.147 213.331 286.606 212.848C286.606 212.829 286.606 212.829 286.587 212.829C286.124 212.288 285.603 211.787 285.062 211.304C285.062 211.285 285.062 211.285 285.043 211.285C284.58 210.744 284.059 210.242 283.518 209.76C283.518 209.74 283.518 209.74 283.499 209.74C283.036 209.2 282.515 208.698 281.975 208.216C281.975 208.196 281.975 208.196 281.955 208.196C281.492 207.656 280.971 207.154 280.431 206.671C280.431 206.652 280.431 206.652 280.411 206.652C279.948 206.112 279.427 205.61 278.887 205.127C278.887 205.108 278.887 205.108 278.868 205.108C278.404 204.567 277.883 204.066 277.343 203.583C277.343 203.564 277.343 203.564 277.324 203.564C275.76 201.865 273.966 200.417 271.939 199.24V47.5999C271.939 46.8085 271.553 46.3838 271.553 45.5924C271.553 44.3764 271.553 43.971 271.148 43.1796C271.148 42.7743 270.762 41.9636 270.762 41.5582C270.357 40.3422 270.357 39.9368 269.952 39.1454C269.546 38.7401 269.16 37.9294 269.16 37.524C268.35 36.3079 267.944 35.9026 267.539 35.5165C267.134 35.1112 266.748 34.3005 266.323 33.8951L264.702 32.2737C264.702 32.0228 264.394 31.7912 264.046 31.6175C263.834 31.4051 263.583 31.1542 263.255 30.8261L263.178 30.7488C263.178 30.4979 262.869 30.2663 262.522 30.0926C262.309 29.8802 262.058 29.6293 261.73 29.3012L261.653 29.2239C261.653 28.973 261.344 28.7414 260.997 28.5677C260.785 28.3553 260.534 28.1044 260.206 27.7763L260.129 27.6991C260.129 27.4481 259.82 27.2165 259.472 27.0428C259.26 26.8304 259.009 26.5795 258.681 26.2514L258.604 26.1742C258.604 25.9232 258.295 25.6916 257.948 25.5179C257.736 25.3056 257.485 25.0546 257.157 24.7265L257.079 24.6493C257.079 24.3983 256.771 24.1667 256.423 23.993C256.211 23.7807 255.96 23.5297 255.632 23.2016L255.555 23.1244C255.555 22.8734 255.246 22.6418 254.899 22.4681C254.686 22.2558 254.435 22.0048 254.107 21.6767L254.03 21.5995C254.03 21.3486 253.721 21.1169 253.374 20.9432C253.162 20.7309 252.911 20.4799 252.583 20.1518L252.506 20.0746C252.506 19.8237 252.197 19.592 251.849 19.4183C251.637 19.206 251.386 18.955 251.058 18.6269L250.981 18.5497C250.981 18.2988 250.672 18.0671 250.325 17.8934L249.437 17.0055C249.437 16.6195 248.646 16.2141 248.221 16.2141C248.221 15.8087 247.835 15.8088 247.835 15.8088C247.025 15.4227 246.6 15.0174 245.809 14.5927C245.404 14.1874 244.593 13.8013 243.802 12.9713C243.397 12.9713 242.586 12.5852 242.181 12.5852C241.39 12.1799 240.154 12.1799 239.768 11.7745C238.977 11.7745 238.553 11.7745 237.742 11.3885H235.33C234.944 11.3885 234.944 11.3885 234.539 11.3885C234.133 11.3885 233.747 11.3885 233.747 11.3885H230.93C230.524 11.7745 229.714 11.7745 229.309 11.7745C228.093 12.1799 227.302 12.1799 226.896 12.5852C226.105 12.5852 225.68 12.9713 225.275 13.8013C224.059 13.8013 223.673 14.1874 222.863 14.5927C222.477 14.9981 221.647 15.4034 221.242 15.8088C220.856 16.2141 220.451 16.6194 219.235 17.0248C218.849 17.8355 218.443 18.2409 218.019 18.6462C217.614 19.0516 217.614 19.4376 217.228 19.4376L68.1264 204.857C60.8894 213.968 61.5649 226.688 70.1335 234.505C70.5966 235.065 71.1177 235.567 71.6773 236.05C72.1405 236.609 72.6616 237.111 73.2212 237.594C73.6844 238.154 74.2055 238.656 74.7651 239.138C75.2283 239.698 75.7494 240.2 76.309 240.682C76.7722 241.242 77.2932 241.744 77.8529 242.226C78.3161 242.786 78.8371 243.288 79.3968 243.771C79.86 244.33 80.381 244.832 80.9407 245.315C81.4039 245.875 81.9249 246.376 82.4846 246.859C82.9478 247.419 83.4688 247.921 84.0285 248.403C84.9548 249.446 86.0162 250.43 87.1742 251.318C91.2076 254.947 96.0322 256.144 100.876 256.144H212.461V271.412C212.461 278.09 215.201 283.939 219.659 287.954L219.717 288.012C220.18 288.533 220.682 289.016 221.184 289.479C221.203 289.498 221.222 289.498 221.222 289.517C221.686 290.058 222.207 290.54 222.708 291.004L222.766 291.062C223.23 291.583 223.731 292.065 224.233 292.529C224.252 292.548 224.272 292.548 224.272 292.567C224.735 293.108 225.256 293.59 225.758 294.054L225.816 294.111C226.279 294.633 226.78 295.115 227.282 295.578C227.302 295.598 227.321 295.598 227.321 295.617C227.784 296.157 228.305 296.64 228.807 297.103L228.865 297.161C229.328 297.682 229.83 298.165 230.331 298.628C230.351 298.647 230.37 298.648 230.37 298.667C230.833 299.207 231.354 299.69 231.856 300.153L231.914 300.211C232.377 300.732 232.879 301.215 233.381 301.678C233.4 301.697 233.419 301.697 233.419 301.717C237.433 306.118 243.242 308.839 249.862 308.839C262.348 308.839 272.017 299.149 272.017 286.661V256.028H276.05C288.536 256.028 298.61 246.357 298.61 233.868C298.61 227.402 295.754 221.554 291.238 217.481ZM212.345 131.16V196.306H159.872L212.345 131.16Z" fill="black"/>
<path d="M283.246 218.465C283.246 230.954 273.172 240.624 260.686 240.624H256.653V271.257C256.653 283.746 246.984 293.417 234.498 293.417C222.011 293.417 212.324 283.746 212.324 271.257V240.624H86.2069H85.8017H85.3964C80.5524 240.624 75.7278 239.408 71.6944 235.78C61.6205 228.116 60.4047 214.412 68.0662 204.741L217.167 19.3412C217.573 19.3412 217.573 18.9359 217.978 18.5305C218.383 18.1252 218.789 17.7198 219.194 16.9091C220.39 16.5038 220.796 16.0984 221.201 15.6931C221.606 15.2877 222.417 14.8824 222.822 14.477C223.633 14.0717 224.038 13.6663 225.234 13.6663C225.64 12.8556 226.045 12.4503 226.855 12.4503C227.261 12.0449 228.071 12.0449 229.268 11.6396C229.673 11.6396 230.464 11.6396 230.87 11.2342C231.68 11.2342 232.877 11.2342 233.687 11.2342C233.687 11.2342 234.092 11.2342 234.498 11.2342C234.903 11.2342 234.903 11.2342 235.308 11.2342C236.119 11.2342 237.315 11.2342 237.721 11.2342C238.531 11.6396 238.936 11.6396 239.728 11.6396C240.133 12.0449 241.329 12.0449 242.14 12.4503C242.545 12.4503 243.356 12.8556 243.761 12.8556C244.572 13.6663 245.363 14.0717 245.768 14.4577C246.579 14.8631 246.984 15.2684 247.775 15.6738C247.775 15.6738 248.18 15.6738 248.18 16.0791C248.586 16.0791 249.396 16.4845 249.396 16.8898C250.207 17.7005 250.593 18.1059 250.998 18.5112C251.403 18.9166 251.809 19.7273 252.214 20.1133C252.619 20.5187 253.024 20.924 253.835 22.1208C253.835 22.5261 254.24 23.3368 254.645 23.7422C255.051 24.5529 255.051 24.9583 255.456 26.155C255.456 26.5604 255.861 27.3711 255.861 27.7571C256.267 28.5678 256.267 28.9732 256.267 30.1699C256.267 30.9806 256.672 31.386 256.672 32.1774C256.672 32.5827 256.672 32.9881 256.672 33.3934V196.229H260.705C273.172 196.287 283.246 206.363 283.246 218.465ZM212.343 96.744L132.157 196.306H212.343V96.744Z" fill="#E83A15"/>
<path d="M518.979 71.3806C514.386 64.3931 509.117 57.9267 503.212 52.1939C502.98 51.943 502.768 51.7307 502.517 51.5183C502.459 51.4604 502.401 51.3832 502.305 51.306C502.112 51.0937 501.938 50.9007 501.726 50.7076C501.205 50.1479 500.664 49.646 500.124 49.1055C500.085 49.0669 500.027 49.009 499.989 48.9897C499.796 48.7967 499.622 48.623 499.429 48.4299C499.371 48.372 499.313 48.2948 499.217 48.2176C499.024 48.0053 498.85 47.8123 498.638 47.6192C498.117 47.0595 497.576 46.5576 497.036 46.0171C496.998 45.9785 496.94 45.9206 496.901 45.9013C496.708 45.7083 496.534 45.5346 496.341 45.3416C496.283 45.2836 496.226 45.2064 496.129 45.1292C495.936 44.9169 495.762 44.7239 495.55 44.5308C495.029 43.9711 494.489 43.4692 493.948 42.9287C493.91 42.8901 493.852 42.8322 493.813 42.8129C493.62 42.6199 493.447 42.4462 493.254 42.2532C493.196 42.1952 493.138 42.118 493.041 42.0408C492.848 41.8285 492.675 41.6355 492.462 41.4425C491.941 40.8827 491.401 40.3808 490.861 39.8403C490.822 39.8017 490.764 39.7438 490.725 39.7245C490.532 39.5122 490.378 39.3385 490.166 39.1648C490.108 39.1069 490.05 39.0296 489.953 38.9524C473.781 22.2558 452.669 11.2148 429.008 11.2148C397.166 11.2148 370.977 30.1505 354.052 55.9386C336.317 81.746 327.073 115.197 326.648 152.277C327.054 188.952 336.317 222.808 354.052 248.616C358.626 255.429 363.837 261.838 369.646 267.532C369.916 267.802 370.186 268.053 370.437 268.304C370.476 268.323 370.514 268.362 370.534 268.401C370.997 268.883 371.498 269.366 371.962 269.829C372.213 270.099 372.444 270.35 372.695 270.582C372.965 270.852 373.235 271.103 373.486 271.354C373.525 271.373 373.563 271.412 373.583 271.45C374.046 271.933 374.548 272.416 375.011 272.879C375.262 273.149 375.493 273.4 375.744 273.632C376.014 273.902 376.285 274.153 376.535 274.404C376.574 274.423 376.613 274.462 376.632 274.5C377.095 274.983 377.597 275.465 378.06 275.929C378.311 276.199 378.542 276.45 378.793 276.681C379.064 276.952 379.334 277.203 379.585 277.453C379.623 277.473 379.662 277.511 379.681 277.55C380.144 278.033 380.646 278.515 381.109 278.978C381.36 279.249 381.592 279.5 381.843 279.731C382.113 280.001 382.383 280.252 382.634 280.503C382.672 280.523 382.711 280.561 382.73 280.6C383.193 281.082 383.695 281.565 384.158 282.028C400.08 297.933 420.633 308.608 444.254 308.608C475.267 308.608 501.861 289.247 518.805 263.865C536.135 238.057 545.804 204.201 545.804 167.526C545.977 130.639 536.309 97.1879 518.979 71.3806ZM466.544 223.696C454.849 241.03 441.572 248.674 429.066 248.674C422.196 248.674 414.94 246.357 407.818 241.358C407.24 240.624 406.699 239.833 406.14 239.042C394.85 222.113 386.783 196.325 386.783 167.7C386.783 138.688 394.85 113.286 406.14 95.9719C418.24 79.0436 431.942 70.9945 444.428 71.3806C451.067 71.1682 457.918 73.3494 464.653 78.0013C465.29 78.8699 465.927 79.7192 466.544 80.6264C477.834 97.96 485.901 123.343 485.901 152.354C485.901 180.98 477.834 206.768 466.544 223.696Z" fill="#E83A15"/>
<path opacity="0.1" d="M518.979 71.3806C514.386 64.3931 509.117 57.9267 503.212 52.1939C502.98 51.943 502.768 51.7307 502.517 51.5183C502.459 51.4604 502.401 51.3832 502.305 51.306C502.112 51.0937 501.938 50.9007 501.726 50.7076C501.205 50.1479 500.664 49.646 500.124 49.1055C500.085 49.0669 500.027 49.009 499.989 48.9897C499.796 48.7967 499.622 48.623 499.429 48.4299C499.371 48.372 499.313 48.2948 499.217 48.2176C499.024 48.0053 498.85 47.8123 498.638 47.6192C498.117 47.0595 497.576 46.5576 497.036 46.0171C496.998 45.9785 496.94 45.9206 496.901 45.9013C496.708 45.7083 496.534 45.5346 496.341 45.3416C496.283 45.2836 496.226 45.2064 496.129 45.1292C495.936 44.9169 495.762 44.7239 495.55 44.5308C495.029 43.9711 494.489 43.4692 493.948 42.9287C493.91 42.8901 493.852 42.8322 493.813 42.8129C493.62 42.6199 493.447 42.4462 493.254 42.2532C493.196 42.1952 493.138 42.118 493.041 42.0408C492.848 41.8285 492.675 41.6355 492.462 41.4425C491.941 40.8827 491.401 40.3808 490.861 39.8403C490.822 39.8017 490.764 39.7438 490.725 39.7245C490.532 39.5122 490.378 39.3385 490.166 39.1648C490.108 39.1069 490.05 39.0296 489.953 38.9524C473.781 22.2558 452.669 11.2148 429.008 11.2148C397.166 11.2148 370.977 30.1505 354.052 55.9386C336.317 81.746 327.073 115.197 326.648 152.277C327.054 188.952 336.317 222.808 354.052 248.616C358.626 255.429 363.837 261.838 369.646 267.532C369.916 267.802 370.186 268.053 370.437 268.304C370.476 268.323 370.514 268.362 370.534 268.401C370.997 268.883 371.498 269.366 371.962 269.829C372.213 270.099 372.444 270.35 372.695 270.582C372.965 270.852 373.235 271.103 373.486 271.354C373.525 271.373 373.563 271.412 373.583 271.45C374.046 271.933 374.548 272.416 375.011 272.879C375.262 273.149 375.493 273.4 375.744 273.632C376.014 273.902 376.285 274.153 376.535 274.404C376.574 274.423 376.613 274.462 376.632 274.5C377.095 274.983 377.597 275.465 378.06 275.929C378.311 276.199 378.542 276.45 378.793 276.681C379.064 276.952 379.334 277.203 379.585 277.453C379.623 277.473 379.662 277.511 379.681 277.55C380.144 278.033 380.646 278.515 381.109 278.978C381.36 279.249 381.592 279.5 381.843 279.731C382.113 280.001 382.383 280.252 382.634 280.503C382.672 280.523 382.711 280.561 382.73 280.6C383.193 281.082 383.695 281.565 384.158 282.028C400.08 297.933 420.633 308.608 444.254 308.608C475.267 308.608 501.861 289.247 518.805 263.865C536.135 238.057 545.804 204.201 545.804 167.526C545.977 130.639 536.309 97.1879 518.979 71.3806ZM466.544 223.696C454.849 241.03 441.572 248.674 429.066 248.674C422.196 248.674 414.94 246.357 407.818 241.358C407.24 240.624 406.699 239.833 406.14 239.042C394.85 222.113 386.783 196.325 386.783 167.7C386.783 138.688 394.85 113.286 406.14 95.9719C418.24 79.0436 431.942 70.9945 444.428 71.3806C451.067 71.1682 457.918 73.3494 464.653 78.0013C465.29 78.8699 465.927 79.7192 466.544 80.6264C477.834 97.96 485.901 123.343 485.901 152.354C485.901 180.98 477.834 206.768 466.544 223.696Z" fill="black"/>
<path d="M326.723 152.354C327.128 115.274 336.391 81.8232 354.127 56.0159C371.052 30.2278 397.24 11.2728 429.083 11.2728C460.115 11.2728 486.708 30.2085 503.633 56.0159C520.963 81.8039 530.632 115.255 530.632 152.354C530.632 189.029 520.963 222.886 503.633 248.674C486.708 274.076 460.115 293.417 429.083 293.417C397.24 293.417 371.052 274.076 354.127 248.674C336.391 222.886 327.128 189.029 326.723 152.354ZM485.879 152.354C485.879 123.343 477.812 97.9408 466.541 80.6072C454.846 63.6789 441.569 55.6105 429.063 56.0159C416.577 55.6105 402.875 63.6789 390.775 80.6072C379.485 97.9408 371.438 123.323 371.438 152.354C371.438 180.98 379.504 206.768 390.775 223.696C402.856 241.03 416.558 248.693 429.063 248.693C441.55 248.693 454.846 241.03 466.541 223.696C477.831 206.768 485.879 180.98 485.879 152.354Z" fill="#E83A15"/>
<path d="M793.523 217.481C793.523 217.461 793.523 217.461 793.504 217.461C793.021 216.921 792.5 216.419 791.979 215.937C791.979 215.917 791.979 215.917 791.96 215.917C791.477 215.377 790.956 214.875 790.435 214.392C790.435 214.373 790.435 214.373 790.416 214.373C789.934 213.833 789.412 213.331 788.911 212.848C788.911 212.829 788.911 212.829 788.891 212.829C788.409 212.288 787.888 211.787 787.367 211.304C787.367 211.285 787.367 211.285 787.348 211.285C786.865 210.744 786.344 210.242 785.823 209.76C785.823 209.74 785.823 209.74 785.804 209.74C785.321 209.2 784.8 208.698 784.279 208.216C784.279 208.196 784.279 208.196 784.26 208.196C783.777 207.656 783.256 207.154 782.735 206.671C782.735 206.652 782.735 206.652 782.716 206.652C782.233 206.112 781.712 205.61 781.191 205.127C781.191 205.108 781.191 205.108 781.172 205.108C780.689 204.567 780.168 204.066 779.647 203.583C779.647 203.564 779.647 203.564 779.628 203.564C778.065 201.865 776.251 200.398 774.224 199.24V47.5999C774.224 46.8085 773.838 46.3838 773.838 45.5924C773.838 44.3764 773.839 43.971 773.433 43.1796C773.433 42.7743 773.047 41.9636 773.047 41.5582C772.642 40.3422 772.642 39.9368 772.237 39.1454C771.851 38.7401 771.445 37.9294 771.445 37.524C770.654 36.3079 770.23 35.9026 769.824 35.5165C769.419 35.1112 769.033 34.3005 768.609 33.8951L766.987 32.2737C766.987 32.0228 766.679 31.7912 766.331 31.6175C766.119 31.4051 765.868 31.1542 765.54 30.8261L765.463 30.7488C765.463 30.4979 765.154 30.2663 764.807 30.0926C764.594 29.8802 764.344 29.6293 764.015 29.3012L763.938 29.2239C763.938 28.973 763.63 28.7414 763.282 28.5677C763.07 28.3553 762.819 28.1044 762.491 27.7763L762.414 27.6991C762.414 27.4481 762.105 27.2165 761.758 27.0428C761.545 26.8304 761.294 26.5795 760.966 26.2514L760.889 26.1742C760.889 25.9232 760.58 25.6916 760.233 25.5179C760.021 25.3056 759.77 25.0546 759.442 24.7265L759.365 24.6493C759.365 24.3983 759.056 24.1667 758.708 23.993C758.496 23.7807 758.245 23.5297 757.917 23.2016L757.84 23.1244C757.84 22.8734 757.531 22.6418 757.184 22.4681C756.971 22.2558 756.721 22.0048 756.393 21.6767L756.315 21.5995C756.315 21.3486 756.007 21.1169 755.659 20.9432C755.447 20.7309 755.196 20.4799 754.868 20.1518L754.791 20.0746C754.791 19.8237 754.482 19.592 754.135 19.4183C753.922 19.206 753.671 18.955 753.343 18.6269L753.266 18.5497C753.266 18.2988 752.957 18.0671 752.61 17.8934L751.722 17.0055C751.722 16.6195 750.931 16.2141 750.506 16.2141C750.506 15.8087 750.101 15.8088 750.101 15.8088C749.31 15.4227 748.885 15.0174 748.094 14.5927C747.689 14.1874 746.878 13.8013 746.087 12.9713C745.682 12.9713 744.871 12.5852 744.466 12.5852C743.675 12.1799 742.459 12.1799 742.054 11.7745C741.243 11.7745 740.838 11.7745 740.027 11.3885H737.615C737.229 11.3885 737.229 11.3885 736.824 11.3885C736.438 11.3885 736.032 11.3885 736.032 11.3885H733.215C732.81 11.7745 731.999 11.7745 731.594 11.7745C730.378 12.1799 729.587 12.1799 729.181 12.5852C728.39 12.5852 727.966 12.9713 727.56 13.8013C726.364 13.8013 725.959 14.1874 725.148 14.5927C724.762 14.9981 723.932 15.4034 723.546 15.8088C723.141 16.2141 722.736 16.6194 721.52 17.0248C721.115 17.8355 720.729 18.2409 720.304 18.6462C719.899 19.0516 719.899 19.4376 719.513 19.4376L570.412 204.857C563.175 213.968 563.85 226.688 572.419 234.505C572.882 235.065 573.403 235.567 573.962 236.05C574.426 236.609 574.947 237.111 575.506 237.594C575.97 238.154 576.491 238.656 577.05 239.138C577.513 239.698 578.034 240.2 578.594 240.682C579.057 241.242 579.578 241.744 580.138 242.226C580.601 242.786 581.122 243.288 581.682 243.771C582.145 244.33 582.666 244.832 583.226 245.315C583.689 245.875 584.21 246.376 584.77 246.859C585.233 247.419 585.754 247.921 586.314 248.403C587.24 249.446 588.301 250.43 589.459 251.318C593.493 254.947 598.317 256.144 603.161 256.144H714.746V271.412C714.746 278.071 717.486 283.939 721.944 287.954C721.964 287.973 721.983 287.973 721.983 287.993C722.446 288.533 722.967 289.016 723.469 289.479L723.527 289.537C723.99 290.058 724.492 290.54 724.994 291.004C725.013 291.023 725.032 291.023 725.032 291.042C725.495 291.583 726.016 292.065 726.518 292.529L726.576 292.587C727.039 293.108 727.541 293.59 728.043 294.054C728.062 294.073 728.081 294.073 728.081 294.092C728.545 294.633 729.066 295.115 729.567 295.578L729.625 295.636C730.088 296.157 730.59 296.64 731.092 297.103C731.111 297.123 731.131 297.123 731.131 297.142C731.594 297.682 732.115 298.165 732.617 298.628L732.674 298.686C733.138 299.207 733.639 299.69 734.141 300.153C734.16 300.172 734.18 300.172 734.18 300.192C734.643 300.732 735.164 301.215 735.666 301.678L735.724 301.736C739.738 306.137 745.527 308.839 752.147 308.839C764.633 308.839 774.302 299.149 774.302 286.661V256.028H778.335C790.841 256.028 800.914 246.357 800.914 233.868C800.895 227.402 798.039 221.554 793.523 217.481ZM714.611 131.16V196.306H662.138L714.611 131.16Z" fill="#E83A15"/>
<path opacity="0.1" d="M793.523 217.481C793.523 217.461 793.523 217.461 793.504 217.461C793.021 216.921 792.5 216.419 791.979 215.937C791.979 215.917 791.979 215.917 791.96 215.917C791.477 215.377 790.956 214.875 790.435 214.392C790.435 214.373 790.435 214.373 790.416 214.373C789.934 213.833 789.412 213.331 788.911 212.848C788.911 212.829 788.911 212.829 788.891 212.829C788.409 212.288 787.888 211.787 787.367 211.304C787.367 211.285 787.367 211.285 787.348 211.285C786.865 210.744 786.344 210.242 785.823 209.76C785.823 209.74 785.823 209.74 785.804 209.74C785.321 209.2 784.8 208.698 784.279 208.216C784.279 208.196 784.279 208.196 784.26 208.196C783.777 207.656 783.256 207.154 782.735 206.671C782.735 206.652 782.735 206.652 782.716 206.652C782.233 206.112 781.712 205.61 781.191 205.127C781.191 205.108 781.191 205.108 781.172 205.108C780.689 204.567 780.168 204.066 779.647 203.583C779.647 203.564 779.647 203.564 779.628 203.564C778.065 201.865 776.251 200.398 774.224 199.24V47.5999C774.224 46.8085 773.838 46.3838 773.838 45.5924C773.838 44.3764 773.839 43.971 773.433 43.1796C773.433 42.7743 773.047 41.9636 773.047 41.5582C772.642 40.3422 772.642 39.9368 772.237 39.1454C771.851 38.7401 771.445 37.9294 771.445 37.524C770.654 36.3079 770.23 35.9026 769.824 35.5165C769.419 35.1112 769.033 34.3005 768.609 33.8951L766.987 32.2737C766.987 32.0228 766.679 31.7912 766.331 31.6175C766.119 31.4051 765.868 31.1542 765.54 30.8261L765.463 30.7488C765.463 30.4979 765.154 30.2663 764.807 30.0926C764.594 29.8802 764.344 29.6293 764.015 29.3012L763.938 29.2239C763.938 28.973 763.63 28.7414 763.282 28.5677C763.07 28.3553 762.819 28.1044 762.491 27.7763L762.414 27.6991C762.414 27.4481 762.105 27.2165 761.758 27.0428C761.545 26.8304 761.294 26.5795 760.966 26.2514L760.889 26.1742C760.889 25.9232 760.58 25.6916 760.233 25.5179C760.021 25.3056 759.77 25.0546 759.442 24.7265L759.365 24.6493C759.365 24.3983 759.056 24.1667 758.708 23.993C758.496 23.7807 758.245 23.5297 757.917 23.2016L757.84 23.1244C757.84 22.8734 757.531 22.6418 757.184 22.4681C756.971 22.2558 756.721 22.0048 756.393 21.6767L756.315 21.5995C756.315 21.3486 756.007 21.1169 755.659 20.9432C755.447 20.7309 755.196 20.4799 754.868 20.1518L754.791 20.0746C754.791 19.8237 754.482 19.592 754.135 19.4183C753.922 19.206 753.671 18.955 753.343 18.6269L753.266 18.5497C753.266 18.2988 752.957 18.0671 752.61 17.8934L751.722 17.0055C751.722 16.6195 750.931 16.2141 750.506 16.2141C750.506 15.8087 750.101 15.8088 750.101 15.8088C749.31 15.4227 748.885 15.0174 748.094 14.5927C747.689 14.1874 746.878 13.8013 746.087 12.9713C745.682 12.9713 744.871 12.5852 744.466 12.5852C743.675 12.1799 742.459 12.1799 742.054 11.7745C741.243 11.7745 740.838 11.7745 740.027 11.3885H737.615C737.229 11.3885 737.229 11.3885 736.824 11.3885C736.438 11.3885 736.032 11.3885 736.032 11.3885H733.215C732.81 11.7745 731.999 11.7745 731.594 11.7745C730.378 12.1799 729.587 12.1799 729.181 12.5852C728.39 12.5852 727.966 12.9713 727.56 13.8013C726.364 13.8013 725.959 14.1874 725.148 14.5927C724.762 14.9981 723.932 15.4034 723.546 15.8088C723.141 16.2141 722.736 16.6194 721.52 17.0248C721.115 17.8355 720.729 18.2409 720.304 18.6462C719.899 19.0516 719.899 19.4376 719.513 19.4376L570.412 204.857C563.175 213.968 563.85 226.688 572.419 234.505C572.882 235.065 573.403 235.567 573.962 236.05C574.426 236.609 574.947 237.111 575.506 237.594C575.97 238.154 576.491 238.656 577.05 239.138C577.513 239.698 578.034 240.2 578.594 240.682C579.057 241.242 579.578 241.744 580.138 242.226C580.601 242.786 581.122 243.288 581.682 243.771C582.145 244.33 582.666 244.832 583.226 245.315C583.689 245.875 584.21 246.376 584.77 246.859C585.233 247.419 585.754 247.921 586.314 248.403C587.24 249.446 588.301 250.43 589.459 251.318C593.493 254.947 598.317 256.144 603.161 256.144H714.746V271.412C714.746 278.071 717.486 283.939 721.944 287.954C721.964 287.973 721.983 287.973 721.983 287.993C722.446 288.533 722.967 289.016 723.469 289.479L723.527 289.537C723.99 290.058 724.492 290.54 724.994 291.004C725.013 291.023 725.032 291.023 725.032 291.042C725.495 291.583 726.016 292.065 726.518 292.529L726.576 292.587C727.039 293.108 727.541 293.59 728.043 294.054C728.062 294.073 728.081 294.073 728.081 294.092C728.545 294.633 729.066 295.115 729.567 295.578L729.625 295.636C730.088 296.157 730.59 296.64 731.092 297.103C731.111 297.123 731.131 297.123 731.131 297.142C731.594 297.682 732.115 298.165 732.617 298.628L732.674 298.686C733.138 299.207 733.639 299.69 734.141 300.153C734.16 300.172 734.18 300.172 734.18 300.192C734.643 300.732 735.164 301.215 735.666 301.678L735.724 301.736C739.738 306.137 745.527 308.839 752.147 308.839C764.633 308.839 774.302 299.149 774.302 286.661V256.028H778.335C790.841 256.028 800.914 246.357 800.914 233.868C800.895 227.402 798.039 221.554 793.523 217.481ZM714.611 131.16V196.306H662.138L714.611 131.16Z" fill="black"/>
<path d="M785.531 218.465C785.531 230.954 775.457 240.624 762.971 240.624H758.937V271.257C758.937 283.746 749.269 293.417 736.783 293.417C724.296 293.417 714.608 283.746 714.608 271.257V240.624H588.473H588.067H587.662C582.818 240.624 577.993 239.408 573.96 235.78C563.886 228.116 562.67 214.412 570.332 204.741L719.433 19.3412C719.838 19.3412 719.838 18.9359 720.244 18.5305C720.649 18.1252 721.054 17.7198 721.459 16.9091C722.675 16.5038 723.081 16.0984 723.486 15.6931C723.891 15.2877 724.702 14.8824 725.107 14.477C725.917 14.0717 726.323 13.6663 727.519 13.6663C727.925 12.8556 728.33 12.4503 729.14 12.4503C729.546 12.0449 730.356 12.0449 731.553 11.6396C731.958 11.6396 732.768 11.6395 733.174 11.2342C733.984 11.2342 735.181 11.2342 735.991 11.2342C735.991 11.2342 736.397 11.2342 736.802 11.2342C737.207 11.2342 737.207 11.2342 737.593 11.2342C738.404 11.2342 739.619 11.2342 740.005 11.2342C740.816 11.6395 741.221 11.6396 742.032 11.6396C742.437 12.0449 743.653 12.0449 744.444 12.4503C744.849 12.4503 745.66 12.8556 746.065 12.8556C746.876 13.6663 747.667 14.0717 748.072 14.4577C748.883 14.8631 749.288 15.2684 750.079 15.6738C750.079 15.6738 750.485 15.6738 750.485 16.0791C750.89 16.0791 751.7 16.4845 751.7 16.8898C752.511 17.7005 752.916 18.1059 753.322 18.5112C753.727 18.9166 754.132 19.7273 754.537 20.1133C754.943 20.5187 755.348 20.924 756.158 22.1208C756.158 22.5261 756.564 23.3368 756.969 23.7422C757.374 24.5529 757.374 24.9582 757.779 26.155C757.779 26.5603 758.165 27.371 758.165 27.7571C758.571 28.5678 758.571 28.9731 758.571 30.1699C758.571 30.9806 758.976 31.386 758.976 32.1774C758.976 32.5827 758.976 32.9881 758.976 33.3934V196.229H763.009C775.457 196.287 785.531 206.363 785.531 218.465ZM714.608 96.744L634.403 196.306H714.608V96.744Z" fill="#E83A15"/>
<path opacity="0.2" d="M444.796 635.996C456.126 635.996 465.31 626.81 465.31 615.478C465.31 604.146 456.126 594.959 444.796 594.959C433.466 594.959 424.281 604.146 424.281 615.478C424.281 626.81 433.466 635.996 444.796 635.996Z" fill="#E83A15"/>
<path opacity="0.2" d="M444.795 635.9C453.492 635.9 460.542 628.848 460.542 620.149C460.542 611.45 453.492 604.398 444.795 604.398C436.097 604.398 429.047 611.45 429.047 620.149C429.047 628.848 436.097 635.9 444.795 635.9Z" fill="#E83A15"/>
<path d="M446.202 635.861C446.202 635.861 433.677 634.028 432.944 634.51C432.191 634.993 431.515 638.641 433.021 639.529C434.526 640.417 446.009 638.795 446.009 638.795C446.009 638.795 447.244 637.714 446.202 635.861Z" fill="#E83A15"/>
<path opacity="0.49" d="M446.202 635.861C446.202 635.861 433.677 634.028 432.944 634.51C432.191 634.993 431.515 638.641 433.021 639.529C434.526 640.417 446.009 638.795 446.009 638.795C446.009 638.795 447.244 637.714 446.202 635.861Z" fill="black"/>
<path opacity="0.2" d="M433.004 634.665C433.39 634.588 433.988 635.823 433.853 637.232C433.718 638.564 433.216 639.452 433.023 639.413C432.811 639.394 432.116 638.602 432.232 636.904C432.309 635.649 432.676 634.723 433.004 634.665Z" fill="white"/>
<g opacity="0.2">
<path d="M434.309 635.012C435.023 634.954 435.756 634.954 436.47 634.993C436.837 635.012 437.184 635.031 437.551 635.089C437.724 635.109 437.917 635.147 438.091 635.186C438.284 635.244 438.419 635.283 438.612 635.302C439.307 635.418 440.021 635.476 440.735 635.534C441.449 635.592 442.163 635.65 442.877 635.708C442.163 635.765 441.449 635.804 440.716 635.804C440.002 635.804 439.268 635.765 438.554 635.65C438.381 635.611 438.168 635.553 438.014 635.514C437.86 635.476 437.686 635.437 437.512 635.418C437.165 635.36 436.817 635.321 436.451 635.263L434.309 635.012Z" fill="black"/>
<path d="M435.719 635.668C436.221 635.746 436.742 635.823 437.243 635.92C437.745 636.016 438.247 636.113 438.729 636.19C439.212 636.248 439.714 636.229 440.235 636.209C440.736 636.19 441.257 636.171 441.779 636.171C441.277 636.306 440.775 636.422 440.273 636.48C439.771 636.538 439.25 636.596 438.71 636.538C438.189 636.46 437.687 636.345 437.205 636.19C436.684 636.055 436.201 635.881 435.719 635.668Z" fill="black"/>
<path d="M441.875 636.846C442.531 636.383 443.303 636.054 444.133 636.016C444.538 635.997 444.963 636.054 445.368 636.228C445.561 636.305 445.754 636.44 445.908 636.595C445.986 636.672 446.063 636.769 446.101 636.904C446.121 636.942 446.121 636.981 446.121 637.039C446.121 637.077 446.101 637.097 446.101 637.135C446.101 637.155 446.082 637.174 446.082 637.193C446.043 637.251 446.005 637.309 445.966 637.348C445.658 637.657 445.272 637.869 444.828 637.946C444.615 637.985 444.384 637.965 444.172 637.888C443.979 637.83 443.786 637.734 443.612 637.637C443.438 637.521 443.245 637.425 443.149 637.155C443.129 637.097 443.129 637 443.187 636.923C443.226 636.865 443.303 636.827 443.342 636.807C443.458 636.769 443.554 636.749 443.651 636.73C443.863 636.711 444.056 636.711 444.268 636.73C444.461 636.749 444.673 636.807 444.828 636.942C444.461 636.769 444.056 636.807 443.689 636.884C443.593 636.904 443.496 636.942 443.438 636.981C443.361 637.02 443.342 637.058 443.361 637.097C443.4 637.213 443.593 637.328 443.747 637.406C443.921 637.483 444.094 637.56 444.287 637.618C444.461 637.676 444.635 637.676 444.808 637.637C445.156 637.56 445.503 637.367 445.735 637.116C445.773 637.077 445.793 637.058 445.793 637.039C445.793 637.039 445.793 637.039 445.793 637.02C445.773 636.962 445.735 636.884 445.677 636.826C445.561 636.691 445.407 636.595 445.252 636.518C444.924 636.363 444.538 636.305 444.152 636.286C443.766 636.267 443.38 636.344 443.014 636.44C442.608 636.537 442.242 636.672 441.875 636.846Z" fill="black"/>
<path d="M446.039 638.062C445.557 638.313 445.036 638.487 444.476 638.564C444.206 638.602 443.916 638.602 443.646 638.583C443.357 638.544 443.086 638.467 442.836 638.39C442.314 638.197 441.832 637.927 441.369 637.676C440.906 637.425 440.404 637.251 439.883 637.155C440.423 637.116 440.983 637.213 441.485 637.425C441.986 637.637 442.45 637.888 442.951 638.062C443.434 638.255 443.936 638.313 444.476 638.293C444.978 638.274 445.499 638.197 446.039 638.062Z" fill="black"/>
<path d="M433.848 639.124C434.485 639.124 435.141 639.124 435.778 639.143C436.414 639.143 437.071 639.162 437.669 639.066C438.306 638.931 438.981 638.931 439.618 638.969C440.255 638.989 440.911 639.066 441.548 639.182L439.618 639.24C438.981 639.259 438.344 639.278 437.727 639.414C437.051 639.51 436.414 639.471 435.758 639.414C435.121 639.356 434.485 639.259 433.848 639.124Z" fill="black"/>
<path d="M442.534 638.718C441.993 638.583 441.472 638.448 440.932 638.332C440.662 638.274 440.392 638.216 440.141 638.178C439.87 638.139 439.639 638.139 439.369 638.197C438.828 638.293 438.307 638.409 437.748 638.506C437.477 638.544 437.207 638.583 436.918 638.602C436.628 638.622 436.358 638.641 436.049 638.564C435.779 638.506 435.509 638.428 435.239 638.332C434.969 638.216 434.698 638.12 434.467 637.869C434.409 637.791 434.351 637.714 434.332 637.618C434.312 637.521 434.332 637.405 434.37 637.328C434.467 637.135 434.641 637.058 434.776 637C435.065 636.904 435.355 636.865 435.625 636.865C435.914 636.846 436.184 636.865 436.474 636.904C436.744 636.942 437.034 637 437.284 637.174C437.342 637.212 437.42 637.27 437.439 637.405C437.42 637.541 437.323 637.579 437.265 637.599C437.13 637.656 436.995 637.676 436.841 637.695C436.57 637.734 436.281 637.734 436.011 637.714C436.281 637.695 436.551 637.656 436.821 637.599C437.053 637.541 437.477 637.444 437.188 637.309C436.976 637.174 436.706 637.135 436.455 637.116C436.184 637.097 435.914 637.097 435.663 637.116C435.393 637.135 435.142 637.193 434.911 637.27C434.795 637.309 434.698 637.386 434.679 637.444C434.641 637.521 434.66 637.579 434.737 637.656C434.872 637.811 435.123 637.927 435.374 638.023C435.625 638.12 435.876 638.178 436.146 638.235C436.628 638.332 437.188 638.255 437.709 638.178C438.249 638.1 438.79 637.985 439.33 637.927C439.465 637.907 439.6 637.888 439.755 637.907C439.909 637.907 440.044 637.946 440.179 637.965C440.449 638.023 440.72 638.1 440.99 638.178C441.492 638.332 442.013 638.506 442.534 638.718Z" fill="black"/>
<path d="M438.999 637.175C438.266 637.059 437.552 636.846 436.857 636.673L435.796 636.383C435.448 636.306 435.101 636.209 434.715 636.19C435.062 636.054 435.467 636.074 435.834 636.112C436.201 636.151 436.568 636.228 436.934 636.325C437.648 636.537 438.343 636.788 438.999 637.175Z" fill="black"/>
</g>
<path d="M444.466 635.784C444.466 635.784 456.991 634.085 457.743 634.587C458.496 635.07 459.133 638.737 457.608 639.606C456.084 640.474 444.639 638.737 444.639 638.737C444.639 638.737 443.404 637.618 444.466 635.784Z" fill="#E83A15"/>
<path opacity="0.49" d="M444.466 635.784C444.466 635.784 456.991 634.085 457.743 634.587C458.496 635.07 459.133 638.737 457.608 639.606C456.084 640.474 444.639 638.737 444.639 638.737C444.639 638.737 443.404 637.618 444.466 635.784Z" fill="black"/>
<path opacity="0.2" d="M457.688 634.722C457.302 634.626 456.685 635.88 456.82 637.27C456.936 638.602 457.418 639.49 457.63 639.47C457.843 639.451 458.537 638.679 458.441 636.961C458.383 635.726 458.016 634.799 457.688 634.722Z" fill="white"/>
<g opacity="0.2">
<path d="M444.934 638.371L447.076 638.486C447.423 638.506 447.79 638.525 448.137 638.525C448.311 638.525 448.485 638.525 448.658 638.506C448.813 638.486 449.025 638.467 449.199 638.467C449.932 638.467 450.646 638.564 451.36 638.68C452.074 638.796 452.769 638.95 453.464 639.124C452.75 639.066 452.035 639.008 451.321 638.95C450.607 638.892 449.893 638.815 449.199 638.815C449.025 638.815 448.871 638.834 448.678 638.854C448.485 638.873 448.311 638.873 448.118 638.854C447.751 638.834 447.385 638.815 447.037 638.757C446.342 638.66 445.628 638.525 444.934 638.371Z" fill="black"/>
<path d="M446.23 638.332C446.713 638.178 447.215 638.043 447.717 637.927C448.218 637.83 448.72 637.734 449.241 637.695C449.781 637.676 450.283 637.772 450.804 637.869C451.306 637.985 451.808 638.12 452.29 638.294C451.769 638.255 451.267 638.197 450.766 638.139C450.264 638.081 449.762 638.004 449.28 638.043C448.778 638.062 448.276 638.139 447.774 638.197C447.253 638.255 446.752 638.294 446.23 638.332Z" fill="black"/>
<path d="M452.441 637.637C452.789 637.83 453.136 638.004 453.522 638.139C453.889 638.274 454.275 638.37 454.661 638.39C455.047 638.409 455.433 638.37 455.761 638.235C455.934 638.177 456.089 638.081 456.205 637.965C456.263 637.907 456.32 637.83 456.34 637.791C456.34 637.772 456.34 637.772 456.34 637.772C456.32 637.753 456.301 637.714 456.282 637.676C456.07 637.405 455.722 637.193 455.394 637.097C455.22 637.039 455.047 637.039 454.873 637.077C454.68 637.116 454.506 637.174 454.333 637.232C454.159 637.29 453.985 637.405 453.927 637.502C453.908 637.54 453.908 637.579 453.985 637.618C454.063 637.656 454.14 637.695 454.236 637.733C454.603 637.849 455.008 637.927 455.375 637.772C455.201 637.888 455.008 637.927 454.796 637.946C454.584 637.965 454.391 637.946 454.178 637.907C454.082 637.888 453.985 637.849 453.869 637.811C453.812 637.791 453.754 637.733 453.715 637.676C453.677 637.598 453.677 637.502 453.696 637.444C453.812 637.193 454.024 637.097 454.198 637C454.391 636.904 454.584 636.846 454.777 636.788C454.989 636.73 455.22 636.73 455.433 636.788C455.857 636.904 456.224 637.135 456.513 637.483C456.552 637.521 456.591 637.579 456.61 637.637C456.61 637.656 456.629 637.676 456.629 637.695C456.629 637.734 456.648 637.753 456.648 637.791C456.648 637.849 456.629 637.888 456.61 637.927C456.552 638.062 456.475 638.139 456.378 638.216C456.205 638.37 456.012 638.467 455.799 638.544C455.394 638.679 454.97 638.699 454.564 638.641C453.812 638.525 453.059 638.139 452.441 637.637Z" fill="black"/>
<path d="M456.687 636.75C456.166 636.576 455.645 636.46 455.143 636.402C454.622 636.344 454.12 636.363 453.619 636.518C453.117 636.653 452.634 636.865 452.113 637.039C451.592 637.213 451.033 637.271 450.492 637.194C451.033 637.136 451.534 637.001 452.017 636.788C452.499 636.576 453.001 636.344 453.522 636.189C453.792 636.112 454.062 636.073 454.352 636.054C454.641 636.054 454.912 636.073 455.182 636.131C455.722 636.247 456.243 636.46 456.687 636.75Z" fill="black"/>
<path d="M449.199 635.553C449.836 635.417 450.473 635.321 451.11 635.263C451.747 635.205 452.403 635.166 453.078 635.243C453.696 635.379 454.333 635.379 454.969 635.417L456.899 635.475C456.263 635.591 455.626 635.668 454.969 635.688C454.333 635.726 453.657 635.726 453.02 635.591C452.422 635.495 451.766 635.533 451.129 635.533C450.492 635.533 449.836 635.553 449.199 635.553Z" fill="black"/>
<path d="M453.253 635.823C452.732 635.996 452.192 636.112 451.651 636.247C451.381 636.305 451.111 636.344 450.841 636.383C450.706 636.402 450.571 636.421 450.416 636.402C450.262 636.402 450.127 636.363 449.992 636.344C449.451 636.228 448.93 636.074 448.39 635.958C447.869 635.842 447.309 635.707 446.827 635.784C446.557 635.823 446.306 635.881 446.035 635.939C445.785 636.016 445.534 636.112 445.379 636.247C445.302 636.325 445.283 636.382 445.321 636.46C445.341 636.518 445.437 636.595 445.534 636.653C445.765 636.749 446.016 636.826 446.286 636.865C446.557 636.904 446.807 636.942 447.078 636.942C447.348 636.942 447.618 636.923 447.83 636.807C448.12 636.711 447.714 636.556 447.483 636.498C447.213 636.421 446.943 636.363 446.672 636.325C446.943 636.344 447.213 636.363 447.502 636.402C447.637 636.421 447.772 636.46 447.907 636.518C447.965 636.556 448.062 636.595 448.081 636.73C448.062 636.846 447.985 636.904 447.927 636.942C447.657 637.097 447.367 637.135 447.097 637.155C446.807 637.174 446.537 637.155 446.248 637.135C445.958 637.097 445.688 637.058 445.418 636.923C445.283 636.846 445.128 636.769 445.032 636.576C444.993 636.479 444.993 636.383 445.013 636.286C445.032 636.189 445.09 636.112 445.167 636.035C445.418 635.803 445.707 635.726 445.978 635.63C446.248 635.553 446.518 635.495 446.807 635.456C447.116 635.417 447.406 635.456 447.676 635.495C447.946 635.533 448.236 635.591 448.486 635.668C449.027 635.803 449.548 635.958 450.069 636.112C450.339 636.189 450.571 636.209 450.841 636.189C451.111 636.17 451.381 636.132 451.651 636.093C452.172 636.016 452.713 635.919 453.253 635.823Z" fill="black"/>
<path d="M449.608 637.096C448.932 637.425 448.218 637.637 447.485 637.773C447.118 637.831 446.752 637.889 446.385 637.908C446.018 637.908 445.613 637.908 445.266 637.734C445.632 637.753 445.999 637.676 446.346 637.637L447.427 637.425C448.141 637.29 448.855 637.154 449.608 637.096Z" fill="black"/>
<path d="M452.941 638.448C453.52 638.641 454.041 638.815 454.601 638.95C454.871 639.027 455.161 639.066 455.431 639.104C455.72 639.143 455.991 639.143 456.299 639.182C456.029 639.298 455.72 639.375 455.412 639.375C455.103 639.394 454.794 639.356 454.505 639.278C454.215 639.201 453.926 639.104 453.655 638.969C453.405 638.834 453.154 638.66 452.941 638.448Z" fill="black"/>
</g>
<path d="M454.902 609.224C454.902 609.436 455.076 609.61 455.289 609.61C455.501 609.61 455.675 609.436 455.675 609.224C455.675 609.011 455.501 608.838 455.289 608.838C455.076 608.818 454.902 608.992 454.902 609.224Z" fill="#E83A15"/>
<path d="M450.754 592.528C450.754 592.74 450.928 592.914 451.14 592.914C451.353 592.914 451.527 592.74 451.527 592.528C451.527 592.315 451.353 592.141 451.14 592.141C450.928 592.141 450.754 592.315 450.754 592.528Z" fill="#E83A15"/>
<path d="M435.896 606.677C436.07 606.812 436.302 606.773 436.437 606.599C436.573 606.425 436.534 606.194 436.36 606.058C436.186 605.923 435.954 605.962 435.819 606.136C435.703 606.31 435.723 606.541 435.896 606.677Z" fill="#E83A15"/>
<path d="M432.422 630.418C432.422 630.631 432.596 630.805 432.808 630.805C433.021 630.805 433.195 630.631 433.195 630.418C433.195 630.206 433.021 630.032 432.808 630.032C432.596 630.013 432.422 630.186 432.422 630.418Z" fill="#E83A15"/>
<path d="M456.699 627.774C456.699 627.986 456.873 628.16 457.086 628.16C457.298 628.16 457.472 627.986 457.472 627.774C457.472 627.561 457.298 627.387 457.086 627.387C456.873 627.387 456.699 627.561 456.699 627.774Z" fill="#E83A15"/>
<path d="M454.379 611.753C454.379 612.043 454.61 612.274 454.9 612.274C455.189 612.274 455.421 612.043 455.421 611.753C455.421 611.463 455.189 611.231 454.9 611.231C454.61 611.231 454.379 611.463 454.379 611.753Z" fill="#E83A15"/>
<path d="M438.017 602.334C438.249 602.507 438.577 602.469 438.751 602.237C438.924 602.005 438.886 601.677 438.654 601.503C438.423 601.329 438.095 601.368 437.921 601.599C437.728 601.812 437.786 602.14 438.017 602.334Z" fill="#E83A15"/>
<path d="M433.41 621.79C433.41 622.08 433.642 622.312 433.931 622.312C434.221 622.312 434.452 622.08 434.452 621.79C434.452 621.5 434.221 621.269 433.931 621.269C433.661 621.249 433.41 621.5 433.41 621.79Z" fill="#E83A15"/>
<path d="M453.551 611C453.551 611.135 453.647 611.232 453.783 611.232C453.918 611.232 454.014 611.135 454.014 611C454.014 610.865 453.918 610.768 453.783 610.768C453.647 610.768 453.551 610.884 453.551 611Z" fill="#E83A15"/>
<path d="M455.716 618.605C455.844 618.605 455.948 618.501 455.948 618.373C455.948 618.245 455.844 618.141 455.716 618.141C455.588 618.141 455.484 618.245 455.484 618.373C455.484 618.501 455.588 618.605 455.716 618.605Z" fill="#E83A15"/>
<path d="M458.453 625.689C458.453 625.824 458.55 625.921 458.685 625.921C458.82 625.921 458.917 625.824 458.917 625.689C458.917 625.554 458.82 625.457 458.685 625.457C458.569 625.457 458.453 625.573 458.453 625.689Z" fill="#E83A15"/>
<path d="M432.656 620.149C432.656 620.284 432.753 620.381 432.888 620.381C433.023 620.381 433.12 620.284 433.12 620.149C433.12 620.014 433.023 619.917 432.888 619.917C432.753 619.917 432.656 620.033 432.656 620.149Z" fill="#E83A15"/>
<path d="M456.645 603.8C456.645 603.935 456.741 604.032 456.876 604.032C457.012 604.032 457.108 603.935 457.108 603.8C457.108 603.665 457.012 603.568 456.876 603.568C456.741 603.568 456.645 603.665 456.645 603.8Z" fill="#E83A15"/>
<path d="M446.372 601.909C446.501 601.909 446.604 601.805 446.604 601.677C446.604 601.549 446.501 601.445 446.372 601.445C446.244 601.445 446.141 601.549 446.141 601.677C446.141 601.805 446.244 601.909 446.372 601.909Z" fill="#E83A15"/>
<path d="M444.654 598.473C444.782 598.473 444.885 598.369 444.885 598.241C444.885 598.113 444.782 598.009 444.654 598.009C444.526 598.009 444.422 598.113 444.422 598.241C444.422 598.369 444.526 598.473 444.654 598.473Z" fill="#E83A15"/>
<path d="M436.827 636.401C438.448 637.424 444.296 638.177 444.296 638.177L445.82 638.197C445.82 638.197 449.642 637.289 450.182 637.096C450.722 636.923 452.054 637.502 452.652 637.096C453.25 636.691 456.165 634.066 456.358 633.294C456.55 632.522 455.373 629.742 455.335 629.202C455.296 628.661 456.107 625.322 456.184 624.222C456.261 623.121 453 617.678 452.71 616.79C452.421 615.902 453.656 612.679 453.656 612.679C453.656 612.679 450.973 615.497 451.05 616.153C451.128 616.809 452.363 618.354 452.421 618.817C452.478 619.299 450.761 622.697 450.819 623.179C450.877 623.662 451.649 625.225 451.571 625.92C451.571 625.92 451.166 624.318 450.336 623.797C449.506 623.276 448.677 622.89 448.31 622.562C447.943 622.233 446.978 619.454 447.056 619.126C447.133 618.798 447.905 617.929 447.808 616.79C447.692 615.651 445.261 611.733 445.261 611.733C445.261 611.733 445.685 613.895 445.261 614.397C444.836 614.898 443.312 615.709 443.157 616.115C443.003 616.52 444.547 618.276 444.373 618.72C444.199 619.164 440.726 619.859 440.378 620.322C440.031 620.805 439.066 624.415 439.336 625.109C439.587 625.804 440.436 628.449 439.954 628.951C439.471 629.472 438.448 629.684 438.41 629.472C438.371 629.259 439.027 627.599 438.776 626.576C438.526 625.553 437.426 623.314 437.348 622.774C437.271 622.233 438.024 619.454 438.333 618.817C438.641 618.161 436.21 622.233 436.075 623.314C435.94 624.395 436.769 627.87 436.673 627.928C436.576 628.005 436.171 627.58 436.055 627.368C435.94 627.156 436.055 625.36 436.055 625.36C436.055 625.36 434.666 626.982 434.511 627.696C434.357 628.41 435.168 630.128 435.033 630.727C434.917 631.306 434.28 632.657 434.222 633.448C434.125 634.24 436.229 636.035 436.827 636.401ZM453.385 631.17C453.328 631.885 452.556 633.448 452.478 633.506C452.478 633.506 452.652 632.367 452.652 631.904C452.671 631.46 452.401 631.055 452.15 630.147C451.9 629.24 452.729 628.082 452.729 628.082C452.729 628.082 453.463 630.244 453.385 631.17ZM450.143 636.537C450.143 636.537 451.089 635.726 451.552 635.301C452.015 634.877 453.386 634.259 453.636 633.853C453.887 633.448 454.273 631.441 454.273 631.441C454.273 631.441 454.621 633.448 454.447 634.104C454.273 634.741 452.691 636.17 452.17 636.44C451.687 636.71 450.143 636.537 450.143 636.537ZM439.934 630.456C439.876 630.553 439.162 631.885 439.124 632.541C439.085 633.236 439.491 634.104 439.78 634.548C440.069 634.992 440.398 636.17 440.398 636.17C440.398 636.17 438.776 635.417 438.487 634.22C438.236 633.062 439.838 630.591 439.934 630.456Z" fill="#E83A15"/>
<path d="M450.916 613.393C450.916 613.393 452.595 612.196 452.653 611.289C452.711 610.382 451.611 608.51 451.707 607.776C451.823 607.043 452.19 606.367 452.19 606.367C452.19 606.367 450.414 607.583 450.414 608.587C450.414 609.59 451.475 611.173 451.379 611.656C451.283 612.158 450.916 613.393 450.916 613.393Z" fill="#E83A15"/>
<path d="M440.88 618.894C440.88 618.894 441.266 617.697 441.208 617.234C441.15 616.771 440.59 616.134 440.59 616.134C440.59 616.134 440.146 616.597 440.358 617.369C440.59 618.141 440.88 618.894 440.88 618.894Z" fill="#E83A15"/>
<path d="M436.732 618.682C436.829 618.566 437.562 617.292 437.697 616.134C437.832 614.976 437.215 613.528 437.002 613.142C436.79 612.775 435.902 612.254 435.902 612.254C435.902 612.254 436.501 613.2 436.52 613.644C436.539 614.069 436.211 615.4 436.173 615.922C436.134 616.462 436.732 618.682 436.732 618.682Z" fill="#E83A15"/>
<path d="M447.637 611.752C447.637 611.752 448.891 610.034 448.659 608.915C448.428 607.795 447.444 606.348 447.077 605.962C446.71 605.595 445.784 604.707 445.398 604.089C445.012 603.491 444.993 601.29 445.398 600.75C445.803 600.209 446.498 599.862 446.498 599.862C446.498 599.862 444.78 599.785 443.68 601.31C442.58 602.854 441.172 608.818 441.828 610.169C442.484 611.521 444.337 612.853 444.337 612.853C444.337 612.853 443.835 610.498 444.008 609.899C444.182 609.32 445.938 609.899 446.363 610.247C446.787 610.633 447.637 611.752 447.637 611.752Z" fill="#E83A15"/>
<path d="M450.529 620.187C450.529 620.187 451.301 619.377 451.146 618.682C450.973 617.987 449.988 616.945 449.931 616.616C449.873 616.288 450.162 614.956 450.162 614.956C450.162 614.956 449.159 616.848 449.39 617.427C449.602 618.006 449.815 618.894 449.815 618.894C449.815 618.894 449.371 618.605 449.294 618.373C449.197 618.141 449.12 617.736 449.12 617.736C449.12 617.736 448.367 618.663 448.599 619.319C448.831 619.975 450.143 621.249 450.143 621.249C450.143 621.249 450.104 620.863 450.124 620.651C450.124 620.419 450.259 620.535 450.529 620.187Z" fill="#E83A15"/>
<g opacity="0.4">
<path d="M445.165 638.197C445.165 638.197 449.739 636.556 450.762 634.201C451.398 632.734 449.681 629.723 449.526 629.26C449.372 628.777 449.565 626.963 449.333 626.229C449.083 625.496 445.86 623.585 445.57 623.083C445.281 622.581 446.13 620.574 446.13 620.574C446.13 620.574 443.679 622.562 443.312 623.701C442.946 624.82 444.412 627.021 444.393 627.426C444.374 627.831 443.544 629.028 443.544 629.028C443.544 629.028 442.888 628.198 442.868 627.426C442.849 626.654 443.216 626.268 443.139 625.727C443.061 625.187 442.077 624.164 442.077 624.164C442.077 624.164 442.598 625.09 442.328 625.727C442.077 626.364 440.823 627.619 441.016 628.603C441.209 629.588 442.656 631.865 442.54 632.483C442.405 633.101 442.077 633.545 442.077 633.545C442.077 633.545 441.672 632.618 441.556 632.001C441.421 631.383 441.286 630.553 441.286 630.553C441.286 630.553 440.533 634.606 441.305 635.765C442.058 636.865 445.165 638.197 445.165 638.197Z" fill="white"/>
<path d="M446.377 609.88C446.416 609.803 446.899 608.703 446.918 608.104C446.937 607.506 445.837 606.695 445.335 606.232C444.834 605.769 443.772 604.302 443.869 603.529C443.965 602.757 444.081 602.178 444.081 602.178C444.081 602.178 442.556 606.541 442.653 607.911C442.749 609.282 443.541 610.169 443.541 610.169C443.541 610.169 443.83 608.857 444.467 608.895C445.355 608.934 446.377 609.88 446.377 609.88Z" fill="white"/>
<path d="M451.301 612.795C451.301 612.795 452.286 611.887 452.267 611.27C452.247 610.652 451.301 608.973 451.301 608.973C451.301 608.973 451.706 610.961 451.784 611.347C451.861 611.733 451.301 612.795 451.301 612.795Z" fill="white"/>
<path d="M440.01 636.749C440.01 636.749 438.022 635.514 437.656 635.186C437.289 634.857 436.748 633.12 436.787 632.773C436.826 632.425 437.463 630.881 437.463 630.456C437.463 630.032 436.17 628.507 436.17 628.507C436.17 628.507 436.594 629.955 436.517 630.302C436.44 630.649 434.741 632.657 434.857 633.41C434.954 634.162 436.575 635.514 437.038 635.822C437.501 636.131 440.01 636.749 440.01 636.749Z" fill="white"/>
<path d="M454.018 628.758C454.018 628.758 455.33 625.341 455.214 624.434C455.099 623.527 453.555 620.11 453.555 620.11C453.555 620.11 453.671 623.025 453.786 623.488C453.902 623.951 453.555 625.341 453.555 625.341C453.555 625.341 453.092 624.338 452.995 623.971C452.918 623.604 453.265 622.195 453.265 622.195C453.265 622.195 452.3 624.724 452.532 625.689C452.744 626.654 454.018 628.758 454.018 628.758Z" fill="white"/>
</g>
</svg>
