<svg width="31" height="30" viewBox="0 0 31 30" fill="none" xmlns="http://www.w3.org/2000/svg">
<path d="M13.9438 0.0297585C12.6663 0.147022 11.8165 0.305328 10.7909 0.60435C9.19101 1.06754 7.45631 1.92357 6.13184 2.89686L5.90914 3.06102L5.663 2.82063C5.20589 2.37503 4.75463 2.25777 4.17444 2.42194C3.85212 2.51575 3.77593 2.57438 2.59212 3.75874C1.41416 4.93138 1.34384 5.01346 1.34384 5.21868C1.34384 5.4063 1.39658 5.49425 1.68961 5.805L2.03537 6.17438L1.45519 6.76656C0.945326 7.28838 0.875 7.38219 0.875 7.56395C0.875 7.82779 1.07426 8.02128 1.34384 8.02128C1.51379 8.02128 1.61928 7.94506 2.12914 7.43496L2.72105 6.85451L3.31882 7.44669L3.92244 8.04473L3.3364 8.64278C2.82068 9.1646 2.75035 9.25841 2.75035 9.44017C2.75035 9.70401 2.94961 9.8975 3.21919 9.8975C3.38328 9.8975 3.49463 9.81541 4.00449 9.31704L4.5964 8.73659L4.96561 9.08252C5.27621 9.37568 5.36412 9.42844 5.54579 9.42844C5.74505 9.42844 5.83882 9.35222 6.92887 8.26753C7.56766 7.63431 8.16543 6.99522 8.24747 6.84864C8.38226 6.6317 8.4057 6.51444 8.4057 6.17438C8.39984 5.74636 8.31194 5.48838 8.0658 5.21868C7.98961 5.13659 7.96617 5.06623 7.99547 5.04278C8.73389 4.51509 9.94115 3.87014 10.7733 3.56526C14.8346 2.07015 19.4527 2.84995 22.7287 5.58219C23.3147 6.0747 24.3227 7.11835 24.7388 7.67535C26.2508 9.69229 27.1885 12.4187 27.1885 14.805C27.1885 15.3679 27.2881 15.6258 27.628 15.9659C28.22 16.5639 28.9701 16.5639 29.562 15.9659C29.9136 15.62 30.0015 15.3679 30.0015 14.7581C30.0015 12.7177 29.4214 10.349 28.4427 8.37893C27.6632 6.80174 26.8545 5.68773 25.5827 4.40956C24.3052 3.13725 23.1917 2.32813 21.6152 1.54832C19.9391 0.715751 18.2161 0.229107 16.3173 0.047348C15.7196 -0.00542068 14.4244 -0.0171471 13.9438 0.0297585ZM16.288 0.991321C20.9119 1.41347 25.1491 4.20435 27.3467 8.28512C28.4251 10.2903 29.0639 12.7001 29.0639 14.7815C29.0639 15.1275 29.0463 15.1978 28.9174 15.3209C28.7357 15.5086 28.4602 15.5144 28.2786 15.3327C28.1555 15.2095 28.1438 15.1275 28.1027 14.4004C27.88 9.93854 25.4948 5.98089 21.6445 3.68252C20.2439 2.84995 18.6557 2.28708 16.9034 2.00565C15.995 1.85907 13.9907 1.85321 13.0941 1.99979C12.3088 2.12878 11.4531 2.33985 10.7499 2.57438C9.99389 2.8265 8.65184 3.4949 7.9017 3.98154L7.25705 4.40369L6.93473 4.08708C6.75891 3.91705 6.61826 3.75874 6.61826 3.74115C6.61826 3.64734 8.08338 2.75028 8.81594 2.39262C10.4862 1.57764 12.0216 1.14963 13.9438 0.967868C14.4244 0.920962 15.661 0.932689 16.288 0.991321ZM6.13184 4.63822C7.28636 5.79327 7.49733 6.0278 7.49733 6.17438C7.49733 6.31509 7.33324 6.50858 6.51863 7.32942L5.53407 8.31444L3.99863 6.77828L2.45733 5.23627L3.44189 4.25125C4.26821 3.43627 4.45575 3.2721 4.5964 3.2721C4.74291 3.2721 4.97733 3.47731 6.13184 4.63822Z" fill="#0052DA"/>
<path d="M15.7138 7.06568C15.6728 7.08327 14.3425 9.04158 12.7543 11.4162C10.8145 14.3184 9.87092 15.7901 9.85334 15.9191C9.83575 16.0598 9.86506 16.1419 9.98227 16.2533L10.1288 16.4057H11.8635H13.5923V19.5425V22.6852L13.7388 22.8259C13.8795 22.9725 14.0729 23.0077 14.2663 22.9373C14.4245 22.8728 20.115 14.295 20.1443 14.0781C20.1619 13.9373 20.1326 13.8553 20.0154 13.7439L19.8689 13.5914H18.1342H16.4053V10.4546V7.31194L16.2588 7.17122C16.124 7.0305 15.9013 6.98946 15.7138 7.06568ZM15.6025 14.3947C15.6962 14.4885 15.872 14.5061 17.2492 14.5295L18.7906 14.5588L16.6573 17.7543L14.53 20.9497V18.3523V15.7549L14.3835 15.6142L14.2428 15.4676H12.7132H11.1895L13.311 12.2781L15.4384 9.08848L15.4677 11.6917C15.497 14.0839 15.5028 14.3009 15.6025 14.3947Z" fill="#E83A15"/>
<path d="M0.933763 13.6676C0.822414 13.7028 0.593855 13.8669 0.429762 14.0311C0.0253897 14.4357 -0.033215 14.6643 0.0136688 15.6845C0.119157 17.7718 0.605576 19.6773 1.51981 21.536C2.32269 23.1777 3.11386 24.2799 4.41488 25.5874C5.69246 26.8597 6.80595 27.6689 8.38242 28.4487C10.5977 29.5509 13.0005 30.0786 15.4384 29.9907C18.3452 29.8851 20.8945 29.0702 23.2973 27.4754L24.0943 26.9477L24.3405 27.1822C24.7038 27.534 24.9265 27.6278 25.4012 27.6337C25.7411 27.6337 25.8583 27.6102 26.0752 27.4754C26.2217 27.3933 26.8605 26.7952 27.4993 26.1562C28.5776 25.0656 28.6538 24.9718 28.6538 24.7724C28.6538 24.5907 28.601 24.5027 28.308 24.192L27.9623 23.8226L28.5424 23.2304C29.0523 22.7086 29.1226 22.6148 29.1226 22.433C29.1226 22.1692 28.9234 21.9757 28.6538 21.9757C28.4838 21.9757 28.3783 22.0519 27.8685 22.562L27.2766 23.1425L26.6788 22.5503L26.0752 21.9523L26.6612 21.3542C27.177 20.8324 27.2473 20.7386 27.2473 20.5568C27.2473 20.293 27.048 20.0995 26.7784 20.0995C26.6143 20.0995 26.503 20.1816 25.9931 20.6799L25.4012 21.2604L25.032 20.9145C24.7214 20.6213 24.6335 20.5685 24.4518 20.5685C24.2526 20.5685 24.1588 20.6448 23.0688 21.7295C22.43 22.3627 21.8381 22.9959 21.756 23.1308C21.545 23.5001 21.5099 23.9751 21.6798 24.362C21.7502 24.5262 21.8556 24.708 21.9201 24.7666C21.9787 24.8194 22.0315 24.8897 22.0315 24.9132C22.0315 24.9835 20.9355 25.6519 20.3026 25.9627C16.0831 28.0382 10.8673 27.4167 7.26893 24.4148C6.68288 23.9223 5.67488 22.8786 5.25879 22.3216C3.74679 20.3047 2.80911 17.5783 2.80911 15.192C2.80911 14.6643 2.71535 14.3887 2.41646 14.0604C2.03553 13.6383 1.49051 13.4917 0.933763 13.6676ZM1.71907 14.6643C1.84214 14.7874 1.85386 14.8695 1.89488 15.5966C1.95934 16.9451 2.24065 18.3405 2.67432 19.5132C4.1746 23.547 7.55023 26.6194 11.6584 27.6865C12.9594 28.0207 13.5748 28.0969 14.9989 28.0969C16.6691 28.0969 17.7357 27.9268 19.2477 27.4226C19.9451 27.1881 21.5157 26.4141 22.2014 25.9568L22.7464 25.5992L23.0629 25.9099C23.2387 26.0799 23.3794 26.2382 23.3794 26.2617C23.3794 26.3555 21.8615 27.2819 21.1055 27.6571C19.3415 28.5132 17.5423 28.9646 15.5263 29.0467C9.75963 29.2871 4.368 25.8747 2.07655 20.5334C1.38502 18.921 0.933763 16.8278 0.933763 15.2155C0.933763 14.8695 0.951344 14.7992 1.08027 14.676C1.26195 14.4884 1.53739 14.4826 1.71907 14.6643ZM26.5557 25.7399C25.7294 26.5607 25.5419 26.7249 25.4012 26.7249C25.2547 26.7249 25.0203 26.5197 23.8658 25.3588C22.7113 24.2037 22.5003 23.9692 22.5003 23.8226C22.5003 23.6819 22.6644 23.4884 23.479 22.6676L24.4636 21.6826L25.999 23.2187L27.5403 24.7607L26.5557 25.7399Z" fill="#0052DA"/>
</svg>
