<svg width="28" height="30" viewBox="0 0 28 30" fill="none" xmlns="http://www.w3.org/2000/svg">
<path d="M13.3716 0.16326C12.7547 0.467968 12.5678 0.901594 12.5678 2.04426V2.58922L12.2001 2.27279C11.6144 1.75713 10.9975 1.69267 10.3992 2.07355C9.83841 2.42514 9.62654 3.1752 9.93188 3.72016C10.0067 3.84908 10.6298 4.52295 11.3153 5.21441L12.5678 6.47427V8.39042V10.3007L12.3372 10.3769C11.8013 10.5351 10.8167 11.0801 10.5488 11.3613C10.4803 11.4258 10.4055 11.4844 10.3805 11.4844C10.2995 11.4844 7.06542 9.7206 6.94702 9.61512C6.89094 9.56238 6.61676 8.80647 6.33634 7.93922C6.05593 7.06611 5.77551 6.26331 5.7132 6.15198C5.277 5.34918 4.04317 5.23785 3.42003 5.94688C3.09599 6.32191 3.01498 6.7907 3.19569 7.28878C3.25178 7.44113 3.28293 7.58177 3.25801 7.59935C3.23931 7.61693 3.02745 7.52317 2.79065 7.3884C1.99926 6.94891 1.76246 6.85515 1.41973 6.85515C0.509942 6.85515 -0.181748 7.64623 0.0425842 8.44316C0.173445 8.92367 0.360388 9.10532 1.12686 9.53308C1.51944 9.7499 1.83101 9.94327 1.81855 9.96085C1.80608 9.98429 1.63783 10.0312 1.45089 10.0722C0.777894 10.2128 0.347925 10.6523 0.304305 11.2441C0.273148 11.6719 0.354156 11.9239 0.634571 12.2286C0.883829 12.504 1.25148 12.6622 1.65653 12.6622C1.81231 12.6681 2.7408 12.4923 3.7129 12.2813L5.48263 11.8946L7.21497 12.838L8.95355 13.7814L8.9037 14.0217C8.87877 14.1565 8.86007 14.596 8.86007 15.0003C8.86007 15.4046 8.87877 15.8441 8.9037 15.9789L8.95355 16.2191L7.21497 17.1625L5.48263 18.106L3.7129 17.7192C2.7408 17.5083 1.81231 17.3325 1.65653 17.3383C1.12062 17.3383 0.653266 17.6196 0.416471 18.0825C0.304305 18.2935 0.28561 18.4224 0.304305 18.7213C0.347925 19.3483 0.7592 19.7819 1.45089 19.9284C1.63783 19.9694 1.80608 20.0163 1.81855 20.0397C1.83101 20.0573 1.5132 20.2565 1.11439 20.4792C0.503711 20.8249 0.360388 20.9363 0.204602 21.1707C-0.343765 22.0145 0.322999 23.1454 1.36988 23.1454C1.73754 23.1454 1.96187 23.0634 2.64733 22.6883C2.96513 22.5125 3.23931 22.3836 3.26424 22.4012C3.28293 22.4188 3.25178 22.5594 3.19569 22.7118C2.8592 23.6435 3.48857 24.5166 4.49807 24.5166C5.15237 24.5166 5.58234 24.2178 5.83783 23.5732C6.06216 23.0224 6.06839 22.829 5.88145 22.6532C5.54495 22.3368 5.21468 22.5008 5.02774 23.0809C4.88442 23.5439 4.79094 23.6376 4.4856 23.6376C4.24258 23.6376 4.03071 23.456 4.03071 23.2509C4.03071 23.1864 4.16157 22.7294 4.32359 22.2371C4.604 21.364 4.61023 21.3347 4.5043 21.1824C4.35474 20.9714 4.12418 20.8952 3.91231 20.9949C3.82507 21.0359 3.25801 21.3406 2.65356 21.6687C2.04911 21.9969 1.48828 22.2664 1.4135 22.2664C1.077 22.2664 0.852672 21.9676 0.977301 21.6805C1.02715 21.5633 1.33249 21.3699 2.17997 20.9128C3.68798 20.1042 3.84376 19.9518 3.51973 19.6002C3.40133 19.4772 3.21439 19.4186 2.46662 19.2545C1.96187 19.1432 1.49451 19.026 1.41973 18.9908C1.13309 18.8443 1.18917 18.3697 1.50697 18.2525C1.66899 18.188 1.91825 18.229 3.53219 18.5806C4.54169 18.8033 5.45148 18.9849 5.55118 18.9849C5.66335 18.9849 6.38619 18.6275 7.70103 17.9185C8.7853 17.3325 9.72001 16.8168 9.78856 16.7641C9.98174 16.6117 9.9942 16.4711 9.8758 16.0023C9.80725 15.7328 9.76363 15.3343 9.76363 15.0003C9.76363 14.6663 9.80725 14.2678 9.8758 13.9983C9.9942 13.5295 9.98174 13.3888 9.78856 13.2365C9.48945 12.9962 5.7132 11.0156 5.55741 11.0156C5.46394 11.0156 4.59777 11.1855 3.63813 11.3965C2.67848 11.6075 1.79362 11.7774 1.68145 11.7774C1.17048 11.7774 1.04585 11.1387 1.51944 10.9687C1.61291 10.9336 2.08027 10.8222 2.54762 10.7226C3.26424 10.5644 3.42626 10.5117 3.53219 10.3886C3.82507 10.037 3.67552 9.89053 2.17997 9.08774C1.33249 8.63067 1.02715 8.4373 0.977301 8.3201C0.852672 8.03297 1.077 7.73413 1.41973 7.73413C1.49451 7.73413 2.09273 8.02711 2.74703 8.38456C3.42626 8.75373 4.01201 9.035 4.11172 9.035C4.29243 9.04086 4.5043 8.89437 4.56038 8.72443C4.58531 8.65997 4.47314 8.22049 4.31735 7.73998C4.16157 7.25948 4.03071 6.81413 4.03071 6.74968C4.03071 6.68522 4.08056 6.57388 4.1491 6.49771C4.2862 6.33949 4.66631 6.31019 4.80964 6.45083C4.86572 6.49771 5.17106 7.35324 5.4951 8.3494C5.81913 9.33971 6.10578 10.1777 6.1307 10.2011C6.15563 10.2245 7.10904 10.7519 8.23693 11.3613C9.51438 12.0587 10.3556 12.4806 10.4616 12.4806C10.5862 12.4806 10.7669 12.3692 11.1159 12.0704C11.6455 11.6192 12.3435 11.2617 12.9728 11.1094C13.1785 11.0625 13.3779 10.9746 13.4215 10.916C13.4838 10.8398 13.5025 10.2656 13.5025 8.47246L13.4963 6.12268L12.5927 5.21441C10.5114 3.12832 10.5488 3.1752 10.8728 2.87049C11.1906 2.5775 11.2716 2.61266 12.1067 3.43889C12.761 4.07761 12.8856 4.17722 13.0538 4.17722C13.166 4.17722 13.3093 4.13035 13.3779 4.07175C13.4963 3.97213 13.5025 3.89595 13.5025 2.70055C13.5025 1.39382 13.5399 1.10083 13.7331 0.960192C13.9948 0.772678 14.3375 0.907454 14.4372 1.2356C14.4746 1.34694 14.4995 2.00324 14.4995 2.70055C14.4995 3.89595 14.5058 3.97213 14.6242 4.07175C14.6927 4.13035 14.836 4.17722 14.9482 4.17722C15.1164 4.17722 15.2411 4.07761 15.8954 3.43889C16.7304 2.61266 16.8114 2.5775 17.1292 2.87049C17.4532 3.1752 17.4906 3.12832 15.4093 5.21441L14.5058 6.12268L14.4995 6.83757C14.4995 7.49973 14.512 7.56419 14.6366 7.67553C14.7114 7.73998 14.8423 7.79272 14.9295 7.79272C15.2847 7.78686 15.4342 7.51145 15.4342 6.85515V6.47427L16.6868 5.21441C17.3722 4.52295 17.9954 3.84908 18.0639 3.72016C18.3693 3.16934 18.1636 2.42514 17.6028 2.07355C17.0046 1.69267 16.3877 1.75713 15.8019 2.27279L15.4342 2.58922V2.04426C15.4342 0.895735 15.2473 0.456249 14.6304 0.157398C14.1755 -0.0535545 13.8141 -0.0535545 13.3716 0.16326Z" fill="#E83A15"/>
<path d="M23.1611 5.50163C22.7311 5.63054 22.4507 5.84736 22.27 6.18137C22.2202 6.27512 21.946 7.0662 21.6656 7.93931C21.3851 8.80656 21.111 9.56247 21.0549 9.61521C20.9365 9.72069 17.7024 11.4845 17.6214 11.4845C17.5964 11.4845 17.5217 11.4259 17.4531 11.3614C17.1852 11.0802 16.2006 10.5352 15.6709 10.377L15.4341 10.3008V9.8789C15.4341 9.39254 15.3469 9.10541 15.1849 9.02337C14.9979 8.92961 14.7611 8.95305 14.624 9.08197C14.5119 9.18744 14.4994 9.27534 14.4994 10.0078C14.4994 10.5645 14.5243 10.8516 14.5804 10.9161C14.624 10.9747 14.8234 11.0626 15.0291 11.1095C15.6647 11.2618 16.3751 11.631 16.8923 12.0763C17.235 12.3693 17.4157 12.4807 17.5403 12.4807C17.6463 12.4807 18.4688 12.0705 19.765 11.3614C20.8991 10.7462 21.8463 10.2246 21.8712 10.2012C21.8961 10.1778 22.1828 9.3398 22.5068 8.34949C22.8308 7.35333 23.1362 6.4978 23.1923 6.45092C23.3356 6.31028 23.7157 6.33958 23.8528 6.4978C23.9213 6.57397 23.9712 6.68531 23.9712 6.74977C23.9712 6.81422 23.8403 7.25957 23.6846 7.74007C23.5288 8.22058 23.4166 8.66006 23.4415 8.72452C23.4976 8.89445 23.7095 9.04095 23.8902 9.03509C23.9899 9.03509 24.5694 8.75382 25.2486 8.38465C25.9029 8.0272 26.4949 7.73421 26.5759 7.73421C26.7878 7.73421 26.9623 7.83969 27.0308 8.00962C27.1555 8.32605 27.0371 8.42567 25.7472 9.13471C24.3015 9.91992 24.1768 10.043 24.4697 10.3887C24.5756 10.5118 24.7377 10.5645 25.4543 10.7227C25.9216 10.8223 26.389 10.9337 26.4825 10.9688C26.9623 11.1446 26.8314 11.7775 26.3142 11.7775C26.1958 11.7775 25.3234 11.6075 24.3762 11.3966C23.4228 11.1856 22.5629 11.0157 22.457 11.0157C22.3323 11.0157 21.6718 11.3439 20.3632 12.0529C18.1947 13.2248 18.1199 13.2717 18.0576 13.4358C18.0326 13.5003 18.0576 13.7405 18.1261 13.9983C18.2694 14.5785 18.2694 15.4223 18.1261 16.0024C18.0576 16.2602 18.0326 16.5005 18.0576 16.5649C18.1199 16.729 18.1947 16.7759 20.3632 17.9479C21.6406 18.6452 22.3323 18.985 22.4507 18.985C22.5504 18.985 23.4602 18.8034 24.4697 18.5807C26.0837 18.2291 26.3329 18.1881 26.4949 18.2526C26.8564 18.3873 26.8688 18.862 26.5074 19.0143C26.4015 19.0612 25.9216 19.1784 25.4543 19.278C24.7377 19.4362 24.5756 19.489 24.4697 19.612C24.1768 19.9578 24.3015 20.0808 25.7472 20.866C27.0371 21.5751 27.1555 21.6747 27.0308 21.9911C26.9623 22.161 26.7878 22.2665 26.5884 22.2665C26.5136 22.2665 25.9528 21.997 25.3483 21.6688C24.7439 21.3407 24.1768 21.036 24.0896 20.9949C23.8777 20.8953 23.6472 20.9715 23.4976 21.1825C23.3917 21.3348 23.3979 21.3641 23.6783 22.2372C23.8403 22.7294 23.9712 23.1865 23.9712 23.251C23.9712 23.3154 23.9213 23.4268 23.8528 23.5029C23.7157 23.6612 23.3356 23.6905 23.1923 23.5498C23.1362 23.5029 22.8308 22.6474 22.5068 21.6512C22.1828 20.6609 21.8961 19.823 21.8712 19.7995C21.8463 19.7761 20.8991 19.2546 19.765 18.6393C18.419 17.9068 17.6463 17.5201 17.5341 17.5201C17.4033 17.5201 17.2599 17.608 17.0044 17.8307C16.3813 18.3873 15.7769 18.7038 15.0228 18.8913C14.8172 18.9382 14.624 19.0261 14.5804 19.0847C14.5181 19.1608 14.4994 19.7351 14.4994 21.5282L14.5056 23.878L15.4092 24.7862C17.4905 26.8723 17.4531 26.8255 17.1291 27.1302C16.8113 27.4232 16.7303 27.388 15.8952 26.5618C15.2409 25.923 15.1163 25.8234 14.9481 25.8234C14.8359 25.8234 14.6926 25.8703 14.624 25.9289C14.5056 26.0285 14.4994 26.1047 14.4994 27.3411C14.4994 28.1029 14.4745 28.7123 14.4371 28.8061C14.2564 29.2514 13.7018 29.2221 13.5647 28.765C13.5273 28.6537 13.5024 27.9974 13.5024 27.3001C13.5024 26.1047 13.4961 26.0285 13.3777 25.9289C13.3092 25.8703 13.1659 25.8234 13.0537 25.8234C12.8855 25.8234 12.7608 25.923 12.1065 26.5618C11.2715 27.388 11.1905 27.4232 10.8727 27.1302C10.5487 26.8255 10.5113 26.8723 12.5926 24.7862L13.4961 23.878L13.5024 21.5282C13.5024 19.7351 13.4837 19.1608 13.4214 19.0847C13.3777 19.0261 13.1846 18.9382 12.9789 18.8913C12.2312 18.7096 11.6516 18.3991 10.9973 17.8307C10.7418 17.6138 10.5861 17.5201 10.4677 17.5201C10.3555 17.5201 9.53918 17.9303 8.20565 18.651L6.11812 19.7878L5.91871 20.3386C5.68815 20.9891 5.67568 21.1532 5.83147 21.3348C5.96233 21.4872 6.32375 21.5223 6.48577 21.3934C6.54185 21.3524 6.64156 21.1297 6.71633 20.8953C6.78488 20.6668 6.89082 20.4383 6.9469 20.3855C7.0653 20.2742 10.2994 18.5163 10.3804 18.5163C10.4053 18.5163 10.4801 18.5748 10.5487 18.6393C10.8166 18.9206 11.8012 19.4655 12.3371 19.6238L12.5677 19.6999V21.6102V23.5264L11.3151 24.7862C10.6297 25.4777 10.0128 26.1399 9.95045 26.2512C9.76974 26.5852 9.73858 26.8489 9.85075 27.2181C10.0626 27.8861 10.7668 28.2787 11.4896 28.1263C11.7576 28.0736 11.9009 27.9916 12.1938 27.7337L12.5677 27.4114V27.9564C12.5677 29.0991 12.7546 29.5327 13.3715 29.8374C13.8139 30.0542 14.1754 30.0542 14.6303 29.8374C15.2472 29.5444 15.4341 29.1049 15.4341 27.9564V27.4114L15.8018 27.7279C16.3875 28.2435 17.0044 28.308 17.6027 27.9271C18.1635 27.5755 18.3691 26.8313 18.0638 26.2805C17.9952 26.1516 17.3721 25.4777 16.6866 24.7862L15.4341 23.5264V21.6102V19.6999L15.6709 19.6238C16.2006 19.4655 17.1852 18.9206 17.4531 18.6393C17.5217 18.5748 17.5964 18.5163 17.6214 18.5163C17.7024 18.5163 20.9365 20.2801 21.0549 20.3855C21.111 20.4383 21.3851 21.1883 21.6656 22.0614C21.946 22.9287 22.2264 23.7373 22.2887 23.8487C22.7249 24.6515 23.9587 24.7628 24.5819 24.0538C24.9059 23.6787 24.9869 23.21 24.8062 22.7119C24.7501 22.5595 24.719 22.4189 24.7377 22.4013C24.7564 22.3837 25.0368 22.5126 25.3546 22.6826C26.0774 23.0752 26.2332 23.1338 26.6071 23.1396C27.5294 23.1572 28.1961 22.3251 27.9344 21.4755C27.7973 21.0477 27.5294 20.8016 26.7567 20.3972C26.4264 20.2215 26.1709 20.0632 26.1834 20.0398C26.1958 20.0164 26.3641 19.9695 26.551 19.9285C27.224 19.7878 27.654 19.3483 27.6976 18.7565C27.7288 18.3287 27.6477 18.0768 27.3673 17.7721C27.1181 17.4966 26.7504 17.3384 26.3454 17.3384C26.1896 17.3326 25.2611 17.5084 24.289 17.7193L22.5255 18.1061L20.7869 17.1626L19.0484 16.2192L19.0982 15.9731C19.1543 15.6625 19.1543 14.3382 19.0982 14.0276L19.0484 13.7815L20.7869 12.8381L22.5255 11.8947L24.289 12.2814C25.2611 12.4924 26.1896 12.6682 26.3454 12.6623C26.7504 12.6623 27.1181 12.5041 27.3673 12.2287C27.6477 11.924 27.7288 11.672 27.6976 11.2442C27.654 10.6524 27.224 10.2129 26.551 10.0723C26.3641 10.0313 26.1958 9.98438 26.1834 9.96094C26.1709 9.94336 26.4825 9.74999 26.875 9.53317C27.6415 9.10541 27.8285 8.92375 27.9593 8.44325C28.1774 7.65804 27.4857 6.84938 26.6071 6.8611C26.2332 6.86696 26.0774 6.92556 25.3546 7.31817C25.0368 7.4881 24.7564 7.61702 24.7377 7.59944C24.719 7.58186 24.7501 7.44122 24.8062 7.28887C25.0492 6.60913 24.7813 5.92353 24.1457 5.61882C23.8715 5.48405 23.3979 5.43131 23.1611 5.50163Z" fill="white"/>
<path d="M13.2534 12.51C11.7142 12.9202 10.8667 14.5199 11.44 15.938C11.6955 16.5767 12.3124 17.1568 13.0041 17.4146C13.459 17.5846 14.4373 17.6022 14.9172 17.4439C15.6275 17.2096 16.3504 16.5298 16.5996 15.8618C16.7679 15.4106 16.7492 14.4965 16.5685 14.0628C16.2943 13.4124 15.6774 12.8381 14.9982 12.592C14.5433 12.428 13.7207 12.3928 13.2534 12.51ZM14.7863 13.4651C15.1726 13.6527 15.3907 13.846 15.5902 14.1918C15.7584 14.4672 15.7771 14.5609 15.7771 15.0004C15.7771 15.4399 15.7584 15.5336 15.5902 15.8091C15.3907 16.1548 15.1789 16.3423 14.7863 16.5415C14.5807 16.6412 14.4249 16.6705 14.0011 16.6705C13.4341 16.6705 13.1724 16.5826 12.7735 16.2661C12.4869 16.0376 12.2439 15.5688 12.2127 15.1528C12.1442 14.3382 12.5991 13.6702 13.4216 13.3831C13.7581 13.2659 14.4623 13.3069 14.7863 13.4651Z" fill="#E83A15"/>
</svg>
