<svg width="34" height="30" viewBox="0 0 34 30" fill="none" xmlns="http://www.w3.org/2000/svg">
<path fill-rule="evenodd" clip-rule="evenodd" d="M12.7932 9.60001L13.2098 9.04514L13.491 9.26271L13.254 9.57919L14.6742 10.6764L14.9503 10.309L15.2468 10.538L14.7594 11.1865L12.7614 9.64269L12.7932 9.60001ZM29.8988 25.8807C29.6422 26.2211 29.8239 26.7979 30.301 27.1674C30.7792 27.537 31.3744 27.5609 31.631 27.2195C31.8875 26.8791 31.7069 26.3023 31.2287 25.9328C30.7505 25.5632 30.1553 25.5403 29.8988 25.8807ZM16.8087 13.2467C15.8574 12.4962 15.9364 11.8028 16.3069 11.3583L16.7009 11.6623C18.3695 12.9521 20.2423 10.6775 18.4701 9.30748L16.7184 7.95414L17.1053 7.43883L15.685 6.34157L15.2838 6.87562L15.0026 6.65805C15.214 6.36136 15.0293 5.42235 14.2791 4.45315C13.2488 3.12167 11.4017 1.83807 10.3314 3.04151C8.6556 1.74542 8.03578 1.3061 6.46981 0.0953783C3.75554 -0.483436 1.98228 1.57052 1.48663 6.30306L2.48511 7.07447L5.40976 3.00299C5.49801 3.13104 5.72993 3.26324 5.85923 3.36214L8.19176 5.16625L7.50011 5.8575L6.82077 5.33281L5.02802 8.92646L6.08807 9.47716L13.9364 15.5391L14.3263 15.2278L8.47704 10.7066C8.32311 10.5869 8.29233 10.361 8.41034 10.2038L8.57658 9.98207C8.69459 9.82591 8.91728 9.79468 9.0712 9.91544L15.1216 14.5928L16.8087 13.2467ZM29.9696 28.3594C32.063 29.9772 34.4746 26.7666 32.3801 25.1489L20.1253 15.6796L16.9 18.2552L29.9696 28.3594Z" fill="#E83A15"/>
<path fill-rule="evenodd" clip-rule="evenodd" d="M5.50316 24.8242L4.27378 24.3443L3.04441 23.8644L2.01925 24.7045L0.994083 25.5446L1.19829 26.8647L1.40353 28.1847L2.63393 28.6657L3.86331 29.1466L4.88847 28.3054L5.91364 27.4653L5.7084 26.1453L5.50316 24.8242ZM30.7988 1.20529C29.5796 0.908593 28.3893 1.05017 27.1948 2.02978C26.0003 3.0094 25.3599 4.89367 25.7971 6.47499L25.5826 6.65093L25.2604 6.91431L4.83716 23.2179C3.67654 22.7151 2.519 22.6745 1.23832 23.7249C-0.0433956 24.7753 -0.510313 27.2155 0.71188 28.751C1.9351 30.2865 4.38564 30.3355 5.66633 29.2851C6.94804 28.2347 7.15122 27.0781 6.91109 25.8215L27.87 9.07862C29.3026 9.84378 31.2523 9.60538 32.4468 8.62577C33.6413 7.64615 34.0282 6.49477 33.9984 5.22471L31.1353 7.55663L29.7367 7.02778L28.4026 6.48957L28.1543 4.99673L27.947 3.55594L30.7988 1.20529Z" fill="#E83A15"/>
</svg>
