<svg width="100" height="100" viewBox="0 0 100 100" fill="none" xmlns="http://www.w3.org/2000/svg">
<path d="M8.61483 50.1774L50.0259 8.76366L91.437 50.1774H96.1857L50.0259 4.01465L3.87256 50.1774H8.61483Z" fill="#0052DA"/>
<path d="M27.3906 76.8606C27.7837 77.8014 27.3004 78.5102 26.3725 78.9033L25.9343 79.0837L26.4949 80.4305L25.5413 80.83L23.853 76.7962L25.1547 76.2485C26.1985 75.8168 27.0169 75.9779 27.3906 76.8606ZM26.4047 77.273C26.2243 76.8413 25.9021 76.7382 25.4317 76.938L25.0967 77.0797L25.6508 78.4007L26.0052 78.2525C26.4305 78.0721 26.6174 77.7821 26.4047 77.273Z" fill="white"/>
<path d="M29.7037 78.3364L31.3211 77.8015L31.4757 78.6135L28.9755 79.4382L27.603 75.2885L28.5825 74.9663L29.7037 78.3364Z" fill="white"/>
<path d="M34.8647 76.2228C35.0838 77.0798 34.7036 77.8724 33.5953 78.1559C32.487 78.4395 31.7846 77.9626 31.5591 77.067L30.8374 74.2382L31.8426 73.9804L32.5579 76.7705C32.6996 77.3118 32.9574 77.5245 33.4149 77.4149C33.8724 77.2989 34.0013 76.9832 33.8659 76.4419L33.1507 73.6518L34.1559 73.394L34.8647 76.2228Z" fill="white"/>
<path d="M40.1483 76.7256L39.1495 76.906L38.7758 75.2371C38.6405 74.6378 38.518 74.0192 38.4536 73.478L38.3183 76.5839L37.3582 76.7514L36.121 73.8904C36.2756 74.5154 36.3723 75.0502 36.4561 75.656L36.6751 77.3378L35.6828 77.5117L35.2446 73.1493L36.5334 72.9238L37.6997 75.7268L37.7835 72.6983L39.0786 72.4663L40.1483 76.7256Z" fill="white"/>
<path d="M43.8793 75.0437C43.9888 76.0361 43.2156 76.3969 42.1266 76.5193L40.7283 76.674L40.2515 72.3245L41.4822 72.1892C42.6485 72.0603 43.396 72.2794 43.4862 73.0913C43.5442 73.6454 43.1834 73.9741 42.7903 74.1158C43.2865 74.1545 43.8084 74.3414 43.8793 75.0437ZM41.3598 72.9366L41.4693 73.9483L41.8495 73.9032C42.2748 73.8581 42.481 73.6712 42.4423 73.3039C42.4037 72.9431 42.1524 72.8464 41.6562 72.898L41.3598 72.9366ZM42.8161 75.1017C42.771 74.6635 42.4423 74.5347 41.9977 74.5798L41.5467 74.6313L41.6755 75.8105L42.0493 75.7719C42.5325 75.7139 42.8676 75.5786 42.8161 75.1017Z" fill="white"/>
<path d="M45.5926 76.2164L44.5616 76.2873L44.2588 71.9249L45.2898 71.854L45.5926 76.2164Z" fill="white"/>
<path d="M49.7297 76.0554L48.4152 76.094L47.062 72.7433C47.1264 73.1363 47.2231 73.7163 47.2424 74.5218L47.2875 76.1198L46.3661 76.152L46.2437 71.7832L47.5324 71.7445L48.9178 75.1017C48.8534 74.7473 48.7503 74.1802 48.7309 73.4779L48.6794 71.7123L49.6073 71.6865L49.7297 76.0554Z" fill="white"/>
<path d="M53.937 72.2149L53.3829 72.7626C53.1058 72.5177 52.8674 72.4017 52.5194 72.3889C51.9073 72.3695 51.4433 72.8141 51.4111 73.8967C51.3789 75.0437 51.6689 75.4432 52.2746 75.4625C52.4872 75.4689 52.687 75.4303 52.8738 75.3336L52.8996 74.3413L52.3326 74.322L52.2552 73.5874L53.9242 73.6325L53.8662 75.7911C53.4087 76.0682 52.8416 76.2229 52.2681 76.2035C50.9536 76.1649 50.3028 75.3465 50.3479 73.8516C50.3866 72.3695 51.3402 71.5898 52.5001 71.6221C53.1187 71.6543 53.5891 71.8927 53.937 72.2149Z" fill="white"/>
<path d="M60.0777 76.7511L58.7439 76.5965L58.5828 73.2135L57.6291 76.4676L56.3275 76.3194L56.1084 71.8926L57.1394 72.0086L57.1652 75.6299L58.1768 72.131L59.2529 72.2534L59.4076 75.8877L60.3226 72.3759L61.302 72.4854L60.0777 76.7511Z" fill="white"/>
<path d="M65.2192 75.4498C64.955 76.8609 64.0723 77.5697 62.8544 77.3442C61.643 77.1187 61.0759 76.1586 61.3401 74.7216C61.6043 73.3169 62.4871 72.6016 63.6985 72.8336C64.9164 73.0592 65.4834 74.0128 65.2192 75.4498ZM62.4098 74.9214C62.2036 76.0104 62.4355 76.4936 62.9961 76.5967C63.5761 76.7063 63.9498 76.339 64.156 75.2436C64.3558 74.1546 64.1431 73.6777 63.5632 73.5746C62.9897 73.4715 62.6095 73.8324 62.4098 74.9214Z" fill="white"/>
<path d="M67.152 76.4741L66.7589 76.371L66.3401 77.9883L65.3413 77.7306L66.4367 73.4971L67.8221 73.8579C68.9691 74.1543 69.4588 74.7149 69.2269 75.5977C69.0851 76.1519 68.7371 76.4161 68.1186 76.5321L68.7243 78.6134L67.5966 78.3234L67.152 76.4741ZM66.9394 75.6815L67.3582 75.791C67.7964 75.907 68.0799 75.7781 68.1959 75.3271C68.299 74.9211 68.1121 74.6827 67.6159 74.5538L67.2551 74.4636L66.9394 75.6815Z" fill="white"/>
<path d="M70.0063 79.0515L69.0269 78.7165L70.4445 74.5796L71.4239 74.9147L70.0063 79.0515ZM71.8492 77.1313L72.4936 79.9021L71.3595 79.5155L70.7989 76.8542L72.7707 75.3786L73.8017 75.733L71.8492 77.1313Z" fill="white"/>
<path d="M76.9655 77.6213L76.3018 77.937C76.1278 77.589 75.8959 77.3571 75.5737 77.2153C75.245 77.0671 74.9744 77.1122 74.8649 77.37C74.7489 77.6213 74.8584 77.7952 75.3933 78.2656C76.0376 78.8456 76.334 79.3482 76.0054 80.0828C75.6768 80.8238 74.8584 81.0815 73.8596 80.6369C73.1702 80.3276 72.7835 79.8572 72.5967 79.3933L73.3055 79.084C73.4859 79.4642 73.7437 79.7477 74.1367 79.9217C74.5298 80.0957 74.852 80.0183 74.9873 79.7155C75.1162 79.4191 75.026 79.2193 74.5233 78.7811C73.7565 78.1045 73.589 77.589 73.8532 76.9962C74.1689 76.2939 74.9744 76.1134 75.8057 76.4872C76.4242 76.7642 76.7658 77.1251 76.9655 77.6213Z" fill="white"/>
<path d="M71.9782 35.3823H51.7011V28.4424C51.7011 28.4424 47.2424 28.4424 47.0426 28.4424C46.5207 28.4424 46.0955 28.8677 46.0955 29.3896V30.5237H46.1985V30.6783H47.8609V30.5237H47.9898V30.3433H48.5504V35.3823H28.0413C26.9009 35.3823 25.9537 36.3101 26.0826 37.4442C26.9266 44.8932 32.5903 46.0659 40.5156 52.3034C41.0826 52.7545 41.5851 53.2765 42.0362 53.8435H58.0413C58.473 53.2765 58.9563 52.7545 59.5168 52.3034C67.3261 45.9886 73.0864 44.8803 73.9434 37.4442C74.0658 36.3166 73.1251 35.3823 71.9782 35.3823ZM47.3326 29.7118C47.1071 29.7118 46.9266 29.6087 46.9266 29.4798C46.9266 29.4605 46.9395 29.4412 46.946 29.4218C46.6109 29.4025 46.3467 29.2221 46.3467 28.9837C46.3467 28.7388 46.6367 28.539 46.9911 28.539C47.3455 28.539 47.6354 28.7388 47.6354 28.9837C47.6354 29.0932 47.571 29.1834 47.4808 29.2607C47.629 29.2929 47.7321 29.3767 47.7321 29.4734C47.7385 29.6087 47.5581 29.7118 47.3326 29.7118ZM60.6831 36.3424H67.1006C67.4228 36.3424 67.6805 36.6001 67.6805 36.9223C67.6805 37.2445 67.4228 37.5022 67.1006 37.5022H60.6831C60.3609 37.5022 60.1032 37.2445 60.1032 36.9223C60.1032 36.6001 60.3609 36.3424 60.6831 36.3424ZM28.1509 37.5022C27.8287 37.5022 27.571 37.2445 27.571 36.9223C27.571 36.6001 27.8287 36.3424 28.1509 36.3424H58.415C58.7372 36.3424 58.9949 36.6001 58.9949 36.9223C58.9949 37.2445 58.7372 37.5022 58.415 37.5022H28.1509ZM41.6947 46.9358C41.2114 47.9604 39.0207 47.9475 36.8042 46.9036C34.5877 45.8597 33.1831 44.1779 33.6728 43.1534C34.156 42.1288 36.3467 42.1417 38.5632 43.1856C40.7797 44.2295 42.1779 45.9113 41.6947 46.9358ZM44.4782 44.7579C44.2527 45.2605 43.1895 45.2798 42.1006 44.7965C41.0117 44.3132 40.3094 43.5142 40.5284 43.0052C40.754 42.5026 41.8171 42.4832 42.906 42.9665C43.9949 43.4498 44.6973 44.2553 44.4782 44.7579ZM49.7359 40.1248C41.321 40.1248 29.6393 39.9315 29.6393 38.8683H68.9756C68.9756 40.0475 58.1509 40.1248 49.7359 40.1248Z" fill="#0052DA"/>
<path d="M48.4792 27.9784L51.8235 26.87L51.4949 25.8842C51.4756 25.8262 51.4498 25.7811 51.424 25.7295L56.0506 24.1637C56.1086 24.1444 56.1408 24.0864 56.1215 24.0284L55.999 23.6546C55.9797 23.5966 55.9217 23.5644 55.8637 23.5837L50.9923 25.2269C50.6701 25.0078 50.2641 24.9369 49.8646 25.0658L48.9561 25.3687C48.2795 25.5942 47.9186 26.3223 48.1377 26.9925L48.4792 27.9784ZM48.9754 25.5942L50.0579 25.2333C50.2319 25.1753 50.4188 25.272 50.4703 25.446C50.5283 25.62 50.4317 25.8068 50.2577 25.8584L49.1751 26.2192C49.0012 26.2772 48.8143 26.1806 48.7628 26.0066C48.7112 25.8326 48.8079 25.6457 48.9754 25.5942Z" fill="#0052DA"/>
<path d="M21.1667 64.3852H16.5015V62.6326H17.1458V57.8191H16.5015V56.0664H21.302C21.7338 56.0664 22.1333 56.1115 22.4812 56.2017C22.8356 56.292 23.132 56.4337 23.3769 56.6335C23.6218 56.8332 23.8086 57.091 23.9375 57.4132C24.0664 57.7353 24.1373 58.122 24.1373 58.5795C24.1373 59.0434 24.0728 59.4365 23.9375 59.7522C23.8022 60.068 23.6153 60.3257 23.3769 60.5255C23.132 60.7252 22.8356 60.867 22.4812 60.9572C22.1268 61.0474 21.7338 61.0925 21.302 61.0925H20.1357V62.6326H21.1603V64.3852H21.1667ZM20.503 59.5718C20.7028 59.5718 20.8574 59.5202 20.9605 59.4107C21.0701 59.3012 21.1216 59.1272 21.1216 58.8888V58.5021C21.1216 58.2573 21.0701 58.0833 20.967 57.9802C20.8639 57.8706 20.7092 57.8191 20.503 57.8191H20.1422V59.5718H20.503Z" fill="#0052DA"/>
<path d="M24.5493 56.0601H29.1695V57.8127H28.1836V62.6262H29.1437V61.6403H31.2701V64.3789H24.5493V62.6262H25.1937V57.8127H24.5493V56.0601Z" fill="#0052DA"/>
<path d="M39.2664 61.3955C39.2664 61.9754 39.1891 62.4587 39.028 62.8582C38.8669 63.2512 38.6349 63.5734 38.3385 63.8247C38.0421 64.076 37.6748 64.2565 37.2559 64.366C36.8307 64.4755 36.3603 64.5335 35.8383 64.5335C35.3035 64.5335 34.8202 64.4755 34.3885 64.366C33.9568 64.2565 33.5895 64.076 33.2866 63.8247C32.9838 63.5734 32.7453 63.2512 32.5778 62.8582C32.4103 62.4651 32.3265 61.9754 32.3265 61.3955V57.8127H31.6821V56.0601H35.7481V57.8127H35.3228V61.9432C35.3228 62.188 35.3744 62.362 35.4775 62.4651C35.5806 62.5747 35.7352 62.6262 35.9414 62.6262C36.1476 62.6262 36.3023 62.5747 36.4054 62.4651C36.5085 62.3556 36.56 62.1816 36.56 61.9432V57.8127H36.1347V56.0601H39.9108V57.8127H39.2664V61.3955Z" fill="#0052DA"/>
<path d="M40.2065 56.0601H45.3228L46.5407 59.7265L47.7199 56.0601H52.6494V57.8127H52.005V62.6262H52.6494V64.3789H48.3707V62.6262H49.0151V58.3991L46.8887 64.3789H45.7288L43.3124 58.3798V62.6262H43.9568V64.3789H40.213V62.6262H40.8574V57.8127H40.213V56.0601H40.2065Z" fill="#0052DA"/>
<path d="M53.0996 56.0601H58.1193C58.9956 56.0601 59.6851 56.2405 60.1941 56.5949C60.7032 56.9493 60.9545 57.4777 60.9545 58.1671C60.9545 58.5087 60.8901 58.8051 60.7612 59.0435C60.6323 59.2884 60.4777 59.4881 60.2908 59.6428C60.1039 59.7974 59.9106 59.9198 59.7109 60.0036C59.5047 60.0874 59.3307 60.1454 59.1825 60.1776V60.2871C59.3371 60.3 59.5304 60.3387 59.7624 60.3902C59.9879 60.4418 60.207 60.5384 60.4132 60.6802C60.6194 60.822 60.7934 61.0088 60.9416 61.2601C61.0898 61.505 61.1607 61.8272 61.1607 62.2267C61.1607 62.6262 61.0769 62.9613 60.9158 63.2383C60.7547 63.5154 60.5292 63.7345 60.2521 63.9085C59.9751 64.0825 59.6529 64.2049 59.2856 64.2758C58.9183 64.3531 58.5317 64.3853 58.1257 64.3853H53.1061V62.6326H53.7504V57.8192H53.1061V56.0601H53.0996ZM57.3138 59.5719C57.52 59.5719 57.6746 59.5203 57.7777 59.4108C57.8808 59.3012 57.9324 59.1273 57.9324 58.8888V58.5022C57.9324 58.2574 57.8808 58.0834 57.7777 57.9803C57.6746 57.8707 57.52 57.8192 57.3138 57.8192H56.7339V59.5719H57.3138ZM57.3847 62.6262C57.5909 62.6262 57.7455 62.5747 57.8486 62.4651C57.9517 62.3556 58.0033 62.1816 58.0033 61.9432V61.4728C58.0033 61.2279 57.9517 61.0539 57.8486 60.9508C57.7455 60.8413 57.5909 60.7897 57.3847 60.7897H56.7339V62.6326H57.3847V62.6262Z" fill="#0052DA"/>
<path d="M61.5786 56.0601H65.8572V57.8127H65.2129V62.6262H65.8572V64.3789H61.5786V62.6262H62.223V57.8127H61.5786V56.0601Z" fill="#0052DA"/>
<path d="M72.3845 56.0602H76.1283V57.8129H75.4839V64.379H72.4747L69.3431 59.5526V62.6199H69.9875V64.3725H66.2437V62.6199H66.888V57.8064H66.2437V56.0537H70.213L73.0289 60.3517V57.8064H72.3845V56.0602Z" fill="#0052DA"/>
<path d="M80.7479 60.1132H84.5368V61.7048H84.0019V63.8441C83.8408 63.9214 83.6475 64.0052 83.4284 64.0825C83.2094 64.1663 82.958 64.2372 82.681 64.3016C82.3974 64.3661 82.0817 64.4176 81.7337 64.4627C81.3858 64.5078 80.9927 64.5272 80.5674 64.5272C79.9231 64.5272 79.3496 64.4498 78.8341 64.2887C78.3186 64.1341 77.8804 63.8828 77.526 63.5413C77.1651 63.1997 76.8881 62.7551 76.6948 62.2074C76.5014 61.6597 76.4048 60.996 76.4048 60.2099C76.4048 59.4302 76.5014 58.7665 76.6948 58.2188C76.8881 57.6711 77.1587 57.2264 77.5196 56.8785C77.874 56.5369 78.3121 56.2856 78.8276 56.131C79.3431 55.9763 79.9166 55.8926 80.5481 55.8926C80.9798 55.8926 81.3793 55.9119 81.7273 55.957C82.0817 56.0021 82.3974 56.0537 82.681 56.1246C82.9645 56.189 83.2094 56.2663 83.4284 56.3501C83.6475 56.4338 83.8344 56.5112 84.0019 56.5885V59.1466H81.3278V58.644C81.3278 58.3347 81.2633 58.1221 81.1409 57.9932C81.0185 57.8644 80.8187 57.7999 80.5481 57.7999C80.2775 57.7999 80.0777 57.8644 79.9553 57.9932C79.8328 58.1221 79.7684 58.3412 79.7684 58.644V61.7692C79.7684 62.0785 79.8328 62.2912 79.9553 62.4201C80.0777 62.5489 80.2775 62.6134 80.5481 62.6134C80.8187 62.6134 81.0185 62.5489 81.1409 62.4201C81.2633 62.2912 81.3278 62.0721 81.3278 61.7692V61.6919H80.7479V60.1132Z" fill="#0052DA"/>
<path d="M86.6621 76.7509L75.76 84.9731L87.3644 73.5226C77.126 68.7607 64.4327 65.9448 50.6763 65.9448C36.5268 65.9448 23.4984 68.9347 13.1183 73.9415L24.0977 85.6433L13.0539 77.0345C10.6956 77.9366 8.79483 78.7743 6.62988 79.8375L15.7794 83.7295L17.5384 90.8562C22.925 89.0842 28.724 87.731 34.8193 86.8547C34.5874 86.5454 34.3618 86.2296 34.1428 85.9139L26.675 85.7915C33.3825 83.5168 41.4688 82.0541 50.6763 82.0541C59.8644 82.0541 67.9314 83.5104 74.626 85.7786L66.1853 85.9203C65.8309 86.1845 65.5088 86.4809 65.1995 86.7967C71.4559 87.673 77.4031 89.0455 82.925 90.8627L84.684 83.7359L93.8335 79.8439C91.7587 78.8194 88.9172 77.6273 86.6621 76.7509Z" fill="#0052DA"/>
<path d="M50.0255 96.3335L62.2614 84.0969C60.9147 83.9164 59.4714 83.7747 57.9572 83.6587L50.032 91.5845L42.2098 83.7618C40.7085 83.8971 39.291 84.0711 37.9766 84.2709L50.0255 96.3335Z" fill="#0052DA"/>
<path d="M30.3738 80.0694L28.0089 74.1928L27.6094 74.2572L27.3452 72.6269L31.2888 71.989L31.553 73.6193L30.9086 73.7224L31.9976 77.3695L32.0942 77.3566L32.3778 71.815L35.2388 71.3575L37.1719 76.5383L37.2685 76.519L37.1525 72.7107L36.5082 72.8138L36.244 71.1836L39.6914 70.6294L39.9556 72.2597L39.5561 72.3241L39.2532 78.6325L35.7865 79.1931L34.2207 75.2431L34.124 75.256L33.8276 79.5024L30.3738 80.0694Z" fill="white"/>
<path d="M48.4607 74.1865C48.4993 74.9211 48.4413 75.5525 48.2867 76.0745C48.132 76.5964 47.9001 77.0282 47.5843 77.3697C47.2686 77.7112 46.8755 77.9625 46.4116 78.1365C45.9412 78.3104 45.4192 78.4135 44.8329 78.4393C44.2529 78.4715 43.7181 78.4264 43.2348 78.304C42.7515 78.1816 42.3327 77.9689 41.9847 77.6661C41.6368 77.3632 41.3597 76.9573 41.1471 76.4547C40.9409 75.952 40.812 75.3334 40.7733 74.5924C40.7347 73.8643 40.7927 73.2328 40.9473 72.7109C41.1019 72.1825 41.3339 71.7507 41.6497 71.4157C41.9654 71.0741 42.3585 70.8228 42.8224 70.6489C43.2928 70.4749 43.8147 70.3718 44.4011 70.346C44.9811 70.3138 45.5159 70.3589 45.9992 70.4813C46.4824 70.6038 46.9013 70.8164 47.2493 71.1193C47.5972 71.4221 47.8743 71.8281 48.0869 72.3371C48.2931 72.8397 48.422 73.4583 48.4607 74.1865ZM44.7362 76.6544C44.9617 76.6415 45.1293 76.5771 45.2388 76.4482C45.3484 76.3258 45.3935 76.1325 45.3806 75.8683L45.2195 72.8333C45.2066 72.5691 45.1357 72.3887 45.0197 72.2727C44.8973 72.1631 44.7233 72.1116 44.4978 72.1245C44.2723 72.1374 44.1047 72.2018 43.9952 72.3307C43.8856 72.4531 43.8405 72.6464 43.8534 72.9106L44.0145 75.9456C44.0274 76.2098 44.0983 76.3902 44.2143 76.5062C44.3302 76.6222 44.5107 76.6608 44.7362 76.6544Z" fill="white"/>
<path d="M52.3842 76.5319L53.0479 76.5513L53.0028 78.2009L48.9175 78.0913L48.9626 76.4417L49.5683 76.4546L49.6907 71.9247L49.085 71.9118L49.1301 70.2622L53.8469 70.3911C54.2529 70.404 54.6266 70.4491 54.9552 70.5393C55.2839 70.6295 55.561 70.7648 55.7865 70.9517C56.012 71.1386 56.1795 71.3705 56.2955 71.667C56.4115 71.9569 56.4631 72.3113 56.4566 72.7302C56.4437 73.1748 56.3471 73.555 56.1602 73.8771C55.9733 74.1993 55.7092 74.4248 55.3612 74.5537L55.3676 74.6568C56.012 74.7728 56.3213 75.1788 56.302 75.8682L56.2826 76.6415L56.753 76.6544L56.7079 78.304L53.5183 78.2202L53.5827 75.8554C53.5892 75.6556 53.5698 75.4881 53.5312 75.3656C53.4925 75.2432 53.4216 75.1465 53.325 75.0757C53.2283 75.0112 53.1059 74.9597 52.9641 74.9339C52.8159 74.9081 52.642 74.8888 52.4293 74.8824L52.3842 76.5319ZM53.0028 73.6709C53.1961 73.6774 53.3443 73.6323 53.4474 73.5292C53.5441 73.4325 53.6021 73.265 53.6085 73.0395L53.6214 72.6786C53.6278 72.4531 53.5827 72.2855 53.4861 72.1824C53.3894 72.0793 53.2477 72.0278 53.0543 72.0213L52.5131 72.0085L52.468 73.6581L53.0028 73.6709Z" fill="white"/>
<path d="M65.0585 72.9942L63.2672 74.8436L64.717 77.5177L65.1165 77.5628L64.9361 79.2059L61.9527 78.8773L60.6768 75.9583L60.374 78.6969L56.9717 78.3232L57.1521 76.68L57.7514 76.7445L58.2475 72.2403L57.6483 72.1759L57.8287 70.5327L61.231 70.9064L60.9346 73.5999L63.061 71.1126L65.6449 71.3962L65.4645 73.0393L65.0585 72.9942Z" fill="white"/>
<path d="M68.3444 78.0461C68.5634 78.0847 68.7245 78.0847 68.8276 78.0396C68.9307 77.9945 68.9952 77.9043 69.021 77.769C69.0403 77.6788 69.0145 77.5886 68.9565 77.5048C68.8921 77.421 68.7568 77.3115 68.5441 77.1762C68.0931 76.8991 67.7 76.6413 67.3649 76.4029C67.0298 76.1645 66.7656 75.9196 66.5659 75.6683C66.3661 75.417 66.2308 75.1464 66.1664 74.85C66.1019 74.5536 66.1084 74.2121 66.1793 73.8254C66.2502 73.4582 66.3726 73.136 66.5466 72.8653C66.7205 72.5947 66.9525 72.382 67.2554 72.2209C67.5582 72.0663 67.932 71.9697 68.383 71.9503C68.8341 71.9245 69.3753 71.9761 70.0133 72.0985C70.5868 72.2081 71.1152 72.3692 71.5984 72.5818C72.0817 72.7944 72.4748 73.0329 72.7776 73.2842L72.4361 75.0562L70.3612 74.6567C70.3999 74.4634 70.3677 74.328 70.2775 74.2378C70.1873 74.1476 70.0648 74.0896 69.9102 74.0574C69.6911 74.0123 69.53 74.0123 69.4269 74.051C69.3174 74.0896 69.2529 74.1798 69.2271 74.3152C69.2078 74.4247 69.24 74.5213 69.3302 74.5922C69.4205 74.6631 69.5622 74.7533 69.7555 74.8564C70.1164 75.0562 70.4515 75.2559 70.7608 75.4621C71.0765 75.6683 71.3407 75.8939 71.5533 76.1516C71.7724 76.4029 71.9271 76.6929 72.0173 77.0086C72.1075 77.3244 72.1139 77.6981 72.0302 78.1169C71.8626 78.974 71.4631 79.5603 70.8316 79.8696C70.2001 80.1789 69.3431 80.2369 68.2799 80.0307C67.6742 79.9147 67.1007 79.7472 66.5595 79.5346C66.0182 79.3219 65.5929 79.1093 65.29 78.8966L65.6702 76.9378L67.8417 77.3566C67.8031 77.5563 67.816 77.711 67.874 77.8205C67.9384 77.9172 68.0931 78.001 68.3444 78.0461Z" fill="white"/>
<path d="M67.7322 81.3198L50.0002 99.0529L33.5633 82.615C33.3314 82.7052 33.093 82.7826 32.8481 82.847L50.0002 100L68.4474 81.5583C68.209 81.4809 67.9706 81.3971 67.7322 81.3198Z" fill="#0052DA"/>
<path d="M50 0L0 50.0032L23.4343 73.439C23.5954 73.2779 23.75 73.1233 23.9111 72.9686L0.947164 50.0032L50 0.947217L99.0528 50.0032L77.9832 71.0742C78.1959 71.1773 78.4085 71.2803 78.6211 71.3899L100 50.0097L50 0Z" fill="#0052DA"/>
</svg>
