<svg width="106" height="100" viewBox="0 0 106 100" fill="none" xmlns="http://www.w3.org/2000/svg">
<path d="M21.5101 28.1676L12.6239 21.4275C21.5323 8.48703 36.3132 0 53.0147 0C69.7161 0 84.4897 8.48703 93.4055 21.4275L84.5192 28.1676C77.6495 17.9712 66.104 11.2835 53.0221 11.2835C39.9253 11.2835 28.3798 17.9787 21.5101 28.1676ZM74.2516 18.661L72.3901 21.1951C78.5581 25.4761 83.2782 31.7514 85.6568 39.0988L88.8478 32.3812L94.9788 35.3801C93.7157 31.6614 91.9872 28.1676 89.8672 24.9663L84.5192 28.1826C81.86 24.239 78.0041 21.285 74.2516 18.661ZM11.0283 35.4401L17.2923 32.3812L20.4169 38.9639C22.8102 31.6764 27.5082 25.4536 33.6392 21.1951L31.7777 18.661C28.0179 21.285 24.1694 24.2315 21.5175 28.1676L16.1695 24.9513C14.0274 28.1826 12.2915 31.6989 11.0283 35.4401ZM89.8598 75.0412C92.0094 71.7949 93.7527 68.2561 95.0232 64.4849L88.8404 67.5064L85.6715 60.8337C83.293 68.2111 78.5655 74.5089 72.3827 78.8049L74.2442 81.339C78.0041 78.7149 81.8083 75.821 84.4601 71.8848H84.4675C77.5904 82.0438 66.0671 88.7164 53.0073 88.7164C40.5975 88.7164 29.5839 82.6961 22.6181 73.3843C25.1814 76.5557 28.5349 79.0748 31.7703 81.339L33.6318 78.8049C27.486 74.5389 22.7807 68.2861 20.3874 60.9687L17.2849 67.5064L10.9692 64.4249C12.2398 68.2186 13.9904 71.7799 16.1547 75.0412L21.4437 71.8174C21.451 71.8324 21.4584 71.8399 21.4658 71.8549L12.6091 78.5725C21.5175 91.513 36.2984 100 52.9999 100C69.7014 100 84.4749 91.513 93.3907 78.5725L84.9698 72.1922L89.8598 75.0412Z" fill="#0052DA"/>
<path d="M50.2816 42.4951L42.7545 34.9603C43.4119 32.4412 42.7619 29.6447 40.8192 27.6728C38.2486 25.0638 34.2671 24.7564 31.3641 26.7582L36.9337 29.8321C36.9337 29.8321 38.6105 30.7917 37.0372 34.0606C35.5377 37.187 33.4841 36.2723 33.4841 36.2723L28.0918 33.2959C28.1583 35.1402 28.8822 36.9696 30.2709 38.3791C32.6125 40.7558 36.1286 41.2206 38.9282 39.7736L48.6861 49.5427L30.8249 67.4314C29.643 68.631 29.643 70.5728 30.8249 71.7724C32.0068 72.972 33.92 72.972 35.1018 71.7724L50.2668 56.5827V42.4951H50.2816ZM34.7694 69.8906L34.0751 70.5878C33.4915 71.1801 32.546 71.1801 31.9698 70.5878C31.3863 69.9955 31.3863 69.0359 31.9698 68.4511L32.6642 67.7538C33.2478 67.1615 34.1933 67.1615 34.7694 67.7538C35.353 68.3386 35.353 69.2983 34.7694 69.8906Z" fill="#0052DA"/>
<path d="M57.314 49.5425L67.0719 39.7734C69.8715 41.2204 73.3876 40.7631 75.7292 38.3789C77.1179 36.9694 77.8418 35.14 77.9083 33.2957L72.516 36.2721C72.516 36.2721 70.4624 37.1943 68.9629 34.0604C67.3969 30.7915 69.0663 29.8319 69.0663 29.8319L74.636 26.758C71.733 24.7637 67.7515 25.0636 65.1809 27.6726C63.2382 29.6445 62.5881 32.441 63.2456 34.9601L55.6963 42.5249V56.56L70.8909 71.7722C72.0727 72.9718 73.9859 72.9718 75.1678 71.7722C76.3497 70.5726 76.3497 68.6308 75.1678 67.4312L57.314 49.5425ZM74.0376 70.5876C73.4541 71.1799 72.5086 71.1799 71.9324 70.5876L71.238 69.8904C70.6545 69.2981 70.6545 68.3384 71.238 67.7536C71.8216 67.1613 72.7671 67.1613 73.3433 67.7536L74.0376 68.4509C74.6138 69.0432 74.6138 69.9953 74.0376 70.5876Z" fill="#0052DA"/>
<path d="M55.1271 15.4296C55.1271 14.23 54.1668 13.2554 52.985 13.2554C51.8031 13.2554 50.8428 14.23 50.8428 15.4296V68.2111H55.1197V15.4296H55.1271ZM53.0366 66.2618C53.0366 66.6517 52.7264 66.9666 52.3423 66.9666C51.9582 66.9666 51.6479 66.6517 51.6479 66.2618V15.1072C51.6479 14.7174 51.9582 14.4025 52.3423 14.4025C52.7264 14.4025 53.0366 14.7174 53.0366 15.1072V66.2618Z" fill="#0052DA"/>
<path d="M63.947 82.5088H63.5407H42.4294H42.1265C41.6168 82.5088 41.1958 82.9286 41.1958 83.4535C41.1958 83.9783 41.6095 84.3981 42.1265 84.3981H63.947C64.4567 84.3981 64.8777 83.9783 64.8777 83.4535C64.8777 82.9286 64.4641 82.5088 63.947 82.5088ZM55.9989 83.8208H42.4737C42.2299 83.8208 42.0305 83.6184 42.0305 83.371C42.0305 83.1236 42.2299 82.9211 42.4737 82.9211H55.9989C56.2426 82.9211 56.4421 83.1236 56.4421 83.371C56.4421 83.6184 56.2426 83.8208 55.9989 83.8208Z" fill="#0052DA"/>
<path d="M63.5479 81.6162V79.9593C63.5479 75.161 60.4381 71.1199 56.1538 69.7554H49.816C45.539 71.1274 42.4292 75.1685 42.4292 79.9593V81.6162H63.5479ZM47.9988 72.0571C49.4688 71.5173 50.8649 71.6672 51.1234 72.387C51.3819 73.1067 50.3995 74.1263 48.9295 74.6662C48.8261 74.7036 48.7301 74.7261 48.6341 74.7561C49.0994 74.7486 49.4614 74.8836 49.5722 75.1535C49.7716 75.6408 49.129 76.3681 48.1392 76.7879C47.1493 77.2003 46.1891 77.1478 45.9896 76.6605C45.7902 76.1731 46.4328 75.4459 47.4226 75.026C47.4817 75.0035 47.5408 74.981 47.5999 74.9586C46.6987 75.0335 45.9896 74.8161 45.8123 74.3288C45.5464 73.6165 46.5288 72.5969 47.9988 72.0571Z" fill="#0052DA"/>
<path d="M106 43.1548H91.2266H81.7642H76.5639L69.8271 49.9999L76.5639 56.8375H81.7642H91.2266H106V43.1548Z" fill="#0052DA"/>
<path d="M36.173 49.9999L29.4362 43.1548H0V56.8375H29.4362L36.173 49.9999Z" fill="#0052DA"/>
<path d="M80.8184 51.5741C81.2172 51.2292 81.5792 50.9068 81.9116 50.5994C82.244 50.2921 82.5321 50.0072 82.7685 49.7447C83.0122 49.4823 83.1969 49.2499 83.3299 49.055C83.4628 48.8526 83.5293 48.6951 83.5293 48.5677C83.5293 48.3652 83.485 48.2228 83.3963 48.1328C83.3077 48.0428 83.1821 47.9979 83.0048 47.9979C82.8349 47.9979 82.702 48.0428 82.6133 48.1328C82.5247 48.2228 82.4804 48.3727 82.4804 48.5677V48.9575H80.9513V47.1132C81.0843 47.0457 81.232 46.9857 81.3871 46.9332C81.5423 46.8807 81.7343 46.8283 81.9485 46.7758C82.1627 46.7233 82.3917 46.6858 82.6355 46.6558C82.8793 46.6258 83.123 46.6108 83.3742 46.6108C84.0981 46.6108 84.6373 46.7608 84.9993 47.0607C85.3538 47.3606 85.5311 47.7954 85.5311 48.3802C85.5311 48.6951 85.4572 48.995 85.3169 49.2874C85.1692 49.5723 84.9845 49.8497 84.7629 50.1121C84.5413 50.3745 84.2901 50.6219 84.0242 50.8469C83.7583 51.0793 83.4997 51.2967 83.256 51.4991H84.1867V51.0493H85.6788V52.7737H80.8184V51.5741Z" fill="white"/>
<path d="M91.1896 49.7374C91.1896 50.3072 91.1231 50.787 90.9975 51.1844C90.8719 51.5818 90.6873 51.9042 90.4583 52.1516C90.2293 52.399 89.9412 52.5789 89.6162 52.6914C89.2838 52.8038 88.9144 52.8638 88.5008 52.8638C88.0871 52.8638 87.7178 52.8038 87.3854 52.6914C87.053 52.5789 86.7723 52.399 86.5433 52.1516C86.3143 51.9042 86.1296 51.5818 86.0041 51.1844C85.8785 50.787 85.812 50.3072 85.812 49.7374C85.812 49.1751 85.8785 48.6953 86.0041 48.2904C86.1296 47.8931 86.3143 47.5707 86.5433 47.3233C86.7723 47.0758 87.0604 46.8959 87.3854 46.776C87.7178 46.6635 88.0871 46.6035 88.5008 46.6035C88.9144 46.6035 89.2838 46.6635 89.6162 46.776C89.9486 46.8884 90.2293 47.0684 90.4583 47.3233C90.6873 47.5707 90.8719 47.8931 90.9975 48.2904C91.1231 48.6953 91.1896 49.1751 91.1896 49.7374ZM88.4934 51.4843C88.6633 51.4843 88.7962 51.4393 88.8849 51.3494C88.9735 51.2594 89.0179 51.1094 89.0179 50.907V48.5678C89.0179 48.3654 88.9735 48.2229 88.8849 48.133C88.7962 48.043 88.6707 47.998 88.4934 47.998C88.3161 47.998 88.1905 48.043 88.1019 48.133C88.0132 48.2229 87.9689 48.3729 87.9689 48.5678V50.9145C87.9689 51.1169 88.0132 51.2594 88.1019 51.3568C88.1905 51.4393 88.3235 51.4843 88.4934 51.4843Z" fill="white"/>
<path d="M91.4038 47.1132L93.1028 46.7158H94.5801V51.4842H95.2228V52.7587H91.6328V51.4842H92.3641V47.9904H91.4038V47.1132Z" fill="white"/>
<path d="M100.208 48.2453C100.031 48.1853 99.8095 48.1328 99.551 48.0728C99.2925 48.0129 99.0044 47.9904 98.7015 47.9904C98.3322 47.9904 98.0663 48.0878 97.9038 48.2903C97.7413 48.4927 97.6526 48.7476 97.6526 49.055V49.2799C97.8077 49.2199 97.985 49.1749 98.1845 49.13C98.3839 49.085 98.5833 49.0625 98.7754 49.0625C99.0044 49.0625 99.226 49.0925 99.4476 49.1375C99.6618 49.1899 99.8539 49.2799 100.024 49.4149C100.194 49.5498 100.327 49.7223 100.43 49.9472C100.533 50.1721 100.585 50.4495 100.585 50.7944C100.585 51.5141 100.378 52.0389 99.9573 52.3688C99.5362 52.6987 98.9453 52.8637 98.1771 52.8637C97.7634 52.8637 97.3941 52.8112 97.0617 52.6987C96.7293 52.5863 96.4486 52.4213 96.2196 52.2039C95.9906 51.979 95.8059 51.7016 95.6803 51.3642C95.5548 51.0268 95.4883 50.6219 95.4883 50.1646C95.4883 49.5273 95.5548 48.98 95.7025 48.5302C95.8429 48.0803 96.0423 47.713 96.2934 47.4281C96.5446 47.1432 96.8548 46.9332 97.202 46.8058C97.5566 46.6708 97.9407 46.6108 98.3691 46.6108C98.5907 46.6108 98.7902 46.6258 98.9748 46.6483C99.1595 46.6708 99.3294 46.7008 99.4771 46.7383C99.6323 46.7758 99.7652 46.8208 99.8834 46.8658C100.002 46.9107 100.112 46.9557 100.208 47.0007V48.2453ZM98.1549 50.2846C98.0958 50.2846 98.0219 50.2921 97.9333 50.307C97.8447 50.322 97.756 50.3445 97.66 50.382V50.9068C97.66 51.1093 97.7043 51.2517 97.793 51.3492C97.8816 51.4391 98.0072 51.4841 98.1845 51.4841C98.3544 51.4841 98.4873 51.4391 98.576 51.3492C98.6646 51.2592 98.7089 51.1093 98.7089 50.9068C98.6941 50.4945 98.5169 50.2846 98.1549 50.2846Z" fill="white"/>
<path d="M6.2124 47.1137L7.91136 46.7163H9.38871V51.4846H10.0314V52.7592H6.44139V51.4846H7.17268V47.9909H6.2124V47.1137Z" fill="white"/>
<path d="M10.5634 51.2295C10.7628 51.297 10.9992 51.357 11.2799 51.4095C11.5606 51.462 11.8708 51.4844 12.2254 51.4844C12.5356 51.4844 12.772 51.3945 12.9271 51.207C13.0822 51.0196 13.1635 50.7572 13.1635 50.4198V50.2549C13.0232 50.3074 12.868 50.3523 12.6834 50.4048C12.4987 50.4498 12.2845 50.4723 12.0407 50.4723C11.8117 50.4723 11.5901 50.4498 11.3685 50.3973C11.1543 50.3448 10.9622 50.2549 10.7923 50.1199C10.6225 49.985 10.4895 49.8125 10.3861 49.5876C10.2827 49.3627 10.231 49.0778 10.231 48.7254C10.231 47.9907 10.4378 47.4509 10.8514 47.121C11.2651 46.7836 11.8634 46.6187 12.639 46.6187C13.0601 46.6187 13.4442 46.6711 13.7766 46.7836C14.109 46.8886 14.3897 47.061 14.6187 47.2784C14.8477 47.5033 15.025 47.7807 15.1431 48.1181C15.2687 48.4555 15.3278 48.8604 15.3278 49.3177C15.3278 49.9775 15.2613 50.5323 15.1358 50.9821C15.0028 51.432 14.8181 51.7993 14.567 52.0842C14.3158 52.3616 14.013 52.5641 13.6584 52.6915C13.3038 52.819 12.8976 52.879 12.447 52.879C12.0112 52.879 11.6418 52.834 11.339 52.7515C11.0361 52.669 10.7776 52.5791 10.5634 52.4891V51.2295ZM12.6612 49.2577C12.7572 49.2577 12.8459 49.2502 12.9345 49.2277C13.0158 49.2052 13.097 49.1828 13.1635 49.1603V48.568C13.1635 48.3655 13.1192 48.2231 13.0305 48.1331C12.9419 48.0432 12.8163 47.9982 12.639 47.9982C12.4618 47.9982 12.3362 48.0432 12.2475 48.1406C12.1589 48.2381 12.1146 48.403 12.1146 48.6504C12.1146 49.0553 12.2992 49.2577 12.6612 49.2577Z" fill="white"/>
<path d="M15.9481 46.7163H20.0182V48.2233H17.4772L17.4107 49.033C17.5437 48.958 17.7062 48.8906 17.9056 48.8456C18.1051 48.8006 18.2823 48.7706 18.4522 48.7706C18.7477 48.7706 19.0136 48.8156 19.25 48.913C19.4864 49.0105 19.6784 49.138 19.8409 49.3029C19.9961 49.4678 20.1216 49.6703 20.2029 49.9102C20.2841 50.1426 20.3285 50.405 20.3285 50.6899C20.3285 51.4097 20.1216 51.9645 19.7006 52.3618C19.2795 52.7592 18.6886 52.9541 17.9278 52.9541C17.6471 52.9541 17.3959 52.9391 17.1669 52.9016C16.9379 52.8717 16.7311 52.8267 16.5538 52.7667C16.3692 52.7142 16.2067 52.6542 16.0663 52.5868C15.926 52.5193 15.8004 52.4518 15.697 52.3918V50.8324H17.4698C17.4698 51.0123 17.4993 51.1548 17.551 51.2522C17.6027 51.3497 17.7136 51.4022 17.8834 51.4022C18.0312 51.4022 18.1346 51.3497 18.1937 51.2372C18.2528 51.1323 18.2823 50.9523 18.2823 50.7049C18.2823 50.4425 18.2528 50.2551 18.1937 50.1351C18.1346 50.0152 18.0238 49.9552 17.8687 49.9552C17.7136 49.9552 17.6101 50.0002 17.5584 50.0976C17.4993 50.1951 17.4772 50.3001 17.4772 50.4125H16.022L15.6748 49.8802L15.9481 46.7163Z" fill="white"/>
<path d="M21.4956 46.7163H23.3127L22.3746 49.7827H23.0616V48.7181H25.0412V49.7827H25.6543V50.9598H25.0412V51.3872H25.5066V52.7517H22.0865V51.3872H23.0616V50.9673H20.5723V49.6403L21.4956 46.7163Z" fill="white"/>
<path d="M27.8703 18.1588L24.8417 20.8129L23.8593 19.6583L24.2729 19.2909L21.5768 16.1195L21.1631 16.4869L20.1807 15.3323L23.2979 12.6032C23.5786 12.3558 23.8593 12.1609 24.14 12.0185C24.4207 11.876 24.694 11.801 24.9599 11.7935C25.2258 11.786 25.4991 11.8535 25.7651 11.9885C26.031 12.1234 26.2895 12.3408 26.548 12.6482C26.8066 12.9556 26.9839 13.248 27.0725 13.5329C27.1611 13.8178 27.1907 14.0952 27.139 14.3651C27.0947 14.635 26.9839 14.8974 26.7992 15.1599C26.6219 15.4223 26.3855 15.6697 26.1048 15.9171L25.344 16.5769L26.2083 17.589L26.8731 17.0042L27.8703 18.1588ZM24.7383 15.3623C24.8713 15.2498 24.9377 15.1299 24.9451 14.9949C24.9525 14.86 24.8934 14.7175 24.7531 14.5601L24.5388 14.3052C24.4059 14.1477 24.2729 14.0577 24.1474 14.0502C24.0218 14.0352 23.8888 14.0877 23.7559 14.2077L23.5195 14.4176L24.5019 15.5722L24.7383 15.3623Z" fill="white"/>
<path d="M27.0132 9.67925L30.4332 7.64746L31.1941 8.967L30.4628 9.40185L32.5533 13.0156L33.2624 12.5882L32.8339 11.846L34.4073 10.9088L35.5966 12.9631L30.6179 15.9246L29.8571 14.605L30.3298 14.3201L28.2394 10.7064L27.7666 10.9913L27.0132 9.67925Z" fill="white"/>
<path d="M41.7055 7.83477C41.8754 8.30711 41.9493 8.73446 41.9345 9.10183C41.9198 9.4767 41.8237 9.80658 41.6612 10.099C41.4913 10.3914 41.2549 10.6463 40.9373 10.8637C40.6271 11.0811 40.2577 11.2611 39.8441 11.4185C39.4156 11.576 39.0094 11.6734 38.6253 11.7109C38.2411 11.7484 37.894 11.7109 37.5763 11.591C37.2587 11.4785 36.978 11.2836 36.7269 11.0062C36.4757 10.7288 36.2689 10.3539 36.099 9.88156L35.0648 6.94259L34.5478 7.13002L34.0381 5.69052L37.3178 4.49844L37.8275 5.93794L37.4803 6.06539L38.677 9.44671C38.7435 9.64164 38.8395 9.77659 38.9577 9.82907C39.0685 9.88905 39.2162 9.88155 39.3787 9.82158C39.5486 9.7616 39.652 9.67163 39.7111 9.55167C39.7628 9.43171 39.7554 9.27427 39.6816 9.07934L38.4849 5.69802L38.1377 5.82548L37.6281 4.38598L40.6788 3.27637L41.1885 4.71586L40.6714 4.9033L41.7055 7.83477Z" fill="white"/>
<path d="M43.146 2.49658L47.5116 2.06174L48.8633 5.13566L49.5577 1.85931L53.7682 1.43945L53.9159 2.96142L53.3693 3.0139L53.7755 7.18244L54.3222 7.12996L54.4699 8.65193L50.8208 9.0193L50.6731 7.49733L51.2197 7.44485L50.8651 3.78613L49.5503 9.14676L48.5679 9.24422L45.9825 4.24347L46.3371 7.92468L46.8837 7.8722L47.0314 9.39417L43.833 9.70906L43.6852 8.18709L44.2319 8.13461L43.833 3.96607L43.2863 4.01855L43.146 2.49658Z" fill="white"/>
<path d="M56.4125 1.73926L60.6673 2.36904C61.4133 2.4815 61.9747 2.72141 62.3588 3.08878C62.743 3.46365 62.8907 3.94349 62.8094 4.53578C62.7651 4.82818 62.6765 5.07559 62.5361 5.27052C62.3958 5.46545 62.2406 5.6154 62.0634 5.72786C61.8861 5.84032 61.7088 5.92279 61.5241 5.96778C61.3395 6.01276 61.1843 6.04275 61.0514 6.05025L61.0366 6.14022C61.1696 6.17021 61.3247 6.22269 61.5167 6.29766C61.7014 6.37264 61.8787 6.4851 62.0338 6.62755C62.1889 6.77 62.3145 6.96493 62.4105 7.18985C62.5066 7.42227 62.5287 7.70717 62.477 8.05205C62.4253 8.39693 62.3145 8.67433 62.1446 8.89175C61.9747 9.10918 61.7531 9.27412 61.502 9.38658C61.2434 9.49904 60.9553 9.56652 60.6377 9.58151C60.3201 9.59651 59.9877 9.58151 59.6405 9.52903L55.3857 8.89925L55.5999 7.38478L56.1466 7.46725L56.7449 3.3212L56.1983 3.23873L56.4125 1.73926ZM59.2416 7.93959C59.4189 7.96958 59.5519 7.93959 59.6553 7.85712C59.7587 7.77464 59.8252 7.6322 59.8547 7.42227L59.9138 7.01741C59.9434 6.80748 59.9212 6.65004 59.8473 6.54508C59.7735 6.44011 59.6479 6.37264 59.4706 6.35014L58.9166 6.26767L58.6876 7.84962L59.2416 7.93959ZM59.5519 5.29302C59.7291 5.31551 59.8621 5.29301 59.9655 5.21054C60.0689 5.12807 60.1354 4.98562 60.165 4.77569L60.2093 4.44581C60.2388 4.23588 60.2167 4.07844 60.1428 3.97348C60.0689 3.86851 59.9434 3.80104 59.7661 3.77854L59.2786 3.70357L59.0643 5.21054L59.5519 5.29302Z" fill="white"/>
<path d="M65.3287 3.38135L68.83 4.49846L68.3794 5.95294L67.8549 5.788L66.614 9.7841L67.1384 9.94905L66.6878 11.4035L63.1865 10.2864L63.6371 8.83194L64.1616 8.99688L65.4026 5.00078L64.8781 4.83584L65.3287 3.38135Z" fill="white"/>
<path d="M75.6257 7.6623L78.4696 9.17677L77.7679 10.5263L77.2803 10.2639L74.6654 15.3246L72.3829 14.11L71.9249 9.12429L70.6987 11.4935L71.1863 11.7559L70.4845 13.1054L67.6406 11.5909L68.3424 10.2414L68.8299 10.5038L70.7504 6.7926L70.2629 6.53019L70.9647 5.18066L73.9785 6.7851L74.3995 11.2385L75.4189 9.27423L74.9314 9.01182L75.6257 7.6623Z" fill="white"/>
<path d="M80.9885 15.7371L83.4705 17.8589L82.5914 18.916L82.2369 18.6161L81.055 20.0406C80.8999 20.0031 80.7374 19.9506 80.5453 19.8832C80.3606 19.8157 80.1538 19.7257 79.9322 19.6058C79.7106 19.4933 79.4742 19.3508 79.2231 19.1784C78.9719 19.0135 78.706 18.8035 78.4253 18.5636C78.0043 18.2037 77.6718 17.8289 77.4207 17.439C77.1695 17.0492 77.0218 16.6368 76.9775 16.2094C76.9332 15.7821 76.9923 15.3323 77.1695 14.8599C77.3468 14.3876 77.6497 13.8928 78.0855 13.3679C78.5139 12.8506 78.9424 12.4608 79.3708 12.2058C79.7992 11.9509 80.2277 11.8085 80.6487 11.7785C81.0697 11.7485 81.4982 11.831 81.9192 12.0109C82.3403 12.1909 82.7613 12.4608 83.1824 12.8206C83.4704 13.068 83.7142 13.3005 83.921 13.5254C84.1279 13.7503 84.3051 13.9677 84.4529 14.1702C84.6006 14.3726 84.7262 14.56 84.8222 14.74C84.9182 14.9199 84.9995 15.0773 85.066 15.2198L83.6551 16.9217L81.9045 15.4222L82.1852 15.0848C82.3551 14.8824 82.4363 14.7025 82.4215 14.545C82.4141 14.3876 82.3181 14.2376 82.1408 14.0802C81.9636 13.9302 81.801 13.8628 81.6459 13.8778C81.4908 13.8928 81.3283 14.0052 81.1658 14.2076L79.4373 16.2844C79.2674 16.4868 79.1861 16.6668 79.2009 16.8242C79.2083 16.9817 79.3043 17.1316 79.4816 17.2891C79.6589 17.439 79.8214 17.5065 79.9765 17.4915C80.1316 17.4765 80.2868 17.364 80.4567 17.1616L80.501 17.1091L80.1242 16.7867L80.9885 15.7371Z" fill="white"/>
<path d="M31.5195 92.8402L32.6128 87.0822L32.273 86.9323L32.8787 85.5303L36.2175 87.0148L35.6118 88.4168L35.0652 88.1768L34.0975 91.5582L34.1788 91.5957L37.1261 87.4271L39.5489 88.4992L38.4705 93.5L38.5517 93.5375L40.3393 90.5235L39.7927 90.2836L40.3984 88.8816L43.3162 90.1787L42.7105 91.5807L42.3707 91.4307L39.0319 96.184L36.0993 94.8795L36.8528 91.0259L36.7715 90.9884L34.4521 94.1448L31.5195 92.8402Z" fill="white"/>
<path d="M50.127 94.677C50.0236 95.3517 49.8537 95.914 49.6173 96.3564C49.3809 96.7987 49.0928 97.1436 48.7457 97.391C48.3985 97.6384 48.007 97.7959 47.5564 97.8634C47.1058 97.9308 46.6183 97.9233 46.0938 97.8409C45.5694 97.7584 45.104 97.6159 44.6903 97.4135C44.2841 97.2111 43.9517 96.9412 43.7005 96.5963C43.4494 96.2514 43.2721 95.8391 43.1834 95.3442C43.0948 94.8494 43.1022 94.2646 43.2056 93.5898C43.309 92.9226 43.4789 92.3678 43.7153 91.9179C43.9517 91.4756 44.2397 91.1232 44.5869 90.8758C44.9341 90.6284 45.3256 90.4709 45.7762 90.4035C46.2268 90.336 46.7143 90.3435 47.2388 90.4259C47.7632 90.5084 48.2286 90.6509 48.6423 90.8533C49.0485 91.0557 49.3809 91.3256 49.6321 91.6705C49.8832 92.0154 50.0605 92.4353 50.1492 92.9301C50.2378 93.4249 50.2304 94.0022 50.127 94.677ZM46.345 96.1914C46.5518 96.2214 46.7143 96.1914 46.8325 96.1015C46.9507 96.0115 47.0319 95.8466 47.0689 95.6066L47.4973 92.8251C47.5342 92.5852 47.5121 92.4053 47.4234 92.2778C47.3348 92.1578 47.1944 92.0754 46.9876 92.0454C46.7808 92.0154 46.6183 92.0454 46.5001 92.1354C46.3819 92.2253 46.3006 92.3903 46.2637 92.6302L45.8353 95.4117C45.7983 95.6516 45.8205 95.8316 45.9091 95.959C45.9978 96.0865 46.1381 96.1614 46.345 96.1914Z" fill="white"/>
<path d="M54.7509 96.6864L55.3566 96.6564L55.4305 98.1784L51.7075 98.3583L51.6337 96.8364L52.1803 96.8064L51.9808 92.6228L51.4342 92.6528L51.3604 91.1309L55.6595 90.9209C56.0288 90.9059 56.3686 90.9209 56.6788 90.9809C56.9817 91.0409 57.2476 91.1459 57.4618 91.3033C57.676 91.4608 57.8459 91.6632 57.9715 91.9256C58.0971 92.188 58.1709 92.5104 58.1857 92.8927C58.2079 93.3051 58.1414 93.665 57.9937 93.9724C57.8459 94.2873 57.6169 94.5122 57.3141 94.6471L57.3288 94.7371C57.9198 94.8046 58.23 95.1495 58.2596 95.7942L58.2965 96.514L58.725 96.4915L58.7988 98.0135L55.8958 98.1559L55.7924 95.9742C55.785 95.7867 55.7555 95.6368 55.7112 95.5243C55.6668 95.4119 55.6004 95.3294 55.5043 95.2769C55.4157 95.2244 55.2975 95.1869 55.1645 95.1719C55.0316 95.157 54.8691 95.157 54.677 95.1645L54.7509 96.6864ZM55.1202 94.0024C55.2975 93.9949 55.4305 93.9424 55.5117 93.8449C55.593 93.7475 55.6299 93.59 55.6225 93.3801L55.6077 93.0427C55.6004 92.8328 55.5487 92.6828 55.4526 92.5929C55.3566 92.5029 55.2236 92.4654 55.0463 92.4729L54.5514 92.4954L54.6253 94.0174L55.1202 94.0024Z" fill="white"/>
<path d="M66.0676 90.3959L65.1443 92.5851L67.2495 94.407L67.6041 94.3095L67.9882 95.7865L65.3437 96.4913L63.305 94.3995L63.9476 96.8661L60.9338 97.6759L60.5497 96.1989L61.0816 96.0564L60.0327 92.0078L59.5008 92.1503L59.1167 90.6733L62.1305 89.8636L62.7584 92.2853L63.7556 89.4288L66.0455 88.814L66.4296 90.2909L66.0676 90.3959Z" fill="white"/>
<path d="M71.5557 92.3154C71.7404 92.2254 71.8512 92.1354 71.9029 92.038C71.9546 91.9405 71.9546 91.843 71.8955 91.7306C71.8586 91.6556 71.7921 91.6031 71.7035 91.5731C71.6148 91.5431 71.4523 91.5431 71.2233 91.5581C70.7432 91.6031 70.3148 91.6331 69.938 91.6406C69.5687 91.6481 69.2363 91.6181 68.9556 91.5431C68.6749 91.4682 68.4238 91.3407 68.2169 91.1608C68.0027 90.9808 67.8254 90.7259 67.6629 90.396C67.5152 90.0811 67.4265 89.7812 67.4044 89.4813C67.3822 89.189 67.4339 88.8965 67.5669 88.6116C67.6998 88.3267 67.9215 88.0493 68.2391 87.7794C68.5567 87.5095 68.9778 87.2471 69.5022 86.9847C69.9824 86.7448 70.4551 86.5724 70.9279 86.4599C71.4006 86.3474 71.8143 86.3025 72.1688 86.325L72.8854 87.8244L71.1568 88.6791C71.0756 88.5142 70.9796 88.4317 70.8688 88.4167C70.7506 88.4017 70.6324 88.4242 70.5068 88.4917C70.3222 88.5817 70.204 88.6716 70.1523 88.7541C70.0932 88.8441 70.0932 88.9415 70.1523 89.0615C70.1966 89.159 70.2704 89.2039 70.3812 89.2039C70.4847 89.2039 70.6398 89.1964 70.8392 89.1665C71.2086 89.114 71.5631 89.0765 71.9029 89.054C72.2427 89.0315 72.5603 89.054 72.8558 89.1215C73.1513 89.189 73.4246 89.3164 73.661 89.4963C73.9047 89.6838 74.1116 89.9537 74.2814 90.3061C74.6286 91.0333 74.6582 91.6856 74.3701 92.2704C74.082 92.8552 73.4911 93.365 72.5973 93.8073C72.095 94.0547 71.5853 94.2572 71.0756 94.3996C70.5659 94.5421 70.1375 94.6171 69.7977 94.6395L68.9999 92.9826L70.8171 92.0829C70.8983 92.2479 70.987 92.3603 71.0978 92.4053C71.1864 92.4428 71.3415 92.4203 71.5557 92.3154Z" fill="white"/>
</svg>
