<svg width="86" height="100" viewBox="0 0 86 100" fill="none" xmlns="http://www.w3.org/2000/svg">
<path d="M42.9999 5.1543L4.43213 27.5724V72.4148L42.9936 94.8329L81.5551 72.4148V27.5724L42.9999 5.1543ZM42.9999 91.0099L31.0695 84.074H54.9367L42.9999 91.0099ZM81.2215 72.2183H4.77839V27.7752L42.9999 5.54737L81.2215 27.7689V72.2183Z" fill="#00045F"/>
<path d="M26.1778 44.4177C26.1778 41.4633 26.9333 38.6864 28.2554 36.2772H22.5829L18.7425 35.2057L17.2693 50.6055L17.2882 34.8H14.3103L12.3649 50.6499V34.3625H11.7731V33.868C11.7731 33.6208 11.578 33.4242 11.3324 33.4242H9.86551C9.61998 33.4242 9.42481 33.6208 9.42481 33.868V34.3625H8.83301V54.4095H9.42481V54.904C9.42481 55.1512 9.61998 55.3478 9.86551 55.3478H11.3387C11.5843 55.3478 11.7794 55.1512 11.7794 54.904V54.4095H12.3712V53.9847H17.2882L22.5829 52.5138H28.2302C26.9207 50.111 26.1778 47.3531 26.1778 44.4177ZM11.3513 45.9203C11.3513 46.3577 10.9987 46.7064 10.5706 46.7064C10.1362 46.7064 9.78996 46.3514 9.78996 45.9203V36.2455C9.78996 35.808 10.1425 35.4593 10.5706 35.4593C11.005 35.4593 11.3513 35.8144 11.3513 36.2455V45.9203ZM76.4809 34.3625V33.868C76.4809 33.6208 76.2857 33.4242 76.0402 33.4242H74.567C74.3215 33.4242 74.1263 33.6208 74.1263 33.868V34.3625H73.5345V50.6499L71.5891 34.8H68.6112L68.6301 50.6055L67.1632 35.2057L63.3228 36.2772H57.644C58.9661 38.6927 59.7216 41.4696 59.7216 44.424C59.7216 47.3594 58.9787 50.1173 57.6692 52.5201H63.3228L68.6175 53.991H73.5345V54.4158H74.1263V54.9103C74.1263 55.1576 74.3215 55.3541 74.567 55.3541H76.0402C76.2857 55.3541 76.4809 55.1576 76.4809 54.9103V54.4158H77.0727V34.3625H76.4809ZM76.1158 45.9203C76.1158 46.3577 75.7632 46.7064 75.3351 46.7064C74.9007 46.7064 74.5544 46.3514 74.5544 45.9203V36.2455C74.5544 35.808 74.907 35.4593 75.3351 35.4593C75.7695 35.4593 76.1158 35.8144 76.1158 36.2455V45.9203ZM57.2222 44.405C57.2222 42.6742 56.9011 41.0258 56.3408 39.4852C56.9704 38.642 57.0774 37.4691 56.5171 36.4928C55.9567 35.5227 54.8928 35.0282 53.854 35.155C51.7449 32.6317 48.7859 30.8629 45.4302 30.2669C45.021 29.2906 44.0641 28.6059 42.9434 28.6059C41.8228 28.6059 40.8658 29.2906 40.4566 30.2669C37.1009 30.8629 34.1482 32.6381 32.0329 35.155C30.9941 35.0282 29.9301 35.5227 29.3698 36.4928C28.8157 37.4628 28.9228 38.6357 29.546 39.4852C28.9857 41.0258 28.6646 42.6742 28.6646 44.405C28.6646 46.1231 28.9794 47.7715 29.5335 49.2995C28.9165 50.1427 28.8094 51.3092 29.3635 52.2729C29.9175 53.2366 30.9626 53.7247 31.9888 53.6106C34.1042 56.1593 37.0821 57.9471 40.4692 58.5431C40.891 59.4941 41.8354 60.1598 42.9308 60.1598C44.0263 60.1598 44.9769 59.4941 45.3925 58.5431C48.7733 57.9471 51.7512 56.1593 53.8728 53.6106C54.9054 53.7247 55.9504 53.2302 56.4982 52.2729C57.0522 51.3092 56.9452 50.1427 56.3282 49.2995C56.9074 47.7715 57.2222 46.1231 57.2222 44.405ZM45.2603 32.7142C47.8604 33.234 50.1458 34.6098 51.833 36.5435C51.6127 36.9429 51.4993 37.3867 51.493 37.8432L45.0651 41.5837C44.8321 41.4062 44.5803 41.2477 44.3096 41.1336V33.6651C44.6999 33.4306 45.0273 33.1072 45.2603 32.7142ZM46.4313 43.9422L52.8529 40.208C53.2559 40.4362 53.7029 40.5567 54.1624 40.563C54.5717 41.7676 54.8046 43.0609 54.8046 44.405C54.8046 45.7364 54.578 47.0107 54.175 48.209C53.7092 48.209 53.2559 48.3294 52.8466 48.564L46.4313 44.8298C46.4502 44.6903 46.4753 44.5445 46.4753 44.3987C46.4753 44.2465 46.4502 44.0944 46.4313 43.9422ZM44.9455 42.6171C44.9455 43.2955 44.0766 43.8471 43.0064 43.8471C41.9361 43.8471 41.0673 43.2955 41.0673 42.6171C41.0673 41.9388 41.9361 41.3872 43.0064 41.3872C44.0766 41.3872 44.9455 41.9388 44.9455 42.6171ZM43.0001 29.1448C43.957 29.1448 44.7314 29.6329 44.7314 30.2352C44.7314 30.8375 43.957 31.3257 43.0001 31.3257C42.0431 31.3257 41.2687 30.8375 41.2687 30.2352C41.275 29.6329 42.0494 29.1448 43.0001 29.1448ZM40.6392 32.7142C40.8721 33.1072 41.1995 33.4306 41.5898 33.6651V41.1273C41.3128 41.2414 41.0673 41.3999 40.8343 41.5774L34.4064 37.8368C34.4064 37.3804 34.2867 36.9366 34.0664 36.5371C35.7537 34.6098 38.0453 33.234 40.6392 32.7142ZM39.4682 44.8298L33.0528 48.564C32.6499 48.3294 32.1903 48.209 31.7244 48.209C31.3214 47.0107 31.0948 45.7364 31.0948 44.405C31.0948 43.0609 31.3277 41.7676 31.737 40.563C32.1966 40.5567 32.6499 40.4362 33.0465 40.208L39.4682 43.9422C39.4493 44.0944 39.4241 44.2465 39.4241 44.405C39.4241 44.5508 39.4493 44.6903 39.4682 44.8298ZM31.6111 35.5861C32.568 35.5861 33.3424 36.0743 33.3424 36.6766C33.3424 37.2789 32.568 37.7671 31.6111 37.7671C30.6541 37.7671 29.8797 37.2789 29.8797 36.6766C29.8797 36.0743 30.6541 35.5861 31.6111 35.5861ZM31.7747 50.9415C30.8178 50.9415 30.0434 50.4533 30.0434 49.851C30.0434 49.2487 30.8178 48.7606 31.7747 48.7606C32.7317 48.7606 33.5061 49.2487 33.5061 49.851C33.5061 50.447 32.7317 50.9415 31.7747 50.9415ZM40.6203 56.0959C38.0201 55.5697 35.7348 54.1939 34.0538 52.2539C34.2805 51.8481 34.4001 51.3916 34.4064 50.9288L40.8092 47.2073C41.0484 47.3911 41.3065 47.5623 41.5898 47.6764V55.1068C41.1869 55.3478 40.8595 55.6838 40.6203 56.0959ZM43.0001 57.459C42.0431 57.459 41.2687 56.9708 41.2687 56.3685C41.2687 55.7662 42.0431 55.278 43.0001 55.278C43.957 55.278 44.7314 55.7662 44.7314 56.3685C44.7314 56.9708 43.957 57.459 43.0001 57.459ZM45.2791 56.0959C45.0462 55.6901 44.7125 55.3478 44.3096 55.1132V47.6764C44.5929 47.556 44.851 47.3911 45.0903 47.2073L51.493 50.9288C51.493 51.3916 51.619 51.8481 51.8456 52.2539C50.1646 54.1876 47.8793 55.5697 45.2791 56.0959ZM54.2317 51.1063C53.2747 51.1063 52.5004 50.6182 52.5004 50.0159C52.5004 49.4136 53.2747 48.9254 54.2317 48.9254C55.1887 48.9254 55.963 49.4136 55.963 50.0159C55.9567 50.6118 55.1824 51.1063 54.2317 51.1063ZM54.2317 37.7671C53.2747 37.7671 52.5004 37.2789 52.5004 36.6766C52.5004 36.0743 53.2747 35.5861 54.2317 35.5861C55.1887 35.5861 55.963 36.0743 55.963 36.6766C55.9567 37.2789 55.1824 37.7671 54.2317 37.7671ZM42.9497 9.45288C38.1964 9.45288 34.3245 13.3456 34.3245 18.1386C34.3245 21.8792 36.6917 25.0682 39.997 26.2854V28.758H40.6455C41.2624 28.1938 42.0746 27.8577 42.9497 27.8577C43.8248 27.8577 44.637 28.1938 45.254 28.758H45.9024V26.2854C49.2077 25.0682 51.5749 21.8792 51.5749 18.1386C51.5749 13.3456 47.703 9.45288 42.9497 9.45288ZM39.9026 22.6273H37.9383V19.9835H39.9026V22.6273ZM42.5279 22.6273H40.5636V19.9835H42.5279V22.6273ZM45.1469 22.6273H43.1827V19.9835H45.1469V22.6273ZM47.7723 22.6273H45.808V19.9835H47.7723V22.6273ZM46.979 18.0689C46.9601 16.8199 46.3809 15.7104 45.4806 14.9813C45.1784 14.7341 44.8258 14.5375 44.4607 14.3854L43.787 17.5236C43.913 17.6948 43.9885 17.904 43.9885 18.1386C43.9885 18.7155 43.5226 19.1847 42.9497 19.1847C42.3768 19.1847 41.9109 18.7155 41.9109 18.1386C41.9109 17.6695 42.2194 17.2764 42.6412 17.1432L44.0892 14.2586C43.7241 14.1508 43.3463 14.081 42.9497 14.081C41.9739 14.081 41.0799 14.4361 40.381 15.0194C39.5059 15.7548 38.9393 16.8516 38.9204 18.0815H35.6403C35.6592 15.9386 36.5973 14.024 38.0642 12.6863C39.3611 11.507 41.0673 10.7843 42.9497 10.7843C44.8132 10.7843 46.5131 11.4943 47.8037 12.6546C49.2895 13.9923 50.2402 15.926 50.2591 18.0815H46.979V18.0689Z" fill="#E83A15"/>
<path d="M13.177 71.1151H8.43628V69.3209H9.09104V64.3948H8.43628V62.6006H13.3218C13.7625 62.6006 14.1654 62.645 14.5243 62.7401C14.8831 62.8288 15.1853 62.981 15.4309 63.1839C15.6764 63.3867 15.8653 63.653 16.0038 63.9827C16.136 64.3124 16.2052 64.7118 16.2052 65.1746C16.2052 65.6501 16.136 66.0495 16.0038 66.3729C15.8716 66.6962 15.6764 66.9625 15.4309 67.1653C15.1853 67.3682 14.8831 67.5204 14.5243 67.6091C14.1654 67.6979 13.7625 67.7486 13.3218 67.7486H12.1319V69.3273H13.177V71.1151ZM12.5033 66.189C12.7048 66.189 12.8622 66.1319 12.9692 66.0242C13.0763 65.9164 13.1329 65.7389 13.1329 65.4853V65.0922C13.1329 64.8449 13.0825 64.6674 12.9755 64.5533C12.8685 64.4455 12.7111 64.3885 12.5033 64.3885H12.1319V66.1827H12.5033V66.189Z" fill="#00045F"/>
<path d="M16.6145 62.6006H21.3111V64.3948H20.3101V69.3209H21.286V68.3129H23.4517V71.1151H16.6145V69.3209H17.2693V64.3948H16.6145V62.6006Z" fill="#00045F"/>
<path d="M31.5795 68.0593C31.5795 68.6489 31.4976 69.1497 31.334 69.5555C31.1703 69.9613 30.9373 70.2909 30.6351 70.5445C30.3329 70.7981 29.9615 70.982 29.5334 71.0961C29.099 71.2102 28.6205 71.2673 28.0916 71.2673C27.5502 71.2673 27.0591 71.2102 26.6184 71.0961C26.1777 70.982 25.8063 70.7981 25.4978 70.5445C25.1893 70.2909 24.9501 69.9613 24.7801 69.5555C24.6101 69.1497 24.5219 68.6489 24.5219 68.0593V64.3884H23.8672V62.5942H27.9972V64.3884H27.5628V68.6172C27.5628 68.8644 27.6132 69.042 27.7202 69.1561C27.8272 69.2639 27.9846 69.3209 28.1924 69.3209C28.4001 69.3209 28.5575 69.2639 28.6646 69.1561C28.7716 69.0483 28.8219 68.8644 28.8219 68.6172V64.3884H28.3875V62.5942H32.2279V64.3884H31.5732V68.0593H31.5795Z" fill="#00045F"/>
<path d="M32.5364 62.6006H37.7367L38.9769 66.3538L40.1731 62.6006H45.1845V64.3948H44.5298V69.3209H45.1845V71.1151H40.8342V69.3209H41.4889V64.9971L39.3232 71.1215H38.1459L35.6905 64.9781V69.3273H36.3453V71.1215H32.5364V69.3273H33.1911V64.4011H32.5364V62.6006Z" fill="#00045F"/>
<path d="M45.6379 62.6006H50.7374C51.6314 62.6006 52.3303 62.7844 52.8465 63.1458C53.3628 63.5135 53.6209 64.0461 53.6209 64.7562C53.6209 65.1049 53.5579 65.4092 53.4257 65.6564C53.2935 65.9037 53.1361 66.1066 52.9473 66.2714C52.7584 66.4299 52.5632 66.5567 52.3555 66.6455C52.1477 66.7342 51.9714 66.7913 51.814 66.823V66.9308C51.9714 66.9435 52.1666 66.9815 52.3995 67.0322C52.6325 67.0893 52.8528 67.1844 53.0606 67.3302C53.2683 67.4697 53.4509 67.6725 53.5957 67.9198C53.7468 68.1734 53.8161 68.5031 53.8161 68.9088C53.8161 69.3209 53.7342 69.6633 53.5642 69.9422C53.4006 70.2212 53.1739 70.4494 52.8906 70.627C52.6073 70.8045 52.2799 70.9313 51.9085 71.0074C51.537 71.0834 51.1404 71.1215 50.7312 71.1215H45.6316V69.3273H46.2864V64.4011H45.6316V62.6006H45.6379ZM49.9253 66.189C50.1331 66.189 50.2905 66.1319 50.3975 66.0242C50.5045 65.9164 50.5549 65.7389 50.5549 65.4853V65.0922C50.5549 64.8449 50.5045 64.6674 50.3975 64.5533C50.2905 64.4455 50.1331 64.3885 49.9253 64.3885H49.3398V66.1827H49.9253V66.189ZM50.0008 69.3209C50.2086 69.3209 50.366 69.2639 50.473 69.1561C50.5801 69.0483 50.6304 68.8645 50.6304 68.6172V68.1354C50.6304 67.8881 50.5801 67.7106 50.473 67.5965C50.366 67.4887 50.2086 67.4316 50.0008 67.4316H49.3398V69.3146H50.0008V69.3209Z" fill="#00045F"/>
<path d="M54.2632 62.6006H58.6136V64.3948H57.9588V69.3209H58.6136V71.1151H54.2632V69.3209H54.9179V64.3948H54.2632V62.6006Z" fill="#00045F"/>
<path d="M65.2428 62.6006H69.0517V64.3948H68.3969V71.1215H65.3435L62.1578 66.1827V69.3273H62.8126V71.1215H59.0037V69.3273H59.6584V64.4011H59.0037V62.6069H63.0392L65.8975 67.0068V64.4011H65.2428V62.6006Z" fill="#00045F"/>
<path d="M73.7485 66.747H77.5952V68.3763H77.0537V70.5636C76.8838 70.646 76.6949 70.7284 76.4745 70.8109C76.2542 70.8933 76.0024 70.9694 75.7128 71.0328C75.4231 71.0962 75.1084 71.1532 74.7495 71.1976C74.3969 71.242 74.0003 71.261 73.5659 71.261C72.9111 71.261 72.3256 71.1786 71.8031 71.0201C71.2805 70.8616 70.8398 70.6016 70.4684 70.2529C70.1032 69.9043 69.8199 69.4478 69.6248 68.8899C69.4296 68.3319 69.3289 67.6536 69.3289 66.8484C69.3289 66.0496 69.4296 65.3712 69.6248 64.8133C69.8199 64.249 70.0969 63.7925 70.4621 63.4438C70.8272 63.0951 71.2679 62.8352 71.7905 62.6767C72.313 62.5182 72.8985 62.4358 73.5407 62.4358C73.9814 62.4358 74.3843 62.4548 74.7432 62.4992C75.1021 62.5436 75.4231 62.6006 75.7128 62.6704C75.9961 62.7401 76.2542 62.8162 76.4745 62.8986C76.6949 62.981 76.8901 63.0634 77.0537 63.1459V65.7643H74.334V65.2507C74.334 64.9337 74.271 64.7118 74.1451 64.585C74.0192 64.4519 73.8177 64.3885 73.5407 64.3885C73.2637 64.3885 73.0622 64.4519 72.9363 64.585C72.8104 64.7182 72.7474 64.9401 72.7474 65.2507V68.4461C72.7474 68.7631 72.8104 68.985 72.9363 69.1118C73.0622 69.2449 73.2637 69.3083 73.5407 69.3083C73.8177 69.3083 74.0192 69.2449 74.1451 69.1118C74.271 68.9786 74.334 68.7567 74.334 68.4461V68.37H73.7485V66.747Z" fill="#00045F"/>
<path d="M25.9197 81.3858L24.7487 76.187H24.415V74.7986H27.7518V76.187H27.2041L27.6133 79.3633H27.6951L28.6647 74.7986H31.0885L31.9951 79.3633H32.077L32.4862 76.187H31.9385V74.7986H34.8534V76.187H34.5197L33.4369 81.3858H30.503L29.7412 77.8988H29.6594L28.8535 81.3858H25.9197Z" fill="white"/>
<path d="M41.4515 78.0891C41.4515 78.7104 41.3759 79.2367 41.2248 79.6678C41.0737 80.0989 40.8597 80.4476 40.5826 80.7202C40.3056 80.9928 39.9657 81.1894 39.569 81.3098C39.1724 81.4366 38.7317 81.4937 38.2406 81.4937C37.7558 81.4937 37.3088 81.4303 36.9122 81.3098C36.5156 81.183 36.1756 80.9865 35.8986 80.7202C35.6216 80.4539 35.4075 80.0989 35.2564 79.6678C35.1053 79.2367 35.0298 78.7104 35.0298 78.0891C35.0298 77.4742 35.1053 76.9479 35.2564 76.5168C35.4075 76.0857 35.6216 75.7307 35.8986 75.458C36.1756 75.1854 36.5156 74.9889 36.9122 74.8684C37.3088 74.7416 37.7495 74.6846 38.2406 74.6846C38.7254 74.6846 39.1724 74.748 39.569 74.8684C39.9657 74.9952 40.3056 75.1918 40.5826 75.458C40.8597 75.7307 41.0737 76.0794 41.2248 76.5168C41.3759 76.9543 41.4515 77.4742 41.4515 78.0891ZM38.2406 79.9974C38.4295 79.9974 38.5743 79.9467 38.6687 79.8516C38.7632 79.7502 38.8135 79.5917 38.8135 79.3761V76.8211C38.8135 76.5992 38.7632 76.4407 38.6687 76.3456C38.5743 76.2442 38.4295 76.1998 38.2406 76.1998C38.0517 76.1998 37.9069 76.2505 37.8125 76.3456C37.7181 76.4471 37.6677 76.6056 37.6677 76.8211V79.3761C37.6677 79.598 37.7181 79.7565 37.8125 79.8516C37.9069 79.9467 38.0517 79.9974 38.2406 79.9974Z" fill="white"/>
<path d="M44.6495 79.9976H45.2036V81.386H41.7913V79.9976H42.2949V76.1873H41.7913V74.7988H45.7324C46.0724 74.7988 46.3809 74.8305 46.6642 74.9003C46.9412 74.97 47.1741 75.0778 47.363 75.2236C47.5519 75.3758 47.703 75.5723 47.8037 75.8132C47.9107 76.0541 47.9611 76.3521 47.9611 76.7008C47.9611 77.0749 47.8855 77.3982 47.7407 77.6772C47.5896 77.9561 47.3756 78.1463 47.0923 78.2604L47.0986 78.3429C47.6337 78.4253 47.9044 78.7613 47.9044 79.3446V79.9976H48.3011V81.386H45.638V79.3953C45.638 79.2241 45.6191 79.091 45.5813 78.9832C45.5435 78.8817 45.4869 78.7993 45.405 78.7486C45.3232 78.6979 45.2224 78.6599 45.0965 78.6408C44.9706 78.6218 44.8258 78.6091 44.6495 78.6091V79.9976ZM45.1028 77.5757C45.2665 77.5757 45.3861 77.5313 45.468 77.4489C45.5498 77.3665 45.5876 77.227 45.5876 77.0368V76.7325C45.5876 76.5423 45.5498 76.4028 45.468 76.3204C45.3861 76.238 45.2665 76.1936 45.1028 76.1936H44.6495V77.5821H45.1028V77.5757Z" fill="white"/>
<path d="M54.8612 76.1873L53.5391 77.8991L54.9871 79.9976H55.3208V81.386H52.8151L51.4867 79.0656V81.386H48.6284V79.9976H49.1321V76.1873H48.6284V74.7988H51.4867V77.0749L53.0229 74.7988H55.1886V76.1873H54.8612Z" fill="white"/>
<path d="M58.0534 79.8707C58.2359 79.8707 58.3681 79.8453 58.45 79.7882C58.5255 79.7312 58.5696 79.6488 58.5696 79.5346C58.5696 79.4586 58.5381 79.3888 58.4752 79.3254C58.4122 79.2684 58.28 79.1986 58.0848 79.1162C57.6693 78.9577 57.3105 78.8055 56.9957 78.6661C56.6872 78.5202 56.429 78.3617 56.2213 78.1906C56.0135 78.013 55.8624 77.8102 55.7617 77.5756C55.661 77.341 55.6106 77.0557 55.6106 76.726C55.6106 76.409 55.661 76.1237 55.7554 75.8765C55.8561 75.6229 56.0135 75.4137 56.2339 75.2362C56.4542 75.0586 56.7501 74.9255 57.1153 74.8304C57.4804 74.7353 57.9337 74.6909 58.4752 74.6909C58.9599 74.6909 59.4195 74.7416 59.8539 74.8367C60.2883 74.9382 60.6409 75.065 60.9305 75.2298V76.7451H59.1677C59.1677 76.5802 59.1236 76.4724 59.0355 76.409C58.9473 76.352 58.834 76.3203 58.7081 76.3203C58.5255 76.3203 58.387 76.3456 58.3115 76.39C58.2296 76.4407 58.1919 76.5232 58.1919 76.6373C58.1919 76.7324 58.2359 76.8021 58.3241 76.8465C58.4122 76.8909 58.5381 76.9416 58.7144 76.9987C59.0418 77.1064 59.344 77.2206 59.6336 77.3347C59.9232 77.4551 60.175 77.601 60.3954 77.7721C60.6157 77.9497 60.7857 78.1589 60.9116 78.4061C61.0375 78.6534 61.1005 78.9577 61.1005 79.3191C61.1005 80.0545 60.8676 80.5997 60.3954 80.9548C59.9232 81.3098 59.2369 81.4937 58.3304 81.4937C57.8141 81.4937 57.3167 81.4493 56.8446 81.3605C56.3661 81.2718 55.9883 81.164 55.6987 81.0372V79.3635H57.5497C57.5497 79.5346 57.5812 79.6614 57.6504 79.7375C57.7008 79.8263 57.8393 79.8707 58.0534 79.8707Z" fill="white"/>
<path d="M43 0L0 24.9984V75.0016L43 100L86 75.0016V24.9984L43 0ZM85.6537 74.7987L42.9937 99.6006L0.333675 74.7987V25.195L42.9937 0.393077L85.6537 25.195V74.7987Z" fill="#E83A15"/>
<path d="M42.9999 1.18555L1.02612 25.588V74.3993L42.9999 98.8081L84.9737 74.4056V25.588L42.9999 1.18555ZM82.2476 72.8143L42.9999 95.6317L3.75218 72.8143V27.1793L42.9999 4.36186L82.2476 27.1793V72.8143Z" fill="#E83A15"/>
</svg>
