<svg width="86" height="100" viewBox="0 0 86 100" fill="none" xmlns="http://www.w3.org/2000/svg">
<path d="M42.9999 5.1543L4.43213 27.5724V72.4148L42.9936 94.8329L81.5551 72.4148V27.5724L42.9999 5.1543ZM42.9999 91.0099L31.0695 84.074H54.9367L42.9999 91.0099ZM81.2215 72.2183H4.77839V27.7752L42.9999 5.54737L81.2215 27.7689V72.2183Z" fill="#0052DA"/>
<path d="M26.1778 44.4174C26.1778 41.463 26.9333 38.6861 28.2554 36.277H22.5829L18.7425 35.2055L17.2693 50.6052L17.2882 34.7997H14.3103L12.3649 50.6496V34.3623H11.7731V33.8678C11.7731 33.6205 11.578 33.424 11.3324 33.424H9.86551C9.61998 33.424 9.42481 33.6205 9.42481 33.8678V34.3623H8.83301V54.4092H9.42481V54.9037C9.42481 55.151 9.61998 55.3475 9.86551 55.3475H11.3387C11.5843 55.3475 11.7794 55.151 11.7794 54.9037V54.4092H12.3712V53.9844H17.2882L22.5829 52.5136H28.2302C26.9207 50.1107 26.1778 47.3528 26.1778 44.4174ZM11.3513 45.92C11.3513 46.3575 10.9987 46.7062 10.5706 46.7062C10.1362 46.7062 9.78996 46.3511 9.78996 45.92V36.2453C9.78996 35.8078 10.1425 35.4591 10.5706 35.4591C11.005 35.4591 11.3513 35.8141 11.3513 36.2453V45.92ZM76.4809 34.3623V33.8678C76.4809 33.6205 76.2857 33.424 76.0402 33.424H74.567C74.3215 33.424 74.1263 33.6205 74.1263 33.8678V34.3623H73.5345V50.6496L71.5891 34.7997H68.6112L68.6301 50.6052L67.1632 35.2055L63.3228 36.277H57.644C58.9661 38.6925 59.7216 41.4694 59.7216 44.4238C59.7216 47.3592 58.9787 50.1171 57.6692 52.5199H63.3228L68.6175 53.9908H73.5345V54.4155H74.1263V54.9101C74.1263 55.1573 74.3215 55.3539 74.567 55.3539H76.0402C76.2857 55.3539 76.4809 55.1573 76.4809 54.9101V54.4155H77.0727V34.3623H76.4809ZM76.1158 45.92C76.1158 46.3575 75.7632 46.7062 75.3351 46.7062C74.9007 46.7062 74.5544 46.3511 74.5544 45.92V36.2453C74.5544 35.8078 74.907 35.4591 75.3351 35.4591C75.7695 35.4591 76.1158 35.8141 76.1158 36.2453V45.92ZM57.2222 44.4048C57.2222 42.674 56.9011 41.0256 56.3408 39.485C56.9704 38.6418 57.0774 37.4689 56.5171 36.4925C55.9567 35.5225 54.8928 35.028 53.854 35.1548C51.7449 32.6315 48.7859 30.8626 45.4302 30.2667C45.021 29.2903 44.0641 28.6056 42.9434 28.6056C41.8228 28.6056 40.8658 29.2903 40.4566 30.2667C37.1009 30.8626 34.1482 32.6378 32.0329 35.1548C30.9941 35.028 29.9301 35.5225 29.3698 36.4925C28.8157 37.4625 28.9228 38.6354 29.546 39.485C28.9857 41.0256 28.6646 42.674 28.6646 44.4048C28.6646 46.1229 28.9794 47.7713 29.5335 49.2992C28.9165 50.1424 28.8094 51.309 29.3635 52.2726C29.9175 53.2363 30.9626 53.7245 31.9888 53.6104C34.1042 56.159 37.0821 57.9469 40.4692 58.5429C40.891 59.4938 41.8354 60.1595 42.9308 60.1595C44.0263 60.1595 44.9769 59.4938 45.3925 58.5429C48.7733 57.9469 51.7512 56.159 53.8728 53.6104C54.9054 53.7245 55.9504 53.23 56.4982 52.2726C57.0522 51.309 56.9452 50.1424 56.3282 49.2992C56.9074 47.7713 57.2222 46.1229 57.2222 44.4048ZM45.2603 32.7139C47.8604 33.2338 50.1458 34.6096 51.833 36.5432C51.6127 36.9427 51.4993 37.3864 51.493 37.8429L45.0651 41.5835C44.8321 41.406 44.5803 41.2475 44.3096 41.1334V33.6649C44.6999 33.4303 45.0273 33.107 45.2603 32.7139ZM46.4313 43.942L52.8529 40.2077C53.2559 40.436 53.7029 40.5564 54.1624 40.5628C54.5717 41.7673 54.8046 43.0607 54.8046 44.4048C54.8046 45.7362 54.578 47.0105 54.175 48.2087C53.7092 48.2087 53.2559 48.3292 52.8466 48.5638L46.4313 44.8295C46.4502 44.6901 46.4753 44.5442 46.4753 44.3984C46.4753 44.2463 46.4502 44.0941 46.4313 43.942ZM44.9455 42.6169C44.9455 43.2953 44.0766 43.8469 43.0064 43.8469C41.9361 43.8469 41.0673 43.2953 41.0673 42.6169C41.0673 41.9385 41.9361 41.387 43.0064 41.387C44.0766 41.387 44.9455 41.9385 44.9455 42.6169ZM43.0001 29.1445C43.957 29.1445 44.7314 29.6327 44.7314 30.235C44.7314 30.8373 43.957 31.3255 43.0001 31.3255C42.0431 31.3255 41.2687 30.8373 41.2687 30.235C41.275 29.6327 42.0494 29.1445 43.0001 29.1445ZM40.6392 32.7139C40.8721 33.107 41.1995 33.4303 41.5898 33.6649V41.127C41.3128 41.2411 41.0673 41.3996 40.8343 41.5772L34.4064 37.8366C34.4064 37.3801 34.2867 36.9363 34.0664 36.5369C35.7537 34.6095 38.0453 33.2338 40.6392 32.7139ZM39.4682 44.8295L33.0528 48.5638C32.6499 48.3292 32.1903 48.2087 31.7244 48.2087C31.3214 47.0105 31.0948 45.7362 31.0948 44.4048C31.0948 43.0607 31.3277 41.7673 31.737 40.5628C32.1966 40.5564 32.6499 40.436 33.0465 40.2077L39.4682 43.942C39.4493 44.0941 39.4241 44.2463 39.4241 44.4048C39.4241 44.5506 39.4493 44.6901 39.4682 44.8295ZM31.6111 35.5859C32.568 35.5859 33.3424 36.0741 33.3424 36.6764C33.3424 37.2787 32.568 37.7668 31.6111 37.7668C30.6541 37.7668 29.8797 37.2787 29.8797 36.6764C29.8797 36.0741 30.6541 35.5859 31.6111 35.5859ZM31.7747 50.9413C30.8178 50.9413 30.0434 50.4531 30.0434 49.8508C30.0434 49.2485 30.8178 48.7603 31.7747 48.7603C32.7317 48.7603 33.5061 49.2485 33.5061 49.8508C33.5061 50.4467 32.7317 50.9413 31.7747 50.9413ZM40.6203 56.0956C38.0201 55.5694 35.7348 54.1936 34.0538 52.2536C34.2805 51.8479 34.4001 51.3914 34.4064 50.9286L40.8092 47.207C41.0484 47.3909 41.3065 47.5621 41.5898 47.6762V55.1066C41.1869 55.3475 40.8595 55.6835 40.6203 56.0956ZM43.0001 57.4587C42.0431 57.4587 41.2687 56.9705 41.2687 56.3682C41.2687 55.766 42.0431 55.2778 43.0001 55.2778C43.957 55.2778 44.7314 55.766 44.7314 56.3682C44.7314 56.9705 43.957 57.4587 43.0001 57.4587ZM45.2791 56.0956C45.0462 55.6899 44.7125 55.3475 44.3096 55.1129V47.6762C44.5929 47.5557 44.851 47.3909 45.0903 47.207L51.493 50.9286C51.493 51.3914 51.619 51.8479 51.8456 52.2536C50.1646 54.1873 47.8793 55.5694 45.2791 56.0956ZM54.2317 51.1061C53.2747 51.1061 52.5004 50.6179 52.5004 50.0156C52.5004 49.4133 53.2747 48.9252 54.2317 48.9252C55.1887 48.9252 55.963 49.4133 55.963 50.0156C55.9567 50.6116 55.1824 51.1061 54.2317 51.1061ZM54.2317 37.7668C53.2747 37.7668 52.5004 37.2787 52.5004 36.6764C52.5004 36.0741 53.2747 35.5859 54.2317 35.5859C55.1887 35.5859 55.963 36.0741 55.963 36.6764C55.9567 37.2787 55.1824 37.7668 54.2317 37.7668ZM42.9497 9.45264C38.1964 9.45264 34.3245 13.3454 34.3245 18.1384C34.3245 21.8789 36.6917 25.0679 39.997 26.2852V28.7578H40.6455C41.2624 28.1935 42.0746 27.8575 42.9497 27.8575C43.8248 27.8575 44.637 28.1935 45.254 28.7578H45.9024V26.2852C49.2077 25.0679 51.5749 21.8789 51.5749 18.1384C51.5749 13.3454 47.703 9.45264 42.9497 9.45264ZM39.9026 22.627H37.9383V19.9833H39.9026V22.627ZM42.5279 22.627H40.5636V19.9833H42.5279V22.627ZM45.1469 22.627H43.1827V19.9833H45.1469V22.627ZM47.7723 22.627H45.808V19.9833H47.7723V22.627ZM46.979 18.0686C46.9601 16.8197 46.3809 15.7102 45.4806 14.9811C45.1784 14.7338 44.8258 14.5373 44.4607 14.3851L43.787 17.5234C43.913 17.6946 43.9885 17.9038 43.9885 18.1384C43.9885 18.7153 43.5226 19.1845 42.9497 19.1845C42.3768 19.1845 41.9109 18.7153 41.9109 18.1384C41.9109 17.6692 42.2194 17.2761 42.6412 17.143L44.0892 14.2583C43.7241 14.1505 43.3463 14.0808 42.9497 14.0808C41.9739 14.0808 41.0799 14.4358 40.381 15.0191C39.5059 15.7545 38.9393 16.8514 38.9204 18.0813H35.6403C35.6592 15.9384 36.5973 14.0237 38.0642 12.686C39.3611 11.5068 41.0673 10.784 42.9497 10.784C44.8132 10.784 46.5131 11.4941 47.8037 12.6543C49.2895 13.992 50.2402 15.9257 50.2591 18.0813H46.979V18.0686Z" fill="#0052DA"/>
<path d="M13.1772 71.1151H8.43652V69.3209H9.09128V64.3948H8.43652V62.6006H13.322C13.7627 62.6006 14.1657 62.645 14.5245 62.7401C14.8834 62.8288 15.1856 62.981 15.4311 63.1839C15.6766 63.3867 15.8655 63.653 16.004 63.9827C16.1362 64.3124 16.2055 64.7118 16.2055 65.1746C16.2055 65.6501 16.1362 66.0495 16.004 66.3729C15.8718 66.6962 15.6766 66.9625 15.4311 67.1653C15.1856 67.3682 14.8834 67.5204 14.5245 67.6091C14.1657 67.6979 13.7627 67.7486 13.322 67.7486H12.1321V69.3273H13.1772V71.1151ZM12.5036 66.189C12.705 66.189 12.8624 66.1319 12.9695 66.0242C13.0765 65.9164 13.1332 65.7389 13.1332 65.4853V65.0922C13.1332 64.8449 13.0828 64.6674 12.9758 64.5533C12.8687 64.4455 12.7113 64.3885 12.5036 64.3885H12.1321V66.1827H12.5036V66.189Z" fill="#0052DA"/>
<path d="M16.6147 62.6006H21.3114V64.3948H20.3104V69.3209H21.2862V68.3129H23.4519V71.1151H16.6147V69.3209H17.2695V64.3948H16.6147V62.6006Z" fill="#0052DA"/>
<path d="M31.5795 68.0588C31.5795 68.6484 31.4976 69.1493 31.334 69.555C31.1703 69.9608 30.9373 70.2904 30.6351 70.544C30.3329 70.7976 29.9615 70.9815 29.5334 71.0956C29.099 71.2097 28.6205 71.2668 28.0916 71.2668C27.5502 71.2668 27.0591 71.2097 26.6184 71.0956C26.1777 70.9815 25.8063 70.7976 25.4978 70.544C25.1893 70.2904 24.9501 69.9608 24.7801 69.555C24.6101 69.1493 24.5219 68.6484 24.5219 68.0588V64.388H23.8672V62.5938H27.9972V64.388H27.5628V68.6167C27.5628 68.864 27.6132 69.0415 27.7202 69.1556C27.8272 69.2634 27.9846 69.3204 28.1924 69.3204C28.4001 69.3204 28.5575 69.2634 28.6646 69.1556C28.7716 69.0478 28.8219 68.864 28.8219 68.6167V64.388H28.3875V62.5938H32.2279V64.388H31.5732V68.0588H31.5795Z" fill="#0052DA"/>
<path d="M32.5366 62.6006H37.7369L38.9772 66.3538L40.1734 62.6006H45.1848V64.3948H44.53V69.3209H45.1848V71.1151H40.8344V69.3209H41.4892V64.9971L39.3234 71.1215H38.1461L35.6908 64.9781V69.3273H36.3455V71.1215H32.5366V69.3273H33.1914V64.4011H32.5366V62.6006Z" fill="#0052DA"/>
<path d="M45.6381 62.6006H50.7377C51.6317 62.6006 52.3305 62.7844 52.8468 63.1458C53.363 63.5135 53.6212 64.0461 53.6212 64.7562C53.6212 65.1049 53.5582 65.4092 53.426 65.6564C53.2938 65.9037 53.1364 66.1066 52.9475 66.2714C52.7586 66.4299 52.5635 66.5567 52.3557 66.6455C52.1479 66.7342 51.9717 66.7913 51.8143 66.823V66.9308C51.9717 66.9435 52.1668 66.9815 52.3998 67.0322C52.6327 67.0893 52.8531 67.1844 53.0608 67.3302C53.2686 67.4697 53.4512 67.6725 53.596 67.9198C53.7471 68.1734 53.8163 68.5031 53.8163 68.9088C53.8163 69.3209 53.7345 69.6633 53.5645 69.9422C53.4008 70.2212 53.1741 70.4494 52.8908 70.627C52.6075 70.8045 52.2802 70.9313 51.9087 71.0074C51.5373 71.0834 51.1406 71.1215 50.7314 71.1215H45.6318V69.3273H46.2866V64.4011H45.6318V62.6006H45.6381ZM49.9255 66.189C50.1333 66.189 50.2907 66.1319 50.3977 66.0242C50.5048 65.9164 50.5551 65.7389 50.5551 65.4853V65.0922C50.5551 64.8449 50.5048 64.6674 50.3977 64.5533C50.2907 64.4455 50.1333 64.3885 49.9255 64.3885H49.34V66.1827H49.9255V66.189ZM50.0011 69.3209C50.2089 69.3209 50.3662 69.2639 50.4733 69.1561C50.5803 69.0483 50.6307 68.8645 50.6307 68.6172V68.1354C50.6307 67.8881 50.5803 67.7106 50.4733 67.5965C50.3662 67.4887 50.2089 67.4316 50.0011 67.4316H49.34V69.3146H50.0011V69.3209Z" fill="#0052DA"/>
<path d="M54.2637 62.6006H58.614V64.3948H57.9593V69.3209H58.614V71.1151H54.2637V69.3209H54.9184V64.3948H54.2637V62.6006Z" fill="#0052DA"/>
<path d="M65.243 62.6006H69.0519V64.3948H68.3972V71.1215H65.3437L62.1581 66.1827V69.3273H62.8128V71.1215H59.0039V69.3273H59.6587V64.4011H59.0039V62.6069H63.0395L65.8978 67.0068V64.4011H65.243V62.6006Z" fill="#0052DA"/>
<path d="M73.7487 66.7467H77.5954V68.3761H77.054V70.5634C76.884 70.6458 76.6951 70.7282 76.4748 70.8106C76.2544 70.893 76.0026 70.9691 75.713 71.0325C75.4234 71.0959 75.1086 71.153 74.7497 71.1974C74.3972 71.2417 74.0005 71.2608 73.5661 71.2608C72.9114 71.2608 72.3259 71.1783 71.8033 71.0198C71.2808 70.8613 70.8401 70.6014 70.4686 70.2527C70.1035 69.904 69.8202 69.4475 69.625 68.8896C69.4298 68.3317 69.3291 67.6533 69.3291 66.8481C69.3291 66.0493 69.4298 65.3709 69.625 64.813C69.8202 64.2488 70.0972 63.7923 70.4623 63.4436C70.8275 63.0949 71.2682 62.835 71.7907 62.6765C72.3133 62.518 72.8988 62.4355 73.541 62.4355C73.9817 62.4355 74.3846 62.4546 74.7434 62.499C75.1023 62.5433 75.4234 62.6004 75.713 62.6701C75.9963 62.7399 76.2544 62.8159 76.4748 62.8984C76.6951 62.9808 76.8903 63.0632 77.054 63.1456V65.764H74.3342V65.2505C74.3342 64.9335 74.2713 64.7116 74.1454 64.5848C74.0194 64.4516 73.818 64.3883 73.541 64.3883C73.2639 64.3883 73.0625 64.4516 72.9366 64.5848C72.8107 64.7179 72.7477 64.9398 72.7477 65.2505V68.4458C72.7477 68.7628 72.8107 68.9847 72.9366 69.1115C73.0625 69.2447 73.2639 69.3081 73.541 69.3081C73.818 69.3081 74.0194 69.2447 74.1454 69.1115C74.2713 68.9784 74.3342 68.7565 74.3342 68.4458V68.3697H73.7487V66.7467Z" fill="#0052DA"/>
<path d="M25.9197 81.386L24.7487 76.1873H24.415V74.7988H27.7518V76.1873H27.2041L27.6133 79.3636H27.6951L28.6647 74.7988H31.0885L31.9951 79.3636H32.077L32.4862 76.1873H31.9385V74.7988H34.8534V76.1873H34.5197L33.4369 81.386H30.503L29.7412 77.8991H29.6594L28.8535 81.386H25.9197Z" fill="white"/>
<path d="M41.4515 78.0891C41.4515 78.7104 41.3759 79.2367 41.2248 79.6678C41.0737 80.0989 40.8597 80.4476 40.5826 80.7202C40.3056 80.9928 39.9657 81.1894 39.569 81.3098C39.1724 81.4366 38.7317 81.4937 38.2406 81.4937C37.7558 81.4937 37.3088 81.4303 36.9122 81.3098C36.5156 81.183 36.1756 80.9865 35.8986 80.7202C35.6216 80.4539 35.4075 80.0989 35.2564 79.6678C35.1053 79.2367 35.0298 78.7104 35.0298 78.0891C35.0298 77.4742 35.1053 76.9479 35.2564 76.5168C35.4075 76.0857 35.6216 75.7307 35.8986 75.458C36.1756 75.1854 36.5156 74.9889 36.9122 74.8684C37.3088 74.7416 37.7495 74.6846 38.2406 74.6846C38.7254 74.6846 39.1724 74.748 39.569 74.8684C39.9657 74.9952 40.3056 75.1918 40.5826 75.458C40.8597 75.7307 41.0737 76.0794 41.2248 76.5168C41.3759 76.9543 41.4515 77.4742 41.4515 78.0891ZM38.2406 79.9974C38.4295 79.9974 38.5743 79.9467 38.6687 79.8516C38.7632 79.7502 38.8135 79.5917 38.8135 79.3761V76.8211C38.8135 76.5992 38.7632 76.4407 38.6687 76.3456C38.5743 76.2442 38.4295 76.1998 38.2406 76.1998C38.0517 76.1998 37.9069 76.2505 37.8125 76.3456C37.7181 76.4471 37.6677 76.6056 37.6677 76.8211V79.3761C37.6677 79.598 37.7181 79.7565 37.8125 79.8516C37.9069 79.9467 38.0517 79.9974 38.2406 79.9974Z" fill="white"/>
<path d="M44.6498 79.9976H45.2038V81.386H41.7915V79.9976H42.2952V76.1873H41.7915V74.7988H45.7326C46.0726 74.7988 46.3811 74.8305 46.6644 74.9003C46.9414 74.97 47.1744 75.0778 47.3632 75.2236C47.5521 75.3758 47.7032 75.5723 47.804 75.8132C47.911 76.0541 47.9613 76.3521 47.9613 76.7008C47.9613 77.0749 47.8858 77.3982 47.741 77.6772C47.5899 77.9561 47.3758 78.1463 47.0925 78.2604L47.0988 78.3429C47.634 78.4253 47.9047 78.7613 47.9047 79.3446V79.9976H48.3013V81.386H45.6382V79.3953C45.6382 79.2241 45.6193 79.091 45.5815 78.9832C45.5438 78.8817 45.4871 78.7993 45.4053 78.7486C45.3234 78.6979 45.2227 78.6599 45.0968 78.6408C44.9709 78.6218 44.8261 78.6091 44.6498 78.6091V79.9976ZM45.1031 77.5757C45.2668 77.5757 45.3864 77.5313 45.4682 77.4489C45.5501 77.3665 45.5878 77.227 45.5878 77.0368V76.7325C45.5878 76.5423 45.5501 76.4028 45.4682 76.3204C45.3864 76.238 45.2668 76.1936 45.1031 76.1936H44.6498V77.5821H45.1031V77.5757Z" fill="white"/>
<path d="M54.8612 76.1873L53.5391 77.8991L54.9871 79.9976H55.3208V81.386H52.8151L51.4867 79.0656V81.386H48.6284V79.9976H49.1321V76.1873H48.6284V74.7988H51.4867V77.0749L53.0229 74.7988H55.1886V76.1873H54.8612Z" fill="white"/>
<path d="M58.0531 79.8707C58.2357 79.8707 58.3679 79.8453 58.4497 79.7882C58.5253 79.7312 58.5694 79.6488 58.5694 79.5346C58.5694 79.4586 58.5379 79.3888 58.4749 79.3254C58.412 79.2684 58.2798 79.1986 58.0846 79.1162C57.6691 78.9577 57.3102 78.8055 56.9954 78.6661C56.6869 78.5202 56.4288 78.3617 56.221 78.1906C56.0133 78.013 55.8622 77.8102 55.7615 77.5756C55.6607 77.341 55.6104 77.0557 55.6104 76.726C55.6104 76.409 55.6607 76.1237 55.7552 75.8765C55.8559 75.6229 56.0133 75.4137 56.2336 75.2362C56.454 75.0586 56.7499 74.9255 57.115 74.8304C57.4802 74.7353 57.9335 74.6909 58.4749 74.6909C58.9597 74.6909 59.4193 74.7416 59.8537 74.8367C60.2881 74.9382 60.6407 75.065 60.9303 75.2298V76.7451H59.1675C59.1675 76.5802 59.1234 76.4724 59.0352 76.409C58.9471 76.352 58.8338 76.3203 58.7079 76.3203C58.5253 76.3203 58.3868 76.3456 58.3112 76.39C58.2294 76.4407 58.1916 76.5232 58.1916 76.6373C58.1916 76.7324 58.2357 76.8021 58.3238 76.8465C58.412 76.8909 58.5379 76.9416 58.7142 76.9987C59.0415 77.1064 59.3437 77.2206 59.6333 77.3347C59.9229 77.4551 60.1748 77.601 60.3951 77.7721C60.6155 77.9497 60.7855 78.1589 60.9114 78.4061C61.0373 78.6534 61.1002 78.9577 61.1002 79.3191C61.1002 80.0545 60.8673 80.5997 60.3951 80.9548C59.9229 81.3098 59.2367 81.4937 58.3301 81.4937C57.8139 81.4937 57.3165 81.4493 56.8443 81.3605C56.3658 81.2718 55.9881 81.164 55.6985 81.0372V79.3635H57.5494C57.5494 79.5346 57.5809 79.6614 57.6502 79.7375C57.7005 79.8263 57.8391 79.8707 58.0531 79.8707Z" fill="white"/>
<path d="M43 0L0 24.9984V75.0016L43 100L86 75.0016V24.9984L43 0ZM85.6537 74.7987L42.9937 99.6006L0.333675 74.7987V25.195L42.9937 0.393077L85.6537 25.195V74.7987Z" fill="#0052DA"/>
<path d="M43.0002 1.18555L1.02637 25.588V74.3993L43.0002 98.8081L84.9739 74.4056V25.588L43.0002 1.18555ZM82.2479 72.8143L43.0002 95.6317L3.75243 72.8143V27.1793L43.0002 4.36186L82.2479 27.1793V72.8143Z" fill="#0052DA"/>
</svg>
