<svg width="106" height="100" viewBox="0 0 106 100" fill="none" xmlns="http://www.w3.org/2000/svg">
<path d="M21.5101 28.1676L12.6239 21.4275C21.5323 8.48703 36.3132 0 53.0147 0C69.7161 0 84.4897 8.48703 93.4055 21.4275L84.5192 28.1676C77.6495 17.9712 66.104 11.2835 53.0221 11.2835C39.9253 11.2835 28.3798 17.9787 21.5101 28.1676ZM74.2516 18.661L72.3901 21.1951C78.5581 25.4761 83.2782 31.7514 85.6568 39.0988L88.8478 32.3812L94.9788 35.3801C93.7157 31.6614 91.9872 28.1676 89.8672 24.9663L84.5192 28.1826C81.86 24.239 78.0041 21.285 74.2516 18.661ZM11.0283 35.4401L17.2923 32.3812L20.4169 38.9639C22.8102 31.6764 27.5082 25.4536 33.6392 21.1951L31.7777 18.661C28.0179 21.285 24.1694 24.2315 21.5175 28.1676L16.1695 24.9513C14.0274 28.1826 12.2915 31.6989 11.0283 35.4401ZM89.8598 75.0412C92.0094 71.7949 93.7527 68.2561 95.0232 64.4849L88.8404 67.5064L85.6715 60.8337C83.293 68.2111 78.5655 74.5089 72.3827 78.8049L74.2442 81.339C78.0041 78.7149 81.8083 75.821 84.4601 71.8848H84.4675C77.5904 82.0438 66.0671 88.7164 53.0073 88.7164C40.5975 88.7164 29.5839 82.6961 22.6181 73.3843C25.1814 76.5557 28.5349 79.0748 31.7703 81.339L33.6318 78.8049C27.486 74.5389 22.7807 68.2861 20.3874 60.9687L17.2849 67.5064L10.9692 64.4249C12.2398 68.2186 13.9904 71.7799 16.1547 75.0412L21.4437 71.8174C21.451 71.8324 21.4584 71.8399 21.4658 71.8549L12.6091 78.5725C21.5175 91.513 36.2984 100 52.9999 100C69.7014 100 84.4749 91.513 93.3907 78.5725L84.9698 72.1922L89.8598 75.0412Z" fill="#E83A15"/>
<path d="M50.2816 42.4951L42.7545 34.9603C43.4119 32.4412 42.7619 29.6447 40.8192 27.6728C38.2486 25.0638 34.2671 24.7564 31.3641 26.7582L36.9337 29.8321C36.9337 29.8321 38.6105 30.7917 37.0372 34.0606C35.5377 37.187 33.4841 36.2723 33.4841 36.2723L28.0918 33.2959C28.1583 35.1402 28.8822 36.9696 30.2709 38.3791C32.6125 40.7558 36.1286 41.2206 38.9282 39.7736L48.6861 49.5427L30.8249 67.4314C29.643 68.631 29.643 70.5728 30.8249 71.7724C32.0068 72.972 33.92 72.972 35.1018 71.7724L50.2668 56.5827V42.4951H50.2816ZM34.7694 69.8906L34.0751 70.5878C33.4915 71.1801 32.546 71.1801 31.9698 70.5878C31.3863 69.9955 31.3863 69.0359 31.9698 68.4511L32.6642 67.7538C33.2478 67.1615 34.1933 67.1615 34.7694 67.7538C35.353 68.3386 35.353 69.2983 34.7694 69.8906Z" fill="#00045F"/>
<path d="M57.3137 49.5425L67.0716 39.7734C69.8712 41.2204 73.3873 40.7631 75.7289 38.3789C77.1176 36.9694 77.8416 35.14 77.908 33.2957L72.5157 36.2721C72.5157 36.2721 70.4622 37.1943 68.9627 34.0604C67.3967 30.7915 69.0661 29.8319 69.0661 29.8319L74.6357 26.758C71.7327 24.7637 67.7512 25.0636 65.1806 27.6726C63.2379 29.6445 62.5879 32.441 63.2453 34.9601L55.696 42.5249V56.56L70.8906 71.7722C72.0725 72.9718 73.9857 72.9718 75.1676 71.7722C76.3494 70.5726 76.3494 68.6308 75.1676 67.4312L57.3137 49.5425ZM74.0374 70.5876C73.4538 71.1799 72.5083 71.1799 71.9321 70.5876L71.2378 69.8904C70.6542 69.2981 70.6542 68.3384 71.2378 67.7536C71.8213 67.1613 72.7669 67.1613 73.343 67.7536L74.0374 68.4509C74.6135 69.0432 74.6135 69.9953 74.0374 70.5876Z" fill="#00045F"/>
<path d="M55.1276 15.4296C55.1276 14.23 54.1673 13.2554 52.9854 13.2554C51.8036 13.2554 50.8433 14.23 50.8433 15.4296V68.2111H55.1202V15.4296H55.1276ZM53.0371 66.2618C53.0371 66.6517 52.7269 66.9666 52.3428 66.9666C51.9587 66.9666 51.6484 66.6517 51.6484 66.2618V15.1072C51.6484 14.7174 51.9587 14.4025 52.3428 14.4025C52.7269 14.4025 53.0371 14.7174 53.0371 15.1072V66.2618Z" fill="#E83A15"/>
<path d="M63.9473 82.5085H63.541H42.4296H42.1268C41.6171 82.5085 41.196 82.9284 41.196 83.4532C41.196 83.978 41.6097 84.3979 42.1268 84.3979H63.9473C64.457 84.3979 64.878 83.978 64.878 83.4532C64.878 82.9284 64.4643 82.5085 63.9473 82.5085ZM55.9991 83.8206H42.474C42.2302 83.8206 42.0307 83.6182 42.0307 83.3708C42.0307 83.1233 42.2302 82.9209 42.474 82.9209H55.9991C56.2429 82.9209 56.4423 83.1233 56.4423 83.3708C56.4423 83.6182 56.2429 83.8206 55.9991 83.8206Z" fill="#E83A15"/>
<path d="M63.5484 81.6165V79.9595C63.5484 75.1612 60.4386 71.1201 56.1543 69.7556H49.8164C45.5395 71.1276 42.4297 75.1687 42.4297 79.9595V81.6165H63.5484ZM47.9993 72.0573C49.4693 71.5175 50.8654 71.6674 51.1239 72.3872C51.3824 73.1069 50.4 74.1266 48.93 74.6664C48.8266 74.7039 48.7306 74.7264 48.6346 74.7564C49.0999 74.7489 49.4619 74.8838 49.5727 75.1537C49.7721 75.6411 49.1295 76.3683 48.1396 76.7882C47.1498 77.2005 46.1895 77.148 45.9901 76.6607C45.7907 76.1734 46.4333 75.4461 47.4231 75.0263C47.4822 75.0038 47.5413 74.9813 47.6004 74.9588C46.6992 75.0338 45.9901 74.8163 45.8128 74.329C45.5469 73.6168 46.5293 72.5971 47.9993 72.0573Z" fill="#E83A15"/>
<path d="M106 43.1548H91.2266H81.7642H76.5639L69.8271 49.9999L76.5639 56.8375H81.7642H91.2266H106V43.1548Z" fill="#00045F"/>
<path d="M36.173 49.9999L29.4362 43.1548H0V56.8375H29.4362L36.173 49.9999Z" fill="#00045F"/>
<path d="M80.8186 51.5746C81.2175 51.2297 81.5794 50.9073 81.9119 50.5999C82.2443 50.2925 82.5323 50.0076 82.7687 49.7452C83.0125 49.4828 83.1971 49.2504 83.3301 49.0555C83.4631 48.853 83.5295 48.6956 83.5295 48.5681C83.5295 48.3657 83.4852 48.2233 83.3966 48.1333C83.3079 48.0433 83.1824 47.9983 83.0051 47.9983C82.8352 47.9983 82.7022 48.0433 82.6136 48.1333C82.5249 48.2233 82.4806 48.3732 82.4806 48.5681V48.958H80.9516V47.1137C81.0845 47.0462 81.2323 46.9862 81.3874 46.9337C81.5425 46.8812 81.7346 46.8288 81.9488 46.7763C82.163 46.7238 82.392 46.6863 82.6357 46.6563C82.8795 46.6263 83.1233 46.6113 83.3744 46.6113C84.0983 46.6113 84.6376 46.7613 84.9995 47.0612C85.3541 47.3611 85.5314 47.7959 85.5314 48.3807C85.5314 48.6956 85.4575 48.9955 85.3171 49.2879C85.1694 49.5728 84.9847 49.8502 84.7631 50.1126C84.5415 50.375 84.2904 50.6224 84.0245 50.8473C83.7585 51.0798 83.5 51.2972 83.2562 51.4996H84.187V51.0498H85.6791V52.7742H80.8186V51.5746Z" fill="white"/>
<path d="M91.1896 49.7377C91.1896 50.3075 91.1231 50.7873 90.9975 51.1847C90.8719 51.582 90.6873 51.9044 90.4583 52.1518C90.2293 52.3992 89.9412 52.5792 89.6162 52.6916C89.2838 52.8041 88.9144 52.8641 88.5008 52.8641C88.0871 52.8641 87.7178 52.8041 87.3854 52.6916C87.053 52.5792 86.7723 52.3992 86.5433 52.1518C86.3143 51.9044 86.1296 51.582 86.0041 51.1847C85.8785 50.7873 85.812 50.3075 85.812 49.7377C85.812 49.1754 85.8785 48.6955 86.0041 48.2907C86.1296 47.8933 86.3143 47.5709 86.5433 47.3235C86.7723 47.0761 87.0604 46.8962 87.3854 46.7762C87.7178 46.6637 88.0871 46.6038 88.5008 46.6038C88.9144 46.6038 89.2838 46.6637 89.6162 46.7762C89.9486 46.8887 90.2293 47.0686 90.4583 47.3235C90.6873 47.5709 90.8719 47.8933 90.9975 48.2907C91.1231 48.6955 91.1896 49.1754 91.1896 49.7377ZM88.4934 51.4845C88.6633 51.4845 88.7962 51.4396 88.8849 51.3496C88.9735 51.2596 89.0179 51.1097 89.0179 50.9073V48.5681C89.0179 48.3656 88.9735 48.2232 88.8849 48.1332C88.7962 48.0433 88.6707 47.9983 88.4934 47.9983C88.3161 47.9983 88.1905 48.0433 88.1019 48.1332C88.0132 48.2232 87.9689 48.3731 87.9689 48.5681V50.9148C87.9689 51.1172 88.0132 51.2596 88.1019 51.3571C88.1905 51.4396 88.3235 51.4845 88.4934 51.4845Z" fill="white"/>
<path d="M91.4038 47.1137L93.1028 46.7163H94.5801V51.4846H95.2228V52.7592H91.6328V51.4846H92.3641V47.9909H91.4038V47.1137Z" fill="white"/>
<path d="M100.209 48.2458C100.032 48.1858 99.81 48.1333 99.5515 48.0733C99.293 48.0133 99.0049 47.9908 98.702 47.9908C98.3327 47.9908 98.0668 48.0883 97.9043 48.2907C97.7417 48.4932 97.6531 48.7481 97.6531 49.0555V49.2804C97.8082 49.2204 97.9855 49.1754 98.185 49.1304C98.3844 49.0855 98.5838 49.063 98.7759 49.063C99.0049 49.063 99.2265 49.093 99.4481 49.1379C99.6623 49.1904 99.8544 49.2804 100.024 49.4154C100.194 49.5503 100.327 49.7227 100.431 49.9477C100.534 50.1726 100.586 50.45 100.586 50.7949C100.586 51.5146 100.379 52.0394 99.9578 52.3693C99.5367 52.6992 98.9458 52.8641 98.1776 52.8641C97.7639 52.8641 97.3946 52.8117 97.0622 52.6992C96.7297 52.5867 96.4491 52.4218 96.2201 52.2044C95.9911 51.9794 95.8064 51.702 95.6808 51.3647C95.5553 51.0273 95.4888 50.6224 95.4888 50.1651C95.4888 49.5278 95.5553 48.9805 95.703 48.5307C95.8433 48.0808 96.0428 47.7134 96.2939 47.4285C96.5451 47.1436 96.8553 46.9337 97.2025 46.8063C97.5571 46.6713 97.9412 46.6113 98.3696 46.6113C98.5912 46.6113 98.7907 46.6263 98.9753 46.6488C99.16 46.6713 99.3299 46.7013 99.4776 46.7388C99.6328 46.7763 99.7657 46.8213 99.8839 46.8662C100.002 46.9112 100.113 46.9562 100.209 47.0012V48.2458ZM98.1554 50.285C98.0963 50.285 98.0224 50.2925 97.9338 50.3075C97.8451 50.3225 97.7565 50.345 97.6605 50.3825V50.9073C97.6605 51.1098 97.7048 51.2522 97.7935 51.3497C97.8821 51.4396 98.0077 51.4846 98.185 51.4846C98.3549 51.4846 98.4878 51.4396 98.5765 51.3497C98.6651 51.2597 98.7094 51.1098 98.7094 50.9073C98.6946 50.495 98.5174 50.285 98.1554 50.285Z" fill="white"/>
<path d="M6.21216 47.1134L7.91112 46.7161H9.38847V51.4844H10.0311V52.759H6.44115V51.4844H7.17244V47.9906H6.21216V47.1134Z" fill="white"/>
<path d="M10.5629 51.2295C10.7623 51.297 10.9987 51.357 11.2794 51.4095C11.5601 51.462 11.8703 51.4844 12.2249 51.4844C12.5351 51.4844 12.7715 51.3945 12.9266 51.207C13.0818 51.0196 13.163 50.7572 13.163 50.4198V50.2549C13.0227 50.3074 12.8675 50.3523 12.6829 50.4048C12.4982 50.4498 12.284 50.4723 12.0402 50.4723C11.8112 50.4723 11.5896 50.4498 11.368 50.3973C11.1538 50.3448 10.9618 50.2549 10.7919 50.1199C10.622 49.985 10.489 49.8125 10.3856 49.5876C10.2822 49.3627 10.2305 49.0778 10.2305 48.7254C10.2305 47.9907 10.4373 47.4509 10.851 47.121C11.2646 46.7836 11.8629 46.6187 12.6385 46.6187C13.0596 46.6187 13.4437 46.6711 13.7761 46.7836C14.1085 46.8886 14.3892 47.061 14.6182 47.2784C14.8472 47.5033 15.0245 47.7807 15.1427 48.1181C15.2682 48.4555 15.3273 48.8604 15.3273 49.3177C15.3273 49.9775 15.2609 50.5323 15.1353 50.9821C15.0023 51.432 14.8176 51.7993 14.5665 52.0842C14.3153 52.3616 14.0125 52.5641 13.6579 52.6915C13.3034 52.819 12.8971 52.879 12.4465 52.879C12.0107 52.879 11.6413 52.834 11.3385 52.7515C11.0356 52.669 10.7771 52.5791 10.5629 52.4891V51.2295ZM12.6607 49.2577C12.7567 49.2577 12.8454 49.2502 12.934 49.2277C13.0153 49.2052 13.0965 49.1828 13.163 49.1603V48.568C13.163 48.3655 13.1187 48.2231 13.03 48.1331C12.9414 48.0432 12.8158 47.9982 12.6385 47.9982C12.4613 47.9982 12.3357 48.0432 12.2471 48.1406C12.1584 48.2381 12.1141 48.403 12.1141 48.6504C12.1141 49.0553 12.2988 49.2577 12.6607 49.2577Z" fill="white"/>
<path d="M15.9479 46.7163H20.018V48.2233H17.4769L17.4105 49.033C17.5434 48.958 17.7059 48.8906 17.9054 48.8456C18.1048 48.8006 18.2821 48.7706 18.452 48.7706C18.7474 48.7706 19.0134 48.8156 19.2497 48.913C19.4861 49.0105 19.6782 49.138 19.8407 49.3029C19.9958 49.4678 20.1214 49.6703 20.2026 49.9102C20.2839 50.1426 20.3282 50.405 20.3282 50.6899C20.3282 51.4097 20.1214 51.9645 19.7003 52.3618C19.2793 52.7592 18.6884 52.9541 17.9275 52.9541C17.6468 52.9541 17.3957 52.9391 17.1667 52.9016C16.9377 52.8717 16.7309 52.8267 16.5536 52.7667C16.3689 52.7142 16.2064 52.6542 16.0661 52.5868C15.9257 52.5193 15.8001 52.4518 15.6967 52.3918V50.8324H17.4695C17.4695 51.0123 17.4991 51.1548 17.5508 51.2522C17.6025 51.3497 17.7133 51.4022 17.8832 51.4022C18.0309 51.4022 18.1344 51.3497 18.1934 51.2372C18.2525 51.1323 18.2821 50.9523 18.2821 50.7049C18.2821 50.4425 18.2525 50.2551 18.1934 50.1351C18.1344 50.0152 18.0236 49.9552 17.8684 49.9552C17.7133 49.9552 17.6099 50.0002 17.5582 50.0976C17.4991 50.1951 17.4769 50.3001 17.4769 50.4125H16.0217L15.6746 49.8802L15.9479 46.7163Z" fill="white"/>
<path d="M21.4954 46.7163H23.3125L22.3744 49.7827H23.0614V48.7181H25.041V49.7827H25.6541V50.9598H25.041V51.3872H25.5064V52.7517H22.0863V51.3872H23.0614V50.9673H20.572V49.6403L21.4954 46.7163Z" fill="white"/>
<path d="M27.8703 18.1586L24.8417 20.8126L23.8593 19.658L24.2729 19.2907L21.5768 16.1193L21.1631 16.4866L20.1807 15.332L23.2979 12.603C23.5786 12.3556 23.8593 12.1607 24.14 12.0182C24.4207 11.8758 24.694 11.8008 24.9599 11.7933C25.2258 11.7858 25.4991 11.8533 25.7651 11.9882C26.031 12.1232 26.2895 12.3406 26.548 12.648C26.8066 12.9554 26.9839 13.2478 27.0725 13.5327C27.1611 13.8176 27.1907 14.095 27.139 14.3649C27.0947 14.6348 26.9839 14.8972 26.7992 15.1596C26.6219 15.422 26.3855 15.6694 26.1048 15.9168L25.344 16.5766L26.2083 17.5888L26.8731 17.004L27.8703 18.1586ZM24.7383 15.362C24.8713 15.2496 24.9377 15.1296 24.9451 14.9947C24.9525 14.8597 24.8934 14.7173 24.7531 14.5598L24.5388 14.3049C24.4059 14.1475 24.2729 14.0575 24.1474 14.05C24.0218 14.035 23.8888 14.0875 23.7559 14.2074L23.5195 14.4174L24.5019 15.572L24.7383 15.362Z" fill="white"/>
<path d="M27.0134 9.67925L30.4335 7.64746L31.1943 8.967L30.463 9.40185L32.5535 13.0156L33.2626 12.5882L32.8342 11.846L34.4076 10.9088L35.5968 12.9631L30.6182 15.9246L29.8573 14.605L30.3301 14.3201L28.2396 10.7064L27.7669 10.9913L27.0134 9.67925Z" fill="white"/>
<path d="M41.7058 7.83477C41.8757 8.30711 41.9496 8.73446 41.9348 9.10183C41.92 9.4767 41.824 9.80658 41.6615 10.099C41.4916 10.3914 41.2552 10.6463 40.9376 10.8637C40.6273 11.0811 40.258 11.2611 39.8443 11.4185C39.4159 11.576 39.0096 11.6734 38.6255 11.7109C38.2414 11.7484 37.8942 11.7109 37.5766 11.591C37.259 11.4785 36.9783 11.2836 36.7271 11.0062C36.476 10.7288 36.2691 10.3539 36.0992 9.88156L35.0651 6.94259L34.548 7.13002L34.0383 5.69052L37.3181 4.49844L37.8277 5.93794L37.4806 6.06539L38.6772 9.44671C38.7437 9.64164 38.8397 9.77659 38.9579 9.82907C39.0687 9.88905 39.2164 9.88155 39.379 9.82158C39.5488 9.7616 39.6523 9.67163 39.7114 9.55167C39.7631 9.43171 39.7557 9.27427 39.6818 9.07934L38.4852 5.69802L38.138 5.82548L37.6283 4.38598L40.679 3.27637L41.1887 4.71586L40.6716 4.9033L41.7058 7.83477Z" fill="white"/>
<path d="M43.1462 2.49658L47.5118 2.06174L48.8636 5.13566L49.5579 1.85931L53.7684 1.43945L53.9161 2.96142L53.3695 3.0139L53.7758 7.18244L54.3224 7.12996L54.4701 8.65193L50.8211 9.0193L50.6733 7.49733L51.22 7.44485L50.8654 3.78613L49.5505 9.14676L48.5681 9.24422L45.9828 4.24347L46.3373 7.92468L46.8839 7.8722L47.0317 9.39417L43.8332 9.70906L43.6855 8.18709L44.2321 8.13461L43.8332 3.96607L43.2866 4.01855L43.1462 2.49658Z" fill="white"/>
<path d="M56.4127 1.73926L60.6675 2.36904C61.4136 2.4815 61.975 2.72141 62.3591 3.08878C62.7432 3.46365 62.8909 3.94349 62.8097 4.53578C62.7653 4.82818 62.6767 5.07559 62.5364 5.27052C62.396 5.46545 62.2409 5.6154 62.0636 5.72786C61.8863 5.84032 61.7091 5.92279 61.5244 5.96778C61.3397 6.01276 61.1846 6.04275 61.0516 6.05025L61.0369 6.14022C61.1698 6.17021 61.3249 6.22269 61.517 6.29766C61.7017 6.37264 61.8789 6.4851 62.0341 6.62755C62.1892 6.77 62.3148 6.96493 62.4108 7.18985C62.5068 7.42227 62.529 7.70717 62.4773 8.05205C62.4255 8.39693 62.3148 8.67433 62.1449 8.89175C61.975 9.10918 61.7534 9.27412 61.5022 9.38658C61.2437 9.49904 60.9556 9.56652 60.638 9.58151C60.3203 9.59651 59.9879 9.58151 59.6407 9.52903L55.386 8.89925L55.6002 7.38478L56.1468 7.46725L56.7451 3.3212L56.1985 3.23873L56.4127 1.73926ZM59.2419 7.93959C59.4192 7.96958 59.5521 7.93959 59.6555 7.85712C59.7589 7.77464 59.8254 7.6322 59.855 7.42227L59.9141 7.01741C59.9436 6.80748 59.9214 6.65004 59.8476 6.54508C59.7737 6.44011 59.6481 6.37264 59.4709 6.35014L58.9169 6.26767L58.6879 7.84962L59.2419 7.93959ZM59.5521 5.29302C59.7294 5.31551 59.8623 5.29301 59.9658 5.21054C60.0692 5.12807 60.1357 4.98562 60.1652 4.77569L60.2095 4.44581C60.2391 4.23588 60.2169 4.07844 60.1431 3.97348C60.0692 3.86851 59.9436 3.80104 59.7663 3.77854L59.2788 3.70357L59.0646 5.21054L59.5521 5.29302Z" fill="white"/>
<path d="M65.3284 3.38135L68.8298 4.49846L68.3792 5.95294L67.8547 5.788L66.6137 9.7841L67.1382 9.94905L66.6876 11.4035L63.1863 10.2864L63.6369 8.83194L64.1613 8.99688L65.4023 5.00078L64.8778 4.83584L65.3284 3.38135Z" fill="white"/>
<path d="M75.6257 7.6623L78.4696 9.17677L77.7679 10.5263L77.2803 10.2639L74.6654 15.3246L72.3829 14.11L71.9249 9.12429L70.6987 11.4935L71.1863 11.7559L70.4845 13.1054L67.6406 11.5909L68.3424 10.2414L68.8299 10.5038L70.7504 6.7926L70.2629 6.53019L70.9647 5.18066L73.9785 6.7851L74.3995 11.2385L75.4189 9.27423L74.9314 9.01182L75.6257 7.6623Z" fill="white"/>
<path d="M80.9885 15.7371L83.4705 17.8589L82.5914 18.916L82.2369 18.6161L81.055 20.0406C80.8999 20.0031 80.7374 19.9506 80.5453 19.8832C80.3606 19.8157 80.1538 19.7257 79.9322 19.6058C79.7106 19.4933 79.4742 19.3508 79.2231 19.1784C78.9719 19.0135 78.706 18.8035 78.4253 18.5636C78.0043 18.2037 77.6718 17.8289 77.4207 17.439C77.1695 17.0492 77.0218 16.6368 76.9775 16.2094C76.9332 15.7821 76.9923 15.3323 77.1695 14.8599C77.3468 14.3876 77.6497 13.8928 78.0855 13.3679C78.5139 12.8506 78.9424 12.4608 79.3708 12.2058C79.7992 11.9509 80.2277 11.8085 80.6487 11.7785C81.0697 11.7485 81.4982 11.831 81.9192 12.0109C82.3403 12.1909 82.7613 12.4608 83.1824 12.8206C83.4704 13.068 83.7142 13.3005 83.921 13.5254C84.1279 13.7503 84.3051 13.9677 84.4529 14.1702C84.6006 14.3726 84.7262 14.56 84.8222 14.74C84.9182 14.9199 84.9995 15.0773 85.066 15.2198L83.6551 16.9217L81.9045 15.4222L82.1852 15.0848C82.3551 14.8824 82.4363 14.7025 82.4215 14.545C82.4141 14.3876 82.3181 14.2376 82.1408 14.0802C81.9636 13.9302 81.801 13.8628 81.6459 13.8778C81.4908 13.8928 81.3283 14.0052 81.1658 14.2076L79.4373 16.2844C79.2674 16.4868 79.1861 16.6668 79.2009 16.8242C79.2083 16.9817 79.3043 17.1316 79.4816 17.2891C79.6589 17.439 79.8214 17.5065 79.9765 17.4915C80.1316 17.4765 80.2868 17.364 80.4567 17.1616L80.501 17.1091L80.1242 16.7867L80.9885 15.7371Z" fill="white"/>
<path d="M31.5193 92.84L32.6125 87.082L32.2727 86.932L32.8784 85.53L36.2173 87.0145L35.6116 88.4165L35.0649 88.1766L34.0973 91.5579L34.1785 91.5954L37.1258 87.4269L39.5487 88.499L38.4702 93.4997L38.5515 93.5372L40.3391 90.5233L39.7925 90.2834L40.3982 88.8814L43.3159 90.1784L42.7102 91.5804L42.3704 91.4305L39.0316 96.1838L36.0991 94.8793L36.8525 91.0256L36.7713 90.9881L34.4518 94.1445L31.5193 92.84Z" fill="white"/>
<path d="M50.1265 94.6767C50.0231 95.3515 49.8532 95.9138 49.6168 96.3561C49.3804 96.7985 49.0923 97.1434 48.7452 97.3908C48.398 97.6382 48.0065 97.7956 47.5559 97.8631C47.1053 97.9306 46.6178 97.9231 46.0933 97.8406C45.5689 97.7581 45.1035 97.6157 44.6898 97.4133C44.2836 97.2108 43.9512 96.9409 43.7 96.5961C43.4489 96.2512 43.2716 95.8388 43.1829 95.344C43.0943 94.8492 43.1017 94.2644 43.2051 93.5896C43.3085 92.9223 43.4784 92.3675 43.7148 91.9177C43.9512 91.4753 44.2393 91.123 44.5864 90.8756C44.9336 90.6281 45.3251 90.4707 45.7757 90.4032C46.2263 90.3357 46.7138 90.3432 47.2383 90.4257C47.7627 90.5082 48.2281 90.6506 48.6418 90.8531C49.048 91.0555 49.3804 91.3254 49.6316 91.6703C49.8827 92.0152 50.06 92.435 50.1487 92.9298C50.2373 93.4247 50.2299 94.002 50.1265 94.6767ZM46.3445 96.1912C46.5513 96.2212 46.7138 96.1912 46.832 96.1012C46.9502 96.0113 47.0314 95.8463 47.0684 95.6064L47.4968 92.8249C47.5337 92.585 47.5116 92.405 47.4229 92.2776C47.3343 92.1576 47.194 92.0751 46.9871 92.0451C46.7803 92.0152 46.6178 92.0451 46.4996 92.1351C46.3814 92.2251 46.3002 92.39 46.2632 92.6299L45.8348 95.4115C45.7979 95.6514 45.82 95.8313 45.9087 95.9588C45.9973 96.0862 46.1377 96.1612 46.3445 96.1912Z" fill="white"/>
<path d="M54.7506 96.6862L55.3563 96.6562L55.4302 98.1782L51.7073 98.3581L51.6334 96.8361L52.18 96.8061L51.9806 92.6226L51.434 92.6526L51.3601 91.1306L55.6592 90.9207C56.0285 90.9057 56.3683 90.9207 56.6786 90.9807C56.9814 91.0407 57.2474 91.1456 57.4616 91.3031C57.6758 91.4605 57.8457 91.6629 57.9713 91.9253C58.0968 92.1877 58.1707 92.5101 58.1855 92.8925C58.2076 93.3049 58.1412 93.6647 57.9934 93.9721C57.8457 94.287 57.6167 94.5119 57.3138 94.6469L57.3286 94.7369C57.9195 94.8043 58.2298 95.1492 58.2593 95.794L58.2963 96.5137L58.7247 96.4912L58.7986 98.0132L55.8956 98.1557L55.7922 95.9739C55.7848 95.7865 55.7552 95.6365 55.7109 95.5241C55.6666 95.4116 55.6001 95.3291 55.5041 95.2767C55.4155 95.2242 55.2972 95.1867 55.1643 95.1717C55.0313 95.1567 54.8688 95.1567 54.6768 95.1642L54.7506 96.6862ZM55.12 94.0021C55.2972 93.9946 55.4302 93.9421 55.5115 93.8447C55.5927 93.7472 55.6296 93.5898 55.6223 93.3798L55.6075 93.0424C55.6001 92.8325 55.5484 92.6826 55.4524 92.5926C55.3564 92.5026 55.2234 92.4652 55.0461 92.4727L54.5512 92.4951L54.6251 94.0171L55.12 94.0021Z" fill="white"/>
<path d="M66.0672 90.3959L65.1438 92.5851L67.249 94.407L67.6036 94.3095L67.9877 95.7865L65.3432 96.4913L63.3045 94.3995L63.9472 96.8661L60.9333 97.6759L60.5492 96.1989L61.0811 96.0564L60.0322 92.0078L59.5003 92.1503L59.1162 90.6733L62.13 89.8636L62.7579 92.2853L63.7551 89.4288L66.045 88.814L66.4291 90.2909L66.0672 90.3959Z" fill="white"/>
<path d="M71.5555 92.3151C71.7402 92.2251 71.851 92.1352 71.9027 92.0377C71.9544 91.9402 71.9544 91.8428 71.8953 91.7303C71.8583 91.6553 71.7919 91.6029 71.7032 91.5729C71.6146 91.5429 71.4521 91.5429 71.2231 91.5579C70.743 91.6029 70.3145 91.6329 69.9378 91.6404C69.5684 91.6478 69.2361 91.6179 68.9554 91.5429C68.6747 91.4679 68.4235 91.3405 68.2167 91.1605C68.0025 90.9806 67.8252 90.7257 67.6627 90.3958C67.5149 90.0809 67.4263 89.781 67.4041 89.4811C67.382 89.1887 67.4337 88.8963 67.5666 88.6114C67.6996 88.3265 67.9212 88.0491 68.2388 87.7792C68.5565 87.5093 68.9775 87.2469 69.502 86.9845C69.9821 86.7446 70.4549 86.5721 70.9276 86.4597C71.4004 86.3472 71.814 86.3022 72.1686 86.3247L72.8851 87.8242L71.1566 88.6789C71.0753 88.5139 70.9793 88.4315 70.8685 88.4165C70.7503 88.4015 70.6322 88.424 70.5066 88.4915C70.3219 88.5814 70.2037 88.6714 70.152 88.7539C70.0929 88.8438 70.0929 88.9413 70.152 89.0613C70.1963 89.1587 70.2702 89.2037 70.381 89.2037C70.4844 89.2037 70.6395 89.1962 70.839 89.1662C71.2083 89.1137 71.5629 89.0763 71.9027 89.0538C72.2425 89.0313 72.5601 89.0538 72.8556 89.1212C73.151 89.1887 73.4243 89.3162 73.6607 89.4961C73.9045 89.6835 74.1113 89.9534 74.2812 90.3058C74.6284 91.0331 74.6579 91.6853 74.3698 92.2701C74.0818 92.8549 73.4908 93.3647 72.597 93.8071C72.0947 94.0545 71.585 94.2569 71.0754 94.3994C70.5657 94.5418 70.1372 94.6168 69.7974 94.6393L68.9997 92.9824L70.8168 92.0827C70.8981 92.2476 70.9867 92.3601 71.0975 92.4051C71.1862 92.4426 71.3413 92.4201 71.5555 92.3151Z" fill="white"/>
</svg>
