<svg width="100" height="100" viewBox="0 0 100 100" fill="none" xmlns="http://www.w3.org/2000/svg">
<path d="M8.61458 50.1772L50.0257 8.76342L91.4367 50.1772H96.1855L50.0257 4.0144L3.87231 50.1772H8.61458Z" fill="#E83A15"/>
<path d="M27.3906 76.8606C27.7837 77.8014 27.3004 78.5102 26.3725 78.9033L25.9343 79.0837L26.4949 80.4305L25.5413 80.83L23.853 76.7962L25.1547 76.2485C26.1985 75.8168 27.0169 75.9779 27.3906 76.8606ZM26.4047 77.273C26.2243 76.8413 25.9021 76.7382 25.4317 76.938L25.0967 77.0797L25.6508 78.4007L26.0052 78.2525C26.4305 78.0721 26.6174 77.7821 26.4047 77.273Z" fill="white"/>
<path d="M29.7037 78.3361L31.3211 77.8013L31.4757 78.6132L28.9755 79.438L27.603 75.2883L28.5825 74.9661L29.7037 78.3361Z" fill="white"/>
<path d="M34.865 76.2226C35.0841 77.0796 34.7039 77.8722 33.5956 78.1557C32.4872 78.4392 31.7849 77.9624 31.5593 77.0667L30.8376 74.2379L31.8429 73.9802L32.5581 76.7703C32.6999 77.3116 32.9576 77.5242 33.4151 77.4147C33.8726 77.2987 34.0015 76.983 33.8662 76.4417L33.1509 73.6515L34.1562 73.3938L34.865 76.2226Z" fill="white"/>
<path d="M40.1485 76.7251L39.1498 76.9055L38.776 75.2366C38.6407 74.6373 38.5183 74.0188 38.4538 73.4775L38.3185 76.5834L37.3584 76.7509L36.1212 73.8899C36.2759 74.5149 36.3725 75.0498 36.4563 75.6555L36.6754 77.3373L35.683 77.5112L35.2449 73.1489L36.5336 72.9233L37.6999 75.7263L37.7837 72.6978L39.0789 72.4658L40.1485 76.7251Z" fill="white"/>
<path d="M43.879 75.0435C43.9886 76.0358 43.2153 76.3967 42.1263 76.5191L40.7281 76.6737L40.2512 72.3242L41.482 72.1889C42.6483 72.06 43.3958 72.2791 43.486 73.091C43.544 73.6452 43.1831 73.9738 42.79 74.1156C43.2862 74.1542 43.8081 74.3411 43.879 75.0435ZM41.3595 72.9364L41.4691 73.948L41.8493 73.9029C42.2745 73.8578 42.4807 73.671 42.4421 73.3037C42.4034 72.9428 42.1521 72.8462 41.656 72.8977L41.3595 72.9364ZM42.8158 75.1015C42.7707 74.6633 42.4421 74.5344 41.9975 74.5795L41.5464 74.6311L41.6753 75.8103L42.049 75.7716C42.5323 75.7136 42.8674 75.5783 42.8158 75.1015Z" fill="white"/>
<path d="M45.5929 76.2162L44.5619 76.287L44.259 71.9247L45.29 71.8538L45.5929 76.2162Z" fill="white"/>
<path d="M49.7295 76.0551L48.4149 76.0938L47.0618 72.743C47.1262 73.1361 47.2229 73.716 47.2422 74.5215L47.2873 76.1196L46.3658 76.1518L46.2434 71.7829L47.5322 71.7443L48.9176 75.1014C48.8531 74.747 48.75 74.18 48.7307 73.4776L48.6791 71.712L49.607 71.6863L49.7295 76.0551Z" fill="white"/>
<path d="M53.937 72.2146L53.3829 72.7623C53.1058 72.5175 52.8674 72.4015 52.5194 72.3886C51.9073 72.3693 51.4433 72.8139 51.4111 73.8964C51.3789 75.0434 51.6689 75.4429 52.2746 75.4623C52.4872 75.4687 52.687 75.4301 52.8738 75.3334L52.8996 74.3411L52.3326 74.3217L52.2552 73.5871L53.9242 73.6322L53.8662 75.7909C53.4087 76.068 52.8416 76.2226 52.2681 76.2033C50.9536 76.1646 50.3028 75.3463 50.3479 73.8513C50.3866 72.3693 51.3402 71.5896 52.5001 71.6218C53.1187 71.654 53.5891 71.8925 53.937 72.2146Z" fill="white"/>
<path d="M60.0775 76.7511L58.7436 76.5965L58.5825 73.2135L57.6289 76.4676L56.3272 76.3194L56.1082 71.8926L57.1391 72.0086L57.1649 75.6299L58.1766 72.131L59.2527 72.2534L59.4073 75.8877L60.3223 72.3759L61.3018 72.4854L60.0775 76.7511Z" fill="white"/>
<path d="M65.2192 75.4493C64.955 76.8605 64.0723 77.5693 62.8544 77.3437C61.643 77.1182 61.0759 76.1581 61.3401 74.7211C61.6043 73.3164 62.4871 72.6012 63.6985 72.8331C64.9164 73.0587 65.4834 74.0123 65.2192 75.4493ZM62.4098 74.9209C62.2036 76.0099 62.4355 76.4932 62.9961 76.5963C63.5761 76.7058 63.9498 76.3385 64.156 75.2431C64.3558 74.1541 64.1431 73.6773 63.5632 73.5742C62.9897 73.4711 62.6095 73.8319 62.4098 74.9209Z" fill="white"/>
<path d="M67.152 76.4741L66.7589 76.371L66.3401 77.9883L65.3413 77.7306L66.4367 73.4971L67.8221 73.8579C68.9691 74.1543 69.4588 74.7149 69.2269 75.5977C69.0851 76.1519 68.7371 76.4161 68.1186 76.5321L68.7243 78.6134L67.5966 78.3234L67.152 76.4741ZM66.9394 75.6815L67.3582 75.791C67.7964 75.907 68.0799 75.7781 68.1959 75.3271C68.299 74.9211 68.1121 74.6827 67.6159 74.5538L67.2551 74.4636L66.9394 75.6815Z" fill="white"/>
<path d="M70.0065 79.0513L69.0271 78.7162L70.4447 74.5793L71.4242 74.9144L70.0065 79.0513ZM71.8494 77.1311L72.4938 79.9019L71.3597 79.5152L70.7991 76.854L72.7709 75.3784L73.8019 75.7328L71.8494 77.1311Z" fill="white"/>
<path d="M76.9655 77.621L76.3018 77.9368C76.1278 77.5888 75.8959 77.3568 75.5737 77.2151C75.245 77.0669 74.9744 77.112 74.8649 77.3697C74.7489 77.621 74.8584 77.795 75.3933 78.2654C76.0376 78.8453 76.334 79.3479 76.0054 80.0825C75.6768 80.8236 74.8584 81.0813 73.8596 80.6367C73.1702 80.3274 72.7835 79.857 72.5967 79.393L73.3055 79.0837C73.4859 79.4639 73.7437 79.7475 74.1367 79.9214C74.5298 80.0954 74.852 80.0181 74.9873 79.7152C75.1162 79.4188 75.026 79.2191 74.5233 78.7809C73.7565 78.1043 73.589 77.5888 73.8532 76.996C74.1689 76.2936 74.9744 76.1132 75.8057 76.4869C76.4242 76.764 76.7658 77.1249 76.9655 77.621Z" fill="white"/>
<path d="M71.9782 35.3825H51.7011V28.4426C51.7011 28.4426 47.2424 28.4426 47.0426 28.4426C46.5207 28.4426 46.0955 28.8679 46.0955 29.3898V30.5239H46.1985V30.6786H47.8609V30.5239H47.9898V30.3435H48.5504V35.3825H28.0413C26.9009 35.3825 25.9537 36.3104 26.0826 37.4445C26.9266 44.8934 32.5903 46.0662 40.5156 52.3037C41.0826 52.7547 41.5851 53.2767 42.0362 53.8437H58.0413C58.473 53.2767 58.9563 52.7547 59.5168 52.3037C67.3261 45.9888 73.0864 44.8805 73.9434 37.4445C74.0658 36.3168 73.1251 35.3825 71.9782 35.3825ZM47.3326 29.712C47.1071 29.712 46.9266 29.6089 46.9266 29.4801C46.9266 29.4607 46.9395 29.4414 46.946 29.4221C46.6109 29.4027 46.3467 29.2223 46.3467 28.9839C46.3467 28.739 46.6367 28.5393 46.9911 28.5393C47.3455 28.5393 47.6354 28.739 47.6354 28.9839C47.6354 29.0934 47.571 29.1836 47.4808 29.261C47.629 29.2932 47.7321 29.377 47.7321 29.4736C47.7385 29.6089 47.5581 29.712 47.3326 29.712ZM60.6831 36.3426H67.1006C67.4228 36.3426 67.6805 36.6004 67.6805 36.9225C67.6805 37.2447 67.4228 37.5025 67.1006 37.5025H60.6831C60.3609 37.5025 60.1032 37.2447 60.1032 36.9225C60.1032 36.6004 60.3609 36.3426 60.6831 36.3426ZM28.1509 37.5025C27.8287 37.5025 27.571 37.2447 27.571 36.9225C27.571 36.6004 27.8287 36.3426 28.1509 36.3426H58.415C58.7372 36.3426 58.9949 36.6004 58.9949 36.9225C58.9949 37.2447 58.7372 37.5025 58.415 37.5025H28.1509ZM41.6947 46.9361C41.2114 47.9606 39.0207 47.9477 36.8042 46.9039C34.5877 45.86 33.1831 44.1782 33.6728 43.1536C34.156 42.1291 36.3467 42.142 38.5632 43.1858C40.7797 44.2297 42.1779 45.9115 41.6947 46.9361ZM44.4782 44.7581C44.2527 45.2607 43.1895 45.28 42.1006 44.7968C41.0117 44.3135 40.3094 43.5145 40.5284 43.0054C40.754 42.5028 41.8171 42.4835 42.906 42.9668C43.9949 43.45 44.6973 44.2555 44.4782 44.7581ZM49.7359 40.1251C41.321 40.1251 29.6393 39.9318 29.6393 38.8686H68.9756C68.9756 40.0478 58.1509 40.1251 49.7359 40.1251Z" fill="#E83A15"/>
<path d="M48.4795 27.9786L51.8238 26.8703L51.4951 25.8844C51.4758 25.8264 51.45 25.7813 51.4242 25.7297L56.0508 24.1639C56.1088 24.1446 56.141 24.0866 56.1217 24.0286L55.9993 23.6549C55.98 23.5969 55.922 23.5647 55.864 23.584L50.9925 25.2271C50.6703 25.0081 50.2644 24.9372 49.8649 25.066L48.9563 25.3689C48.2797 25.5944 47.9189 26.3226 48.138 26.9927L48.4795 27.9786ZM48.9756 25.5944L50.0582 25.2336C50.2322 25.1756 50.419 25.2722 50.4706 25.4462C50.5286 25.6202 50.4319 25.8071 50.2579 25.8586L49.1754 26.2195C49.0014 26.2775 48.8145 26.1808 48.763 26.0068C48.7114 25.8328 48.8081 25.646 48.9756 25.5944Z" fill="#E83A15"/>
<path d="M21.1665 64.3857H16.5012V62.633H17.1456V57.8196H16.5012V56.0669H21.3018C21.7335 56.0669 22.133 56.112 22.481 56.2022C22.8354 56.2924 23.1318 56.4342 23.3767 56.6339C23.6215 56.8337 23.8084 57.0915 23.9373 57.4136C24.0661 57.7358 24.137 58.1225 24.137 58.58C24.137 59.0439 24.0726 59.437 23.9373 59.7527C23.8019 60.0684 23.6151 60.3262 23.3767 60.526C23.1318 60.7257 22.8354 60.8675 22.481 60.9577C22.1266 61.0479 21.7335 61.093 21.3018 61.093H20.1355V62.633H21.16V64.3857H21.1665ZM20.5028 59.5723C20.7025 59.5723 20.8572 59.5207 20.9603 59.4112C21.0698 59.3016 21.1214 59.1277 21.1214 58.8892V58.5026C21.1214 58.2578 21.0698 58.0838 20.9667 57.9807C20.8636 57.8711 20.709 57.8196 20.5028 57.8196H20.1419V59.5723H20.5028Z" fill="#E83A15"/>
<path d="M24.5488 56.0603H29.169V57.813H28.1831V62.6264H29.1432V61.6406H31.2696V64.3791H24.5488V62.6264H25.1932V57.813H24.5488V56.0603Z" fill="#E83A15"/>
<path d="M39.2659 61.3957C39.2659 61.9756 39.1886 62.4589 39.0275 62.8584C38.8664 63.2515 38.6344 63.5737 38.338 63.825C38.0416 64.0763 37.6743 64.2567 37.2555 64.3662C36.8302 64.4758 36.3598 64.5338 35.8378 64.5338C35.303 64.5338 34.8197 64.4758 34.388 64.3662C33.9563 64.2567 33.589 64.0763 33.2861 63.825C32.9833 63.5737 32.7449 63.2515 32.5773 62.8584C32.4098 62.4653 32.326 61.9756 32.326 61.3957V57.813H31.6816V56.0603H35.7476V57.813H35.3223V61.9434C35.3223 62.1883 35.3739 62.3623 35.477 62.4654C35.5801 62.5749 35.7347 62.6264 35.9409 62.6264C36.1471 62.6264 36.3018 62.5749 36.4049 62.4654C36.508 62.3558 36.5595 62.1818 36.5595 61.9434V57.813H36.1342V56.0603H39.9103V57.813H39.2659V61.3957Z" fill="#E83A15"/>
<path d="M40.2061 56.0603H45.3224L46.5402 59.7268L47.7194 56.0603H52.6489V57.813H52.0045V62.6264H52.6489V64.3791H48.3702V62.6264H49.0146V58.3994L46.8882 64.3791H45.7283L43.3119 58.38V62.6264H43.9563V64.3791H40.2125V62.6264H40.8569V57.813H40.2125V56.0603H40.2061Z" fill="#E83A15"/>
<path d="M53.0991 56.0603H58.1188C58.9951 56.0603 59.6846 56.2407 60.1937 56.5951C60.7027 56.9495 60.954 57.4779 60.954 58.1674C60.954 58.5089 60.8896 58.8053 60.7607 59.0437C60.6318 59.2886 60.4772 59.4884 60.2903 59.643C60.1034 59.7977 59.9101 59.9201 59.7104 60.0039C59.5042 60.0876 59.3302 60.1456 59.182 60.1778V60.2874C59.3366 60.3003 59.53 60.3389 59.7619 60.3905C59.9875 60.442 60.2065 60.5387 60.4127 60.6804C60.6189 60.8222 60.7929 61.0091 60.9411 61.2604C61.0893 61.5052 61.1602 61.8274 61.1602 62.2269C61.1602 62.6265 61.0764 62.9615 60.9153 63.2386C60.7543 63.5157 60.5287 63.7348 60.2516 63.9087C59.9746 64.0827 59.6524 64.2052 59.2851 64.276C58.9178 64.3534 58.5312 64.3856 58.1252 64.3856H53.1056V62.6329H53.7499V57.8194H53.1056V56.0603H53.0991ZM57.3133 59.5721C57.5195 59.5721 57.6742 59.5206 57.7773 59.411C57.8804 59.3015 57.9319 59.1275 57.9319 58.8891V58.5025C57.9319 58.2576 57.8804 58.0836 57.7773 57.9805C57.6742 57.871 57.5195 57.8194 57.3133 57.8194H56.7334V59.5721H57.3133ZM57.3842 62.6264C57.5904 62.6264 57.745 62.5749 57.8481 62.4654C57.9512 62.3558 58.0028 62.1818 58.0028 61.9434V61.473C58.0028 61.2282 57.9512 61.0542 57.8481 60.9511C57.745 60.8415 57.5904 60.79 57.3842 60.79H56.7334V62.6329H57.3842V62.6264Z" fill="#E83A15"/>
<path d="M61.5786 56.0603H65.8572V57.813H65.2129V62.6264H65.8572V64.3791H61.5786V62.6264H62.223V57.813H61.5786V56.0603Z" fill="#E83A15"/>
<path d="M72.3843 56.0604H76.1281V57.8131H75.4837V64.3792H72.4745L69.3428 59.5529V62.6201H69.9872V64.3728H66.2434V62.6201H66.8878V57.8066H66.2434V56.054H70.2127L73.0286 60.3519V57.8066H72.3843V56.0604Z" fill="#E83A15"/>
<path d="M80.7476 60.1134H84.5365V61.705H84.0017V63.8444C83.8406 63.9217 83.6473 64.0055 83.4282 64.0828C83.2091 64.1665 82.9578 64.2374 82.6807 64.3019C82.3972 64.3663 82.0815 64.4178 81.7335 64.463C81.3855 64.5081 80.9925 64.5274 80.5672 64.5274C79.9228 64.5274 79.3493 64.4501 78.8338 64.289C78.3183 64.1343 77.8802 63.883 77.5258 63.5415C77.1649 63.2 76.8878 62.7554 76.6945 62.2077C76.5012 61.6599 76.4045 60.9963 76.4045 60.2101C76.4045 59.4304 76.5012 58.7667 76.6945 58.219C76.8878 57.6713 77.1585 57.2267 77.5193 56.8787C77.8737 56.5372 78.3119 56.2859 78.8274 56.1312C79.3429 55.9766 79.9164 55.8928 80.5479 55.8928C80.9796 55.8928 81.3791 55.9122 81.7271 55.9573C82.0815 56.0024 82.3972 56.0539 82.6807 56.1248C82.9642 56.1892 83.2091 56.2666 83.4282 56.3503C83.6473 56.4341 83.8341 56.5114 84.0017 56.5888V59.1469H81.3275V58.6443C81.3275 58.335 81.2631 58.1224 81.1407 57.9935C81.0182 57.8646 80.8185 57.8002 80.5479 57.8002C80.2772 57.8002 80.0775 57.8646 79.955 57.9935C79.8326 58.1224 79.7682 58.3414 79.7682 58.6443V61.7695C79.7682 62.0788 79.8326 62.2914 79.955 62.4203C80.0775 62.5492 80.2772 62.6136 80.5479 62.6136C80.8185 62.6136 81.0182 62.5492 81.1407 62.4203C81.2631 62.2914 81.3275 62.0723 81.3275 61.7695V61.6922H80.7476V60.1134Z" fill="#E83A15"/>
<path d="M86.6623 76.7509L75.7603 84.9731L87.3647 73.5226C77.1263 68.7607 64.433 65.9448 50.6765 65.9448C36.527 65.9448 23.4987 68.9347 13.1185 73.9415L24.0979 85.6433L13.0541 77.0345C10.6958 77.9366 8.79508 78.7743 6.63013 79.8375L15.7796 83.7295L17.5386 90.8562C22.9252 89.0842 28.7242 87.731 34.8196 86.8547C34.5876 86.5454 34.3621 86.2296 34.143 85.9139L26.6752 85.7915C33.3827 83.5168 41.469 82.0541 50.6765 82.0541C59.8647 82.0541 67.9317 83.5104 74.6263 85.7786L66.1855 85.9203C65.8312 86.1845 65.509 86.4809 65.1997 86.7967C71.4562 87.673 77.4033 89.0455 82.9252 90.8627L84.6843 83.7359L93.8337 79.8439C91.759 78.8194 88.9175 77.6273 86.6623 76.7509Z" fill="#00045F"/>
<path d="M50.0258 96.3335L62.2616 84.0969C60.9149 83.9164 59.4716 83.7747 57.9575 83.6587L50.0322 91.5845L42.2101 83.7618C40.7088 83.8971 39.2912 84.0711 37.9768 84.2709L50.0258 96.3335Z" fill="#E83A15"/>
<path d="M30.374 80.0694L28.0092 74.1928L27.6097 74.2572L27.3455 72.6269L31.289 71.989L31.5532 73.6193L30.9088 73.7224L31.9978 77.3695L32.0945 77.3566L32.378 71.815L35.239 71.3575L37.1721 76.5383L37.2688 76.519L37.1528 72.7107L36.5084 72.8138L36.2442 71.1836L39.6916 70.6294L39.9558 72.2597L39.5563 72.3241L39.2534 78.6325L35.7867 79.1931L34.2209 75.2431L34.1242 75.256L33.8278 79.5024L30.374 80.0694Z" fill="white"/>
<path d="M48.4607 74.1865C48.4993 74.9211 48.4413 75.5525 48.2867 76.0745C48.132 76.5964 47.9001 77.0282 47.5843 77.3697C47.2686 77.7112 46.8755 77.9625 46.4116 78.1365C45.9412 78.3104 45.4192 78.4135 44.8329 78.4393C44.2529 78.4715 43.7181 78.4264 43.2348 78.304C42.7515 78.1816 42.3327 77.9689 41.9847 77.6661C41.6368 77.3632 41.3597 76.9573 41.1471 76.4547C40.9409 75.952 40.812 75.3334 40.7733 74.5924C40.7347 73.8643 40.7927 73.2328 40.9473 72.7109C41.1019 72.1825 41.3339 71.7507 41.6497 71.4157C41.9654 71.0741 42.3585 70.8228 42.8224 70.6489C43.2928 70.4749 43.8147 70.3718 44.4011 70.346C44.9811 70.3138 45.5159 70.3589 45.9992 70.4813C46.4824 70.6038 46.9013 70.8164 47.2493 71.1193C47.5972 71.4221 47.8743 71.8281 48.0869 72.3371C48.2931 72.8397 48.422 73.4583 48.4607 74.1865ZM44.7362 76.6544C44.9617 76.6415 45.1293 76.5771 45.2388 76.4482C45.3484 76.3258 45.3935 76.1325 45.3806 75.8683L45.2195 72.8333C45.2066 72.5691 45.1357 72.3887 45.0197 72.2727C44.8973 72.1631 44.7233 72.1116 44.4978 72.1245C44.2723 72.1374 44.1047 72.2018 43.9952 72.3307C43.8856 72.4531 43.8405 72.6464 43.8534 72.9106L44.0145 75.9456C44.0274 76.2098 44.0983 76.3902 44.2143 76.5062C44.3302 76.6222 44.5107 76.6608 44.7362 76.6544Z" fill="white"/>
<path d="M52.3844 76.5319L53.0481 76.5513L53.003 78.2009L48.9177 78.0913L48.9628 76.4417L49.5685 76.4546L49.691 71.9247L49.0853 71.9118L49.1304 70.2622L53.8472 70.3911C54.2531 70.404 54.6269 70.4491 54.9555 70.5393C55.2841 70.6295 55.5612 70.7648 55.7867 70.9517C56.0123 71.1386 56.1798 71.3705 56.2958 71.667C56.4118 71.9569 56.4633 72.3113 56.4569 72.7302C56.444 73.1748 56.3473 73.555 56.1605 73.8771C55.9736 74.1993 55.7094 74.4248 55.3614 74.5537L55.3679 74.6568C56.0123 74.7728 56.3216 75.1788 56.3022 75.8682L56.2829 76.6415L56.7533 76.6544L56.7082 78.304L53.5185 78.2202L53.583 75.8554C53.5894 75.6556 53.5701 75.4881 53.5314 75.3656C53.4928 75.2432 53.4219 75.1465 53.3252 75.0757C53.2286 75.0112 53.1061 74.9597 52.9644 74.9339C52.8162 74.9081 52.6422 74.8888 52.4296 74.8824L52.3844 76.5319ZM53.003 73.6709C53.1964 73.6774 53.3446 73.6323 53.4477 73.5292C53.5443 73.4325 53.6023 73.265 53.6087 73.0395L53.6216 72.6786C53.6281 72.4531 53.583 72.2855 53.4863 72.1824C53.3897 72.0793 53.2479 72.0278 53.0546 72.0213L52.5133 72.0085L52.4682 73.6581L53.003 73.6709Z" fill="white"/>
<path d="M65.0585 72.9942L63.2672 74.8436L64.717 77.5177L65.1165 77.5628L64.9361 79.2059L61.9527 78.8773L60.6768 75.9583L60.374 78.6969L56.9717 78.3232L57.1521 76.68L57.7514 76.7445L58.2475 72.2403L57.6483 72.1759L57.8287 70.5327L61.231 70.9064L60.9346 73.5999L63.061 71.1126L65.6449 71.3962L65.4645 73.0393L65.0585 72.9942Z" fill="white"/>
<path d="M68.3444 78.0461C68.5634 78.0847 68.7245 78.0847 68.8276 78.0396C68.9307 77.9945 68.9952 77.9043 69.021 77.769C69.0403 77.6788 69.0145 77.5886 68.9565 77.5048C68.8921 77.421 68.7568 77.3115 68.5441 77.1762C68.0931 76.8991 67.7 76.6413 67.3649 76.4029C67.0298 76.1645 66.7656 75.9196 66.5659 75.6683C66.3661 75.417 66.2308 75.1464 66.1664 74.85C66.1019 74.5536 66.1084 74.2121 66.1793 73.8254C66.2502 73.4582 66.3726 73.136 66.5466 72.8653C66.7205 72.5947 66.9525 72.382 67.2554 72.2209C67.5582 72.0663 67.932 71.9697 68.383 71.9503C68.8341 71.9245 69.3753 71.9761 70.0133 72.0985C70.5868 72.2081 71.1152 72.3692 71.5984 72.5818C72.0817 72.7944 72.4748 73.0329 72.7776 73.2842L72.4361 75.0562L70.3612 74.6567C70.3999 74.4634 70.3677 74.328 70.2775 74.2378C70.1873 74.1476 70.0648 74.0896 69.9102 74.0574C69.6911 74.0123 69.53 74.0123 69.4269 74.051C69.3174 74.0896 69.2529 74.1798 69.2271 74.3152C69.2078 74.4247 69.24 74.5213 69.3302 74.5922C69.4205 74.6631 69.5622 74.7533 69.7555 74.8564C70.1164 75.0562 70.4515 75.2559 70.7608 75.4621C71.0765 75.6683 71.3407 75.8939 71.5533 76.1516C71.7724 76.4029 71.9271 76.6929 72.0173 77.0086C72.1075 77.3244 72.1139 77.6981 72.0302 78.1169C71.8626 78.974 71.4631 79.5603 70.8316 79.8696C70.2001 80.1789 69.3431 80.2369 68.2799 80.0307C67.6742 79.9147 67.1007 79.7472 66.5595 79.5346C66.0182 79.3219 65.5929 79.1093 65.29 78.8966L65.6702 76.9378L67.8417 77.3566C67.8031 77.5563 67.816 77.711 67.874 77.8205C67.9384 77.9172 68.0931 78.001 68.3444 78.0461Z" fill="white"/>
<path d="M67.7319 81.3196L50 99.0527L33.5631 82.6148C33.3311 82.705 33.0927 82.7823 32.8479 82.8468L50 99.9999L68.4471 81.558C68.2087 81.4807 67.9703 81.3969 67.7319 81.3196Z" fill="#E83A15"/>
<path d="M50 0L0 50.0032L23.4343 73.439C23.5954 73.2779 23.75 73.1233 23.9111 72.9686L0.947164 50.0032L50 0.947217L99.0528 50.0032L77.9832 71.0742C78.1959 71.1773 78.4085 71.2803 78.6211 71.3899L100 50.0097L50 0Z" fill="#E83A15"/>
</svg>
