<svg width="124" height="100" viewBox="0 0 124 100" fill="none" xmlns="http://www.w3.org/2000/svg">
<path d="M7.40491 39.547C7.75142 39.8943 8.3164 39.8943 8.67045 39.547L9.68739 38.5277C10.0866 38.656 10.5085 38.656 10.9002 38.5277L11.9172 39.547C12.2637 39.8943 12.8286 39.8943 13.1827 39.547C13.5292 39.1997 13.5292 38.6334 13.1827 38.2785L12.1657 37.2593C12.2938 36.8591 12.2938 36.4363 12.1657 36.0437L13.1827 35.0245C13.5292 34.6772 13.5292 34.1109 13.1827 33.7561C12.8362 33.4088 12.2712 33.4088 11.9172 33.7561L10.9002 34.7753C10.501 34.647 10.0791 34.647 9.68739 34.7753L8.67045 33.7561C8.32393 33.4088 7.75896 33.4088 7.40491 33.7561C7.05839 34.1034 7.05839 34.6696 7.40491 35.0245L8.42186 36.0437C8.2938 36.4439 8.2938 36.8667 8.42186 37.2593L7.40491 38.2785C7.05839 38.6334 7.05839 39.1997 7.40491 39.547ZM9.40114 35.7493C9.89831 35.251 10.7043 35.251 11.2015 35.7493C11.6987 36.2476 11.6987 37.0554 11.2015 37.5537C10.7043 38.052 9.89831 38.052 9.40114 37.5537C8.90396 37.0554 8.90396 36.2476 9.40114 35.7493Z" fill="#0052DA"/>
<path d="M88.0224 97.7654C86.0864 98.8299 85.8906 95.0247 87.9847 91.7102C92.3689 90.623 96.4141 88.6902 99.9546 86.1006H24.0601C27.8567 88.879 32.2333 90.8948 36.9866 91.9292C38.9377 95.1908 38.7117 98.8073 36.8134 97.7654C33.1297 95.7419 32.0525 99.9926 37.4913 99.9926C41.0243 99.9926 42.5459 96.7536 43.013 92.6917C43.4348 92.7068 43.8567 92.7219 44.2861 92.7219H79.706C80.4141 92.7219 81.1147 92.6917 81.8152 92.654C82.2823 96.7386 83.7964 100 87.3444 100C92.7832 99.9926 91.706 95.7419 88.0224 97.7654Z" fill="#0052DA"/>
<path d="M124 46.9234V44.5074C124 43.02 122.795 41.812 121.311 41.812H19.1488V7.05171C19.1488 4.12231 21.5217 1.74405 24.4444 1.74405H36.467C39.3898 1.74405 41.7627 4.12231 41.7627 7.05171V7.93507H40.5424C40.2034 7.93507 39.9322 8.20686 39.9322 8.54661C39.9322 8.81087 40.0979 9.02982 40.3315 9.11287C37.8606 9.64892 36.0301 11.023 35.7891 12.684H35.1789C34.9981 12.684 34.8475 12.835 34.8475 13.0162C34.8475 13.1974 34.9981 13.3484 35.1789 13.3484H50.2976C50.4783 13.3484 50.629 13.1974 50.629 13.0162C50.629 12.835 50.4783 12.684 50.2976 12.684H49.4313C49.1902 11.023 47.3748 9.65647 44.9115 9.12042C45.1601 9.04492 45.3409 8.81842 45.3409 8.54661C45.3409 8.20686 45.0697 7.93507 44.7307 7.93507H43.5104V7.05171C43.5104 3.16345 40.354 0 36.4746 0H24.452C20.5725 0 17.4162 3.16345 17.4162 7.05171V41.812H2.68927C1.20528 41.812 0 43.02 0 44.5074V46.9234C0 48.4107 1.20528 49.6187 2.68927 49.6187H121.318C122.795 49.6187 124 48.4107 124 46.9234ZM44.1356 10.7663C44.1356 11.1665 43.8117 11.4836 43.42 11.4836H39.4049C39.0056 11.4836 38.6893 11.1589 38.6893 10.7663C38.6893 10.3737 39.0132 10.0491 39.4049 10.0491H43.42C43.8117 10.0491 44.1356 10.3737 44.1356 10.7663ZM58.9077 45.8588H2.742C2.01883 45.8588 1.43127 45.2699 1.43127 44.5451C1.43127 43.8203 2.01883 43.2314 2.742 43.2314H58.9077C59.6309 43.2314 60.2185 43.8203 60.2185 44.5451C60.2185 45.2699 59.6309 45.8588 58.9077 45.8588ZM82.9077 45.8588H64.3013C63.5782 45.8588 62.9906 45.2699 62.9906 44.5451C62.9906 43.8203 63.5782 43.2314 64.3013 43.2314H82.9077C83.6309 43.2314 84.2185 43.8203 84.2185 44.5451C84.2185 45.2699 83.6309 45.8588 82.9077 45.8588Z" fill="#0052DA"/>
<path d="M28.9039 33.7561C28.5574 33.4088 27.9924 33.4088 27.6383 33.7561L26.6214 34.7753C26.2221 34.647 25.8003 34.647 25.4086 34.7753L24.3916 33.7561C24.0451 33.4088 23.4801 33.4088 23.1261 33.7561C22.7796 34.1034 22.7796 34.6696 23.1261 35.0245L24.1431 36.0437C24.015 36.4439 24.015 36.8667 24.1431 37.2593L23.1261 38.2785C22.7796 38.6258 22.7796 39.1921 23.1261 39.547C23.4726 39.8943 24.0376 39.8943 24.3916 39.547L25.4086 38.5277C25.8078 38.656 26.2297 38.656 26.6214 38.5277L27.6383 39.547C27.9849 39.8943 28.5498 39.8943 28.9039 39.547C29.2504 39.1997 29.2504 38.6334 28.9039 38.2785L27.8869 37.2593C28.015 36.8591 28.015 36.4363 27.8869 36.0437L28.9039 35.0245C29.2504 34.6772 29.2504 34.1034 28.9039 33.7561ZM26.9152 37.5537C26.418 38.052 25.612 38.052 25.1148 37.5537C24.6176 37.0554 24.6176 36.2476 25.1148 35.7493C25.612 35.251 26.418 35.251 26.9152 35.7493C27.4123 36.2476 27.4123 37.0554 26.9152 37.5537Z" fill="#0052DA"/>
<path d="M17.5065 64.8773H10.3276V62.1744H11.3145V54.7527H10.3276V52.0498H17.7175C18.3879 52.0498 18.9905 52.1177 19.5404 52.2536C20.0828 52.3895 20.5423 52.6161 20.919 52.9181C21.2956 53.2276 21.5819 53.6278 21.7853 54.1261C21.9886 54.6244 22.0866 55.2208 22.0866 55.923C22.0866 56.6402 21.9886 57.2442 21.7853 57.7274C21.5819 58.2182 21.2956 58.6183 20.919 58.9203C20.5423 59.2299 20.0903 59.4488 19.5404 59.5847C18.9981 59.7206 18.3879 59.7886 17.7175 59.7886H15.9246V62.1668H17.5065V64.8773ZM16.4896 57.4481C16.7984 57.4481 17.032 57.365 17.1977 57.1989C17.3634 57.0328 17.4463 56.761 17.4463 56.3911V55.7946C17.4463 55.4171 17.3634 55.1529 17.2052 54.9867C17.047 54.8206 16.806 54.7376 16.4896 54.7376H15.9322V57.4405H16.4896V57.4481Z" fill="#0052DA"/>
<path d="M22.7119 52.042H29.823V54.7449H28.3089V62.1666H29.7929V60.649H33.0697V64.8695H22.7119V62.1666H23.6987V54.7449H22.7119V52.042Z" fill="#0052DA"/>
<path d="M45.3634 60.2715C45.3634 61.1624 45.2428 61.9099 44.9943 62.5214C44.7457 63.133 44.3916 63.6313 43.9321 64.0163C43.4726 64.4014 42.9152 64.6807 42.2598 64.8468C41.6044 65.0205 40.8813 65.1035 40.0752 65.1035C39.2541 65.1035 38.5084 65.0205 37.8455 64.8468C37.1826 64.6732 36.6176 64.4014 36.1506 64.0163C35.6835 63.6313 35.3219 63.133 35.0658 62.5214C34.8097 61.9099 34.6817 61.1624 34.6817 60.2715V54.7449H33.6948V52.042H39.9472V54.7449H39.2918V61.1171C39.2918 61.4946 39.3747 61.7589 39.5329 61.925C39.6911 62.0911 39.9321 62.1741 40.2485 62.1741C40.5649 62.1741 40.8059 62.0911 40.9641 61.925C41.1223 61.7589 41.2052 61.4871 41.2052 61.1171V54.7449H40.5423V52.042H46.3502V54.7449H45.3634V60.2715Z" fill="#0052DA"/>
<path d="M46.8098 52.042H54.6817L56.5574 57.7045L58.3653 52.042H65.951V54.7449H64.9642V62.1666H65.951V64.8695H59.3672V62.1666H60.354V55.6509L57.0772 64.877H55.2994L51.5781 55.6207V62.1741H52.565V64.877H46.8022V62.1741H47.7891V54.7524H46.8022V52.042H46.8098Z" fill="#0052DA"/>
<path d="M66.6519 52.042H74.3731C75.7215 52.042 76.7912 52.3138 77.5671 52.8649C78.343 53.4161 78.7347 54.224 78.7347 55.2885C78.7347 55.817 78.6368 56.27 78.4409 56.64C78.2451 57.0175 78.004 57.3195 77.7178 57.5611C77.4315 57.8027 77.1302 57.9914 76.8213 58.1198C76.505 58.2481 76.2338 58.3387 76.0078 58.384V58.5501C76.2489 58.5728 76.5426 58.6256 76.8967 58.7087C77.2507 58.7917 77.5822 58.9427 77.8986 59.1541C78.2149 59.3655 78.4861 59.6675 78.7121 60.045C78.9381 60.4225 79.0511 60.9208 79.0511 61.5399C79.0511 62.159 78.9231 62.6724 78.6745 63.0952C78.4183 63.518 78.0794 63.8653 77.65 64.1296C77.2206 64.3938 76.7234 64.5826 76.1584 64.6958C75.5935 64.8091 74.9984 64.8695 74.3731 64.8695H66.6519V62.1666H67.6387V54.7449H66.6519V52.042ZM73.1377 57.4478C73.4541 57.4478 73.6952 57.3648 73.8534 57.1987C74.0116 57.0326 74.0944 56.7608 74.0944 56.3908V55.7944C74.0944 55.4169 74.0116 55.1526 73.8534 54.9865C73.6952 54.8204 73.4541 54.7374 73.1377 54.7374H72.2488V57.4403H73.1377V57.4478ZM73.2507 62.1666C73.5671 62.1666 73.8082 62.0835 73.9664 61.9174C74.1246 61.7513 74.2074 61.4795 74.2074 61.1096V60.3848C74.2074 60.0073 74.1246 59.743 73.9664 59.5769C73.8082 59.4108 73.5671 59.3278 73.2507 59.3278H72.2488V62.1666H73.2507Z" fill="#0052DA"/>
<path d="M79.6982 52.042H86.282V54.7449H85.2952V62.1666H86.282V64.8695H79.6982V62.1666H80.6851V54.7449H79.6982V52.042Z" fill="#0052DA"/>
<path d="M96.3316 52.042H102.094V54.7449H101.107V64.877H96.4822L91.6611 57.4327V62.1666H92.648V64.8695H86.8853V62.1666H87.8721V54.7449H86.8853V52.042H92.9945L97.3259 58.6785V54.7524H96.3391V52.042H96.3316Z" fill="#0052DA"/>
<path d="M109.205 58.2938H115.035V60.7551H114.214V64.0545C113.958 64.1753 113.664 64.2961 113.333 64.4244C112.994 64.5528 112.61 64.666 112.18 64.7642C111.744 64.8623 111.261 64.9454 110.727 65.0133C110.192 65.0813 109.589 65.1115 108.934 65.1115C107.947 65.1115 107.058 64.9907 106.267 64.7491C105.476 64.5075 104.806 64.1225 104.248 63.594C103.691 63.0655 103.269 62.3784 102.975 61.5403C102.681 60.7023 102.531 59.6755 102.531 58.4599C102.531 57.2595 102.681 56.2402 102.975 55.3946C103.269 54.549 103.691 53.862 104.241 53.3335C104.791 52.805 105.461 52.4199 106.252 52.1783C107.043 51.9367 107.924 51.8159 108.904 51.8159C109.574 51.8159 110.177 51.8461 110.719 51.9141C111.261 51.982 111.751 52.0651 112.18 52.1708C112.617 52.2765 112.994 52.3897 113.333 52.5181C113.664 52.6464 113.958 52.7672 114.214 52.888V56.8291H110.101V56.0515C110.101 55.5758 110.003 55.2436 109.815 55.0473C109.627 54.851 109.318 54.7529 108.904 54.7529C108.489 54.7529 108.18 54.851 107.992 55.0473C107.804 55.2436 107.706 55.5834 107.706 56.0515V60.8684C107.706 61.344 107.804 61.6762 107.992 61.8725C108.18 62.0688 108.489 62.167 108.904 62.167C109.318 62.167 109.627 62.0688 109.815 61.8725C110.003 61.6762 110.101 61.3365 110.101 60.8684V60.7551H109.212V58.2938H109.205Z" fill="#0052DA"/>
<path d="M25.1377 82.1366L22.5915 70.8494H21.8608V67.8369H29.1377V70.8494H27.9475L28.8439 77.7425H29.0247L31.1339 67.8369H36.4145L38.3957 77.7425H38.5765L39.4729 70.8494H38.2827V67.8369H44.648V70.8494H43.9173L41.552 82.1366H35.1565L33.4842 74.564H33.3034L31.5407 82.1366H25.1377Z" fill="#0052DA"/>
<path d="M59.0206 74.9866C59.0206 76.3381 58.8549 77.4781 58.5234 78.4143C58.192 79.3505 57.7249 80.1131 57.1223 80.702C56.5196 81.2909 55.7814 81.7213 54.9151 81.9855C54.0488 82.2573 53.0846 82.3932 52.0149 82.3932C50.9528 82.3932 49.9886 82.2573 49.1147 81.9855C48.2484 81.7137 47.5102 81.2833 46.9076 80.702C46.3049 80.1131 45.8379 79.3505 45.5065 78.4143C45.175 77.4781 45.0093 76.3381 45.0093 74.9866C45.0093 73.6503 45.175 72.5102 45.5065 71.5665C45.8379 70.6227 46.3049 69.8602 46.9076 69.2713C47.5102 68.6824 48.2484 68.252 49.1147 67.9878C49.981 67.716 50.9452 67.5801 52.0149 67.5801C53.0771 67.5801 54.0413 67.716 54.9151 67.9878C55.7814 68.2596 56.5196 68.6824 57.1223 69.2713C57.7249 69.8602 58.192 70.6227 58.5234 71.5665C58.8549 72.5102 59.0206 73.6503 59.0206 74.9866ZM52.0149 79.124C52.4292 79.124 52.7381 79.0183 52.949 78.7994C53.1599 78.588 53.2579 78.2407 53.2579 77.7575V72.2082C53.2579 71.7326 53.1524 71.3853 52.949 71.1663C52.7381 70.9549 52.4292 70.8417 52.0149 70.8417C51.6006 70.8417 51.2842 70.9474 51.0808 71.1663C50.8699 71.3777 50.772 71.725 50.772 72.2082V77.7575C50.772 78.2331 50.8774 78.5804 51.0808 78.7994C51.2918 79.0108 51.6006 79.124 52.0149 79.124Z" fill="#0052DA"/>
<path d="M65.989 79.124H67.2018V82.1364H59.7593V79.124H60.8591V70.8567H59.7593V67.8442H68.3619C69.1077 67.8442 69.7857 67.9197 70.3883 68.0632C70.9909 68.2142 71.5032 68.4482 71.9175 68.7729C72.3318 69.0975 72.6557 69.5204 72.8817 70.0489C73.1077 70.5774 73.2207 71.2191 73.2207 71.9817C73.2207 72.7895 73.0625 73.4917 72.731 74.0957C72.4071 74.6921 71.9325 75.1149 71.3073 75.3641L71.3224 75.5453C72.4975 75.7265 73.0851 76.4513 73.0851 77.7121V79.124H73.9438V82.1364H68.1284V77.8178C68.1284 77.4479 68.0907 77.1534 68.0079 76.9269C67.925 76.7004 67.7969 76.5268 67.6237 76.4135C67.4429 76.3003 67.2244 76.2172 66.9532 76.1719C66.6821 76.1266 66.3582 76.104 65.9815 76.104V79.124H65.989ZM66.9834 73.8692C67.3374 73.8692 67.6011 73.7786 67.7819 73.5898C67.9551 73.4086 68.0455 73.1066 68.0455 72.6914V72.027C68.0455 71.6117 67.9551 71.3097 67.7819 71.1285C67.6011 70.9473 67.3374 70.8492 66.9834 70.8492H65.9966V73.8616H66.9834V73.8692Z" fill="#0052DA"/>
<path d="M88.2716 70.8492L85.394 74.5638L88.5503 79.124H89.281V82.1364H83.8196L80.9194 77.1006V82.1364H74.6821V79.124H75.7819V70.8567H74.6821V67.8442H80.9194V72.7895L84.2716 67.8442H89.0023V70.8567H88.2716V70.8492Z" fill="#0052DA"/>
<path d="M95.2388 78.8449C95.6456 78.8449 95.9318 78.7845 96.0976 78.6637C96.2708 78.5429 96.3537 78.3542 96.3537 78.1126C96.3537 77.9389 96.2859 77.7879 96.1428 77.6596C95.9996 77.5312 95.7209 77.3802 95.2915 77.2066C94.3876 76.8668 93.5966 76.5346 92.9186 76.2251C92.2407 75.9155 91.6757 75.5682 91.2313 75.1832C90.7868 74.8057 90.4554 74.3602 90.2294 73.8544C90.0109 73.3485 89.8979 72.7294 89.8979 72.0046C89.8979 71.3176 90.0034 70.706 90.2219 70.1548C90.4328 69.6112 90.7868 69.1432 91.2689 68.7581C91.751 68.3731 92.3914 68.0786 93.1974 67.8748C93.9959 67.6709 94.9827 67.5728 96.1578 67.5728C97.22 67.5728 98.2219 67.6784 99.1635 67.8974C100.105 68.1088 100.889 68.3957 101.514 68.7506V72.0424H97.6644C97.6644 71.6875 97.5665 71.4459 97.3706 71.3176C97.1748 71.1892 96.9337 71.1213 96.655 71.1213C96.2482 71.1213 95.962 71.1741 95.7812 71.2798C95.6004 71.3855 95.5175 71.5667 95.5175 71.8234C95.5175 72.0348 95.6155 72.1858 95.8038 72.284C95.9921 72.3821 96.2784 72.4954 96.655 72.6162C97.3631 72.8502 98.0335 73.0918 98.6663 73.3485C99.2991 73.6052 99.849 73.9223 100.324 74.3074C100.798 74.6849 101.175 75.1454 101.454 75.689C101.725 76.2251 101.868 76.8895 101.868 77.6747C101.868 79.2677 101.356 80.4531 100.331 81.2307C99.3066 82.0084 97.8 82.401 95.8188 82.401C94.6964 82.401 93.6117 82.3028 92.5721 82.1065C91.5326 81.9102 90.704 81.6762 90.0787 81.4119V77.7728H94.1089C94.1089 78.1428 94.1842 78.4146 94.3273 78.5882C94.4629 78.7543 94.7718 78.8449 95.2388 78.8449Z" fill="#0052DA"/>
<path d="M44.392 34.292C44.1208 34.292 43.9023 34.5109 43.9023 34.7827V40.03C43.9023 40.3018 44.1208 40.5208 44.392 40.5208C44.6632 40.5208 44.8816 40.3018 44.8816 40.03V34.7827C44.8816 34.5109 44.6632 34.292 44.392 34.292Z" fill="#0052DA"/>
<path d="M44.392 14.5034C44.1208 14.5034 43.9023 14.7224 43.9023 14.9942V31.5061C43.9023 31.7779 44.1208 31.9968 44.392 31.9968C44.6632 31.9968 44.8816 31.7779 44.8816 31.5061V14.9942C44.8816 14.7224 44.6632 14.5034 44.392 14.5034Z" fill="#0052DA"/>
<path d="M40.8744 14.5034C40.6032 14.5034 40.3848 14.7224 40.3848 14.9942V18.5804C40.3848 18.8522 40.6032 19.0712 40.8744 19.0712C41.1456 19.0712 41.3641 18.8522 41.3641 18.5804V14.9942C41.3716 14.7224 41.1456 14.5034 40.8744 14.5034Z" fill="#0052DA"/>
<path d="M47.9096 27.4668C47.6384 27.4668 47.4199 27.6857 47.4199 27.9575V39.9923C47.4199 40.2641 47.6384 40.483 47.9096 40.483C48.1808 40.483 48.3992 40.2641 48.3992 39.9923V27.9575C48.3992 27.6933 48.1808 27.4668 47.9096 27.4668Z" fill="#0052DA"/>
<path d="M40.8744 20.9058C40.6032 20.9058 40.3848 21.1247 40.3848 21.3965V28.8257C40.3848 29.0975 40.6032 29.3165 40.8744 29.3165C41.1456 29.3165 41.3641 29.0975 41.3641 28.8257V21.3965C41.3716 21.1247 41.1456 20.9058 40.8744 20.9058Z" fill="#0052DA"/>
<path d="M37.3637 35.1831C37.0925 35.1831 36.874 35.4021 36.874 35.6739V39.9245C36.874 40.1963 37.0925 40.4153 37.3637 40.4153C37.6349 40.4153 37.8533 40.1963 37.8533 39.9245V35.6739C37.8533 35.4096 37.6349 35.1831 37.3637 35.1831Z" fill="#0052DA"/>
<path d="M47.9096 22.8916C47.6384 22.8916 47.4199 23.1106 47.4199 23.3824V25.1038C47.4199 25.3756 47.6384 25.5945 47.9096 25.5945C48.1808 25.5945 48.3992 25.3756 48.3992 25.1038V23.3824C48.3992 23.1106 48.1808 22.8916 47.9096 22.8916Z" fill="#0052DA"/>
<path d="M40.8744 31.1816C40.6032 31.1816 40.3848 31.4006 40.3848 31.6724V39.9925C40.3848 40.2643 40.6032 40.4833 40.8744 40.4833C41.1456 40.4833 41.3641 40.2643 41.3641 39.9925V31.6724C41.3716 31.4081 41.1456 31.1816 40.8744 31.1816Z" fill="#0052DA"/>
<path d="M37.3637 27.6104C37.0925 27.6104 36.874 27.8293 36.874 28.1011V32.8199C36.874 33.0917 37.0925 33.3106 37.3637 33.3106C37.6349 33.3106 37.8533 33.0917 37.8533 32.8199V28.1011C37.8533 27.8293 37.6349 27.6104 37.3637 27.6104Z" fill="#0052DA"/>
<path d="M37.3637 14.5034C37.0925 14.5034 36.874 14.7224 36.874 14.9942V25.2848C36.874 25.5566 37.0925 25.7756 37.3637 25.7756C37.6349 25.7756 37.8533 25.5566 37.8533 25.2848V14.9942C37.8533 14.7224 37.6349 14.5034 37.3637 14.5034Z" fill="#0052DA"/>
<path d="M47.9096 14.5034C47.6384 14.5034 47.4199 14.7224 47.4199 14.9942V20.5661C47.4199 20.8379 47.6384 21.0568 47.9096 21.0568C48.1808 21.0568 48.3992 20.8379 48.3992 20.5661V14.9942C48.3992 14.7224 48.1808 14.5034 47.9096 14.5034Z" fill="#0052DA"/>
<path d="M105.785 11.2725L53.936 13.1298L60.6328 17.7126L58.147 20.8761H107.081L87.2543 21.9859L72.6178 27.5201L76.5876 37.4106L122.606 34.9493L117.484 31.2725L118.637 27.5201H73.4464L94.1846 26.6141L107.985 20.8761L105.785 11.2725Z" fill="#0052DA"/>
<path d="M79.4503 28.9089C81.213 28.9089 81.552 29.6111 81.552 30.4718C81.552 31.0682 81.0849 31.4835 80.4522 31.5741C80.9719 31.6496 81.4465 32.1101 81.4465 32.6537C81.4465 32.9784 81.4917 33.1671 81.6273 33.1671C81.7403 33.1671 81.8006 33.0765 81.8006 32.9255V32.6764H82.3053V33.0916C82.3053 33.7258 82.0416 34.3072 81.1979 34.3072C80.2036 34.3072 79.729 33.7787 79.729 32.8953C79.729 32.2007 79.6461 32.0346 78.9682 32.0346V33.2124H79.4277V34.2166H76.9795V33.2124H77.4013V29.898H76.9795V28.9014H79.4503V28.9089ZM78.9757 31.189H79.3147C79.7516 31.189 80.0454 30.9776 80.0454 30.5699C80.0454 30.1245 79.7968 29.8904 79.3524 29.8904H78.9757V31.189Z" fill="white"/>
<path d="M87.1487 28.9087V30.5924H85.8379V29.9128H84.6251V30.9623H86.0639V31.974H84.6251V33.2122H85.8379V32.5025H87.1487V34.2239H82.5762V33.2122H83.0508V29.9128H82.5762V28.9087H87.1487Z" fill="white"/>
<path d="M89.9209 28.9087V29.9128H89.5216V33.2122H90.5009V32.2458H91.774V34.2239H87.5254V33.2122H87.9397V29.9128H87.5254V28.9087H89.9209Z" fill="white"/>
<path d="M94.6669 28.9087V29.9128H94.1923V33.2122H94.6669V34.2239H92.1509V33.2122H92.6255V29.9128H92.1509V28.9087H94.6669Z" fill="white"/>
<path d="M97.9434 34.2166V33.22H98.6665L98.5083 32.7066H96.9565L96.7984 33.22H97.3934V34.2166H94.9829V33.22H95.4951L96.5196 29.8829H96.2108V28.9014H99.126L100.467 33.22H100.994V34.2166H97.9434ZM98.2221 31.793L97.7174 30.1547L97.2277 31.793H98.2221Z" fill="white"/>
<path d="M101.288 33.2349H101.725V29.8902H101.288V28.9087H104.12C105.378 28.9087 105.981 29.3768 105.981 30.2073C105.981 30.849 105.808 31.1586 105.235 31.3851C105.785 31.5361 106.237 31.9438 106.237 32.6762C106.237 33.7483 105.635 34.2164 104.173 34.2164H101.288V33.2349ZM103.299 31.0529H103.759C104.158 31.0529 104.271 30.8339 104.271 30.464C104.271 30.1167 104.06 29.9053 103.766 29.9053H103.292V31.0529H103.299ZM103.902 33.2349C104.218 33.2349 104.52 32.9933 104.52 32.578C104.52 32.193 104.301 31.906 103.879 31.906H103.292V33.2273H103.902V33.2349Z" fill="white"/>
<path d="M108.889 28.9087V29.9128H108.49V33.2122H109.469V32.2458H110.742V34.2239H106.494V33.2122H106.908V29.9128H106.494V28.9087H108.889Z" fill="white"/>
<path d="M113.763 31.3023C113.793 31.1513 113.959 30.8342 114.042 30.6454L114.456 29.8753H114.042V28.9014H116.083V29.8753H115.676L114.275 32.3442V33.2275H114.697V34.2166H112.271V33.2275H112.701V32.3291L111.232 29.8753H110.863V28.9014H113.454V29.8753H113.062L113.499 30.6832C113.545 30.8266 113.703 31.1664 113.733 31.3023H113.763Z" fill="white"/>
<path d="M64.7985 14.5034V15.4396H64.4068V17.01C64.4068 18.1803 64.6704 18.4294 65.1299 18.4294C65.5744 18.4294 65.8606 18.2558 65.8606 17.0025V15.4623H65.4689V14.5034H67.6158V15.4396H67.2241V17.2063C67.2241 18.9277 66.5084 19.7054 65.145 19.7054C63.676 19.6601 62.8926 18.89 62.8926 17.2441V15.4472H62.4858V14.5034H64.7985Z" fill="white"/>
<path d="M70.2602 14.5032C71.94 14.5032 72.2715 15.1751 72.2715 15.9981C72.2715 16.5643 71.8195 16.9645 71.2168 17.0551C71.7215 17.1306 72.166 17.5609 72.166 18.0894C72.166 18.399 72.2112 18.5802 72.3393 18.5802C72.4447 18.5802 72.505 18.4896 72.505 18.3461V18.1045H72.9946V18.5047C72.9946 19.1087 72.7385 19.6674 71.9325 19.6674C70.9833 19.6674 70.5238 19.1691 70.5238 18.3159C70.5238 17.6515 70.4409 17.493 69.8006 17.493V18.6179H70.2451V19.5768H67.9023V18.6179H68.3091V15.4469H67.9023V14.4956H70.2602V14.5032ZM69.8082 16.6851H70.1321C70.5539 16.6851 70.8251 16.4813 70.8251 16.0962C70.8251 15.6659 70.5841 15.4469 70.1622 15.4469H69.8006V16.6851H69.8082Z" fill="white"/>
<path d="M76.6179 19.1243C76.4597 19.3961 76.0077 19.6453 75.4502 19.6453C74.1772 19.6453 73.1753 18.6562 73.1753 17.0858C73.1753 15.5003 74.2676 14.4131 75.405 14.4131C76.4597 14.4131 76.7007 14.9038 76.8212 15.0246L76.9719 14.5037H78.0491V16.6479H76.7534C76.7308 16.059 76.3542 15.7268 75.9248 15.7268C75.3372 15.7268 74.9305 16.3685 74.9305 17.0933C74.9305 17.8332 75.292 18.4297 75.9248 18.4297C76.3391 18.4297 76.5124 18.2636 76.6179 18.0748V17.7728H76.1734V16.9952H78.584V17.7728H78.2977V19.5924H76.8438L76.6179 19.1243Z" fill="white"/>
<path d="M83.2468 14.5034V16.1116H81.9888V15.4623H80.8287V16.4664H82.2072V17.4328H80.8287V18.6182H81.9888V17.9387H83.2468V19.5846H78.8701V18.6182H79.3296V15.4623H78.8701V14.5034H83.2468Z" fill="white"/>
<path d="M88.678 15.4396V19.5846H87.1187L85.2656 16.8137V18.6484H85.823V19.5846H83.5933V18.6484H84.0226V15.4396H83.6008V14.5034H85.6799L87.4576 17.1686V15.4396H86.9605V14.5034H89.145V15.4396H88.678Z" fill="white"/>
<path d="M94.3123 16.3909H93.2426V15.4623H92.6325V18.6182H93.2351V19.5846H90.5383V18.6182H91.1334V15.4623H90.5082V16.3909H89.4385V14.5034H94.3048V16.3909H94.3123Z" fill="white"/>
<path d="M96.8887 14.5034V15.4623H96.5045V18.6182H97.4385V17.6971H98.6589V19.5846H94.5986V18.6182H94.9979V15.4623H94.5986V14.5034H96.8887Z" fill="white"/>
<path d="M101.545 16.7911C101.575 16.6476 101.733 16.3381 101.816 16.1644L102.215 15.4321H101.816V14.5034H103.767V15.4321H103.375L102.034 17.7952V18.6408H102.441V19.5846H100.121V18.6408H100.535V17.7801L99.1265 15.4321H98.7725V14.5034H101.251V15.4321H100.874L101.296 16.2022C101.341 16.3381 101.492 16.6703 101.522 16.7911H101.545Z" fill="white"/>
</svg>
