<svg width="100" height="100" viewBox="0 0 100 100" fill="none" xmlns="http://www.w3.org/2000/svg">
<path d="M96.0283 52.3694H4.4278V61.7439H96.0283V52.3694Z" fill="#00045F"/>
<path d="M11.4005 54.0839C13.3569 54.0839 13.7247 54.9228 13.7247 55.8867C13.7247 56.9978 12.717 57.5571 11.5108 57.5571H10.8709V58.8595H11.3857V59.9706H8.67169V58.8595H9.14243V55.1877H8.67169V54.0839H11.4005ZM10.8635 56.6446H11.2386C11.7241 56.6446 12.0624 56.3944 12.0624 55.9456C12.0624 55.4526 11.7682 55.1803 11.2828 55.1803H10.8635V56.6446Z" fill="white"/>
<path d="M16.7181 54.0839V55.195H16.2695V58.8521H17.358V57.7852H18.7702V59.978H14.0556V58.8595H14.519V55.2024H14.0556V54.0913H16.7181V54.0839Z" fill="white"/>
<path d="M21.7858 54.0839V55.173H21.3298V56.9905C21.3298 58.3444 21.6313 58.6314 22.1682 58.6314C22.6831 58.6314 23.0214 58.4254 23.0214 56.9831V55.195H22.5654V54.0839H25.0588V55.173H24.6028V57.2186C24.6028 59.2127 23.7717 60.1178 22.1903 60.1178C20.4913 60.0663 19.5793 59.1759 19.5793 57.2627V55.1803H19.1085V54.0839H21.7858Z" fill="white"/>
<path d="M31.2372 55.5703C31.171 55.9456 31.0533 56.5048 30.9945 56.6961L30.1119 59.9706H28.354L27.4125 56.6078C27.3684 56.468 27.2581 55.9823 27.236 55.5629H27.2066V58.8815H27.6847V59.9706H25.3899V58.8815H25.8459V55.1656H25.3973V54.0765H28.5894L29.4426 57.2259L30.2516 54.0765H33.4584V55.1656H32.9951V58.8742H33.4584V59.9706H30.7959V58.8742H31.2666V56.0633V55.5629H31.2372V55.5703Z" fill="white"/>
<path d="M33.8776 58.8816H34.3631V55.173H33.8776V54.0839H37.0182C38.4157 54.0839 39.0777 54.6064 39.0777 55.5262C39.0777 56.2326 38.8864 56.5784 38.2539 56.8286C38.857 56.9978 39.3645 57.4393 39.3645 58.2635C39.3645 59.4482 38.7026 59.9706 37.0771 59.9706H33.8776V58.8816ZM36.1062 56.4607H36.6211C37.0697 56.4607 37.1948 56.2179 37.1948 55.8131C37.1948 55.4231 36.9594 55.195 36.6431 55.195H36.1136V56.4607H36.1062ZM36.7829 58.8816C37.1359 58.8816 37.4669 58.6093 37.4669 58.1605C37.4669 57.7337 37.2242 57.4173 36.7608 57.4173H36.1136V58.8816H36.7829Z" fill="white"/>
<path d="M42.4536 54.0839V55.195H41.9314V58.8521H42.4536V59.9706H39.6587V58.8521H40.1883V55.195H39.6587V54.0839H42.4536Z" fill="white"/>
<path d="M48.7644 55.1729V59.9706H46.955L44.8073 56.7623V58.8815H45.4546V59.9706H42.8729V58.8815H43.3657V55.1656H42.8803V54.0765H45.3001L47.3595 57.167V55.1656H46.7858V54.0765H49.316V55.1656H48.7644V55.1729Z" fill="white"/>
<path d="M53.6556 59.4407C53.4717 59.7498 52.9495 60.0441 52.3022 60.0441C50.8312 60.0441 49.6617 58.8962 49.6617 57.0787C49.6617 55.2465 50.9342 53.9808 52.2434 53.9808C53.4643 53.9808 53.7512 54.5548 53.8836 54.6872L54.0601 54.0838H55.3178V56.571H53.81C53.788 55.8866 53.3466 55.504 52.8539 55.504C52.1698 55.504 51.6991 56.2472 51.6991 57.0861C51.6991 57.947 52.1183 58.6387 52.8539 58.6387C53.3319 58.6387 53.5379 58.4473 53.6629 58.2266V57.8734H53.1481V56.9757H55.943V57.8734H55.6047V59.9779H53.9204L53.6556 59.4407Z" fill="white"/>
<path d="M60.9003 58.0722C60.915 57.8367 61.143 56.7845 61.3122 55.9824L61.7314 54.0913H63.4819L64.0115 56.4165C64.1292 56.961 64.2248 57.6527 64.2616 58.0722H64.3057C64.3425 57.6895 64.4822 56.8139 64.5558 56.4607L64.8426 55.1803H64.3793V54.0839H66.7844V55.1803H66.321L65.0633 59.9706H63.07L62.5625 57.9691C62.489 57.6822 62.3934 57.1892 62.3492 56.9243H62.3125C62.2757 57.1744 62.1727 57.7042 62.1139 57.9544L61.599 59.978H59.6426L58.5319 55.1877H58.0612V54.0913H60.8414V55.1877H60.356L60.5767 56.4165C60.6723 56.8212 60.812 57.822 60.8488 58.0722H60.9003Z" fill="white"/>
<path d="M66.8358 56.9978C66.8358 55.1803 68.0494 53.922 69.7926 53.922C71.852 53.922 72.8155 55.1582 72.8155 57.0567C72.8155 58.9625 71.7564 60.1251 69.8514 60.1251C68.0862 60.1251 66.8358 59.1097 66.8358 56.9978ZM70.7046 57.0567C70.7046 56.0412 70.4251 55.2244 69.7779 55.2244C69.263 55.2171 68.91 55.9603 68.91 56.9978C68.91 58.1016 69.3071 58.8006 69.8441 58.8006C70.3736 58.8006 70.7046 58.1015 70.7046 57.0567Z" fill="white"/>
<path d="M75.8825 54.0839C77.839 54.0839 78.2141 54.8566 78.2141 55.8205C78.2141 56.4754 77.6919 56.939 76.9932 57.042C77.5742 57.1229 78.0964 57.6306 78.0964 58.2414C78.0964 58.6019 78.1479 58.8154 78.3024 58.8154C78.4274 58.8154 78.4936 58.7123 78.4936 58.5431V58.2635H79.06V58.727C79.06 59.4261 78.7657 60.0736 77.8316 60.0736C76.7284 60.0736 76.1988 59.4923 76.1988 58.5063C76.1988 57.741 76.1032 57.5571 75.3603 57.5571V58.8595H75.8752V59.9706H73.1538V58.8595H73.6245V55.1877H73.1538V54.0839H75.8825ZM75.353 56.6152H75.7281C76.2135 56.6152 76.5372 56.3797 76.5372 55.9309C76.5372 55.4379 76.2577 55.1803 75.7722 55.1803H75.353V56.6152Z" fill="white"/>
<path d="M81.5461 55.1729V56.5489L83.1127 55.1729H82.5096V54.0839H85.3119V55.1729H84.8264L83.6055 56.2252L85.3045 58.8815H85.79V59.9779H82.5096V58.8815H83.0833L82.1713 57.4467L81.5461 57.9765V58.8742H82.0021V59.9706H79.3542V58.8742H79.8103V55.1656H79.3542V54.0765H82.0021V55.1656H81.5461V55.1729Z" fill="white"/>
<path d="M86.2092 57.8513H87.7759C87.7759 58.5577 88.482 58.6755 88.835 58.6902C89.1292 58.6902 89.5485 58.624 89.5485 58.2708C89.5485 57.6159 86.3196 57.8881 86.3196 55.7469C86.3196 54.5033 87.4964 53.9367 88.3201 53.9367C89.0262 53.9367 89.7397 54.1648 90.078 54.7976L90.1589 54.0912H91.6079V56.2031H90.0854C90.0854 55.5776 89.5999 55.2244 89.0115 55.2244C88.7688 55.2244 88.4305 55.3789 88.4305 55.6733C88.4305 56.5416 91.7623 56.3355 91.7623 58.3149C91.7623 59.6321 90.534 60.103 89.5337 60.103C88.6805 60.103 88.0921 59.7056 87.7759 59.3304L87.6802 59.9779H86.2092V57.8513Z" fill="white"/>
<path d="M50.1986 89.8528L50.0147 86.7991C49.8529 86.8065 49.6984 86.8138 49.544 86.8138H49.4999L49.4778 89.8749H49.544C49.7573 89.8749 49.9779 89.8676 50.1986 89.8528ZM48.9997 86.7991C48.8305 86.7844 48.6614 86.7697 48.4996 86.7476L48.095 89.7793C48.3304 89.8087 48.5658 89.8308 48.8011 89.8528L48.9997 86.7991ZM51.5961 89.6836L51.0297 86.674C50.8605 86.7035 50.6914 86.7329 50.5222 86.755L50.8973 89.794C51.1327 89.7645 51.3607 89.7277 51.5961 89.6836ZM47.9921 86.6593C47.8229 86.6225 47.6611 86.5857 47.4993 86.5416L46.7049 89.4923C46.9329 89.5511 47.1609 89.61 47.3963 89.6542L47.9921 86.6593ZM52.9568 89.3377L52.0227 86.4238C51.8608 86.4754 51.6917 86.5269 51.5299 86.5637L52.2874 89.5291C52.5081 89.4702 52.7288 89.4113 52.9568 89.3377ZM47.0138 86.3944C46.852 86.3429 46.6976 86.2767 46.5431 86.2178L45.3663 89.0434C45.5796 89.1317 45.8002 89.22 46.0282 89.2936L47.0138 86.3944ZM54.2586 88.83L52.9935 86.0486C52.8317 86.1221 52.6773 86.1884 52.5155 86.2546L53.6261 89.1023C53.832 89.0213 54.0453 88.933 54.2586 88.83ZM46.0871 86.0118C45.9326 85.9382 45.7855 85.8572 45.6458 85.7689L44.0939 88.4032C44.2998 88.521 44.5057 88.6387 44.719 88.7417L46.0871 86.0118ZM55.4796 88.1825L53.8982 85.5629C53.7438 85.6512 53.5967 85.7395 53.4422 85.8205L54.8838 88.521C55.0824 88.4106 55.281 88.3002 55.4796 88.1825ZM45.2265 85.5041C45.0868 85.4084 44.9544 85.3127 44.822 85.2097L42.917 87.6012C43.1009 87.7484 43.2921 87.8882 43.4907 88.028L45.2265 85.5041ZM56.627 87.3952L54.7661 84.9669C54.6264 85.0773 54.4866 85.1803 54.3469 85.2759L56.0753 87.7999C56.2518 87.6748 56.4431 87.5423 56.627 87.3952ZM44.4469 84.886C44.3219 84.7756 44.2042 84.6578 44.0939 84.5327L41.8579 86.6225C42.0197 86.7991 42.1889 86.9684 42.3654 87.1302L44.4469 84.886ZM57.664 86.5121L55.5678 84.2826C55.4354 84.4077 55.303 84.5254 55.1706 84.6358L57.1492 86.9684C57.3257 86.8212 57.4949 86.6667 57.664 86.5121ZM43.7702 84.1648C43.6673 84.0397 43.5716 83.9073 43.476 83.7675L40.9532 85.4893C41.0856 85.688 41.2327 85.8793 41.3872 86.0706L43.7702 84.1648ZM43.226 83.3554C43.145 83.2156 43.0715 83.0684 43.0053 82.9286L40.2398 84.231C40.3428 84.4518 40.4531 84.6726 40.5781 84.8786L43.226 83.3554ZM42.8141 82.4798C42.7552 82.3326 42.7037 82.1781 42.6596 82.0162L39.7176 82.855C39.7838 83.0905 39.8573 83.3186 39.9456 83.5467L42.8141 82.4798ZM42.5493 81.5453C42.5199 81.3907 42.4905 81.2289 42.4757 81.067L39.4381 81.4275C39.4675 81.6703 39.5043 81.9132 39.5558 82.1486L42.5493 81.5453ZM42.4316 80.5813C42.4243 80.493 42.4243 80.4121 42.4243 80.3238C42.4243 80.2428 42.4243 80.1619 42.4243 80.0809L39.3645 79.9927C39.3645 80.103 39.3572 80.2134 39.3572 80.3164C39.3572 80.4489 39.3572 80.574 39.3645 80.7064L42.4316 80.5813ZM42.5346 79.0949L39.5263 78.5651C39.4822 78.8006 39.4528 79.0361 39.4307 79.2789L42.4757 79.5806C42.4831 79.4187 42.5052 79.2568 42.5346 79.0949ZM60.2163 76.3797C60.0618 76.3723 59.9147 76.3576 59.7529 76.3429L59.3484 79.3745C59.5984 79.4113 59.8485 79.4334 60.0986 79.4408L60.2163 76.3797ZM61.6064 79.3525L61.1209 76.3282C60.9738 76.3503 60.8267 76.365 60.6723 76.3797L60.8488 79.4334C61.1062 79.4187 61.3563 79.3892 61.6064 79.3525ZM59.2821 76.2546C59.1277 76.2178 58.9732 76.181 58.8188 76.1295L57.9067 79.0508C58.1421 79.1244 58.3848 79.1906 58.6202 79.2421L59.2821 76.2546ZM63.0994 78.9404L61.9668 76.1001C61.8344 76.1516 61.702 76.1957 61.5549 76.2399L62.3492 79.1906C62.6067 79.1243 62.8567 79.0361 63.0994 78.9404ZM58.3554 75.9676C58.201 75.9088 58.0539 75.8425 57.8994 75.7689L56.5755 78.5283C56.7961 78.6313 57.0168 78.727 57.2301 78.8153L58.3554 75.9676ZM42.7773 78.1751L39.9015 77.1376C39.8205 77.3657 39.747 77.6012 39.6808 77.844L42.6376 78.624C42.6743 78.4695 42.7185 78.3223 42.7773 78.1751ZM64.4749 78.1972L62.7243 75.688C62.6067 75.769 62.489 75.8425 62.3639 75.9088L63.8055 78.6093C64.0409 78.4842 64.2616 78.3517 64.4749 78.1972ZM57.4507 75.5335C57.3036 75.4525 57.1639 75.3642 57.0168 75.2686L55.3472 77.8293C55.5458 77.9617 55.7517 78.0795 55.9503 78.1972L57.4507 75.5335ZM43.1671 77.3436L40.5413 75.7763C40.4163 75.9897 40.2913 76.2178 40.1883 76.4459L42.9612 77.741C43.02 77.6085 43.0862 77.4687 43.1671 77.3436ZM65.6517 77.1523L63.3569 75.1288C63.2613 75.2318 63.1656 75.3348 63.0553 75.4305L65.0927 77.7116C65.2913 77.535 65.4751 77.351 65.6517 77.1523ZM56.5828 74.9743C56.4431 74.8712 56.3033 74.7682 56.1636 74.6505L54.2292 77.0199C54.4131 77.167 54.5896 77.3069 54.7735 77.4393L56.5828 74.9743ZM43.704 76.6151L41.4387 74.5622C41.2695 74.7461 41.1077 74.9448 40.9532 75.1508L43.4098 76.9684C43.5054 76.8433 43.6011 76.7255 43.704 76.6151ZM55.7591 74.3046L55.6046 74.1648C55.4943 74.0618 55.3766 73.9588 55.2589 73.8631L53.3172 76.2252C53.3907 76.284 53.4569 76.3429 53.5157 76.4018L53.7143 76.5857L55.7591 74.3046ZM66.549 75.8499L63.835 74.4371C63.7688 74.5622 63.6952 74.6799 63.6217 74.7976L66.1445 76.5269C66.2842 76.3135 66.4239 76.078 66.549 75.8499ZM44.3881 75.9971L42.5493 73.5467C42.3507 73.6939 42.1595 73.8558 41.9756 74.0177L44.0277 76.2914C44.138 76.1884 44.263 76.0854 44.3881 75.9971ZM45.1898 75.4967L43.807 72.7667C43.5864 72.8771 43.3731 73.0022 43.1671 73.1273L44.7779 75.7322C44.9103 75.6439 45.05 75.5629 45.1898 75.4967ZM67.1006 74.3709L64.1292 73.6424C64.0924 73.7822 64.0556 73.9146 64.0041 74.0471L66.8653 75.1214C66.9609 74.8786 67.0418 74.6284 67.1006 74.3709ZM67.2992 72.8256L64.2395 72.7741C64.2395 72.9213 64.2248 73.0684 64.2101 73.2083L67.2404 73.5909C67.2771 73.3481 67.2919 73.0905 67.2992 72.8256ZM67.2772 72.0971C67.2624 71.8396 67.233 71.5894 67.1962 71.3613L64.1733 71.8249C64.1954 71.972 64.2101 72.1266 64.2248 72.2958L67.2772 72.0971ZM67.0492 70.6108C66.983 70.3532 66.902 70.103 66.8064 69.8602L63.96 70.986C64.0115 71.1111 64.0556 71.2436 64.0924 71.3907L67.0492 70.6108ZM66.4534 69.1244C66.3136 68.8815 66.1592 68.6461 65.99 68.4327L63.5775 70.3091C63.6511 70.4047 63.7246 70.5151 63.7835 70.6255L66.4534 69.1244ZM65.4237 67.8072C65.2251 67.6232 65.0118 67.4466 64.7838 67.2848L63.0185 69.7793C63.1289 69.8528 63.2245 69.9411 63.3201 70.0294L65.4237 67.8072ZM64.0997 66.8653C63.8717 66.7476 63.6364 66.6372 63.3937 66.5416L62.283 69.3893C62.4154 69.4408 62.5478 69.4996 62.6802 69.5659L64.0997 66.8653ZM62.6729 66.3061C62.4301 66.2399 62.1948 66.181 61.9594 66.1369L61.3783 69.1391C61.5328 69.1685 61.6873 69.2053 61.8491 69.2495L62.6729 66.3061ZM61.2533 66.0265C61.0106 65.9971 60.7752 65.975 60.5546 65.9603L60.3633 69.014C60.5252 69.0213 60.7017 69.0361 60.8782 69.0581L61.2533 66.0265ZM58.4363 85.7248L56.1783 83.6645L55.9944 83.8631L58.2083 85.975C58.2819 85.894 58.3628 85.8131 58.4363 85.7248ZM56.0238 47.351C55.9576 49.4113 54.266 51.0596 52.1918 51.0596H46.83C44.7558 51.0596 43.0641 49.4113 42.9979 47.351H56.0238ZM78.5599 26.284H20.4619C19.8146 26.284 19.2851 26.8138 19.2851 27.4614V28.5136C19.2851 29.1611 19.8146 29.6909 20.4619 29.6909H78.5599C79.2071 29.6909 79.7367 29.1611 79.7367 28.5136V27.4614C79.7367 26.8138 79.2071 26.284 78.5599 26.284ZM62.8567 28.3664H20.9326C20.6164 28.3664 20.3589 28.1089 20.3589 27.7925C20.3589 27.4761 20.6164 27.2185 20.9326 27.2185H62.8567C63.173 27.2185 63.4304 27.4761 63.4304 27.7925C63.4304 28.1089 63.173 28.3664 62.8567 28.3664ZM73.3525 28.3664H65.2104C64.8941 28.3664 64.6367 28.1089 64.6367 27.7925C64.6367 27.4761 64.8941 27.2185 65.2104 27.2185H73.3525C73.6687 27.2185 73.9262 27.4761 73.9262 27.7925C73.9262 28.1089 73.6687 28.3664 73.3525 28.3664ZM21.1312 31.2656C22.1242 39.5879 29.1924 46.0338 37.7758 46.0338H61.246C69.8294 46.0338 76.8976 39.5806 77.8906 31.2656H21.1312ZM35.5252 41.9279C34.5469 43.245 31.4504 42.6122 28.604 40.5077C25.7576 38.4032 24.2351 35.6291 25.2133 34.3046C26.1915 32.9801 29.288 33.6203 32.1345 35.7248C34.9809 37.8366 36.496 40.6107 35.5252 41.9279ZM41.1812 41.9132C40.6222 42.4871 39.1733 41.9647 37.9376 40.7579C36.7093 39.5511 36.1651 38.1089 36.724 37.5349C37.283 36.961 38.732 37.4834 39.9676 38.6902C41.196 39.9043 41.7402 41.3466 41.1812 41.9132ZM57.6199 65.6439V69.301H60.1206V65.6439H57.6199ZM59.1424 66.9757H58.5246C58.2451 66.9757 58.0244 66.7476 58.0244 66.4753C58.0244 66.1957 58.2524 65.975 58.5246 65.975H59.1424C59.4219 65.975 59.6426 66.2031 59.6426 66.4753C59.6426 66.755 59.4219 66.9757 59.1424 66.9757ZM56.9579 69.4776V65.4231H52.6552V63.2377H46.3372V70.5739H45.7855V71.9058H53.2068V70.5739H52.6625V69.4776H56.9579ZM53.3319 65.7174H56.2886C56.5681 65.7174 56.7888 65.9456 56.7888 66.2178C56.7888 66.4974 56.5608 66.7182 56.2886 66.7182H53.3319C53.0524 66.7182 52.8317 66.4901 52.8317 66.2178C52.8317 65.9456 53.0597 65.7174 53.3319 65.7174ZM46.9844 64.518C46.9844 64.2384 47.2124 64.0177 47.4846 64.0177C47.7641 64.0177 47.9847 64.2458 47.9847 64.518V69.6026C47.9847 69.8823 47.7567 70.103 47.4846 70.103C47.2051 70.103 46.9844 69.8749 46.9844 69.6026V64.518ZM46.0503 73.039V82.259C46.0503 83.9514 47.4184 85.3201 49.11 85.3201H49.875C51.5666 85.3201 52.9347 83.9514 52.9347 82.259V73.039H46.0503ZM47.7273 81.4937C47.7273 81.7881 47.4846 82.0309 47.1904 82.0309C46.8962 82.0309 46.6534 81.7881 46.6534 81.4937V74.8639C46.6534 74.5695 46.8962 74.3267 47.1904 74.3267C47.4846 74.3267 47.7273 74.5695 47.7273 74.8639V81.4937ZM45.4766 18.6461C44.7852 18.6461 44.2262 19.2053 44.2262 19.897V21.3981H44.3586V21.6041H46.5578V21.3981H46.7343V21.1626H47.4772V25.3569H51.6476V18.6461C51.6402 18.6461 45.7414 18.6461 45.4766 18.6461ZM45.8591 20.3238C45.5649 20.3238 45.3222 20.1839 45.3222 20.0147C45.3222 19.9853 45.3369 19.9632 45.3442 19.9411C44.9029 19.919 44.5499 19.6762 44.5499 19.3672C44.5499 19.0434 44.9323 18.7785 45.4031 18.7785C45.8738 18.7785 46.2563 19.0434 46.2563 19.3672C46.2563 19.507 46.1753 19.6321 46.0503 19.7351C46.2415 19.7792 46.3813 19.8896 46.3813 20.0221C46.396 20.1839 46.1533 20.3238 45.8591 20.3238ZM47.3816 18.028L51.8094 16.5563L51.3754 15.2465C51.3533 15.1729 51.3166 15.1067 51.2798 15.0405L57.3992 12.9654C57.4728 12.9433 57.5169 12.8624 57.4949 12.7814L57.333 12.2884C57.311 12.2149 57.2301 12.1707 57.1492 12.1928L50.7061 14.3709C50.2869 14.0839 49.7426 13.9809 49.2204 14.1575L48.0215 14.5548C47.1315 14.8491 46.6461 15.8131 46.9403 16.7034L47.3816 18.028ZM48.0362 14.8712L49.4704 14.3929C49.6984 14.3193 49.9412 14.4444 50.0221 14.6725C50.0956 14.9006 49.9706 15.1435 49.7426 15.2171L48.3083 15.6953C48.0803 15.7689 47.8376 15.6438 47.7567 15.4157C47.6832 15.1876 47.8082 14.9448 48.0362 14.8712Z" fill="#E83A15"/>
<path d="M71.4843 67.2112C71.8226 66.9242 72.1315 66.652 72.411 66.3944C72.6905 66.1369 72.9332 65.9014 73.1392 65.6807C73.3451 65.4599 73.4995 65.2686 73.6099 65.1067C73.7202 64.9375 73.779 64.805 73.779 64.702C73.779 64.5328 73.7423 64.415 73.6687 64.3341C73.5952 64.2605 73.4848 64.2237 73.3377 64.2237C73.1906 64.2237 73.0803 64.2605 73.0067 64.3341C72.9332 64.4077 72.8964 64.5328 72.8964 64.702V65.0258H71.6019V63.4879C71.7122 63.429 71.8373 63.3775 71.9697 63.3334C72.1021 63.2892 72.2639 63.2451 72.4404 63.2009C72.6243 63.1568 72.8155 63.1273 73.0215 63.0979C73.2274 63.0758 73.4333 63.0611 73.6466 63.0611C74.2571 63.0611 74.7205 63.1862 75.0221 63.4364C75.3236 63.6866 75.4781 64.0471 75.4781 64.5328C75.4781 64.7977 75.4192 65.0479 75.2942 65.2907C75.1692 65.5335 75.0147 65.7616 74.8235 65.975C74.6322 66.1957 74.4263 66.4018 74.1983 66.5931C73.9703 66.7844 73.757 66.9684 73.551 67.1376H74.338V66.7623H75.6031V68.2046H71.4916V67.2112H71.4843Z" fill="#00045F"/>
<path d="M80.2589 65.6806C80.2589 66.1589 80.2074 66.5563 80.0971 66.8874C79.9868 67.2185 79.8397 67.4834 79.6411 67.6968C79.4425 67.9028 79.2071 68.0574 78.9276 68.153C78.6481 68.2487 78.3319 68.2928 77.9788 68.2928C77.6258 68.2928 77.3169 68.2487 77.03 68.153C76.7505 68.0574 76.5078 67.9102 76.3166 67.6968C76.118 67.4908 75.9709 67.2185 75.8605 66.8874C75.7502 66.5563 75.6987 66.1516 75.6987 65.6806C75.6987 65.2097 75.7502 64.805 75.8605 64.4738C75.9709 64.1427 76.118 63.8705 76.3166 63.6644C76.5151 63.4584 76.7505 63.3039 77.03 63.2082C77.3095 63.1125 77.6258 63.0684 77.9788 63.0684C78.3319 63.0684 78.6408 63.1125 78.9276 63.2082C79.2071 63.3039 79.4498 63.4511 79.6411 63.6644C79.8397 63.8705 79.9868 64.1427 80.0971 64.4738C80.2074 64.8123 80.2589 65.2097 80.2589 65.6806ZM77.9788 67.1376C78.1259 67.1376 78.2363 67.1008 78.3098 67.0272C78.3834 66.9536 78.4201 66.8285 78.4201 66.6593V64.702C78.4201 64.5327 78.3834 64.415 78.3098 64.3341C78.2363 64.2605 78.1259 64.2237 77.9788 64.2237C77.8317 64.2237 77.7214 64.2605 77.6478 64.3341C77.5743 64.4076 77.5375 64.5327 77.5375 64.702V66.6593C77.5375 66.8285 77.5743 66.9463 77.6478 67.0272C77.7214 67.1008 77.8317 67.1376 77.9788 67.1376Z" fill="#00045F"/>
<path d="M80.4428 63.4952L81.8844 63.1641H83.1348V67.1449H83.6791V68.2045H80.6414V67.1449H81.2666V64.231H80.4501V63.4952H80.4428Z" fill="#00045F"/>
<path d="M87.8935 64.437C87.739 64.3855 87.5552 64.3414 87.3345 64.2972C87.1138 64.2531 86.8711 64.2236 86.6137 64.2236C86.3048 64.2236 86.0768 64.3046 85.937 64.4738C85.7973 64.6431 85.7237 64.8565 85.7237 65.114V65.3053C85.8561 65.2612 86.0032 65.217 86.1797 65.1802C86.3489 65.1435 86.5181 65.1214 86.6799 65.1214C86.8711 65.1214 87.0624 65.1434 87.2462 65.1876C87.4301 65.2317 87.5919 65.3053 87.739 65.4157C87.8788 65.5261 87.9965 65.6732 88.0847 65.8572C88.173 66.0412 88.2171 66.2766 88.2171 66.5636C88.2171 67.167 88.0406 67.6011 87.6876 67.8807C87.3345 68.1604 86.827 68.2928 86.1797 68.2928C85.8267 68.2928 85.5178 68.2487 85.2309 68.1604C84.9514 68.0721 84.7161 67.9323 84.5175 67.7483C84.3189 67.5643 84.1718 67.3289 84.0615 67.0419C83.9511 66.7623 83.8997 66.4238 83.8997 66.0412C83.8997 65.5114 83.9585 65.0551 84.0762 64.6799C84.1939 64.3046 84.363 63.9955 84.5763 63.7601C84.7896 63.5246 85.0471 63.348 85.3486 63.2376C85.6428 63.1273 85.9738 63.0757 86.3416 63.0757C86.5254 63.0757 86.6946 63.0831 86.8564 63.1052C87.0109 63.1273 87.158 63.1493 87.283 63.1861C87.4154 63.2155 87.5257 63.2524 87.6287 63.2965C87.7317 63.3333 87.8199 63.3701 87.9008 63.4069V64.437H87.8935ZM86.1503 66.1368C86.0988 66.1368 86.0327 66.1442 85.9591 66.1589C85.8856 66.1736 85.812 66.1957 85.7237 66.2251V66.6666C85.7237 66.8359 85.7605 66.9536 85.8341 67.0345C85.9076 67.1081 86.0179 67.1449 86.165 67.1449C86.3121 67.1449 86.4225 67.1081 86.496 67.0345C86.5696 66.961 86.6064 66.8359 86.6064 66.6666C86.6137 66.3134 86.4592 66.1368 86.1503 66.1368Z" fill="#00045F"/>
<path d="M13.2171 63.4952L14.6513 63.1641H15.9017V67.1449H16.446V68.2045H13.4083V67.1449H14.0335V64.231H13.2171V63.4952Z" fill="#00045F"/>
<path d="M16.902 66.9242C17.0712 66.9831 17.2698 67.0272 17.5051 67.0713C17.7405 67.1155 18.0053 67.1376 18.3068 67.1376C18.5716 67.1376 18.7702 67.064 18.9026 66.9095C19.035 66.755 19.1012 66.5342 19.1012 66.2546V66.1221C18.9835 66.1663 18.8511 66.2031 18.6967 66.2472C18.5422 66.2914 18.3583 66.3061 18.1524 66.3061C17.9612 66.3061 17.7699 66.284 17.5861 66.2399C17.4022 66.1957 17.2404 66.1221 17.0933 66.0118C16.9535 65.9014 16.8358 65.7542 16.7476 65.5629C16.6593 65.3716 16.6152 65.1361 16.6152 64.8418C16.6152 64.231 16.7917 63.7822 17.1447 63.5026C17.4978 63.2229 17.9979 63.0831 18.6599 63.0831C19.0203 63.0831 19.3366 63.1273 19.6234 63.2156C19.9029 63.3039 20.1456 63.4437 20.3369 63.6276C20.5281 63.8116 20.6825 64.0471 20.7855 64.3267C20.8885 64.6063 20.94 64.9448 20.94 65.3274C20.94 65.8793 20.8811 66.3429 20.7782 66.7182C20.6678 67.0934 20.506 67.4025 20.2927 67.638C20.0794 67.8734 19.822 68.0427 19.5204 68.1457C19.2189 68.2487 18.8732 68.3002 18.4981 68.3002C18.1303 68.3002 17.8214 68.2634 17.564 68.1898C17.3065 68.1162 17.0859 68.05 16.9094 67.9764V66.9242H16.902ZM18.6746 65.2833C18.7555 65.2833 18.8364 65.2759 18.9026 65.2539C18.9688 65.2318 19.035 65.217 19.0938 65.195V64.702C19.0938 64.5327 19.0571 64.415 18.9835 64.3341C18.91 64.2605 18.7996 64.2237 18.6525 64.2237C18.5054 64.2237 18.3951 64.2605 18.3216 64.3414C18.248 64.4223 18.2112 64.5622 18.2112 64.7682C18.2186 65.1067 18.3657 65.2833 18.6746 65.2833Z" fill="#00045F"/>
<path d="M21.4622 63.1641H24.9044V64.4224H22.7567L22.6979 65.0993C22.8082 65.0331 22.948 64.9816 23.1171 64.9374C23.2863 64.8933 23.4408 64.8786 23.5805 64.8786C23.8306 64.8786 24.0586 64.9154 24.2572 64.9963C24.4558 65.0772 24.6249 65.1803 24.7573 65.3201C24.8897 65.4599 24.9927 65.6291 25.0662 65.8278C25.1398 66.0265 25.1766 66.2399 25.1766 66.4753C25.1766 67.0787 25 67.5423 24.647 67.8661C24.2939 68.1972 23.7938 68.3591 23.1466 68.3591C22.9112 68.3591 22.6905 68.3443 22.4993 68.3149C22.3081 68.2855 22.1315 68.2487 21.9771 68.2045C21.8226 68.1604 21.6829 68.1089 21.5652 68.05C21.4475 67.9912 21.3445 67.9396 21.2489 67.8881V66.5857H22.7494C22.7494 66.7402 22.7714 66.8506 22.8156 66.9389C22.8597 67.0198 22.9553 67.064 23.0951 67.064C23.2201 67.064 23.3084 67.0199 23.3598 66.9316C23.4113 66.8433 23.4334 66.6961 23.4334 66.4901C23.4334 66.2693 23.4113 66.1148 23.3598 66.0118C23.3084 65.9161 23.2201 65.8646 23.0877 65.8646C22.9553 65.8646 22.8671 65.9014 22.8229 65.9823C22.7788 66.0633 22.7494 66.1516 22.7494 66.2472H21.5211L21.2269 65.7984L21.4622 63.1641Z" fill="#00045F"/>
<path d="M26.1548 63.1641H27.692L26.8976 65.7248H27.4787V64.8344H29.1556V65.7248H29.6705V66.7108H29.1556V67.064H29.5528V68.2045H26.6549V67.064H27.4787V66.7108H25.3751V65.5997L26.1548 63.1641Z" fill="#00045F"/>
<path d="M99.7941 45.195L96.9991 42.6564L98.8967 39.404C98.5952 38.0059 98.2421 36.6299 97.8302 35.2759L94.594 33.3554L95.7929 29.816C95.2118 28.4989 94.5866 27.2112 93.9026 25.9529L90.3722 24.7314L90.8282 21.0522C89.9897 19.8676 89.0997 18.7196 88.1656 17.6159L84.4954 17.1376L84.2012 13.4584C83.1421 12.465 82.0388 11.5158 80.8914 10.6181L77.2065 10.883L76.1768 7.31419C74.9485 6.55628 73.6834 5.85724 72.3889 5.2097L68.8144 6.21781L67.0712 2.9139C65.7326 2.42825 64.3572 2.00147 62.967 1.62619L59.6572 3.34069L57.2889 0.44886C55.8841 0.242826 54.4572 0.0956505 53.0156 0.0147086L50.1103 2.36938L47.1904 0C45.7635 0.0809419 44.3513 0.228103 42.9538 0.41942L40.5413 3.34069L37.1653 1.5894C35.8046 1.94996 34.4734 2.36202 33.1642 2.83296L31.3842 6.21781L27.692 5.17292C26.4563 5.79102 25.2427 6.44591 24.0659 7.16703L22.992 10.883L19.138 10.6034C18.0568 11.4496 17.0123 12.34 16.0121 13.2671L15.7031 17.1376L11.827 17.6453C10.9591 18.6755 10.128 19.7351 9.34097 20.8389L9.82641 24.7388L6.06796 26.0412C5.43542 27.1965 4.86171 28.3812 4.32478 29.5879L5.59722 33.3628L2.14034 35.4157C1.76523 36.6519 1.44159 37.9102 1.1621 39.1832L3.19211 42.6637L0.19858 45.3863C0.0808981 46.6593 0.0147102 47.947 0 49.2421L2.70667 52.259L0.301562 55.5556C0.441309 56.8212 0.632534 58.0795 0.867897 59.3157L4.16299 61.7513L2.4566 65.5041C2.84642 66.6961 3.273 67.8735 3.75109 69.0214L7.50219 70.7579L6.58281 74.7829C7.20063 75.8646 7.84789 76.9242 8.53927 77.9544L12.5846 78.9036L12.4963 83.039C13.3201 83.9735 14.1733 84.8786 15.0632 85.7469L19.2042 85.8646L19.947 89.9559C20.9326 90.699 21.955 91.3981 22.9994 92.0751L27.0815 91.3539L28.6334 95.2097C29.744 95.7395 30.8841 96.2178 32.0462 96.6667L35.9003 95.1435L38.1877 98.5872C39.3939 98.8815 40.6149 99.1317 41.8505 99.3304L45.3001 97.0714L48.2053 99.9559C48.8085 99.9779 49.4042 100 50.0073 100C50.6767 100 51.3386 99.9779 52.0006 99.9485L54.8985 97.064L58.3113 99.301C59.5763 99.0876 60.8193 98.8374 62.0477 98.5283L64.2983 95.1288L68.0641 96.6152C69.2704 96.1516 70.4545 95.6512 71.6093 95.092L73.1244 91.3392L77.0594 92.0309C78.1627 91.3172 79.2439 90.5666 80.2883 89.7719L81.0017 85.8499L84.9515 85.7395C85.9076 84.805 86.827 83.8264 87.7023 82.8183L87.614 78.8889L91.4313 77.9912C92.1889 76.8727 92.895 75.7175 93.5569 74.5401L92.689 70.7432L96.2121 69.1097C96.7343 67.8514 97.205 66.5637 97.6243 65.2539L96.0209 61.7366L99.1027 59.4555C99.3675 58.0942 99.5734 56.7182 99.7279 55.3201L97.4772 52.237L100 49.4261C99.9926 48.0059 99.9191 46.5931 99.7941 45.195ZM50 94.3415C25.5001 94.3415 5.64135 74.4739 5.64135 49.9632C5.64135 25.4525 25.5001 5.58499 50 5.58499C74.4998 5.58499 94.3586 25.4525 94.3586 49.9632C94.3586 74.4739 74.4998 94.3415 50 94.3415Z" fill="#E83A15"/>
</svg>
