<svg width="100" height="100" viewBox="0 0 100 100" fill="none" xmlns="http://www.w3.org/2000/svg">
<path d="M18.1747 60.1502L20.4799 62.4663L20.0251 62.9233C19.3024 63.0047 18.4488 63.1361 17.5641 63.2363L14.9348 59.4491C14.941 59.4554 15.9629 59.9687 18.1747 60.1502ZM21.1279 62.4726L20.3616 63.2425L21.7821 64.6697L22.5485 63.8998L24.0812 62.3599L16.8102 53.6088L15.5267 53.0141L14.7292 56.0501L21.1279 62.4726ZM30.6668 68.6071L28.4924 70.7918L30.0251 72.3317L32.1995 70.147L30.6668 68.6071ZM29.4581 68.5383C29.4207 68.5007 29.3833 68.4631 29.3459 68.4256C29.3771 68.3317 29.3771 68.2503 29.3397 68.2128C29.2961 68.1689 29.2213 68.1689 29.1279 68.2065C29.0905 68.1689 29.0531 68.1314 29.0157 68.0938C29.0469 67.9999 29.0469 67.9186 29.0095 67.881C28.9659 67.8372 28.8911 67.8372 28.7977 67.8747C28.7603 67.8372 28.7229 67.7996 28.6855 67.7621C28.7167 67.6682 28.7167 67.5868 28.6793 67.5492C28.6357 67.5054 28.5609 67.5054 28.4674 67.543C28.4301 67.5054 28.3927 67.4678 28.3553 67.4303C28.3864 67.3364 28.3864 67.255 28.3491 67.2175C28.3054 67.1736 28.2307 67.1736 28.1372 67.2112C28.0998 67.1736 28.0625 67.1361 28.0251 67.0985C28.0562 67.0046 28.0562 66.9233 28.0188 66.8857C27.9752 66.8419 27.9005 66.8419 27.807 66.8794C27.7696 66.8419 27.7322 66.8043 27.6949 66.7668C27.726 66.6729 27.726 66.5915 27.6886 66.5539C27.645 66.5101 27.5702 66.5101 27.4768 66.5477C27.4394 66.5101 27.402 66.4726 27.3646 66.435C27.3958 66.3411 27.3958 66.2597 27.3584 66.2222C27.3148 66.1783 27.24 66.1783 27.1466 66.2159C27.1092 66.1783 27.0718 66.1408 27.0344 66.1032C27.0656 66.0093 27.0656 65.928 27.0282 65.8904C26.9846 65.8466 26.9098 65.8466 26.8164 65.8841C26.779 65.8466 26.7416 65.809 26.7042 65.7715C26.7354 65.6776 26.7354 65.5962 26.698 65.5586C26.6544 65.5148 26.5796 65.5148 26.4861 65.5524C26.4488 65.5148 26.4114 65.4773 26.374 65.4397C26.4052 65.3458 26.4051 65.2644 26.3678 65.2269C26.3242 65.183 26.2494 65.183 26.1559 65.2206C26.1185 65.183 26.0812 65.1455 26.0438 65.1079C26.0749 65.014 26.0749 64.9327 26.0375 64.8951C25.9939 64.8513 25.9192 64.8513 25.8257 64.8888C25.7883 64.8513 25.751 64.8137 25.7136 64.7762C25.7447 64.6823 25.7447 64.6009 25.7073 64.5633C25.6637 64.5195 25.589 64.5195 25.4955 64.5571C25.4581 64.5195 25.4207 64.482 25.3834 64.4444C25.4145 64.3505 25.4145 64.2691 25.3771 64.2316C25.3335 64.1877 25.2587 64.1877 25.1653 64.2253C25.1279 64.1877 25.0905 64.1502 25.0531 64.1126C25.0843 64.0187 25.0843 63.9374 25.0469 63.8998C25.0033 63.856 24.9285 63.856 24.8351 63.8935C24.7977 63.856 24.7603 63.8184 24.7229 63.7809C24.7541 63.687 24.7541 63.6056 24.7167 63.568C24.6731 63.5242 24.5983 63.5242 24.5049 63.5618C24.4675 63.5242 24.4301 63.4867 24.3927 63.4491C24.4238 63.3552 24.4239 63.2738 24.3865 63.2363C24.3429 63.1924 24.2681 63.1924 24.1746 63.23C24.1435 63.1987 24.1061 63.1612 24.0749 63.1299L23.0344 64.1752C23.0656 64.2065 23.0967 64.2378 23.1279 64.2691C23.0843 64.3818 23.0781 64.4694 23.1279 64.5133C23.1715 64.5571 23.2588 64.5571 23.3709 64.5133C23.4021 64.5446 23.4332 64.5758 23.4644 64.6071C23.4207 64.7198 23.4145 64.8075 23.4644 64.8513C23.508 64.8951 23.5952 64.8951 23.7074 64.8513C23.7385 64.8826 23.7697 64.9139 23.8008 64.9452C23.7572 65.0578 23.751 65.1455 23.8008 65.1893C23.8444 65.2331 23.9316 65.2269 24.0438 65.1893C24.0749 65.2206 24.1061 65.2519 24.1373 65.2832C24.0936 65.3959 24.0874 65.4835 24.1373 65.5273C24.1809 65.5711 24.2681 65.5711 24.3802 65.5273C24.4114 65.5586 24.4425 65.5899 24.4737 65.6212C24.4301 65.7339 24.4238 65.8215 24.4737 65.8654C24.5173 65.9092 24.6045 65.9092 24.7167 65.8654C24.7478 65.8967 24.779 65.928 24.8101 65.9593C24.7665 66.0719 24.7603 66.1596 24.8101 66.2034C24.8538 66.2472 24.941 66.2409 25.0531 66.2034C25.0843 66.2347 25.1154 66.266 25.1466 66.2973C25.103 66.41 25.0968 66.4976 25.1466 66.5414C25.1902 66.5852 25.2774 66.5852 25.3896 66.5414C25.4207 66.5727 25.4519 66.604 25.483 66.6353C25.4394 66.748 25.4332 66.8356 25.483 66.8794C25.5266 66.9233 25.6139 66.917 25.726 66.8794C25.7572 66.9107 25.7883 66.942 25.8195 66.9733C25.7759 67.086 25.7696 67.1736 25.8195 67.2175C25.8631 67.2613 25.9503 67.255 26.0625 67.2175C26.0936 67.2488 26.1248 67.2801 26.1559 67.3114C26.1123 67.424 26.1061 67.5117 26.1559 67.5555C26.1995 67.5993 26.2868 67.5993 26.3989 67.5555C26.4301 67.5868 26.4612 67.6181 26.4924 67.6494C26.4488 67.7621 26.4425 67.8497 26.4924 67.8935C26.536 67.9373 26.6232 67.9311 26.7354 67.8935C26.7665 67.9248 26.7977 67.9561 26.8288 67.9874C26.7852 68.1001 26.779 68.1877 26.8288 68.2315C26.8724 68.2754 26.9597 68.2754 27.0718 68.2315C27.103 68.2628 27.1341 68.2941 27.1653 68.3254C27.1217 68.4381 27.1154 68.5257 27.1653 68.5696C27.2089 68.6134 27.2961 68.6134 27.4083 68.5696C27.4394 68.6009 27.4706 68.6322 27.5017 68.6635C27.4581 68.7761 27.4519 68.8638 27.5017 68.9076C27.5453 68.9514 27.6325 68.9451 27.7447 68.9076C27.7758 68.9389 27.807 68.9702 27.8382 69.0015C27.7946 69.1142 27.7883 69.2018 27.8382 69.2456C27.8818 69.2894 27.969 69.2894 28.0811 69.2456C28.1123 69.2769 28.1435 69.3082 28.1746 69.3395C28.131 69.4522 28.1248 69.5398 28.1746 69.5836C28.2182 69.6275 28.3055 69.6275 28.4176 69.5836C28.4488 69.6149 28.4799 69.6462 28.5111 69.6775C28.4674 69.7902 28.4612 69.8778 28.5111 69.9217C28.5547 69.9655 28.6419 69.9592 28.754 69.9217C28.7852 69.953 28.8101 69.978 28.8413 70.0093L29.8818 68.9639C29.8506 68.9326 29.8194 68.9013 29.7883 68.87C29.8194 68.7761 29.8195 68.6948 29.7821 68.6572C29.6325 68.5007 29.5578 68.5007 29.4581 68.5383ZM31.321 72.4944C31.3522 72.5257 31.3833 72.557 31.4145 72.5883C31.3709 72.701 31.3646 72.7886 31.4145 72.8324C31.4581 72.8763 31.5453 72.87 31.6574 72.8324C31.6886 72.8637 31.7198 72.895 31.7509 72.9263C31.7073 73.039 31.7011 73.1267 31.7509 73.1705C31.7945 73.2143 31.8817 73.208 31.9939 73.1705C32.025 73.2018 32.0562 73.2331 32.0873 73.2644C32.0437 73.377 32.0375 73.4647 32.0873 73.5085C32.131 73.5523 32.2182 73.5461 32.3303 73.5085C32.3615 73.5398 32.3926 73.5711 32.4238 73.6024C32.3802 73.7151 32.374 73.8027 32.4238 73.8465C32.4674 73.8903 32.5547 73.8903 32.6668 73.8465C32.698 73.8778 32.7291 73.9091 32.7603 73.9404C32.7166 74.0531 32.7104 74.1407 32.7603 74.1845C32.8039 74.2284 32.8911 74.2284 33.0032 74.1845C33.0344 74.2158 33.0655 74.2471 33.0967 74.2784C33.0531 74.3911 33.0468 74.4788 33.0967 74.5226C33.1403 74.5664 33.2275 74.5664 33.3397 74.5226C33.3708 74.5539 33.402 74.5852 33.4331 74.6165C33.3895 74.7291 33.3833 74.8168 33.4331 74.8606C33.4768 74.9044 33.564 74.8982 33.6761 74.8606C33.7073 74.8919 33.7384 74.9232 33.7696 74.9545C33.726 75.0672 33.7197 75.1548 33.7696 75.1986C33.8132 75.2424 33.9004 75.2424 34.0126 75.1986C34.0437 75.2299 34.0749 75.2612 34.106 75.2925C34.0624 75.4052 34.0562 75.4928 34.106 75.5367C34.1497 75.5805 34.2369 75.5805 34.349 75.5367C34.3802 75.568 34.4113 75.5992 34.4425 75.6305C34.3989 75.7432 34.3926 75.8309 34.4425 75.8747C34.4861 75.9185 34.5733 75.9122 34.6855 75.8747C40.4798 81.6962 45.6511 86.8918 45.6511 86.8918L46.6916 85.8464C46.6916 85.8464 41.539 80.6696 35.7197 74.823C35.7509 74.7291 35.7509 74.6478 35.7135 74.6102C35.6699 74.5664 35.5951 74.5664 35.5017 74.604C35.4643 74.5664 35.4269 74.5288 35.3895 74.4913C35.4207 74.3974 35.4207 74.316 35.3833 74.2784C35.3397 74.2346 35.2649 74.2346 35.1714 74.2722C35.1341 74.2346 35.0967 74.1971 35.0593 74.1595C35.0905 74.0656 35.0905 73.9842 35.0531 73.9467C35.0095 73.9029 34.9347 73.9029 34.8412 73.9404C34.8039 73.9029 34.7665 73.8653 34.7291 73.8277C34.7602 73.7339 34.7602 73.6525 34.7229 73.6149C34.6792 73.5711 34.6045 73.5711 34.511 73.6087C34.4736 73.5711 34.4363 73.5335 34.3989 73.496C34.43 73.4021 34.43 73.3207 34.3926 73.2831C34.3553 73.2456 34.2743 73.2393 34.1808 73.2769C34.1434 73.2393 34.106 73.2018 34.0687 73.1642C34.0998 73.0703 34.0998 72.9889 34.0624 72.9514C34.0188 72.9076 33.944 72.9076 33.8506 72.9451C33.8132 72.9076 33.7758 72.87 33.7384 72.8324C33.7696 72.7385 33.7696 72.6572 33.7322 72.6196C33.6886 72.5758 33.6138 72.5758 33.5204 72.6134C33.483 72.5758 33.4456 72.5382 33.4082 72.5007C33.4394 72.4068 33.4394 72.3254 33.402 72.2878C33.3584 72.244 33.2836 72.244 33.1902 72.2816C33.1528 72.244 33.1154 72.2065 33.078 72.1689C33.1091 72.075 33.1092 71.9936 33.0718 71.9561C33.0344 71.9185 32.9534 71.9123 32.8599 71.9498C32.8226 71.9123 32.7852 71.8747 32.7478 71.8371C32.7789 71.7433 32.7789 71.6619 32.7416 71.6243C32.7042 71.5868 32.6232 71.5805 32.5297 71.6181C32.4923 71.5805 32.4549 71.5429 32.4176 71.5054C32.4487 71.4115 32.4487 71.3301 32.4113 71.2926C32.3677 71.2487 32.293 71.2487 32.1995 71.2863C32.1621 71.2487 32.1247 71.2112 32.0873 71.1736C32.106 71.111 32.1123 71.0609 32.106 71.0171L30.8724 72.2565C30.9223 72.2628 30.9783 72.2565 31.0531 72.2252C31.0842 72.2565 31.1154 72.2879 31.1466 72.3191C31.1029 72.4318 31.0967 72.5195 31.1466 72.5633C31.1279 72.5445 31.2151 72.5382 31.321 72.4944ZM9.89435 45.2395L9.83828 44.8702L9.53299 44.5635C9.53299 44.5635 9.43952 44.4696 9.28999 44.3193C8.89747 43.925 8.10621 43.13 7.45201 42.4727C6.36167 41.3773 3.43956 43.5369 1.3835 45.6026C-0.585338 47.5807 -0.367275 49.8905 1.49564 51.7559C3.52055 53.7903 5.64516 55.9249 7.83829 58.1283L8.99716 53.3584C7.20901 51.5619 5.8196 50.1659 5.8196 50.1659V48.3005L6.0626 48.0564L6.97225 48.1879L7.42084 47.7371L7.35853 47.2927L7.80091 47.3553L8.24951 46.9046L8.1872 46.4602L8.62956 46.5228L9.07816 46.0721L9.01585 45.6276L9.45823 45.6902L9.89435 45.2395ZM36.8038 95.8996C32.7852 90.5976 8.17473 58.6729 8.17473 58.6729L9.78844 52.0126L9.05323 50.8921L8.86008 49.7653L9.30868 49.3146L9.75104 49.3772L9.68875 48.9328L10.1373 48.4821L10.5797 48.5447L10.5174 48.1002L10.966 47.6495L11.4084 47.7121L11.3461 47.2677L11.7947 46.817L12.1623 46.867L12.7105 47.4179L15.0657 52.9828L13.6513 58.385L39.7633 96.0248C39.7633 96.0248 38.1185 97.6335 36.8038 95.8996ZM13.6763 53.6902C14.1249 53.2395 14.1249 52.5071 13.6763 52.0564C13.2277 51.6057 12.4987 51.6057 12.0501 52.0564C11.6015 52.5071 11.6015 53.2395 12.0501 53.6902C12.5049 54.1409 13.2277 54.1409 13.6763 53.6902Z" fill="#E83A15"/>
<path d="M39.6699 18.26L37.3646 20.5761L36.9098 20.1191C36.8288 19.393 36.698 18.5354 36.5983 17.6465L40.3677 15.0049C40.3615 15.0112 39.8506 16.0378 39.6699 18.26ZM37.3584 21.2271L36.5921 20.4572L35.1715 21.8844L35.9379 22.6543L37.4706 24.1942L46.1808 16.8891L46.7727 15.5996L43.7509 14.7984L37.3584 21.2271ZM31.2525 30.8108L29.0781 28.6261L27.5454 30.166L29.7198 32.3507L31.2525 30.8108ZM31.3211 29.5964C31.3585 29.5588 31.3958 29.5213 31.4332 29.4837C31.5267 29.515 31.6077 29.515 31.6451 29.4774C31.6887 29.4336 31.6887 29.3585 31.6513 29.2646C31.6887 29.2271 31.7261 29.1895 31.7634 29.1519C31.8569 29.1832 31.9379 29.1832 31.9753 29.1457C32.0127 29.1081 32.0189 29.0267 31.9815 28.9328C32.0189 28.8953 32.0563 28.8577 32.0937 28.8202C32.1871 28.8515 32.2681 28.8515 32.3055 28.8139C32.3491 28.7701 32.3491 28.695 32.3117 28.6011C32.3491 28.5635 32.3865 28.526 32.4239 28.4884C32.5173 28.5197 32.5983 28.5197 32.6357 28.4821C32.6731 28.4446 32.6793 28.3632 32.6419 28.2693C32.6793 28.2318 32.7167 28.1942 32.7541 28.1566C32.8475 28.1879 32.9285 28.1879 32.9659 28.1504C33.0095 28.1066 33.0095 28.0314 32.9722 27.9375C33.0095 27.9 33.0469 27.8624 33.0843 27.8249C33.1778 27.8562 33.2588 27.8562 33.2961 27.8186C33.3398 27.7748 33.3398 27.6997 33.3024 27.6058C33.3398 27.5682 33.3771 27.5307 33.4145 27.4931C33.508 27.5244 33.589 27.5244 33.6264 27.4868C33.67 27.443 33.67 27.3679 33.6326 27.274C33.67 27.2365 33.7074 27.1989 33.7447 27.1613C33.8382 27.1926 33.9192 27.1926 33.9566 27.1551C34.0002 27.1113 34.0002 27.0361 33.9628 26.9422C34.0002 26.9047 34.0376 26.8671 34.0749 26.8296C34.1684 26.8609 34.2494 26.8609 34.2868 26.8233C34.3304 26.7795 34.3304 26.7044 34.293 26.6105C34.3304 26.5729 34.3678 26.5354 34.4052 26.4978C34.4986 26.5291 34.5796 26.5291 34.617 26.4915C34.6606 26.4477 34.6606 26.3726 34.6232 26.2787C34.6606 26.2412 34.698 26.2036 34.7354 26.166C34.8288 26.1973 34.9098 26.1973 34.9472 26.1598C34.9908 26.116 34.9908 26.0408 34.9535 25.9469C34.9908 25.9094 35.0282 25.8718 35.0656 25.8343C35.1591 25.8656 35.24 25.8656 35.2774 25.828C35.321 25.7842 35.321 25.7091 35.2837 25.6152C35.321 25.5776 35.3584 25.5401 35.3958 25.5025C35.4893 25.5338 35.5703 25.5338 35.6076 25.4962C35.6513 25.4524 35.6513 25.3773 35.6139 25.2834C35.6513 25.2459 35.6886 25.2083 35.726 25.1707C35.8195 25.202 35.9005 25.202 35.9379 25.1645C35.9815 25.1207 35.9815 25.0455 35.9441 24.9516C35.9815 24.9141 36.0189 24.8765 36.0562 24.839C36.1497 24.8703 36.2307 24.8703 36.2681 24.8327C36.3117 24.7889 36.3117 24.7138 36.2743 24.6199C36.3117 24.5823 36.3491 24.5448 36.3865 24.5072C36.4799 24.5385 36.5609 24.5385 36.5983 24.5009C36.6419 24.4571 36.6419 24.382 36.6045 24.2881C36.6357 24.2568 36.6731 24.2193 36.7042 24.188L35.6637 23.1426C35.6326 23.1739 35.6014 23.2052 35.5703 23.2365C35.4581 23.1927 35.3709 23.1864 35.3273 23.2365C35.2837 23.2803 35.2837 23.3679 35.3273 23.4806C35.2961 23.5119 35.265 23.5432 35.2338 23.5745C35.1217 23.5307 35.0344 23.5244 34.9908 23.5745C34.9472 23.6183 34.9472 23.706 34.9908 23.8186C34.9597 23.8499 34.9285 23.8812 34.8974 23.9125C34.7852 23.8687 34.698 23.8625 34.6544 23.9125C34.6108 23.9564 34.6108 24.044 34.6544 24.1567C34.6232 24.188 34.5921 24.2193 34.5609 24.2506C34.4488 24.2067 34.3616 24.2005 34.3179 24.2506C34.2743 24.2944 34.2806 24.382 34.3179 24.4947C34.2868 24.526 34.2556 24.5573 34.2245 24.5886C34.1123 24.5448 34.0251 24.5385 33.9815 24.5886C33.9379 24.6324 33.9441 24.72 33.9815 24.8327C33.9503 24.864 33.9192 24.8953 33.888 24.9266C33.7759 24.8828 33.6887 24.8765 33.645 24.9266C33.6014 24.9704 33.6077 25.0581 33.645 25.1707C33.6139 25.202 33.5827 25.2333 33.5516 25.2646C33.4394 25.2208 33.3522 25.2146 33.3086 25.2646C33.265 25.3085 33.265 25.3961 33.3086 25.5088C33.2775 25.5401 33.2463 25.5714 33.2151 25.6027C33.103 25.5588 33.0158 25.5526 32.9722 25.6027C32.9285 25.6465 32.9285 25.7341 32.9722 25.8468C32.941 25.8781 32.9099 25.9094 32.8787 25.9407C32.7666 25.8969 32.6793 25.8906 32.6357 25.9407C32.5921 25.9845 32.5921 26.0721 32.6357 26.1848C32.6046 26.2161 32.5734 26.2474 32.5423 26.2787C32.4301 26.2349 32.3429 26.2286 32.2993 26.2787C32.2556 26.3225 32.2556 26.4102 32.2993 26.5228C32.2681 26.5541 32.237 26.5854 32.2058 26.6167C32.0937 26.5729 32.0064 26.5667 31.9628 26.6167C31.9192 26.6606 31.9254 26.7482 31.9628 26.8609C31.9317 26.8922 31.9005 26.9235 31.8694 26.9548C31.7572 26.9109 31.67 26.9047 31.6264 26.9548C31.5828 26.9986 31.5828 27.0862 31.6264 27.1989C31.5952 27.2302 31.5641 27.2615 31.5329 27.2928C31.4208 27.249 31.3335 27.2427 31.2899 27.2928C31.2463 27.3366 31.2525 27.4242 31.2899 27.5369C31.2588 27.5682 31.2276 27.5995 31.1965 27.6308C31.0843 27.587 30.9971 27.5807 30.9535 27.6308C30.9099 27.6746 30.9161 27.7623 30.9535 27.8749C30.9223 27.9062 30.8912 27.9375 30.86 27.9688C30.7479 27.925 30.6606 27.9188 30.617 27.9688C30.5734 28.0127 30.5734 28.1003 30.617 28.213C30.5859 28.2443 30.5547 28.2756 30.5236 28.3069C30.4114 28.263 30.3242 28.2568 30.2806 28.3069C30.237 28.3507 30.237 28.4383 30.2806 28.551C30.2494 28.5823 30.2183 28.6136 30.1871 28.6449C30.075 28.6011 29.9877 28.5948 29.9441 28.6449C29.9005 28.6887 29.9005 28.7763 29.9441 28.889C29.913 28.9203 29.8881 28.9454 29.8569 28.9767L30.8974 30.022C30.9285 29.9907 30.9597 29.9594 30.9909 29.9281C31.0843 29.9594 31.1653 29.9594 31.2027 29.9219C31.3585 29.7716 31.3585 29.6965 31.3211 29.5964ZM27.3834 31.468C27.3523 31.4993 27.3211 31.5306 27.29 31.5619C27.1778 31.5181 27.0906 31.5119 27.047 31.5619C27.0033 31.6058 27.0033 31.6934 27.047 31.8061C27.0158 31.8374 26.9847 31.8687 26.9535 31.9C26.8414 31.8561 26.7541 31.8499 26.7105 31.9C26.6669 31.9438 26.6669 32.0314 26.7105 32.1441C26.6794 32.1754 26.6482 32.2067 26.6171 32.238C26.5049 32.1942 26.4177 32.1879 26.3741 32.238C26.3305 32.2818 26.3367 32.3694 26.3741 32.4821C26.3429 32.5134 26.3118 32.5447 26.2806 32.576C26.1685 32.5322 26.0812 32.5259 26.0376 32.576C25.994 32.6198 26.0002 32.7075 26.0376 32.8201C26.0065 32.8514 25.9753 32.8827 25.9442 32.914C25.832 32.8702 25.7448 32.864 25.7012 32.914C25.6576 32.9579 25.6638 33.0455 25.7012 33.1582C25.67 33.1895 25.6389 33.2208 25.6077 33.2521C25.4956 33.2082 25.4084 33.202 25.3647 33.2521C25.3211 33.2959 25.3274 33.3835 25.3647 33.4962C25.3336 33.5275 25.3024 33.5588 25.2713 33.5901C25.1591 33.5463 25.0719 33.54 25.0283 33.5901C24.9847 33.6339 24.9909 33.7215 25.0283 33.8342C24.9971 33.8655 24.966 33.8968 24.9348 33.9281C24.8227 33.8843 24.7354 33.878 24.6918 33.9281C24.6482 33.9719 24.6482 34.0596 24.6918 34.1722C24.6607 34.2035 24.6295 34.2348 24.5984 34.2661C24.4862 34.2223 24.399 34.2161 24.3554 34.2661C24.3118 34.31 24.3118 34.3976 24.3554 34.5103C24.3242 34.5416 24.2931 34.5729 24.2619 34.6042C24.1498 34.5603 24.0626 34.5541 24.0189 34.6042C23.9753 34.648 23.9816 34.7356 24.0189 34.8483C18.2246 40.6699 13.0533 45.8654 13.0533 45.8654L14.0938 46.9108C14.0938 46.9108 19.2464 41.734 25.0657 35.8874C25.1591 35.9187 25.2401 35.9187 25.2775 35.8812C25.3211 35.8373 25.3211 35.7622 25.2837 35.6683C25.3211 35.6308 25.3585 35.5932 25.3959 35.5556C25.4893 35.5869 25.5703 35.5869 25.6077 35.5494C25.6513 35.5056 25.6513 35.4305 25.614 35.3366C25.6513 35.299 25.6887 35.2614 25.7261 35.2239C25.8196 35.2552 25.9005 35.2552 25.9379 35.2176C25.9815 35.1738 25.9816 35.0987 25.9442 35.0048C25.9816 34.9672 26.0189 34.9297 26.0563 34.8921C26.1498 34.9234 26.2308 34.9234 26.2681 34.8859C26.3118 34.842 26.3118 34.7669 26.2744 34.673C26.3118 34.6355 26.3491 34.5979 26.3865 34.5603C26.48 34.5916 26.561 34.5916 26.5984 34.5541C26.642 34.5103 26.642 34.4352 26.6046 34.3413C26.642 34.3037 26.6794 34.2661 26.7167 34.2286C26.8102 34.2599 26.8912 34.2599 26.9286 34.2223C26.9722 34.1785 26.9722 34.1034 26.9348 34.0095C26.9722 33.9719 27.0096 33.9344 27.047 33.8968C27.1404 33.9281 27.2214 33.9281 27.2588 33.8906C27.3024 33.8467 27.3024 33.7716 27.265 33.6777C27.3024 33.6402 27.3398 33.6026 27.3772 33.565C27.4706 33.5963 27.5516 33.5963 27.589 33.5588C27.6326 33.515 27.6326 33.4399 27.5952 33.346C27.6326 33.3084 27.67 33.2708 27.7074 33.2333C27.8008 33.2646 27.8818 33.2646 27.9192 33.227C27.9628 33.1832 27.9628 33.1081 27.9255 33.0142C27.9628 32.9766 28.0002 32.9391 28.0376 32.9015C28.1311 32.9328 28.2121 32.9328 28.2494 32.8953C28.2931 32.8514 28.2931 32.7763 28.2557 32.6824C28.2931 32.6449 28.3304 32.6073 28.3678 32.5698C28.4613 32.6011 28.5423 32.6011 28.5797 32.5635C28.6233 32.5197 28.6233 32.4446 28.5859 32.3507C28.6233 32.3131 28.6607 32.2755 28.698 32.238C28.7603 32.2568 28.8102 32.263 28.8538 32.2568L27.6202 31.0173C27.6139 31.0674 27.6202 31.1238 27.6513 31.1989C27.6202 31.2302 27.589 31.2615 27.5579 31.2928C27.4457 31.2489 27.3585 31.2427 27.3149 31.2928C27.3336 31.2677 27.3398 31.3554 27.3834 31.468ZM54.511 9.94079L54.8786 9.88446L55.1839 9.57773C55.1839 9.57773 55.2773 9.48383 55.4268 9.3336C55.8194 8.93924 56.6106 8.14425 57.2648 7.48698C58.3552 6.39152 56.2056 3.4557 54.1496 1.38999C52.1808 -0.588088 49.8817 -0.368997 48.025 1.50267C46.0001 3.53708 43.8755 5.67165 41.6824 7.87508L46.43 9.03939C48.2182 7.24285 49.6076 5.84692 49.6076 5.84692H51.4642L51.7072 6.09105L51.5826 6.99872L52.0312 7.44942L52.4736 7.38682L52.4113 7.83126L52.8599 8.28196L53.3022 8.21937L53.2399 8.66381L53.6885 9.11451L54.1309 9.05191L54.0686 9.49635L54.511 9.94079ZM4.0876 36.9766C9.36482 32.9391 41.1403 8.21311 41.1403 8.21311L47.7696 9.83438L48.8848 9.09573L50.0063 8.90168L50.4549 9.35238L50.3926 9.79682L50.835 9.73422L51.2836 10.1849L51.2213 10.6294L51.6636 10.5668L52.1122 11.0175L52.0499 11.4619L52.4923 11.3993L52.9409 11.85L52.891 12.2193L52.3427 12.7702L46.8038 15.1364L41.4269 13.7154L3.963 39.95C3.963 39.95 2.36175 38.2974 4.0876 36.9766ZM46.0998 13.7405C46.5484 14.1912 47.2774 14.1912 47.726 13.7405C48.1745 13.2898 48.1745 12.5574 47.726 12.1067C47.2774 11.656 46.5484 11.656 46.0998 12.1067C45.6512 12.5574 45.6512 13.2898 46.0998 13.7405Z" fill="#E83A15"/>
<path d="M42.6792 37.4711V36.4069H41.0904V37.4711H40.5172V35.1237H43.2586V37.4711H42.6792ZM47.9938 44.5258H52.5358L50.2617 43.0986L47.9938 44.5258ZM62.0062 36.9453H60.1246V38.1659H56V36.9453H43.9378V38.1659H39.8132V36.9453H37.9316V44.5258H46.3053C46.1807 44.1941 46.2804 43.8122 46.5919 43.6182L48.8349 42.2097L48.1994 41.8091C47.6013 42.3161 46.7228 42.3975 46.025 41.9593C45.6137 41.6964 45.3334 41.3021 45.2212 40.8639L46.6916 41.277C46.6916 41.277 47.2399 41.3834 47.4331 40.5509C47.6324 39.6808 47.1776 39.5431 47.1776 39.5431L45.6636 39.1174C46.2555 38.4789 47.2337 38.3287 48 38.8044C48.5795 39.1675 48.891 39.7997 48.8723 40.4445L50.2679 41.3208L51.6636 40.4445C51.6449 39.806 51.9502 39.1737 52.5358 38.8044C53.3022 38.3224 54.2804 38.4727 54.8723 39.1174L53.3583 39.5431C53.3583 39.5431 52.8972 39.6808 53.1028 40.5509C53.296 41.3834 53.8442 41.277 53.8442 41.277L55.3146 40.8639C55.1962 41.3021 54.9221 41.7027 54.5109 41.9593C53.8131 42.3975 52.9346 42.3099 52.3364 41.8091L51.7009 42.2097L53.9439 43.6182C54.2555 43.8122 54.3614 44.1941 54.2305 44.5258H62.0249V36.9453H62.0062ZM59.433 37.4711V35.1237H56.6916V37.4711H57.2648V36.4069H58.8536V37.4711H59.433ZM46.7477 28.2004C46.7477 28.0252 46.891 27.8812 47.0655 27.8812H52.9221C53.0966 27.8812 53.2399 28.0252 53.2399 28.2004V29.1018H54.2804V27.7622C54.2804 27.2677 53.8816 26.8608 53.3894 26.8608H46.5483C46.0561 26.8608 45.6574 27.2615 45.6574 27.7622V29.1018H46.7477V28.2004ZM39.8194 36.2943H37.2524V32.8952C37.2524 31.4304 38.43 30.2474 39.8879 30.2474H44.835V29.6902H55.1028V30.2474H60.0498C61.5077 30.2474 62.6853 31.4304 62.6853 32.8952V36.2943H60.1183V34.4289H55.9937V36.2943H43.9315V34.4289H39.8069V36.2943H39.8194ZM59.19 31.3679C59.19 31.6996 59.4579 31.9688 59.7881 31.9688C60.5171 31.9688 61.109 32.5635 61.109 33.2959C61.109 33.6276 61.3769 33.8968 61.7071 33.8968C62.0373 33.8968 62.3052 33.6276 62.3052 33.2959C62.3052 31.8999 61.1775 30.7669 59.7881 30.7669C59.4579 30.7669 59.19 31.0361 59.19 31.3679ZM41.8069 31.3679C41.8069 31.6996 42.0748 31.9688 42.405 31.9688H57.5015C57.8317 31.9688 58.0997 31.6996 58.0997 31.3679C58.0997 31.0361 57.8317 30.7669 57.5015 30.7669H42.405C42.0748 30.7669 41.8069 31.0361 41.8069 31.3679ZM40.2992 31.9688C40.6294 31.9688 40.8973 31.6996 40.8973 31.3679C40.8973 31.0361 40.6294 30.7669 40.2992 30.7669C38.9098 30.7669 37.782 31.8999 37.782 33.2959C37.782 33.6276 38.0499 33.8968 38.3802 33.8968C38.7104 33.8968 38.9783 33.6276 38.9783 33.2959C38.9783 32.5635 39.5702 31.9688 40.2992 31.9688Z" fill="#E83A15"/>
<path d="M81.8316 39.8498L79.5264 37.5337L79.9812 37.0767C80.7039 36.9953 81.5575 36.8639 82.4422 36.7637L85.0715 40.5509C85.0653 40.5509 84.0435 40.0313 81.8316 39.8498ZM78.8784 37.5337L79.6447 36.7637L78.2242 35.3365L77.4578 36.1064L75.9251 37.6463L83.1961 46.3975L84.4796 46.9921L85.2771 43.9562L78.8784 37.5337ZM69.3395 31.3991L71.514 29.2145L69.9813 27.6746L67.8068 29.8592L69.3395 31.3991ZM70.5482 31.468C70.5856 31.5055 70.623 31.5431 70.6604 31.5806C70.6292 31.6745 70.6292 31.7559 70.6666 31.7935C70.7102 31.8373 70.785 31.8373 70.8784 31.7997C70.9158 31.8373 70.9532 31.8749 70.9906 31.9124C70.9594 32.0063 70.9594 32.0877 70.9968 32.1252C71.0404 32.1691 71.1152 32.1691 71.2087 32.1315C71.246 32.1691 71.2834 32.2066 71.3208 32.2442C71.2897 32.3381 71.2897 32.4195 71.327 32.457C71.3707 32.5008 71.4454 32.5008 71.5389 32.4633C71.5763 32.5008 71.6136 32.5384 71.651 32.5759C71.6199 32.6698 71.6199 32.7512 71.6573 32.7888C71.7009 32.8326 71.7756 32.8326 71.8691 32.795C71.9065 32.8326 71.9439 32.8701 71.9812 32.9077C71.9501 33.0016 71.9501 33.083 71.9875 33.1205C72.0311 33.1644 72.1059 33.1644 72.1993 33.1268C72.2367 33.1644 72.2741 33.2019 72.3115 33.2395C72.2803 33.3334 72.2803 33.4147 72.3177 33.4523C72.3613 33.4961 72.4361 33.4961 72.5295 33.4586C72.5669 33.4961 72.6043 33.5337 72.6417 33.5712C72.6105 33.6651 72.6105 33.7465 72.6479 33.7841C72.6915 33.8279 72.7663 33.8279 72.8597 33.7903C72.8971 33.8279 72.9345 33.8654 72.9719 33.903C72.9407 33.9969 72.9407 34.0783 72.9781 34.1158C73.0155 34.1534 73.0965 34.1597 73.19 34.1221C73.2273 34.1597 73.2647 34.1972 73.3021 34.2348C73.2709 34.3287 73.271 34.41 73.3083 34.4476C73.3519 34.4914 73.4267 34.4914 73.5202 34.4539C73.5576 34.4914 73.5949 34.529 73.6323 34.5665C73.6012 34.6604 73.6012 34.7418 73.6385 34.7794C73.6822 34.8232 73.7569 34.8232 73.8504 34.7856C73.8878 34.8232 73.9252 34.8607 73.9625 34.8983C73.9314 34.9922 73.9314 35.0736 73.9688 35.1111C74.0124 35.155 74.0871 35.155 74.1806 35.1174C74.218 35.155 74.2554 35.1925 74.2928 35.2301C74.2616 35.324 74.2616 35.4053 74.299 35.4429C74.3426 35.4867 74.4174 35.4867 74.5108 35.4492C74.5482 35.4867 74.5856 35.5243 74.623 35.5618C74.5918 35.6557 74.5918 35.7371 74.6292 35.7747C74.6728 35.8185 74.7476 35.8185 74.841 35.7809C74.8784 35.8185 74.9158 35.856 74.9532 35.8936C74.922 35.9875 74.922 36.0689 74.9594 36.1064C75.003 36.1503 75.0778 36.1503 75.1712 36.1127C75.2086 36.1503 75.246 36.1878 75.2834 36.2254C75.2523 36.3193 75.2522 36.4006 75.2896 36.4382C75.3332 36.482 75.408 36.482 75.5015 36.4445C75.5389 36.482 75.5762 36.5196 75.6136 36.5571C75.5825 36.651 75.5825 36.7324 75.6198 36.77C75.6635 36.8138 75.7382 36.8138 75.8317 36.7762C75.8628 36.8075 75.9002 36.8451 75.9314 36.8764L76.9719 35.831C76.9407 35.7997 76.9096 35.7684 76.8784 35.7371C76.922 35.6244 76.9283 35.5368 76.8784 35.493C76.8348 35.4492 76.7476 35.4492 76.6354 35.493C76.6043 35.4617 76.5731 35.4304 76.542 35.3991C76.5856 35.2864 76.5918 35.1988 76.542 35.155C76.4921 35.1111 76.4111 35.1111 76.299 35.155C76.2678 35.1237 76.2367 35.0924 76.2055 35.0611C76.2491 34.9484 76.2554 34.8607 76.2055 34.8169C76.1619 34.7731 76.0747 34.7731 75.9625 34.8169C75.9314 34.7856 75.9002 34.7543 75.8691 34.723C75.9127 34.6104 75.9189 34.5227 75.8691 34.4789C75.8255 34.4351 75.7382 34.4413 75.6261 34.4789C75.5949 34.4476 75.5638 34.4163 75.5326 34.385C75.5762 34.2723 75.5825 34.1847 75.5326 34.1409C75.489 34.0971 75.4018 34.0971 75.2896 34.1409C75.2585 34.1096 75.2273 34.0783 75.1962 34.047C75.2398 33.9343 75.246 33.8467 75.1962 33.8029C75.1526 33.759 75.0653 33.7653 74.9532 33.8029C74.922 33.7716 74.8909 33.7403 74.8597 33.709C74.9033 33.5963 74.9096 33.5086 74.8597 33.4648C74.8161 33.421 74.7289 33.4273 74.6167 33.4648C74.5856 33.4335 74.5544 33.4022 74.5233 33.3709C74.5669 33.2583 74.5731 33.1706 74.5233 33.1268C74.4797 33.083 74.3924 33.083 74.2803 33.1268C74.2491 33.0955 74.218 33.0642 74.1868 33.0329C74.2304 32.9202 74.2367 32.8326 74.1868 32.7888C74.1432 32.745 74.056 32.745 73.9439 32.7888C73.9127 32.7575 73.8815 32.7262 73.8504 32.6949C73.894 32.5822 73.9002 32.4946 73.8504 32.4507C73.8068 32.4069 73.7196 32.4132 73.6074 32.4507C73.5763 32.4195 73.5451 32.3882 73.514 32.3569C73.5576 32.2442 73.5638 32.1565 73.514 32.1127C73.4703 32.0689 73.3831 32.0689 73.271 32.1127C73.2398 32.0814 73.2087 32.0501 73.1775 32.0188C73.2211 31.9062 73.2273 31.8185 73.1775 31.7747C73.1339 31.7309 73.0466 31.7371 72.9345 31.7747C72.9033 31.7434 72.8722 31.7121 72.841 31.6808C72.8847 31.5681 72.8909 31.4805 72.841 31.4367C72.7974 31.3929 72.7102 31.3991 72.5981 31.4367C72.5669 31.4054 72.5357 31.3741 72.5046 31.3428C72.5482 31.2301 72.5544 31.1425 72.5046 31.0986C72.461 31.0548 72.3738 31.0548 72.2616 31.0986C72.2305 31.0673 72.1993 31.036 72.1682 31.0048C72.2118 30.8921 72.218 30.8044 72.1682 30.7606C72.1245 30.7168 72.0373 30.7231 71.9252 30.7606C71.894 30.7293 71.8629 30.698 71.8317 30.6667C71.8753 30.554 71.8816 30.4664 71.8317 30.4226C71.7881 30.3788 71.7009 30.385 71.5887 30.4226C71.5576 30.3913 71.5264 30.36 71.4953 30.3287C71.5389 30.216 71.5451 30.1284 71.4953 30.0846C71.4516 30.0407 71.3644 30.047 71.2523 30.0846C71.2211 30.0533 71.1962 30.0282 71.165 29.9969L70.1246 31.0423C70.1557 31.0736 70.1869 31.1049 70.218 31.1362C70.1869 31.2301 70.1869 31.3115 70.2243 31.349C70.3738 31.4993 70.4485 31.4993 70.5482 31.468ZM68.6853 27.5118C68.6542 27.4805 68.623 27.4492 68.5918 27.4179C68.6355 27.3052 68.6417 27.2176 68.5918 27.1738C68.5482 27.13 68.461 27.1362 68.3489 27.1738C68.3177 27.1425 68.2866 27.1112 68.2554 27.0799C68.299 26.9672 68.3053 26.8796 68.2554 26.8358C68.2118 26.7919 68.1246 26.7982 68.0124 26.8358C67.9813 26.8045 67.9501 26.7732 67.919 26.7419C67.9626 26.6292 67.9688 26.5416 67.919 26.4977C67.8754 26.4539 67.7881 26.4602 67.676 26.4977C67.6448 26.4664 67.6137 26.4351 67.5825 26.4038C67.6261 26.2912 67.6324 26.2035 67.5825 26.1597C67.5389 26.1159 67.4517 26.1159 67.3395 26.1597C67.3084 26.1284 67.2772 26.0971 67.2461 26.0658C67.2897 25.9531 67.2959 25.8655 67.2461 25.8217C67.2025 25.7779 67.1152 25.7779 67.0031 25.8217C66.9719 25.7904 66.9408 25.7591 66.9096 25.7278C66.9532 25.6151 66.9595 25.5275 66.9096 25.4837C66.8598 25.4398 66.7788 25.4461 66.6666 25.4837C66.6355 25.4524 66.6043 25.4211 66.5732 25.3898C66.6168 25.2771 66.623 25.1895 66.5732 25.1456C66.5296 25.1018 66.4423 25.1081 66.3302 25.1456C66.299 25.1143 66.2679 25.083 66.2367 25.0517C66.2803 24.9391 66.2866 24.8514 66.2367 24.8076C66.1931 24.7638 66.1059 24.77 65.9937 24.8076C65.9626 24.7763 65.9314 24.745 65.9003 24.7137C65.9439 24.601 65.9501 24.5134 65.9003 24.4696C65.8567 24.4258 65.7694 24.432 65.6573 24.4696C65.6261 24.4383 65.595 24.407 65.5638 24.3757C65.6075 24.263 65.6137 24.1754 65.5638 24.1316C65.5202 24.0877 65.433 24.094 65.3208 24.1316C59.5265 18.31 54.3552 13.1144 54.3552 13.1144L53.3147 14.1598C53.3147 14.1598 58.4673 19.3366 64.2866 25.1832C64.2554 25.2771 64.2554 25.3585 64.2928 25.396C64.3364 25.4398 64.4112 25.4398 64.5047 25.4023C64.542 25.4398 64.5794 25.4774 64.6168 25.515C64.5857 25.6089 64.5856 25.6902 64.623 25.7278C64.6604 25.7653 64.7414 25.7716 64.8349 25.734C64.8722 25.7716 64.9096 25.8092 64.947 25.8467C64.9159 25.9406 64.9159 26.022 64.9532 26.0596C64.9969 26.1034 65.0716 26.1034 65.1651 26.0658C65.2025 26.1034 65.2399 26.1409 65.2772 26.1785C65.2461 26.2724 65.2461 26.3538 65.2835 26.3913C65.3271 26.4351 65.4018 26.4351 65.4953 26.3976C65.5327 26.4351 65.5701 26.4727 65.6075 26.5103C65.5763 26.6042 65.5763 26.6855 65.6137 26.7231C65.6573 26.7669 65.7321 26.7669 65.8255 26.7293C65.8629 26.7669 65.9003 26.8045 65.9377 26.842C65.9065 26.9359 65.9065 27.0173 65.9439 27.0549C65.9875 27.0987 66.0623 27.0987 66.1557 27.0611C66.1931 27.0987 66.2305 27.1362 66.2679 27.1738C66.2367 27.2677 66.2367 27.3491 66.2741 27.3866C66.3177 27.4304 66.3925 27.4304 66.486 27.3929C66.5233 27.4304 66.5607 27.468 66.5981 27.5056C66.567 27.5995 66.5669 27.6808 66.6043 27.7184C66.6479 27.7622 66.7227 27.7622 66.8162 27.7246C66.8536 27.7622 66.8909 27.7998 66.9283 27.8373C66.8972 27.9312 66.8972 28.0126 66.9346 28.0502C66.9719 28.0877 67.0529 28.094 67.1464 28.0564C67.1838 28.094 67.2212 28.1315 67.2585 28.1691C67.2274 28.263 67.2274 28.3444 67.2648 28.3819C67.3084 28.4257 67.3831 28.4257 67.4766 28.3882C67.514 28.4257 67.5514 28.4633 67.5887 28.5009C67.5576 28.5947 67.5576 28.6761 67.595 28.7137C67.6386 28.7575 67.7134 28.7575 67.8068 28.7199C67.8442 28.7575 67.8816 28.7951 67.919 28.8326C67.9003 28.8952 67.894 28.9453 67.9003 28.9891L69.1339 27.7497C69.0841 27.7434 69.028 27.7497 68.9532 27.781C68.9221 27.7497 68.8909 27.7184 68.8598 27.6871C68.9034 27.5744 68.9096 27.4868 68.8598 27.443C68.8847 27.4617 68.7975 27.468 68.6853 27.5118ZM90.112 54.7667L90.1618 55.136L90.4671 55.4428C90.4671 55.4428 90.5606 55.5367 90.7101 55.6869C91.1026 56.0813 91.8939 56.8763 92.5481 57.5335C93.6384 58.629 96.5605 56.4694 98.6166 54.4037C100.585 52.4256 100.367 50.1157 98.5044 48.2503C96.4795 46.2159 94.3549 44.0813 92.1618 41.8779L91.0029 46.6478C92.7911 48.4444 94.1805 49.8403 94.1805 49.8403V51.7057L93.9499 51.9498L93.0403 51.8184L92.5917 52.2691L92.654 52.7135L92.2116 52.6509L91.763 53.1016L91.8253 53.5461L91.383 53.4835L90.9344 53.9342L90.9967 54.3786L90.5543 54.316L90.112 54.7667ZM63.2025 4.10665C67.2211 9.40865 91.8316 41.3333 91.8316 41.3333L90.2179 47.9937L90.9531 49.1142L91.1462 50.2409L90.6976 50.6916L90.2553 50.629L90.3176 51.0735L89.869 51.5242L89.4266 51.4616L89.4889 51.906L89.0403 52.3567L88.598 52.2941L88.6603 52.7386L88.2117 53.1893L87.8441 53.1392L87.2958 52.5883L84.9407 47.0234L86.355 41.6213L60.243 3.97519C60.243 3.97519 61.8878 2.36644 63.2025 4.10665ZM86.3301 46.3161C85.8815 46.7668 85.8815 47.4992 86.3301 47.9499C86.7786 48.4006 87.5076 48.4006 87.9562 47.9499C88.4048 47.4992 88.4048 46.7668 87.9562 46.3161C87.5076 45.8654 86.7786 45.8654 86.3301 46.3161Z" fill="#E83A15"/>
<path d="M60.3425 81.74L62.6478 79.4239L63.1026 79.8809C63.1836 80.607 63.3144 81.4646 63.4141 82.3535L59.6447 84.9951C59.6447 84.9951 60.1556 83.9685 60.3425 81.74ZM62.6478 78.7792L63.4141 79.5491L64.8347 78.1219L64.0683 77.3519L62.5356 75.8121L53.8254 83.1172L53.2335 84.4067L56.2553 85.2079L62.6478 78.7792ZM68.7536 69.1955L70.9281 71.3802L72.4608 69.8403L70.2863 67.6556L68.7536 69.1955ZM68.6851 70.4099C68.6477 70.4475 68.6103 70.485 68.573 70.5226C68.4795 70.4913 68.3985 70.4913 68.3611 70.5288C68.3175 70.5727 68.3175 70.6478 68.3549 70.7417C68.3175 70.7792 68.2801 70.8168 68.2427 70.8543C68.1493 70.823 68.0683 70.823 68.0309 70.8606C67.9873 70.9044 67.9873 70.9795 68.0247 71.0734C67.9873 71.111 67.9499 71.1486 67.9125 71.1861C67.8191 71.1548 67.7381 71.1548 67.7007 71.1924C67.6633 71.2299 67.6571 71.3113 67.6945 71.4052C67.6571 71.4428 67.6197 71.4803 67.5823 71.5179C67.4889 71.4866 67.4079 71.4866 67.3705 71.5241C67.3269 71.568 67.3269 71.6431 67.3642 71.737C67.3269 71.7745 67.2895 71.8121 67.2521 71.8496C67.1586 71.8183 67.0776 71.8183 67.0403 71.8559C66.9966 71.8997 66.9966 71.9748 67.034 72.0687C66.9966 72.1063 66.9593 72.1438 66.9219 72.1814C66.8284 72.1501 66.7474 72.1501 66.71 72.1877C66.6664 72.2315 66.6664 72.3066 66.7038 72.4005C66.6664 72.4381 66.629 72.4756 66.5917 72.5132C66.4982 72.4819 66.4172 72.4819 66.3798 72.5194C66.3362 72.5632 66.3362 72.6384 66.3736 72.7323C66.3362 72.7698 66.2988 72.8074 66.2614 72.8449C66.168 72.8136 66.087 72.8136 66.0496 72.8512C66.006 72.895 66.006 72.9701 66.0434 73.064C66.006 73.1016 65.9686 73.1391 65.9312 73.1767C65.8378 73.1454 65.7568 73.1454 65.7194 73.183C65.6758 73.2268 65.6758 73.3019 65.7132 73.3958C65.6758 73.4334 65.6384 73.4709 65.601 73.5085C65.5076 73.4772 65.4266 73.4772 65.3892 73.5147C65.3456 73.5586 65.3456 73.6337 65.3829 73.7276C65.3456 73.7651 65.3082 73.8027 65.2708 73.8402C65.1773 73.8089 65.0964 73.8089 65.059 73.8465C65.0154 73.8903 65.0153 73.9654 65.0527 74.0593C65.0153 74.0969 64.978 74.1344 64.9406 74.172C64.8471 74.1407 64.7661 74.1407 64.7288 74.1783C64.6851 74.2221 64.6851 74.2972 64.7225 74.3911C64.6851 74.4287 64.6478 74.4662 64.6104 74.5038C64.5169 74.4725 64.4359 74.4725 64.3985 74.51C64.3549 74.5538 64.3549 74.629 64.3923 74.7229C64.3549 74.7604 64.3175 74.798 64.2802 74.8355C64.1867 74.8042 64.1057 74.8042 64.0683 74.8418C64.0247 74.8856 64.0247 74.9607 64.0621 75.0546C64.0247 75.0922 63.9873 75.1297 63.9499 75.1673C63.8565 75.136 63.7755 75.136 63.7381 75.1736C63.6945 75.2174 63.6945 75.2925 63.7319 75.3864C63.6945 75.4239 63.6571 75.4615 63.6197 75.4991C63.5263 75.4678 63.4453 75.4678 63.4079 75.5053C63.3643 75.5491 63.3643 75.6243 63.4017 75.7182C63.3705 75.7495 63.3331 75.787 63.302 75.8183L64.3425 76.8637C64.3736 76.8324 64.4048 76.8011 64.4359 76.7698C64.5481 76.8136 64.6353 76.8199 64.6789 76.7698C64.7225 76.726 64.7225 76.6383 64.6789 76.5257C64.7101 76.4944 64.7412 76.4631 64.7724 76.4318C64.8845 76.4756 64.9717 76.4818 65.0154 76.4318C65.059 76.3879 65.0527 76.3003 65.0154 76.1876C65.0465 76.1563 65.0777 76.125 65.1088 76.0937C65.221 76.1376 65.3082 76.1438 65.3518 76.0937C65.3954 76.0499 65.3892 75.9623 65.3518 75.8496C65.383 75.8183 65.4141 75.787 65.4453 75.7557C65.5574 75.7995 65.6446 75.8058 65.6883 75.7557C65.7319 75.7119 65.7256 75.6243 65.6883 75.5116C65.7194 75.4803 65.7506 75.449 65.7817 75.4177C65.8939 75.4615 65.9811 75.4678 66.0247 75.4177C66.0683 75.3739 66.0621 75.2862 66.0247 75.1736C66.0558 75.1423 66.087 75.111 66.1181 75.0797C66.2303 75.1235 66.3175 75.1297 66.3611 75.0797C66.4048 75.0359 66.4048 74.9482 66.3611 74.8355C66.3923 74.8042 66.4234 74.7729 66.4546 74.7416C66.5667 74.7855 66.654 74.7917 66.6976 74.7416C66.7412 74.6978 66.7412 74.6102 66.6976 74.4975C66.7287 74.4662 66.7599 74.4349 66.791 74.4036C66.9032 74.4474 66.9904 74.4537 67.034 74.4036C67.0776 74.3598 67.0776 74.2722 67.034 74.1595C67.0652 74.1282 67.0963 74.0969 67.1275 74.0656C67.2396 74.1094 67.3269 74.1157 67.3705 74.0656C67.4141 74.0218 67.4141 73.9341 67.3705 73.8215C67.4016 73.7902 67.4328 73.7589 67.4639 73.7276C67.5761 73.7714 67.6633 73.7776 67.7069 73.7276C67.7505 73.6837 67.7443 73.5961 67.7069 73.4834C67.7381 73.4521 67.7692 73.4208 67.8004 73.3895C67.9125 73.4334 67.9998 73.4396 68.0434 73.3895C68.087 73.3457 68.0808 73.2581 68.0434 73.1454C68.0745 73.1141 68.1057 73.0828 68.1368 73.0515C68.249 73.0953 68.3362 73.1016 68.3798 73.0515C68.4234 73.0077 68.4172 72.9201 68.3798 72.8074C68.411 72.7761 68.4421 72.7448 68.4733 72.7135C68.5854 72.7573 68.6726 72.7636 68.7163 72.7135C68.7599 72.6697 68.7536 72.582 68.7163 72.4694C68.7474 72.4381 68.7786 72.4068 68.8097 72.3755C68.9219 72.4193 69.0091 72.4255 69.0527 72.3755C69.0963 72.3316 69.0963 72.244 69.0527 72.1313C69.0839 72.1 69.115 72.0687 69.1462 72.0374C69.2583 72.0813 69.3455 72.0875 69.3891 72.0374C69.4328 71.9936 69.4328 71.906 69.3891 71.7933C69.4203 71.762 69.4515 71.7307 69.4826 71.6994C69.5948 71.7432 69.682 71.7495 69.7256 71.6994C69.7692 71.6556 69.7692 71.568 69.7256 71.4553C69.7568 71.424 69.7879 71.3927 69.8191 71.3614C69.9312 71.4052 70.0184 71.4115 70.0621 71.3614C70.1057 71.3113 70.1057 71.2299 70.0621 71.1173C70.0932 71.086 70.1181 71.0609 70.1493 71.0296L69.1088 69.9842C69.0776 70.0155 69.0465 70.0468 69.0153 70.0781C68.9219 70.0468 68.8409 70.0468 68.8035 70.0844C68.6477 70.2346 68.654 70.3097 68.6851 70.4099ZM72.6228 68.5382C72.6539 68.5069 72.6851 68.4756 72.7162 68.4443C72.8284 68.4882 72.9156 68.4944 72.9592 68.4443C73.0028 68.4005 73.0028 68.3129 72.9592 68.2002C72.9904 68.1689 73.0215 68.1376 73.0527 68.1063C73.1648 68.1501 73.2521 68.1564 73.2957 68.1063C73.3393 68.0625 73.3331 67.9749 73.2957 67.8622C73.3268 67.8309 73.358 67.7996 73.3891 67.7683C73.5013 67.8121 73.5885 67.8184 73.6321 67.7683C73.6757 67.7245 73.6757 67.6368 73.6321 67.5242C73.6633 67.4929 73.6944 67.4616 73.7256 67.4303C73.8377 67.4741 73.9249 67.4803 73.9686 67.4303C74.0122 67.3864 74.0059 67.2988 73.9686 67.1861C73.9997 67.1548 74.0309 67.1235 74.062 67.0922C74.1742 67.1361 74.2614 67.1423 74.305 67.0922C74.3486 67.0484 74.3424 66.9608 74.305 66.8481C74.3362 66.8168 74.3673 66.7855 74.3985 66.7542C74.5106 66.798 74.5979 66.8043 74.6415 66.7542C74.6851 66.7104 74.6851 66.6228 74.6415 66.5101C74.6726 66.4788 74.7038 66.4475 74.7349 66.4162C74.8471 66.46 74.9343 66.4663 74.9779 66.4162C75.0215 66.3724 75.0215 66.2847 74.9779 66.1721C75.009 66.1408 75.0402 66.1095 75.0714 66.0782C75.1835 66.122 75.2707 66.1282 75.3143 66.0782C75.358 66.0343 75.358 65.9467 75.3143 65.834C75.3455 65.8027 75.3766 65.7714 75.4078 65.7401C75.52 65.784 75.6072 65.7902 75.6508 65.7401C75.6944 65.6901 75.6944 65.6087 75.6508 65.496C75.682 65.4647 75.7131 65.4334 75.7443 65.4021C75.8564 65.4459 75.9436 65.4522 75.9873 65.4021C76.0309 65.3583 76.0246 65.2707 75.9873 65.158C81.7816 59.3364 86.9529 54.1408 86.9529 54.1408L85.9124 53.0955C85.9124 53.0955 80.7598 58.2723 74.9405 64.1189C74.8471 64.0876 74.7661 64.0876 74.7287 64.1251C74.6851 64.1689 74.6851 64.2441 74.7225 64.338C74.6851 64.3755 74.6477 64.4131 74.6103 64.4506C74.5168 64.4193 74.4358 64.4193 74.3985 64.4569C74.3549 64.5007 74.3548 64.5758 74.3922 64.6697C74.3548 64.7073 74.3175 64.7448 74.2801 64.7824C74.1866 64.7511 74.1056 64.7511 74.0683 64.7887C74.0246 64.8325 74.0246 64.9076 74.062 65.0015C74.0246 65.039 73.9873 65.0766 73.9499 65.1142C73.8564 65.0829 73.7754 65.0829 73.738 65.1204C73.6944 65.1642 73.6944 65.2394 73.7318 65.3333C73.6944 65.3708 73.657 65.4084 73.6197 65.4459C73.5262 65.4146 73.4452 65.4146 73.4078 65.4522C73.3642 65.496 73.3642 65.5711 73.4016 65.665C73.3642 65.7026 73.3268 65.7401 73.2894 65.7777C73.196 65.7464 73.115 65.7464 73.0776 65.784C73.034 65.8278 73.034 65.9029 73.0714 65.9968C73.034 66.0343 72.9966 66.0719 72.9592 66.1095C72.8658 66.0782 72.7848 66.0782 72.7474 66.1157C72.7038 66.1595 72.7038 66.2347 72.7412 66.3285C72.7038 66.3661 72.6664 66.4037 72.629 66.4412C72.5356 66.4099 72.4546 66.4099 72.4172 66.4475C72.3736 66.4913 72.3736 66.5664 72.4109 66.6603C72.3736 66.6979 72.3362 66.7354 72.2988 66.773C72.2053 66.7417 72.1243 66.7417 72.087 66.7792C72.0433 66.8231 72.0433 66.8982 72.0807 66.9921C72.0433 67.0296 72.006 67.0672 71.9686 67.1048C71.8751 67.0735 71.7941 67.0735 71.7567 67.111C71.7131 67.1548 71.7131 67.23 71.7505 67.3238C71.7131 67.3614 71.6757 67.399 71.6384 67.4365C71.5449 67.4052 71.4639 67.4052 71.4265 67.4428C71.3891 67.4803 71.3829 67.5617 71.4203 67.6556C71.3829 67.6932 71.3455 67.7307 71.3081 67.7683C71.2458 67.7495 71.196 67.7433 71.1524 67.7495L72.386 68.9889C72.3923 68.9389 72.386 68.8763 72.3549 68.8074C72.386 68.7761 72.4172 68.7448 72.4483 68.7135C72.5605 68.7573 72.6477 68.7636 72.6913 68.7135C72.6726 68.7323 72.6664 68.6447 72.6228 68.5382ZM45.4952 90.0655L45.1276 90.1156L44.8223 90.4223C44.8223 90.4223 44.7289 90.5162 44.5794 90.6664C44.1868 91.0608 43.3956 91.8558 42.7414 92.513C41.651 93.6085 43.8005 96.5443 45.8566 98.61C47.8254 100.588 50.1245 100.369 51.9812 98.4973C54.0061 96.4629 56.1307 94.3284 58.3238 92.1249L53.5762 90.9606C51.788 92.7572 50.3986 94.1531 50.3986 94.1531H48.5419L48.299 93.909L48.4298 92.995L47.9812 92.5443L47.5388 92.6069L47.6011 92.1625L47.1525 91.7118L46.7102 91.7744L46.7725 91.3299L46.3239 90.8792L45.8815 90.9418L45.9438 90.4974L45.4952 90.0655ZM95.9186 63.0297C90.6414 67.0672 58.8659 91.7932 58.8659 91.7932L52.2366 90.1719L51.1214 90.9105L49.9999 91.1046L49.5513 90.6539L49.6136 90.2095L49.1712 90.2721L48.7226 89.8213L48.7849 89.3769L48.3426 89.4395L47.894 88.9888L47.9563 88.5444L47.5139 88.607L47.0653 88.1563L47.1151 87.7869L47.6634 87.2361L53.2023 84.8699L58.5793 86.2909L96.0432 60.0563C96.0432 60.0563 97.6507 61.7089 95.9186 63.0297ZM53.9064 86.2596C53.4578 85.8089 52.7288 85.8089 52.2802 86.2596C51.8316 86.7103 51.8316 87.4426 52.2802 87.8933C52.7288 88.344 53.4578 88.344 53.9064 87.8933C54.355 87.4426 54.355 86.7103 53.9064 86.2596Z" fill="#E83A15"/>
<path d="M50.1372 15.4368L15.9255 49.809L50.1372 84.1812L84.3488 49.8027L50.1372 15.4368ZM50.1372 83.3049L16.804 49.8153L50.1372 16.3256L83.4703 49.8153L50.1372 83.3049Z" fill="#E83A15"/>
<path d="M27.4332 53.277H23.7759V51.8936H24.2805V48.1002H23.7759V46.7168H27.5391C27.8818 46.7168 28.1871 46.7544 28.4674 46.8232C28.7416 46.8921 28.9783 47.0047 29.1652 47.1612C29.3522 47.3177 29.5017 47.5243 29.6076 47.7747C29.7135 48.0251 29.7634 48.3318 29.7634 48.6949C29.7634 49.0579 29.7135 49.3647 29.6076 49.6151C29.5017 49.8654 29.3584 50.0658 29.1652 50.2285C28.9721 50.385 28.7416 50.4977 28.4674 50.5665C28.1933 50.6354 27.8818 50.673 27.5391 50.673H26.6232V51.8873H27.427V53.277H27.4332ZM26.9098 49.4899C27.0656 49.4899 27.184 49.446 27.2712 49.3647C27.3522 49.2833 27.3958 49.1456 27.3958 48.9515V48.6448C27.3958 48.457 27.3522 48.3193 27.2712 48.2317C27.1902 48.1503 27.0656 48.1065 26.9036 48.1065H26.617V49.4899H26.9098Z" fill="#00045F"/>
<path d="M30.0813 46.7229H33.7074V48.1063H32.9349V51.8997H33.6888V51.1235H35.3585V53.2831H30.0813V51.8997H30.586V48.1063H30.0813V46.7229Z" fill="#00045F"/>
<path d="M41.6201 50.9294C41.6201 51.3864 41.5577 51.7683 41.4331 52.0812C41.3085 52.3942 41.1278 52.6446 40.8911 52.8449C40.6543 53.039 40.3739 53.183 40.0375 53.2706C39.7073 53.3582 39.3335 53.402 38.9285 53.402C38.511 53.402 38.131 53.3582 37.7945 53.2706C37.4581 53.183 37.1715 53.039 36.9285 52.8449C36.6917 52.6509 36.5048 52.3942 36.374 52.0812C36.2431 51.7683 36.1746 51.3864 36.1746 50.9294V48.1063H35.6699V46.7229H38.8599V48.1063H38.5235V51.3614C38.5235 51.5554 38.5671 51.6931 38.6481 51.7745C38.7291 51.8559 38.8537 51.8997 39.0157 51.8997C39.1777 51.8997 39.3023 51.8559 39.3771 51.7745C39.4581 51.6931 39.5017 51.5554 39.5017 51.3614V48.1063H39.1652V46.7229H42.1247V48.1063H41.6201V50.9294Z" fill="#00045F"/>
<path d="M42.3616 46.7229H46.3678L47.3273 49.6149L48.2494 46.7229H52.1185V48.1063H51.6138V51.8997H52.1185V53.2831H48.7665V51.8997H49.2712V48.5695L47.6014 53.2831H46.698L44.8039 48.557V51.8997H45.3086V53.2831H42.374V51.8997H42.8787V48.1063H42.374V46.7229H42.3616Z" fill="#00045F"/>
<path d="M52.4673 46.7229H56.3987C57.0841 46.7229 57.6261 46.8606 58.0249 47.1423C58.4236 47.424 58.623 47.8371 58.623 48.3817C58.623 48.6509 58.5732 48.8825 58.4735 49.0703C58.3738 49.2644 58.2492 49.4208 58.1059 49.5398C57.9626 49.665 57.8068 49.7589 57.651 49.8277C57.489 49.8966 57.352 49.9404 57.2336 49.9654V50.0468C57.3582 50.0593 57.5077 50.0844 57.6884 50.1282C57.8691 50.172 58.0373 50.2471 58.1993 50.3536C58.3613 50.46 58.4984 50.6165 58.6168 50.8105C58.7289 51.0046 58.7912 51.2612 58.7912 51.5742C58.7912 51.8872 58.7289 52.1564 58.5981 52.3692C58.4672 52.5883 58.299 52.7635 58.0809 52.895C57.8629 53.0265 57.6074 53.1266 57.3208 53.183C57.0342 53.2393 56.7289 53.2706 56.4112 53.2706H52.4797V51.8872H52.9844V48.0938H52.4797V46.7229H52.4673ZM55.7694 49.4897C55.9314 49.4897 56.056 49.4459 56.1308 49.3645C56.2118 49.2831 56.2554 49.1454 56.2554 48.9514V48.6446C56.2554 48.4568 56.2118 48.3191 56.1308 48.2315C56.0498 48.1501 55.9252 48.1063 55.7694 48.1063H55.3208V49.4897H55.7694ZM55.8317 51.8997C55.9937 51.8997 56.1183 51.8559 56.1993 51.7745C56.2803 51.6931 56.3239 51.5554 56.3239 51.3614V50.992C56.3239 50.798 56.2803 50.6603 56.1993 50.5789C56.1183 50.4975 55.9937 50.4537 55.8317 50.4537H55.3208V51.906H55.8317V51.8997Z" fill="#00045F"/>
<path d="M59.1152 46.7229H62.4672V48.1063H61.9626V51.8997H62.4672V53.2831H59.1152V51.8997H59.6199V48.1063H59.1152V46.7229Z" fill="#00045F"/>
<path d="M67.5887 46.7229H70.5233V48.1063H70.0186V53.2831H67.6635L65.2087 49.4834V51.8997H65.7134V53.2831H62.7788V51.8997H63.2835V48.1063H62.7788V46.7229H65.8878L68.0934 50.1094V48.1063H67.5887V46.7229Z" fill="#00045F"/>
<path d="M74.1495 49.9154H77.1215V51.1736H76.704V52.8575C76.5732 52.9201 76.4237 52.9827 76.2554 53.0453C76.0872 53.1079 75.8878 53.1705 75.6698 53.2205C75.4455 53.2706 75.2025 53.3144 74.9283 53.3457C74.6542 53.377 74.3489 53.3958 74.0125 53.3958C73.5078 53.3958 73.0592 53.3332 72.6542 53.208C72.2492 53.0828 71.9066 52.8888 71.6262 52.6196C71.3458 52.3504 71.1277 51.9999 70.9782 51.568C70.8287 51.1361 70.7539 50.6165 70.7539 49.9968C70.7539 49.3833 70.8287 48.8638 70.9782 48.4318C71.1277 47.9999 71.3458 47.6494 71.6262 47.3802C71.9066 47.111 72.2492 46.9107 72.648 46.7918C73.053 46.6666 73.5016 46.604 74 46.604C74.3427 46.604 74.648 46.6228 74.9283 46.6541C75.2025 46.6854 75.4517 46.7292 75.676 46.7855C75.8941 46.8356 76.0934 46.8982 76.2617 46.9608C76.4299 47.0234 76.5794 47.086 76.7103 47.1486V49.1642H74.6106V48.7699C74.6106 48.5257 74.5607 48.3567 74.4611 48.2566C74.3614 48.1564 74.2056 48.1063 73.9938 48.1063C73.7819 48.1063 73.6262 48.1564 73.5265 48.2566C73.4268 48.3567 73.377 48.532 73.377 48.7699V51.23C73.377 51.4741 73.4268 51.6431 73.5265 51.7432C73.6262 51.8434 73.7819 51.8935 73.9938 51.8935C74.2056 51.8935 74.3614 51.8434 74.4611 51.7432C74.5607 51.6431 74.6106 51.4741 74.6106 51.23V51.1736H74.1558V49.9154H74.1495Z" fill="#00045F"/>
<path d="M33.589 61.3959L32.4239 56.2191H32.0874V54.8357H35.4145V56.2191H34.8662L35.2774 59.3803H35.3584L36.3241 54.8357H38.7416L39.645 59.3803H39.726L40.1372 56.2191H39.5889V54.8357H42.4986V56.2191H42.1621L41.078 61.3959H38.1497L37.3896 57.9217H37.3086L36.5048 61.3959H33.589Z" fill="#00045F"/>
<path d="M49.0905 58.122C49.0905 58.7417 49.0157 59.2613 48.8662 59.6932C48.7167 60.1251 48.5048 60.4757 48.2244 60.7449C47.9441 61.014 47.6076 61.2143 47.2151 61.3333C46.8164 61.4585 46.374 61.5211 45.888 61.5211C45.402 61.5211 44.9597 61.4585 44.5609 61.3333C44.1622 61.2081 43.8257 61.014 43.5516 60.7449C43.2774 60.4757 43.0594 60.1251 42.9098 59.6932C42.7603 59.2613 42.6855 58.7417 42.6855 58.122C42.6855 57.5086 42.7603 56.989 42.9098 56.5571C43.0594 56.1252 43.2774 55.7746 43.5516 55.5055C43.8257 55.2363 44.1684 55.036 44.5609 54.917C44.9597 54.7918 45.402 54.7292 45.888 54.7292C46.374 54.7292 46.8164 54.7918 47.2151 54.917C47.6139 55.0422 47.9503 55.2363 48.2244 55.5055C48.4986 55.7746 48.7167 56.1252 48.8662 56.5571C49.0157 56.9828 49.0905 57.5086 49.0905 58.122ZM45.888 60.0125C46.0749 60.0125 46.2182 59.9624 46.3179 59.8622C46.4114 59.7621 46.4612 59.6056 46.4612 59.3865V56.8388C46.4612 56.6197 46.4114 56.4632 46.3179 56.363C46.2245 56.2629 46.0812 56.2128 45.888 56.2128C45.6949 56.2128 45.5578 56.2629 45.4581 56.363C45.3647 56.4632 45.3148 56.6197 45.3148 56.8388V59.3865C45.3148 59.6056 45.3647 59.7621 45.4581 59.8622C45.5578 59.9687 45.6949 60.0125 45.888 60.0125Z" fill="#00045F"/>
<path d="M52.2806 60.0125H52.8351V61.3959H49.427V60.0125H49.9317V56.2191H49.427V54.8357H53.3584C53.7011 54.8357 54.0064 54.867 54.2868 54.9358C54.5609 55.0047 54.7977 55.1111 54.9846 55.2614C55.1715 55.4116 55.321 55.6056 55.427 55.8498C55.5329 56.0939 55.5827 56.3881 55.5827 56.7324C55.5827 57.1017 55.508 57.4272 55.3584 57.7027C55.2089 57.9781 54.997 58.1721 54.7104 58.2848L54.7167 58.3662C55.2525 58.4476 55.5204 58.7793 55.5204 59.3615V60.0125H55.9129V61.3959H53.2525V59.4178C53.2525 59.2488 53.2338 59.1111 53.1964 59.0109C53.1591 58.9045 53.103 58.8294 53.022 58.7731C52.941 58.723 52.8413 58.6854 52.7167 58.6667C52.5921 58.6479 52.4425 58.6354 52.2743 58.6354V60.0125H52.2806ZM52.7292 57.6088C52.8911 57.6088 53.0158 57.5649 53.0905 57.4836C53.1715 57.4022 53.2151 57.2645 53.2151 57.0704V56.7637C53.2151 56.5759 53.1715 56.4382 53.0905 56.3505C53.0095 56.2692 52.8849 56.2254 52.7292 56.2254H52.2743V57.6088H52.7292Z" fill="#00045F"/>
<path d="M62.4674 56.2254L61.1528 57.928L62.5982 60.0188H62.9347V61.4022H60.4363L59.1092 59.0923V61.4022H56.2556V60.0125H56.7603V56.2191H56.2556V54.8357H59.1092V57.1017L60.6419 54.8357H62.8039V56.2191H62.4674V56.2254Z" fill="#00045F"/>
<path d="M65.6574 59.8873C65.8443 59.8873 65.9752 59.8622 66.05 59.8059C66.1309 59.7496 66.1683 59.6682 66.1683 59.5555C66.1683 59.4741 66.1372 59.4053 66.0686 59.3489C66.0063 59.2926 65.8755 59.2237 65.6761 59.1424C65.2649 58.9859 64.8973 58.8356 64.592 58.6917C64.2805 58.5477 64.0251 58.3912 63.8194 58.2159C63.6138 58.0406 63.4643 57.8403 63.3646 57.6025C63.2649 57.3709 63.2151 57.0892 63.2151 56.7574C63.2151 56.4444 63.2649 56.1627 63.3646 55.9123C63.4643 55.6619 63.6201 55.4491 63.8444 55.2738C64.0624 55.0986 64.3615 54.9609 64.7229 54.867C65.0905 54.7731 65.5391 54.7292 66.0749 54.7292C66.5609 54.7292 67.0219 54.7793 67.4518 54.8795C67.8817 54.9796 68.2369 55.1111 68.5235 55.2738V56.7824H66.7602C66.7602 56.6197 66.7166 56.507 66.6294 56.4507C66.5422 56.3943 66.43 56.363 66.2992 56.363C66.1123 56.363 65.9814 56.3881 65.9004 56.4319C65.8194 56.482 65.7758 56.5634 65.7758 56.6823C65.7758 56.7762 65.8194 56.845 65.9066 56.8951C65.9939 56.9389 66.1247 56.989 66.2992 57.0454C66.6232 57.1518 66.9284 57.2644 67.2151 57.3834C67.5017 57.5023 67.7571 57.6463 67.9752 57.8216C68.1932 57.9968 68.3677 58.2034 68.4923 58.4538C68.6169 58.7042 68.6792 59.0047 68.6792 59.3615C68.6792 60.0938 68.4425 60.6384 67.9752 60.9952C67.5079 61.3521 66.8163 61.5273 65.9129 61.5273C65.3958 61.5273 64.9035 61.4835 64.43 61.3896C63.9565 61.302 63.5765 61.1956 63.2899 61.0704V59.399H65.1341C65.1341 59.568 65.1652 59.6932 65.2338 59.7746C65.3023 59.8497 65.4456 59.8873 65.6574 59.8873Z" fill="#00045F"/>
<path d="M39.5641 68.3816C40.0002 68.0123 40.399 67.6554 40.7666 67.3237C41.1279 66.9919 41.4457 66.6789 41.7074 66.3972C41.969 66.1156 42.1747 65.8652 42.318 65.6461C42.4613 65.427 42.536 65.2517 42.536 65.1203C42.536 64.9012 42.4862 64.7447 42.3927 64.6445C42.2993 64.5444 42.156 64.4943 41.9628 64.4943C41.7697 64.4943 41.6326 64.5444 41.5329 64.6445C41.4395 64.7447 41.3896 64.9012 41.3896 65.1203V65.5397H39.7136V63.5428C39.8569 63.4677 40.0189 63.4051 40.1934 63.3425C40.3678 63.2861 40.5734 63.2236 40.804 63.1672C41.0407 63.1109 41.2899 63.0671 41.5516 63.0358C41.8195 63.0045 42.0874 62.9919 42.3616 62.9919C43.1529 62.9919 43.751 63.1547 44.1373 63.4739C44.5298 63.7994 44.7229 64.2752 44.7229 64.9012C44.7229 65.2454 44.6419 65.571 44.4862 65.8839C44.3242 66.1969 44.1248 66.4911 43.8756 66.7791C43.6264 67.0608 43.3584 67.3299 43.0656 67.5803C42.7728 67.8307 42.4924 68.0623 42.2245 68.2814H43.2463V67.7932H44.8849V69.6648H39.5579V68.3816H39.5641Z" fill="#00045F"/>
<path d="M50.9284 66.3911C50.9284 67.0108 50.8598 67.5303 50.7165 67.9623C50.5794 68.3942 50.3801 68.7447 50.1246 69.0139C49.8692 69.2831 49.5639 69.4834 49.1963 69.6023C48.8349 69.7275 48.4237 69.7901 47.9689 69.7901C47.5141 69.7901 47.1091 69.7275 46.7477 69.6023C46.3863 69.4771 46.0748 69.2831 45.8194 69.0139C45.5639 68.7447 45.3708 68.3942 45.2275 67.9623C45.0904 67.5303 45.0156 67.0108 45.0156 66.3911C45.0156 65.7776 45.0842 65.2581 45.2275 64.8261C45.3645 64.3942 45.5639 64.0437 45.8194 63.7745C46.0748 63.5053 46.3801 63.3113 46.7477 63.1861C47.1091 63.0609 47.5203 62.9983 47.9689 62.9983C48.4237 62.9983 48.8287 63.0609 49.1963 63.1861C49.5577 63.3113 49.8692 63.5053 50.1246 63.7745C50.3801 64.0437 50.5732 64.3942 50.7165 64.8261C50.8598 65.2581 50.9284 65.7776 50.9284 66.3911ZM47.9751 68.2878C48.1683 68.2878 48.3053 68.2377 48.405 68.1375C48.4985 68.0374 48.5483 67.8809 48.5483 67.6618V65.1141C48.5483 64.895 48.4985 64.7385 48.405 64.6383C48.3116 64.5382 48.1683 64.4881 47.9751 64.4881C47.7882 64.4881 47.6449 64.5382 47.5452 64.6383C47.4517 64.7385 47.4019 64.895 47.4019 65.1141V67.6618C47.4019 67.8809 47.4517 68.0374 47.5452 68.1375C47.6449 68.2377 47.7882 68.2878 47.9751 68.2878Z" fill="#00045F"/>
<path d="M51.1653 63.5428L53.0282 63.1108H54.6481V68.2876H55.3522V69.671H51.4207V68.2876H52.2245V64.4942H51.1653V63.5428Z" fill="#00045F"/>
<path d="M60.8163 64.7759C60.6232 64.7133 60.3802 64.6507 60.0936 64.5881C59.807 64.5255 59.4955 64.4942 59.1653 64.4942C58.7603 64.4942 58.4674 64.6006 58.2868 64.8197C58.1061 65.0326 58.0126 65.3142 58.0126 65.6523V65.8964C58.1808 65.8338 58.374 65.7775 58.5983 65.7336C58.8226 65.6836 59.0344 65.6648 59.2462 65.6648C59.4955 65.6648 59.7447 65.6898 59.9815 65.7462C60.2182 65.8025 60.43 65.9027 60.617 66.0466C60.8039 66.1906 60.9472 66.3847 61.0593 66.6225C61.1715 66.8667 61.2276 67.1734 61.2276 67.5427C61.2276 68.3252 60.997 68.8948 60.5422 69.2516C60.0811 69.6084 59.4332 69.79 58.5858 69.79C58.131 69.79 57.726 69.7336 57.3646 69.6147C57.0033 69.4957 56.6918 69.3142 56.4363 69.0763C56.1809 68.8322 55.9815 68.5317 55.8444 68.1624C55.7073 67.7931 55.6326 67.3612 55.6326 66.8604C55.6326 66.1718 55.7073 65.5771 55.8631 65.0889C56.0189 64.6006 56.2307 64.2 56.5111 63.8933C56.7914 63.5865 57.1217 63.3612 57.508 63.2172C57.8942 63.0733 58.3241 63.0044 58.7914 63.0044C59.0344 63.0044 59.2525 63.0169 59.4519 63.042C59.6512 63.067 59.8381 63.0983 60.0064 63.1421C60.1746 63.1859 60.3241 63.2297 60.455 63.2798C60.5858 63.3299 60.7042 63.38 60.8101 63.4238V64.7759H60.8163ZM58.5609 66.9793C58.4924 66.9793 58.4114 66.9856 58.3179 67.0044C58.2245 67.0231 58.1248 67.0482 58.0188 67.0857V67.6616C58.0188 67.8807 58.0687 68.0372 58.1621 68.1374C58.2556 68.2375 58.3989 68.2876 58.5921 68.2876C58.7852 68.2876 58.9223 68.2375 59.022 68.1374C59.1154 68.0372 59.1653 67.8807 59.1653 67.6616C59.159 67.2109 58.9597 66.9793 58.5609 66.9793Z" fill="#00045F"/>
<path d="M42.592 72.4316L50.1372 80.0122L57.6823 72.4316H42.592Z" fill="#E83A15"/>
</svg>
