<svg width="100" height="100" viewBox="0 0 100 100" fill="none" xmlns="http://www.w3.org/2000/svg">
<path d="M18.1747 60.1502L20.4799 62.4663L20.0251 62.9233C19.3024 63.0047 18.4488 63.1361 17.5641 63.2363L14.9348 59.4491C14.941 59.4554 15.9629 59.9687 18.1747 60.1502ZM21.1279 62.4726L20.3616 63.2425L21.7821 64.6697L22.5485 63.8998L24.0812 62.3599L16.8102 53.6088L15.5267 53.0141L14.7292 56.0501L21.1279 62.4726ZM30.6668 68.6071L28.4924 70.7918L30.0251 72.3317L32.1995 70.147L30.6668 68.6071ZM29.4581 68.5383C29.4207 68.5007 29.3833 68.4631 29.3459 68.4256C29.3771 68.3317 29.3771 68.2503 29.3397 68.2128C29.2961 68.1689 29.2213 68.1689 29.1279 68.2065C29.0905 68.1689 29.0531 68.1314 29.0157 68.0938C29.0469 67.9999 29.0469 67.9186 29.0095 67.881C28.9659 67.8372 28.8911 67.8372 28.7977 67.8747C28.7603 67.8372 28.7229 67.7996 28.6855 67.7621C28.7167 67.6682 28.7167 67.5868 28.6793 67.5492C28.6357 67.5054 28.5609 67.5054 28.4674 67.543C28.4301 67.5054 28.3927 67.4678 28.3553 67.4303C28.3864 67.3364 28.3864 67.255 28.3491 67.2175C28.3054 67.1736 28.2307 67.1736 28.1372 67.2112C28.0998 67.1736 28.0625 67.1361 28.0251 67.0985C28.0562 67.0046 28.0562 66.9233 28.0188 66.8857C27.9752 66.8419 27.9005 66.8419 27.807 66.8794C27.7696 66.8419 27.7322 66.8043 27.6949 66.7668C27.726 66.6729 27.726 66.5915 27.6886 66.5539C27.645 66.5101 27.5702 66.5101 27.4768 66.5477C27.4394 66.5101 27.402 66.4726 27.3646 66.435C27.3958 66.3411 27.3958 66.2597 27.3584 66.2222C27.3148 66.1783 27.24 66.1783 27.1466 66.2159C27.1092 66.1783 27.0718 66.1408 27.0344 66.1032C27.0656 66.0093 27.0656 65.928 27.0282 65.8904C26.9846 65.8466 26.9098 65.8466 26.8164 65.8841C26.779 65.8466 26.7416 65.809 26.7042 65.7715C26.7354 65.6776 26.7354 65.5962 26.698 65.5586C26.6544 65.5148 26.5796 65.5148 26.4861 65.5524C26.4488 65.5148 26.4114 65.4773 26.374 65.4397C26.4052 65.3458 26.4051 65.2644 26.3678 65.2269C26.3242 65.183 26.2494 65.183 26.1559 65.2206C26.1185 65.183 26.0812 65.1455 26.0438 65.1079C26.0749 65.014 26.0749 64.9327 26.0375 64.8951C25.9939 64.8513 25.9192 64.8513 25.8257 64.8888C25.7883 64.8513 25.751 64.8137 25.7136 64.7762C25.7447 64.6823 25.7447 64.6009 25.7073 64.5633C25.6637 64.5195 25.589 64.5195 25.4955 64.5571C25.4581 64.5195 25.4207 64.482 25.3834 64.4444C25.4145 64.3505 25.4145 64.2691 25.3771 64.2316C25.3335 64.1877 25.2587 64.1877 25.1653 64.2253C25.1279 64.1877 25.0905 64.1502 25.0531 64.1126C25.0843 64.0187 25.0843 63.9374 25.0469 63.8998C25.0033 63.856 24.9285 63.856 24.8351 63.8935C24.7977 63.856 24.7603 63.8184 24.7229 63.7809C24.7541 63.687 24.7541 63.6056 24.7167 63.568C24.6731 63.5242 24.5983 63.5242 24.5049 63.5618C24.4675 63.5242 24.4301 63.4867 24.3927 63.4491C24.4238 63.3552 24.4239 63.2738 24.3865 63.2363C24.3429 63.1924 24.2681 63.1924 24.1746 63.23C24.1435 63.1987 24.1061 63.1612 24.0749 63.1299L23.0344 64.1752C23.0656 64.2065 23.0967 64.2378 23.1279 64.2691C23.0843 64.3818 23.0781 64.4694 23.1279 64.5133C23.1715 64.5571 23.2588 64.5571 23.3709 64.5133C23.4021 64.5446 23.4332 64.5758 23.4644 64.6071C23.4207 64.7198 23.4145 64.8075 23.4644 64.8513C23.508 64.8951 23.5952 64.8951 23.7074 64.8513C23.7385 64.8826 23.7697 64.9139 23.8008 64.9452C23.7572 65.0578 23.751 65.1455 23.8008 65.1893C23.8444 65.2331 23.9316 65.2269 24.0438 65.1893C24.0749 65.2206 24.1061 65.2519 24.1373 65.2832C24.0936 65.3959 24.0874 65.4835 24.1373 65.5273C24.1809 65.5711 24.2681 65.5711 24.3802 65.5273C24.4114 65.5586 24.4425 65.5899 24.4737 65.6212C24.4301 65.7339 24.4238 65.8215 24.4737 65.8654C24.5173 65.9092 24.6045 65.9092 24.7167 65.8654C24.7478 65.8967 24.779 65.928 24.8101 65.9593C24.7665 66.0719 24.7603 66.1596 24.8101 66.2034C24.8538 66.2472 24.941 66.2409 25.0531 66.2034C25.0843 66.2347 25.1154 66.266 25.1466 66.2973C25.103 66.41 25.0968 66.4976 25.1466 66.5414C25.1902 66.5852 25.2774 66.5852 25.3896 66.5414C25.4207 66.5727 25.4519 66.604 25.483 66.6353C25.4394 66.748 25.4332 66.8356 25.483 66.8794C25.5266 66.9233 25.6139 66.917 25.726 66.8794C25.7572 66.9107 25.7883 66.942 25.8195 66.9733C25.7759 67.086 25.7696 67.1736 25.8195 67.2175C25.8631 67.2613 25.9503 67.255 26.0625 67.2175C26.0936 67.2488 26.1248 67.2801 26.1559 67.3114C26.1123 67.424 26.1061 67.5117 26.1559 67.5555C26.1995 67.5993 26.2868 67.5993 26.3989 67.5555C26.4301 67.5868 26.4612 67.6181 26.4924 67.6494C26.4488 67.7621 26.4425 67.8497 26.4924 67.8935C26.536 67.9373 26.6232 67.9311 26.7354 67.8935C26.7665 67.9248 26.7977 67.9561 26.8288 67.9874C26.7852 68.1001 26.779 68.1877 26.8288 68.2315C26.8724 68.2754 26.9597 68.2754 27.0718 68.2315C27.103 68.2628 27.1341 68.2941 27.1653 68.3254C27.1217 68.4381 27.1154 68.5257 27.1653 68.5696C27.2089 68.6134 27.2961 68.6134 27.4083 68.5696C27.4394 68.6009 27.4706 68.6322 27.5017 68.6635C27.4581 68.7761 27.4519 68.8638 27.5017 68.9076C27.5453 68.9514 27.6325 68.9451 27.7447 68.9076C27.7758 68.9389 27.807 68.9702 27.8382 69.0015C27.7946 69.1142 27.7883 69.2018 27.8382 69.2456C27.8818 69.2894 27.969 69.2894 28.0811 69.2456C28.1123 69.2769 28.1435 69.3082 28.1746 69.3395C28.131 69.4522 28.1248 69.5398 28.1746 69.5836C28.2182 69.6275 28.3055 69.6275 28.4176 69.5836C28.4488 69.6149 28.4799 69.6462 28.5111 69.6775C28.4674 69.7902 28.4612 69.8778 28.5111 69.9217C28.5547 69.9655 28.6419 69.9592 28.754 69.9217C28.7852 69.953 28.8101 69.978 28.8413 70.0093L29.8818 68.9639C29.8506 68.9326 29.8194 68.9013 29.7883 68.87C29.8194 68.7761 29.8195 68.6948 29.7821 68.6572C29.6325 68.5007 29.5578 68.5007 29.4581 68.5383ZM31.321 72.4944C31.3522 72.5257 31.3833 72.557 31.4145 72.5883C31.3709 72.701 31.3646 72.7886 31.4145 72.8324C31.4581 72.8763 31.5453 72.87 31.6574 72.8324C31.6886 72.8637 31.7198 72.895 31.7509 72.9263C31.7073 73.039 31.7011 73.1267 31.7509 73.1705C31.7945 73.2143 31.8817 73.208 31.9939 73.1705C32.025 73.2018 32.0562 73.2331 32.0873 73.2644C32.0437 73.377 32.0375 73.4647 32.0873 73.5085C32.131 73.5523 32.2182 73.5461 32.3303 73.5085C32.3615 73.5398 32.3926 73.5711 32.4238 73.6024C32.3802 73.7151 32.374 73.8027 32.4238 73.8465C32.4674 73.8903 32.5547 73.8903 32.6668 73.8465C32.698 73.8778 32.7291 73.9091 32.7603 73.9404C32.7166 74.0531 32.7104 74.1407 32.7603 74.1845C32.8039 74.2284 32.8911 74.2284 33.0032 74.1845C33.0344 74.2158 33.0655 74.2471 33.0967 74.2784C33.0531 74.3911 33.0468 74.4788 33.0967 74.5226C33.1403 74.5664 33.2275 74.5664 33.3397 74.5226C33.3708 74.5539 33.402 74.5852 33.4331 74.6165C33.3895 74.7291 33.3833 74.8168 33.4331 74.8606C33.4768 74.9044 33.564 74.8982 33.6761 74.8606C33.7073 74.8919 33.7384 74.9232 33.7696 74.9545C33.726 75.0672 33.7197 75.1548 33.7696 75.1986C33.8132 75.2424 33.9004 75.2424 34.0126 75.1986C34.0437 75.2299 34.0749 75.2612 34.106 75.2925C34.0624 75.4052 34.0562 75.4928 34.106 75.5367C34.1497 75.5805 34.2369 75.5805 34.349 75.5367C34.3802 75.568 34.4113 75.5992 34.4425 75.6305C34.3989 75.7432 34.3926 75.8309 34.4425 75.8747C34.4861 75.9185 34.5733 75.9122 34.6855 75.8747C40.4798 81.6962 45.6511 86.8918 45.6511 86.8918L46.6916 85.8464C46.6916 85.8464 41.539 80.6696 35.7197 74.823C35.7509 74.7291 35.7509 74.6478 35.7135 74.6102C35.6699 74.5664 35.5951 74.5664 35.5017 74.604C35.4643 74.5664 35.4269 74.5288 35.3895 74.4913C35.4207 74.3974 35.4207 74.316 35.3833 74.2784C35.3397 74.2346 35.2649 74.2346 35.1714 74.2722C35.1341 74.2346 35.0967 74.1971 35.0593 74.1595C35.0905 74.0656 35.0905 73.9842 35.0531 73.9467C35.0095 73.9029 34.9347 73.9029 34.8412 73.9404C34.8039 73.9029 34.7665 73.8653 34.7291 73.8277C34.7602 73.7339 34.7602 73.6525 34.7229 73.6149C34.6792 73.5711 34.6045 73.5711 34.511 73.6087C34.4736 73.5711 34.4363 73.5335 34.3989 73.496C34.43 73.4021 34.43 73.3207 34.3926 73.2831C34.3553 73.2456 34.2743 73.2393 34.1808 73.2769C34.1434 73.2393 34.106 73.2018 34.0687 73.1642C34.0998 73.0703 34.0998 72.9889 34.0624 72.9514C34.0188 72.9076 33.944 72.9076 33.8506 72.9451C33.8132 72.9076 33.7758 72.87 33.7384 72.8324C33.7696 72.7385 33.7696 72.6572 33.7322 72.6196C33.6886 72.5758 33.6138 72.5758 33.5204 72.6134C33.483 72.5758 33.4456 72.5382 33.4082 72.5007C33.4394 72.4068 33.4394 72.3254 33.402 72.2878C33.3584 72.244 33.2836 72.244 33.1902 72.2816C33.1528 72.244 33.1154 72.2065 33.078 72.1689C33.1091 72.075 33.1092 71.9936 33.0718 71.9561C33.0344 71.9185 32.9534 71.9123 32.8599 71.9498C32.8226 71.9123 32.7852 71.8747 32.7478 71.8371C32.7789 71.7433 32.7789 71.6619 32.7416 71.6243C32.7042 71.5868 32.6232 71.5805 32.5297 71.6181C32.4923 71.5805 32.4549 71.5429 32.4176 71.5054C32.4487 71.4115 32.4487 71.3301 32.4113 71.2926C32.3677 71.2487 32.293 71.2487 32.1995 71.2863C32.1621 71.2487 32.1247 71.2112 32.0873 71.1736C32.106 71.111 32.1123 71.0609 32.106 71.0171L30.8724 72.2565C30.9223 72.2628 30.9783 72.2565 31.0531 72.2252C31.0842 72.2565 31.1154 72.2879 31.1466 72.3191C31.1029 72.4318 31.0967 72.5195 31.1466 72.5633C31.1279 72.5445 31.2151 72.5382 31.321 72.4944ZM9.89435 45.2395L9.83828 44.8702L9.53299 44.5635C9.53299 44.5635 9.43952 44.4696 9.28999 44.3193C8.89747 43.925 8.10621 43.13 7.45201 42.4727C6.36167 41.3773 3.43956 43.5369 1.3835 45.6026C-0.585338 47.5807 -0.367275 49.8905 1.49564 51.7559C3.52055 53.7903 5.64516 55.9249 7.83829 58.1283L8.99716 53.3584C7.20901 51.5619 5.8196 50.1659 5.8196 50.1659V48.3005L6.0626 48.0564L6.97225 48.1879L7.42084 47.7371L7.35853 47.2927L7.80091 47.3553L8.24951 46.9046L8.1872 46.4602L8.62956 46.5228L9.07816 46.0721L9.01585 45.6276L9.45823 45.6902L9.89435 45.2395ZM36.8038 95.8996C32.7852 90.5976 8.17473 58.6729 8.17473 58.6729L9.78844 52.0126L9.05323 50.8921L8.86008 49.7653L9.30868 49.3146L9.75104 49.3772L9.68875 48.9328L10.1373 48.4821L10.5797 48.5447L10.5174 48.1002L10.966 47.6495L11.4084 47.7121L11.3461 47.2677L11.7947 46.817L12.1623 46.867L12.7105 47.4179L15.0657 52.9828L13.6513 58.385L39.7633 96.0248C39.7633 96.0248 38.1185 97.6335 36.8038 95.8996ZM13.6763 53.6902C14.1249 53.2395 14.1249 52.5071 13.6763 52.0564C13.2277 51.6057 12.4987 51.6057 12.0501 52.0564C11.6015 52.5071 11.6015 53.2395 12.0501 53.6902C12.5049 54.1409 13.2277 54.1409 13.6763 53.6902Z" fill="#0052DA"/>
<path d="M39.6697 18.26L37.3644 20.5761L36.9096 20.1191C36.8286 19.393 36.6978 18.5354 36.5981 17.6465L40.3675 15.0049C40.3613 15.0112 39.8504 16.0378 39.6697 18.26ZM37.3582 21.2271L36.5918 20.4572L35.1713 21.8844L35.9376 22.6543L37.4703 24.1942L46.1805 16.8891L46.7724 15.5996L43.7507 14.7984L37.3582 21.2271ZM31.2523 30.8108L29.0779 28.6261L27.5452 30.166L29.7196 32.3507L31.2523 30.8108ZM31.3208 29.5964C31.3582 29.5588 31.3956 29.5213 31.433 29.4837C31.5264 29.515 31.6074 29.515 31.6448 29.4774C31.6884 29.4336 31.6884 29.3585 31.6511 29.2646C31.6884 29.2271 31.7258 29.1895 31.7632 29.1519C31.8567 29.1832 31.9377 29.1832 31.975 29.1457C32.0124 29.1081 32.0187 29.0267 31.9813 28.9328C32.0187 28.8953 32.056 28.8577 32.0934 28.8202C32.1869 28.8515 32.2679 28.8515 32.3052 28.8139C32.3489 28.7701 32.3489 28.695 32.3115 28.6011C32.3489 28.5635 32.3862 28.526 32.4236 28.4884C32.5171 28.5197 32.5981 28.5197 32.6355 28.4821C32.6728 28.4446 32.6791 28.3632 32.6417 28.2693C32.6791 28.2318 32.7165 28.1942 32.7538 28.1566C32.8473 28.1879 32.9283 28.1879 32.9657 28.1504C33.0093 28.1066 33.0093 28.0314 32.9719 27.9375C33.0093 27.9 33.0467 27.8624 33.0841 27.8249C33.1775 27.8562 33.2585 27.8562 33.2959 27.8186C33.3395 27.7748 33.3395 27.6997 33.3021 27.6058C33.3395 27.5682 33.3769 27.5307 33.4143 27.4931C33.5077 27.5244 33.5887 27.5244 33.6261 27.4868C33.6697 27.443 33.6697 27.3679 33.6323 27.274C33.6697 27.2365 33.7071 27.1989 33.7445 27.1613C33.8379 27.1926 33.9189 27.1926 33.9563 27.1551C33.9999 27.1113 33.9999 27.0361 33.9626 26.9422C33.9999 26.9047 34.0373 26.8671 34.0747 26.8296C34.1682 26.8609 34.2492 26.8609 34.2865 26.8233C34.3302 26.7795 34.3302 26.7044 34.2928 26.6105C34.3302 26.5729 34.3675 26.5354 34.4049 26.4978C34.4984 26.5291 34.5794 26.5291 34.6168 26.4915C34.6604 26.4477 34.6604 26.3726 34.623 26.2787C34.6604 26.2412 34.6978 26.2036 34.7351 26.166C34.8286 26.1973 34.9096 26.1973 34.947 26.1598C34.9906 26.116 34.9906 26.0408 34.9532 25.9469C34.9906 25.9094 35.028 25.8718 35.0654 25.8343C35.1588 25.8656 35.2398 25.8656 35.2772 25.828C35.3208 25.7842 35.3208 25.7091 35.2834 25.6152C35.3208 25.5776 35.3582 25.5401 35.3956 25.5025C35.489 25.5338 35.57 25.5338 35.6074 25.4962C35.651 25.4524 35.651 25.3773 35.6136 25.2834C35.651 25.2459 35.6884 25.2083 35.7258 25.1707C35.8192 25.202 35.9003 25.202 35.9376 25.1645C35.9812 25.1207 35.9812 25.0455 35.9439 24.9516C35.9812 24.9141 36.0186 24.8765 36.056 24.839C36.1495 24.8703 36.2305 24.8703 36.2678 24.8327C36.3115 24.7889 36.3114 24.7138 36.2741 24.6199C36.3114 24.5823 36.3488 24.5448 36.3862 24.5072C36.4797 24.5385 36.5607 24.5385 36.5981 24.5009C36.6417 24.4571 36.6417 24.382 36.6043 24.2881C36.6354 24.2568 36.6728 24.2193 36.704 24.188L35.6635 23.1426C35.6323 23.1739 35.6012 23.2052 35.57 23.2365C35.4579 23.1927 35.3707 23.1864 35.327 23.2365C35.2834 23.2803 35.2834 23.3679 35.327 23.4806C35.2959 23.5119 35.2647 23.5432 35.2336 23.5745C35.1214 23.5307 35.0342 23.5244 34.9906 23.5745C34.947 23.6183 34.947 23.706 34.9906 23.8186C34.9594 23.8499 34.9283 23.8812 34.8971 23.9125C34.785 23.8687 34.6977 23.8625 34.6541 23.9125C34.6105 23.9564 34.6105 24.044 34.6541 24.1567C34.623 24.188 34.5918 24.2193 34.5607 24.2506C34.4485 24.2067 34.3613 24.2005 34.3177 24.2506C34.2741 24.2944 34.2803 24.382 34.3177 24.4947C34.2866 24.526 34.2554 24.5573 34.2242 24.5886C34.1121 24.5448 34.0249 24.5385 33.9813 24.5886C33.9376 24.6324 33.9439 24.72 33.9813 24.8327C33.9501 24.864 33.919 24.8953 33.8878 24.9266C33.7756 24.8828 33.6884 24.8765 33.6448 24.9266C33.6012 24.9704 33.6074 25.0581 33.6448 25.1707C33.6136 25.202 33.5825 25.2333 33.5513 25.2646C33.4392 25.2208 33.352 25.2146 33.3084 25.2646C33.2648 25.3085 33.2648 25.3961 33.3084 25.5088C33.2772 25.5401 33.246 25.5714 33.2149 25.6027C33.1027 25.5588 33.0155 25.5526 32.9719 25.6027C32.9283 25.6465 32.9283 25.7341 32.9719 25.8468C32.9408 25.8781 32.9096 25.9094 32.8785 25.9407C32.7663 25.8969 32.6791 25.8906 32.6355 25.9407C32.5918 25.9845 32.5918 26.0721 32.6355 26.1848C32.6043 26.2161 32.5732 26.2474 32.542 26.2787C32.4299 26.2349 32.3426 26.2286 32.299 26.2787C32.2554 26.3225 32.2554 26.4102 32.299 26.5228C32.2679 26.5541 32.2367 26.5854 32.2056 26.6167C32.0934 26.5729 32.0062 26.5667 31.9626 26.6167C31.919 26.6606 31.9252 26.7482 31.9626 26.8609C31.9314 26.8922 31.9003 26.9235 31.8691 26.9548C31.757 26.9109 31.6697 26.9047 31.6261 26.9548C31.5825 26.9986 31.5825 27.0862 31.6261 27.1989C31.595 27.2302 31.5638 27.2615 31.5327 27.2928C31.4205 27.249 31.3333 27.2427 31.2897 27.2928C31.2461 27.3366 31.2523 27.4242 31.2897 27.5369C31.2585 27.5682 31.2274 27.5995 31.1962 27.6308C31.0841 27.587 30.9969 27.5807 30.9532 27.6308C30.9096 27.6746 30.9159 27.7623 30.9532 27.8749C30.9221 27.9062 30.8909 27.9375 30.8598 27.9688C30.7476 27.925 30.6604 27.9188 30.6168 27.9688C30.5732 28.0127 30.5732 28.1003 30.6168 28.213C30.5856 28.2443 30.5545 28.2756 30.5233 28.3069C30.4112 28.263 30.324 28.2568 30.2803 28.3069C30.2367 28.3507 30.2367 28.4383 30.2803 28.551C30.2492 28.5823 30.218 28.6136 30.1869 28.6449C30.0747 28.6011 29.9875 28.5948 29.9439 28.6449C29.9003 28.6887 29.9003 28.7763 29.9439 28.889C29.9127 28.9203 29.8878 28.9454 29.8567 28.9767L30.8972 30.022C30.9283 29.9907 30.9595 29.9594 30.9906 29.9281C31.0841 29.9594 31.1651 29.9594 31.2025 29.9219C31.3582 29.7716 31.3582 29.6965 31.3208 29.5964ZM27.3832 31.468C27.352 31.4993 27.3209 31.5306 27.2897 31.5619C27.1776 31.5181 27.0903 31.5119 27.0467 31.5619C27.0031 31.6058 27.0031 31.6934 27.0467 31.8061C27.0156 31.8374 26.9844 31.8687 26.9533 31.9C26.8411 31.8561 26.7539 31.8499 26.7103 31.9C26.6666 31.9438 26.6666 32.0314 26.7103 32.1441C26.6791 32.1754 26.648 32.2067 26.6168 32.238C26.5047 32.1942 26.4174 32.1879 26.3738 32.238C26.3302 32.2818 26.3364 32.3694 26.3738 32.4821C26.3427 32.5134 26.3115 32.5447 26.2804 32.576C26.1682 32.5322 26.081 32.5259 26.0374 32.576C25.9938 32.6198 26 32.7075 26.0374 32.8201C26.0062 32.8514 25.9751 32.8827 25.9439 32.914C25.8318 32.8702 25.7445 32.864 25.7009 32.914C25.6573 32.9579 25.6635 33.0455 25.7009 33.1582C25.6698 33.1895 25.6386 33.2208 25.6075 33.2521C25.4953 33.2082 25.4081 33.202 25.3645 33.2521C25.3209 33.2959 25.3271 33.3835 25.3645 33.4962C25.3333 33.5275 25.3022 33.5588 25.271 33.5901C25.1589 33.5463 25.0717 33.54 25.028 33.5901C24.9844 33.6339 24.9907 33.7215 25.028 33.8342C24.9969 33.8655 24.9657 33.8968 24.9346 33.9281C24.8224 33.8843 24.7352 33.878 24.6916 33.9281C24.648 33.9719 24.648 34.0596 24.6916 34.1722C24.6604 34.2035 24.6293 34.2348 24.5981 34.2661C24.486 34.2223 24.3988 34.2161 24.3551 34.2661C24.3115 34.31 24.3115 34.3976 24.3551 34.5103C24.324 34.5416 24.2928 34.5729 24.2617 34.6042C24.1495 34.5603 24.0623 34.5541 24.0187 34.6042C23.9751 34.648 23.9813 34.7356 24.0187 34.8483C18.2243 40.6699 13.053 45.8654 13.053 45.8654L14.0935 46.9108C14.0935 46.9108 19.2461 41.734 25.0654 35.8874C25.1589 35.9187 25.2399 35.9187 25.2773 35.8812C25.3209 35.8373 25.3209 35.7622 25.2835 35.6683C25.3209 35.6308 25.3583 35.5932 25.3956 35.5556C25.4891 35.5869 25.5701 35.5869 25.6075 35.5494C25.6511 35.5056 25.6511 35.4305 25.6137 35.3366C25.6511 35.299 25.6885 35.2614 25.7259 35.2239C25.8193 35.2552 25.9003 35.2552 25.9377 35.2176C25.9813 35.1738 25.9813 35.0987 25.9439 35.0048C25.9813 34.9672 26.0187 34.9297 26.0561 34.8921C26.1495 34.9234 26.2305 34.9234 26.2679 34.8859C26.3115 34.842 26.3115 34.7669 26.2741 34.673C26.3115 34.6355 26.3489 34.5979 26.3863 34.5603C26.4797 34.5916 26.5607 34.5916 26.5981 34.5541C26.6417 34.5103 26.6417 34.4352 26.6044 34.3413C26.6417 34.3037 26.6791 34.2661 26.7165 34.2286C26.81 34.2599 26.8909 34.2599 26.9283 34.2223C26.9719 34.1785 26.972 34.1034 26.9346 34.0095C26.972 33.9719 27.0093 33.9344 27.0467 33.8968C27.1402 33.9281 27.2212 33.9281 27.2585 33.8906C27.3022 33.8467 27.3022 33.7716 27.2648 33.6777C27.3022 33.6402 27.3395 33.6026 27.3769 33.565C27.4704 33.5963 27.5514 33.5963 27.5888 33.5588C27.6324 33.515 27.6324 33.4399 27.595 33.346C27.6324 33.3084 27.6698 33.2708 27.7071 33.2333C27.8006 33.2646 27.8816 33.2646 27.919 33.227C27.9626 33.1832 27.9626 33.1081 27.9252 33.0142C27.9626 32.9766 28 32.9391 28.0374 32.9015C28.1308 32.9328 28.2118 32.9328 28.2492 32.8953C28.2928 32.8514 28.2928 32.7763 28.2554 32.6824C28.2928 32.6449 28.3302 32.6073 28.3676 32.5698C28.461 32.6011 28.542 32.6011 28.5794 32.5635C28.623 32.5197 28.623 32.4446 28.5856 32.3507C28.623 32.3131 28.6604 32.2755 28.6978 32.238C28.7601 32.2568 28.8099 32.263 28.8536 32.2568L27.6199 31.0173C27.6137 31.0674 27.6199 31.1238 27.6511 31.1989C27.6199 31.2302 27.5888 31.2615 27.5576 31.2928C27.4455 31.2489 27.3582 31.2427 27.3146 31.2928C27.3333 31.2677 27.3396 31.3554 27.3832 31.468ZM54.5107 9.94079L54.8783 9.88446L55.1836 9.57773C55.1836 9.57773 55.2771 9.48383 55.4266 9.3336C55.8191 8.93924 56.6104 8.14425 57.2646 7.48698C58.3549 6.39152 56.2054 3.4557 54.1493 1.38999C52.1805 -0.588088 49.8815 -0.368997 48.0248 1.50267C45.9999 3.53708 43.8753 5.67165 41.6821 7.87508L46.4298 9.03939C48.2179 7.24285 49.6073 5.84692 49.6073 5.84692H51.464L51.707 6.09105L51.5824 6.99872L52.031 7.44942L52.4733 7.38682L52.411 7.83126L52.8596 8.28196L53.302 8.21937L53.2397 8.66381L53.6883 9.11451L54.1307 9.05191L54.0683 9.49635L54.5107 9.94079ZM4.08736 36.9766C9.36458 32.9391 41.1401 8.21311 41.1401 8.21311L47.7693 9.83438L48.8846 9.09573L50.0061 8.90168L50.4547 9.35238L50.3924 9.79682L50.8347 9.73422L51.2833 10.1849L51.221 10.6294L51.6634 10.5668L52.112 11.0175L52.0497 11.4619L52.492 11.3993L52.9406 11.85L52.8908 12.2193L52.3425 12.7702L46.8036 15.1364L41.4267 13.7154L3.96276 39.95C3.96276 39.95 2.36151 38.2974 4.08736 36.9766ZM46.0996 13.7405C46.5482 14.1912 47.2771 14.1912 47.7257 13.7405C48.1743 13.2898 48.1743 12.5574 47.7257 12.1067C47.2771 11.656 46.5482 11.656 46.0996 12.1067C45.651 12.5574 45.651 13.2898 46.0996 13.7405Z" fill="#0052DA"/>
<path d="M42.6792 37.4711V36.4069H41.0904V37.4711H40.5172V35.1237H43.2586V37.4711H42.6792ZM47.9938 44.5258H52.5358L50.2617 43.0986L47.9938 44.5258ZM62.0062 36.9453H60.1246V38.1659H56V36.9453H43.9378V38.1659H39.8132V36.9453H37.9316V44.5258H46.3053C46.1807 44.1941 46.2804 43.8122 46.5919 43.6182L48.8349 42.2097L48.1994 41.8091C47.6013 42.3161 46.7228 42.3975 46.025 41.9593C45.6137 41.6964 45.3334 41.3021 45.2212 40.8639L46.6916 41.277C46.6916 41.277 47.2399 41.3834 47.4331 40.5509C47.6324 39.6808 47.1776 39.5431 47.1776 39.5431L45.6636 39.1174C46.2555 38.4789 47.2337 38.3287 48 38.8044C48.5795 39.1675 48.891 39.7997 48.8723 40.4445L50.2679 41.3208L51.6636 40.4445C51.6449 39.806 51.9502 39.1737 52.5358 38.8044C53.3022 38.3224 54.2804 38.4727 54.8723 39.1174L53.3583 39.5431C53.3583 39.5431 52.8972 39.6808 53.1028 40.5509C53.296 41.3834 53.8442 41.277 53.8442 41.277L55.3146 40.8639C55.1962 41.3021 54.9221 41.7027 54.5109 41.9593C53.8131 42.3975 52.9346 42.3099 52.3364 41.8091L51.7009 42.2097L53.9439 43.6182C54.2555 43.8122 54.3614 44.1941 54.2305 44.5258H62.0249V36.9453H62.0062ZM59.433 37.4711V35.1237H56.6916V37.4711H57.2648V36.4069H58.8536V37.4711H59.433ZM46.7477 28.2004C46.7477 28.0252 46.891 27.8812 47.0655 27.8812H52.9221C53.0966 27.8812 53.2399 28.0252 53.2399 28.2004V29.1018H54.2804V27.7622C54.2804 27.2677 53.8816 26.8608 53.3894 26.8608H46.5483C46.0561 26.8608 45.6574 27.2615 45.6574 27.7622V29.1018H46.7477V28.2004ZM39.8194 36.2943H37.2524V32.8952C37.2524 31.4304 38.43 30.2474 39.8879 30.2474H44.835V29.6902H55.1028V30.2474H60.0498C61.5077 30.2474 62.6853 31.4304 62.6853 32.8952V36.2943H60.1183V34.4289H55.9937V36.2943H43.9315V34.4289H39.8069V36.2943H39.8194ZM59.19 31.3679C59.19 31.6996 59.4579 31.9688 59.7881 31.9688C60.5171 31.9688 61.109 32.5635 61.109 33.2959C61.109 33.6276 61.3769 33.8968 61.7071 33.8968C62.0373 33.8968 62.3052 33.6276 62.3052 33.2959C62.3052 31.8999 61.1775 30.7669 59.7881 30.7669C59.4579 30.7669 59.19 31.0361 59.19 31.3679ZM41.8069 31.3679C41.8069 31.6996 42.0748 31.9688 42.405 31.9688H57.5015C57.8317 31.9688 58.0997 31.6996 58.0997 31.3679C58.0997 31.0361 57.8317 30.7669 57.5015 30.7669H42.405C42.0748 30.7669 41.8069 31.0361 41.8069 31.3679ZM40.2992 31.9688C40.6294 31.9688 40.8973 31.6996 40.8973 31.3679C40.8973 31.0361 40.6294 30.7669 40.2992 30.7669C38.9098 30.7669 37.782 31.8999 37.782 33.2959C37.782 33.6276 38.0499 33.8968 38.3802 33.8968C38.7104 33.8968 38.9783 33.6276 38.9783 33.2959C38.9783 32.5635 39.5702 31.9688 40.2992 31.9688Z" fill="#0052DA"/>
<path d="M81.8314 39.85L79.5261 37.5339L79.9809 37.0769C80.7037 36.9956 81.5573 36.8641 82.442 36.764L85.0713 40.5511C85.065 40.5511 84.0432 40.0315 81.8314 39.85ZM78.8781 37.5339L79.6445 36.764L78.224 35.3367L77.4576 36.1067L75.9249 37.6466L83.1959 46.3977L84.4794 46.9924L85.2769 43.9564L78.8781 37.5339ZM69.3393 31.3994L71.5137 29.2147L69.981 27.6748L67.8066 29.8595L69.3393 31.3994ZM70.548 31.4682C70.5854 31.5058 70.6227 31.5433 70.6601 31.5809C70.629 31.6748 70.629 31.7562 70.6664 31.7937C70.71 31.8375 70.7847 31.8375 70.8782 31.8C70.9156 31.8375 70.953 31.8751 70.9903 31.9127C70.9592 32.0066 70.9592 32.0879 70.9966 32.1255C71.0402 32.1693 71.115 32.1693 71.2084 32.1317C71.2458 32.1693 71.2832 32.2069 71.3206 32.2444C71.2894 32.3383 71.2894 32.4197 71.3268 32.4573C71.3704 32.5011 71.4452 32.5011 71.5386 32.4635C71.576 32.5011 71.6134 32.5386 71.6508 32.5762C71.6196 32.6701 71.6196 32.7515 71.657 32.789C71.7006 32.8328 71.7754 32.8328 71.8688 32.7953C71.9062 32.8328 71.9436 32.8704 71.981 32.908C71.9498 33.0018 71.9498 33.0832 71.9872 33.1208C72.0308 33.1646 72.1056 33.1646 72.1991 33.127C72.2364 33.1646 72.2738 33.2022 72.3112 33.2397C72.2801 33.3336 72.2801 33.415 72.3174 33.4526C72.3611 33.4964 72.4358 33.4964 72.5293 33.4588C72.5667 33.4964 72.604 33.5339 72.6414 33.5715C72.6103 33.6654 72.6103 33.7468 72.6477 33.7843C72.6913 33.8281 72.766 33.8281 72.8595 33.7906C72.8969 33.8281 72.9343 33.8657 72.9716 33.9033C72.9405 33.9971 72.9405 34.0785 72.9779 34.1161C73.0153 34.1536 73.0963 34.1599 73.1897 34.1223C73.2271 34.1599 73.2645 34.1975 73.3019 34.235C73.2707 34.3289 73.2707 34.4103 73.3081 34.4479C73.3517 34.4917 73.4265 34.4917 73.5199 34.4541C73.5573 34.4917 73.5947 34.5292 73.6321 34.5668C73.6009 34.6607 73.6009 34.7421 73.6383 34.7796C73.6819 34.8234 73.7567 34.8234 73.8501 34.7859C73.8875 34.8234 73.9249 34.861 73.9623 34.8985C73.9312 34.9924 73.9311 35.0738 73.9685 35.1114C74.0121 35.1552 74.0869 35.1552 74.1804 35.1176C74.2177 35.1552 74.2551 35.1928 74.2925 35.2303C74.2614 35.3242 74.2614 35.4056 74.2987 35.4431C74.3423 35.487 74.4171 35.487 74.5106 35.4494C74.548 35.487 74.5854 35.5245 74.6227 35.5621C74.5916 35.656 74.5916 35.7374 74.629 35.7749C74.6726 35.8187 74.7473 35.8187 74.8408 35.7812C74.8782 35.8187 74.9156 35.8563 74.9529 35.8938C74.9218 35.9877 74.9218 36.0691 74.9592 36.1067C75.0028 36.1505 75.0775 36.1505 75.171 36.1129C75.2084 36.1505 75.2458 36.1881 75.2832 36.2256C75.252 36.3195 75.252 36.4009 75.2894 36.4384C75.333 36.4823 75.4078 36.4823 75.5012 36.4447C75.5386 36.4823 75.576 36.5198 75.6134 36.5574C75.5822 36.6513 75.5822 36.7327 75.6196 36.7702C75.6632 36.814 75.738 36.814 75.8314 36.7765C75.8626 36.8078 75.9 36.8453 75.9311 36.8766L76.9716 35.8313C76.9405 35.8 76.9093 35.7687 76.8782 35.7374C76.9218 35.6247 76.928 35.537 76.8782 35.4932C76.8346 35.4494 76.7473 35.4494 76.6352 35.4932C76.604 35.4619 76.5729 35.4306 76.5417 35.3993C76.5853 35.2867 76.5916 35.199 76.5417 35.1552C76.4919 35.1114 76.4109 35.1114 76.2987 35.1552C76.2676 35.1239 76.2364 35.0926 76.2053 35.0613C76.2489 34.9486 76.2551 34.861 76.2053 34.8172C76.1617 34.7734 76.0744 34.7734 75.9623 34.8172C75.9311 34.7859 75.9 34.7546 75.8688 34.7233C75.9124 34.6106 75.9187 34.523 75.8688 34.4791C75.8252 34.4353 75.738 34.4416 75.6258 34.4791C75.5947 34.4478 75.5635 34.4165 75.5324 34.3853C75.576 34.2726 75.5822 34.1849 75.5324 34.1411C75.4888 34.0973 75.4015 34.0973 75.2894 34.1411C75.2582 34.1098 75.2271 34.0785 75.1959 34.0472C75.2395 33.9345 75.2458 33.8469 75.1959 33.8031C75.1523 33.7593 75.0651 33.7655 74.9529 33.8031C74.9218 33.7718 74.8906 33.7405 74.8595 33.7092C74.9031 33.5965 74.9093 33.5089 74.8595 33.4651C74.8159 33.4212 74.7286 33.4275 74.6165 33.4651C74.5853 33.4338 74.5542 33.4025 74.523 33.3712C74.5667 33.2585 74.5729 33.1709 74.523 33.127C74.4794 33.0832 74.3922 33.0832 74.28 33.127C74.2489 33.0957 74.2177 33.0644 74.1866 33.0331C74.2302 32.9205 74.2364 32.8328 74.1866 32.789C74.143 32.7452 74.0558 32.7452 73.9436 32.789C73.9125 32.7577 73.8813 32.7264 73.8501 32.6951C73.8938 32.5824 73.9 32.4948 73.8501 32.451C73.8065 32.4072 73.7193 32.4134 73.6072 32.451C73.576 32.4197 73.5449 32.3884 73.5137 32.3571C73.5573 32.2444 73.5636 32.1568 73.5137 32.113C73.4701 32.0691 73.3829 32.0691 73.2707 32.113C73.2396 32.0817 73.2084 32.0504 73.1773 32.0191C73.2209 31.9064 73.2271 31.8188 73.1773 31.7749C73.1336 31.7311 73.0464 31.7374 72.9343 31.7749C72.9031 31.7436 72.872 31.7123 72.8408 31.681C72.8844 31.5684 72.8906 31.4807 72.8408 31.4369C72.7972 31.3931 72.71 31.3994 72.5978 31.4369C72.5667 31.4056 72.5355 31.3743 72.5044 31.343C72.548 31.2303 72.5542 31.1427 72.5044 31.0989C72.4607 31.0551 72.3735 31.0551 72.2614 31.0989C72.2302 31.0676 72.1991 31.0363 72.1679 31.005C72.2115 30.8923 72.2178 30.8047 72.1679 30.7609C72.1243 30.717 72.0371 30.7233 71.9249 30.7609C71.8938 30.7296 71.8626 30.6983 71.8315 30.667C71.8751 30.5543 71.8813 30.4667 71.8315 30.4228C71.7879 30.379 71.7006 30.3853 71.5885 30.4228C71.5573 30.3915 71.5262 30.3602 71.495 30.3289C71.5386 30.2163 71.5449 30.1286 71.495 30.0848C71.4514 30.041 71.3642 30.0473 71.252 30.0848C71.2209 30.0535 71.196 30.0285 71.1648 29.9972L70.1243 31.0426C70.1555 31.0739 70.1866 31.1052 70.2178 31.1364C70.1866 31.2303 70.1866 31.3117 70.224 31.3493C70.3735 31.4995 70.4483 31.4995 70.548 31.4682ZM68.6851 27.5121C68.6539 27.4808 68.6228 27.4495 68.5916 27.4182C68.6352 27.3055 68.6414 27.2179 68.5916 27.174C68.548 27.1302 68.4608 27.1365 68.3486 27.174C68.3175 27.1427 68.2863 27.1114 68.2552 27.0801C68.2988 26.9675 68.305 26.8798 68.2552 26.836C68.2116 26.7922 68.1243 26.7984 68.0122 26.836C67.981 26.8047 67.9499 26.7734 67.9187 26.7421C67.9623 26.6294 67.9686 26.5418 67.9187 26.498C67.8751 26.4542 67.7879 26.4604 67.6757 26.498C67.6446 26.4667 67.6134 26.4354 67.5823 26.4041C67.6259 26.2914 67.6321 26.2038 67.5823 26.16C67.5387 26.1161 67.4514 26.1161 67.3393 26.16C67.3081 26.1287 67.277 26.0974 67.2458 26.0661C67.2894 25.9534 67.2957 25.8657 67.2458 25.8219C67.2022 25.7781 67.115 25.7781 67.0028 25.8219C66.9717 25.7906 66.9405 25.7593 66.9094 25.728C66.953 25.6154 66.9592 25.5277 66.9094 25.4839C66.8595 25.4401 66.7785 25.4463 66.6664 25.4839C66.6352 25.4526 66.6041 25.4213 66.5729 25.39C66.6165 25.2773 66.6228 25.1897 66.5729 25.1459C66.5293 25.1021 66.4421 25.1083 66.33 25.1459C66.2988 25.1146 66.2676 25.0833 66.2365 25.052C66.2801 24.9393 66.2863 24.8517 66.2365 24.8078C66.1929 24.764 66.1057 24.7703 65.9935 24.8078C65.9623 24.7766 65.9312 24.7453 65.9 24.714C65.9437 24.6013 65.9499 24.5136 65.9 24.4698C65.8564 24.426 65.7692 24.4323 65.6571 24.4698C65.6259 24.4385 65.5947 24.4072 65.5636 24.3759C65.6072 24.2633 65.6134 24.1756 65.5636 24.1318C65.52 24.088 65.4327 24.0942 65.3206 24.1318C59.5262 18.3102 54.355 13.1147 54.355 13.1147L53.3145 14.16C53.3145 14.16 58.4671 19.3368 64.2864 25.1834C64.2552 25.2773 64.2552 25.3587 64.2926 25.3963C64.3362 25.4401 64.4109 25.4401 64.5044 25.4025C64.5418 25.4401 64.5792 25.4776 64.6166 25.5152C64.5854 25.6091 64.5854 25.6905 64.6228 25.728C64.6602 25.7656 64.7412 25.7719 64.8346 25.7343C64.872 25.7719 64.9094 25.8094 64.9468 25.847C64.9156 25.9409 64.9156 26.0222 64.953 26.0598C64.9966 26.1036 65.0714 26.1036 65.1648 26.0661C65.2022 26.1036 65.2396 26.1412 65.277 26.1787C65.2458 26.2726 65.2458 26.354 65.2832 26.3916C65.3268 26.4354 65.4016 26.4354 65.4951 26.3978C65.5324 26.4354 65.5698 26.4729 65.6072 26.5105C65.5761 26.6044 65.576 26.6858 65.6134 26.7233C65.657 26.7671 65.7318 26.7672 65.8253 26.7296C65.8626 26.7672 65.9 26.8047 65.9374 26.8423C65.9063 26.9362 65.9063 27.0175 65.9436 27.0551C65.9873 27.0989 66.062 27.0989 66.1555 27.0614C66.1929 27.0989 66.2303 27.1365 66.2676 27.174C66.2365 27.2679 66.2365 27.3493 66.2739 27.3869C66.3175 27.4307 66.3923 27.4307 66.4857 27.3931C66.5231 27.4307 66.5605 27.4682 66.5979 27.5058C66.5667 27.5997 66.5667 27.6811 66.6041 27.7186C66.6477 27.7624 66.7225 27.7624 66.8159 27.7249C66.8533 27.7624 66.8907 27.8 66.9281 27.8376C66.8969 27.9315 66.8969 28.0128 66.9343 28.0504C66.9717 28.088 67.0527 28.0942 67.1461 28.0567C67.1835 28.0942 67.2209 28.1318 67.2583 28.1693C67.2271 28.2632 67.2271 28.3446 67.2645 28.3822C67.3081 28.426 67.3829 28.426 67.4764 28.3884C67.5137 28.426 67.5511 28.4635 67.5885 28.5011C67.5574 28.595 67.5574 28.6764 67.5947 28.7139C67.6384 28.7577 67.7131 28.7577 67.8066 28.7202C67.844 28.7577 67.8813 28.7953 67.9187 28.8329C67.9 28.8955 67.8938 28.9455 67.9 28.9894L69.1337 27.7499C69.0838 27.7437 69.0278 27.7499 68.953 27.7812C68.9218 27.7499 68.8907 27.7186 68.8595 27.6873C68.9031 27.5747 68.9094 27.487 68.8595 27.4432C68.8845 27.462 68.7972 27.4682 68.6851 27.5121ZM90.1117 54.767L90.1616 55.1363L90.4669 55.443C90.4669 55.443 90.5603 55.5369 90.7098 55.6871C91.1024 56.0815 91.8936 56.8765 92.5478 57.5338C93.6382 58.6292 96.5603 56.4696 98.6163 54.4039C100.585 52.4258 100.367 50.116 98.5042 48.2506C96.4793 46.2162 94.3547 44.0816 92.1616 41.8782L91.0027 46.6481C92.7908 48.4446 94.1802 49.8406 94.1802 49.8406V51.706L93.9497 51.9501L93.0401 51.8186L92.5915 52.2693L92.6538 52.7138L92.2114 52.6512L91.7628 53.1019L91.8251 53.5463L91.3827 53.4837L90.9341 53.9344L90.9965 54.3789L90.5541 54.3163L90.1117 54.767ZM63.2022 4.10689C67.2209 9.40889 91.8313 41.3336 91.8313 41.3336L90.2176 47.9939L90.9528 49.1144L91.146 50.2412L90.6974 50.6919L90.255 50.6293L90.3173 51.0737L89.8687 51.5244L89.4264 51.4618L89.4887 51.9063L89.0401 52.357L88.5977 52.2944L88.66 52.7388L88.2114 53.1895L87.8438 53.1394L87.2955 52.5886L84.9404 47.0237L86.3547 41.6215L60.2428 3.97544C60.2428 3.97544 61.8876 2.36669 63.2022 4.10689ZM86.3298 46.3163C85.8812 46.767 85.8812 47.4994 86.3298 47.9501C86.7784 48.4008 87.5074 48.4008 87.956 47.9501C88.4046 47.4994 88.4046 46.767 87.956 46.3163C87.5074 45.8656 86.7784 45.8656 86.3298 46.3163Z" fill="#0052DA"/>
<path d="M60.3425 81.7398L62.6478 79.4237L63.1026 79.8806C63.1836 80.6068 63.3144 81.4644 63.4141 82.3532L59.6447 84.9949C59.6447 84.9949 60.1556 83.9683 60.3425 81.7398ZM62.6478 78.7789L63.4141 79.5489L64.8347 78.1217L64.0683 77.3517L62.5356 75.8118L53.8254 83.1169L53.2335 84.4064L56.2553 85.2077L62.6478 78.7789ZM68.7536 69.1953L70.9281 71.3799L72.4608 69.84L70.2863 67.6554L68.7536 69.1953ZM68.6851 70.4097C68.6477 70.4472 68.6103 70.4848 68.573 70.5223C68.4795 70.491 68.3985 70.491 68.3611 70.5286C68.3175 70.5724 68.3175 70.6475 68.3549 70.7414C68.3175 70.779 68.2801 70.8165 68.2427 70.8541C68.1493 70.8228 68.0683 70.8228 68.0309 70.8604C67.9873 70.9042 67.9873 70.9793 68.0247 71.0732C67.9873 71.1107 67.9499 71.1483 67.9125 71.1859C67.8191 71.1546 67.7381 71.1546 67.7007 71.1921C67.6633 71.2297 67.6571 71.3111 67.6945 71.405C67.6571 71.4425 67.6197 71.4801 67.5823 71.5176C67.4889 71.4863 67.4079 71.4863 67.3705 71.5239C67.3269 71.5677 67.3269 71.6428 67.3642 71.7367C67.3269 71.7743 67.2895 71.8118 67.2521 71.8494C67.1586 71.8181 67.0776 71.8181 67.0403 71.8557C66.9966 71.8995 66.9966 71.9746 67.034 72.0685C66.9966 72.106 66.9593 72.1436 66.9219 72.1812C66.8284 72.1499 66.7474 72.1499 66.71 72.1874C66.6664 72.2312 66.6664 72.3064 66.7038 72.4002C66.6664 72.4378 66.629 72.4754 66.5917 72.5129C66.4982 72.4816 66.4172 72.4816 66.3798 72.5192C66.3362 72.563 66.3362 72.6381 66.3736 72.732C66.3362 72.7696 66.2988 72.8071 66.2614 72.8447C66.168 72.8134 66.087 72.8134 66.0496 72.851C66.006 72.8948 66.006 72.9699 66.0434 73.0638C66.006 73.1013 65.9686 73.1389 65.9312 73.1765C65.8378 73.1452 65.7568 73.1452 65.7194 73.1827C65.6758 73.2265 65.6758 73.3017 65.7132 73.3956C65.6758 73.4331 65.6384 73.4707 65.601 73.5082C65.5076 73.4769 65.4266 73.4769 65.3892 73.5145C65.3456 73.5583 65.3456 73.6334 65.3829 73.7273C65.3456 73.7649 65.3082 73.8024 65.2708 73.84C65.1773 73.8087 65.0964 73.8087 65.059 73.8463C65.0154 73.8901 65.0153 73.9652 65.0527 74.0591C65.0153 74.0966 64.978 74.1342 64.9406 74.1718C64.8471 74.1405 64.7661 74.1405 64.7288 74.178C64.6851 74.2218 64.6851 74.297 64.7225 74.3909C64.6851 74.4284 64.6478 74.466 64.6104 74.5035C64.5169 74.4722 64.4359 74.4722 64.3985 74.5098C64.3549 74.5536 64.3549 74.6287 64.3923 74.7226C64.3549 74.7602 64.3175 74.7977 64.2802 74.8353C64.1867 74.804 64.1057 74.804 64.0683 74.8416C64.0247 74.8854 64.0247 74.9605 64.0621 75.0544C64.0247 75.0919 63.9873 75.1295 63.9499 75.1671C63.8565 75.1358 63.7755 75.1358 63.7381 75.1733C63.6945 75.2171 63.6945 75.2923 63.7319 75.3861C63.6945 75.4237 63.6571 75.4613 63.6197 75.4988C63.5263 75.4675 63.4453 75.4675 63.4079 75.5051C63.3643 75.5489 63.3643 75.624 63.4017 75.7179C63.3705 75.7492 63.3331 75.7868 63.302 75.8181L64.3425 76.8634C64.3736 76.8321 64.4048 76.8009 64.4359 76.7696C64.5481 76.8134 64.6353 76.8196 64.6789 76.7696C64.7225 76.7257 64.7225 76.6381 64.6789 76.5254C64.7101 76.4941 64.7412 76.4628 64.7724 76.4315C64.8845 76.4753 64.9717 76.4816 65.0154 76.4315C65.059 76.3877 65.0527 76.3001 65.0154 76.1874C65.0465 76.1561 65.0777 76.1248 65.1088 76.0935C65.221 76.1373 65.3082 76.1436 65.3518 76.0935C65.3954 76.0497 65.3892 75.962 65.3518 75.8494C65.383 75.8181 65.4141 75.7868 65.4453 75.7555C65.5574 75.7993 65.6446 75.8055 65.6883 75.7555C65.7319 75.7117 65.7256 75.624 65.6883 75.5113C65.7194 75.48 65.7506 75.4487 65.7817 75.4174C65.8939 75.4613 65.9811 75.4675 66.0247 75.4174C66.0683 75.3736 66.0621 75.286 66.0247 75.1733C66.0558 75.142 66.087 75.1107 66.1181 75.0794C66.2303 75.1232 66.3175 75.1295 66.3611 75.0794C66.4048 75.0356 66.4048 74.948 66.3611 74.8353C66.3923 74.804 66.4234 74.7727 66.4546 74.7414C66.5667 74.7852 66.654 74.7915 66.6976 74.7414C66.7412 74.6976 66.7412 74.6099 66.6976 74.4973C66.7287 74.466 66.7599 74.4347 66.791 74.4034C66.9032 74.4472 66.9904 74.4535 67.034 74.4034C67.0776 74.3596 67.0776 74.2719 67.034 74.1592C67.0652 74.1279 67.0963 74.0966 67.1275 74.0653C67.2396 74.1092 67.3269 74.1154 67.3705 74.0653C67.4141 74.0215 67.4141 73.9339 67.3705 73.8212C67.4016 73.7899 67.4328 73.7586 67.4639 73.7273C67.5761 73.7711 67.6633 73.7774 67.7069 73.7273C67.7505 73.6835 67.7443 73.5959 67.7069 73.4832C67.7381 73.4519 67.7692 73.4206 67.8004 73.3893C67.9125 73.4331 67.9998 73.4394 68.0434 73.3893C68.087 73.3455 68.0808 73.2578 68.0434 73.1452C68.0745 73.1139 68.1057 73.0826 68.1368 73.0513C68.249 73.0951 68.3362 73.1013 68.3798 73.0513C68.4234 73.0074 68.4172 72.9198 68.3798 72.8071C68.411 72.7758 68.4421 72.7445 68.4733 72.7132C68.5854 72.7571 68.6726 72.7633 68.7163 72.7132C68.7599 72.6694 68.7536 72.5818 68.7163 72.4691C68.7474 72.4378 68.7786 72.4065 68.8097 72.3752C68.9219 72.419 69.0091 72.4253 69.0527 72.3752C69.0963 72.3314 69.0963 72.2438 69.0527 72.1311C69.0839 72.0998 69.115 72.0685 69.1462 72.0372C69.2583 72.081 69.3455 72.0873 69.3891 72.0372C69.4328 71.9934 69.4328 71.9057 69.3891 71.7931C69.4203 71.7618 69.4515 71.7305 69.4826 71.6992C69.5948 71.743 69.682 71.7492 69.7256 71.6992C69.7692 71.6553 69.7692 71.5677 69.7256 71.455C69.7568 71.4237 69.7879 71.3924 69.8191 71.3611C69.9312 71.405 70.0184 71.4112 70.0621 71.3611C70.1057 71.3111 70.1057 71.2297 70.0621 71.117C70.0932 71.0857 70.1181 71.0607 70.1493 71.0294L69.1088 69.984C69.0776 70.0153 69.0465 70.0466 69.0153 70.0779C68.9219 70.0466 68.8409 70.0466 68.8035 70.0841C68.6477 70.2344 68.654 70.3095 68.6851 70.4097ZM72.6228 68.538C72.6539 68.5067 72.6851 68.4754 72.7162 68.4441C72.8284 68.4879 72.9156 68.4942 72.9592 68.4441C73.0028 68.4003 73.0028 68.3126 72.9592 68.2C72.9904 68.1687 73.0215 68.1374 73.0527 68.1061C73.1648 68.1499 73.2521 68.1561 73.2957 68.1061C73.3393 68.0623 73.3331 67.9746 73.2957 67.8619C73.3268 67.8306 73.358 67.7993 73.3891 67.768C73.5013 67.8119 73.5885 67.8181 73.6321 67.768C73.6757 67.7242 73.6757 67.6366 73.6321 67.5239C73.6633 67.4926 73.6944 67.4613 73.7256 67.43C73.8377 67.4738 73.9249 67.4801 73.9686 67.43C74.0122 67.3862 74.0059 67.2986 73.9686 67.1859C73.9997 67.1546 74.0309 67.1233 74.062 67.092C74.1742 67.1358 74.2614 67.1421 74.305 67.092C74.3486 67.0482 74.3424 66.9605 74.305 66.8479C74.3362 66.8166 74.3673 66.7853 74.3985 66.754C74.5106 66.7978 74.5979 66.804 74.6415 66.754C74.6851 66.7101 74.6851 66.6225 74.6415 66.5098C74.6726 66.4785 74.7038 66.4472 74.7349 66.4159C74.8471 66.4598 74.9343 66.466 74.9779 66.4159C75.0215 66.3721 75.0215 66.2845 74.9779 66.1718C75.009 66.1405 75.0402 66.1092 75.0714 66.0779C75.1835 66.1217 75.2707 66.128 75.3143 66.0779C75.358 66.0341 75.358 65.9465 75.3143 65.8338C75.3455 65.8025 75.3766 65.7712 75.4078 65.7399C75.52 65.7837 75.6072 65.79 75.6508 65.7399C75.6944 65.6898 75.6944 65.6084 75.6508 65.4958C75.682 65.4645 75.7131 65.4332 75.7443 65.4019C75.8564 65.4457 75.9436 65.4519 75.9873 65.4019C76.0309 65.358 76.0246 65.2704 75.9873 65.1577C81.7816 59.3362 86.9529 54.1406 86.9529 54.1406L85.9124 53.0952C85.9124 53.0952 80.7598 58.272 74.9405 64.1186C74.8471 64.0873 74.7661 64.0873 74.7287 64.1249C74.6851 64.1687 74.6851 64.2438 74.7225 64.3377C74.6851 64.3753 74.6477 64.4128 74.6103 64.4504C74.5168 64.4191 74.4358 64.4191 74.3985 64.4566C74.3549 64.5005 74.3548 64.5756 74.3922 64.6695C74.3548 64.707 74.3175 64.7446 74.2801 64.7822C74.1866 64.7509 74.1056 64.7508 74.0683 64.7884C74.0246 64.8322 74.0246 64.9073 74.062 65.0012C74.0246 65.0388 73.9873 65.0764 73.9499 65.1139C73.8564 65.0826 73.7754 65.0826 73.738 65.1202C73.6944 65.164 73.6944 65.2391 73.7318 65.333C73.6944 65.3706 73.657 65.4081 73.6197 65.4457C73.5262 65.4144 73.4452 65.4144 73.4078 65.4519C73.3642 65.4958 73.3642 65.5709 73.4016 65.6648C73.3642 65.7023 73.3268 65.7399 73.2894 65.7774C73.196 65.7461 73.115 65.7462 73.0776 65.7837C73.034 65.8275 73.034 65.9026 73.0714 65.9965C73.034 66.0341 72.9966 66.0717 72.9592 66.1092C72.8658 66.0779 72.7848 66.0779 72.7474 66.1155C72.7038 66.1593 72.7038 66.2344 72.7412 66.3283C72.7038 66.3659 72.6664 66.4034 72.629 66.441C72.5356 66.4097 72.4546 66.4097 72.4172 66.4472C72.3736 66.4911 72.3736 66.5662 72.4109 66.6601C72.3736 66.6976 72.3362 66.7352 72.2988 66.7727C72.2053 66.7415 72.1243 66.7414 72.087 66.779C72.0433 66.8228 72.0433 66.8979 72.0807 66.9918C72.0433 67.0294 72.006 67.067 71.9686 67.1045C71.8751 67.0732 71.7941 67.0732 71.7567 67.1108C71.7131 67.1546 71.7131 67.2297 71.7505 67.3236C71.7131 67.3612 71.6757 67.3987 71.6384 67.4363C71.5449 67.405 71.4639 67.405 71.4265 67.4425C71.3891 67.4801 71.3829 67.5615 71.4203 67.6554C71.3829 67.6929 71.3455 67.7305 71.3081 67.768C71.2458 67.7493 71.196 67.743 71.1524 67.7493L72.386 68.9887C72.3923 68.9386 72.386 68.876 72.3549 68.8072C72.386 68.7759 72.4172 68.7446 72.4483 68.7133C72.5605 68.7571 72.6477 68.7633 72.6913 68.7133C72.6726 68.732 72.6664 68.6444 72.6228 68.538ZM45.4952 90.0652L45.1276 90.1153L44.8223 90.422C44.8223 90.422 44.7289 90.5159 44.5794 90.6662C44.1868 91.0605 43.3956 91.8555 42.7414 92.5128C41.651 93.6082 43.8005 96.5441 45.8566 98.6098C47.8254 100.588 50.1245 100.369 51.9812 98.4971C54.0061 96.4627 56.1307 94.3281 58.3238 92.1247L53.5762 90.9604C51.788 92.7569 50.3986 94.1528 50.3986 94.1528H48.5419L48.299 93.9087L48.4298 92.9948L47.9812 92.5441L47.5388 92.6067L47.6011 92.1623L47.1525 91.7115L46.7102 91.7741L46.7725 91.3297L46.3239 90.879L45.8815 90.9416L45.9438 90.4972L45.4952 90.0652ZM95.9186 63.0294C90.6414 67.067 58.8659 91.7929 58.8659 91.7929L52.2366 90.1716L51.1214 90.9103L49.9999 91.1044L49.5513 90.6537L49.6136 90.2092L49.1712 90.2718L48.7226 89.8211L48.7849 89.3767L48.3426 89.4393L47.894 88.9886L47.9563 88.5441L47.5139 88.6067L47.0653 88.156L47.1151 87.7867L47.6634 87.2358L53.2023 84.8697L58.5793 86.2906L96.0432 60.056C96.0432 60.056 97.6507 61.7086 95.9186 63.0294ZM53.9064 86.2593C53.4578 85.8086 52.7288 85.8086 52.2802 86.2593C51.8316 86.71 51.8316 87.4424 52.2802 87.8931C52.7288 88.3438 53.4578 88.3438 53.9064 87.8931C54.355 87.4424 54.355 86.71 53.9064 86.2593Z" fill="#0052DA"/>
<path d="M50.1369 15.437L15.9253 49.8092L50.1369 84.1815L84.3485 49.803L50.1369 15.437ZM50.1369 83.3051L16.8038 49.8155L50.1369 16.3259L83.47 49.8155L50.1369 83.3051Z" fill="#0052DA"/>
<path d="M27.4332 53.277H23.7759V51.8936H24.2805V48.1002H23.7759V46.7168H27.5391C27.8818 46.7168 28.1871 46.7544 28.4674 46.8232C28.7416 46.8921 28.9783 47.0047 29.1652 47.1612C29.3522 47.3177 29.5017 47.5243 29.6076 47.7747C29.7135 48.0251 29.7634 48.3318 29.7634 48.6949C29.7634 49.0579 29.7135 49.3647 29.6076 49.6151C29.5017 49.8654 29.3584 50.0658 29.1652 50.2285C28.9721 50.385 28.7416 50.4977 28.4674 50.5665C28.1933 50.6354 27.8818 50.673 27.5391 50.673H26.6232V51.8873H27.427V53.277H27.4332ZM26.9098 49.4899C27.0656 49.4899 27.184 49.446 27.2712 49.3647C27.3522 49.2833 27.3958 49.1456 27.3958 48.9515V48.6448C27.3958 48.457 27.3522 48.3193 27.2712 48.2317C27.1902 48.1503 27.0656 48.1065 26.9036 48.1065H26.617V49.4899H26.9098Z" fill="#0052DA"/>
<path d="M30.0811 46.7231H33.7072V48.1066H32.9346V51.9H33.6885V51.1237H35.3583V53.2834H30.0811V51.9H30.5857V48.1066H30.0811V46.7231Z" fill="#0052DA"/>
<path d="M41.6201 50.9297C41.6201 51.3867 41.5577 51.7685 41.4331 52.0815C41.3085 52.3945 41.1278 52.6449 40.8911 52.8452C40.6543 53.0392 40.3739 53.1832 40.0375 53.2708C39.7073 53.3585 39.3335 53.4023 38.9285 53.4023C38.511 53.4023 38.131 53.3585 37.7945 53.2708C37.4581 53.1832 37.1715 53.0392 36.9285 52.8452C36.6917 52.6511 36.5048 52.3945 36.374 52.0815C36.2431 51.7685 36.1746 51.3867 36.1746 50.9297V48.1066H35.6699V46.7231H38.8599V48.1066H38.5235V51.3616C38.5235 51.5557 38.5671 51.6934 38.6481 51.7748C38.7291 51.8561 38.8537 51.9 39.0157 51.9C39.1777 51.9 39.3023 51.8561 39.3771 51.7748C39.4581 51.6934 39.5017 51.5557 39.5017 51.3616V48.1066H39.1652V46.7231H42.1247V48.1066H41.6201V50.9297Z" fill="#0052DA"/>
<path d="M42.3613 46.7231H46.3675L47.327 49.6151L48.2491 46.7231H52.1183V48.1066H51.6136V51.9H52.1183V53.2834H48.7663V51.9H49.2709V48.5698L47.6012 53.2834H46.6977L44.8037 48.5572V51.9H45.3083V53.2834H42.3738V51.9H42.8785V48.1066H42.3738V46.7231H42.3613Z" fill="#0052DA"/>
<path d="M52.4673 46.7231H56.3987C57.0841 46.7231 57.6261 46.8609 58.0249 47.1426C58.4236 47.4242 58.623 47.8374 58.623 48.382C58.623 48.6511 58.5732 48.8828 58.4735 49.0705C58.3738 49.2646 58.2492 49.4211 58.1059 49.54C57.9626 49.6652 57.8068 49.7591 57.651 49.828C57.489 49.8968 57.352 49.9407 57.2336 49.9657V50.0471C57.3582 50.0596 57.5077 50.0846 57.6884 50.1284C57.8691 50.1723 58.0373 50.2474 58.1993 50.3538C58.3613 50.4602 58.4984 50.6167 58.6168 50.8108C58.7289 51.0048 58.7912 51.2615 58.7912 51.5744C58.7912 51.8874 58.7289 52.1566 58.5981 52.3694C58.4672 52.5885 58.299 52.7638 58.0809 52.8952C57.8629 53.0267 57.6074 53.1269 57.3208 53.1832C57.0342 53.2395 56.7289 53.2708 56.4112 53.2708H52.4797V51.8874H52.9844V48.094H52.4797V46.7231H52.4673ZM55.7694 49.49C55.9314 49.49 56.056 49.4461 56.1308 49.3648C56.2118 49.2834 56.2554 49.1457 56.2554 48.9516V48.6449C56.2554 48.4571 56.2118 48.3194 56.1308 48.2317C56.0498 48.1504 55.9252 48.1066 55.7694 48.1066H55.3208V49.49H55.7694ZM55.8317 51.9C55.9937 51.9 56.1183 51.8561 56.1993 51.7748C56.2803 51.6934 56.3239 51.5557 56.3239 51.3616V50.9923C56.3239 50.7982 56.2803 50.6605 56.1993 50.5791C56.1183 50.4978 55.9937 50.454 55.8317 50.454H55.3208V51.9062H55.8317V51.9Z" fill="#0052DA"/>
<path d="M59.1152 46.7231H62.4672V48.1066H61.9626V51.9H62.4672V53.2834H59.1152V51.9H59.6199V48.1066H59.1152V46.7231Z" fill="#0052DA"/>
<path d="M67.5887 46.7231H70.5233V48.1066H70.0186V53.2834H67.6635L65.2087 49.4837V51.9H65.7134V53.2834H62.7788V51.9H63.2835V48.1066H62.7788V46.7231H65.8878L68.0934 50.1097V48.1066H67.5887V46.7231Z" fill="#0052DA"/>
<path d="M74.1495 49.9154H77.1215V51.1736H76.704V52.8575C76.5732 52.9201 76.4237 52.9827 76.2554 53.0453C76.0872 53.1079 75.8878 53.1705 75.6698 53.2205C75.4455 53.2706 75.2025 53.3144 74.9283 53.3457C74.6542 53.377 74.3489 53.3958 74.0125 53.3958C73.5078 53.3958 73.0592 53.3332 72.6542 53.208C72.2492 53.0828 71.9066 52.8888 71.6262 52.6196C71.3458 52.3504 71.1277 51.9999 70.9782 51.568C70.8287 51.1361 70.7539 50.6165 70.7539 49.9968C70.7539 49.3833 70.8287 48.8638 70.9782 48.4318C71.1277 47.9999 71.3458 47.6494 71.6262 47.3802C71.9066 47.111 72.2492 46.9107 72.648 46.7918C73.053 46.6666 73.5016 46.604 74 46.604C74.3427 46.604 74.648 46.6228 74.9283 46.6541C75.2025 46.6854 75.4517 46.7292 75.676 46.7855C75.8941 46.8356 76.0934 46.8982 76.2617 46.9608C76.4299 47.0234 76.5794 47.086 76.7103 47.1486V49.1642H74.6106V48.7699C74.6106 48.5257 74.5607 48.3567 74.4611 48.2566C74.3614 48.1564 74.2056 48.1063 73.9938 48.1063C73.7819 48.1063 73.6262 48.1564 73.5265 48.2566C73.4268 48.3567 73.377 48.532 73.377 48.7699V51.23C73.377 51.4741 73.4268 51.6431 73.5265 51.7432C73.6262 51.8434 73.7819 51.8935 73.9938 51.8935C74.2056 51.8935 74.3614 51.8434 74.4611 51.7432C74.5607 51.6431 74.6106 51.4741 74.6106 51.23V51.1736H74.1558V49.9154H74.1495Z" fill="#0052DA"/>
<path d="M33.589 61.3961L32.4239 56.2193H32.0874V54.8359H35.4145V56.2193H34.8662L35.2774 59.3805H35.3584L36.3241 54.8359H38.7416L39.645 59.3805H39.726L40.1372 56.2193H39.5889V54.8359H42.4986V56.2193H42.1621L41.078 61.3961H38.1497L37.3896 57.922H37.3086L36.5048 61.3961H33.589Z" fill="#0052DA"/>
<path d="M49.0905 58.1223C49.0905 58.742 49.0157 59.2615 48.8662 59.6935C48.7167 60.1254 48.5048 60.4759 48.2244 60.7451C47.9441 61.0143 47.6076 61.2146 47.2151 61.3335C46.8164 61.4587 46.374 61.5213 45.888 61.5213C45.402 61.5213 44.9597 61.4587 44.5609 61.3335C44.1622 61.2083 43.8257 61.0143 43.5516 60.7451C43.2774 60.4759 43.0594 60.1254 42.9098 59.6935C42.7603 59.2615 42.6855 58.742 42.6855 58.1223C42.6855 57.5088 42.7603 56.9893 42.9098 56.5573C43.0594 56.1254 43.2774 55.7749 43.5516 55.5057C43.8257 55.2365 44.1684 55.0362 44.5609 54.9173C44.9597 54.7921 45.402 54.7295 45.888 54.7295C46.374 54.7295 46.8164 54.7921 47.2151 54.9173C47.6139 55.0425 47.9503 55.2365 48.2244 55.5057C48.4986 55.7749 48.7167 56.1254 48.8662 56.5573C49.0157 56.983 49.0905 57.5088 49.0905 58.1223ZM45.888 60.0127C46.0749 60.0127 46.2182 59.9626 46.3179 59.8625C46.4114 59.7623 46.4612 59.6058 46.4612 59.3867V56.839C46.4612 56.6199 46.4114 56.4634 46.3179 56.3633C46.2245 56.2631 46.0812 56.2131 45.888 56.2131C45.6949 56.2131 45.5578 56.2631 45.4581 56.3633C45.3647 56.4634 45.3148 56.6199 45.3148 56.839V59.3867C45.3148 59.6058 45.3647 59.7623 45.4581 59.8625C45.5578 59.9689 45.6949 60.0127 45.888 60.0127Z" fill="#0052DA"/>
<path d="M52.2803 60.0127H52.8348V61.3961H49.4268V60.0127H49.9314V56.2193H49.4268V54.8359H53.3582C53.7009 54.8359 54.0062 54.8672 54.2865 54.9361C54.5607 55.0049 54.7974 55.1114 54.9843 55.2616C55.1713 55.4118 55.3208 55.6059 55.4267 55.85C55.5326 56.0941 55.5825 56.3884 55.5825 56.7326C55.5825 57.102 55.5077 57.4275 55.3582 57.7029C55.2086 57.9783 54.9968 58.1724 54.7102 58.2851L54.7164 58.3664C55.2523 58.4478 55.5202 58.7796 55.5202 59.3617V60.0127H55.9127V61.3961H53.2523V59.4181C53.2523 59.2491 53.2336 59.1113 53.1962 59.0112C53.1588 58.9048 53.1027 58.8296 53.0217 58.7733C52.9407 58.7232 52.8411 58.6857 52.7165 58.6669C52.5918 58.6481 52.4423 58.6356 52.2741 58.6356V60.0127H52.2803ZM52.7289 57.609C52.8909 57.609 53.0155 57.5652 53.0903 57.4838C53.1713 57.4024 53.2149 57.2647 53.2149 57.0707V56.7639C53.2149 56.5761 53.1713 56.4384 53.0903 56.3508C53.0093 56.2694 52.8847 56.2256 52.7289 56.2256H52.2741V57.609H52.7289Z" fill="#0052DA"/>
<path d="M62.4672 56.2256L61.1525 57.9282L62.598 60.019H62.9345V61.4024H60.436L59.1089 59.0926V61.4024H56.2554V60.0127H56.76V56.2193H56.2554V54.8359H59.1089V57.102L60.6416 54.8359H62.8036V56.2193H62.4672V56.2256Z" fill="#0052DA"/>
<path d="M65.6572 59.8875C65.8441 59.8875 65.9749 59.8625 66.0497 59.8061C66.1307 59.7498 66.1681 59.6684 66.1681 59.5558C66.1681 59.4744 66.1369 59.4055 66.0684 59.3492C66.0061 59.2928 65.8753 59.224 65.6759 59.1426C65.2647 58.9861 64.8971 58.8359 64.5918 58.6919C64.2803 58.5479 64.0248 58.3914 63.8192 58.2162C63.6136 58.0409 63.4641 57.8406 63.3644 57.6027C63.2647 57.3711 63.2148 57.0894 63.2148 56.7577C63.2148 56.4447 63.2647 56.163 63.3644 55.9126C63.4641 55.6622 63.6198 55.4494 63.8441 55.2741C64.0622 55.0988 64.3612 54.9611 64.7226 54.8672C65.0902 54.7733 65.5388 54.7295 66.0746 54.7295C66.5606 54.7295 67.0217 54.7796 67.4516 54.8797C67.8815 54.9799 68.2366 55.1113 68.5232 55.2741V56.7827H66.76C66.76 56.6199 66.7164 56.5073 66.6291 56.4509C66.5419 56.3946 66.4298 56.3633 66.2989 56.3633C66.112 56.3633 65.9812 56.3883 65.9002 56.4321C65.8192 56.4822 65.7756 56.5636 65.7756 56.6825C65.7756 56.7764 65.8192 56.8453 65.9064 56.8954C65.9936 56.9392 66.1245 56.9893 66.2989 57.0456C66.6229 57.152 66.9282 57.2647 67.2148 57.3836C67.5014 57.5026 67.7569 57.6465 67.9749 57.8218C68.193 57.9971 68.3675 58.2037 68.4921 58.454C68.6167 58.7044 68.679 59.0049 68.679 59.3617C68.679 60.0941 68.4422 60.6387 67.9749 60.9955C67.5076 61.3523 66.8161 61.5276 65.9126 61.5276C65.3955 61.5276 64.9033 61.4838 64.4298 61.3899C63.9563 61.3022 63.5762 61.1958 63.2896 61.0706V59.3993H65.1338C65.1338 59.5683 65.165 59.6935 65.2335 59.7748C65.3021 59.85 65.4453 59.8875 65.6572 59.8875Z" fill="#0052DA"/>
<path d="M39.5638 68.3818C40 68.0125 40.3987 67.6557 40.7663 67.3239C41.1277 66.9922 41.4454 66.6792 41.7071 66.3975C41.9688 66.1158 42.1744 65.8654 42.3177 65.6463C42.461 65.4272 42.5358 65.252 42.5358 65.1205C42.5358 64.9014 42.4859 64.7449 42.3925 64.6448C42.299 64.5446 42.1557 64.4945 41.9626 64.4945C41.7694 64.4945 41.6324 64.5446 41.5327 64.6448C41.4392 64.7449 41.3894 64.9014 41.3894 65.1205V65.5399H39.7134V63.543C39.8567 63.4679 40.0187 63.4053 40.1931 63.3427C40.3676 63.2864 40.5732 63.2238 40.8037 63.1675C41.0405 63.1111 41.2897 63.0673 41.5514 63.036C41.8193 63.0047 42.0872 62.9922 42.3613 62.9922C43.1526 62.9922 43.7507 63.1549 44.137 63.4742C44.5295 63.7997 44.7227 64.2754 44.7227 64.9014C44.7227 65.2457 44.6417 65.5712 44.4859 65.8842C44.3239 66.1972 44.1246 66.4914 43.8753 66.7793C43.6261 67.061 43.3582 67.3302 43.0654 67.5806C42.7725 67.831 42.4922 68.0626 42.2243 68.2817H43.2461V67.7934H44.8847V69.6651H39.5576V68.3818H39.5638Z" fill="#0052DA"/>
<path d="M50.9284 66.3913C50.9284 67.011 50.8598 67.5306 50.7165 67.9625C50.5794 68.3944 50.3801 68.745 50.1246 69.0141C49.8692 69.2833 49.5639 69.4836 49.1963 69.6026C48.8349 69.7278 48.4237 69.7904 47.9689 69.7904C47.5141 69.7904 47.1091 69.7278 46.7477 69.6026C46.3863 69.4774 46.0748 69.2833 45.8194 69.0141C45.5639 68.745 45.3708 68.3944 45.2275 67.9625C45.0904 67.5306 45.0156 67.011 45.0156 66.3913C45.0156 65.7779 45.0842 65.2583 45.2275 64.8264C45.3645 64.3945 45.5639 64.0439 45.8194 63.7747C46.0748 63.5056 46.3801 63.3115 46.7477 63.1863C47.1091 63.0611 47.5203 62.9985 47.9689 62.9985C48.4237 62.9985 48.8287 63.0611 49.1963 63.1863C49.5577 63.3115 49.8692 63.5056 50.1246 63.7747C50.3801 64.0439 50.5732 64.3945 50.7165 64.8264C50.8598 65.2583 50.9284 65.7779 50.9284 66.3913ZM47.9751 68.288C48.1683 68.288 48.3053 68.2379 48.405 68.1378C48.4985 68.0376 48.5483 67.8811 48.5483 67.662V65.1143C48.5483 64.8952 48.4985 64.7387 48.405 64.6386C48.3116 64.5384 48.1683 64.4884 47.9751 64.4884C47.7882 64.4884 47.6449 64.5384 47.5452 64.6386C47.4517 64.7387 47.4019 64.8952 47.4019 65.1143V67.662C47.4019 67.8811 47.4517 68.0376 47.5452 68.1378C47.6449 68.2379 47.7882 68.288 47.9751 68.288Z" fill="#0052DA"/>
<path d="M51.165 63.5433L53.028 63.1113H54.6479V68.2881H55.3519V69.6715H51.4205V68.2881H52.2242V64.4947H51.165V63.5433Z" fill="#0052DA"/>
<path d="M60.8161 64.7764C60.623 64.7138 60.38 64.6512 60.0934 64.5886C59.8068 64.526 59.4952 64.4947 59.165 64.4947C58.76 64.4947 58.4672 64.6011 58.2865 64.8202C58.1058 65.033 58.0124 65.3147 58.0124 65.6528V65.8969C58.1806 65.8343 58.3737 65.7779 58.598 65.7341C58.8223 65.6841 59.0342 65.6653 59.246 65.6653C59.4952 65.6653 59.7445 65.6903 59.9812 65.7467C60.218 65.803 60.4298 65.9031 60.6167 66.0471C60.8036 66.1911 60.9469 66.3851 61.0591 66.623C61.1712 66.8671 61.2273 67.1739 61.2273 67.5432C61.2273 68.3257 60.9968 68.8953 60.542 69.2521C60.0809 69.6089 59.4329 69.7904 58.5856 69.7904C58.1307 69.7904 57.7258 69.7341 57.3644 69.6152C57.003 69.4962 56.6915 69.3147 56.4361 69.0768C56.1806 68.8327 55.9812 68.5322 55.8442 68.1629C55.7071 67.7936 55.6323 67.3617 55.6323 66.8609C55.6323 66.1723 55.7071 65.5776 55.8628 65.0894C56.0186 64.6011 56.2305 64.2005 56.5108 63.8938C56.7912 63.587 57.1214 63.3617 57.5077 63.2177C57.894 63.0737 58.3239 63.0049 58.7912 63.0049C59.0342 63.0049 59.2522 63.0174 59.4516 63.0424C59.651 63.0675 59.8379 63.0988 60.0061 63.1426C60.1743 63.1864 60.3239 63.2302 60.4547 63.2803C60.5856 63.3304 60.7039 63.3805 60.8099 63.4243V64.7764H60.8161ZM58.5607 66.9798C58.4921 66.9798 58.4111 66.9861 58.3177 67.0049C58.2242 67.0236 58.1245 67.0487 58.0186 67.0862V67.6621C58.0186 67.8812 58.0684 68.0377 58.1619 68.1379C58.2554 68.238 58.3987 68.2881 58.5918 68.2881C58.785 68.2881 58.922 68.238 59.0217 68.1379C59.1152 68.0377 59.165 67.8812 59.165 67.6621C59.1588 67.2114 58.9594 66.9798 58.5607 66.9798Z" fill="#0052DA"/>
<path d="M42.5918 72.4316L50.1369 80.0122L57.682 72.4316H42.5918Z" fill="#0052DA"/>
</svg>
