<svg width="100" height="100" viewBox="0 0 100 100" fill="none" xmlns="http://www.w3.org/2000/svg">
<path d="M96.0282 52.3691H4.42773V61.7437H96.0282V52.3691Z" fill="#0052DA"/>
<path d="M11.4006 54.084C13.3571 54.084 13.7249 54.9228 13.7249 55.8868C13.7249 56.9979 12.7172 57.5571 11.511 57.5571H10.8711V58.8596H11.3859V59.9707H8.67188V58.8596H9.14261V55.1877H8.67188V54.084H11.4006ZM10.8637 56.6447H11.2388C11.7243 56.6447 12.0626 56.3945 12.0626 55.9456C12.0626 55.4526 11.7684 55.1804 11.283 55.1804H10.8637V56.6447Z" fill="white"/>
<path d="M16.7182 54.084V55.1951H16.2696V58.8522H17.3581V57.7852H18.7703V59.978H14.0557V58.8596H14.519V55.2025H14.0557V54.0913H16.7182V54.084Z" fill="white"/>
<path d="M21.7862 54.084V55.173H21.3301V56.9905C21.3301 58.3445 21.6317 58.6315 22.1686 58.6315C22.6835 58.6315 23.0218 58.4254 23.0218 56.9832V55.1951H22.5658V54.084H25.0592V55.173H24.6032V57.2186C24.6032 59.2128 23.772 60.1178 22.1907 60.1178C20.4916 60.0663 19.5796 59.176 19.5796 57.2628V55.1804H19.1089V54.084H21.7862Z" fill="white"/>
<path d="M31.2375 55.5699C31.1713 55.9452 31.0536 56.5044 30.9947 56.6957L30.1121 59.9702H28.3542L27.4128 56.6074C27.3687 56.4676 27.2583 55.982 27.2363 55.5626H27.2068V58.8812H27.6849V59.9702H25.3901V58.8812H25.8461V55.1652H25.3975V54.0762H28.5896L29.4428 57.2255L30.2518 54.0762H33.4587V55.1652H32.9953V58.8738H33.4587V59.9702H30.7961V58.8738H31.2669V56.0629V55.5626H31.2375V55.5699Z" fill="white"/>
<path d="M33.8779 58.8816H34.3634V55.173H33.8779V54.084H37.0186C38.416 54.084 39.078 54.6064 39.078 55.5262C39.078 56.2326 38.8867 56.5785 38.2542 56.8287C38.8573 56.9979 39.3648 57.4394 39.3648 58.2635C39.3648 59.4482 38.7029 59.9707 37.0774 59.9707H33.8779V58.8816ZM36.1065 56.4607H36.6214C37.07 56.4607 37.1951 56.2179 37.1951 55.8132C37.1951 55.4232 36.9597 55.1951 36.6434 55.1951H36.1139V56.4607H36.1065ZM36.7832 58.8816C37.1362 58.8816 37.4672 58.6094 37.4672 58.1605C37.4672 57.7337 37.2245 57.4173 36.7611 57.4173H36.1139V58.8816H36.7832Z" fill="white"/>
<path d="M42.4536 54.084V55.1951H41.9314V58.8522H42.4536V59.9707H39.6587V58.8522H40.1883V55.1951H39.6587V54.084H42.4536Z" fill="white"/>
<path d="M48.7645 55.1726V59.9702H46.9551L44.8074 56.762V58.8812H45.4547V59.9702H42.873V58.8812H43.3658V55.1652H42.8804V54.0762H45.3002L47.3597 57.1667V55.1652H46.786V54.0762H49.3161V55.1652H48.7645V55.1726Z" fill="white"/>
<path d="M53.6559 59.4408C53.472 59.7499 52.9498 60.0442 52.3026 60.0442C50.8316 60.0442 49.6621 58.8963 49.6621 57.0788C49.6621 55.2466 50.9345 53.981 52.2438 53.981C53.4647 53.981 53.7515 54.5549 53.8839 54.6874L54.0605 54.084H55.3182V56.5711H53.8104C53.7883 55.8868 53.347 55.5041 52.8542 55.5041C52.1702 55.5041 51.6995 56.2473 51.6995 57.0862C51.6995 57.9471 52.1187 58.6388 52.8542 58.6388C53.3323 58.6388 53.5383 58.4475 53.6633 58.2267V57.8735H53.1484V56.9758H55.9434V57.8735H55.605V59.978H53.9207L53.6559 59.4408Z" fill="white"/>
<path d="M60.9006 58.0722C60.9153 57.8368 61.1433 56.7845 61.3125 55.9825L61.7317 54.0913H63.4822L64.0118 56.4166C64.1295 56.9611 64.2251 57.6528 64.2619 58.0722H64.306C64.3428 57.6896 64.4825 56.8139 64.5561 56.4607L64.8429 55.1804H64.3796V54.084H66.7847V55.1804H66.3213L65.0636 59.9707H63.0703L62.5628 57.9692C62.4893 57.6822 62.3937 57.1892 62.3495 56.9243H62.3128C62.276 57.1745 62.173 57.7043 62.1142 57.9545L61.5993 59.978H59.6429L58.5322 55.1877H58.0615V54.0913H60.8418V55.1877H60.3563L60.577 56.4166C60.6726 56.8213 60.8123 57.822 60.8491 58.0722H60.9006Z" fill="white"/>
<path d="M66.8359 56.9977C66.8359 55.1802 68.0495 53.9219 69.7927 53.9219C71.8521 53.9219 72.8156 55.1581 72.8156 57.0565C72.8156 58.9624 71.7565 60.125 69.8515 60.125C68.0863 60.125 66.8359 59.1095 66.8359 56.9977ZM70.7047 57.0565C70.7047 56.0411 70.4252 55.2243 69.778 55.2243C69.2631 55.217 68.9101 55.9602 68.9101 56.9977C68.9101 58.1014 69.3073 58.8005 69.8442 58.8005C70.3737 58.8005 70.7047 58.1014 70.7047 57.0565Z" fill="white"/>
<path d="M75.8825 54.084C77.839 54.084 78.2141 54.8566 78.2141 55.8206C78.2141 56.4755 77.6919 56.939 76.9932 57.0421C77.5742 57.123 78.0964 57.6307 78.0964 58.2414C78.0964 58.602 78.1479 58.8154 78.3024 58.8154C78.4274 58.8154 78.4936 58.7124 78.4936 58.5431V58.2635H79.06V58.7271C79.06 59.4261 78.7657 60.0737 77.8316 60.0737C76.7284 60.0737 76.1988 59.4924 76.1988 58.5064C76.1988 57.7411 76.1032 57.5571 75.3603 57.5571V58.8596H75.8752V59.9707H73.1538V58.8596H73.6245V55.1877H73.1538V54.084H75.8825ZM75.353 56.6153H75.7281C76.2135 56.6153 76.5372 56.3798 76.5372 55.9309C76.5372 55.4379 76.2577 55.1804 75.7722 55.1804H75.353V56.6153Z" fill="white"/>
<path d="M81.5463 55.1726V56.5486L83.113 55.1726H82.5098V54.0835H85.3121V55.1726H84.8267L83.6057 56.2248L85.3048 58.8812H85.7902V59.9776H82.5098V58.8812H83.0835L82.1715 57.4463L81.5463 57.9761V58.8738H82.0023V59.9702H79.3545V58.8738H79.8105V55.1652H79.3545V54.0762H82.0023V55.1652H81.5463V55.1726Z" fill="white"/>
<path d="M86.2095 57.8512H87.7761C87.7761 58.5576 88.4822 58.6753 88.8353 58.69C89.1295 58.69 89.5487 58.6238 89.5487 58.2706C89.5487 57.6157 86.3198 57.888 86.3198 55.7467C86.3198 54.5031 87.4966 53.9365 88.3204 53.9365C89.0265 53.9365 89.7399 54.1646 90.0783 54.7974L90.1592 54.091H91.6081V56.2029H90.0856C90.0856 55.5774 89.6002 55.2242 89.0118 55.2242C88.769 55.2242 88.4307 55.3787 88.4307 55.6731C88.4307 56.5414 91.7626 56.3353 91.7626 58.3147C91.7626 59.6319 90.5343 60.1028 89.534 60.1028C88.6808 60.1028 88.0924 59.7055 87.7761 59.3302L87.6805 59.9777H86.2095V57.8512Z" fill="white"/>
<path d="M50.1987 89.8528L50.0148 86.7991C49.853 86.8064 49.6985 86.8138 49.544 86.8138H49.4999L49.4779 89.8749H49.544C49.7573 89.8749 49.978 89.8675 50.1987 89.8528ZM48.9998 86.7991C48.8306 86.7844 48.6614 86.7696 48.4996 86.7476L48.0951 89.7792C48.3305 89.8086 48.5658 89.8307 48.8012 89.8528L48.9998 86.7991ZM51.5961 89.6835L51.0298 86.674C50.8606 86.7034 50.6915 86.7328 50.5223 86.7549L50.8974 89.7939C51.1327 89.7645 51.3608 89.7277 51.5961 89.6835ZM47.9921 86.6593C47.823 86.6225 47.6611 86.5857 47.4993 86.5415L46.705 89.4922C46.933 89.5511 47.161 89.6099 47.3964 89.6541L47.9921 86.6593ZM52.9568 89.3377L52.0227 86.4238C51.8609 86.4753 51.6917 86.5268 51.5299 86.5636L52.2875 89.529C52.5082 89.4701 52.7288 89.4113 52.9568 89.3377ZM47.0139 86.3943C46.8521 86.3428 46.6976 86.2766 46.5432 86.2178L45.3664 89.0434C45.5797 89.1317 45.8003 89.22 46.0283 89.2935L47.0139 86.3943ZM54.2587 88.83L52.9936 86.0485C52.8318 86.1221 52.6773 86.1883 52.5155 86.2545L53.6261 89.1022C53.8321 89.0213 54.0454 88.933 54.2587 88.83ZM46.0872 86.0117C45.9327 85.9381 45.7856 85.8572 45.6459 85.7689L44.0939 88.4032C44.2999 88.5209 44.5058 88.6386 44.7191 88.7417L46.0872 86.0117ZM55.4796 88.1824L53.8983 85.5628C53.7438 85.6511 53.5967 85.7395 53.4423 85.8204L54.8839 88.5209C55.0824 88.4105 55.281 88.3002 55.4796 88.1824ZM45.2266 85.504C45.0869 85.4083 44.9545 85.3127 44.8221 85.2097L42.9171 87.6011C43.101 87.7483 43.2922 87.8881 43.4908 88.0279L45.2266 85.504ZM56.627 87.3951L54.7662 84.9668C54.6264 85.0772 54.4867 85.1802 54.3469 85.2759L56.0754 87.7998C56.2519 87.6747 56.4431 87.5423 56.627 87.3951ZM44.447 84.8859C44.3219 84.7755 44.2042 84.6578 44.0939 84.5327L41.858 86.6225C42.0198 86.7991 42.1889 86.9683 42.3655 87.1302L44.447 84.8859ZM57.6641 86.5121L55.5679 84.2825C55.4355 84.4076 55.3031 84.5253 55.1707 84.6357L57.1492 86.9683C57.3257 86.8211 57.4949 86.6666 57.6641 86.5121ZM43.7703 84.1648C43.6673 84.0397 43.5717 83.9072 43.4761 83.7674L40.9533 85.4893C41.0857 85.688 41.2328 85.8793 41.3872 86.0706L43.7703 84.1648ZM43.226 83.3553C43.1451 83.2155 43.0716 83.0684 43.0054 82.9286L40.2398 84.231C40.3428 84.4517 40.4531 84.6725 40.5782 84.8785L43.226 83.3553ZM42.8141 82.4797C42.7553 82.3325 42.7038 82.178 42.6597 82.0161L39.7176 82.855C39.7838 83.0904 39.8574 83.3186 39.9456 83.5467L42.8141 82.4797ZM42.5493 81.5452C42.5199 81.3907 42.4905 81.2288 42.4758 81.0669L39.4381 81.4275C39.4676 81.6703 39.5043 81.9131 39.5558 82.1486L42.5493 81.5452ZM42.4317 80.5813C42.4243 80.493 42.4243 80.412 42.4243 80.3237C42.4243 80.2428 42.4243 80.1618 42.4243 80.0809L39.3646 79.9926C39.3646 80.103 39.3572 80.2133 39.3572 80.3163C39.3572 80.4488 39.3572 80.5739 39.3646 80.7064L42.4317 80.5813ZM42.5346 79.0949L39.5264 78.5651C39.4823 78.8005 39.4528 79.036 39.4308 79.2788L42.4758 79.5805C42.4832 79.4186 42.5052 79.2568 42.5346 79.0949ZM60.2163 76.3796C60.0619 76.3723 59.9147 76.3575 59.7529 76.3428L59.3484 79.3745C59.5985 79.4113 59.8486 79.4334 60.0986 79.4407L60.2163 76.3796ZM61.6064 79.3524L61.121 76.3281C60.9739 76.3502 60.8268 76.3649 60.6723 76.3796L60.8488 79.4334C61.1063 79.4186 61.3563 79.3892 61.6064 79.3524ZM59.2822 76.2545C59.1277 76.2177 58.9733 76.181 58.8188 76.1295L57.9068 79.0507C58.1422 79.1243 58.3849 79.1905 58.6202 79.242L59.2822 76.2545ZM63.0995 78.9403L61.9668 76.1C61.8344 76.1515 61.702 76.1957 61.5549 76.2398L62.3493 79.1905C62.6067 79.1243 62.8568 79.036 63.0995 78.9403ZM58.3555 75.9676C58.201 75.9087 58.0539 75.8425 57.8995 75.7689L56.5755 78.5283C56.7962 78.6313 57.0168 78.727 57.2301 78.8153L58.3555 75.9676ZM42.7774 78.1751L39.9015 77.1375C39.8206 77.3657 39.747 77.6011 39.6808 77.8439L42.6376 78.6239C42.6744 78.4694 42.7185 78.3222 42.7774 78.1751ZM64.4749 78.1972L62.7244 75.688C62.6067 75.7689 62.489 75.8425 62.364 75.9087L63.8056 78.6092C64.041 78.4841 64.2616 78.3517 64.4749 78.1972ZM57.4508 75.5334C57.3037 75.4525 57.1639 75.3642 57.0168 75.2685L55.3472 77.8292C55.5458 77.9617 55.7518 78.0794 55.9503 78.1972L57.4508 75.5334ZM43.1672 77.3436L40.5414 75.7762C40.4164 75.9896 40.2913 76.2178 40.1884 76.4459L42.9612 77.7409C43.0201 77.6085 43.0863 77.4687 43.1672 77.3436ZM65.6517 77.1523L63.3569 75.1287C63.2613 75.2317 63.1657 75.3347 63.0554 75.4304L65.0928 77.7115C65.2913 77.5349 65.4752 77.3509 65.6517 77.1523ZM56.5829 74.9742C56.4431 74.8712 56.3034 74.7682 56.1636 74.6504L54.2292 77.0198C54.4131 77.167 54.5897 77.3068 54.7735 77.4392L56.5829 74.9742ZM43.7041 76.6151L41.4387 74.5621C41.2696 74.7461 41.1077 74.9447 40.9533 75.1508L43.4099 76.9683C43.5055 76.8432 43.6011 76.7255 43.7041 76.6151ZM55.7591 74.3046L55.6046 74.1648C55.4943 74.0617 55.3766 73.9587 55.259 73.8631L53.3172 76.2251C53.3908 76.284 53.457 76.3428 53.5158 76.4017L53.7144 76.5857L55.7591 74.3046ZM66.549 75.8498L63.835 74.437C63.7688 74.5621 63.6953 74.6798 63.6217 74.7976L66.1445 76.5268C66.2843 76.3134 66.424 76.0779 66.549 75.8498ZM44.3881 75.997L42.5493 73.5467C42.3507 73.6938 42.1595 73.8557 41.9756 74.0176L44.0277 76.2913C44.138 76.1883 44.2631 76.0853 44.3881 75.997ZM45.1898 75.4966L43.8071 72.7667C43.5864 72.8771 43.3731 73.0021 43.1672 73.1272L44.7779 75.7321C44.9103 75.6438 45.0501 75.5629 45.1898 75.4966ZM67.1007 74.3708L64.1292 73.6423C64.0925 73.7821 64.0557 73.9146 64.0042 74.047L66.8653 75.1213C66.961 74.8785 67.0418 74.6283 67.1007 74.3708ZM67.2993 72.8255L64.2396 72.774C64.2396 72.9212 64.2248 73.0684 64.2101 73.2082L67.2404 73.5908C67.2772 73.348 67.2919 73.0904 67.2993 72.8255ZM67.2772 72.0971C67.2625 71.8395 67.2331 71.5893 67.1963 71.3612L64.1734 71.8248C64.1954 71.972 64.2101 72.1265 64.2248 72.2957L67.2772 72.0971ZM67.0492 70.6107C66.983 70.3531 66.9021 70.103 66.8065 69.8601L63.9601 70.986C64.0115 71.111 64.0557 71.2435 64.0924 71.3907L67.0492 70.6107ZM66.4534 69.1243C66.3137 68.8815 66.1592 68.646 65.9901 68.4326L63.5776 70.309C63.6512 70.4047 63.7247 70.515 63.7835 70.6254L66.4534 69.1243ZM65.4237 67.8071C65.2251 67.6232 65.0118 67.4466 64.7838 67.2847L63.0186 69.7792C63.1289 69.8528 63.2246 69.9411 63.3202 70.0294L65.4237 67.8071ZM64.0998 66.8653C63.8718 66.7475 63.6364 66.6372 63.3937 66.5415L62.2831 69.3892C62.4155 69.4407 62.5479 69.4996 62.6803 69.5658L64.0998 66.8653ZM62.6729 66.3061C62.4302 66.2398 62.1948 66.181 61.9595 66.1368L61.3784 69.139C61.5329 69.1685 61.6873 69.2052 61.8491 69.2494L62.6729 66.3061ZM61.2534 66.0264C61.0107 65.997 60.7753 65.9749 60.5546 65.9602L60.3634 69.0139C60.5252 69.0213 60.7017 69.036 60.8783 69.0581L61.2534 66.0264ZM58.4364 85.7247L56.1783 83.6644L55.9945 83.8631L58.2084 85.9749C58.2819 85.894 58.3628 85.813 58.4364 85.7247ZM56.0239 47.3509C55.9577 49.4113 54.266 51.0595 52.1919 51.0595H46.83C44.7559 51.0595 43.0642 49.4113 42.998 47.3509H56.0239ZM78.5599 26.284H20.462C19.8147 26.284 19.2852 26.8138 19.2852 27.4613V28.5135C19.2852 29.1611 19.8147 29.6909 20.462 29.6909H78.5599C79.2072 29.6909 79.7368 29.1611 79.7368 28.5135V27.4613C79.7368 26.8138 79.2072 26.284 78.5599 26.284ZM62.8568 28.3664H20.9327C20.6164 28.3664 20.359 28.1088 20.359 27.7924C20.359 27.476 20.6164 27.2185 20.9327 27.2185H62.8568C63.1731 27.2185 63.4305 27.476 63.4305 27.7924C63.4305 28.1088 63.1731 28.3664 62.8568 28.3664ZM73.3525 28.3664H65.2104C64.8942 28.3664 64.6367 28.1088 64.6367 27.7924C64.6367 27.476 64.8942 27.2185 65.2104 27.2185H73.3525C73.6688 27.2185 73.9262 27.476 73.9262 27.7924C73.9262 28.1088 73.6688 28.3664 73.3525 28.3664ZM21.1313 31.2656C22.1242 39.5879 29.1925 46.0338 37.7759 46.0338H61.246C69.8294 46.0338 76.8977 39.5805 77.8906 31.2656H21.1313ZM35.5252 41.9278C34.547 43.245 31.4505 42.6121 28.6041 40.5077C25.7576 38.4032 24.2351 35.6291 25.2134 34.3046C26.1916 32.9801 29.2881 33.6202 32.1345 35.7247C34.981 37.8366 36.4961 40.6107 35.5252 41.9278ZM41.1813 41.9131C40.6223 42.4871 39.1734 41.9646 37.9377 40.7578C36.7094 39.5511 36.1651 38.1088 36.7241 37.5349C37.2831 36.9609 38.7321 37.4834 39.9677 38.6901C41.196 39.9043 41.7403 41.3465 41.1813 41.9131ZM57.62 65.6438V69.3009H60.1207V65.6438H57.62ZM59.1425 66.9757H58.5246C58.2451 66.9757 58.0245 66.7475 58.0245 66.4753C58.0245 66.1957 58.2525 65.9749 58.5246 65.9749H59.1425C59.422 65.9749 59.6426 66.203 59.6426 66.4753C59.6426 66.7549 59.422 66.9757 59.1425 66.9757ZM56.958 69.4775V65.423H52.6553V63.2376H46.3372V70.5739H45.7856V71.9057H53.2069V70.5739H52.6626V69.4775H56.958ZM53.3319 65.7174H56.2887C56.5682 65.7174 56.7888 65.9455 56.7888 66.2178C56.7888 66.4974 56.5608 66.7181 56.2887 66.7181H53.3319C53.0524 66.7181 52.8318 66.49 52.8318 66.2178C52.8318 65.9455 53.0598 65.7174 53.3319 65.7174ZM46.9845 64.518C46.9845 64.2384 47.2125 64.0176 47.4846 64.0176C47.7641 64.0176 47.9848 64.2457 47.9848 64.518V69.6026C47.9848 69.8822 47.7568 70.103 47.4846 70.103C47.2051 70.103 46.9845 69.8748 46.9845 69.6026V64.518ZM46.0504 73.0389V82.259C46.0504 83.9514 47.4184 85.32 49.1101 85.32H49.875C51.5667 85.32 52.9348 83.9514 52.9348 82.259V73.0389H46.0504ZM47.7273 81.4937C47.7273 81.788 47.4846 82.0308 47.1904 82.0308C46.8962 82.0308 46.6535 81.788 46.6535 81.4937V74.8638C46.6535 74.5695 46.8962 74.3267 47.1904 74.3267C47.4846 74.3267 47.7273 74.5695 47.7273 74.8638V81.4937ZM45.4767 18.646C44.7853 18.646 44.2263 19.2052 44.2263 19.8969V21.398H44.3587V21.6041H46.5579V21.398H46.7344V21.1625H47.4773V25.3568H51.6476V18.646C51.6403 18.646 45.7415 18.646 45.4767 18.646ZM45.8591 20.3237C45.5649 20.3237 45.3222 20.1839 45.3222 20.0146C45.3222 19.9852 45.3369 19.9631 45.3443 19.9411C44.903 19.919 44.5499 19.6762 44.5499 19.3671C44.5499 19.0433 44.9324 18.7784 45.4031 18.7784C45.8738 18.7784 46.2563 19.0433 46.2563 19.3671C46.2563 19.5069 46.1754 19.632 46.0504 19.735C46.2416 19.7792 46.3814 19.8896 46.3814 20.022C46.3961 20.1839 46.1533 20.3237 45.8591 20.3237ZM47.3816 18.0279L51.8094 16.5562L51.3755 15.2464C51.3534 15.1728 51.3166 15.1066 51.2799 15.0404L57.3993 12.9653C57.4728 12.9433 57.517 12.8623 57.4949 12.7814L57.3331 12.2884C57.311 12.2148 57.2301 12.1706 57.1492 12.1927L50.7062 14.3708C50.2869 14.0838 49.7426 13.9808 49.2204 14.1574L48.0215 14.5547C47.1316 14.8491 46.6461 15.813 46.9403 16.7034L47.3816 18.0279ZM48.0363 14.8712L49.4705 14.3929C49.6985 14.3193 49.9412 14.4444 50.0221 14.6725C50.0957 14.9006 49.9706 15.1434 49.7426 15.217L48.3084 15.6953C48.0804 15.7689 47.8377 15.6438 47.7568 15.4157C47.6832 15.1876 47.8083 14.9447 48.0363 14.8712Z" fill="#0052DA"/>
<path d="M71.4844 67.2111C71.8227 66.9242 72.1316 66.6519 72.4111 66.3944C72.6906 66.1368 72.9333 65.9014 73.1393 65.6806C73.3452 65.4599 73.4997 65.2685 73.61 65.1067C73.7203 64.9374 73.7792 64.805 73.7792 64.702C73.7792 64.5327 73.7424 64.415 73.6688 64.334C73.5953 64.2605 73.485 64.2236 73.3379 64.2236C73.1908 64.2236 73.0804 64.2605 73.0069 64.334C72.9333 64.4076 72.8965 64.5327 72.8965 64.702V65.0257H71.602V63.4878C71.7124 63.4289 71.8374 63.3774 71.9698 63.3333C72.1022 63.2891 72.264 63.245 72.4405 63.2008C72.6244 63.1567 72.8156 63.1273 73.0216 63.0978C73.2275 63.0757 73.4335 63.061 73.6468 63.061C74.2572 63.061 74.7206 63.1861 75.0222 63.4363C75.3237 63.6865 75.4782 64.0471 75.4782 64.5327C75.4782 64.7976 75.4194 65.0478 75.2943 65.2906C75.1693 65.5334 75.0148 65.7615 74.8236 65.9749C74.6323 66.1957 74.4264 66.4017 74.1984 66.593C73.9704 66.7844 73.7571 66.9683 73.5512 67.1376H74.3381V66.7623H75.6032V68.2045H71.4917V67.2111H71.4844Z" fill="#0052DA"/>
<path d="M80.2589 65.6806C80.2589 66.1589 80.2074 66.5562 80.0971 66.8873C79.9868 67.2184 79.8397 67.4834 79.6411 67.6967C79.4425 67.9028 79.2071 68.0573 78.9276 68.153C78.6481 68.2486 78.3319 68.2928 77.9788 68.2928C77.6258 68.2928 77.3169 68.2486 77.03 68.153C76.7505 68.0573 76.5078 67.9101 76.3166 67.6967C76.118 67.4907 75.9709 67.2184 75.8605 66.8873C75.7502 66.5562 75.6987 66.1515 75.6987 65.6806C75.6987 65.2096 75.7502 64.8049 75.8605 64.4738C75.9709 64.1427 76.118 63.8704 76.3166 63.6644C76.5151 63.4584 76.7505 63.3038 77.03 63.2081C77.3095 63.1125 77.6258 63.0684 77.9788 63.0684C78.3319 63.0684 78.6408 63.1125 78.9276 63.2081C79.2071 63.3038 79.4498 63.451 79.6411 63.6644C79.8397 63.8704 79.9868 64.1427 80.0971 64.4738C80.2074 64.8123 80.2589 65.2096 80.2589 65.6806ZM77.9788 67.1375C78.1259 67.1375 78.2363 67.1007 78.3098 67.0271C78.3834 66.9536 78.4201 66.8285 78.4201 66.6592V64.7019C78.4201 64.5327 78.3834 64.4149 78.3098 64.334C78.2363 64.2604 78.1259 64.2236 77.9788 64.2236C77.8317 64.2236 77.7214 64.2604 77.6478 64.334C77.5743 64.4076 77.5375 64.5327 77.5375 64.7019V66.6592C77.5375 66.8285 77.5743 66.9462 77.6478 67.0271C77.7214 67.1007 77.8317 67.1375 77.9788 67.1375Z" fill="#0052DA"/>
<path d="M80.4429 63.4952L81.8845 63.1641H83.1348V67.1449H83.6791V68.2045H80.6415V67.1449H81.2666V64.231H80.4502V63.4952H80.4429Z" fill="#0052DA"/>
<path d="M87.8937 64.437C87.7393 64.3855 87.5554 64.3413 87.3347 64.2972C87.1141 64.253 86.8714 64.2236 86.6139 64.2236C86.305 64.2236 86.077 64.3045 85.9373 64.4738C85.7975 64.643 85.724 64.8564 85.724 65.114V65.3053C85.8564 65.2611 86.0035 65.217 86.18 65.1802C86.3492 65.1434 86.5183 65.1213 86.6801 65.1213C86.8714 65.1213 87.0626 65.1434 87.2465 65.1875C87.4304 65.2317 87.5922 65.3053 87.7393 65.4156C87.879 65.526 87.9967 65.6732 88.085 65.8571C88.1732 66.0411 88.2174 66.2766 88.2174 66.5636C88.2174 67.1669 88.0408 67.6011 87.6878 67.8807C87.3348 68.1603 86.8272 68.2928 86.18 68.2928C85.8269 68.2928 85.518 68.2486 85.2312 68.1603C84.9517 68.072 84.7163 67.9322 84.5178 67.7482C84.3192 67.5643 84.172 67.3288 84.0617 67.0418C83.9514 66.7622 83.8999 66.4237 83.8999 66.0411C83.8999 65.5113 83.9588 65.0551 84.0764 64.6798C84.1941 64.3045 84.3633 63.9955 84.5766 63.76C84.7899 63.5245 85.0473 63.3479 85.3489 63.2376C85.6431 63.1272 85.974 63.0757 86.3418 63.0757C86.5257 63.0757 86.6949 63.083 86.8567 63.1051C87.0111 63.1272 87.1582 63.1493 87.2833 63.1861C87.4156 63.2155 87.526 63.2523 87.6289 63.2964C87.7319 63.3332 87.8202 63.37 87.9011 63.4068V64.437H87.8937ZM86.1506 66.1368C86.0991 66.1368 86.0329 66.1441 85.9593 66.1588C85.8858 66.1736 85.8122 66.1956 85.724 66.2251V66.6666C85.724 66.8358 85.7607 66.9535 85.8343 67.0345C85.9078 67.1081 86.0182 67.1449 86.1653 67.1449C86.3124 67.1449 86.4227 67.1081 86.4963 67.0345C86.5698 66.9609 86.6066 66.8358 86.6066 66.6666C86.614 66.3134 86.4595 66.1368 86.1506 66.1368Z" fill="#0052DA"/>
<path d="M13.2173 63.4952L14.6515 63.1641H15.9019V67.1449H16.4462V68.2045H13.4085V67.1449H14.0337V64.231H13.2173V63.4952Z" fill="#0052DA"/>
<path d="M16.9021 66.9241C17.0712 66.9829 17.2698 67.0271 17.5052 67.0712C17.7406 67.1154 18.0053 67.1375 18.3069 67.1375C18.5717 67.1375 18.7703 67.0639 18.9027 66.9094C19.0351 66.7548 19.1013 66.5341 19.1013 66.2545V66.122C18.9836 66.1662 18.8512 66.2029 18.6967 66.2471C18.5423 66.2912 18.3584 66.306 18.1524 66.306C17.9612 66.306 17.77 66.2839 17.5861 66.2397C17.4022 66.1956 17.2404 66.122 17.0933 66.0116C16.9536 65.9013 16.8359 65.7541 16.7476 65.5628C16.6594 65.3715 16.6152 65.136 16.6152 64.8416C16.6152 64.2309 16.7918 63.7821 17.1448 63.5024C17.4978 63.2228 17.998 63.083 18.66 63.083C19.0204 63.083 19.3366 63.1272 19.6235 63.2155C19.903 63.3038 20.1457 63.4436 20.3369 63.6275C20.5281 63.8115 20.6826 64.047 20.7856 64.3266C20.8885 64.6062 20.94 64.9447 20.94 65.3273C20.94 65.8792 20.8812 66.3428 20.7782 66.718C20.6679 67.0933 20.5061 67.4024 20.2928 67.6378C20.0795 67.8733 19.822 68.0425 19.5205 68.1456C19.2189 68.2486 18.8732 68.3001 18.4981 68.3001C18.1304 68.3001 17.8215 68.2633 17.564 68.1897C17.3066 68.1161 17.086 68.0499 16.9094 67.9763V66.9241H16.9021ZM18.6747 65.2831C18.7556 65.2831 18.8365 65.2758 18.9027 65.2537C18.9689 65.2317 19.0351 65.2169 19.0939 65.1949V64.7019C19.0939 64.5326 19.0571 64.4149 18.9836 64.3339C18.91 64.2604 18.7997 64.2235 18.6526 64.2235C18.5055 64.2235 18.3952 64.2603 18.3216 64.3413C18.2481 64.4222 18.2113 64.562 18.2113 64.7681C18.2186 65.1066 18.3657 65.2831 18.6747 65.2831Z" fill="#0052DA"/>
<path d="M21.4624 63.1641H24.9046V64.4224H22.7569L22.6981 65.0993C22.8084 65.0331 22.9482 64.9816 23.1173 64.9374C23.2865 64.8933 23.4409 64.8786 23.5807 64.8786C23.8308 64.8786 24.0588 64.9154 24.2574 64.9963C24.4559 65.0772 24.6251 65.1803 24.7575 65.3201C24.8899 65.4599 24.9929 65.6291 25.0664 65.8278C25.14 66.0265 25.1767 66.2399 25.1767 66.4753C25.1767 67.0787 25.0002 67.5423 24.6472 67.8661C24.2941 68.1972 23.794 68.3591 23.1467 68.3591C22.9114 68.3591 22.6907 68.3443 22.4995 68.3149C22.3083 68.2855 22.1317 68.2487 21.9773 68.2045C21.8228 68.1604 21.6831 68.1089 21.5654 68.05C21.4477 67.9912 21.3447 67.9396 21.2491 67.8881V66.5857H22.7496C22.7496 66.7402 22.7716 66.8506 22.8158 66.9389C22.8599 67.0198 22.9555 67.064 23.0953 67.064C23.2203 67.064 23.3085 67.0199 23.36 66.9316C23.4115 66.8433 23.4336 66.6961 23.4336 66.4901C23.4336 66.2693 23.4115 66.1148 23.36 66.0118C23.3085 65.9161 23.2203 65.8646 23.0879 65.8646C22.9555 65.8646 22.8672 65.9014 22.8231 65.9823C22.779 66.0633 22.7496 66.1516 22.7496 66.2472H21.5213L21.2271 65.7984L21.4624 63.1641Z" fill="#0052DA"/>
<path d="M26.1551 63.1641H27.6923L26.898 65.7248H27.479V64.8344H29.156V65.7248H29.6709V66.7108H29.156V67.064H29.5532V68.2045H26.6553V67.064H27.479V66.7108H25.3755V65.5997L26.1551 63.1641Z" fill="#0052DA"/>
<path d="M99.7941 45.195L96.9991 42.6564L98.8967 39.404C98.5952 38.0059 98.2421 36.6299 97.8302 35.2759L94.594 33.3554L95.7929 29.816C95.2118 28.4989 94.5866 27.2112 93.9026 25.9529L90.3722 24.7314L90.8282 21.0522C89.9897 19.8676 89.0997 18.7196 88.1656 17.6159L84.4954 17.1376L84.2012 13.4584C83.1421 12.465 82.0388 11.5158 80.8914 10.6181L77.2065 10.883L76.1768 7.31419C74.9485 6.55628 73.6834 5.85724 72.3889 5.2097L68.8144 6.21781L67.0712 2.9139C65.7326 2.42825 64.3572 2.00147 62.967 1.62619L59.6572 3.34069L57.2889 0.44886C55.8841 0.242826 54.4572 0.0956505 53.0156 0.0147086L50.1103 2.36938L47.1904 0C45.7635 0.0809419 44.3513 0.228103 42.9538 0.41942L40.5413 3.34069L37.1653 1.5894C35.8046 1.94996 34.4734 2.36202 33.1642 2.83296L31.3842 6.21781L27.692 5.17292C26.4563 5.79102 25.2427 6.44591 24.0659 7.16703L22.992 10.883L19.138 10.6034C18.0568 11.4496 17.0123 12.34 16.0121 13.2671L15.7031 17.1376L11.827 17.6453C10.9591 18.6755 10.128 19.7351 9.34097 20.8389L9.82641 24.7388L6.06796 26.0412C5.43542 27.1965 4.86171 28.3812 4.32478 29.5879L5.59722 33.3628L2.14034 35.4157C1.76523 36.6519 1.44159 37.9102 1.1621 39.1832L3.19211 42.6637L0.19858 45.3863C0.0808981 46.6593 0.0147102 47.947 0 49.2421L2.70667 52.259L0.301562 55.5556C0.441309 56.8212 0.632534 58.0795 0.867897 59.3157L4.16299 61.7513L2.4566 65.5041C2.84642 66.6961 3.273 67.8735 3.75109 69.0214L7.50219 70.7579L6.58281 74.7829C7.20063 75.8646 7.84789 76.9242 8.53927 77.9544L12.5846 78.9036L12.4963 83.039C13.3201 83.9735 14.1733 84.8786 15.0632 85.7469L19.2042 85.8646L19.947 89.9559C20.9326 90.699 21.955 91.3981 22.9994 92.0751L27.0815 91.3539L28.6334 95.2097C29.744 95.7395 30.8841 96.2178 32.0462 96.6667L35.9003 95.1435L38.1877 98.5872C39.3939 98.8815 40.6149 99.1317 41.8505 99.3304L45.3001 97.0714L48.2053 99.9559C48.8085 99.9779 49.4042 100 50.0073 100C50.6767 100 51.3386 99.9779 52.0006 99.9485L54.8985 97.064L58.3113 99.301C59.5763 99.0876 60.8193 98.8374 62.0477 98.5283L64.2983 95.1288L68.0641 96.6152C69.2704 96.1516 70.4545 95.6512 71.6093 95.092L73.1244 91.3392L77.0594 92.0309C78.1627 91.3172 79.2439 90.5666 80.2883 89.7719L81.0017 85.8499L84.9515 85.7395C85.9076 84.805 86.827 83.8264 87.7023 82.8183L87.614 78.8889L91.4313 77.9912C92.1889 76.8727 92.895 75.7175 93.5569 74.5401L92.689 70.7432L96.2121 69.1097C96.7343 67.8514 97.205 66.5637 97.6243 65.2539L96.0209 61.7366L99.1027 59.4555C99.3675 58.0942 99.5734 56.7182 99.7279 55.3201L97.4772 52.237L100 49.4261C99.9926 48.0059 99.9191 46.5931 99.7941 45.195ZM50 94.3415C25.5001 94.3415 5.64135 74.4739 5.64135 49.9632C5.64135 25.4525 25.5001 5.58499 50 5.58499C74.4998 5.58499 94.3586 25.4525 94.3586 49.9632C94.3586 74.4739 74.4998 94.3415 50 94.3415Z" fill="#0052DA"/>
</svg>
